<svg width="50" height="50" viewBox="0 0 50 50" fill="none" xmlns="http://www.w3.org/2000/svg">
<path d="M46.875 12H3.125C1.39911 12 0 13.4551 0 15.25V34.75C0 36.5449 1.39911 38 3.125 38H46.875C48.6009 38 50 36.5449 50 34.75V15.25C50 13.4551 48.6009 12 46.875 12Z" fill="#F5C518"/>
<path d="M6.25 32.3125H10.1562V17.6875H6.25V32.3125Z" fill="black"/>
<path d="M18.4942 17.6875L17.6199 24.5194L17.0767 20.8035C16.9192 19.6132 16.7682 18.5745 16.6235 17.6875H11.7188V32.3125H15.0325L15.0454 22.655L16.4403 32.3125H18.7995L20.1237 22.4421L20.1334 32.3125H23.4375V17.6875H18.4942Z" fill="black"/>
<path d="M25 32.3125V17.6875H31.0973C32.4761 17.6875 33.5938 18.8412 33.5938 20.2685V29.7315C33.5938 31.157 32.4779 32.3125 31.0973 32.3125H25ZM29.5564 20.3196C29.4015 20.2325 29.1051 20.1906 28.6739 20.1906V29.7868C29.2432 29.7868 29.5935 29.6804 29.7249 29.4578C29.8562 29.2385 29.9236 28.645 29.9236 27.6708V22.0002C29.9236 21.3389 29.9 20.9164 29.8562 20.7293C29.8124 20.5422 29.7148 20.4067 29.5564 20.3196Z" fill="black"/>
<path d="M40.9609 21.3493H41.2106C42.6131 21.3493 43.75 22.4915 43.75 23.899V29.7629C43.75 31.171 42.6134 32.3125 41.2106 32.3125H40.9609C40.1027 32.3125 39.344 31.8849 38.8843 31.2305L38.6593 32.1246H35.1562V17.6875H38.894V22.3842C39.377 21.7583 40.1212 21.3493 40.9609 21.3493ZM40.1606 28.4809V25.0155C40.1606 24.4429 40.1253 24.0671 40.0516 23.8942C39.978 23.7212 39.6841 23.6101 39.4779 23.6101C39.2717 23.6101 38.9537 23.7004 38.8919 23.8525V25.0155V28.5919V29.7186C38.9626 29.8856 39.2658 29.9785 39.4779 29.9785C39.6899 29.9785 39.9986 29.8886 40.0634 29.7186C40.1282 29.5486 40.1606 29.134 40.1606 28.4809Z" fill="black"/>
</svg>
