<svg xmlns="http://www.w3.org/2000/svg" width="50" height="50" fill="none" viewBox="0 0 50 50"><path fill="#fff" d="M2 4h46v41H2z"/><path fill="#4caf50" d="M5.55 0C2.47 0 0 2.47 0 5.55v38.89c0 .18 0 .36.02.54.02.19.05.36.08.54.04.18.08.36.13.53.06.18.12.35.19.52.07.16.15.33.23.49.09.16.18.31.28.47.1.15.21.29.33.43.11.14.23.28.36.41s.27.25.41.36c.14.12.28.23.43.33.16.1.31.19.47.28.16.08.33.16.49.23.17.07.34.13.52.19.17.05.35.09.53.13.18.03.35.06.54.08q.27.03.54.03h38.89q.27 0 .54-.03c.19-.02.36-.05.54-.08.18-.04.36-.08.53-.13.18-.06.35-.12.52-.19.16-.07.33-.15.49-.23.16-.09.31-.18.47-.28.15-.1.29-.21.43-.33.14-.11.28-.23.41-.36s.25-.27.36-.41c.12-.14.23-.28.33-.43.1-.16.19-.31.28-.47.08-.16.16-.33.23-.49.07-.17.13-.34.19-.52.05-.17.09-.35.13-.53.03-.18.06-.35.08-.54q.03-.27.03-.54V5.55q0-.27-.03-.54c-.02-.19-.05-.36-.08-.54a8 8 0 0 0-.13-.53c-.06-.18-.12-.35-.19-.52-.07-.16-.15-.33-.23-.49-.09-.16-.18-.31-.28-.47-.1-.15-.21-.29-.33-.43-.11-.14-.23-.28-.36-.41s-.27-.25-.41-.36c-.14-.12-.28-.23-.43-.33-.16-.1-.31-.19-.47-.28-.16-.08-.33-.16-.49-.23-.17-.07-.34-.13-.52-.19-.17-.05-.35-.09-.53-.13-.18-.03-.35-.06-.54-.08C44.8 0 44.62 0 44.44 0zm10.19 9.57c.72 0 1.33.24 1.81.71s.73 1.05.73 1.74c0 .94-.04 2.36-.12 4.27-.06 1.89-.09 3.3-.09 4.25 0 .31-.04.9-.13 1.79-.06.62-.09 1.25-.09 1.88l7.16-1.34c2.8-.5 5.21-.78 7.23-.86.05-.83.14-3.07.25-6.71.02-.96.32-2.06.88-3.3.69-1.53 1.48-2.3 2.36-2.3.66 0 1.25.22 1.75.66.55.47.82 1.06.82 1.77 0 .18-.02.37-.07.55-.25.91-.37 1.7-.37 2.38 0 .34-.04.89-.11 1.62-.07.72-.1 1.26-.1 1.6 0 1.18-.06 2.94-.18 5.26-.11 1.75-.17 3.5-.19 5.26 0 .91.07 2.26.2 4.07.14 1.8.21 3.15.21 4.06.01.33-.05.64-.18.95-.13.3-.31.56-.55.79s-.51.41-.83.53c-.31.13-.63.18-.97.17-.35.01-.69-.05-1.02-.17s-.62-.3-.89-.53c-.25-.21-.45-.46-.59-.76-.15-.3-.21-.61-.21-.94 0-.91-.04-2.27-.13-4.09-.06-1.36-.1-2.72-.11-4.08q0-1.065.03-1.89c-1.95.09-4.36.4-7.23.92-2.39.44-4.77.88-7.16 1.33q-.045 1.26-.27 4.23c-.11 1.42-.17 2.84-.18 4.27.01.33-.05.64-.18.94-.13.31-.31.57-.55.8a2.5 2.5 0 0 1-1.8.7 2.547 2.547 0 0 1-1.82-.7 2.3 2.3 0 0 1-.54-.8c-.13-.3-.19-.61-.18-.94 0-1.26.1-3.13.31-5.63.22-2.5.34-4.38.34-5.63 0-1.6.04-3.99.11-7.19.08-3.21.11-5.6.11-7.19 0-.33.06-.65.19-.95.12-.3.31-.56.54-.79.24-.23.52-.41.83-.54.32-.12.64-.18.98-.17"/><path fill="#000" d="M34.728 29.487h1.844c.137.013 2.368-.468 3.368-2.049.419-1.477.792-5.478.792-5.478s-.765-1.72-2.007-2.356c-.657-.006-1.464.295-2.401 1.067l-1.597-1.98zM15.166 29.514H13.34c-.135.013-2.344-.468-3.334-2.049-.414-1.477-.785-5.477-.785-5.477s.758-1.72 1.988-2.356c.65-.007 1.45.294 2.377 1.066l1.58-1.98z" opacity=".35"/><path fill="#ffa6a3" d="M34.728 28.079h1.9c.14.012 2.438-.468 3.469-2.05.43-1.476.815-5.477.815-5.477s-.788-1.72-2.067-2.356c-.677-.006-1.508.295-2.473 1.067l-1.644-1.98zM15.166 28.106h-1.9c-.14.013-2.438-.468-3.469-2.049-.43-1.477-.815-5.478-.815-5.478s.788-1.72 2.067-2.356c.677-.006 1.508.295 2.473 1.067l1.644-1.98z"/><path fill="#0075ff" d="M48.878 33.918c-7.041-4.693-23.94-4.897-23.94-4.897S8.042 29.224 1 33.918l9.857 10.327L6.633 48h36.612l-4.225-3.755z"/><path fill="#0037ff" d="M24.939 39.551V48s9.189-6.44 10.326-12.93c-1.66-2.241-10.326 4.481-10.326 4.481M24.939 39.551V48s-9.19-6.44-10.327-12.93c1.661-2.241 10.327 4.481 10.327 4.481"/><path fill="#000" d="m12.265 15.612.004 15.905c0 6.022 10.146 11.803 10.146 11.803h5.047s10.147-5.782 10.147-11.803l.003-15.905z" opacity=".35"/><path fill="#ffc1bf" d="m12.265 13.735.004 15.904c0 6.022 10.146 11.804 10.146 11.804h5.047s10.147-5.782 10.147-11.804l.003-15.904z"/><path fill="#000" d="M14.143 20.05v3.04c0 2.091 1.716 3.788 3.834 3.788h2.292c1.386 0 2.51-1.111 2.51-2.481v-.08c0-1.178.967-2.133 2.16-2.133 1.192 0 2.159.955 2.159 2.133v.08c0 1.37 1.124 2.48 2.51 2.48H31.9c2.118 0 3.835-1.696 3.835-3.788V20.05z" opacity=".35"/><path fill="#0037ff" d="M14.143 19.112v3.038c0 2.092 1.716 3.789 3.834 3.789h2.292c1.386 0 2.51-1.11 2.51-2.481v-.08c0-1.178.967-2.133 2.16-2.133 1.192 0 2.159.955 2.159 2.133v.08c0 1.37 1.124 2.48 2.51 2.48H31.9c2.118 0 3.835-1.696 3.835-3.788v-3.038z"/><path fill="#0075ff" d="M39.848 14.204H10.03l-7.622 5.633H47.47z"/><path fill="#a4e2f1" d="M39.96 14.204H9.917l2.347-4.224h25.347z"/><path fill="#0075ff" d="M37.612 9.98H12.265l2.258-4.474A6.38 6.38 0 0 1 20.22 2h.04c.925 0 1.833.242 2.635.703l.274.158a3.59 3.59 0 0 0 3.548.015l.345-.194A5.3 5.3 0 0 1 29.658 2a6.38 6.38 0 0 1 5.697 3.506z"/></svg>