<svg xmlns="http://www.w3.org/2000/svg" width="50" height="50" fill="none" viewBox="0 0 50 50"><path fill="url(#a)" fill-rule="evenodd" d="M0 25C0 11.202 11.202 0 25 0s25 11.202 25 25-11.202 25-25 25S0 38.798 0 25" clip-rule="evenodd"/><path fill="#fff" fill-rule="evenodd" d="M22.974 12.5a3.45 3.45 0 0 0-3.448-3.448h-6.897A3.45 3.45 0 0 0 9.181 12.5v6.897a3.45 3.45 0 0 0 3.448 3.448h6.897a3.45 3.45 0 0 0 3.448-3.448zM37.393 9.052h.067l.022.001.022.001.022.001.022.001.022.001.022.002.022.001.022.002.022.002.021.001.022.002.022.003.022.002.021.002.022.003.022.002.021.003.022.003.021.003.021.003.022.004.021.003.021.004.022.004.02.003.022.004.021.005.021.004.021.004.021.005.021.004.021.005.02.005.022.005.02.005.021.005.02.006.021.005.02.006.021.006.02.005.021.006.02.007.02.006.02.006.021.007.02.006.02.007.02.007.02.007.02.007.02.007.02.007.02.008.019.007.02.008.02.008.019.008.019.008.02.008.019.008.019.008.02.009.018.008.02.01.018.008.02.009.018.009.019.01.019.008.018.01.019.01.019.009.018.01.018.01.019.01.018.01.018.01.018.01.019.01.017.01.019.01.017.011.018.011.018.011.018.011.017.011.018.011.017.012.017.01.018.012.017.012.017.012.017.011.017.012.017.012.017.012.017.012.017.013.016.012.017.013.016.012.017.013.016.013.016.012.017.013.016.013.016.013.016.014.015.013.016.014.016.013.015.014.016.013.015.014.016.014.015.014.015.014.015.014.015.014.015.015.015.014.015.015.015.014.014.015.015.015.014.014.014.015.015.015.014.016.014.015.014.015.014.015.013.016.014.015.014.016.013.015.014.016.013.016.013.016.013.016.026.032.013.017.013.016.013.016.012.017.012.016.013.017.012.017.012.017.012.016.012.017.012.017.012.017.012.018.011.017.012.017.011.018.011.017.012.018.01.017.012.018.01.018.011.017.01.018.011.018.01.018.011.018.01.018.01.019.01.018.01.018.01.019.01.018.01.019.009.018.01.019.009.019.009.019.009.018.009.02.008.018.01.02.008.018.008.02.008.019.009.02.008.019.008.02.008.019.008.02.007.019.008.02.007.02.008.019.007.02.007.02.007.02.007.02.006.02.007.02.006.02.007.02.006.02.006.02.006.021.006.02.006.02.005.021.006.021.005.02.006.021.005.021.005.02.005.022.004.02.005.021.005.021.004.021.004.021.004.022.004.02.004.022.004.021.003.021.004.022.003.021.003.021.004.022.002.021.003.022.003.022.003.021.002.022.002.022.002.021.002.022.002.022.002.022.002.022.001.022.001.022.001.022.002.022v.022l.001.022v.022l.001.022v7.075l-.002.022v.022l-.002.022v.022l-.002.022-.002.022-.001.022-.002.021-.002.022-.002.022-.002.022-.002.022-.002.021-.003.022-.003.021-.003.022-.002.021-.004.022-.003.021-.003.022-.004.021-.003.021-.004.022-.004.02-.004.022-.004.021-.004.021-.005.021-.004.021-.005.021-.004.02-.005.022-.005.02-.005.021-.006.02-.005.021-.005.021-.006.02-.006.021-.006.02-.006.02-.006.021-.006.02-.007.02-.006.02-.007.02-.006.021-.007.02-.007.02-.007.02-.007.02-.008.02-.007.02-.008.019-.007.02-.008.019-.008.02-.008.019-.008.02-.009.018-.008.02-.008.019-.009.019-.009.02-.008.018-.01.019-.008.019-.01.019-.009.018-.009.02-.01.018-.01.018-.009.019-.01.018-.01.019-.01.018-.01.018-.01.018-.01.018-.01.018-.011.018-.01.018-.012.018-.01.018-.011.017-.011.018-.012.018-.01.017-.012.017-.012.018-.011.017-.012.017-.012.017-.012.017-.012.017-.012.017-.012.017-.012.017-.013.016-.012.017-.013.016-.012.017-.013.016-.013.016-.013.016-.013.016-.013.016-.013.016-.013.016-.014.016-.013.016-.014.015-.014.016-.013.015-.014.016-.014.015-.014.015-.014.015-.015.015-.014.015-.014.015-.015.015-.014.014-.015.015-.015.014-.015.015-.015.014-.015.014-.015.015-.015.014-.015.014-.016.013-.015.014-.016.014-.015.014-.016.013-.016.013-.015.014-.016.013-.017.013-.015.013-.017.013-.016.013-.016.013-.017.012-.016.013-.017.012-.016.013-.017.012-.017.012-.017.012-.017.012-.017.012-.017.012-.017.012-.017.011-.017.012-.018.011-.017.011-.018.011-.017.011-.018.011-.018.011-.018.011-.017.01-.018.011-.018.01-.019.011-.018.01-.018.01-.018.01-.019.01-.018.01-.018.01-.019.01-.019.009-.018.01-.02.008-.018.01-.019.009-.019.009-.019.008-.019.009-.019.009-.02.008-.018.008-.02.009-.019.008-.02.008-.019.008-.02.007-.019.008-.02.008-.02.007-.02.007-.019.008-.02.007-.02.007-.02.006-.02.007-.02.007-.02.006-.02.007-.02.006-.021.006-.02.006-.02.006-.021.006-.02.005-.021.006-.021.005-.02.005-.021.006-.021.005-.02.004-.022.005-.02.005-.022.004-.02.005-.022.004-.02.004-.022.004-.021.004-.022.004-.02.003-.022.004-.022.003-.02.003-.022.003-.022.003-.021.003-.022.003-.022.002-.021.003-.022.002-.022.002-.022.002-.021.002-.022.002-.022.001-.022.002-.022.001-.022.001-.022.001-.022.001-.022.001h-.022l-.023.001h-7.052l-.022-.001h-.022l-.022-.002h-.022l-.022-.002-.022-.001-.022-.002-.022-.001-.022-.002-.022-.002-.021-.002-.022-.002-.022-.002-.022-.003-.021-.002-.022-.003-.021-.003-.022-.003-.021-.003-.022-.003-.021-.003-.021-.004-.022-.003-.02-.004-.022-.004-.021-.004-.021-.004-.021-.004-.021-.005-.021-.004-.021-.005-.021-.005-.021-.004-.02-.005-.022-.006-.02-.005-.02-.005-.021-.006-.021-.005-.02-.006-.02-.006-.021-.006-.02-.006-.02-.006-.021-.007-.02-.006-.02-.007-.02-.007-.02-.006-.02-.007-.02-.007-.02-.008-.02-.007-.02-.007-.02-.008-.019-.008-.02-.007-.019-.008-.02-.008-.018-.008-.02-.009-.02-.008-.018-.008-.02-.009-.018-.009-.02-.008-.018-.01-.02-.008-.018-.01-.019-.009-.018-.01-.02-.009-.018-.01-.018-.009-.019-.01-.018-.01-.018-.01-.018-.01-.019-.01-.018-.01-.018-.01-.018-.011-.018-.011-.017-.01-.018-.012-.018-.01-.017-.012-.018-.01-.017-.012-.018-.011-.017-.012-.017-.011-.018-.012-.017-.012-.017-.012-.017-.012-.016-.012-.017-.012-.017-.012-.017-.013-.016-.012-.017-.013-.016-.012-.016-.013-.017-.013-.016-.013-.016-.013-.016-.013-.016-.013-.015-.014-.016-.013-.016-.014-.016-.013-.015-.014-.016-.014-.015-.014-.015-.013-.015-.014-.016-.015-.014-.014-.015-.014-.015-.015-.015-.014-.015-.015-.014-.014-.015-.015-.014-.015-.014-.015-.015-.015-.028-.03-.014-.015-.014-.016-.014-.015-.013-.016-.014-.015-.013-.016-.014-.016-.013-.016-.013-.016-.013-.016-.013-.016-.013-.016-.013-.016-.013-.016-.013-.017-.012-.016-.013-.017-.012-.017-.012-.016-.013-.017-.012-.017-.012-.017-.011-.017-.012-.017-.012-.017-.011-.017-.012-.018-.011-.017-.012-.017-.01-.018-.012-.018-.01-.017-.012-.018-.01-.018-.011-.018-.01-.018-.011-.018-.01-.018-.01-.018-.01-.018-.01-.018-.01-.019-.01-.018-.01-.019-.01-.018-.01-.019-.009-.018-.009-.02-.009-.018-.009-.019-.009-.019-.009-.019-.008-.019-.009-.019-.008-.02-.009-.018-.008-.02-.008-.02-.008-.019-.008-.02-.008-.019-.008-.02-.007-.019-.007-.02-.008-.02-.007-.02-.007-.02-.007-.019-.007-.02-.007-.02-.006-.02-.007-.02-.006-.02-.006-.02-.006-.021-.006-.02-.006-.02-.006-.021-.006-.02-.005-.021-.006-.021-.005-.02-.005-.021-.005-.021-.005-.021-.005-.021-.004-.02-.005-.022-.004-.02-.004-.022-.004-.021-.004-.021-.004-.021-.004-.022-.004-.02-.003-.022-.003-.022-.004-.021-.003-.021-.003-.022-.002-.021-.003-.022-.003-.022-.002-.021-.002-.022-.003-.022-.002-.022-.001-.021-.002-.022-.002-.022-.001-.022-.002-.022v-.022l-.002-.022v-.022l-.001-.022-.001-.023v-.044l-.001-.022v-6.986l.001-.022v-.022l.001-.022.001-.022.001-.022.002-.022v-.022l.002-.022.002-.022.002-.022.002-.022.002-.022.002-.021.002-.022.002-.022.003-.021.003-.022.002-.021.003-.022.003-.022.004-.02.003-.022.003-.022.004-.02.004-.022.004-.021.004-.021.004-.022.004-.02.004-.022.005-.02.004-.021.005-.021.005-.021.005-.021.005-.02.005-.021.006-.021.005-.02.006-.021.006-.02.006-.021.006-.02.006-.02.006-.021.006-.02.007-.02.006-.02.007-.02.007-.02.007-.02.007-.02.007-.02.008-.02.007-.02.008-.02.007-.019.008-.02.008-.019.008-.02.008-.019.008-.019.009-.02.008-.018.009-.02.008-.019.01-.019.008-.019.01-.018.008-.02.01-.018.009-.019.01-.018.009-.019.01-.018.01-.019.01-.018.01-.018.01-.019.01-.018.01-.018.01-.018.011-.018.01-.018.011-.018.011-.017.011-.018.011-.018.011-.017.012-.018.011-.017.012-.017.011-.018.012-.017.012-.017.011-.017.012-.017.012-.016.013-.017.012-.017.012-.017.013-.016.012-.017.013-.016.013-.016.013-.017.013-.016.013-.016.013-.016.013-.016.013-.016.014-.016.013-.015.014-.016.013-.015.014-.016.014-.015.014-.015.014-.015.014-.016.015-.015.014-.015.014-.014.015-.015.014-.015.015-.014.015-.015.015-.014.015-.015.014-.014.016-.014.015-.014.015-.014.015-.014.016-.014.015-.013.016-.014.016-.013.015-.014.016-.013.016-.014.016-.013.016-.013.017-.013.016-.012.016-.013.017-.013.016-.012.017-.013.016-.012.017-.013.017-.012.017-.012.016-.012.017-.012.017-.011.018-.012.017-.012.017-.011.018-.011.017-.012.018-.01.017-.012.018-.01.018-.012.017-.01.018-.011.018-.01.018-.011.018-.01.018-.01.019-.01.018-.01.018-.01.019-.01.018-.01.019-.01.018-.01.02-.009.018-.009.019-.01.019-.008.018-.009.02-.009.019-.009.019-.008.019-.009.02-.008.038-.016.02-.008.019-.008.02-.008.019-.008.02-.007.02-.008.019-.007.02-.007.02-.007.02-.007.02-.007.02-.007.02-.006.02-.007.02-.006.02-.006.02-.007.021-.006.02-.005.021-.006.02-.006.021-.005.02-.006.021-.005.021-.005.02-.005.022-.005.02-.005.022-.004.02-.005.022-.004.02-.004.022-.005.02-.004.022-.003.021-.004.022-.004.02-.003.022-.004.022-.003.021-.003.022-.003.021-.003.022-.002.021-.003.022-.002.022-.002.021-.003.022-.002.022-.002.022-.001.022-.002.022-.001.022-.002h.022l.022-.002h.022l.022-.002h.044l.023-.001h6.963m-.008 1.282h-6.967l-.014.001h-.014l-.014.001h-.014l-.014.002h-.014l-.014.001-.014.001-.013.002h-.014l-.014.002-.014.001-.013.002-.014.001-.013.002-.014.002-.013.001-.014.002-.013.002-.014.002-.013.002-.014.002-.013.003-.013.002-.014.002-.013.003-.013.002-.013.003-.013.003-.013.003-.014.002-.012.004-.014.003-.012.003-.014.003-.012.003-.013.004-.013.003-.013.003-.013.004-.012.004-.013.004-.013.003-.013.004-.012.004-.013.004-.012.004-.013.005-.025.008-.012.005-.013.004-.012.005-.012.004-.013.005-.012.005-.012.005-.012.005-.013.005-.012.005-.012.005-.012.005-.012.006-.012.005-.012.005-.012.006-.012.005-.011.006-.012.006-.012.006-.012.006-.011.005-.012.006-.023.013-.012.006-.011.006-.011.006-.012.007-.011.006-.012.007-.01.006-.012.007-.011.007-.011.007-.011.007-.011.007-.023.014-.01.007-.011.007-.011.007-.011.008-.01.007-.011.008-.011.007-.01.008-.011.008-.01.007-.011.008-.01.008-.011.008-.01.008-.01.008-.011.008-.01.008-.01.008-.01.008-.01.009-.01.008-.01.009-.01.008-.01.009-.01.008-.01.01-.01.008-.009.009-.01.008-.01.01-.009.008-.009.01-.01.009-.009.009-.009.009-.01.01-.008.009-.01.009-.008.01-.01.009-.008.01-.01.009-.008.01-.009.01-.008.009-.01.01-.008.01-.008.01-.009.01-.008.01-.008.01-.009.01-.008.01-.008.01-.008.01-.008.01-.008.01-.008.011-.008.01-.008.011-.007.01-.008.011-.008.01-.007.011-.008.011-.007.01-.007.012-.008.01-.007.011-.007.011-.007.011-.007.011-.007.011-.007.011-.007.012-.007.01-.006.012-.007.011-.006.012-.007.011-.006.011-.007.012-.006.011-.006.012-.006.011-.006.012-.006.011-.006.012-.006.012-.006.012-.006.012-.005.011-.006.012-.011.024-.005.012-.006.012-.005.012-.005.012-.005.012-.005.012-.005.013-.005.012-.005.012-.005.012-.004.013-.005.012-.004.012-.005.013-.004.012-.004.013-.005.013-.008.024-.004.013-.004.013-.003.013-.004.012-.004.013-.003.013-.004.013-.003.013-.004.013-.003.012-.003.013-.003.013-.003.013-.003.013-.003.014-.003.013-.003.013-.002.013-.003.013-.003.013-.002.014-.002.013-.003.013-.002.014-.002.013-.002.013-.002.014-.002.013-.001.014-.002.013-.002.014-.001.014-.002.013v.014l-.003.027-.001.014-.002.014v.014l-.001.014v.014l-.002.014v.028l-.001.014v7.037l.001.014.001.014v.014l.002.014v.013l.002.014v.014l.003.027.002.014v.014l.002.013.002.014.002.014.002.013.001.014.002.013.002.013.002.014.002.013.003.014.002.013.003.013.002.013.003.014.002.013.003.013.003.013.003.013.003.013.003.013.003.013.003.013.003.013.004.013.003.013.004.013.003.012.004.013.004.013.003.013.004.012.004.013.004.012.005.013.004.013.004.012.004.012.005.013.004.012.005.013.005.012.004.012.005.013.005.012.005.012.005.012.005.012.005.012.005.012.006.012.005.012.006.012.005.012.006.012.005.012.006.012.006.012.012.023.006.012.006.011.006.012.006.011.006.012.007.011.006.012.006.01.007.012.007.011.006.012.007.01.007.012.007.011.007.011.007.011.007.011.007.011.007.011.008.01.007.012.007.01.008.011.007.01.008.011.008.011.007.01.008.01.008.011.008.01.008.011.008.01.008.01.008.01.008.011.009.01.008.01.008.01.009.01.008.01.009.01.009.01.008.01.009.009.009.01.009.01.009.009.009.01.018.018.009.01.01.009.008.009.01.009.009.009.01.01.009.008.01.009.009.009.01.009.01.008.009.01.01.008.01.008.01.009.01.008.01.009.01.008.01.008.01.008.01.009.01.008.01.008.01.008.011.008.01.008.011.007.01.008.011.008.01.007.012.008.01.007.011.008.01.007.012.007.01.008.011.007.011.007.011.007.012.007.01.007.012.007.011.006.011.007.011.006.012.007.011.007.012.006.01.006.012.007.012.006.012.006.011.006.012.006.011.006.012.006.012.006.012.005.011.006.012.006.012.005.012.006.012.005.012.005.012.005.012.006.012.005.013.005.012.005.012.005.012.004.012.005.013.005.012.004.013.005.012.004.012.005.013.004.013.004.012.004.013.004.012.004.013.004.013.004.012.004.026.007.013.003.013.004.013.003.012.004.014.003.012.003.014.003.012.003.014.003.013.003.013.002.013.003.013.003.014.002.013.003.013.002.013.002.014.002.013.002.027.004.014.002.013.002.014.002.013.001.014.002.014.001.027.003.014.001.013.001.014.001.014.001h.014l.014.002h.028l.014.001h.014l.014.001h7.009l.014-.001h.014l.014-.001.014-.001.014-.001h.014l.013-.002.014-.001.014-.001.014-.002h.013l.014-.002.014-.002.013-.001.014-.002.013-.002.014-.002.013-.002.014-.002.013-.002.013-.002.014-.002.013-.002.013-.003.014-.002.013-.003.013-.003.013-.002.013-.003.013-.003.013-.003.013-.003.013-.003.013-.003.013-.004.013-.003.013-.003.013-.004.013-.004.012-.003.013-.004.013-.004.025-.008.013-.004.012-.004.013-.004.012-.004.013-.005.012-.004.013-.005.012-.004.012-.005.012-.005.013-.004.012-.005.012-.005.012-.005.013-.005.012-.006.012-.005.012-.005.012-.005.012-.006.023-.01.012-.007.012-.005.012-.006.011-.006.012-.006.012-.006.011-.006.012-.006.011-.006.012-.007.011-.006.012-.006.011-.007.011-.006.012-.007.01-.007.012-.006.011-.007.011-.007.011-.007.011-.007.011-.007.011-.007.011-.008.011-.007.01-.007.011-.008.011-.007.011-.008.01-.007.011-.008.01-.008.011-.008.01-.007.011-.008.01-.008.01-.008.01-.008.011-.009.01-.008.01-.008.01-.008.01-.009.01-.008.01-.009.01-.008.01-.009.01-.009.01-.008.009-.01.01-.008.018-.018.01-.009.01-.009.008-.01.01-.008.009-.01.01-.009.008-.01.018-.018.01-.01.008-.01.009-.009.017-.02.009-.01.008-.01.009-.009.017-.02.008-.01.008-.01.009-.01.008-.01.008-.01.008-.01.008-.011.008-.01.008-.011.008-.01.007-.011.008-.01.008-.011.007-.01.015-.022.007-.011.008-.011.007-.01.007-.012.007-.01.007-.012.007-.01.007-.012.007-.011.006-.011.007-.012.007-.01.006-.012.007-.011.006-.012.007-.011.006-.012.006-.011.006-.012.006-.011.006-.012.006-.012.006-.011.006-.012.006-.012.005-.012.006-.012.005-.012.006-.012.005-.012.005-.012.006-.012.005-.012.005-.012.005-.012.005-.012.005-.012.005-.013.004-.012.005-.012.005-.013.004-.012.004-.012.005-.013.004-.012.004-.013.004-.012.004-.013.004-.013.004-.012.004-.013.004-.013.004-.013.003-.012.004-.013.003-.013.003-.013.004-.013.003-.013.003-.013.003-.013.003-.013.003-.013.003-.013.003-.013.002-.013.003-.014.005-.026.002-.013.002-.014.003-.013.002-.014.002-.013.002-.013.001-.014.002-.013.002-.014.001-.014.002-.013.001-.014.002-.014.001-.013.001-.014.001-.014.001-.014.001-.013.001-.014v-.014l.001-.014.001-.014v-.028l.001-.014V12.43l-.001-.014v-.014l-.001-.014-.001-.014v-.014l-.002-.014v-.014l-.002-.014-.001-.013-.001-.014-.002-.014-.001-.013-.002-.014-.001-.014-.002-.013-.002-.014-.002-.013-.001-.014-.002-.013-.002-.013-.003-.014-.002-.013-.002-.013-.003-.014-.002-.013-.003-.013-.002-.013-.003-.013-.003-.014-.003-.013-.006-.026-.003-.013-.003-.013-.004-.013-.003-.012-.003-.013-.004-.013-.003-.013-.004-.013-.004-.012-.004-.013-.004-.013-.004-.012-.004-.013-.004-.013-.004-.012-.004-.013-.005-.012-.004-.013-.004-.012-.005-.012-.005-.013-.004-.012-.005-.012-.005-.013-.005-.012-.005-.012-.005-.012-.005-.012-.006-.012-.005-.012-.005-.012-.006-.012-.005-.012-.006-.012-.005-.012-.006-.011-.006-.012-.006-.012-.006-.011-.006-.012-.006-.012-.006-.011-.006-.012-.006-.011-.007-.012-.006-.011-.007-.011-.006-.012-.007-.011-.007-.011-.006-.011-.007-.012-.007-.01-.007-.012-.007-.01-.007-.012-.007-.01-.008-.011-.007-.011-.007-.011-.008-.011-.007-.01-.008-.011-.007-.01-.008-.011-.008-.011-.007-.01-.008-.011-.016-.02-.008-.01-.008-.011-.008-.01-.009-.01-.008-.01-.008-.01-.017-.02-.009-.01-.008-.01-.009-.01-.008-.01-.01-.01-.008-.01-.009-.009-.009-.01-.009-.009-.009-.01-.009-.008-.009-.01-.019-.018-.009-.01-.01-.008-.009-.01-.01-.008-.009-.01-.01-.008-.009-.01-.01-.008-.01-.009-.009-.008-.01-.009-.01-.008-.01-.009-.01-.008-.01-.008-.01-.009-.01-.008-.01-.008-.01-.008-.01-.008-.011-.008-.01-.008-.01-.008-.011-.008-.021-.015-.011-.008-.01-.007-.011-.008-.011-.007-.01-.008-.012-.007-.01-.007-.012-.007-.01-.007-.012-.007-.022-.014-.011-.007-.022-.014-.023-.013-.011-.006-.012-.007-.011-.006-.012-.006-.011-.006-.012-.007-.011-.006-.012-.006-.012-.005-.011-.006-.012-.006-.012-.006-.012-.006-.023-.01-.012-.006-.012-.005-.012-.006-.012-.005-.013-.005-.024-.01-.012-.005-.012-.005-.012-.005-.013-.005-.012-.004-.012-.005-.013-.004-.012-.005-.025-.008-.013-.005-.012-.004-.013-.004-.013-.004-.012-.004-.013-.003-.013-.004-.012-.004-.013-.004-.013-.003-.013-.004-.013-.003-.013-.003-.013-.003-.013-.003-.013-.004-.013-.002-.013-.003-.013-.003-.013-.003-.013-.003-.014-.002-.013-.003-.013-.002-.013-.002-.014-.003-.013-.002-.013-.002-.014-.002-.013-.002-.014-.002-.013-.002-.014-.001-.013-.002-.014-.001-.014-.002-.013-.001-.014-.001-.014-.002h-.014l-.013-.002h-.014l-.014-.001-.014-.001h-.014l-.014-.001h-.014l-.014-.001h-.042M40.819 30.603a3.45 3.45 0 0 0-3.448-3.448h-6.897a3.45 3.45 0 0 0-3.448 3.448V37.5a3.45 3.45 0 0 0 3.448 3.448h6.897a3.45 3.45 0 0 0 3.448-3.448zM19.548 27.155h.045l.022.001h.022l.022.002h.022l.022.002h.022l.022.002.022.002.022.001.022.002.022.002.021.002.022.002.022.002.022.003.021.002.022.003.021.003.022.003.021.003.022.003.021.003.021.004.022.003.02.004.022.004.021.004.021.004.021.004.021.005.021.004.021.005.021.005.021.004.02.005.021.006.021.005.02.005.021.006.02.005.021.006.02.006.021.006.02.006.02.006.021.007.02.006.02.007.02.006.02.007.02.007.02.007.02.008.02.007.02.007.02.008.019.008.02.007.019.008.02.008.018.008.02.009.02.008.018.008.02.009.018.009.02.008.018.01.02.008.018.01.019.009.018.01.02.009.018.01.018.009.018.01.019.01.018.01.018.01.019.01.018.01.018.01.018.011.018.01.017.012.018.01.018.012.017.01.018.012.017.01.018.012.017.012.017.011.017.012.018.012.017.012.016.012.017.012.017.012.017.012.016.013.017.012.017.013.016.012.016.013.016.013.017.013.016.013.016.013.016.013.015.014.016.013.016.013.015.014.016.014.015.014.016.013.015.014.015.014.015.014.015.015.015.014.015.015.015.014.015.015.014.014.015.015.014.015.014.015.015.015.014.015.014.015.014.015.014.016.014.015.013.016.014.015.013.016.014.016.013.016.013.015.013.017.013.016.013.016.013.016.013.016.013.017.012.016.013.017.012.016.012.017.013.017.011.017.012.017.012.017.012.017.012.017.011.017.012.018.011.017.012.017.01.018.012.017.01.018.012.018.01.018.011.018.01.018.011.018.01.018.01.018.01.018.01.018.01.019.01.018.01.019.01.018.01.019.009.018.009.02.009.018.009.019.009.019.009.019.008.019.009.019.008.02.009.018.008.02.008.02.008.018.008.02.008.02.007.02.008.019.007.02.008.02.007.02.007.019.007.02.007.02.006.02.007.02.007.02.006.02.006.02.006.021.006.02.006.02.006.021.006.02.005.021.006.021.005.02.005.021.005.021.005.021.005.02.004.022.005.02.004.022.004.02.004.022.004.021.004.021.004.022.003.02.004.022.003.022.004.021.003.021.003.022.002.021.003.022.003.022.002.021.002.022.002.022.002.022.002.021.002.022.002.022.001.022.001.022.002.022v.022l.002.022v.022l.001.022v.045l.001.022v6.986l-.001.022v.022l-.002.022v.022l-.001.022-.002.022v.022l-.002.022-.002.022-.002.022-.002.022-.002.022-.002.021-.002.022-.002.022-.003.021-.003.022-.003.021-.002.022-.003.021-.004.022-.003.021-.004.022-.003.02-.004.022-.004.021-.004.021-.004.021-.004.021-.004.022-.005.02-.005.021-.004.021-.005.021-.005.02-.005.022-.005.02-.006.021-.005.02-.006.021-.006.02-.006.021-.006.02-.006.02-.006.02-.006.021-.007.02-.007.02-.006.02-.007.02-.007.02-.007.02-.007.02-.008.02-.007.02-.008.02-.007.019-.008.02-.008.019-.008.02-.008.019-.008.019-.009.02-.008.018-.009.02-.008.019-.01.019-.008.018-.01.02-.008.018-.01.019-.009.019-.01.018-.009.019-.01.018-.01.019-.01.018-.01.018-.01.019-.01.018-.01.018-.01.018-.011.018-.01.018-.011.017-.011.018-.011.018-.011.017-.011.018-.012.017-.011.018-.012.017-.011.017-.012.018-.012.017-.012.017-.012.017-.011.017-.013.016-.012.017-.012.017-.013.016-.012.017-.013.016-.013.016-.013.017-.013.016-.013.016-.013.016-.013.016-.013.016-.014.015-.013.016-.014.016-.014.015-.013.016-.014.015-.014.015-.014.016-.014.015-.015.015-.014.015-.014.014-.015.015-.014.015-.015.014-.015.015-.015.014-.015.015-.015.014-.015.014-.015.014-.015.014-.016.014-.015.014-.015.013-.016.014-.016.014-.015.013-.016.013-.016.013-.016.014-.016.013-.017.013-.016.012-.016.013-.017.013-.016.012-.017.013-.016.012-.017.013-.017.012-.017.012-.017.012-.017.012-.017.011-.017.012-.017.012-.017.011-.018.011-.017.012-.018.01-.017.012-.018.01-.018.012-.017.01-.018.011-.018.01-.018.011-.018.01-.018.01-.019.01-.018.01-.018.01-.019.01-.018.01-.019.01-.018.01-.02.009-.018.009-.019.009-.019.009-.019.009-.019.009-.019.008-.019.009-.019.008-.02.009-.018.008-.02.008-.02.008-.019.008-.02.008-.019.008-.02.007-.02.008-.02.007-.019.007-.02.007-.02.007-.02.007-.02.007-.02.006-.02.007-.02.006-.02.006-.02.006-.021.007-.02.005-.021.006-.02.006-.021.005-.02.006-.022.005-.02.005-.021.005-.02.005-.022.005-.02.004-.022.005-.02.004-.022.004-.02.005-.022.004-.021.003-.021.004-.022.004-.02.003-.022.003-.022.004-.021.003-.022.003-.021.002-.022.003-.021.003-.022.002-.022.002-.022.003-.021.002-.022.001-.022.002-.022.002-.022.001-.022.002h-.022l-.022.002h-.022l-.022.002h-.067l-.022.001H12.54l-.022-.002h-.022l-.022-.001-.022-.001-.022-.001-.022-.002-.022-.001-.022-.002-.022-.002-.022-.001-.021-.002-.022-.003-.022-.002-.022-.002-.021-.003-.022-.003-.021-.002-.022-.003-.021-.003-.022-.004-.021-.003-.021-.003-.022-.004-.02-.004-.022-.003-.021-.005-.021-.004-.021-.004-.021-.004-.021-.005-.021-.004-.021-.005-.02-.005-.022-.005-.02-.005-.021-.005-.02-.006-.021-.005-.02-.006-.021-.006-.02-.005-.021-.007-.02-.006-.02-.006-.02-.006-.021-.007-.02-.006-.02-.007-.02-.007-.02-.007-.02-.007-.02-.007-.02-.008-.02-.007-.019-.007-.02-.008-.02-.008-.019-.008-.019-.008-.02-.008-.019-.008-.019-.008-.02-.009-.018-.009-.02-.008-.018-.009-.02-.009-.018-.009-.019-.01-.019-.008-.018-.01-.019-.01-.019-.009-.018-.01-.018-.01-.019-.01-.018-.01-.018-.01-.018-.01-.018-.01-.019-.01-.018-.01-.017-.011-.018-.011-.018-.011-.018-.011-.017-.011-.018-.011-.017-.012-.018-.011-.017-.011-.017-.012-.017-.012-.017-.011-.017-.012-.017-.012-.017-.012-.017-.012-.017-.013-.016-.012-.017-.013-.016-.012-.017-.013-.016-.013-.016-.013-.016-.012-.017-.014-.016-.013-.016-.013-.015-.013-.016-.014-.016-.013-.015-.014-.016-.013-.015-.014-.016-.014-.015-.014-.015-.014-.015-.014-.015-.014-.015-.015-.015-.014-.015-.015-.015-.014-.014-.015-.015-.015-.014-.014-.014-.015-.015-.015-.014-.015-.014-.016-.014-.015-.014-.015-.013-.016-.014-.015-.014-.016-.013-.016-.014-.015-.013-.016-.013-.016-.013-.016-.013-.016-.013-.016-.013-.017-.013-.016-.013-.016-.012-.017-.013-.016-.012-.017-.012-.017-.012-.017-.012-.016-.012-.017-.012-.017-.012-.017-.012-.018-.011-.017-.012-.017-.011-.018-.011-.017-.012-.017-.01-.018-.012-.018-.01-.017-.011-.018-.01-.018-.011-.018-.01-.018-.011-.018-.01-.018-.01-.019-.01-.018-.01-.018-.01-.019-.01-.018-.01-.019-.009-.018-.01-.019-.009-.019-.009-.019-.009-.019-.009-.018-.009-.02-.008-.018-.009-.02-.008-.019-.009-.019-.008-.02-.008-.019-.008-.02-.008-.019-.008-.02-.007-.019-.008-.02-.007-.02-.008-.019-.007-.02-.007-.02-.007-.02-.007-.02-.006-.02-.007-.02-.007-.02-.006-.02-.006-.02-.006-.02-.006-.021-.006-.02-.006-.021-.005-.02-.006-.021-.005-.02-.006-.021-.005-.021-.005-.02-.005-.022-.004-.02-.005-.022-.005-.02-.004-.022-.004-.02-.004-.022-.004-.02-.004-.022-.004-.021-.003-.021-.004-.022-.003-.021-.003-.022-.004-.021-.002-.022-.003-.021-.003-.022-.002-.021-.003-.022-.002-.022-.002-.021-.002-.022-.002-.022-.002-.022-.002-.022-.001-.022-.001-.022-.002-.022v-.022l-.001-.022-.001-.022v-.022l-.001-.022v-.023l-.001-.022v-6.985l.001-.023v-.022l.002-.022v-.022l.001-.022.002-.022.001-.022.001-.022.002-.022.002-.022.002-.021.002-.022.002-.022.002-.022.003-.021.002-.022.003-.021.003-.022.002-.022.004-.021.003-.021.003-.022.004-.021.003-.021.004-.022.004-.02.004-.022.004-.021.004-.021.004-.021.005-.021.005-.021.004-.021.005-.02.005-.022.005-.02.006-.02.005-.021.006-.021.005-.02.006-.021.006-.02.006-.02.006-.021.006-.02.006-.02.007-.02.007-.021.006-.02.007-.02.007-.02.007-.02.007-.02.008-.02.007-.02.008-.019.007-.02.008-.019.008-.02.008-.019.008-.02.008-.019.009-.019.008-.019.009-.02.008-.018.01-.02.008-.018.01-.019.008-.019.01-.019.009-.018.01-.019.009-.018.01-.019.01-.018.01-.019.01-.018.01-.018.01-.018.01-.018.01-.018.011-.018.01-.018.011-.018.011-.018.011-.017.011-.018.012-.018.01-.017.012-.017.012-.018.011-.017.012-.017.012-.017.012-.017.012-.017.012-.017.012-.017.012-.017.012-.016.013-.017.012-.016.013-.017.013-.016.013-.016.013-.016.013-.016.013-.017.013-.015.013-.016.014-.016.013-.016.014-.015.014-.016.013-.015.014-.016.014-.015.014-.015.014-.015.015-.015.014-.015.014-.015.015-.015.014-.014.015-.015.015-.014.015-.015.015-.014.015-.015.015-.014.015-.014.015-.014.016-.013.015-.014.016-.014.015-.014.016-.013.016-.014.015-.013.016-.013.016-.013.017-.013.016-.013.016-.013.016-.013.017-.012.016-.013.017-.012.016-.013.017-.012.017-.012.017-.012.017-.012.017-.012.017-.012.017-.012.017-.011.017-.012.018-.011.017-.011.018-.012.017-.01.018-.011.018-.011.018-.011.018-.01.017-.011.019-.01.018-.011.018-.01.018-.01.018-.01.019-.01.018-.01.018-.01.019-.01.019-.009.018-.01.019-.009.019-.009.019-.009.019-.009.019-.008.019-.01.019-.008.02-.008.018-.008.02-.009.019-.008.02-.008.019-.008.02-.008.019-.007.02-.008.02-.007.02-.008.019-.007.02-.007.02-.007.02-.007.02-.006.02-.007.02-.006.02-.007.02-.006.02-.006.021-.006.02-.006.021-.006.02-.005.021-.006.02-.005.022-.005.02-.006.021-.005.02-.005.022-.004.02-.005.022-.004.02-.005.022-.004.02-.004.022-.004.021-.004.021-.004.022-.003.021-.004.021-.003.022-.003.021-.003.022-.003.021-.003.022-.003.021-.002.022-.003.022-.002.022-.002.021-.002.022-.002.022-.002.022-.001.022-.002.022-.001.022-.001.022-.001.022-.001.022-.001h.022l.023-.001h6.985m-6.917 1.282h-.044l-.014.001h-.014l-.014.001h-.014l-.014.001-.014.001h-.014l-.014.002h-.014l-.013.002-.014.001-.014.001-.013.002-.014.001-.014.002-.013.001-.014.002-.013.002-.014.002-.013.002-.014.002-.013.002-.027.004-.013.002-.013.003-.014.002-.013.003-.013.003-.013.002-.013.003-.013.003-.026.006-.013.003-.013.003-.013.004-.013.003-.013.003-.013.004-.025.007-.013.004-.013.004-.012.004-.013.004-.013.004-.012.004-.013.004-.012.004-.013.005-.012.004-.013.005-.012.004-.012.005-.013.005-.012.004-.012.005-.012.005-.012.005-.013.005-.012.005-.012.006-.012.005-.012.005-.012.006-.023.01-.012.007-.012.005-.012.006-.011.006-.012.006-.012.006-.011.006-.012.006-.011.006-.012.007-.011.006-.012.006-.011.007-.011.006-.012.007-.01.007-.012.006-.011.007-.011.007-.011.007-.011.007-.011.007-.011.007-.011.008-.011.007-.01.007-.012.008-.01.007-.011.008-.01.007-.011.008-.01.008-.011.007-.01.008-.011.008-.01.008-.01.008-.01.008-.011.009-.01.008-.01.008-.01.008-.01.009-.01.008-.01.009-.01.008-.01.009-.01.009-.01.008-.009.01-.01.008-.009.009-.01.009-.009.009-.01.009-.008.01-.01.008-.018.019-.018.019-.01.01-.008.009-.009.01-.009.009-.009.01-.008.01-.009.01-.008.009-.009.01-.008.01-.009.01-.008.01-.017.02-.008.01-.008.01-.008.01-.008.011-.016.02-.008.011-.007.01-.008.011-.007.011-.008.01-.008.011-.014.022-.008.01-.007.012-.007.01-.007.012-.007.01-.007.012-.007.01-.007.012-.013.023-.007.01-.006.012-.007.011-.006.012-.007.011-.006.012-.006.011-.006.012-.012.023-.006.012-.006.011-.006.012-.006.012-.005.012-.011.023-.006.012-.005.012-.005.012-.006.013-.005.012-.005.012-.005.012-.005.012-.005.012-.005.013-.004.012-.005.012-.005.012-.004.013-.005.012-.008.025-.004.013-.004.012-.005.013-.004.013-.003.012-.004.013-.004.013-.004.012-.003.013-.004.013-.003.013-.004.013-.003.013-.003.013-.003.013-.003.013-.003.013-.003.013-.003.013-.003.013-.002.013-.003.014-.002.013-.003.013-.002.013-.002.014-.002.013-.003.014-.002.013-.002.013-.001.014-.002.013-.002.014-.002.014-.001.013-.001.014-.002.014-.001.013-.001.014-.001.014-.001.014-.001.013-.001.014v.014l-.002.014v.042l-.001.014v7.009l.001.014v.014l.001.014.001.014v.014l.002.014v.014l.002.014.001.013.001.014.002.014.001.013.001.014.002.013.002.014.002.014.001.013.002.014.002.013.003.013.002.014.002.013.002.013.003.014.002.013.003.013.002.013.003.013.003.014.003.013.003.013.003.013.003.013.003.013.003.012.004.013.003.013.004.013.003.013.004.013.004.012.004.013.003.013.005.012.004.013.004.013.004.012.008.025.005.012.004.013.005.012.005.013.004.012.005.012.005.012.005.013.005.012.005.012.005.012.005.012.006.012.005.012.006.012.005.012.006.012.005.011.006.012.006.012.012.023.006.012.006.012.006.011.006.012.006.011.007.012.006.011.007.011.006.012.007.01.007.012.006.011.007.011.007.012.007.01.014.023.007.01.007.011.008.011.007.011.008.01.014.022.016.021.008.011.007.01.008.01.008.011.008.01.008.01.008.011.008.01.008.01.009.01.008.01.009.01.008.01.008.01.018.02.008.01.01.01.008.01.009.009.009.01.009.009.009.01.009.009.009.009.01.009.008.01.01.008.01.01.009.009.009.009.01.008.01.01.009.008.01.009.01.008.009.01.01.008.01.008.01.009.01.008.01.008.01.009.01.008.01.008.01.008.01.008.01.008.011.008.01.008.011.008.01.008.011.007.011.008.021.015.011.007.01.008.012.007.01.007.012.007.01.007.012.007.01.007.012.007.01.007.012.007.011.006.012.007.01.007.012.006.012.006.011.007.012.006.011.006.012.006.011.006.012.006.023.012.012.006.012.006.012.005.011.006.012.006.012.005.012.005.012.006.012.005.012.005.012.005.013.005.012.005.024.01.013.005.012.004.012.005.013.004.012.005.013.004.012.004.013.005.025.008.012.004.013.004.013.003.013.004.012.004.013.003.013.004.013.003.013.004.013.003.013.003.013.003.013.003.013.003.013.003.013.003.013.003.013.002.014.003.013.003.013.002.013.002.014.003.013.002.013.002.014.002.013.002.014.002.013.001.014.002.013.002.014.001.014.002.013.001.014.001.014.001.013.002h.014l.014.002h.014l.014.001h.014l.014.001h.014l.014.001h7.037l.014-.001.014-.001h.014l.014-.002h.014l.014-.002h.013l.014-.002.014-.001.013-.001.014-.002.014-.001.013-.002.014-.002.013-.001.014-.002.013-.002.014-.002.013-.002.014-.002.013-.003.013-.002.013-.002.014-.003.013-.003.013-.002.013-.003.013-.003.014-.003.012-.003.014-.003.012-.003.013-.003.013-.003.013-.004.013-.003.013-.004.013-.003.012-.004.013-.004.013-.003.013-.004.012-.004.013-.004.012-.004.013-.005.013-.004.012-.004.012-.005.013-.004.012-.005.012-.004.013-.005.012-.005.012-.005.012-.005.013-.005.012-.005.012-.005.012-.005.012-.006.012-.005.012-.005.012-.006.011-.005.012-.006.012-.006.012-.006.012-.006.011-.006.023-.012.012-.006.012-.006.011-.006.011-.007.023-.012.011-.007.012-.007.011-.006.011-.007.011-.007.011-.007.012-.007.01-.007.012-.007.01-.007.011-.007.011-.008.011-.007.01-.007.011-.008.011-.007.01-.008.011-.008.01-.007.011-.008.01-.008.011-.008.01-.008.01-.008.011-.008.01-.008.01-.008.01-.009.01-.008.01-.008.01-.009.01-.008.01-.009.01-.008.01-.01.01-.008.009-.009.01-.009.01-.008.009-.01.018-.018.01-.009.009-.009.01-.01.008-.008.01-.01.008-.01.01-.009.008-.01.01-.009.008-.01.009-.01.008-.009.018-.02.008-.01.008-.01.009-.01.008-.01.009-.01.008-.01.008-.01.008-.01.008-.01.008-.01.008-.011.008-.01.008-.011.007-.01.008-.011.008-.01.007-.011.008-.011.007-.01.007-.012.008-.01.007-.011.007-.011.007-.011.007-.011.007-.011.007-.011.007-.012.007-.01.006-.012.007-.011.006-.012.007-.011.006-.011.013-.023.006-.012.012-.023.006-.012.006-.011.006-.012.006-.012.006-.011.005-.012.006-.012.006-.012.005-.012.005-.012.006-.012.005-.012.005-.012.005-.012.005-.012.005-.013.005-.012.005-.012.004-.012.005-.013.005-.012.009-.025.004-.013.004-.012.004-.013.005-.012.004-.013.003-.012.005-.013.003-.013.004-.012.007-.026.004-.013.003-.013.004-.013.003-.012.003-.013.003-.013.003-.013.003-.014.003-.012.003-.014.003-.013.002-.013.003-.013.003-.014.002-.013.002-.013.002-.013.003-.014.002-.013.004-.027.002-.014.001-.013.002-.014.002-.013.001-.014.002-.013.002-.028.001-.014.001-.013.001-.014.001-.014.001-.014v-.014l.002-.014v-.028l.001-.014V30.52l-.001-.014-.001-.014v-.014l-.002-.014v-.014l-.002-.013v-.014l-.002-.014-.001-.014-.002-.013-.001-.014-.001-.014-.002-.013-.002-.014-.002-.013-.001-.014-.002-.013-.002-.014-.002-.013-.005-.027-.002-.013-.003-.013-.002-.014-.003-.013-.002-.013-.003-.013-.003-.013-.003-.013-.003-.013-.003-.013-.003-.013-.003-.013-.003-.013-.004-.013-.003-.013-.004-.013-.003-.012-.004-.013-.004-.013-.003-.013-.008-.025-.005-.013-.004-.012-.004-.013-.004-.012-.005-.013-.004-.012-.004-.012-.005-.013-.005-.012-.004-.012-.005-.013-.005-.012-.005-.012-.005-.012-.005-.012-.005-.012-.005-.012-.006-.012-.005-.012-.006-.012-.01-.024-.006-.012-.006-.012-.006-.012-.006-.011-.006-.012-.006-.012-.006-.011-.006-.012-.006-.011-.006-.012-.007-.011-.006-.012-.007-.011-.006-.011-.007-.011-.006-.012-.007-.011-.007-.011-.007-.011-.007-.011-.007-.011-.007-.011-.007-.011-.007-.011-.008-.011-.007-.01-.007-.012-.008-.01-.007-.01-.008-.011-.008-.011-.007-.01-.008-.011-.008-.01-.008-.01-.008-.011-.008-.01-.008-.01-.008-.01-.008-.011-.009-.01-.008-.01-.009-.01-.008-.01-.008-.01-.009-.01-.009-.01-.008-.01-.01-.01-.008-.009-.009-.01-.009-.009-.009-.01-.009-.009-.009-.009-.009-.01-.01-.009-.008-.009-.01-.009-.01-.01-.008-.008-.01-.01-.01-.008-.01-.009-.009-.009-.01-.008-.01-.01-.009-.008-.01-.008-.01-.009-.01-.008-.01-.009-.01-.008-.01-.008-.01-.008-.01-.009-.01-.008-.01-.008-.01-.008-.011-.008-.01-.008-.011-.007-.01-.008-.011-.008-.011-.007-.01-.008-.022-.015-.01-.007-.012-.007-.01-.008-.011-.007-.011-.007-.012-.007-.01-.007-.012-.007-.01-.007-.012-.006-.011-.007-.012-.007-.01-.006-.012-.007-.012-.006-.011-.006-.011-.007-.024-.012-.011-.006-.012-.006-.011-.006-.012-.006-.012-.006-.024-.011-.023-.011-.012-.006-.012-.005-.012-.005-.012-.006-.012-.005-.012-.005-.013-.005-.012-.005-.012-.005-.012-.005-.013-.004-.012-.005-.012-.004-.013-.005-.012-.004-.013-.005-.012-.004-.013-.004-.012-.004-.013-.004-.012-.004-.013-.004-.013-.004-.012-.004-.026-.007-.013-.004-.013-.003-.013-.003-.013-.004-.012-.003-.014-.003-.026-.006-.013-.003-.013-.003-.013-.003-.013-.002-.013-.003-.027-.005-.013-.002-.027-.004-.013-.003-.014-.002-.013-.001-.014-.002-.013-.002-.014-.002-.013-.001-.014-.002-.014-.001-.013-.002h-.014l-.014-.002-.013-.001-.014-.001-.014-.001h-.014l-.014-.002h-.028l-.014-.001h-.014l-.014-.001h-6.937" clip-rule="evenodd"/><defs><linearGradient id="a" x1="25" x2="25" y1="50" y2="0" gradientUnits="userSpaceOnUse"><stop stop-color="#b81e1e"/><stop offset="1" stop-color="#fd877e"/></linearGradient></defs></svg>