<svg xmlns="http://www.w3.org/2000/svg" width="50" height="50" fill="none" viewBox="0 0 50 50"><g clip-path="url(#a)"><path fill="url(#b)" d="M15.2 14.019c2.835-2.69 6.352-4.443 10.117-5.042L28.82 2.8l-.071 6.127q1.104.131 2.167.48l9.541-7.405.03-.212L36.412.44l-2.246 2.007a19 19 0 0 0-1.667-.15L31.808 0l-4.762.53L25.5 3.087c-.6.159-1.204.335-1.804.538l-1.613-1.61-4.741 2.333-.592 2.673q-.83.543-1.667 1.152l-2.291-.649-2.03 1.92z"/><path fill="url(#c)" d="M2.22 32.682.08 34.848 1.091 39.1l2.608-.185q.316.701.7 1.363l6.504-6.427c-1.564-2.087-2.306-4.732-2.07-7.384l-4.888-.856 5.479-2.492a19.4 19.4 0 0 1 3.112-6.145l-3.229-6.14-.504.476.454 2.395q-.624.787-1.25 1.593l-2.645.397-2.65 4.662 1.433 1.765a24 24 0 0 0-.659 1.786L.896 25.285 0 30.11l2.2.856c-.017.578-.013 1.151.02 1.716"/><path fill="url(#d)" d="m12.538 16.974-.459-.882a25 25 0 0 0-3.804 7.543l1.15-.525a19.4 19.4 0 0 1 3.112-6.136"/><path fill="url(#e)" d="m8.833 26.467-1.096-.19c-.225 2.642.52 5.275 2.084 7.349L3.954 39.39c.142.291.28.587.446.883l6.504-6.423c-1.564-2.087-2.306-4.732-2.07-7.384"/><path fill="url(#f)" d="m31.492 31.945-.217.216c-2.8 2.711-6.282 4.505-10.025 5.166l-4.967 8.108.384-8.139a10 10 0 0 1-3.613-1.46l-9.766 7.318 2.5 2.766 2.629-1.191q.625.45 1.291.829l-.375 2.647 4.075 1.363 2.259-2.016c.55.075 1.108.123 1.666.154L17.996 50l4.775-.53 1.541-2.536q.9-.235 1.8-.538l1.605 1.593L32.5 45.65l.592-2.647a46 46 0 0 0 1.666-1.156l2.3.644 1.95-1.844z"/><path fill="url(#g)" d="m16.588 38.584.054-1.288a10 10 0 0 1-3.609-1.46l-1.133.851a15.9 15.9 0 0 0 4.687 1.897"/><path fill="url(#h)" d="m32.383 32.978-.891-1.033-.217.216c-2.8 2.711-6.282 4.505-10.025 5.166l-.92 1.49c4.428-.805 8.583-2.817 12.053-5.84"/><path fill="url(#i)" d="M27.05 5.92 28.82 2.8l-.024 2.814a22.2 22.2 0 0 1 6.92.075l4.742-3.687.03-.212L36.412.44l-2.246 2.007a19 19 0 0 0-1.667-.15L31.808 0l-4.762.53L25.5 3.087c-.6.159-1.204.335-1.804.538l-1.613-1.61-4.741 2.333-.592 2.673q-.83.543-1.667 1.152l-2.291-.649-2.03 1.92 2.888 2.986c3.947-3.21 8.527-5.436 13.4-6.511"/><path fill="url(#j)" d="m27.83 4.548.99-1.765v1.72a19.4 19.4 0 0 1 6.926 1.16l4.916-3.815-4.25-1.407-2.245 2.007a19 19 0 0 0-1.667-.15L31.808 0l-4.762.53L25.5 3.087c-.6.159-1.204.335-1.804.538l-1.613-1.61-4.741 2.333-.592 2.673q-.83.543-1.667 1.152l-2.291-.649-2.03 1.92 1.084 1.115c5.112-3.714 10.75-5.752 15.983-6.012"/><path fill="url(#k)" d="M12.763 11.46 23.9 17.415l-.975 4.566z"/><path fill="url(#l)" d="M28.47 36.881a34.3 34.3 0 0 1-10.553 5.876l-1.625 2.647.095-2.206c-4.704 1.297-9.27 1.27-13.008-.137l-.083.062 2.5 2.766 2.629-1.191q.626.45 1.292.83l-.375 2.646 4.075 1.363 2.258-2.016c.55.075 1.108.123 1.667.154l.662 2.294 4.775-.53 1.542-2.536q.9-.235 1.8-.538l1.604 1.593L32.5 45.65l.592-2.647a46 46 0 0 0 1.666-1.156l2.3.644 1.95-1.844-6.508-7.565a36 36 0 0 1-4.03 3.798"/><path fill="url(#m)" d="M3.75 37.856a14.8 14.8 0 0 1-2.617-4.084L.08 34.848 1.092 39.1l2.608-.185q.316.701.7 1.363l.93-.918a14.4 14.4 0 0 1-1.58-1.504"/><path fill="url(#n)" d="m17.917 42.753-1.63 2.646.113-2.572c-3.318.146-6.61-.68-9.512-2.386l-3.6 2.713 2.5 2.766 2.629-1.191q.625.45 1.291.829l-.375 2.647 4.075 1.363 2.259-2.016c.55.075 1.108.123 1.666.154L17.996 50l4.775-.53 1.541-2.536q.9-.235 1.8-.538l1.605 1.593L32.5 45.65l.592-2.647a46 46 0 0 0 1.666-1.156l2.3.644 1.95-1.844-4.654-5.385c-5.075 4.437-10.958 6.987-16.437 7.49"/><path fill="url(#o)" d="M34.354 35.263c-5.066 4.437-10.941 6.978-16.416 7.485h-.03l-1.625 2.647.096-2.206c-4.704 1.297-9.27 1.27-13.008-.136l-.08.061 2.5 2.766 2.63-1.191q.626.45 1.292.83l-.375 2.646 4.075 1.363 2.258-2.016q.827.11 1.666.154L18 49.96l4.775-.529 1.542-2.536c.6-.16 1.2-.336 1.8-.539l1.604 1.593L32.5 45.65l.592-2.647a46 46 0 0 0 1.666-1.156l2.3.644 1.95-1.844z"/><path fill="url(#p)" d="m12.763 11.46 10.616 8.399-.454 2.122z"/><path fill="url(#q)" d="m6.62 38.06 11.888-15.696 4.417-.383z"/><path fill="url(#r)" d="m6.62 38.06 14.463-15.92 1.842-.16z"/><path fill="url(#s)" d="M37.917 39.356 21.95 26.546l.975-4.565z"/><path fill="url(#t)" d="m37.917 39.356-15.35-15.695.358-1.68z"/><path fill="url(#u)" d="m49.763 15.165-1.013-4.26-2.617.184a15 15 0 0 0-.716-1.385l1.358-2.584-4.167-4.23c-1.941 1.914-.158.15-1.941 1.914l-6.563 6.36q.455.379.858.817a9.87 9.87 0 0 1 2.4 5.315c.17 1.167.232 2.349.188 3.529l6.77.926s-1.012.516-6.7 3.344c-.832 2.386-1.49 3.357-3.253 5.527l6.05 9.157 5-5.58-1.15-2.677 1.725-3.432 2.379-.278L50 21.773l-2.258-1.8-.1-2.677z"/><path fill="url(#v)" d="m35.02 10.274-.916.882c3.517 3.118 3.463 7.146 3.446 9.704l1.354.185c0-4.764-.642-7.701-3.883-10.772"/><path fill="url(#w)" d="M42.013 3.48c2.612 3.37 7.629 19.956-5.375 30.596 4.07 6.175 2.783 4.208 3.75 5.703 1.7-1.892 5-5.58 5-5.58l-1.15-2.677 1.724-3.432 2.38-.278L50 21.773l-2.258-1.8-.1-2.677 2.12-2.13-1.012-4.262-2.617.185a15 15 0 0 0-.716-1.385l1.358-2.584-4.167-4.23-.6.59"/><path fill="url(#x)" d="M45 10.587c2.438 14.477-5.567 20.807-8.383 23.454 1.154 1.764 1.25 1.879 2.812 4.252 4.092-5.487 12.371-14.967 5.783-27.486a1.2 1.2 0 0 0-.212-.22"/><path fill="url(#y)" d="M11.25 14.557 9.3 10.856l-.504.476.454 2.395q-.625.787-1.25 1.593l-2.646.397-2.641 4.64 1.433 1.765a24 24 0 0 0-.659 1.786L.896 25.285 0 30.11l1.6.622c1.375-5.66 4.65-11.429 9.65-16.175"/><path fill="url(#z)" d="m38.904 24.477-1.283.636c-.983 2.615-1.442 3.299-3.254 5.531l.596.882c2.537-2.854 3.212-4.376 3.941-7.049"/><path fill="url(#A)" d="M22.925 21.98 42.8 2.723l-15.467 18.88"/><path fill="url(#B)" d="M22.925 21.98 42.8 2.723 24.704 21.826"/></g><defs><linearGradient id="b" x1="25.633" x2="25.633" y1=".066" y2="50.009" gradientUnits="userSpaceOnUse"><stop stop-color="#2891c9"/><stop offset="1" stop-color="#1b4584"/></linearGradient><linearGradient id="c" x1="6.271" x2="6.271" y1=".066" y2="50.004" gradientUnits="userSpaceOnUse"><stop stop-color="#2891c9"/><stop offset="1" stop-color="#1b4584"/></linearGradient><linearGradient id="d" x1="10.408" x2="10.408" y1="13.339" y2="26.14" gradientUnits="userSpaceOnUse"><stop stop-color="#242f69"/><stop offset="1" stop-color="#1e3c70"/></linearGradient><linearGradient id="e" x1="7.429" x2="7.429" y1="21.147" y2="44.896" gradientUnits="userSpaceOnUse"><stop stop-color="#242f69"/><stop offset="1" stop-color="#1e3c70"/></linearGradient><linearGradient id="f" x1="2.204" x2="32.075" y1="46.93" y2="39.675" gradientUnits="userSpaceOnUse"><stop stop-color="#2891c9"/><stop offset="1" stop-color="#1b4584"/></linearGradient><linearGradient id="g" x1="11.963" x2="15.742" y1="37.989" y2="37.069" gradientUnits="userSpaceOnUse"><stop stop-color="#242f69"/><stop offset="1" stop-color="#1e3c70"/></linearGradient><linearGradient id="h" x1="19.975" x2="43.184" y1="32.232" y2="43.197" gradientUnits="userSpaceOnUse"><stop stop-color="#242f69"/><stop offset="1" stop-color="#1e3c70"/></linearGradient><linearGradient id="i" x1="13.379" x2="42.219" y1="7.627" y2="3.401" gradientUnits="userSpaceOnUse"><stop stop-color="#4fc5f1"/><stop offset="1" stop-color="#051939"/></linearGradient><linearGradient id="j" x1="15.7" x2="40.489" y1="-.847" y2="13.92" gradientUnits="userSpaceOnUse"><stop stop-color="#b1deeb"/><stop offset=".26" stop-color="#4dc7eb"/><stop offset="1" stop-color="#1b4584"/></linearGradient><linearGradient id="k" x1="18.333" x2="18.333" y1="8.858" y2="38.725" gradientUnits="userSpaceOnUse"><stop stop-color="#2891c9"/><stop offset="1" stop-color="#1b4584"/></linearGradient><linearGradient id="l" x1="33.083" x2="7.577" y1="32.757" y2="50.468" gradientUnits="userSpaceOnUse"><stop stop-color="#151d42"/><stop offset="1" stop-color="#1e3c70"/></linearGradient><linearGradient id="m" x1="-3.8" x2="12.274" y1="13.11" y2="66.527" gradientUnits="userSpaceOnUse"><stop stop-color="#242f69"/><stop offset="1" stop-color="#1e3c70"/></linearGradient><linearGradient id="n" x1="10.683" x2="26.752" y1="2.947" y2="56.373" gradientUnits="userSpaceOnUse"><stop stop-color="#242f69"/><stop offset="1" stop-color="#1e3c70"/></linearGradient><linearGradient id="o" x1="35.054" x2="1.188" y1="39.462" y2="48.882" gradientUnits="userSpaceOnUse"><stop stop-color="#202f60"/><stop offset="1" stop-color="#375ca9"/></linearGradient><linearGradient id="p" x1="13.133" x2="31.297" y1="10.825" y2="27.152" gradientUnits="userSpaceOnUse"><stop stop-color="#b1deeb"/><stop offset=".26" stop-color="#4dc7eb"/><stop offset="1" stop-color="#1b4584"/></linearGradient><linearGradient id="q" x1="14.771" x2="14.771" y1="8.858" y2="38.73" gradientUnits="userSpaceOnUse"><stop stop-color="#375ca9"/><stop offset="1" stop-color="#1e3c70"/></linearGradient><linearGradient id="r" x1="25.038" x2="9.852" y1="18.156" y2="33.822" gradientUnits="userSpaceOnUse"><stop stop-color="#4dc7eb"/><stop offset="1" stop-color="#1b4584"/></linearGradient><linearGradient id="s" x1="17.975" x2="39.159" y1="17.115" y2="42.143" gradientUnits="userSpaceOnUse"><stop stop-color="#2891c9"/><stop offset="1" stop-color="#1b4584"/></linearGradient><linearGradient id="t" x1="21.167" x2="33.708" y1="21.416" y2="32.607" gradientUnits="userSpaceOnUse"><stop stop-color="#375ca9"/><stop offset="1" stop-color="#1e3c70"/></linearGradient><linearGradient id="u" x1="37.179" x2="54.241" y1="8.915" y2="50.138" gradientUnits="userSpaceOnUse"><stop stop-color="#cd3428"/><stop offset=".26" stop-color="#d44e26"/><stop offset=".82" stop-color="#e69022"/><stop offset="1" stop-color="#eca720"/></linearGradient><linearGradient id="v" x1="34.104" x2="45.642" y1="15.655" y2="15.655" gradientUnits="userSpaceOnUse"><stop stop-color="#eba438"/><stop offset="1" stop-color="#eba438"/></linearGradient><linearGradient id="w" x1="43.317" x2="43.317" y1="6.462" y2="85.514" gradientUnits="userSpaceOnUse"><stop stop-color="#eca720"/><stop offset="1" stop-color="#cd3428"/></linearGradient><linearGradient id="x" x1="41.242" x2="59.96" y1="22.933" y2="72.999" gradientUnits="userSpaceOnUse"><stop stop-color="#eca720"/><stop offset="1" stop-color="#cd3428"/></linearGradient><linearGradient id="y" x1="-.021" x2="17.399" y1="7.733" y2="47.882" gradientUnits="userSpaceOnUse"><stop stop-color="#b1deeb"/><stop offset=".26" stop-color="#4dc7eb"/><stop offset="1" stop-color="#1b4584"/></linearGradient><linearGradient id="z" x1="31.975" x2="48.255" y1="27.588" y2="25.139" gradientUnits="userSpaceOnUse"><stop stop-color="#eaa138"/><stop offset=".93" stop-color="#eaa038"/></linearGradient><linearGradient id="A" x1="32.862" x2="32.862" y1="6.229" y2="23.167" gradientUnits="userSpaceOnUse"><stop stop-color="#eca720"/><stop offset="1" stop-color="#cd5628"/></linearGradient><linearGradient id="B" x1="32.862" x2="32.862" y1="4.702" y2="36.343" gradientUnits="userSpaceOnUse"><stop stop-color="#fdd300"/><stop offset="1" stop-color="#cc6d28"/></linearGradient><clipPath id="a"><path fill="#fff" d="M0 0h50v50H0z"/></clipPath></defs></svg>