<svg xmlns="http://www.w3.org/2000/svg" width="50" height="50" fill="none" viewBox="0 0 50 50"><path fill="#eda183" d="m25.053 0-4.37 13.636L8.634 6.061l5.33 13.311L0 21.32l12.473 6.71-9.488 10.606 13.86-3.03L16.31 50l8.742-11.364L33.69 50l-.533-14.394 13.859 3.03-9.488-10.606L50 21.32l-13.966-1.948 5.33-13.311-12.046 7.575z"/><path fill="#000" d="M18.706 31.3c0-.255-.04-.49-.098-.685a1.8 1.8 0 0 0-.254-.508 3 3 0 0 0-.352-.351c-.117-.098-.254-.157-.371-.215a1 1 0 0 0 .312-.215c.118-.098.215-.215.313-.352q.147-.205.235-.469a1.8 1.8 0 0 0 .097-.586q0-.674-.293-1.172a1.93 1.93 0 0 0-.82-.762c-.352-.176-.802-.274-1.31-.274H13v7.874h3.302c.352 0 .684-.058.977-.156s.547-.234.762-.43.39-.43.508-.703c.078-.293.137-.625.157-.997m-1.544-.079c0 .176-.04.332-.117.489a1.1 1.1 0 0 1-.333.351c-.156.098-.351.137-.586.137h-1.602v-1.934h1.602c.235 0 .43.039.586.137a.65.65 0 0 1 .333.351.93.93 0 0 1 .117.47m-.117-3.243a.93.93 0 0 1-.118.468.8.8 0 0 1-.351.313 1.2 1.2 0 0 1-.547.117h-1.505V27.06h1.505c.215 0 .41.04.547.117a.8.8 0 0 1 .351.313c.079.156.118.313.118.489M25.486 31.827l1.406 1.66h-1.856l-.567-.683a4 4 0 0 1-.312.234 4 4 0 0 1-.41.235 3 3 0 0 1-.567.195 3 3 0 0 1-.742.078c-.587 0-1.056-.097-1.446-.293a2.05 2.05 0 0 1-.86-.82c-.196-.352-.293-.782-.293-1.27 0-.235.039-.47.117-.684.078-.196.195-.391.332-.567a3.4 3.4 0 0 1 .45-.469c.156-.137.332-.254.508-.371-.079-.098-.157-.196-.254-.313a1.8 1.8 0 0 1-.254-.371 3 3 0 0 1-.196-.45 1.5 1.5 0 0 1-.078-.527c0-.371.098-.684.254-.958.176-.273.41-.488.723-.644s.684-.235 1.133-.235c.41 0 .782.078 1.075.235.293.176.527.39.684.664.176.274.254.606.254.957 0 .196-.04.391-.098.548a1.5 1.5 0 0 1-.274.449 2.7 2.7 0 0 1-.43.371s-.019.02-.058.04c-.039.038-.078.078-.137.117-.078.039-.137.097-.195.136l-.176.118 1.329 1.563a1.6 1.6 0 0 0 .293-.606c.078-.235.098-.508.117-.782h1.368a4.9 4.9 0 0 1-.235 1.368c-.137.41-.332.762-.605 1.075M35.431 25.613h1.602l-2.11 7.875h-1.29l-1.445-4.768-1.446 4.768h-1.29l-2.11-7.875h1.602l1.212 4.963 1.445-4.963h1.153l1.446 4.963zM18.635 23.019v.048h11.319v-.048c0-1.598-.64-3.05-1.658-4.09a5.6 5.6 0 0 0-4.001-1.695 5.6 5.6 0 0 0-4.002 1.694 5.85 5.85 0 0 0-1.658 4.09m-1.184.024v-.048c0-1.937.758-3.68 2.013-4.938C20.695 16.8 22.424 16 24.294 16c1.895 0 3.6.774 4.83 2.057a7.1 7.1 0 0 1 2.014 4.938v.048h5.895v.968H13v-.968z"/></svg>