<svg xmlns="http://www.w3.org/2000/svg" width="51" height="51" fill="none" viewBox="0 0 51 51"><path fill="#0a467e" stroke="#000" stroke-width=".25" d="M42.51.125H7.74A7.614 7.614 0 0 0 .124 7.739v34.772a7.614 7.614 0 0 0 7.614 7.614h34.772a7.614 7.614 0 0 0 7.614-7.614V7.739A7.614 7.614 0 0 0 42.511.125Z"/><path fill="#fdfdfd" d="M41.843 7.515c.059.02.059.02.08.05q.035.067.064.135l.024.051c.373.822.28 1.72-.03 2.544q-.07.182-.158.357l-.028.056a8.7 8.7 0 0 1-1.404 2.005q-.056.06-.107.123c-.066.076-.135.143-.205.213a2 2 0 0 0-.107.117 4 4 0 0 1-.468.465q-.072.062-.143.129-.192.184-.398.347l-.073.06q-.274.225-.562.437l-.04.027c-.417.306-.86.574-1.31.826l-.044.024c-.808.457-1.7.715-2.597.93l.012.045.048.209.017.073.016.07.016.063c.01.056.01.056.01.135a15.2 15.2 0 0 0 3.395-1.191l.064-.032q.435-.21.852-.453l.175-.1q.56-.32 1.096-.682l.129-.087a15 15 0 0 0 .675-.48 12 12 0 0 0 .717-.563q.183-.151.363-.305l.036-.03q.24-.205.468-.421a4 4 0 0 1 .185-.167c.095-.083.183-.17.272-.26l.051-.052.161-.16.11-.11q.13-.134.266-.268l.06.02q.032.076.057.155l.016.047c.057.181.093.366.125.552l.012.066c.035.322.018.651-.052.967l-.01.046c-.153.687-.512 1.306-.963 1.84l-.053.064a4.5 4.5 0 0 1-.674.671q-.07.058-.137.121c-.42.381-.925.697-1.421.971l-.054.03a11.8 11.8 0 0 1-5.722 1.519l.012.05.015.069.016.067c.028.135.04.272.058.41a15 15 0 0 0 1.39-.08l.045-.006a17.5 17.5 0 0 0 3.328-.709l.042-.014a17 17 0 0 0 1.984-.76l.061-.03c.806-.377 1.58-.81 2.303-1.332q.137-.095.276-.187.016.066.028.131l.016.074c.024.123.038.242.04.367v.135q0 .069.002.137c.002.272-.034.536-.12.796l-.015.048c-.366 1.086-1.335 1.789-2.32 2.28-1.012.494-2.112.772-3.23.897l-.061.008c-1.227.135-2.794.077-3.95-.405l-.006.077a2 2 0 0 1-.067.342.8.8 0 0 0-.026.196c.532.14 1.064.276 1.608.358l.044.006q.331.049.665.087l.09.01c1.022.119 2.092.097 3.113-.024l.053-.006c1.25-.149 2.558-.415 3.706-.953.033-.014.033-.014.073-.014-.091.856-.433 1.559-1.096 2.12-.794.642-1.839.932-2.835 1.057l-.056.008c-1.998.242-4.164-.324-5.861-1.378a.5.5 0 0 0-.108.14l-.025.049-.028.047-.028.048c-.04.075-.08.15-.11.232l.338.199.04.024c.693.403 1.428.724 2.184.988l.068.024c.42.145.85.252 1.282.354l.042.01c.312.073.628.127.943.174l.05.008q.363.054.733.086l.071.006a12 12 0 0 0 2.24-.018c.097-.008.19-.012.288-.01-.185.661-.749 1.205-1.33 1.535-.156.083-.31.154-.477.212l-.044.016a4 4 0 0 1-.544.149l-.048.01a5 5 0 0 1-.925.071h-.056c-.291 0-.577-.016-.867-.065l-.062-.01c-.875-.143-1.717-.473-2.496-.904l-.04-.021a9 9 0 0 1-1.37-.951l-.063-.052a7 7 0 0 1-.536-.506l-.193-.191c-.041-.046-.041-.046-.041-.085h-.04l-.014.033a1.25 1.25 0 0 1-.343.384h-.04c.17.196.343.387.528.57l.054.053a6 6 0 0 0 .385.353c.65.566 1.358 1.049 2.11 1.466l.058.032c.921.514 1.986 1.034 3.04 1.199-.004.065-.022.081-.074.127l-.071.052-.04.027a4.3 4.3 0 0 1-.828.469l-.037.016a2.7 2.7 0 0 1-1.005.228h-.056c-.726.006-.726.006-1.068-.085l-.11-.026a4.6 4.6 0 0 1-1.04-.411l-.04-.02a5 5 0 0 1-1.064-.768q-.062-.06-.129-.116a3.4 3.4 0 0 1-.41-.432 2 2 0 0 0-.132-.15c-.383-.42-.693-.91-.992-1.391a4 4 0 0 0-.132-.2l-.035.033c-.304.284-.304.284-.421.284.403.826.88 1.594 1.489 2.283l.038.044c.119.135.244.262.371.39l.105.104c.12.122.24.235.374.34q.089.07.164.155v.04a2 2 0 0 1-.526.047h-.045a3.98 3.98 0 0 1-2.832-1.18l-.03-.029a3.6 3.6 0 0 1-.439-.526l.024-.036c.495-.76.818-1.6.961-2.494q.01-.064.022-.129c.123-.828.022-1.69-.133-2.504l-.012-.067a12.3 12.3 0 0 0-.903-2.808c-.105-.226-.15-.476-.076-.723a2 2 0 0 1 .098-.214l.033-.065c.21-.388.477-.757.759-1.096l.119-.15c.078-.097.16-.186.244-.277q.06-.066.117-.133c.09-.104.187-.199.282-.296l.096-.096c.109-.105.218-.21.335-.31l.062-.053c.544-.463 1.128-.842 1.745-1.197l.127-.074.514-.296c.46-.264.916-.528 1.36-.814q.07-.044.137-.085.337-.212.662-.439l.05-.034q.483-.332.949-.692l.12-.094q.241-.183.471-.381.084-.071.167-.137.275-.224.538-.463l.125-.109q.127-.11.248-.228.147-.14.296-.274.139-.13.272-.26l.038-.036q.108-.111.208-.226c.062-.072.13-.14.193-.209q.164-.171.32-.35l.034-.037q.118-.138.234-.278.081-.099.167-.197a8 8 0 0 0 .313-.385q.04-.052.082-.103.188-.239.369-.483l.11-.145c.122-.174.25-.345.374-.518m-33.497-.02c.09.084.16.179.232.278q.037.051.076.102l.035.05q.114.153.233.305l.026.032q.21.265.42.526.039.05.078.097.171.211.35.417l.031.036q.211.245.431.482l.081.09q.19.21.392.409l.061.061.125.125.161.161.125.125.06.06q.147.151.31.292.074.063.144.13c.121.112.245.217.37.325l.107.09q.206.181.42.354l.046.036q.435.35.888.68l.046.033q.34.247.689.482l.065.044q.67.45 1.364.854l.2.119q.322.189.646.375c.532.302 1.055.614 1.537.991l.054.042q.294.231.567.486.08.076.163.147c.108.093.209.197.31.298l.101.101c.12.117.229.236.334.367q.068.085.145.163c.407.437 1.026 1.144 1.034 1.767l.002.044c.004.177-.065.336-.129.497l-.016.043q-.051.132-.105.262c-.486 1.21-.93 2.52-.935 3.836v.338c0 .332.006.655.063.98l.01.062q.117.664.368 1.29l.016.039c.135.335.307.68.528.969.024.032.024.032.051.083-.115.465-.808.947-1.197 1.186a4.2 4.2 0 0 1-1.505.542l-.066.01c-.18.027-.357.035-.542.033h-.137a1.6 1.6 0 0 1-.444-.043v-.04c.03-.03.03-.03.071-.064a2 2 0 0 0 .157-.145 2 2 0 0 1 .143-.135q.125-.109.244-.224l.04-.038c.167-.157.167-.157.324-.325a5 5 0 0 1 .16-.181q.131-.145.25-.3l.044-.055c.721-.86.721-.86 1.108-1.849-.038-.026-.038-.026-.087-.052a1.6 1.6 0 0 1-.35-.266l-.023.038c-.294.475-.596.937-.95 1.372l-.04.05c-.29.363-.625.716-.992 1.002q-.035.027-.07.058c-.935.768-2.068 1.17-3.28 1.068a2.3 2.3 0 0 1-.363-.073l-.05-.014a3.7 3.7 0 0 1-1.46-.78c.02-.04.02-.04.06-.054l.052-.012.06-.016.067-.016c.721-.186 1.408-.464 2.085-.776l.058-.026c.272-.125.534-.264.796-.411l.053-.03c.24-.135.473-.274.701-.427l.052-.033c.332-.223.663-.45.965-.711q.078-.066.155-.127.136-.11.262-.23a6 6 0 0 1 .169-.154c.097-.083.186-.172.278-.264q.044-.042.087-.085c.101-.101.195-.203.276-.322l-.032-.027c-.137-.118-.272-.235-.365-.39-.141.116-.268.247-.397.378q-.17.176-.358.337l-.057.052a10 10 0 0 1-.598.464l-.05.036c-.416.304-.86.55-1.32.779l-.055.027c-.672.33-1.41.542-2.149.648l-.046.008c-1.05.152-2.215-.02-3.091-.644a4 4 0 0 1-.278-.238l-.05-.046c-.29-.276-.5-.623-.665-.986v-.04q.164-.006.326.014c1.022.113 2.055.053 3.07-.094l.041-.006a13 13 0 0 0 1.785-.39l.062-.019a11.7 11.7 0 0 0 2.909-1.28c.083-.052.083-.052.127-.052q-.063-.112-.13-.224l-.025-.044-.054-.09-.026-.043-.023-.04a.4.4 0 0 1-.04-.115l-.036.02c-1.239.719-2.589 1.203-4.015 1.37l-.055.008c-.648.081-1.323.052-1.97-.028l-.068-.008c-1.15-.147-2.432-.602-3.17-1.545-.364-.48-.523-1.012-.594-1.604.07.012.13.03.196.058l.058.023.066.024a14.3 14.3 0 0 0 4.201.924q.064.004.13.01.251.018.503.017h.423c.499.002.995-.02 1.492-.077l.041-.006a14.4 14.4 0 0 0 2.206-.429c.036-.008.036-.008.076-.008l-.014-.05q-.078-.27-.145-.546l-.044.012c-.524.15-1.054.265-1.596.332l-.07.008q-.12.015-.236.026l-.056.006q-.51.043-1.02.04h-.076c-.373 0-.74-.01-1.112-.066l-.083-.012a11 11 0 0 1-1.882-.445l-.06-.02a7.2 7.2 0 0 1-1.968-1.004q-.051-.038-.105-.076a3.5 3.5 0 0 1-.885-.925l-.022-.034a2.95 2.95 0 0 1-.459-1.572v-.06q.002-.19.022-.38l.004-.043c.012-.087.032-.169.057-.254a.6.6 0 0 1 .207.123c.193.153.401.282.608.413l.053.034c.828.528 1.712.96 2.627 1.316l.042.016c1.465.568 3 .975 4.565 1.136l.047.004c.294.032.588.047.884.057l.129.006.31.012.02-.595-.136-.006c-.845-.044-1.681-.127-2.505-.332l-.078-.018a12 12 0 0 1-2.508-.935l-.1-.05a9.6 9.6 0 0 1-1.544-.983l-.037-.03a6 6 0 0 1-.391-.325q-.076-.067-.157-.129c-.171-.139-.324-.3-.467-.469l-.048-.055c-.702-.804-1.137-1.785-1.084-2.863q.016-.18.06-.358l.012-.045c.041-.171.09-.334.167-.49a.4.4 0 0 1 .148.104l.04.042.044.044.046.045q.07.073.143.145l.142.143.088.09q.118.12.244.228.092.082.177.165.194.181.399.353l.15.13q.2.172.404.337l.065.053c.32.259.652.503.987.741l.048.034q.333.239.68.453.07.042.136.085c.262.17.532.326.804.48l.05.028q.513.29 1.04.546l.086.042c.93.459 1.91.79 2.92 1.017l.046.01a.5.5 0 0 0 .147.025l.139-.595-.298-.06q-.076-.018-.147-.038l-.075-.02-.078-.021-.041-.012a9.7 9.7 0 0 1-2.407-1.027l-.149-.09c-.457-.273-.89-.587-1.298-.926q-.075-.064-.151-.123-.128-.105-.248-.217a2 2 0 0 0-.143-.117c-.17-.137-.32-.294-.475-.449l-.16-.16c-.31-.31-.31-.31-.434-.47a3 3 0 0 0-.12-.138 6 6 0 0 1-.309-.381l-.035-.046a10 10 0 0 1-.461-.65l-.04-.063a10 10 0 0 1-.317-.552l-.022-.04c-.427-.798-.685-1.773-.427-2.666.07-.22.159-.427.27-.63m13.601 21.206c.087.062.167.125.244.199.223.202.477.377.733.534l.071.044c.527.33 1.106.573 1.712.712l.042.01c.204.048.387.064.593.028l.046-.008c1.038-.188 1.974-.695 2.756-1.396.105-.093.105-.093.175-.12.147.158.294.317.433.482.099.115.196.23.305.335q.07.073.133.147.185.213.388.411.069.073.135.151.066.074.137.141.047.05.093.103c.111.13.234.248.355.368l.08.08.167.166.212.212.165.165.077.078c.177.178.177.178.364.345q.09.078.172.159.039.035.078.073l.04.038c.216.203.216.203.436.401l.137.123q.248.22.499.435.053.046.107.091c.278.24.278.24.564.475q.12.1.24.2.133.116.274.225.074.057.145.117.307.253.621.492.136.103.267.207a13 13 0 0 0 .575.427q.278.202.566.393l.036.024.101.067.06.04q.064.041.13.074c-.007.089-.069.135-.132.19l-.036.032c-.651.59-1.455 1-2.363.969-.399-.03-.756-.14-1.092-.358l-.037-.023a3.5 3.5 0 0 1-.529-.455l-.03-.03a4 4 0 0 1-.339-.38 1 1 0 0 0-.107-.114c-.074-.07-.135-.147-.199-.227a8 8 0 0 0-.169-.2q-.127-.15-.252-.302-.078-.095-.157-.187a5 5 0 0 1-.21-.262q-.058-.075-.12-.147-.143-.177-.285-.357-.04-.05-.08-.103-.187-.24-.37-.477l-.144-.182q-.21-.27-.417-.547l-.087-.117a35 35 0 0 1-.405-.552l-.097-.135q-.22-.298-.433-.603l-.034-.05q-.215-.301-.423-.605-.16.119-.316.248c-.041.03-.041.03-.081.03.137.25.284.496.429.74l.163.276q.237.405.488.802l.14.22q.076.122.152.247l.068.107c.365.588.758 1.16 1.157 1.726l.03.041c.347.49.707.973 1.07 1.45q.104.135.205.272.255.34.524.67.04.05.08.1l.039.05q.038.049.08.099.125.157.254.314.046.053.087.107.247.306.512.598.06.065.115.13.06.069.123.132c.042.04.042.04.042.08-.032.025-.032.025-.077.053l-.052.032c-.699.426-1.509.726-2.335.546-.617-.15-1.078-.554-1.408-1.083-.33-.548-.552-1.163-.794-1.753l-.018-.045a41 41 0 0 1-.28-.69l-.014-.035c-.317-.796-.633-1.595-.939-2.397q-.034-.09-.067-.178c-.108-.28-.21-.56-.316-.84l-.22-.588-.042-.11a9 9 0 0 0-.13-.319l-.033.016q-.077.037-.153.073l-.053.026-.052.024-.048.022c-.037.018-.037.018-.077.018q.281 1.096.595 2.184l.022.073a64 64 0 0 0 1.055 3.312l.077.223c.435 1.26.89 2.531 1.473 3.733l.032.063.06.12.025.053.024.047c.012.04.012.04-.008.1-.035.026-.035.026-.081.053l-.052.032-.057.032-.06.034c-.717.413-1.616.915-2.474.71-.31-.099-.554-.27-.717-.554-.379-.768-.31-1.826-.35-2.666l-.009-.227-.048-1.078c-.027-.675-.063-1.35-.099-2.025q-.04-.712-.075-1.426l-.002-.04-.042-.823-.014-.292-.01-.2-.038-.684h-.437l-.007.169c-.09 1.868-.09 1.868-.123 2.478q-.036.671-.068 1.338l-.002.052q-.042.831-.076 1.662-.014.363-.035.727-.01.173-.012.349c-.066 2.021-.066 2.021-.314 2.538l-.026.055a1.27 1.27 0 0 1-.748.64c-.312.095-.667.057-.973-.04l-.048-.014a6 6 0 0 1-.707-.284l-.055-.026a7 7 0 0 1-.957-.51q.039-.101.087-.199c.504-1.024.921-2.093 1.305-3.169l.073-.204q.434-1.203.818-2.425l.018-.057c.29-.922.548-1.853.802-2.786l.018-.066q.095-.345.183-.69l.016-.062.014-.058.011-.05c.012-.049.012-.049.008-.124l-.397-.179c-.091.21-.168.427-.248.643a98 98 0 0 1-1.906 4.907l-.06.14c-.784 1.863-.784 1.863-1.695 2.254-.636.252-1.347.163-1.966-.099a5.3 5.3 0 0 1-.814-.437.6.6 0 0 1 .133-.184l.053-.058.052-.056.105-.12.111-.126q.11-.123.211-.252.081-.099.167-.195.134-.156.258-.317a5 5 0 0 1 .19-.233q.147-.17.278-.35.087-.106.17-.214.156-.2.311-.403l.056-.071a43 43 0 0 0 2.47-3.552q.062-.102.125-.2c.264-.424.514-.859.762-1.291l.137-.235.032-.053.058-.098c.043-.073.043-.073.06-.152-.035-.032-.035-.032-.078-.064l-.05-.038-.052-.037-.1-.078-.046-.036-.032-.025a4 4 0 0 0-.27.365c-.248.377-.518.739-.783 1.104l-.041.057q-.262.36-.528.717l-.1.131q-.209.281-.427.556l-.143.185q-.18.233-.363.462-.043.053-.081.106-.17.217-.342.427-.044.053-.087.107l-.229.274q-.088.105-.172.208c-.072.09-.147.173-.225.258q-.056.063-.11.126-.103.114-.205.23l-.108.123c-.484.55-1.082.931-1.828.98-.757.023-1.54-.283-2.119-.758l-.036-.03a4 4 0 0 1-.4-.367.7.7 0 0 1 .132-.107l.046-.028.048-.03q.284-.18.56-.377l.134-.095a16 16 0 0 0 .69-.514l.095-.074.123-.095q.199-.153.395-.312.131-.106.262-.208.169-.133.332-.274.164-.14.331-.274.19-.156.374-.314.097-.084.198-.169.311-.261.61-.534l.133-.12q.124-.104.242-.218a9 9 0 0 1 .238-.218c.08-.07.153-.143.229-.218q.106-.112.22-.21.153-.136.294-.283l.058-.057.12-.122.155-.154.122-.122.085-.083q.134-.133.258-.276.058-.065.121-.127l.048-.048.097-.097q.129-.126.248-.262.07-.08.141-.157l.03-.032q.104-.11.207-.222.158-.165.307-.34l.126-.144.033-.04q.147-.167.298-.332"/><path fill="#fefefe" d="m27.063 12.781.053.044c.354.302.55.732.741 1.148l.024.051.022.048.02.043c.014.036.014.036.014.076l.041.016c.064.026.121.06.179.093l.036.02.113.066.04.023q.325.193.643.397l.036.024c.276.177.554.38.718.671l-.02.06h-.065a54 54 0 0 0-.808 0h-.066q-.196 0-.393.004-.062 0-.125.002c-.323.002-.613.018-.885.212l-.054.036c-.276.268-.36.647-.371 1.019-.004.23.03.448.087.673l.02.073c.222.77.596 1.501.957 2.214q.281.557.532 1.128l.02.044c.264.603.514 1.23.635 1.882l.008.042c.05.272.062.538.062.814v.061c-.002.322-.02.634-.09.95l-.014.061a5.8 5.8 0 0 1-.899 2.063l-.028.042q-.205.299-.436.575l-.086.106a5 5 0 0 1-.8.786l-.066.054a4.8 4.8 0 0 1-.85.561l-.05.026c-.305.16-.8.16-1.133.055-.582-.202-.866-.517-1.328-.916l-.131-.112a6 6 0 0 1-.463-.428l-.107-.108a4 4 0 0 1-.38-.423q-.027-.034-.055-.07a5.63 5.63 0 0 1-1.215-2.948l-.006-.045a4 4 0 0 1-.018-.356v-.3c0-.3.01-.591.064-.887l.02-.123c.15-.874.478-1.692.83-2.5.388-.9.657-1.819.754-2.796l.008-.07c.048-.515.044-1.034.048-1.55l.003-.314q0-.07.002-.143.003-.231.014-.462l.002-.046c.006-.103.018-.2.042-.3l.01-.043c.115-.47.381-.858.709-1.204l.034-.037c.293-.316.724-.535 1.137-.638l.054-.014c.778-.178 1.606.068 2.21.57m-1.549 1.072a.69.69 0 0 0-.09.524.53.53 0 0 0 .289.33.6.6 0 0 0 .442-.028.68.68 0 0 0 .32-.413.5.5 0 0 0-.075-.39.6.6 0 0 0-.397-.227.6.6 0 0 0-.489.204"/></svg>