<svg xmlns="http://www.w3.org/2000/svg" width="50" height="50" fill="none" viewBox="0 0 50 50"><path fill="url(#a)" d="m24.833 0-.1.02h-.157l-.236.166L.414 18.907 0 19.423l.02.433L9.184 49.65l.335.309.414.041h30.095l.571-.124L50 19.856l-.06-.743L25.799.474z"/><path fill="url(#b)" d="m24.813.124.118.02.749.475 24.162 18.433.138.309-.118.804-9.559 29.588-.256.144-30.41-.02-.256-.145L.138 19.856l-.02-.413.276-.412L24.557.247l.236-.144z"/><path fill="url(#c)" d="m24.931.165.532.35 24.241 18.516.237.371-.02.474-9.657 29.547-.177.309-.335.082.59-1.938 9.027-27.855-.177-.433L24.852.433v-.35l.118.02z"/><path fill="url(#d)" d="M.315 19.196 24.754.247l.059.227L.65 19.278z"/><path fill="url(#e)" d="m.217 19.567 3.705 11.175 5.696 18.846-.257-.124L.138 19.876l.098-.309z"/><path fill="url(#f)" d="M24.95 5.155 46 20.454l-8.259 25.71-25.739-.02-8.238-25.608L24.911 5.155z"/><path stroke="url(#g)" stroke-miterlimit="10" stroke-width="1.4" d="m24.95 5.402 20.734 15.382-8.218 24.969H12.336l-8.001-24.99L24.95 5.38z"/><path fill="url(#h)" stroke="url(#i)" stroke-miterlimit="10" stroke-width=".7" d="m38.865 35.897-2.976-3.217c1.97-2.536 2.168-4.866 1.97-9.154-.256-4.887-2.739-12.928-12.297-12.701l-.02.041c4.947 2.64 7.41 5.794 8.376 10.68.63 2.97.335 5.403-1.557 7.939l-9.756-10.062 4.179-4.536-.197-.33-7.017.082-6.562 6.062 4.04 4.247 3.133-3.299 8.81 10.145c-2.976 1.464-6.386.907-9.263-2.186-.71-.907-1.833-.969-2.306-.185l-.985 1.113-1.242-.495c-.65-.123-1.064.248-.847 1.237l.157.99-3.823 3.897c-1.222 1.299-.63 2.763.65 2.948.71.124 1.163-.35 1.813-1.051l3.745-3.65c.434.701.848 1.052 1.458.928.67-.144.75-.66.69-1.423a11.94 11.94 0 0 0 7.529 2.866c2.01 0 3.271-.68 5.656-1.443l3.33 3.485c.868.804 1.715.969 2.464.742 1.656-.495 2.149-2.268.907-3.629z"/><defs><linearGradient id="a" x1="25.01" x2="25.01" y1="0" y2="50" gradientUnits="userSpaceOnUse"><stop stop-color="#f0a83b"/><stop offset=".2" stop-color="#f8f688"/><stop offset=".5" stop-color="#f0982c"/><stop offset=".7" stop-color="#f8f650"/><stop offset="1" stop-color="#f6ee41"/></linearGradient><linearGradient id="b" x1="25.049" x2="25.049" y1=".124" y2="49.917" gradientUnits="userSpaceOnUse"><stop stop-color="#fce93a"/><stop offset=".2" stop-color="#fbc939"/><stop offset=".5" stop-color="#f8ae39"/><stop offset=".7" stop-color="#fcea42"/><stop offset="1" stop-color="#fcf144"/></linearGradient><linearGradient id="c" x1="37.367" x2="37.367" y1=".165" y2="49.835" gradientUnits="userSpaceOnUse"><stop stop-color="#d49528"/><stop offset=".2" stop-color="#fbc939"/><stop offset=".5" stop-color="#f8ae39"/><stop offset=".7" stop-color="#fcea42"/><stop offset="1" stop-color="#fcf144"/></linearGradient><linearGradient id="d" x1="12.574" x2="12.574" y1=".247" y2="19.278" gradientUnits="userSpaceOnUse"><stop stop-color="#665438"/><stop offset=".2" stop-color="#f8f688"/><stop offset=".5" stop-color="#f0982c"/><stop offset=".7" stop-color="#f8f650"/><stop offset="1" stop-color="#f6ee41"/></linearGradient><linearGradient id="e" x1="4.868" x2="4.868" y1="19.567" y2="49.588" gradientUnits="userSpaceOnUse"><stop stop-color="#fce93a"/><stop offset=".2" stop-color="#fbc939"/><stop offset=".5" stop-color="#f8ae39"/><stop offset=".7" stop-color="#fcea42"/><stop offset="1" stop-color="#fcf144"/></linearGradient><linearGradient id="g" x1="25.01" x2="25.01" y1="5.155" y2="46.165" gradientUnits="userSpaceOnUse"><stop stop-color="#9a0808"/><stop offset="1" stop-color="#fce93a"/></linearGradient><linearGradient id="h" x1="25.581" x2="25.581" y1="10.825" y2="39.629" gradientUnits="userSpaceOnUse"><stop stop-color="#f69220"/><stop offset=".3" stop-color="#fbf655"/><stop offset=".6" stop-color="#f69220"/><stop offset="1" stop-color="#fce93a"/></linearGradient><linearGradient id="i" x1="25.581" x2="25.581" y1="10.784" y2="39.67" gradientUnits="userSpaceOnUse"><stop stop-color="#fce93a"/><stop offset="1" stop-color="#f69220"/></linearGradient><radialGradient id="f" cx="0" cy="0" r="1" gradientTransform="matrix(21.6003 0 0 22.5979 24.911 25.67)" gradientUnits="userSpaceOnUse"><stop stop-color="#cc1212"/><stop offset="1" stop-color="#790000"/></radialGradient></defs></svg>