<svg xmlns="http://www.w3.org/2000/svg" width="50" height="50" fill="none" viewBox="0 0 50 50"><g clip-path="url(#a)"><path fill="#fff" d="M38.75 0h-27.5C5.037 0 0 5.037 0 11.25v27.5C0 44.963 5.037 50 11.25 50h27.5C44.963 50 50 44.963 50 38.75v-27.5C50 5.037 44.963 0 38.75 0"/><path fill="#000" d="M18.005 7.869h-.863a.444.444 0 0 1-.444-.444v-.418c0-.246.2-.444.444-.444h.863z"/><path fill="#000" d="M17.965 7.869v-.862c0-.246.2-.444.444-.444h.418c.246 0 .444.198.444.444v.862zM21.805 7.869h-.862a.444.444 0 0 1-.444-.444v-.418c0-.246.2-.444.444-.444h.862z"/><path fill="#000" d="M21.766 7.869V6.563h.862c.246 0 .444.198.444.444v.862zM25.567 6.936v.56c0 .207.167.373.374.373h.56a.373.373 0 0 0 .374-.374v-.559a.375.375 0 0 0-.375-.373h-.56a.374.374 0 0 0-.373.373M30.674 7.869h-.862a.444.444 0 0 1-.444-.444v-.418c0-.246.199-.444.444-.444h.862z"/><path fill="#000" d="M30.635 7.869V6.563h.862c.245 0 .444.198.444.444v.862zM18.873 9.11v.026h.398v-.399h-.026a.37.37 0 0 1-.372.373"/><path fill="#000" d="M19.232 9.136v-.862c0-.246.2-.445.444-.445h.418c.246 0 .444.2.444.445v.862zM23.072 7.83v1.306h-.862a.444.444 0 0 1-.444-.444v-.863z"/><path fill="#000" d="M24.34 7.83h-1.307v1.306h1.306z"/><path fill="#000" d="M24.3 9.136V7.829h.862c.246 0 .444.2.444.445v.862zM26.475 9.11v.026h.398v-.399h-.026a.37.37 0 0 1-.372.373"/><path fill="#000" d="M28.14 9.136h-1.306v-.862c0-.246.199-.445.444-.445h.862z"/><path fill="#000" d="M28.101 9.136v-.862c0-.246.199-.445.444-.445h.418c.245 0 .444.2.444.445v.862zM31.941 7.83h-1.306v1.306h1.306zM18.005 10.403h-.863a.444.444 0 0 1-.444-.444V9.54c0-.246.2-.445.444-.445h.863z"/><path fill="#000" d="M19.272 9.096h-1.307v1.307h1.306z"/><path fill="#000" d="M20.539 9.096h-1.307v1.307h1.306z"/><path fill="#000" d="M20.5 10.403V9.096h.861c.246 0 .444.2.444.445v.862zM24.34 9.096h-1.307v1.307h1.306z"/><path fill="#000" d="M25.606 9.096H24.3v1.307h1.306z"/><path fill="#000" d="M26.873 9.096h-1.306v1.307h1.306z"/><path fill="#000" d="M26.834 9.096h1.306v.863a.444.444 0 0 1-.444.444h-.862zM30.674 10.403h-.862a.444.444 0 0 1-.444-.444V9.54c0-.246.199-.445.444-.445h.862z"/><path fill="#000" d="M31.941 9.096h-1.306v1.307h1.306z"/><path fill="#000" d="M31.902 10.403V9.096h.862c.245 0 .444.2.444.445v.862zM19.272 10.363h-1.307v1.307h1.306z"/><path fill="#000" d="M20.539 10.363h-1.307v1.307h1.306z"/><path fill="#000" d="M21.805 10.363H20.5v1.307h1.306zM24.34 10.363v.863a.444.444 0 0 1-.445.444h-.418a.444.444 0 0 1-.444-.444v-.863zM26.873 10.363h-1.306v1.307h1.306zM28.101 10.737v.56c0 .207.167.373.374.373h.56a.373.373 0 0 0 .374-.374v-.559a.375.375 0 0 0-.375-.374h-.56a.373.373 0 0 0-.373.374M31.941 10.363h-1.306v1.307h1.306z"/><path fill="#000" d="M31.902 10.363h1.306v.863a.444.444 0 0 1-.444.444h-.862zM18.005 12.937h-.863a.444.444 0 0 1-.444-.444v-.418c0-.246.2-.445.444-.445h.863z"/><path fill="#000" d="M19.272 11.63h-1.307v1.307h1.306z"/><path fill="#000" d="M20.539 11.63h-1.307v1.307h1.306z"/><path fill="#000" d="M20.5 11.63h1.305v.862a.444.444 0 0 1-.444.445H20.5zM25.606 12.937H24.3v-.862c0-.246.199-.445.444-.445h.862z"/><path fill="#000" d="M26.873 11.63h-1.306v1.307h1.306zM30.674 12.937h-1.306v-.862c0-.246.199-.445.444-.445h.862z"/><path fill="#000" d="M30.635 11.63h1.306v.862a.444.444 0 0 1-.444.445h-.862zM20.539 12.897h-1.307v1.307h1.306zM25.606 12.897H24.3v1.307h1.306z"/><path fill="#000" d="M25.567 12.897h1.306v.862a.444.444 0 0 1-.444.445h-.862zM30.674 12.897h-1.306v1.307h1.306zM31.902 14.204v-.863c0-.245.199-.444.444-.444h.418c.245 0 .444.2.444.444v.863zM16.698 15.47v-.862c0-.245.2-.444.444-.444h.418c.246 0 .445.2.445.444v.862zM18.873 15.444v.026h.398v-.398h-.026a.37.37 0 0 1-.372.372"/><path fill="#000" d="M20.539 14.164h-1.307v1.306h1.306zM21.766 14.538v.56c0 .207.168.372.374.372h.56a.373.373 0 0 0 .374-.373v-.56a.375.375 0 0 0-.375-.373h-.56a.373.373 0 0 0-.373.374M25.606 14.164v.862a.444.444 0 0 1-.444.444h-.418a.444.444 0 0 1-.444-.444v-.862zM26.834 14.538v.56c0 .207.167.372.374.372h.56a.373.373 0 0 0 .374-.373v-.56a.375.375 0 0 0-.375-.373h-.56a.373.373 0 0 0-.373.374M30.674 14.164v.862a.444.444 0 0 1-.444.444h-.418a.444.444 0 0 1-.444-.444v-.862zM33.208 14.164v.862a.444.444 0 0 1-.444.444h-.418a.444.444 0 0 1-.444-.444v-.862zM18.005 15.431v1.307h-.863a.444.444 0 0 1-.444-.445v-.862z"/><path fill="#000" d="M19.272 15.431h-1.307v1.307h1.306z"/><path fill="#000" d="M20.539 15.431h-1.307v1.307h1.306z"/><path fill="#000" d="M20.5 16.738V15.43h.861c.246 0 .444.2.444.445v.862zM23.033 15.805v.56c0 .207.167.373.374.373h.56a.373.373 0 0 0 .374-.374v-.56a.375.375 0 0 0-.375-.373h-.56a.373.373 0 0 0-.373.374M30.276 16.711v.027h.398v-.399h-.026a.37.37 0 0 1-.372.372"/><path fill="#000" d="M30.635 16.738v-.862c0-.246.199-.445.444-.445h.418c.245 0 .444.2.444.445v.862zM12.538 17.978v.026h.399v-.398h-.026a.37.37 0 0 1-.373.372"/><path fill="#000" d="M14.204 18.005h-1.307v-.863c0-.245.2-.444.444-.444h.863z"/><path fill="#000" d="M14.164 18.005v-.863c0-.245.2-.444.444-.444h.418c.246 0 .444.2.444.444v.863zM19.272 16.698h-1.307v1.306h1.306zM21.805 16.698H20.5v1.306h1.306z"/><path fill="#000" d="M21.766 18.005v-.863c0-.245.2-.444.444-.444h.418c.246 0 .444.2.444.444v.863zM25.208 17.978v.026h.398v-.398h-.026a.37.37 0 0 1-.372.372"/><path fill="#000" d="M25.567 18.005v-.863c0-.245.199-.444.444-.444h.418c.245 0 .444.2.444.444v.863zM30.674 18.005h-.862a.444.444 0 0 1-.444-.445v-.418c0-.245.199-.444.444-.444h.862z"/><path fill="#000" d="M31.941 16.698h-1.306v1.306h1.306z"/><path fill="#000" d="M31.902 18.005v-1.307h.862c.245 0 .444.2.444.444v.863zM34.436 18.005v-.863c0-.245.199-.444.444-.444h.418c.245 0 .444.2.444.444v.863zM36.61 17.978v.026h.4v-.398h-.027a.37.37 0 0 1-.372.372"/><path fill="#000" d="M36.97 18.005v-.863c0-.245.199-.444.444-.444h.418c.245 0 .444.2.444.444v.863zM39.504 17.072v.56c0 .207.167.372.373.372h.56a.373.373 0 0 0 .375-.373v-.56a.375.375 0 0 0-.375-.373h-.56a.373.373 0 0 0-.373.374M42.038 17.072v.56c0 .207.167.372.373.372h.56a.373.373 0 0 0 .374-.373v-.56a.375.375 0 0 0-.374-.373h-.56a.374.374 0 0 0-.373.374M10.403 19.272H9.096v-.863c0-.245.2-.444.445-.444h.862z"/><path fill="#000" d="M11.67 17.965h-1.307v1.306h1.307z"/><path fill="#000" d="M12.937 17.965H11.63v1.306h1.307z"/><path fill="#000" d="M14.204 17.965h-1.307v1.306h1.307zM16.738 19.272h-.862a.444.444 0 0 1-.445-.445v-.418c0-.245.2-.444.445-.444h.862z"/><path fill="#000" d="M18.005 17.965h-1.307v1.306h1.306z"/><path fill="#000" d="M19.272 17.965h-1.307v1.306h1.306zM21.805 17.965v.862a.444.444 0 0 1-.444.444h-.418a.444.444 0 0 1-.444-.444v-.862zM25.606 19.272h-.862a.444.444 0 0 1-.444-.445v-.418c0-.245.199-.444.444-.444h.862z"/><path fill="#000" d="M25.567 17.965h1.306v.862a.444.444 0 0 1-.444.444h-.862zM28.101 18.339v.56c0 .207.167.372.374.372h.56a.373.373 0 0 0 .374-.373v-.56a.375.375 0 0 0-.375-.373h-.56a.373.373 0 0 0-.373.374M33.208 17.965h-1.306v1.306h1.306zM34.077 19.245v.026h.398v-.398h-.026a.37.37 0 0 1-.372.372"/><path fill="#000" d="M35.742 17.965h-1.306v1.306h1.306z"/><path fill="#000" d="M37.01 17.965h-1.307v1.306h1.306z"/><path fill="#000" d="M38.276 17.965H36.97v1.306h1.306z"/><path fill="#000" d="M38.237 19.272v-1.307h.862c.245 0 .444.2.444.444v.863zM40.771 18.339v.56c0 .207.167.372.373.372h.56a.373.373 0 0 0 .374-.373v-.56a.375.375 0 0 0-.374-.373h-.56a.373.373 0 0 0-.373.374M8.737 20.512v.026h.399v-.398H9.11a.37.37 0 0 1-.373.372"/><path fill="#000" d="M10.403 19.232H9.096v1.306h1.307zM14.204 19.232v1.306h-.863a.444.444 0 0 1-.444-.444v-.862z"/><path fill="#000" d="M14.164 20.539v-.863c0-.245.2-.444.444-.444h.418c.246 0 .444.2.444.444v.863zM19.272 19.232v.862a.444.444 0 0 1-.445.444h-.418a.444.444 0 0 1-.444-.444v-.862zM33.208 19.232v1.306h-.862a.444.444 0 0 1-.444-.444v-.862z"/><path fill="#000" d="M34.475 19.232H33.17v1.306h1.306z"/><path fill="#000" d="M35.742 19.232h-1.306v1.306h1.306zM39.543 19.232h-1.306v1.306h1.306z"/><path fill="#000" d="M39.504 20.539v-.863c0-.245.199-.444.444-.444h.418c.245 0 .444.2.444.444v.863zM7.869 21.805H6.563v-.862c0-.245.198-.444.444-.444h.862z"/><path fill="#000" d="M9.136 20.5H7.829v1.305h1.307z"/><path fill="#000" d="M9.096 20.5h1.307v.861a.444.444 0 0 1-.444.444h-.863zM11.63 21.805v-.862c0-.245.2-.444.444-.444h.418c.246 0 .445.2.445.444v.862zM16.738 21.805h-.862a.444.444 0 0 1-.445-.444v-.418c0-.245.2-.444.445-.444h.862z"/><path fill="#000" d="M16.698 21.805V20.5h.862c.246 0 .445.2.445.444v.862zM35.742 20.5h-1.306v1.305h1.306z"/><path fill="#000" d="M37.01 20.5h-1.307v1.305h1.306z"/><path fill="#000" d="M38.276 20.5H36.97v1.305h1.306z"/><path fill="#000" d="M39.543 20.5h-1.306v1.305h1.306zM7.869 21.766v.862a.444.444 0 0 1-.444.444h-.418a.444.444 0 0 1-.444-.444v-.862zM11.271 23.046v.026h.399v-.398h-.027a.37.37 0 0 1-.372.372"/><path fill="#000" d="M12.937 21.766H11.63v1.306h1.307zM14.164 22.14v.56c0 .207.168.372.374.372h.56a.373.373 0 0 0 .374-.373v-.56a.375.375 0 0 0-.375-.373h-.56a.373.373 0 0 0-.373.374M18.005 21.766h-1.307v1.306h1.306zM31.941 23.072h-1.306v-.862c0-.245.199-.444.444-.444h.862z"/><path fill="#000" d="M33.208 21.766h-1.306v1.306h1.306z"/><path fill="#000" d="M34.475 21.766H33.17v1.306h1.306z"/><path fill="#000" d="M35.742 21.766h-1.306v1.306h1.306zM39.543 21.766h-1.306v1.306h1.306zM40.771 22.14v.56c0 .207.167.372.373.372h.56a.373.373 0 0 0 .374-.373v-.56a.375.375 0 0 0-.374-.373h-.56a.373.373 0 0 0-.373.374M7.83 23.407v.56c0 .207.167.372.373.372h.56a.373.373 0 0 0 .374-.373v-.56a.375.375 0 0 0-.375-.373h-.559a.374.374 0 0 0-.374.374M10.004 24.313v.026h.399v-.398h-.027a.37.37 0 0 1-.372.372"/><path fill="#000" d="M11.67 24.34h-1.307v-.863c0-.245.2-.444.444-.444h.863z"/><path fill="#000" d="M11.63 23.033h1.307v.862a.444.444 0 0 1-.444.444h-.863zM15.072 24.313v.026h.399v-.398h-.027a.37.37 0 0 1-.372.372"/><path fill="#000" d="M16.738 24.34H15.43v-.863c0-.245.2-.444.445-.444h.862z"/><path fill="#000" d="M16.698 23.033h1.306v.862a.444.444 0 0 1-.444.444h-.862zM31.941 23.033v1.306h-.862a.444.444 0 0 1-.444-.444v-.862z"/><path fill="#000" d="M31.902 23.033h1.306v.862a.444.444 0 0 1-.444.444h-.862zM35.742 23.033v.862a.444.444 0 0 1-.444.444h-.418a.444.444 0 0 1-.444-.444v-.862zM38.276 24.34h-.862a.444.444 0 0 1-.444-.445v-.418c0-.245.199-.444.444-.444h.862z"/><path fill="#000" d="M38.237 23.033h1.306v.862a.444.444 0 0 1-.444.444h-.862zM42.038 23.407v.56c0 .207.167.372.373.372h.56a.373.373 0 0 0 .374-.373v-.56a.375.375 0 0 0-.374-.373h-.56a.374.374 0 0 0-.373.374M10.403 25.606H9.096v-.862c0-.245.2-.444.445-.444h.862z"/><path fill="#000" d="M11.67 24.3h-1.307v1.306h1.307zM15.47 25.606h-.862a.444.444 0 0 1-.444-.444v-.418c0-.245.2-.444.444-.444h.862z"/><path fill="#000" d="M16.738 24.3H15.43v1.306h1.307zM33.17 25.606v-.862c0-.245.198-.444.443-.444h.418c.245 0 .444.199.444.444v.862zM35.703 24.674v.56c0 .206.167.372.374.372h.56a.373.373 0 0 0 .373-.373v-.56a.375.375 0 0 0-.374-.373h-.56a.374.374 0 0 0-.373.374M40.412 25.58v.026h.398v-.398h-.026a.37.37 0 0 1-.372.372"/><path fill="#000" d="M40.771 25.606v-.862c0-.245.199-.444.444-.444h.418c.245 0 .444.199.444.444v.862zM6.563 26.873v-.862c0-.245.198-.444.444-.444h.418c.245 0 .444.199.444.444v.862zM10.403 25.567v1.306H9.54a.444.444 0 0 1-.445-.444v-.862z"/><path fill="#000" d="M11.67 25.567h-1.307v1.306h1.307z"/><path fill="#000" d="M12.937 25.567H11.63v1.306h1.307z"/><path fill="#000" d="M12.897 26.873v-1.306h.862c.246 0 .445.199.445.444v.862zM16.738 25.567v.862a.444.444 0 0 1-.445.444h-.417a.444.444 0 0 1-.445-.444v-.862zM17.606 26.847v.026h.398v-.398h-.026a.37.37 0 0 1-.372.372"/><path fill="#000" d="M17.965 26.873v-.862c0-.245.2-.444.444-.444h.418c.246 0 .444.199.444.444v.862zM30.635 25.94v.561c0 .206.167.372.374.372h.56a.373.373 0 0 0 .374-.373v-.56a.375.375 0 0 0-.375-.373h-.56a.374.374 0 0 0-.373.374M34.475 25.567v1.306h-.862a.444.444 0 0 1-.444-.444v-.862z"/><path fill="#000" d="M34.436 26.873v-.862c0-.245.199-.444.444-.444h.418c.245 0 .444.199.444.444v.862zM38.276 26.873h-.862a.444.444 0 0 1-.444-.444v-.418c0-.245.199-.444.444-.444h.862z"/><path fill="#000" d="M39.543 25.567h-1.306v1.306h1.306z"/><path fill="#000" d="M40.81 25.567h-1.306v1.306h1.306z"/><path fill="#000" d="M42.077 25.567h-1.306v1.306h1.306zM7.869 26.834H6.563v1.306h1.306z"/><path fill="#000" d="M7.83 28.14v-.862c0-.245.198-.444.444-.444h.418c.245 0 .444.199.444.444v.862zM11.67 26.834v1.306h-.863a.444.444 0 0 1-.444-.444v-.862z"/><path fill="#000" d="M12.937 26.834H11.63v1.306h1.307z"/><path fill="#000" d="M14.204 26.834h-1.307v1.306h1.307z"/><path fill="#000" d="M14.164 28.14v-.862c0-.245.2-.444.444-.444h.418c.246 0 .444.199.444.444v.862zM18.005 28.14h-1.307v-.862c0-.245.2-.444.444-.444h.863z"/><path fill="#000" d="M19.272 26.834h-1.307v1.306h1.306zM35.703 28.14v-.862c0-.245.199-.444.444-.444h.418c.245 0 .444.199.444.444v.862zM39.543 26.834v1.306h-.862a.444.444 0 0 1-.444-.444v-.862z"/><path fill="#000" d="M40.81 26.834h-1.306v1.306h1.306z"/><path fill="#000" d="M40.771 26.834h1.306v.862a.444.444 0 0 1-.444.444h-.862zM7.869 28.101H6.563v1.306h1.306zM12.937 28.101v.862a.444.444 0 0 1-.444.444h-.418a.444.444 0 0 1-.445-.444v-.862zM16.34 29.381v.026h.398v-.398h-.027a.37.37 0 0 1-.372.372"/><path fill="#000" d="M18.005 28.101h-1.307v1.306h1.306z"/><path fill="#000" d="M17.965 28.101h1.306v.862a.444.444 0 0 1-.444.444h-.862zM31.902 29.407v-.862c0-.245.199-.444.444-.444h.418c.245 0 .444.199.444.444v.862zM37.01 28.101h-1.307v1.306h1.306z"/><path fill="#000" d="M36.97 29.407v-.862c0-.245.199-.444.444-.444h.418c.245 0 .444.199.444.444v.862zM42.038 29.407v-.862c0-.245.199-.444.444-.444h.418c.245 0 .444.199.444.444v.862zM7.869 29.368H6.563v1.306h1.306z"/><path fill="#000" d="M7.83 30.674v-.862c0-.245.198-.444.444-.444h.418c.245 0 .444.199.444.444v.862zM14.204 30.674h-.863a.444.444 0 0 1-.444-.444v-.418c0-.245.2-.444.444-.444h.863z"/><path fill="#000" d="M15.47 29.368h-1.306v1.306h1.306z"/><path fill="#000" d="M16.738 29.368H15.43v1.306h1.307z"/><path fill="#000" d="M16.698 29.368h1.306v.862a.444.444 0 0 1-.444.444h-.862zM31.543 30.648v.026h.398v-.398h-.026a.37.37 0 0 1-.372.372"/><path fill="#000" d="M33.208 29.368h-1.306v1.306h1.306zM35.344 30.648v.026h.398v-.398h-.026a.37.37 0 0 1-.372.372"/><path fill="#000" d="M37.01 29.368h-1.307v1.306h1.306zM43.344 29.368v.862a.444.444 0 0 1-.444.444h-.418a.444.444 0 0 1-.444-.444v-.862zM7.869 30.635H6.563v1.306h1.306zM11.67 31.941h-.863a.444.444 0 0 1-.444-.444v-.418c0-.245.2-.444.444-.444h.863z"/><path fill="#000" d="M11.63 31.941v-.862c0-.245.2-.444.444-.444h.418c.246 0 .445.199.445.444v.862zM17.965 31.009v.56c0 .206.168.372.374.372h.56a.373.373 0 0 0 .374-.373v-.56a.375.375 0 0 0-.375-.373h-.56a.374.374 0 0 0-.373.374M21.805 31.941h-.862a.444.444 0 0 1-.444-.444v-.418c0-.245.2-.444.444-.444h.862z"/><path fill="#000" d="M21.766 31.941v-1.306h.862c.246 0 .444.199.444.444v.862zM25.606 31.941h-.862a.444.444 0 0 1-.444-.444v-.418c0-.245.199-.444.444-.444h.862z"/><path fill="#000" d="M26.873 30.635h-1.306v1.306h1.306z"/><path fill="#000" d="M26.834 31.941v-.862c0-.245.199-.444.444-.444h.418c.245 0 .444.199.444.444v.862zM31.941 31.941h-1.306v-.862c0-.245.199-.444.444-.444h.862z"/><path fill="#000" d="M33.208 30.635h-1.306v1.306h1.306z"/><path fill="#000" d="M34.475 30.635H33.17v1.306h1.306z"/><path fill="#000" d="M35.742 30.635h-1.306v1.306h1.306z"/><path fill="#000" d="M37.01 30.635h-1.307v1.306h1.306z"/><path fill="#000" d="M38.276 30.635H36.97v1.306h1.306z"/><path fill="#000" d="M38.237 31.941v-.862c0-.245.199-.444.444-.444h.418c.245 0 .444.199.444.444v.862zM7.869 31.902v.862a.444.444 0 0 1-.444.444h-.418a.444.444 0 0 1-.444-.444v-.862zM9.096 32.276v.56c0 .206.168.372.374.372h.56a.373.373 0 0 0 .374-.373v-.56a.375.375 0 0 0-.375-.373H9.47a.374.374 0 0 0-.374.374M14.204 33.208h-.863a.444.444 0 0 1-.444-.444v-.418c0-.245.2-.444.444-.444h.863z"/><path fill="#000" d="M15.47 31.902h-1.306v1.306h1.306z"/><path fill="#000" d="M16.738 31.902H15.43v1.306h1.307z"/><path fill="#000" d="M16.698 33.208v-1.306h.862c.246 0 .445.199.445.444v.862zM19.232 33.208v-.862c0-.245.2-.444.444-.444h.418c.246 0 .444.199.444.444v.862zM23.072 31.902v1.306h-.862a.444.444 0 0 1-.444-.444v-.862z"/><path fill="#000" d="M23.033 33.208v-1.306h.862c.246 0 .444.199.444.444v.862zM25.208 33.182v.026h.398v-.398h-.026a.37.37 0 0 1-.372.372"/><path fill="#000" d="M26.873 31.902h-1.306v1.306h1.306zM31.941 31.902h-1.306v1.306h1.306z"/><path fill="#000" d="M33.208 31.902h-1.306v1.306h1.306z"/><path fill="#000" d="M34.475 31.902H33.17v1.306h1.306z"/><path fill="#000" d="M35.742 31.902h-1.306v1.306h1.306z"/><path fill="#000" d="M37.01 31.902h-1.307v1.306h1.306z"/><path fill="#000" d="M38.276 31.902H36.97v1.306h1.306zM18.005 33.17v.861a.444.444 0 0 1-.445.444h-.418a.444.444 0 0 1-.444-.444v-.862zM18.873 34.45v.025h.398v-.398h-.026a.37.37 0 0 1-.372.372"/><path fill="#000" d="M20.539 33.17h-1.307v1.305h1.306zM24.34 33.17h-1.307v1.305h1.306z"/><path fill="#000" d="M25.606 33.17H24.3v1.305h1.306z"/><path fill="#000" d="M26.873 33.17h-1.306v1.305h1.306zM28.101 33.543v.56c0 .206.167.372.374.372h.56a.373.373 0 0 0 .374-.373v-.56a.375.375 0 0 0-.375-.373h-.56a.373.373 0 0 0-.373.374M31.941 33.17h-1.306v1.305h1.306z"/><path fill="#000" d="M33.208 33.17h-1.306v1.305h1.306zM38.276 33.17H36.97v1.305h1.306z"/><path fill="#000" d="M39.543 33.17h-1.306v1.305h1.306z"/><path fill="#000" d="M39.504 34.475v-.862c0-.245.199-.444.444-.444h.418c.245 0 .444.199.444.444v.862zM17.606 35.716v.026h.398v-.398h-.026a.37.37 0 0 1-.372.372"/><path fill="#000" d="M19.272 35.742h-1.307v-.862c0-.245.2-.444.444-.444h.863z"/><path fill="#000" d="M20.539 34.436h-1.307v1.306h1.306zM24.34 34.436h-1.307v1.306h1.306zM26.873 34.436h-1.306v1.306h1.306zM30.276 35.716v.026h.398v-.398h-.026a.37.37 0 0 1-.372.372"/><path fill="#000" d="M31.941 34.436h-1.306v1.306h1.306z"/><path fill="#000" d="M33.208 34.436h-1.306v1.306h1.306zM34.436 34.81v.56c0 .206.167.372.374.372h.56a.373.373 0 0 0 .373-.373v-.56a.375.375 0 0 0-.374-.373h-.56a.373.373 0 0 0-.373.374M38.276 34.436H36.97v1.306h1.306zM18.005 37.01h-.863a.444.444 0 0 1-.444-.445v-.418c0-.245.2-.444.444-.444h.863z"/><path fill="#000" d="M19.272 35.703h-1.307v1.306h1.306z"/><path fill="#000" d="M20.539 35.703h-1.307v1.306h1.306z"/><path fill="#000" d="M20.5 37.01v-1.307h.861c.246 0 .444.199.444.444v.862zM24.34 35.703v.862a.444.444 0 0 1-.445.444h-.418a.444.444 0 0 1-.444-.444v-.862zM26.873 35.703v1.306h-.862a.444.444 0 0 1-.444-.444v-.862z"/><path fill="#000" d="M28.14 35.703h-1.306v1.306h1.306z"/><path fill="#000" d="M29.407 35.703h-1.306v1.306h1.306z"/><path fill="#000" d="M30.674 35.703h-1.306v1.306h1.306z"/><path fill="#000" d="M31.941 35.703h-1.306v1.306h1.306z"/><path fill="#000" d="M33.208 35.703h-1.306v1.306h1.306zM36.61 36.983v.026h.4v-.398h-.027a.37.37 0 0 1-.372.372"/><path fill="#000" d="M38.276 35.703H36.97v1.306h1.306z"/><path fill="#000" d="M38.237 37.01v-.863c0-.245.199-.444.444-.444h.418c.245 0 .444.199.444.444v.862zM42.077 37.01h-1.306v-.863c0-.245.199-.444.444-.444h.862z"/><path fill="#000" d="M42.038 37.01v-1.307h.862c.245 0 .444.199.444.444v.862zM21.805 36.97v.862a.444.444 0 0 1-.444.444h-.418a.444.444 0 0 1-.444-.444v-.862zM28.14 36.97v.862a.444.444 0 0 1-.444.444h-.418a.444.444 0 0 1-.444-.444v-.862zM31.941 36.97h-1.306v1.306h1.306z"/><path fill="#000" d="M33.208 36.97h-1.306v1.306h1.306z"/><path fill="#000" d="M34.475 36.97H33.17v1.306h1.306z"/><path fill="#000" d="M35.742 36.97h-1.306v1.306h1.306z"/><path fill="#000" d="M37.01 36.97h-1.307v1.306h1.306z"/><path fill="#000" d="M36.97 36.97h1.306v.862a.444.444 0 0 1-.444.444h-.862zM40.412 38.25v.026h.398v-.398h-.026a.37.37 0 0 1-.372.372"/><path fill="#000" d="M42.077 36.97h-1.306v1.306h1.306z"/><path fill="#000" d="M42.038 36.97h1.306v.862a.444.444 0 0 1-.444.444h-.862zM24.34 39.543h-.863a.444.444 0 0 1-.444-.444v-.418c0-.245.2-.444.444-.444h.862z"/><path fill="#000" d="M24.3 39.543v-1.306h.862c.246 0 .444.199.444.444v.862zM30.276 39.517v.026h.398v-.398h-.026a.37.37 0 0 1-.372.372"/><path fill="#000" d="M31.941 38.237h-1.306v1.306h1.306z"/><path fill="#000" d="M33.208 38.237h-1.306v1.306h1.306zM37.01 38.237h-1.307v1.306h1.306zM39.543 39.543h-.862a.444.444 0 0 1-.444-.444v-.418c0-.245.199-.444.444-.444h.862z"/><path fill="#000" d="M40.81 38.237h-1.306v1.306h1.306z"/><path fill="#000" d="M42.077 38.237h-1.306v1.306h1.306zM17.965 39.878v.56c0 .206.168.372.374.372h.56a.373.373 0 0 0 .374-.373v-.56a.375.375 0 0 0-.375-.373h-.56a.373.373 0 0 0-.373.373M21.805 40.81h-.862a.444.444 0 0 1-.444-.444v-.418c0-.245.2-.444.444-.444h.862z"/><path fill="#000" d="M21.766 40.81v-.862c0-.245.2-.444.444-.444h.418c.246 0 .444.199.444.444v.862zM25.606 39.504H24.3v1.306h1.306z"/><path fill="#000" d="M25.567 40.81v-.862c0-.245.199-.444.444-.444h.418c.245 0 .444.199.444.444v.862zM30.674 40.81h-1.306v-.862c0-.245.199-.444.444-.444h.862z"/><path fill="#000" d="M31.941 39.504h-1.306v1.306h1.306z"/><path fill="#000" d="M33.208 39.504h-1.306v1.306h1.306z"/><path fill="#000" d="M34.475 39.504H33.17v1.306h1.306z"/><path fill="#000" d="M35.742 39.504h-1.306v1.306h1.306z"/><path fill="#000" d="M37.01 39.504h-1.307v1.306h1.306z"/><path fill="#000" d="M36.97 40.81v-1.306h.862c.245 0 .444.199.444.444v.862zM39.145 40.784v.026h.398v-.398h-.026a.37.37 0 0 1-.372.372"/><path fill="#000" d="M40.81 39.504h-1.306v1.306h1.306z"/><path fill="#000" d="M40.771 39.504h1.306v.862a.444.444 0 0 1-.444.444h-.862zM25.606 40.771H24.3v1.306h1.306zM26.834 41.145v.56c0 .206.167.372.374.372h.56a.373.373 0 0 0 .374-.373v-.56a.375.375 0 0 0-.375-.373h-.56a.373.373 0 0 0-.373.373M30.674 40.771v.862a.444.444 0 0 1-.444.444h-.418a.444.444 0 0 1-.444-.444v-.862zM33.208 40.771v.862a.444.444 0 0 1-.444.444h-.418a.444.444 0 0 1-.444-.444v-.862zM38.276 40.771H36.97v1.306h1.306z"/><path fill="#000" d="M39.543 40.771h-1.306v1.306h1.306z"/><path fill="#000" d="M40.81 40.771h-1.306v1.306h1.306zM42.038 41.145v.56c0 .206.167.372.373.372h.56a.373.373 0 0 0 .374-.373v-.56a.375.375 0 0 0-.374-.373h-.56a.373.373 0 0 0-.373.373M21.805 43.344h-.862a.444.444 0 0 1-.444-.444v-.418c0-.245.2-.444.444-.444h.862z"/><path fill="#000" d="M21.766 43.344v-.862c0-.245.2-.444.444-.444h.418c.246 0 .444.199.444.444v.862zM25.606 42.038v.862a.444.444 0 0 1-.444.444h-.418a.444.444 0 0 1-.444-.444v-.862zM34.475 43.344h-.862a.444.444 0 0 1-.444-.444v-.418c0-.245.199-.444.444-.444h.862z"/><path fill="#000" d="M34.436 43.344v-.862c0-.245.199-.444.444-.444h.418c.245 0 .444.199.444.444v.862zM38.276 42.038v1.306h-.862a.444.444 0 0 1-.444-.444v-.862z"/><path fill="#000" d="M39.543 42.038h-1.306v1.306h1.306z"/><path fill="#000" d="M39.504 42.038h1.306v.862a.444.444 0 0 1-.444.444h-.862zM14.4 12.536V9.732c0-1.245-.17-1.548-.243-1.621s-.376-.242-1.621-.242H9.732c-1.245 0-1.548.169-1.621.242s-.242.376-.242 1.621v2.804c0 1.245.17 1.548.242 1.621.073.073.376.242 1.621.242h2.804c1.245 0 1.548-.169 1.621-.242s.242-.376.242-1.621m-1.864-5.973c2.56 0 3.17.609 3.17 3.169v2.804c0 2.56-.61 3.17-3.17 3.17H9.732c-2.56 0-3.17-.61-3.17-3.17V9.732c0-2.56.61-3.17 3.17-3.17zm-.801 2.612c1.097 0 1.358.261 1.358 1.358v1.202c0 1.097-.26 1.358-1.358 1.358h-1.202c-1.097 0-1.358-.261-1.358-1.358v-1.202c0-1.097.261-1.358 1.358-1.358zM41.986 12.536V9.732c0-1.245-.17-1.548-.242-1.621-.073-.073-.377-.242-1.622-.242h-2.804c-1.244 0-1.548.169-1.62.242-.074.073-.243.376-.243 1.621v2.804c0 1.245.17 1.548.242 1.621.073.073.377.242 1.621.242h2.804c1.245 0 1.549-.169 1.622-.242.072-.073.242-.376.242-1.621m-1.864-5.973c2.56 0 3.17.609 3.17 3.169v2.804c0 2.56-.61 3.17-3.17 3.17h-2.804c-2.56 0-3.17-.61-3.17-3.17V9.732c0-2.56.61-3.17 3.17-3.17zm-.8 2.612c1.096 0 1.357.261 1.357 1.358v1.202c0 1.097-.26 1.358-1.358 1.358H38.12c-1.098 0-1.359-.261-1.359-1.358v-1.202c0-1.097.261-1.358 1.358-1.358zM14.4 40.122v-2.804c0-1.244-.17-1.548-.243-1.621s-.376-.242-1.621-.242H9.732c-1.245 0-1.548.17-1.621.242-.073.073-.242.377-.242 1.621v2.804c0 1.245.17 1.549.242 1.622.073.072.376.242 1.621.242h2.804c1.245 0 1.548-.17 1.621-.242.073-.073.242-.377.242-1.622m-1.864-5.973c2.56 0 3.17.61 3.17 3.17v2.803c0 2.56-.61 3.17-3.17 3.17H9.732c-2.56 0-3.17-.61-3.17-3.17v-2.804c0-2.56.61-3.17 3.17-3.17zm-.801 2.612c1.097 0 1.358.261 1.358 1.358v1.202c0 1.097-.26 1.358-1.358 1.358h-1.202c-1.097 0-1.358-.26-1.358-1.358V38.12c0-1.097.261-1.358 1.358-1.358z"/><path fill="#07f" fill-rule="evenodd" d="M21.314 24.97c0-1.723 0-2.585.535-3.121.536-.535 1.398-.535 3.122-.535h.305c1.724 0 2.586 0 3.121.535.536.536.536 1.398.536 3.122v.305c0 1.724 0 2.586-.536 3.121-.535.536-1.397.536-3.121.536h-.305c-1.724 0-2.586 0-3.122-.536-.535-.535-.535-1.397-.535-3.121z" clip-rule="evenodd"/><path fill="#fff" fill-rule="evenodd" d="M25.383 26.87c-1.719 0-2.762-1.194-2.803-3.175h.87c.028 1.455.69 2.072 1.198 2.2v-2.2h.835v1.256c.49-.054 1.002-.626 1.174-1.256h.822c-.132.775-.69 1.346-1.084 1.582.394.19 1.03.69 1.274 1.592h-.902c-.191-.603-.658-1.07-1.284-1.134v1.134z" clip-rule="evenodd"/></g><defs><clipPath id="a"><path fill="#fff" d="M0 0h50v50H0z"/></clipPath></defs></svg>