<svg xmlns="http://www.w3.org/2000/svg" width="50" height="50" fill="none" viewBox="0 0 50 50"><path fill="#323738" d="M40.677 3.602 35.67.734a3.7 3.7 0 0 0-.704-.404l-.074-.042-.003.007c-1.347-.548-3.088-.35-4.986.746L14.478 9.945c-4.24 2.448-7.71 8.459-7.71 13.356v17.81c0 2.388.829 4.082 2.166 4.913l-.013.023 5.566 3.153 3.13-5.449 12.286-7.093c4.24-2.448 7.71-8.459 7.71-13.356V8.935z"/><path fill="#252b2d" d="m40.677 3.602-5.36-1.257c-.22-.16-1.314-.156-1.564-.265l-.397-.159-.715-.132c-1.348-.548-.84-1.844-2.738-.749L14.478 9.945c-4.24 2.448-7.71 8.459-7.71 13.356v17.81c0 2.388.829 4.082 2.166 4.913l-.013.023 5.566 3.153 3.13-5.449 12.286-7.093c4.24-2.448 7.711-8.459 7.711-13.356V8.935z"/><path fill="#090c0c" d="M7.061 20.736a12.3 12.3 0 0 0-.294 2.565v17.81c0 2.388.83 4.082 2.167 4.913l-.013.023 5.566 3.153 3.13-5.449 12.286-7.093c.72-.415 1.417-.941 2.079-1.54z"/><path fill="#3b4142" d="M19.78 13.019c-4.242 2.448-7.712 8.459-7.712 13.356v17.81c0 4.897 3.47 6.9 7.711 4.452l15.424-8.905c4.241-2.448 7.712-8.459 7.712-13.357V8.566c0-4.897-3.47-6.9-7.712-4.452z"/><path fill="#383e3f" d="M42.915 8.566c0-4.897-3.47-6.9-7.712-4.452l-15.424 8.904c-4.24 2.45-7.711 8.46-7.711 13.357v17.81c0 4.897 3.47 6.9 7.711 4.452" opacity=".2"/><path fill="#3b4142" d="M12.174 25.037 42.81 7.35q.073-.555.092-1.1L12.081 24.047q.02.519.093.991"/><path fill="#4f5759" d="M16.354 50h-.001c-2.796 0-4.603-2.283-4.603-5.815v-17.81c0-5.01 3.53-11.126 7.87-13.631l15.424-8.905c1.25-.722 2.457-1.087 3.585-1.087 2.796 0 4.604 2.282 4.604 5.815v17.809c0 5.011-3.531 11.127-7.87 13.632l-15.425 8.904c-1.25.722-2.456 1.088-3.584 1.088M38.63 3.387c-1.016 0-2.115.338-3.267 1.002l-15.425 8.905c-4.164 2.404-7.552 8.273-7.552 13.081v17.81c0 3.194 1.52 5.179 3.967 5.179 1.016 0 2.115-.338 3.267-1.002l15.424-8.905c4.164-2.404 7.552-8.273 7.552-13.082V8.566c0-3.194-1.52-5.179-3.966-5.179"/><path fill="#ff4d8d" d="M18.206 18.014c0-.41.29-.914.645-1.119s.646-.037.646.373-.29.914-.646 1.12c-.355.204-.645.036-.645-.374"/><path fill="#ea2864" d="M18.852 18.387c-.356.204-.646.037-.646-.373s.29-.914.646-1.119"/><path fill="#f7d011" d="M20.958 16.44c0-.41.29-.913.645-1.118s.646-.037.646.373-.29.913-.646 1.118c-.354.206-.645.038-.645-.372"/><path fill="#f4b414" d="M21.604 16.813c-.355.206-.646.038-.646-.372 0-.411.29-.914.646-1.119"/><path fill="#15eaa8" d="M23.71 14.867c0-.41.29-.914.646-1.119.355-.205.645-.037.645.373s-.29.913-.645 1.119-.646.037-.646-.373"/><path fill="#08c1b3" d="M24.356 15.24c-.355.205-.646.037-.646-.373s.291-.914.646-1.119"/><path fill="#fff" d="M26.197 31.573c-.196 0-.395-.05-.577-.155l-6.012-3.47a1.158 1.158 0 0 1 1.157-2.005l6.012 3.47a1.157 1.157 0 0 1-.58 2.16"/><path fill="#fff" d="M20.186 41.986a1.158 1.158 0 0 1-1.001-1.735l6.011-10.414a1.157 1.157 0 1 1 2.005 1.157l-6.012 10.413a1.16 1.16 0 0 1-1.003.579m8.018-4.628a1.156 1.156 0 0 1-.58-2.16l8.017-4.627a1.156 1.156 0 1 1 1.157 2.004l-8.017 4.628a1.15 1.15 0 0 1-.577.155"/></svg>