<svg xmlns="http://www.w3.org/2000/svg" width="50" height="50" fill="none" viewBox="0 0 50 50"><path fill="#fe93d3" d="M18.9 35.018H1.275A1.27 1.27 0 0 1 0 33.756V17.77c0-.697.571-1.262 1.276-1.262H18.9a1.27 1.27 0 0 1 1.276 1.262v15.987a1.27 1.27 0 0 1-1.276 1.262"/><path fill="#fe73c5" d="M18.9 16.507h-4.804l1.351 10.933a.95.95 0 0 1-.95 1.062h-.11c-1.824 0-3.301 1.462-3.301 3.264v3.252h7.813c.705 0 1.276-.565 1.276-1.262V17.77c0-.697-.57-1.262-1.276-1.262"/><path fill="#f9f7f8" d="M9.783 23.135a.54.54 0 0 0 .609 0 3.3 3.3 0 0 1 1.865-.561c1.285 0 2.17.981 2.17 2.124 0 1.291-1.148 2.813-4.112 4.15a.55.55 0 0 1-.454 0c-2.964-1.337-4.112-2.859-4.112-4.15 0-1.143.885-2.124 2.17-2.124.882 0 1.517.324 1.864.56m31.222 8.316-21.826 2.64a.88.88 0 0 1-.645-.178.86.86 0 0 1-.33-.577L14.775 5.61a.86.86 0 0 1 .18-.638.88.88 0 0 1 .584-.327l21.826-2.639a.88.88 0 0 1 .645.178c.183.141.302.349.33.577l3.429 27.726a.86.86 0 0 1-.18.638.88.88 0 0 1-.584.326"/><path fill="#efedef" d="m37.365 2.006-2.852.345a.88.88 0 0 1 .646.178c.183.141.301.349.33.577l3.428 27.725a.86.86 0 0 1-.18.639.88.88 0 0 1-.583.326l2.851-.345a.88.88 0 0 0 .584-.326.86.86 0 0 0 .18-.638L38.34 2.76a.86.86 0 0 0-.33-.577.88.88 0 0 0-.645-.178"/><path fill="#554e56" d="M21.095 10.374a.76.76 0 0 1-.515-.204.743.743 0 0 1 .425-1.284l11.99-1.45c.414-.05.79.242.841.65a.74.74 0 0 1-.377.741.8.8 0 0 1-.28.091l-11.991 1.45a1 1 0 0 1-.093.005m.59 4.772a.76.76 0 0 1-.515-.204.743.743 0 0 1 .425-1.283l11.99-1.45c.413-.051.79.24.841.65a.74.74 0 0 1-.377.74.8.8 0 0 1-.28.091l-11.99 1.45a1 1 0 0 1-.093.006m.59 4.772a.76.76 0 0 1-.515-.204.743.743 0 0 1 .425-1.283l11.99-1.45c.414-.05.791.24.842.65a.74.74 0 0 1-.378.74.8.8 0 0 1-.28.091l-11.99 1.45a1 1 0 0 1-.093.006m.59 4.772a.76.76 0 0 1-.515-.204.743.743 0 0 1 .425-1.283l11.991-1.45c.412-.05.79.24.84.65a.74.74 0 0 1-.154.55.75.75 0 0 1-.503.281l-11.99 1.45a1 1 0 0 1-.093.006m.59 4.772a.76.76 0 0 1-.515-.204.743.743 0 0 1 .425-1.283l11.991-1.45c.413-.05.79.241.84.65a.74.74 0 0 1-.377.74.8.8 0 0 1-.28.091l-11.99 1.45a1 1 0 0 1-.093.006"/><path fill="#9be69d" d="m28.877 21.067-3.252 8.867a1.09 1.09 0 0 0 .661 1.399l15.864 5.69a1.11 1.11 0 0 0 1.415-.654l2.985-8.14c-5.214-.515-1.682-9.315-4.568-11.33-1.758-1.228-8.944 3.52-13.105 4.168"/><path fill="#6fd7a3" d="m44.037 27.687-2.87 7.822c-.207.567-.84.86-1.414.654l2.397.86a1.11 1.11 0 0 0 1.415-.654l2.986-8.14a10.6 10.6 0 0 1-2.514-.542"/><path fill="#eb5569" d="M35.622 48H14.386c-.712 0-1.289-.57-1.289-1.274v-14.96c0-.703.577-1.274 1.288-1.274h21.236c.711 0 1.288.57 1.288 1.274v14.96c0 .704-.577 1.274-1.288 1.274"/><path fill="#e53950" d="M35.622 30.492H33.18c.711 0 1.288.57 1.288 1.274v14.96c0 .704-.577 1.274-1.288 1.274h2.44c.712 0 1.289-.57 1.289-1.274v-14.96c0-.703-.577-1.274-1.288-1.274"/><path fill="#f9f7f8" d="m27.502 38.598-4.108-2.752c-.525-.352-1.235.02-1.235.648v5.505c0 .627.71 1 1.235.648l4.108-2.753a.778.778 0 0 0 0-1.296"/><path fill="#c8effe" d="m46.55 28.23 3.384-9.223a1.09 1.09 0 0 0-.662-1.399l-15.864-5.69a1.11 1.11 0 0 0-1.415.654l-3.116 8.495C39.87 19.353 38.16 27.4 46.55 28.23"/><path fill="#b3dafe" d="m49.272 17.608-2.397-.86c.573.206.87.832.661 1.4l-3.5 9.54c.73.257 1.556.447 2.514.542l3.383-9.223a1.09 1.09 0 0 0-.661-1.399"/><path fill="#ffe177" d="M44.147 22.096a1.52 1.52 0 0 0 1.528-1.511 1.52 1.52 0 0 0-1.528-1.51 1.52 1.52 0 0 0-1.528 1.51c0 .834.684 1.51 1.528 1.51"/></svg>