<svg xmlns="http://www.w3.org/2000/svg" width="51" height="51" fill="none" viewBox="0 0 51 51"><path fill="#a79ba7" fill-rule="evenodd" d="M32.218 25.188c.472 0 .855.372.855.83s-.383.83-.855.83h-1.712a.844.844 0 0 1-.856-.83c0-.458.383-.83.856-.83zm-5.136 0c.472 0 .856.372.856.83s-.384.83-.856.83H25.37a.844.844 0 0 1-.856-.83c0-.458.384-.83.856-.83zm-5.136 0c.473 0 .856.372.856.83s-.383.83-.856.83h-1.712a.844.844 0 0 1-.855-.83c0-.458.383-.83.855-.83zm-5.135 0c.472 0 .856.372.856.83s-.384.83-.856.83h-1.712a.844.844 0 0 1-.856-.83c0-.458.384-.83.856-.83zm-5.136 0c.473 0 .856.372.856.83s-.383.83-.856.83H9.963a.844.844 0 0 1-.855-.83c0-.458.383-.83.855-.83zM9.857 38.363c0-.459.383-.83.856-.83.472 0 .856.371.856.83v1.66c0 .458-.384.83-.856.83a.844.844 0 0 1-.856-.83zm0 4.981c0-.458.383-.83.856-.83.472 0 .856.372.856.83v1.66c0 .459-.384.831-.856.831a.844.844 0 0 1-.856-.83zm4.224 2.545a.844.844 0 0 1-.856-.83c0-.459.383-.83.856-.83h1.712c.472 0 .856.371.856.83s-.384.83-.856.83zm5.135 0a.844.844 0 0 1-.856-.83c0-.459.384-.83.856-.83h1.712c.473 0 .856.371.856.83s-.383.83-.856.83zm5.136 0a.844.844 0 0 1-.856-.83c0-.459.384-.83.856-.83h1.712c.472 0 .856.371.856.83s-.384.83-.856.83zm5.136 0a.844.844 0 0 1-.857-.83c0-.459.384-.83.857-.83h1.711c.473 0 .856.371.856.83s-.383.83-.856.83zm-17.92-32.481c0 .458-.383.83-.855.83a.844.844 0 0 1-.856-.83v-1.66c0-.459.383-.83.856-.83.472 0 .856.371.856.83zm0-4.981c0 .458-.383.83-.855.83a.844.844 0 0 1-.856-.83v-1.66c0-.46.383-.831.856-.831.472 0 .856.372.856.83zm2.513-.885a.844.844 0 0 1-.856-.83c0-.458.383-.83.856-.83h1.712c.472 0 .856.372.856.83s-.384.83-.856.83zm5.135 0a.844.844 0 0 1-.856-.83c0-.458.384-.83.856-.83h1.712c.473 0 .856.372.856.83s-.383.83-.856.83zm5.136 0a.844.844 0 0 1-.856-.83c0-.458.384-.83.856-.83h1.712c.472 0 .856.372.856.83s-.384.83-.856.83zm5.136 0a.844.844 0 0 1-.857-.83c0-.458.384-.83.857-.83h1.711c.473 0 .856.372.856.83s-.383.83-.856.83z" clip-rule="evenodd"/><path fill="#fe646f" fill-rule="evenodd" d="M50.176 1.518c0-.746-.625-1.353-1.394-1.353h-15.17c-.77 0-1.395.607-1.395 1.353v11.288c0 .747.625 1.353 1.395 1.353h15.17c.77 0 1.394-.606 1.394-1.353z" clip-rule="evenodd"/><path fill="#fd4755" fill-rule="evenodd" d="M47.177 14.159c.77 0 1.394-.606 1.394-1.353V1.518c0-.746-.625-1.353-1.394-1.353h1.605c.77 0 1.394.607 1.394 1.353v11.288c0 .747-.625 1.353-1.394 1.353z" clip-rule="evenodd"/><path fill="#eceff1" fill-rule="evenodd" d="M45.471 6.713a.507.507 0 0 1 0 .899l-6.473 3.625a.55.55 0 0 1-.73-.19.5.5 0 0 1-.072-.26v-7.25q0-.138.071-.26a.547.547 0 0 1 .73-.19z" clip-rule="evenodd"/><path fill="#d1d1d6" fill-rule="evenodd" d="m39.337 11.047-.339.19a.55.55 0 0 1-.73-.19.5.5 0 0 1-.072-.26v-7.25q0-.138.071-.26a.547.547 0 0 1 .73-.19l.34.19a.5.5 0 0 0-.072.26v7.25q.002.141.072.26" clip-rule="evenodd"/><path fill="#ffd064" fill-rule="evenodd" d="M33.646 18.168h4.175a1.6 1.6 0 0 1 1.406.787l1.496 2.51h8.268c.788 0 1.429.622 1.429 1.387v7.929c0 .76-.64 1.381-1.43 1.381H33.647c-.788 0-1.428-.621-1.428-1.381V19.55c0-.76.64-1.382 1.428-1.382" clip-rule="evenodd"/><path fill="#ffc338" fill-rule="evenodd" d="M36.737 18.168h1.084a1.6 1.6 0 0 1 1.406.787l1.496 2.51h-1.084l-1.496-2.51a1.6 1.6 0 0 0-1.406-.787m11.17 3.298h1.084c.788 0 1.429.621 1.429 1.386v7.929c0 .76-.64 1.381-1.43 1.381h-1.083c.788 0 1.429-.621 1.429-1.381v-7.93c0-.764-.64-1.385-1.429-1.385" clip-rule="evenodd"/><path fill="#ffe177" fill-rule="evenodd" d="M48.99 21.466c.79 0 1.43.621 1.43 1.386v7.929c0 .76-.64 1.381-1.43 1.381H33.647c-.788 0-1.428-.621-1.428-1.381v-9.315z" clip-rule="evenodd"/><path fill="#ffd064" fill-rule="evenodd" d="M49.3 21.5c.64.135 1.12.691 1.12 1.352v7.929c0 .76-.64 1.381-1.43 1.381H33.647c-.68 0-1.254-.465-1.393-1.082q.148.032.31.03h15.344c.788 0 1.429-.62 1.429-1.38V21.8q-.002-.156-.036-.3" clip-rule="evenodd"/><path fill="#8ac9fe" fill-rule="evenodd" d="M50.298 37.524c0-.746-.625-1.352-1.395-1.352h-15.17c-.769 0-1.394.606-1.394 1.352v11.289c0 .746.625 1.352 1.395 1.352h15.17c.77 0 1.394-.606 1.394-1.352z" clip-rule="evenodd"/><path fill="#60b7ff" fill-rule="evenodd" d="M32.37 49.097q.142.03.294.03h15.17c.77 0 1.394-.606 1.394-1.352V36.487q0-.148-.031-.285c.629.13 1.101.674 1.101 1.322v11.289c0 .746-.625 1.352-1.395 1.352h-15.17a1.39 1.39 0 0 1-1.363-1.068" clip-rule="evenodd"/><path fill="#00e499" fill-rule="evenodd" d="M33.756 50.165c-.401 0-.764-.145-1.022-.378l5.8-7.08a.53.53 0 0 1 .418-.195.55.55 0 0 1 .42.196l6.108 7.457z" clip-rule="evenodd"/><path fill="#00cf8a" fill-rule="evenodd" d="M45.48 50.165H33.757q-.19 0-.364-.04a1.4 1.4 0 0 1-.643-.355l.526-.643H44.63z" clip-rule="evenodd"/><path fill="#6cf5c2" fill-rule="evenodd" d="m39.17 50.165 5.112-5.917a.53.53 0 0 1 .41-.186.55.55 0 0 1 .41.186l4.792 5.548c-.258.228-.616.37-1.013.37z" clip-rule="evenodd"/><path fill="#ffe177" d="M46.082 40.627c.793 0 1.435-.614 1.435-1.371s-.642-1.37-1.435-1.37-1.435.613-1.435 1.37.642 1.37 1.435 1.37"/><path fill="#00e499" fill-rule="evenodd" d="M48.881 50.165h-9.71l.896-1.038h7.766c.428 0 .811-.187 1.067-.481l.979 1.133a1.4 1.4 0 0 1-.998.386" clip-rule="evenodd"/><path fill="#ffe177" fill-rule="evenodd" d="M12.764 17.688c.909.21 1.777.56 2.572 1.035l1.672-.72 1.97 1.91-.742 1.622c.49.772.85 1.614 1.067 2.496l1.706.637v2.703l-1.706.637a8.4 8.4 0 0 1-1.067 2.495l.742 1.621-1.97 1.912-1.672-.72a9 9 0 0 1-2.572 1.035l-.657 1.654H9.32l-.656-1.655a9 9 0 0 1-2.572-1.034l-1.672.72-1.97-1.912.742-1.62a8.4 8.4 0 0 1-1.068-2.496L.42 27.371v-2.703l1.704-.637a8.4 8.4 0 0 1 1.068-2.495l-.743-1.622 1.971-1.91 1.67.718a9 9 0 0 1 2.574-1.034l.656-1.654h2.787z" clip-rule="evenodd"/><path fill="#ffd064" fill-rule="evenodd" d="m16.447 18.245.561-.242 1.97 1.91-.742 1.622c.49.772.85 1.614 1.067 2.496l1.706.637v2.703l-1.706.637a8.4 8.4 0 0 1-1.067 2.495l.742 1.621-1.97 1.912-.561-.242 1.721-1.67-.743-1.621c.49-.771.85-1.614 1.067-2.495l1.706-.637v-2.703l-1.706-.637a8.4 8.4 0 0 0-1.067-2.495l.743-1.622zm-12.276 0 .249-.242 1.67.72q-.176.095-.348.199zm8.593-.557c.909.21 1.777.56 2.572 1.035l-.46.199c-.796-.475-2.014-1.024-2.923-1.234l-.657-1.654h.811zM6.092 33.316l-1.672.72-.25-.242 1.572-.676q.172.102.35.198m9.244 0a9 9 0 0 1-2.572 1.035l-.657 1.654h-.811l.657-1.654c.909-.21 2.127-.758 2.924-1.233z" clip-rule="evenodd"/><path fill="#eceff1" fill-rule="evenodd" d="M10.714 20.213c3.306 0 5.985 2.6 5.985 5.807 0 3.205-2.68 5.805-5.986 5.805-3.304 0-5.984-2.6-5.984-5.805 0-3.207 2.68-5.807 5.985-5.807" clip-rule="evenodd"/><path fill="#d1d1d6" fill-rule="evenodd" d="M10.714 20.213q.203 0 .406.014c-3.117.202-5.581 2.718-5.581 5.793 0 3.073 2.464 5.589 5.58 5.792q-.202.013-.405.013c-3.305 0-5.985-2.6-5.985-5.805 0-3.207 2.68-5.807 5.985-5.807" clip-rule="evenodd"/></svg>