<svg xmlns="http://www.w3.org/2000/svg" width="50" height="50" fill="none" viewBox="0 0 50 50"><path fill="#383838" d="M25.765 50h-1.483a.6.6 0 0 0-.207-.031 27 27 0 0 1-2.356-.207 24.3 24.3 0 0 1-4.283-.955 25.1 25.1 0 0 1-6.689-3.296A24.8 24.8 0 0 1 5.66 40.8a24.6 24.6 0 0 1-4.058-7.038 24.5 24.5 0 0 1-1.533-7.095Q.067 26.47 0 26.272v-2.58c.044-.114.062-.233.069-.352a24.663 24.663 0 0 1 2.65-9.683A25 25 0 0 1 5.923 8.84a25 25 0 0 1 4.183-3.93A24.8 24.8 0 0 1 18.421.86a25 25 0 0 1 4.49-.791c.27-.025.553 0 .823-.069h2.537c.195.056.396.025.59.044 1.006.087 2.005.214 2.996.408a24.7 24.7 0 0 1 8.693 3.51 25 25 0 0 1 5.515 4.828 24.6 24.6 0 0 1 3.272 4.916 24.5 24.5 0 0 1 2.236 6.587c.226 1.218.396 2.448.402 3.692 0 .082.019.17.025.25v1.483c-.025.093-.025.194-.031.294 0 .239 0 .478-.019.716a26 26 0 0 1-.729 4.502 24.8 24.8 0 0 1-3.499 7.742 25 25 0 0 1-4.208 4.779 25 25 0 0 1-5.257 3.553 24.7 24.7 0 0 1-6.916 2.292q-1.394.243-2.807.326c-.248.029-.512.023-.77.078"/><path fill="url(#a)" d="M18.498 14.627c-.018.46.064.961.199 1.464.258.955.685 1.831 1.189 2.658 1.148 1.881 2.595 3.492 4.165 4.987.128.123.281.226.445.305a.55.55 0 0 0 .498.013q.247-.11.433-.313a53 53 0 0 0 1.6-1.71 28 28 0 0 0 2.044-2.59c.569-.827 1.078-1.697 1.452-2.64.375-.938.557-1.905.434-2.922-.205-1.678-.89-3.1-2.115-4.215-1.447-1.316-3.134-1.843-5.032-1.55-3.087.479-5.324 3.322-5.312 6.513" style="mix-blend-mode:lighten"/><path fill="url(#b)" d="M34.473 37.498a5.4 5.4 0 0 1-1.261-.129c-1.29-.282-2.387-.869-3.229-1.909a12 12 0 0 1-1.314-2.044 21.5 21.5 0 0 1-1.119-2.638 29 29 0 0 1-.972-3.32c-.141-.628.017-1.022.713-1.239a32 32 0 0 1 2.68-.723c1.502-.33 3.016-.54 4.56-.488q.656.026 1.303.14c1.249.218 2.309.794 3.175 1.704 1.479 1.551 2.067 3.402 1.703 5.512-.525 3.014-3.2 5.158-6.24 5.134"/><path fill="url(#c)" d="M15.018 37.498a5.4 5.4 0 0 0 1.26-.129c1.29-.282 2.387-.869 3.23-1.909.511-.634.942-1.322 1.313-2.044.436-.852.801-1.74 1.119-2.638.388-1.087.718-2.197.972-3.32.141-.628-.017-1.022-.712-1.239a32 32 0 0 0-2.681-.723c-1.502-.33-3.016-.54-4.56-.488a10 10 0 0 0-1.302.14 5.6 5.6 0 0 0-3.175 1.704c-1.48 1.551-2.068 3.402-1.703 5.512.524 3.014 3.199 5.158 6.239 5.134"/><defs><radialGradient id="a" cx="0" cy="0" r="1" gradientTransform="rotate(4.823 -263.918 306.892)scale(6.63894 12.2721)" gradientUnits="userSpaceOnUse"><stop stop-color="#fff"/><stop offset="1" stop-color="#009bd8"/></radialGradient><radialGradient id="b" cx="0" cy="0" r="1" gradientTransform="rotate(21.776 -57.076 82.682)scale(14.6402 7.82339)" gradientUnits="userSpaceOnUse"><stop stop-color="#fff"/><stop offset="1" stop-color="#ff3044"/></radialGradient><radialGradient id="c" cx="0" cy="0" r="1" gradientTransform="rotate(146.321 7.39 16.724)scale(14.795 6.72509)" gradientUnits="userSpaceOnUse"><stop stop-color="#fff"/><stop offset="1" stop-color="#fcff7c"/></radialGradient></defs></svg>