<svg xmlns="http://www.w3.org/2000/svg" width="50" height="50" fill="none" viewBox="0 0 50 50"><path fill="#b0c1d4" d="M20.066 35.333h9.868V44h-9.868z"/><path fill="#66798f" d="M29.605 35.667v8h-9.21v-8zm.658-.667H19.737v9.333h10.526z"/><path fill="#c2e8ff" d="M.329 3.333H49.67v35.334H.33z"/><path fill="#66798f" d="M49.342 3.667v34.666H.658V3.667zM50 3H0v36h50z"/><path fill="#66798f" d="M.658 33.667h48.684v4.666H.658z"/><path fill="#b0c1d4" d="M10.868 46.667c.084-.911.5-1.757 1.167-2.374a3.6 3.6 0 0 1 2.439-.96h21.052a3.6 3.6 0 0 1 2.44.96 3.7 3.7 0 0 1 1.166 2.374z"/><path fill="#66798f" d="M35.526 43.667c.759 0 1.494.265 2.081.75a3.34 3.34 0 0 1 1.143 1.916h-27.5a3.34 3.34 0 0 1 1.143-1.915 3.26 3.26 0 0 1 2.08-.751zm0-.667H14.474a3.92 3.92 0 0 0-2.792 1.172A4.03 4.03 0 0 0 10.526 47h28.948c0-1.06-.416-2.078-1.156-2.828A3.92 3.92 0 0 0 35.526 43"/><path fill="#ffeea3" d="M43.421 35.667h3.947V37h-3.947z"/><path fill="#2196f3" d="M1 5.611C1 4.721 1.721 4 2.611 4H13.89c.89 0 1.611.721 1.611 1.611V16.89c0 .89-.721 1.611-1.611 1.611H2.61C1.721 18.5 1 17.779 1 16.889z"/><path fill="#fff" d="M9.458 14.472H8.037V9.817l-1.398.42V9.128l2.69-.957h.13z"/><path fill="#2196f3" d="M34 20.611c0-.89.721-1.611 1.611-1.611H46.89c.89 0 1.611.721 1.611 1.611V31.89c0 .89-.721 1.611-1.611 1.611H35.61c-.89 0-1.611-.721-1.611-1.611z"/><path fill="#fff" d="M40.348 26.061h.688q.817 0 .817-.8a.7.7 0 0 0-.194-.508q-.195-.198-.55-.198a.8.8 0 0 0-.503.17.52.52 0 0 0-.215.419h-1.458q0-.497.277-.887.278-.39.768-.608a2.6 2.6 0 0 1 1.08-.219q1.05 0 1.652.48.6.48.601 1.32 0 .407-.248.768-.25.361-.725.586a1.7 1.7 0 0 1 .787.552q.285.37.286.915 0 .843-.649 1.35-.648.506-1.705.506-.618 0-1.148-.236t-.803-.653a1.7 1.7 0 0 1-.273-.95H40.3q0 .291.234.503a.83.83 0 0 0 .575.212q.386 0 .615-.214a.72.72 0 0 0 .229-.548q0-.476-.238-.675t-.658-.199h-.71z"/><path fill="#2196f3" d="M34 5.611C34 4.721 34.721 4 35.611 4H46.89c.89 0 1.611.721 1.611 1.611V16.89c0 .89-.721 1.611-1.611 1.611H35.61c-.89 0-1.611-.721-1.611-1.611z"/><path fill="#fff" d="M43.667 14.472h-4.304v-.96l1.982-2.146q.734-.86.733-1.366 0-.41-.174-.624-.173-.214-.504-.214a.62.62 0 0 0-.529.286q-.203.286-.203.714h-1.432q0-.585.284-1.08t.788-.775 1.127-.28q.999 0 1.539.477.54.475.54 1.366 0 .375-.136.73-.135.356-.421.746-.286.391-.921 1.046l-.797.946h2.428z"/><path fill="#2196f3" d="M1 20.611C1 19.721 1.721 19 2.611 19H13.89c.89 0 1.611.721 1.611 1.611V31.89c0 .89-.721 1.611-1.611 1.611H2.61C1.721 33.5 1 32.779 1 31.889z"/><path fill="#fff" d="M9.856 26.954h.805v1.15h-.805v1.368H8.33v-1.368H5.924l-.09-.911L8.33 23.04v-.013h1.525zm-2.71 0H8.33V24.97l-.095.15z"/></svg>