<svg xmlns="http://www.w3.org/2000/svg" width="50" height="50" fill="none" viewBox="0 0 50 50"><path fill="#de5833" fill-rule="evenodd" d="M25 50c13.807 0 25-11.193 25-25S38.807 0 25 0 0 11.193 0 25s11.193 25 25 25" clip-rule="evenodd"/><path fill="#ddd" fill-rule="evenodd" d="M28.516 43.653c0-.195.047-.24-.573-1.477-1.65-3.305-3.309-7.963-2.554-10.968.137-.546-1.555-20.212-2.75-20.846-1.33-.707-2.965-1.832-4.46-2.082-.76-.12-1.755-.063-2.533.042-.139.019-.144.267-.012.311.511.174 1.132.474 1.497.928.069.085-.024.221-.134.226-.345.012-.97.156-1.794.856-.095.082-.016.232.106.208 1.772-.351 3.583-.178 4.649.792.068.063.033.175-.057.2-9.256 2.515-7.425 10.566-4.96 20.447 2.088 8.372 2.937 11.347 3.24 12.36a.57.57 0 0 0 .345.376c3.243 1.217 9.99 1.242 9.99-.885z" clip-rule="evenodd"/><path fill="#fff" d="M29.785 45.508c-1.123.44-3.32.634-4.59.634-1.861 0-4.541-.292-5.518-.732-.602-1.856-2.407-7.61-4.19-14.916l-.175-.714v-.006c-2.12-8.654-3.85-15.723 5.635-17.944.086-.02.129-.123.072-.192-1.089-1.29-3.127-1.714-5.706-.825-.106.037-.197-.07-.132-.16.506-.697 1.495-1.233 1.981-1.468.101-.048.096-.196-.011-.23a11 11 0 0 0-1.474-.35c-.144-.024-.157-.272-.012-.292 3.655-.49 7.472.606 9.387 3.02a.13.13 0 0 0 .072.043c7.013 1.506 7.515 12.592 6.707 13.097-.16.1-.67.042-1.343-.033-2.73-.305-8.132-.91-3.673 7.401.044.083-.014.191-.107.205-2.514.392.708 8.27 3.077 13.462"/><path fill="#3ca82b" d="M32.922 35.43c-.534-.249-2.587 1.224-3.95 2.354-.284-.403-.82-.696-2.031-.486-1.06.185-1.646.44-1.907.881-1.673-.634-4.488-1.613-5.168-.668-.742 1.033.186 5.922 1.174 6.557.515.331 2.98-1.253 4.268-2.346.207.292.542.46 1.229.444 1.04-.023 2.726-.266 2.988-.75a.5.5 0 0 0 .041-.104c1.324.495 3.652 1.02 4.173.94 1.355-.204-.189-6.532-.817-6.823"/><path fill="#4cba3c" d="M29.098 37.928q.083.151.14.314c.188.528.495 2.205.264 2.62-.233.414-1.743.614-2.675.63s-1.14-.324-1.329-.851c-.15-.422-.224-1.416-.224-1.983-.037-.843.27-1.14 1.694-1.37 1.053-.17 1.61.029 1.931.369 1.495-1.117 3.99-2.692 4.234-2.404 1.213 1.435 1.366 4.852 1.104 6.226-.086.45-4.104-.445-4.104-.93 0-2.012-.522-2.564-1.035-2.62m-8.8-.628c.328-.52 2.996.127 4.461.778 0 0-.302 1.364.179 2.971.14.47-3.37 2.561-3.829 2.202-.529-.416-1.503-4.857-.812-5.951"/><path fill="#fc3" fill-rule="evenodd" d="M21.59 26.722c.215-.939 1.221-2.708 4.812-2.665 1.816-.008 4.07-.001 5.566-.171a20 20 0 0 0 4.972-1.21c1.554-.592 2.106-.46 2.3-.105.212.39-.038 1.063-.582 1.683-1.037 1.184-2.902 2.102-6.198 2.373-3.295.272-5.476-.611-6.415.828-.405.62-.092 2.083 3.094 2.543 4.304.622 7.84-.748 8.277.08.437.827-2.08 2.51-6.391 2.545-4.312.035-7.006-1.51-7.96-2.278-1.213-.974-1.756-2.395-1.475-3.623" clip-rule="evenodd"/><g fill="#14307e" opacity=".8"><path d="M27.081 16.456c.24-.394.774-.698 1.646-.698.873 0 1.283.348 1.568.735.058.079-.03.171-.12.133l-.066-.029c-.318-.14-.71-.311-1.382-.32-.718-.01-1.17.17-1.456.324-.096.053-.247-.052-.19-.145m-9.826.503c.847-.353 1.513-.308 1.984-.196.099.023.168-.084.088-.147-.365-.295-1.183-.66-2.25-.264-.953.355-1.4 1.093-1.403 1.577 0 .115.235.125.295.029.164-.263.438-.644 1.285-.999"/><path fill-rule="evenodd" d="M29.469 21.843c-.75 0-1.357-.605-1.357-1.352 0-.746.608-1.351 1.357-1.351s1.357.605 1.357 1.351c0 .747-.608 1.352-1.357 1.352m.955-1.8a.351.351 0 1 0-.702 0 .351.351 0 0 0 .702 0m-9.947 1.384c0 .871-.707 1.577-1.58 1.577a1.58 1.58 0 0 1-1.583-1.576c0-.871.71-1.577 1.582-1.577a1.58 1.58 0 0 1 1.581 1.576m-.466-.522a.41.41 0 1 0-.818-.037.41.41 0 0 0 .818.037" clip-rule="evenodd"/></g><path fill="#fff" fill-rule="evenodd" d="M25 45.996c11.596 0 20.996-9.4 20.996-20.996S36.596 4.004 25 4.004 4.004 13.404 4.004 25 13.404 45.996 25 45.996m0 1.953c12.675 0 22.95-10.274 22.95-22.949C47.95 12.326 37.673 2.05 25 2.05S2.05 12.327 2.05 25c0 12.675 10.276 22.95 22.95 22.95" clip-rule="evenodd"/><path fill="#fff" fill-rule="evenodd" d="M24.997 45.696c11.432 0 20.7-9.267 20.7-20.698s-9.268-20.7-20.699-20.7-20.7 9.268-20.7 20.7c0 11.43 9.268 20.698 20.7 20.698m22.917-20.698c0 12.656-10.26 22.915-22.917 22.915C12.341 47.913 2.081 37.655 2.081 25S12.34 2.08 24.997 2.08s22.918 10.262 22.918 22.918z" clip-rule="evenodd"/></svg>