<svg xmlns="http://www.w3.org/2000/svg" width="50" height="50" fill="none" viewBox="0 0 50 50"><path fill="#de5833" fill-rule="evenodd" d="M25 50c13.8 0 25-11.2 25-25C50 11.19 38.8 0 25 0 11.19 0 0 11.19 0 25c0 13.8 11.19 25 25 25"/><path fill="#ddd" fill-rule="evenodd" d="M28.51 43.65c0-.2.05-.24-.57-1.48-1.65-3.3-3.31-7.96-2.56-10.97.14-.54-1.55-20.21-2.75-20.84-1.33-.71-2.96-1.83-4.46-2.08-.76-.13-1.75-.07-2.53.04-.14.01-.14.26-.01.31.51.17 1.13.47 1.5.93.07.08-.03.22-.14.22-.34.01-.97.16-1.79.86-.1.08-.02.23.1.21 1.78-.35 3.59-.18 4.65.79.07.06.04.17-.05.2-9.26 2.51-7.43 10.56-4.96 20.44 2.01 8.09 2.87 11.14 3.2 12.25.07.25.25.45.49.53 3.28 1.18 9.88 1.18 9.88-.92z"/><path fill="#fff" fill-rule="evenodd" d="M47.94 25c0 12.67-10.27 22.94-22.94 22.94C12.32 47.94 2.05 37.67 2.05 25 2.05 12.32 12.32 2.05 25 2.05c12.67 0 22.94 10.27 22.94 22.95m-28.3 20.3c-.63-1.96-2.41-7.63-4.16-14.81l-.17-.71c-2.12-8.66-3.85-15.73 5.63-17.95.09-.02.13-.13.07-.2-1.08-1.29-3.12-1.71-5.7-.82-.11.03-.2-.07-.13-.16.5-.7 1.49-1.23 1.98-1.47.1-.05.09-.2-.01-.23-.49-.15-.98-.27-1.48-.35-.14-.02-.15-.27-.01-.29 3.65-.49 7.47.6 9.39 3.02 7.01 1.5 7.58 12.63 6.78 13.14-.16.1-.67.04-1.35-.04-2.73-.3-8.13-.9-3.67 7.41.05.08-.01.19-.11.2-2.5.39.69 8.22 3.06 13.41 9.3-2.16 16.23-10.5 16.23-20.45 0-11.6-9.4-21-20.99-21C13.4 4 4 13.4 4 25c0 9.74 6.64 17.93 15.64 20.3"/><path fill="#3ca82b" d="M32.92 35.42c-.54-.24-2.59 1.23-3.95 2.36-.29-.4-.82-.7-2.03-.49-1.06.19-1.65.44-1.91.88-1.67-.63-4.49-1.61-5.17-.66-.74 1.03.19 5.92 1.17 6.55.52.33 2.99-1.25 4.27-2.34.21.29.55.46 1.23.44 1.04-.02 2.73-.26 2.99-.75 1.32.5 3.69.92 4.21.84 1.36-.21-.18-6.54-.81-6.83"/><path fill="#4cba3c" d="M29.09 37.92c.06.1.11.21.14.32.19.52.5 2.2.27 2.62-.24.41-1.75.61-2.68.63-.93.01-1.14-.33-1.33-.85-.15-.43-.22-1.42-.22-1.99-.04-.84.27-1.14 1.69-1.37 1.06-.17 1.61.03 1.94.37 1.49-1.12 3.98-2.69 4.23-2.4 1.21 1.43 1.37 4.85 1.1 6.22-.08.45-4.1-.44-4.1-.93 0-2.01-.52-2.56-1.04-2.62m-8.8-.62c.33-.53 3 .12 4.46.77 0 0-.3 1.37.18 2.97.14.47-3.37 2.57-3.83 2.21-.53-.42-1.5-4.86-.81-5.95"/><path fill="#fc3" fill-rule="evenodd" d="M21.58 26.72c.22-.94 1.23-2.71 4.82-2.67 1.81-.01 4.07 0 5.56-.17 1.71-.19 3.37-.59 4.97-1.21 1.56-.59 2.11-.46 2.3-.1.22.39-.03 1.06-.58 1.68-1.03 1.18-2.9 2.1-6.19 2.37-3.3.27-5.48-.61-6.42.83-.41.62-.09 2.08 3.09 2.54 4.31.62 7.84-.75 8.28.08s-2.08 2.51-6.39 2.55c-4.31.03-7.01-1.51-7.96-2.28-1.21-.97-1.75-2.39-1.48-3.62"/><g fill="#14307e" opacity=".8"><path d="M27.08 16.45c.24-.39.77-.7 1.64-.7.88 0 1.29.35 1.57.74.06.08-.03.17-.12.13-.44-.21-.96-.35-1.45-.35-.72-.01-1.17.17-1.45.33-.1.05-.25-.06-.19-.15m-9.83.51c.85-.36 1.51-.31 1.98-.2.1.02.17-.09.09-.15-.36-.29-1.18-.66-2.25-.26-.95.35-1.4 1.09-1.4 1.57 0 .12.23.13.29.03.17-.26.44-.64 1.29-.99"/><path fill-rule="evenodd" d="M29.46 21.84c-.75 0-1.35-.61-1.35-1.35 0-.75.6-1.36 1.35-1.36s1.36.61 1.36 1.36c0 .74-.61 1.35-1.36 1.35m.96-1.8c0-.24-.12-.35-.35-.35-.24 0-.35.11-.35.35 0 .23.11.35.35.35.23 0 .35-.12.35-.35m-9.95 1.38c0 .44-.15.81-.46 1.12s-.68.46-1.12.46-.81-.15-1.12-.46-.46-.68-.46-1.12c0-.43.15-.81.46-1.11.31-.31.68-.47 1.12-.46.44-.01.81.15 1.12.46.31.3.46.68.46 1.11m-.46-.52c0-.27-.14-.41-.41-.41-.28 0-.41.14-.41.41s.13.41.41.41c.27 0 .41-.14.41-.41"/></g></svg>