<svg xmlns="http://www.w3.org/2000/svg" width="50" height="50" fill="none" viewBox="0 0 50 50"><path fill="#fff" d="M22.929 14.789v-4.82c0-.77-.366-1.125-1.123-1.125h-1.238v7.066h1.238c.76 0 1.123-.355 1.123-1.121m-4.016 17.105-.674 1.652h1.34z"/><path fill="#fff" fill-rule="evenodd" d="M7.024 0h35.952C45.926 0 47 1.055 47 3.916v34.846c0 .447-.08 1.255-.23 1.602-.119.33-.31.63-.562.88-.283.26-.775.53-1.01.636l-19.06 7.895a2.98 2.98 0 0 1-2.276 0L4.805 41.88a4.6 4.6 0 0 1-1.014-.634 2.4 2.4 0 0 1-.561-.882c-.147-.344-.23-1.152-.23-1.6V3.916C3 1.056 4.078 0 7.024 0m23.283 6.27h-3.011v19.171h3.01zM29.2 30.026h-1.75l-1.427 2.25-1.423-2.25H22.85v5.81h1.623v-3.32l1.519 2.258h.035l1.526-2.274v3.337H29.2zM22.282 6.271H17.56v19.173h3.008v-6.958h1.714c2.447 0 3.658-1.176 3.658-3.56V9.83c0-2.384-1.211-3.56-3.658-3.56m-6.23 0H9.356v19.173h6.75v-2.658h-3.74v-5.779h3.541V14.35h-3.54V8.93h3.682zM13.929 35.7a4.4 4.4 0 0 0 1.125-.639v-2.616h-2.743v1.185h1.176v.702c-.287.17-.62.254-.954.24a1.63 1.63 0 0 1-1.166-.453 1.6 1.6 0 0 1-.337-.51 1.8 1.8 0 0 1-.12-.648v-.016a1.64 1.64 0 0 1 .443-1.129 1.44 1.44 0 0 1 1.083-.465q.444 0 .781.142c.24.102.464.239.663.405l.971-1.134a3.8 3.8 0 0 0-1.054-.624 3.8 3.8 0 0 0-1.369-.224q-.694 0-1.283.232c-.38.149-.726.368-1.022.645a2.959 2.959 0 0 0-.912 2.145v.018q0 .657.247 1.205.248.552.684.953.433.396 1.027.62.596.224 1.294.224.819 0 1.468-.258m4.198-5.718-2.545 5.853h1.743l.428-1.037h2.302l.439 1.037h1.773l-2.543-5.853zm14.1 12.331.035-.047.01-.06a.16.16 0 0 0-.045-.108.14.14 0 0 0-.107-.045h-14.22a.16.16 0 0 0-.11.045l-.034.047-.014.06c.002.041.019.08.048.108a.1.1 0 0 0 .048.032l6.9 2.882a.62.62 0 0 0 .483 0l6.953-2.882zm-1.922-6.478h4.847v-1.369h-3.208v-.92h2.866v-1.272h-2.866v-.879h3.166v-1.368h-4.803zm1.588-26.17v12.38c0 2.385 1.211 3.561 3.658 3.561h1.49c2.446 0 3.654-1.179 3.654-3.56v-4.469h-2.952v4.33c0 .765-.366 1.12-1.123 1.12h-.561c-.789 0-1.155-.355-1.155-1.12V9.801c0-.768.363-1.123 1.152-1.123h.508c.757 0 1.123.355 1.123 1.12v3.753h2.952V9.64c0-2.384-1.182-3.534-3.628-3.534H35.55c-2.444 0-3.655 1.179-3.655 3.56m8.744 25.18c.117-.25.177-.522.173-.797v-.018a1.4 1.4 0 0 0-.14-.678 1.4 1.4 0 0 0-.456-.528 2.7 2.7 0 0 0-.706-.35 8 8 0 0 0-.925-.255 5 5 0 0 1-.508-.129 3 3 0 0 1-.316-.124.4.4 0 0 1-.163-.136.3.3 0 0 1-.045-.174v-.016q0-.158.147-.266a.8.8 0 0 1 .45-.108q.4 0 .828.145.434.145.842.43l.83-1.138a3.5 3.5 0 0 0-1.089-.579 4.3 4.3 0 0 0-1.372-.194q-.537 0-.962.136a2.2 2.2 0 0 0-.73.387 1.636 1.636 0 0 0-.62 1.337v.019c-.006.26.055.518.176.75q.176.302.478.505.303.205.714.334.406.126.886.237.307.066.5.126.16.05.307.132.093.052.158.134a.3.3 0 0 1 .043.163v.016a.31.31 0 0 1-.177.294 1.1 1.1 0 0 1-.508.106q-1.04 0-1.936-.7l-.922 1.07q.558.483 1.275.725.722.24 1.524.239c.335.004.668-.04.99-.129.276-.073.536-.2.762-.374.203-.161.37-.363.489-.592" clip-rule="evenodd"/></svg>