<svg xmlns="http://www.w3.org/2000/svg" width="50" height="50" fill="none" viewBox="0 0 50 50"><path fill="#cd4b0f" fill-rule="evenodd" d="M50 24.896a24.9 24.9 0 0 0-7.067-17.322l-.303-.302a25 25 0 0 0-4.047-3.265A24.8 24.8 0 0 0 30.44.593 25 25 0 0 0 25.16 0h-.32c-1.81.012-3.579.214-5.282.593a24.8 24.8 0 0 0-8.142 3.414 25.3 25.3 0 0 0-4.046 3.265l-.302.302A24.9 24.9 0 0 0 .5 19.987 25.2 25.2 0 0 0 0 24.896v.611a24.833 24.833 0 0 0 4.22 13.404 25 25 0 0 0 3.5 4.162 24.9 24.9 0 0 0 12.373 6.453c1.442.284 2.931.45 4.45.474h.89a25 25 0 0 0 4.45-.475 24.7 24.7 0 0 0 8.83-3.626 25.4 25.4 0 0 0 4.136-3.414 25 25 0 0 0 2.908-3.574 24.83 24.83 0 0 0 4.22-13.404v-.611zM27.313 4.286c3.97.44 7.73 2.014 10.824 4.536a6 6 0 0 1-1.21 1.5 5.906 5.906 0 0 1-9.838-4.405c-.001-.562.075-1.108.224-1.63m-4.623 0q.225.776.226 1.632a5.9 5.9 0 0 1-1.726 4.174 5.91 5.91 0 0 1-6.596 1.218 5.9 5.9 0 0 1-1.99-1.463 6 6 0 0 1-.744-1.031A20.74 20.74 0 0 1 22.684 4.28zM10.13 37.13c-.367.411-.788.769-1.253 1.063a20.77 20.77 0 0 1-4.563-10.738 5.8 5.8 0 0 1 1.406-.167 5.905 5.905 0 0 1 5.904 5.906 5.9 5.9 0 0 1-1.5 3.936zM5.725 23.115a5.8 5.8 0 0 1-1.447-.178A20.7 20.7 0 0 1 8.663 12.08c.55.313 1.046.715 1.466 1.187a5.88 5.88 0 0 1 1.508 3.942 5.9 5.9 0 0 1-1.727 4.173 5.9 5.9 0 0 1-4.178 1.733zm17.067 22.599a20.8 20.8 0 0 1-10.76-4.41 5.96 5.96 0 0 1 2.566-2.218 5.907 5.907 0 0 1 8.188 6.622zm4.42 0a5.89 5.89 0 0 1 1.18-4.943 5.91 5.91 0 0 1 9.574.538 20.7 20.7 0 0 1-10.76 4.411zm6.997-12.525q.002.66.083 1.3a10.05 10.05 0 0 0-9.287 3.859 10.056 10.056 0 0 0-9.287-3.858q.082-.641.083-1.301a10.04 10.04 0 0 0-3.94-7.99 10.06 10.06 0 0 0 3.857-9.29 10.05 10.05 0 0 0 9.287-3.86 10.056 10.056 0 0 0 9.287 3.859c-.23 1.75.005 3.53.682 5.16a10.06 10.06 0 0 0 3.175 4.13 10.041 10.041 0 0 0-3.94 7.991m6.919 4.998a6 6 0 0 1-1.253-1.062 5.9 5.9 0 0 1-1.501-3.936 5.89 5.89 0 0 1 2.256-4.644 5.92 5.92 0 0 1 5.054-1.096 20.77 20.77 0 0 1-4.563 10.738zm3.155-15.072a5.904 5.904 0 0 1-5.903-5.906 5.88 5.88 0 0 1 1.97-4.405 6 6 0 0 1 1.003-.724 20.76 20.76 0 0 1 4.385 10.857c-.463.119-.95.178-1.448.178z" clip-rule="evenodd"/></svg>