<svg xmlns="http://www.w3.org/2000/svg" width="50" height="50" fill="none" viewBox="0 0 50 50"><path fill="#d3dcfb" d="M25.28 45.448c-.06.049-.108.107-.167.166v-.068c.02-.01.039-.02.059-.04h.01c.029-.019.068-.038.097-.058"/><path fill="#d3dcfb" d="M43.538 37.17c-5.03-.224-10.345 1.85-15.081 5.512a35 35 0 0 0-3.168 2.766h-.01a.7.7 0 0 0-.107.068 53 53 0 0 1 3.275-4.986c3.373-4.53 7.07-7.792 10.58-9.01V16.776c-.01-1.539-.01-3.087-.01-4.626v-4.11q2.265-.482 4.501-.38v12.057c.02 5.815.02 11.64.02 17.454"/><path fill="#bec8f7" d="M25.024 45.604c-.01.01-.01.01-.02.01v-.03z"/><path fill="#e9efff" d="M39.037 16.775V31.51c-3.52 1.217-7.217 4.48-10.58 9.009a54 54 0 0 0-3.276 4.987h-.01c-.02.01-.039.02-.058.039-.02.01-.04.02-.06.039v-29.2c-.009-.01-.009-.01-.019-.01.03-.019.05-.038.079-.048v-.224C29.26 8.973 34.3 3.636 39.037 2v10.149c-.01 1.548-.01 3.087 0 4.626"/><path fill="#bec8f7" d="M46.607 13.016v29.228c-.02-.01-.03-.01-.049-.01-6.05-1.617-12.444-.915-18.111 1.578a27 27 0 0 0-3.138 1.617l.01-.02c1-.983 2.049-1.899 3.128-2.727 4.746-3.662 10.05-5.736 15.09-5.512 0-5.815 0-11.64-.009-17.464v-7.324c1.04.156 2.06.36 3.079.633M25.319 45.409l-.01.02c-.01 0-.02.01-.02.01z"/><path fill="#2a428c" d="M49.157 16.775h-2.55v25.469c-.01-.01-.04-.01-.049-.01v2.825H30.104l-1.657-.78v-.467a29 29 0 0 0-3.168 1.627h-.01a.7.7 0 0 0-.107.068h-.01c-.02.01-.04.02-.059.039-.02.01-.04.02-.059.039l-.02.02h-.01l-.019-.02c-.01 0-.01-.01-.01-.01l-.088-.059a31 31 0 0 0-3.344-1.724v.487l-1.647.78H3.452V16.775H.853c-.48 0-.853.321-.853.73V47.27c0 .409.382.73.853.73h19.112a3.56 3.56 0 0 0 1.569-.35l3.47-1.647 3.472 1.646c.48.224 1.02.351 1.569.351h19.102c.48 0 .853-.321.853-.73V17.505c.01-.409-.373-.73-.843-.73"/><path fill="#3c58a0" d="M21.553 43.793v.486l-1.647.78H3.452v-2.815c6.05-1.627 12.443-.935 18.101 1.548m25.005-1.559v2.825H30.104l-1.657-.78v-.467c5.667-2.493 12.07-3.195 18.111-1.578"/><path fill="#bec8f7" d="M24.897 45.516a31 31 0 0 0-3.344-1.724c-5.658-2.483-12.051-3.175-18.111-1.548V13.016a25 25 0 0 1 3.138-.643c-.01 1.47-.01 2.931-.01 4.402v2.932c0 5.824 0 11.638-.01 17.463 5.001-.224 10.267 1.82 14.983 5.434a33.5 33.5 0 0 1 3.354 2.912"/><path fill="#d3dcfb" d="M25.054 16.385v29.2l-.02.02h-.01l-.02-.02c-.009 0-.009-.01-.009-.01l-.088-.059a37 37 0 0 0-3.344-2.912c-4.726-3.613-9.992-5.658-14.993-5.434.01-5.815.01-11.64.01-17.464v-2.931c0-1.47 0-2.932.01-4.402V7.659c6.256-.283 12.933 3 18.415 8.444v.253l.02.02h.01c.009 0 .009 0 .019.01"/><path fill="#fd995b" d="M22.034 21.401a.85.85 0 0 1-.51-.175c-3.609-2.863-7.502-4.724-11.238-5.376a.807.807 0 1 1 .285-1.588c4.01.692 8.148 2.669 11.973 5.708a.804.804 0 0 1 .127 1.139.87.87 0 0 1-.637.292m0 6.789a.85.85 0 0 1-.51-.176c-3.609-2.863-7.502-4.723-11.238-5.376a.807.807 0 0 1-.657-.935c.079-.438.5-.73.942-.652 4.01.691 8.148 2.668 11.973 5.707a.804.804 0 0 1 .127 1.14.87.87 0 0 1-.637.292m0 7.558a.85.85 0 0 1-.51-.176c-3.609-2.863-7.502-4.723-11.238-5.376a.807.807 0 0 1-.657-.935c.079-.438.5-.73.942-.652 4.01.691 8.148 2.668 11.973 5.707a.804.804 0 0 1 .127 1.14.87.87 0 0 1-.637.292"/></svg>