<svg xmlns="http://www.w3.org/2000/svg" width="50" height="50" fill="none" viewBox="0 0 50 50"><path fill="#fff" d="m27.91 21.09-3.21 1.06 2.8 8.17 8.04-2.67-1.13-3.26-4.82 1.6zM22.46 15.62l3.21-1.06-1.68-4.9 4.82-1.6-1.13-3.27-8.03 2.67zM34.11 2.66l1.12 3.27 4.82-1.6 1.69 4.89 3.21-1.06L42.14 0zM45.66 20.65l-4.82 1.6 1.12 3.27L50 22.85l-2.81-8.16-3.21 1.06zM18.24 31.65c-1.08.01-2.17.11-3.24.22-.81.09-1.61.18-2.41.28-.54.06-1.07.13-1.61.2-2.77.38-5.61 1.02-7.85 2.65-.44.32-.86.69-1.07 1.18-.11.25-.15.52-.11.78.04.27.17.52.38.69.18.14.41.23.64.24.23.02.47-.02.69-.09.44-.16.81-.45 1.18-.73.58-.43 1.2-.85 1.91-1.04.35-.09.73-.12 1.09-.06s.71.21.98.46c.08.07.15.15.21.23.12.19.19.4.21.62.02.21-.02.43-.1.64-.15.4-.46.74-.82 1-.71.52-1.62.72-2.4 1.14-1.36.73-2.25 2.06-3.02 3.38-.6 1.04-1.16 2.11-1.97 3.01-.24.26-.5.52-.69.82-.09.15-.17.31-.21.49a1.02 1.02 0 0 0 .33 1.04c.16.14.36.23.57.26.34.06.68-.02.99-.16s.57-.35.83-.57.5-.44.78-.64c.27-.19.58-.35.91-.41.48-.09 1 .05 1.37.35.37.31.58.79.57 1.26.53.7 1.42 1.12 2.31 1.1s1.76-.48 2.26-1.2c.35-.5.52-1.11.94-1.56.29-.31.67-.51 1.07-.65.4-.13.82-.2 1.23-.27 2.01-.32 4.13-.57 6.04.1.67.24 1.31.59 2.01.74.35.07.72.08 1.07 0s.68-.26.9-.53c.27-.34.36-.8.31-1.23-.05-.42-.22-.83-.42-1.22-.41-.83-.95-1.61-1.15-2.51-.14-.66-.09-1.35.07-2.01.24-.98.7-1.89 1.04-2.84s.54-2 .25-2.97c-.06-.22-.17-.42-.31-.61l-.52-.71c-1.33-.48-2.74-.77-4.16-.85-.36-.02-.72-.03-1.08-.02m1.05 2.38c.83-.02 1.54.12 2.13.89.57.72-1.39 1.77-2.12 2.33-1.38 1.06-3.51.29-4.42-1.2-.48-.79 1.91-1.9 2.8-1.93.58-.01 1.12-.08 1.61-.09"/><path d="M15 31.87c-.81.09-1.61.18-2.41.28-.54.06-1.07.13-1.61.2-2.77.38-5.61 1.02-7.85 2.65-.44.32-.86.69-1.07 1.18-.11.25-.15.52-.11.78.04.27.17.52.38.69.18.14.41.23.64.24.23.02.47-.02.69-.09.44-.16.81-.45 1.18-.73.58-.43 1.2-.85 1.91-1.04.35-.09.73-.12 1.09-.06s.71.21.98.46c.08.07.15.15.21.23.12.19.19.4.21.62.02.21-.02.43-.1.64-.15.4-.46.74-.82 1-.71.52-1.62.72-2.4 1.14-1.36.73-2.25 2.06-3.02 3.38-.6 1.04-1.16 2.11-1.97 3.01-.24.26-.5.52-.69.82-.09.15-.17.31-.21.49a1.02 1.02 0 0 0 .33 1.04c.16.14.36.23.57.26.34.06.68-.02.99-.16s.57-.35.83-.57.5-.44.78-.64c.27-.19.58-.35.91-.41.48-.09 1 .05 1.37.35.37.31.58.79.57 1.26.53.7 1.42 1.12 2.31 1.1s1.76-.48 2.26-1.2c.35-.5.52-1.11.94-1.56.29-.31.67-.51 1.07-.65.4-.13.82-.2 1.23-.27 2.01-.32 4.13-.57 6.04.1.67.24 1.31.59 2.01.74.35.07.72.08 1.07 0s.68-.26.9-.53c.27-.34.36-.8.31-1.23-.05-.42-.22-.83-.42-1.22-.41-.83-.95-1.61-1.15-2.51-.14-.66-.09-1.35.07-2.01.24-.98.7-1.89 1.04-2.84s.54-2 .25-2.97c-.06-.22-.17-.42-.31-.61l-.52-.71c-1.33-.48-2.74-.77-4.16-.85-.36-.02-.72-.03-1.08-.02-1.08.01-2.17.11-3.24.22m6.42 3.05c.57.72-1.39 1.77-2.12 2.33-1.38 1.06-3.51.29-4.42-1.2-.48-.79 1.91-1.9 2.8-1.93.58-.01 1.12-.08 1.61-.09.83-.02 1.54.12 2.13.89"/></svg>