<svg xmlns="http://www.w3.org/2000/svg" width="50" height="50" fill="none" viewBox="0 0 50 50"><path fill="#2d4a60" d="M47.504 15.128a9.1 9.1 0 0 0-2.683-4.613 9.44 9.44 0 0 0-4.851-2.381 9.56 9.56 0 0 0-5.388.651 9.3 9.3 0 0 0-4.111 3.465H19.529a9.3 9.3 0 0 0-4.111-3.465 9.56 9.56 0 0 0-5.388-.651 9.44 9.44 0 0 0-4.851 2.381 9.1 9.1 0 0 0-2.683 4.613C.427 24.052-3.226 39.799 5.905 41.823c4.911 1.088 8.235-2.97 10.583-8.34.12.006.238.017.36.017a7.2 7.2 0 0 0 2.768-.553 7.05 7.05 0 0 0 2.323-1.572h6.122a7 7 0 0 0 2.323 1.572 7.2 7.2 0 0 0 2.768.553c.121 0 .24-.012.36-.018 2.347 5.37 5.672 9.428 10.583 8.34 9.13-2.023 5.478-17.77 3.41-26.694"/><path fill="#eaeff0" d="M14.674 15.436h-1.63v-1.592c0-.423-.171-.828-.477-1.127a1.65 1.65 0 0 0-1.153-.467 1.65 1.65 0 0 0-1.153.467 1.58 1.58 0 0 0-.477 1.127v1.592H8.155a1.65 1.65 0 0 0-1.153.467 1.58 1.58 0 0 0-.477 1.127c0 .423.171.828.477 1.127s.72.467 1.153.467h1.629v1.593c0 .422.172.828.477 1.127.306.298.72.466 1.153.466a1.65 1.65 0 0 0 1.153-.466c.306-.3.478-.705.478-1.128v-1.592h1.629a1.65 1.65 0 0 0 1.153-.467c.306-.299.477-.704.477-1.127s-.171-.828-.477-1.127a1.65 1.65 0 0 0-1.153-.467"/><path fill="#bac2c6" d="M15.216 18.094h-2.172v.53h1.63c.28 0 .554-.072.797-.206s.446-.328.59-.561a1.64 1.64 0 0 1-.845.237m-4.89-2.656v-2.124c.001-.292.085-.578.243-.827-.24.141-.437.34-.575.578a1.56 1.56 0 0 0-.21.779v1.594zm1.63 5.842a1.65 1.65 0 0 1-1.152-.467 1.58 1.58 0 0 1-.478-1.126v-1.593H8.697a1.65 1.65 0 0 1-.824-.216 1.6 1.6 0 0 1-.599-.595 1.56 1.56 0 0 1 .036-1.61 1.6 1.6 0 0 0-.671.776c-.131.323-.15.679-.054 1.014s.301.63.585.839c.283.21.63.323.985.322h1.629v1.593c-.001.347.115.685.33.963.213.277.515.477.857.571.343.094.707.076 1.038-.052.33-.128.609-.358.793-.656a1.64 1.64 0 0 1-.845.237"/><path fill="#00cf66" d="M38.587 15.438c.9 0 1.63-.714 1.63-1.594s-.73-1.594-1.63-1.594-1.63.714-1.63 1.594.73 1.594 1.63 1.594"/><path fill="#009ae0" d="M38.587 21.813c.9 0 1.63-.714 1.63-1.594s-.73-1.594-1.63-1.594-1.63.714-1.63 1.594.73 1.593 1.63 1.593"/><path fill="#fd3730" d="M41.847 18.625c.9 0 1.63-.713 1.63-1.594 0-.88-.73-1.593-1.63-1.593s-1.63.713-1.63 1.593.73 1.594 1.63 1.594"/><path fill="#fac100" d="M35.326 18.625c.9 0 1.63-.713 1.63-1.594 0-.88-.73-1.593-1.63-1.593s-1.63.713-1.63 1.593.73 1.594 1.63 1.594"/><path fill="#00b157" d="M39.13 14.907a1.65 1.65 0 0 1-.824-.216 1.6 1.6 0 0 1-.599-.595 1.56 1.56 0 0 1 .035-1.609 1.6 1.6 0 0 0-.525.497 1.57 1.57 0 0 0-.172 1.382c.08.229.213.436.387.606s.387.3.62.379a1.66 1.66 0 0 0 1.414-.168c.207-.131.381-.307.509-.513a1.64 1.64 0 0 1-.845.236"/><path fill="#0081bd" d="M39.13 21.281a1.65 1.65 0 0 1-.824-.215 1.6 1.6 0 0 1-.599-.595 1.56 1.56 0 0 1 .035-1.61 1.6 1.6 0 0 0-.525.498 1.57 1.57 0 0 0-.172 1.382c.08.228.213.436.387.606s.387.3.62.379a1.66 1.66 0 0 0 1.414-.168c.207-.131.381-.307.509-.513a1.64 1.64 0 0 1-.845.236"/><path fill="#d3241f" d="M42.39 18.094a1.65 1.65 0 0 1-.824-.216 1.6 1.6 0 0 1-.598-.594 1.56 1.56 0 0 1 .035-1.61 1.6 1.6 0 0 0-.525.498 1.57 1.57 0 0 0-.172 1.382c.08.228.213.435.387.606s.387.3.62.378a1.66 1.66 0 0 0 1.414-.168c.207-.13.381-.306.509-.513a1.64 1.64 0 0 1-.845.237"/><path fill="#ff9500" d="M35.87 18.094a1.65 1.65 0 0 1-.825-.216 1.6 1.6 0 0 1-.599-.594 1.56 1.56 0 0 1 .035-1.61 1.6 1.6 0 0 0-.525.498 1.57 1.57 0 0 0-.172 1.382c.08.228.213.435.388.606a1.662 1.662 0 0 0 2.034.21c.207-.13.38-.306.508-.513a1.64 1.64 0 0 1-.845.237"/><path fill="#8fa5a5" d="M16.848 30.312c2.1 0 3.804-1.665 3.804-3.718s-1.703-3.719-3.804-3.719-3.804 1.665-3.804 3.719 1.703 3.718 3.804 3.718"/><path fill="#7b8c8c" d="M16.848 30.312c2.1 0 3.804-1.665 3.804-3.718s-1.703-3.719-3.804-3.719-3.804 1.665-3.804 3.719 1.703 3.718 3.804 3.718M33.152 30.312c2.101 0 3.804-1.665 3.804-3.718s-1.703-3.719-3.804-3.719-3.804 1.665-3.804 3.719 1.703 3.718 3.804 3.718"/><path fill="#8fa5a5" d="M17.935 27.125c.9 0 1.63-.714 1.63-1.594s-.73-1.593-1.63-1.593-1.63.713-1.63 1.593.73 1.594 1.63 1.594M34.239 27.125c.9 0 1.63-.714 1.63-1.594s-.73-1.593-1.63-1.593-1.63.713-1.63 1.593.73 1.594 1.63 1.594"/><path fill="#eaeff0" d="M23.37 19.688h-3.261c-.3 0-.544.237-.544.53v1.063c0 .294.243.532.544.532h3.26c.3 0 .544-.238.544-.532V20.22a.537.537 0 0 0-.543-.531M29.891 19.688h-3.26c-.3 0-.544.237-.544.53v1.063c0 .294.243.532.543.532h3.261c.3 0 .544-.238.544-.532V20.22a.537.537 0 0 0-.544-.531"/><path fill="#bac2c6" d="M20.109 21.281V20.22c0-.141.057-.276.159-.376a.55.55 0 0 1 .384-.155h-.543a.55.55 0 0 0-.385.155.53.53 0 0 0-.159.376v1.062c0 .141.057.276.16.376.101.1.24.155.384.155h.543a.55.55 0 0 1-.384-.155.53.53 0 0 1-.16-.376m6.521 0V20.22c0-.141.058-.276.16-.376a.55.55 0 0 1 .384-.155h-.544a.56.56 0 0 0-.384.155.53.53 0 0 0-.16.376v1.062c0 .141.058.276.16.376s.24.155.384.155h.544a.55.55 0 0 1-.384-.155.53.53 0 0 1-.16-.376"/></svg>