<svg xmlns="http://www.w3.org/2000/svg" width="50" height="50" fill="none" viewBox="0 0 50 50"><path fill="#495a79" d="M47.861 7.5 42.5 2.139a7.23 7.23 0 0 0-4.219-2.08C37.96.028 37.637 0 37.314 0H4.394A4.39 4.39 0 0 0 0 4.395v41.113a4.39 4.39 0 0 0 4.395 4.394h41.21A4.39 4.39 0 0 0 50 45.508V12.685A7.3 7.3 0 0 0 47.861 7.5"/><path fill="#42516d" d="M50 12.685v32.823a4.39 4.39 0 0 1-4.395 4.394H25V0h12.314c.323 0 .645.03.967.058a7.23 7.23 0 0 1 4.219 2.08L47.861 7.5A7.3 7.3 0 0 1 50 12.685"/><path fill="#5af1ff" d="M39.746 23.535H10.254c-.81 0-1.465.656-1.465 1.465v7.422h32.422V25c0-.81-.656-1.465-1.465-1.465"/><path fill="#51dae6" d="M39.746 23.535H25v8.887h16.21V25c0-.81-.655-1.465-1.464-1.465"/><path fill="#d9e1f2" d="M8.79 29.492h32.42V50H8.79z"/><path fill="#c3cde6" d="M25 29.492h16.21V50H25z"/><path fill="#dbe2f2" d="M38.223 0H11.719v16.113c0 .81.656 1.465 1.465 1.465h23.632c.81 0 1.465-.656 1.465-1.465V.058z"/><path fill="#cfd6e6" d="M25 0v17.578h11.816c.81 0 1.465-.656 1.465-1.465V.058L38.223 0z"/><path fill="#495a79" d="M32.422 14.648h-8.887V0h8.887z"/><path fill="#42516d" d="M25 0h7.422v14.648H25z"/><path fill="#949fb3" d="M33.887 44.14H16.113a1.464 1.464 0 1 1 0-2.93h17.774a1.464 1.464 0 1 1 0 2.93"/><path fill="#8a94a8" d="M33.887 41.21H25v2.93h8.887a1.464 1.464 0 1 0 0-2.93"/><path fill="#949fb3" d="M33.887 38.281H16.113a1.464 1.464 0 1 1 0-2.93h17.774a1.464 1.464 0 1 1 0 2.93"/><path fill="#8a94a8" d="M33.887 35.352H25v2.93h8.887a1.464 1.464 0 1 0 0-2.93"/><path fill="#38454f" d="M25 36.573h8.117c1.461 0 2.875.513 3.985 1.446l7.843 6.596c.525.441 1.293.517 1.877.154 8.16-5.064-1.738-25.05-3.7-28.68-.207-.384-.55-2.473-.967-2.623l-6.596-2.351a1.97 1.97 0 0 0-1.733.203s-1.86 1.166-2.276 1.166H18.684c-.417 0-2.51-1.166-2.51-1.166a1.96 1.96 0 0 0-1.733-.203l-6.596 2.351c-.418.15-.76 2.239-.968 2.624C4.916 19.718-4.98 39.705 3.178 44.77c.585.361 1.353.286 1.877-.155l7.843-6.596a6.2 6.2 0 0 1 3.985-1.447z"/><path fill="#546a79" d="M31.609 32.36c1.898 0 3.437-1.51 3.437-3.372s-1.54-3.37-3.437-3.37c-1.899 0-3.437 1.509-3.437 3.37s1.538 3.371 3.437 3.371M11.846 23.932c1.898 0 3.437-1.509 3.437-3.37s-1.54-3.371-3.437-3.371c-1.899 0-3.437 1.51-3.437 3.37 0 1.862 1.538 3.371 3.437 3.371"/><path fill="#ebba16" d="M37.623 18.876c.95 0 1.719-.754 1.719-1.685 0-.93-.77-1.685-1.719-1.685s-1.718.754-1.718 1.685c0 .93.77 1.685 1.718 1.685"/><path fill="#7383bf" d="M34.186 22.247c.95 0 1.719-.755 1.719-1.685 0-.931-.77-1.686-1.719-1.686s-1.718.755-1.718 1.686.77 1.685 1.718 1.685"/><path fill="#d75a4a" d="M41.06 22.247c.95 0 1.719-.755 1.719-1.685 0-.931-.77-1.686-1.719-1.686s-1.718.755-1.718 1.686.77 1.685 1.718 1.685"/><path fill="#61b872" d="M37.623 25.618c.95 0 1.719-.755 1.719-1.686s-.77-1.685-1.719-1.685-1.718.755-1.718 1.685c0 .931.77 1.686 1.718 1.686"/><path fill="#afb6bb" d="M27.312 13.352q0-.243-.046-.473a.9.9 0 0 0-.185-.395h-2.13c-.073.006-.142.025-.216.025s-.143-.018-.215-.025h-2.14a.8.8 0 0 0-.164.337 2.48 2.48 0 0 0 .732 2.352 2.61 2.61 0 0 0 3.441.117c.29-.237.522-.534.681-.869s.242-.7.242-1.07"/><path fill="#546a79" d="M23.446 27.01h-2.824v-2.768a.6.6 0 0 0-.18-.426.62.62 0 0 0-.433-.176h-2.21a.62.62 0 0 0-.433.176.6.6 0 0 0-.18.426v2.769h-2.824a.62.62 0 0 0-.434.176.6.6 0 0 0-.18.425v2.167c0 .333.276.602.614.602h2.823v2.769c0 .332.275.601.614.601h2.209c.339 0 .613-.27.613-.601v-2.77h2.824c.34 0 .613-.27.613-.601v-2.167a.6.6 0 0 0-.179-.425.61.61 0 0 0-.434-.176"/></svg>