<svg xmlns="http://www.w3.org/2000/svg" width="50" height="50" fill="none" viewBox="0 0 50 50"><path fill="#72caaf" d="M32.897 3.786 8.963 45.774.625 32.071 16.93 3.786z"/><path fill="#5dbc9d" d="m21.064 5.357-17.75 31.13-2.69-4.416L16.93 3.786z"/><path fill="#f6d397" d="M17.19 3.786 33.158 32.07h16.306L33.156 3.786z"/><path fill="#f5c872" d="m17.19 3.786 18.397 32.253 4.41-3.968L23.69 3.786z"/><path fill="#85cbf8" d="M49.463 32.071H17.12L9.23 46.214h31.554z"/><path fill="#7bbeeb" d="M40.785 46.214H8.442l2.367-5.5H43.94z"/><path fill="#8d6c9f" d="M49.7 30.9 34.3 4.187A2.36 2.36 0 0 0 32.243 3H17.774a2.37 2.37 0 0 0-2.05 1.186L.316 30.901a2.35 2.35 0 0 0 0 2.357L7.56 45.829A2.36 2.36 0 0 0 9.618 47h30.765a2.37 2.37 0 0 0 2.05-1.187l7.243-12.57a2.35 2.35 0 0 0 .023-2.342M4.27 36.944a.79.79 0 0 0 .477-.622.78.78 0 0 0-.391-.785l-1.349-.785-1.317-2.287a.78.78 0 0 1 0-.785L16.86 5.357l1.23 2.137a.8.8 0 0 0-.402.33.784.784 0 0 0 .291 1.077l1.365.785 4.733 8.235L8.703 44.643zm27.53-5.657H18.216L25.008 19.5zm16.566 1.178-7.242 12.572a.79.79 0 0 1-.686.392h-30.37l7.24-12.57h21.9a.79.79 0 0 0 .788-.787.784.784 0 0 0-.789-.785h-5.593L18.217 4.57h14.026a.79.79 0 0 1 .686.393L48.327 31.68a.78.78 0 0 1 0 .785z"/><path fill="#8d6c9f" d="M45.518 31.286h-3.155a.79.79 0 0 0-.789.785.784.784 0 0 0 .789.786h3.155a.79.79 0 0 0 .79-.786.784.784 0 0 0-.79-.785m-35.435-8.769 1.365.786a.79.79 0 0 0 1.18-.882.79.79 0 0 0-.391-.477l-1.365-.786a.792.792 0 0 0-1.206.568.78.78 0 0 0 .417.791m1.972-3.402 1.365.786a.79.79 0 0 0 1.18-.882.78.78 0 0 0-.391-.478l-1.365-.785a.792.792 0 0 0-1.206.568.78.78 0 0 0 .417.791m1.972-3.402 1.365.786a.792.792 0 0 0 1.206-.569.78.78 0 0 0-.417-.79l-1.365-.786a.79.79 0 0 0-1.18.882.79.79 0 0 0 .391.477M16 12.31l1.365.785a.79.79 0 0 0 1.181-.882.79.79 0 0 0-.392-.477l-1.365-.786a.792.792 0 0 0-1.206.569.78.78 0 0 0 .417.79M6.336 32.142l-1.365-.786a.792.792 0 0 0-1.206.569.78.78 0 0 0 .417.79l1.365.786a.79.79 0 0 0 1.049-.303.783.783 0 0 0-.26-1.056m1.972-3.402-1.365-.786a.79.79 0 0 0-1.048.303.783.783 0 0 0 .26 1.057l1.364.785a.792.792 0 0 0 1.207-.568.78.78 0 0 0-.418-.791m-.181-2.829 1.364.786a.79.79 0 0 0 1.049-.303.783.783 0 0 0-.26-1.056l-1.364-.786a.792.792 0 0 0-1.207.569.78.78 0 0 0 .418.79"/></svg>