<svg xmlns="http://www.w3.org/2000/svg" width="50" height="50" fill="none" viewBox="0 0 50 50"><path fill="url(#a)" d="M48.427 10.205h-4.512l1.006-4.309c.225-.967-.527-1.886-1.533-1.886h-6.777c-.732 0-1.377.498-1.533 1.197l-1.162 4.998H23.008l1.006-4.319C24.238 4.92 23.486 4 22.48 4h-6.778c-.732 0-1.376.498-1.533 1.197L13 10.205H7.755c-.733 0-1.377.498-1.534 1.197l-1.533 6.502c-.224.967.528 1.887 1.533 1.887h4.522L8.32 30.219H3.087c-.733 0-1.377.498-1.533 1.197L.04 37.908c-.225.968.527 1.887 1.533 1.887h4.512l-1.006 4.309c-.225.967.527 1.886 1.533 1.886h6.777c.732 0 1.377-.498 1.533-1.197l1.162-4.998h10.908l-1.006 4.319c-.224.967.528 1.886 1.533 1.886h6.778c.732 0 1.377-.498 1.533-1.197l1.172-5.008h5.243c.733 0 1.377-.498 1.534-1.197l1.503-6.483c.225-.967-.527-1.887-1.533-1.887h-4.521L41.66 19.8h5.234c.732 0 1.377-.498 1.533-1.197l1.504-6.483c.254-.995-.498-1.915-1.504-1.915M29.238 30.21H18.33l2.432-10.428H31.67z"/><path fill="url(#b)" d="M22.988 10.215h-10.01v.01H7.736c-.732 0-1.377.497-1.533 1.196l-1.514 6.483c-.224.967.528 1.887 1.533 1.887H31.66l2.226-9.576z"/><path fill="url(#c)" d="M10.743 19.79 8.32 30.22l-2.227 9.576-1.005 4.309c-.225.967.527 1.886 1.533 1.886h6.777c.732 0 1.377-.498 1.533-1.197l1.162-4.998 2.226-9.576 2.432-10.428z"/><path fill="url(#d)" d="M20.762 19.79h-10.02L8.322 30.22h10.01z"/><path fill="url(#e)" d="M23.994 5.896c.225-.967-.527-1.886-1.533-1.886h-6.777c-.732 0-1.377.498-1.533 1.197l-1.172 5.008h10.01z"/><path fill="url(#f)" d="M23.994 5.896c.225-.967-.527-1.886-1.533-1.886h-6.777c-.732 0-1.377.498-1.533 1.197l-1.172 5.008h10.01z"/><path fill="url(#g)" d="M27.012 39.785h10.01v-.01h5.243c.732 0 1.377-.497 1.533-1.196l1.504-6.483c.215-.93-.469-1.81-1.416-1.887H18.32l-2.226 9.576z"/><path fill="url(#h)" d="m18.33 30.219-2.226 9.566h10.908l2.226-9.576z"/><path fill="url(#i)" d="M3.087 30.229c-.733 0-1.377.497-1.533 1.196L.04 37.908c-.225.968.527 1.887 1.533 1.887h4.512l2.226-9.576z"/><path fill="url(#j)" d="m6.085 39.785-1.006 4.319c-.225.967.527 1.886 1.533 1.886h6.777c.732 0 1.377-.498 1.533-1.197l1.162-4.998z"/><path fill="url(#k)" d="m43.798 38.579 1.504-6.483c.215-.93-.469-1.81-1.416-1.887h-4.638l-2.227 9.567h5.244a1.57 1.57 0 0 0 1.533-1.197"/><path fill="url(#l)" d="M25.928 39.785h1.084l-1.006 4.319c-.225.967.527 1.886 1.533 1.886h6.777c.732 0 1.377-.498 1.533-1.197l1.172-5.008z"/><path fill="url(#m)" d="M25.928 39.785h1.084l-1.006 4.319c-.225.967.527 1.886 1.533 1.886h6.777c.732 0 1.377-.498 1.533-1.197l1.172-5.008z"/><path fill="url(#n)" d="M25.928 39.785h1.084l-1.006 4.319c-.225.967.527 1.886 1.533 1.886h6.777c.732 0 1.377-.498 1.533-1.197l1.172-5.008z"/><path fill="url(#o)" d="m43.915 10.205 1.006-4.309c.225-.967-.527-1.886-1.533-1.886h-6.777c-.732 0-1.377.498-1.533 1.197l-1.162 4.998-2.227 9.576-2.431 10.428h10.01l.009-.01h-.02l2.432-10.428z"/><path fill="url(#p)" d="m29.238 30.21 10.01.009 2.431-10.438H31.67z"/><path fill="url(#q)" d="M48.427 10.205h-4.512l-2.226 9.576h5.234c.733 0 1.377-.498 1.533-1.197l1.504-6.483c.225-.977-.527-1.896-1.533-1.896"/><path fill="url(#r)" d="M48.427 10.205h-4.512l-2.226 9.576h5.234c.733 0 1.377-.498 1.533-1.197l1.504-6.483c.225-.977-.527-1.896-1.533-1.896"/><path fill="url(#s)" d="M48.427 10.205h-4.512l-2.226 9.576h5.234c.733 0 1.377-.498 1.533-1.197l1.504-6.483c.225-.977-.527-1.896-1.533-1.896"/><path fill="url(#t)" d="m31.67 19.781 2.226-9.566H22.988l-2.226 9.576z"/><defs><linearGradient id="a" x1="2.855" x2="40.599" y1="3.284" y2="41.775" gradientUnits="userSpaceOnUse"><stop stop-color="#ff4565"/><stop offset=".27" stop-color="#fa4362"/><stop offset=".55" stop-color="#ee3d5a"/><stop offset=".834" stop-color="#d9344d"/><stop offset="1" stop-color="#ca2e43"/></linearGradient><linearGradient id="b" x1="19.277" x2="19.277" y1="15.289" y2="21.229" gradientUnits="userSpaceOnUse"><stop stop-color="#6d3326" stop-opacity="0"/><stop offset=".241" stop-color="#6a3124" stop-opacity=".063"/><stop offset=".492" stop-color="#622e1f" stop-opacity=".252"/><stop offset=".746" stop-color="#542816" stop-opacity=".565"/><stop offset="1" stop-color="#42210b"/></linearGradient><linearGradient id="c" x1="13.104" x2="18.682" y1="32.788" y2="33.961" gradientUnits="userSpaceOnUse"><stop stop-color="#6d3326" stop-opacity="0"/><stop offset=".241" stop-color="#6a3124" stop-opacity=".063"/><stop offset=".492" stop-color="#622e1f" stop-opacity=".252"/><stop offset=".746" stop-color="#542816" stop-opacity=".565"/><stop offset="1" stop-color="#42210b"/></linearGradient><linearGradient id="d" x1="14.538" x2="14.538" y1="23.535" y2="19.117" gradientUnits="userSpaceOnUse"><stop stop-color="#6d3326" stop-opacity="0"/><stop offset=".241" stop-color="#6a3124" stop-opacity=".063"/><stop offset=".492" stop-color="#622e1f" stop-opacity=".252"/><stop offset=".746" stop-color="#542816" stop-opacity=".565"/><stop offset="1" stop-color="#42210b"/></linearGradient><linearGradient id="e" x1="18.736" x2="24.831" y1="7.312" y2="8.66" gradientUnits="userSpaceOnUse"><stop stop-color="#6d3326" stop-opacity="0"/><stop offset=".241" stop-color="#6a3124" stop-opacity=".063"/><stop offset=".492" stop-color="#622e1f" stop-opacity=".252"/><stop offset=".746" stop-color="#542816" stop-opacity=".565"/><stop offset="1" stop-color="#42210b"/></linearGradient><linearGradient id="f" x1="18.507" x2="18.507" y1="8.003" y2="11.619" gradientUnits="userSpaceOnUse"><stop stop-color="#6d3326" stop-opacity="0"/><stop offset=".241" stop-color="#6a3124" stop-opacity=".063"/><stop offset=".492" stop-color="#622e1f" stop-opacity=".252"/><stop offset=".746" stop-color="#542816" stop-opacity=".565"/><stop offset="1" stop-color="#42210b"/></linearGradient><linearGradient id="g" x1="30.723" x2="30.723" y1="36.017" y2="40.99" gradientUnits="userSpaceOnUse"><stop stop-color="#6d3326" stop-opacity="0"/><stop offset=".241" stop-color="#6a3124" stop-opacity=".063"/><stop offset=".492" stop-color="#622e1f" stop-opacity=".252"/><stop offset=".746" stop-color="#542816" stop-opacity=".565"/><stop offset="1" stop-color="#42210b"/></linearGradient><linearGradient id="h" x1="21.902" x2="15.749" y1="34.846" y2="33.556" gradientUnits="userSpaceOnUse"><stop stop-color="#6d3326" stop-opacity="0"/><stop offset=".241" stop-color="#6a3124" stop-opacity=".063"/><stop offset=".492" stop-color="#622e1f" stop-opacity=".252"/><stop offset=".746" stop-color="#542816" stop-opacity=".565"/><stop offset="1" stop-color="#42210b"/></linearGradient><linearGradient id="i" x1="3.299" x2="7.838" y1="34.624" y2="35.796" gradientUnits="userSpaceOnUse"><stop stop-color="#6d3326" stop-opacity="0"/><stop offset=".241" stop-color="#6a3124" stop-opacity=".063"/><stop offset=".492" stop-color="#622e1f" stop-opacity=".252"/><stop offset=".746" stop-color="#542816" stop-opacity=".565"/><stop offset="1" stop-color="#42210b"/></linearGradient><linearGradient id="j" x1="10.571" x2="10.571" y1="43.755" y2="46.768" gradientUnits="userSpaceOnUse"><stop stop-color="#6d3326" stop-opacity="0"/><stop offset=".241" stop-color="#6a3124" stop-opacity=".063"/><stop offset=".492" stop-color="#622e1f" stop-opacity=".252"/><stop offset=".746" stop-color="#542816" stop-opacity=".565"/><stop offset="1" stop-color="#42210b"/></linearGradient><linearGradient id="k" x1="41.915" x2="45.133" y1="35.343" y2="36.163" gradientUnits="userSpaceOnUse"><stop stop-color="#6d3326" stop-opacity="0"/><stop offset=".241" stop-color="#6a3124" stop-opacity=".063"/><stop offset=".492" stop-color="#622e1f" stop-opacity=".252"/><stop offset=".746" stop-color="#542816" stop-opacity=".565"/><stop offset="1" stop-color="#42210b"/></linearGradient><linearGradient id="l" x1="31.476" x2="31.476" y1="43.699" y2="46.638" gradientUnits="userSpaceOnUse"><stop stop-color="#6d3326" stop-opacity="0"/><stop offset=".241" stop-color="#6a3124" stop-opacity=".063"/><stop offset=".492" stop-color="#622e1f" stop-opacity=".252"/><stop offset=".746" stop-color="#542816" stop-opacity=".565"/><stop offset="1" stop-color="#42210b"/></linearGradient><linearGradient id="m" x1="31.487" x2="36.942" y1="42.696" y2="44.277" gradientUnits="userSpaceOnUse"><stop stop-color="#6d3326" stop-opacity="0"/><stop offset=".241" stop-color="#6a3124" stop-opacity=".063"/><stop offset=".492" stop-color="#622e1f" stop-opacity=".252"/><stop offset=".746" stop-color="#542816" stop-opacity=".565"/><stop offset="1" stop-color="#42210b"/></linearGradient><linearGradient id="n" x1="31.476" x2="31.476" y1="43.303" y2="39.517" gradientUnits="userSpaceOnUse"><stop stop-color="#6d3326" stop-opacity="0"/><stop offset=".241" stop-color="#6a3124" stop-opacity=".063"/><stop offset=".492" stop-color="#622e1f" stop-opacity=".252"/><stop offset=".746" stop-color="#542816" stop-opacity=".565"/><stop offset="1" stop-color="#42210b"/></linearGradient><linearGradient id="o" x1="38.237" x2="43.237" y1="17.544" y2="18.774" gradientUnits="userSpaceOnUse"><stop stop-color="#6d3326" stop-opacity="0"/><stop offset=".241" stop-color="#6a3124" stop-opacity=".063"/><stop offset=".492" stop-color="#622e1f" stop-opacity=".252"/><stop offset=".746" stop-color="#542816" stop-opacity=".565"/><stop offset="1" stop-color="#42210b"/></linearGradient><linearGradient id="p" x1="35.462" x2="35.462" y1="26.924" y2="32.236" gradientUnits="userSpaceOnUse"><stop stop-color="#6d3326" stop-opacity="0"/><stop offset=".241" stop-color="#6a3124" stop-opacity=".063"/><stop offset=".492" stop-color="#622e1f" stop-opacity=".252"/><stop offset=".746" stop-color="#542816" stop-opacity=".565"/><stop offset="1" stop-color="#42210b"/></linearGradient><linearGradient id="q" x1="45.841" x2="45.841" y1="16.588" y2="20.383" gradientUnits="userSpaceOnUse"><stop stop-color="#6d3326" stop-opacity="0"/><stop offset=".241" stop-color="#6a3124" stop-opacity=".063"/><stop offset=".492" stop-color="#622e1f" stop-opacity=".252"/><stop offset=".746" stop-color="#542816" stop-opacity=".565"/><stop offset="1" stop-color="#42210b"/></linearGradient><linearGradient id="r" x1="45.828" x2="49.674" y1="15.184" y2="16.355" gradientUnits="userSpaceOnUse"><stop stop-color="#6d3326" stop-opacity="0"/><stop offset=".241" stop-color="#6a3124" stop-opacity=".063"/><stop offset=".492" stop-color="#622e1f" stop-opacity=".252"/><stop offset=".746" stop-color="#542816" stop-opacity=".565"/><stop offset="1" stop-color="#42210b"/></linearGradient><linearGradient id="s" x1="47.358" x2="42.238" y1="15.385" y2="14.447" gradientUnits="userSpaceOnUse"><stop stop-color="#6d3326" stop-opacity="0"/><stop offset=".241" stop-color="#6a3124" stop-opacity=".063"/><stop offset=".492" stop-color="#622e1f" stop-opacity=".252"/><stop offset=".746" stop-color="#542816" stop-opacity=".565"/><stop offset="1" stop-color="#42210b"/></linearGradient><linearGradient id="t" x1="28.506" x2="33.858" y1="15.173" y2="15.994" gradientUnits="userSpaceOnUse"><stop stop-color="#6d3326" stop-opacity="0"/><stop offset=".241" stop-color="#6a3124" stop-opacity=".063"/><stop offset=".492" stop-color="#622e1f" stop-opacity=".252"/><stop offset=".746" stop-color="#542816" stop-opacity=".565"/><stop offset="1" stop-color="#42210b"/></linearGradient></defs></svg>