<svg xmlns="http://www.w3.org/2000/svg" width="51" height="51" fill="none" viewBox="0 0 51 51"><path fill="#ffe2f7" d="M36.697.333H13.97C6.439.333.333 6.44.333 13.97v22.727c0 7.531 6.106 13.636 13.637 13.636h22.727c7.531 0 13.636-6.105 13.636-13.636V13.97c0-7.531-6.105-13.637-13.636-13.637"/><path fill="#ffd8f4" d="M41.952 42H8.715a.05.05 0 0 1-.048-.048V8.715c0-.027.023-.048.048-.048h33.237c.027 0 .047.023.047.048v33.237a.05.05 0 0 1-.047.047"/><path fill="#ea1e98" d="M8.667 18.042A1.04 1.04 0 0 1 7.624 17v-4.166a5.214 5.214 0 0 1 5.21-5.209h4.165a1.042 1.042 0 1 1 0 2.084h-4.166a3.13 3.13 0 0 0-3.125 3.125V17a1.04 1.04 0 0 1-1.04 1.043m33.332 0A1.04 1.04 0 0 1 40.96 17v-4.166a3.13 3.13 0 0 0-3.126-3.125h-4.166a1.042 1.042 0 1 1 0-2.084h4.166a5.214 5.214 0 0 1 5.21 5.21v4.165a1.04 1.04 0 0 1-1.044 1.043m-25 25h-4.166a5.214 5.214 0 0 1-5.209-5.209v-4.166a1.042 1.042 0 0 1 2.084 0v4.166a3.13 3.13 0 0 0 3.125 3.125H17a1.042 1.042 0 1 1 0 2.084m20.834 0h-4.166a1.042 1.042 0 1 1 0-2.084h4.166a3.13 3.13 0 0 0 3.125-3.125v-4.166a1.042 1.042 0 0 1 2.084 0v4.166a5.214 5.214 0 0 1-5.209 5.21M21.167 22.208a1.04 1.04 0 0 1-1.043-1.04v-2.085a1.042 1.042 0 0 1 2.084 0v2.084a1.04 1.04 0 0 1-1.04 1.041m8.332 0a1.04 1.04 0 0 1-1.04-1.04v-2.085a1.042 1.042 0 0 1 2.083 0v2.084a1.04 1.04 0 0 1-1.043 1.041m-4.166 12.5a7.3 7.3 0 0 1-7.29-7.29 1.041 1.041 0 0 1 2.081 0 5.213 5.213 0 0 0 5.21 5.206 5.214 5.214 0 0 0 5.208-5.207 1.041 1.041 0 0 1 2.082 0 7.3 7.3 0 0 1-7.29 7.291"/></svg>