<svg xmlns="http://www.w3.org/2000/svg" width="64" height="63" fill="none" viewBox="0 0 64 63"><g opacity=".783"><g filter="url(#a)"><path fill="#000" d="m27.52 8.174-18.388 18.8c-6.963 6.95 4.508 6.37 8.659 8.999 1.919 1.247-6.16 2.85-4.508 4.5 1.607 1.648 9.685 3.162 11.292 4.766 1.607 1.648-3.258 3.386-1.652 5.034 1.563 1.648 5.312.09 5.981 3.831.491 2.763 6.874 1.381 9.73-.98 1.785-1.514-3.08-1.514-1.473-3.163 4.017-4.054 7.587-1.826 9.06-5.568.804-2.005-6.07-3.43-4.24-4.723 4.374-3.074 20.442-4.633 13.033-12.028L35.956 8.174c-2.366-2.228-6.249-2.228-8.436 0m21.112 36.219c0 .935 7.275 1.47 6.873-.223-.58-2.851-6.07-2.629-6.873.223m-31.02 4.945c1.652 1.425 4.151-.312 4.954-2.317-1.606-2.094-7.542.134-4.954 2.317m30.127-2.985c-2.053 1.87.357 3.831 2.365 2.54.536-.357-.044-2.095-2.365-2.54"/></g><g filter="url(#b)" opacity=".576"><path fill="#000" d="m27.52 8.609-18.388 18.8c-6.963 6.95 4.508 6.37 8.659 8.999 1.919 1.247-6.16 2.851-4.508 4.5 1.607 1.648 9.685 3.162 11.292 4.766 1.607 1.648-3.258 3.386-1.652 5.034 1.563 1.648 5.312.09 5.981 3.831.491 2.762 6.874 1.381 9.73-.98 1.785-1.514-3.08-1.514-1.473-3.163 4.017-4.054 7.587-1.826 9.06-5.568.804-2.005-6.07-3.43-4.24-4.723 4.374-3.073 20.442-4.633 13.033-12.028L35.956 8.61c-2.366-2.227-6.249-2.227-8.436 0m21.112 36.219c0 .935 7.275 1.47 6.873-.223-.58-2.851-6.07-2.628-6.873.223m-31.02 4.945c1.652 1.425 4.151-.312 4.954-2.317-1.606-2.094-7.542.134-4.954 2.317m30.127-2.985c-2.053 1.87.357 3.831 2.365 2.54.536-.357-.044-2.095-2.365-2.54"/></g></g><path fill="#000" d="m27.52 7.739-18.388 18.8c-6.963 6.95 4.508 6.37 8.659 8.999 1.919 1.247-6.16 2.85-4.508 4.5 1.607 1.648 9.685 3.162 11.292 4.766 1.607 1.648-3.258 3.386-1.652 5.034 1.563 1.648 5.312.09 5.981 3.831.491 2.762 6.874 1.381 9.73-.98 1.785-1.514-3.08-1.514-1.473-3.163 4.017-4.054 7.587-1.826 9.06-5.568.804-2.005-6.07-3.43-4.24-4.723 4.374-3.074 20.442-4.633 13.033-12.028L35.956 7.739c-2.366-2.228-6.249-2.228-8.436 0m21.112 36.219c0 .935 7.275 1.47 6.873-.223-.58-2.851-6.07-2.629-6.873.223m-31.02 4.945c1.652 1.425 4.151-.312 4.954-2.317-1.606-2.094-7.542.134-4.954 2.317m30.127-2.985c-2.053 1.87.357 3.831 2.365 2.539.536-.356-.044-2.094-2.365-2.54"/><path fill="url(#c)" d="M10.768 27.58c-5 4.946 3.783 3.553 10.54 6.205L35.27 9.283c-2.117-2.158-4.82-1.978-6.756 0z" opacity=".505"/><path fill="url(#d)" d="m34.84 9.075 7.275 7.396c.67.668.67 2.049.268 2.45l-3.615-2.94-.714 4.32-2.99-1.603-4.866 3.074-1.606-6.46-2.589 5.614-6.472-.045c-1.25 0-1.07-1.292.224-2.584 2.544-2.807 7.498-7.573 9.06-9.222 1.607-1.648 4.418-1.603 6.025 0"/><path fill="url(#e)" fill-rule="evenodd" d="M24.855 44.01s.79 1.204.71 1.77c-.159 1.111-2.556 1.666-2.025 2.655.525.977 2.416.423 4.004 1.445 1.58 1.018 1.156 3.091 2.305 3.613 2.24 1.018 8.126-1.755 7.83-1.696-.295.06-5.808 1.203-7.049.2-1.415-1.144-1.82-1.942-2.864-2.618-.978-.634-2.352-.892-2.672-1.411s.64-1.188.707-2.188c.04-.6-.946-1.77-.946-1.77" clip-rule="evenodd" opacity=".217"/><g filter="url(#f)" opacity=".276"><path fill="url(#g)" fill-rule="evenodd" d="M24.855 44.01s.79 1.204.71 1.77c-.159 1.111-2.556 1.666-2.025 2.655.525.977 2.416.423 4.004 1.445 1.58 1.018 1.156 3.091 2.305 3.613 2.24 1.018 8.126-1.755 7.83-1.696-9.772.037-7.948-2.476-11.716-4.129-.544-.239-.229-.888-.162-1.888.04-.6-.946-1.77-.946-1.77" clip-rule="evenodd"/></g><path fill="url(#h)" fill-rule="evenodd" d="M41.462 38.879c8.77-3.222 11.589-3.665 14.479-6.548-3.348 2.82-10.425 4.333-16.193 6.843z" clip-rule="evenodd" opacity=".453"/><g filter="url(#i)" opacity=".512"><path fill="url(#j)" fill-rule="evenodd" d="M41.462 38.466c14.444-5.11 12.002-5.08 14.479-6.548-4.593 1.755-13.175 1.942-16.193 6.843z" clip-rule="evenodd"/></g><path fill="url(#k)" d="M54.08 42.55c0 .153-.198.3-.55.407-.352.108-.83.169-1.327.169-.498 0-.975-.06-1.327-.169-.352-.108-.55-.254-.55-.406s.198-.3.55-.407c.352-.108.83-.168 1.327-.168s.975.06 1.327.168.55.254.55.407" opacity=".286"/><g filter="url(#l)" opacity=".621"><path fill="url(#m)" d="M54.73 43.214c0 .329-.267.644-.74.876-.474.233-1.117.363-1.787.363s-1.313-.13-1.787-.363c-.473-.232-.74-.547-.74-.876s.267-.643.74-.876c.474-.232 1.117-.362 1.787-.362s1.313.13 1.786.362c.474.233.74.548.74.876"/></g><g filter="url(#n)"><path fill="url(#o)" fill-rule="evenodd" d="M48.76 43.903c.892.822 5.852 1.244 6.664-.236-1.593 1.129-5.134.732-6.664.236" clip-rule="evenodd"/></g><path fill="url(#p)" d="M48.778 46.647a.8.8 0 0 1 .081.271.7.7 0 0 1-.021.276.7.7 0 0 1-.121.238.62.62 0 0 1-.455.23.7.7 0 0 1-.264-.043.7.7 0 0 1-.235-.146.79.79 0 0 1-.231-.773.7.7 0 0 1 .12-.238.62.62 0 0 1 .455-.23.7.7 0 0 1 .264.044.7.7 0 0 1 .236.145q.106.097.171.226" opacity=".286"/><g filter="url(#q)" opacity=".621"><path fill="url(#r)" d="M49.13 46.806c.064.127.106.265.123.404.016.14.007.28-.028.41a1 1 0 0 1-.174.353.88.88 0 0 1-.663.336A1 1 0 0 1 48 48.24a1.1 1.1 0 0 1-.348-.22 1.2 1.2 0 0 1-.377-.742 1.1 1.1 0 0 1 .028-.41 1 1 0 0 1 .174-.353.88.88 0 0 1 .663-.336 1 1 0 0 1 .388.069q.19.075.347.22.157.144.255.338"/></g><g filter="url(#s)"><path fill="url(#t)" fill-rule="evenodd" d="M47.544 48.309c.716.56 3.41.63 2.388-.995.267 1.273-1.574 1.139-2.388.995" clip-rule="evenodd"/></g><path fill="url(#u)" fill-rule="evenodd" d="M14.277 39.882c0-.147 9.183 2.793 10.755 4.365-1.293-1.26-7.838-4.157-8.835-4.189-.996-.031-1.802-.118-1.92-.176" clip-rule="evenodd"/><path fill="url(#v)" d="M21.175 46.179c.036.106-.104.246-.388.389a5 5 0 0 1-1.127.372 5.4 5.4 0 0 1-1.205.139c-.335-.008-.543-.071-.579-.177-.036-.107.104-.246.388-.39.284-.142.69-.276 1.127-.372a5.4 5.4 0 0 1 1.206-.138c.334.007.542.07.578.177" opacity=".286"/><g filter="url(#w)" opacity=".621"><path fill="url(#x)" d="M21.902 46.515c.077.229-.083.5-.445.752-.362.253-.897.468-1.486.597-.589.13-1.184.162-1.655.092-.47-.07-.779-.239-.856-.467s.084-.5.445-.752c.363-.253.897-.468 1.486-.597.589-.13 1.184-.162 1.655-.092s.779.239.856.467"/></g><g filter="url(#y)" opacity=".616"><path fill="url(#z)" fill-rule="evenodd" d="M17.217 47.668s.497 1.333 1.861 1.401c1.38.068 2.956-1.653 3.088-2.271-.236.53-1.558 2.131-3.265 2.109-.97-.013-1.684-1.239-1.684-1.239" clip-rule="evenodd"/></g><g filter="url(#A)"><path stroke="url(#B)" stroke-width=".485" d="M31.674 6.723c-1.383 0-2.738.5-3.696 1.475L9.595 26.993c-1.68 1.677-2.084 2.775-1.98 3.396.051.311.204.58.53.864.325.282.817.56 1.408.807 1.183.495 2.775.895 4.338 1.323 1.562.428 3.093.88 4.254 1.614.177.116.343.257.46.46s.158.47.112.696c-.093.451-.371.69-.656.905-.568.431-1.35.79-2.134 1.17s-1.573.767-1.966 1.085c-.197.16-.268.302-.265.293.002-.01-.053-.122.042-.028.246.252 1.015.685 1.994 1.072.98.386 2.178.777 3.39 1.17 1.21.39 2.435.779 3.472 1.182 1.037.404 1.883.78 2.441 1.337.278.285.474.64.516 1.002.042.363-.056.703-.195.989-.278.57-.723 1.01-1.13 1.434s-.775.828-.906 1.1a.5.5 0 0 0-.07.278c.006.055.015.11.14.237l.013.014c.533.562 1.69.64 2.999.946.654.153 1.338.384 1.925.891.586.507 1.026 1.28 1.213 2.325.079.443.314.659.879.836s1.425.207 2.37.07c1.892-.276 4.134-1.202 5.426-2.27.08-.068.058-.05.084-.084a5 5 0 0 0-.627-.362c-.398-.198-.868-.383-1.228-.835a1.26 1.26 0 0 1-.25-.933c.051-.35.243-.64.501-.905 2.118-2.137 4.205-2.648 5.774-3.062.785-.208 1.442-.397 1.94-.71.497-.313.885-.742 1.213-1.574.036-.09.035-.116-.014-.222-.05-.107-.18-.277-.39-.46-.42-.365-1.121-.757-1.814-1.141-.693-.385-1.366-.743-1.855-1.198-.245-.227-.5-.513-.53-.946-.03-.434.256-.825.586-1.058 1.225-.861 3.078-1.517 5.09-2.214 2.014-.697 4.179-1.418 5.942-2.241 1.764-.824 3.06-1.773 3.473-2.729.206-.478.244-.962.028-1.587s-.71-1.39-1.59-2.27L35.51 8.213l-.014-.014c-1.053-.983-2.445-1.475-3.822-1.475Zm20.503 35.64c-1.176.041-2.258.579-2.72 1.42.131.048.25.104.46.152.614.141 1.471.232 2.316.25.844.02 1.689-.052 2.204-.194.225-.062.344-.126.404-.167-.114-.486-.386-.83-.85-1.086-.482-.266-1.142-.4-1.814-.376Zm-31.466 4.036c-.932-.064-2.105.306-2.678.766-.286.23-.407.443-.418.585-.01.142.034.33.418.654v.014c.604.521 1.287.467 2.065.042.652-.357 1.23-1.025 1.617-1.727a2.04 2.04 0 0 0-1.004-.334Zm27.226.279c-.2.253-.308.489-.32.654a.66.66 0 0 0 .222.57c.33.313 1.044.448 1.772.057a.9.9 0 0 0-.154-.376c-.223-.327-.745-.68-1.52-.905Z"/></g><g filter="url(#C)" opacity=".325"><path fill="url(#D)" fill-rule="evenodd" d="M21.595 36.155c-1.11.326-4.706 1.683-4.196 2.719.49.992 8.851 1.392 10.135 4.35.56 1.29-1.285 2.264-.818 3.59.36 1.021 3.141 3.587 4.9 4.8 1.381.952 3.194-.766 2.456-2.19-1.176-2.268 4.02-5.046 6.375-6.308 1.374-.736-2.834-4.351-2.834-4.351z" clip-rule="evenodd"/></g><path fill="url(#E)" fill-rule="evenodd" d="M22.005 37.156c.996.73 2.962.29 4.143.82 2.834 1.274 6.317 2.694 5.676.18l-.72.599-.015-1.14-1.674.409s-1.298-1.04-1.892-1.382c-.124-.072-.762.576-.762.576l-.115-.688a21 21 0 0 0-2.372-.121c-1.733.014-2.901.284-2.27.747" clip-rule="evenodd"/><g filter="url(#F)" opacity=".478"><path fill="url(#G)" fill-rule="evenodd" d="M40.61 39.472c-.383 1.41 4.714 3.324 4.332 4.296-.841 2.141-5.444.683-8.963 5.167-.504.642.708 2.937.545 2.665-.164-.272-1.41-2.168-1.09-3.1 1.001-2.925 10.682-4.016 8.908-5.411-1.02-.803-4.687-3.021-3.732-3.617" clip-rule="evenodd"/></g><path fill="#fff" d="M52.08 42.368c0 .061-.06.12-.164.163a1.1 1.1 0 0 1-.395.068c-.148 0-.29-.024-.395-.068-.105-.043-.164-.102-.164-.163s.06-.12.164-.163.247-.068.395-.068.29.024.395.068c.105.043.163.102.163.163M48.347 46.637c0 .061-.037.12-.104.163a.47.47 0 0 1-.25.068.47.47 0 0 1-.25-.068c-.067-.043-.104-.102-.104-.163s.037-.12.103-.163a.47.47 0 0 1 .25-.068c.095 0 .185.024.251.068.067.043.104.102.104.163M20.096 46.433c0 .061-.066.12-.183.164a1.3 1.3 0 0 1-.443.067c-.166 0-.326-.024-.443-.067-.118-.044-.184-.103-.184-.164s.066-.12.184-.163.276-.068.443-.068.325.024.443.068c.117.043.183.102.183.163" opacity=".586"/><path fill="url(#H)" d="M19.742 36.263c-3.192 1.971-8.156 2.689-2.724 3.998-.647-1.439 1.4-1.28 2.724-3.998" opacity=".251"/><g filter="url(#I)" opacity=".363"><path fill="url(#J)" d="M31.075 54.21s4.924-.463 6.063-1.88c.666-.83-2.648-1.798-1.933-2.611 2.692-3.058 4.954-2.93 8.075-4.21s1.97-1.908.96-2.47c-1.73-.963-5.577-1.989-4.304-4.274 1.28-2.3 12.498-5.493 12.498-5.493 3.399-1.159 2.972-3.255 1.307-5.003l-10.025-9.953s.497 9.44-1.526 13.488c-2.5 5.003-15.81 10.586-10.243 11.203 1.961.218 2.903.885 3.705 2.393 1.651 3.104-4.577 8.81-4.577 8.81"/></g><defs><filter id="a" width="53.202" height="52.332" x="5.337" y="4.902" color-interpolation-filters="sRGB" filterUnits="userSpaceOnUse"><feFlood flood-opacity="0" result="BackgroundImageFix"/><feBlend in="SourceGraphic" in2="BackgroundImageFix" result="shape"/><feGaussianBlur result="effect1_foregroundBlur_98_38" stdDeviation=".801"/></filter><filter id="b" width="63.877" height="63.007" x="0" y="0" color-interpolation-filters="sRGB" filterUnits="userSpaceOnUse"><feFlood flood-opacity="0" result="BackgroundImageFix"/><feBlend in="SourceGraphic" in2="BackgroundImageFix" result="shape"/><feGaussianBlur result="effect1_foregroundBlur_98_38" stdDeviation="3.469"/></filter><filter id="f" width="18.35" height="13.83" x="21.402" y="41.949" color-interpolation-filters="sRGB" filterUnits="userSpaceOnUse"><feFlood flood-opacity="0" result="BackgroundImageFix"/><feBlend in="SourceGraphic" in2="BackgroundImageFix" result="shape"/><feGaussianBlur result="effect1_foregroundBlur_98_38" stdDeviation="1.031"/></filter><filter id="i" width="20.656" height="11.306" x="37.516" y="29.686" color-interpolation-filters="sRGB" filterUnits="userSpaceOnUse"><feFlood flood-opacity="0" result="BackgroundImageFix"/><feBlend in="SourceGraphic" in2="BackgroundImageFix" result="shape"/><feGaussianBlur result="effect1_foregroundBlur_98_38" stdDeviation="1.116"/></filter><filter id="l" width="7.08" height="4.504" x="48.663" y="40.962" color-interpolation-filters="sRGB" filterUnits="userSpaceOnUse"><feFlood flood-opacity="0" result="BackgroundImageFix"/><feBlend in="SourceGraphic" in2="BackgroundImageFix" result="shape"/><feGaussianBlur result="effect1_foregroundBlur_98_38" stdDeviation=".507"/></filter><filter id="n" width="8.391" height="2.71" x="47.897" y="42.803" color-interpolation-filters="sRGB" filterUnits="userSpaceOnUse"><feFlood flood-opacity="0" result="BackgroundImageFix"/><feBlend in="SourceGraphic" in2="BackgroundImageFix" result="shape"/><feGaussianBlur result="effect1_foregroundBlur_98_38" stdDeviation=".432"/></filter><filter id="q" width="3.326" height="3.463" x="46.601" y="45.513" color-interpolation-filters="sRGB" filterUnits="userSpaceOnUse"><feFlood flood-opacity="0" result="BackgroundImageFix"/><feBlend in="SourceGraphic" in2="BackgroundImageFix" result="shape"/><feGaussianBlur result="effect1_foregroundBlur_98_38" stdDeviation=".333"/></filter><filter id="s" width="3.754" height="2.491" x="46.975" y="46.746" color-interpolation-filters="sRGB" filterUnits="userSpaceOnUse"><feFlood flood-opacity="0" result="BackgroundImageFix"/><feBlend in="SourceGraphic" in2="BackgroundImageFix" result="shape"/><feGaussianBlur result="effect1_foregroundBlur_98_38" stdDeviation=".284"/></filter><filter id="w" width="6.127" height="3.627" x="16.618" y="45.188" color-interpolation-filters="sRGB" filterUnits="userSpaceOnUse"><feFlood flood-opacity="0" result="BackgroundImageFix"/><feBlend in="SourceGraphic" in2="BackgroundImageFix" result="shape"/><feGaussianBlur result="effect1_foregroundBlur_98_38" stdDeviation=".412"/></filter><filter id="y" width="6.349" height="3.673" x="16.517" y="46.098" color-interpolation-filters="sRGB" filterUnits="userSpaceOnUse"><feFlood flood-opacity="0" result="BackgroundImageFix"/><feBlend in="SourceGraphic" in2="BackgroundImageFix" result="shape"/><feGaussianBlur result="effect1_foregroundBlur_98_38" stdDeviation=".35"/></filter><filter id="A" width="50.466" height="49.605" x="6.708" y="5.832" color-interpolation-filters="sRGB" filterUnits="userSpaceOnUse"><feFlood flood-opacity="0" result="BackgroundImageFix"/><feBlend in="SourceGraphic" in2="BackgroundImageFix" result="shape"/><feGaussianBlur result="effect1_foregroundBlur_98_38" stdDeviation=".324"/></filter><filter id="C" width="30.53" height="22.892" x="13.771" y="32.576" color-interpolation-filters="sRGB" filterUnits="userSpaceOnUse"><feFlood flood-opacity="0" result="BackgroundImageFix"/><feBlend in="SourceGraphic" in2="BackgroundImageFix" result="shape"/><feGaussianBlur result="effect1_foregroundBlur_98_38" stdDeviation="1.789"/></filter><filter id="F" width="11.989" height="14.559" x="34.177" y="38.267" color-interpolation-filters="sRGB" filterUnits="userSpaceOnUse"><feFlood flood-opacity="0" result="BackgroundImageFix"/><feBlend in="SourceGraphic" in2="BackgroundImageFix" result="shape"/><feGaussianBlur result="effect1_foregroundBlur_98_38" stdDeviation=".602"/></filter><filter id="I" width="29.779" height="41.271" x="27.91" y="15.628" color-interpolation-filters="sRGB" filterUnits="userSpaceOnUse"><feFlood flood-opacity="0" result="BackgroundImageFix"/><feBlend in="SourceGraphic" in2="BackgroundImageFix" result="shape"/><feGaussianBlur result="effect1_foregroundBlur_98_38" stdDeviation="1.344"/></filter><linearGradient id="c" x1="18.065" x2="29.304" y1="17.735" y2="28.995" gradientUnits="userSpaceOnUse"><stop stop-color="#fff"/><stop offset="1" stop-color="#fff" stop-opacity="0"/></linearGradient><linearGradient id="d" x1="30.154" x2="43.519" y1="11.08" y2="24.47" gradientUnits="userSpaceOnUse"><stop stop-color="#fff"/><stop offset="1" stop-color="#fff" stop-opacity="0"/></linearGradient><linearGradient id="k" x1="52.602" x2="52.631" y1="41.636" y2="43.126" gradientUnits="userSpaceOnUse"><stop stop-color="#fff"/><stop offset="1" stop-color="#fff" stop-opacity="0"/></linearGradient><linearGradient id="m" x1="52.661" x2="52.661" y1="41.465" y2="43.727" gradientUnits="userSpaceOnUse"><stop stop-color="#fff"/><stop offset="1" stop-color="#fff" stop-opacity="0"/></linearGradient><linearGradient id="p" x1="47.924" x2="48.657" y1="46.054" y2="47.35" gradientUnits="userSpaceOnUse"><stop stop-color="#fff"/><stop offset="1" stop-color="#fff" stop-opacity="0"/></linearGradient><linearGradient id="r" x1="47.648" x2="48.67" y1="45.595" y2="47.614" gradientUnits="userSpaceOnUse"><stop stop-color="#fff"/><stop offset="1" stop-color="#fff" stop-opacity="0"/></linearGradient><linearGradient id="v" x1="19.662" x2="19.912" y1="45.827" y2="46.887" gradientUnits="userSpaceOnUse"><stop stop-color="#fff"/><stop offset="1" stop-color="#fff" stop-opacity="0"/></linearGradient><linearGradient id="x" x1="19.674" x2="20.027" y1="45.697" y2="47.309" gradientUnits="userSpaceOnUse"><stop stop-color="#fff"/><stop offset="1" stop-color="#fff" stop-opacity="0"/></linearGradient><linearGradient id="D" x1="21.595" x2="34.232" y1="44.022" y2="47.369" gradientUnits="userSpaceOnUse"><stop stop-color="#fff"/><stop offset="1" stop-color="#fff" stop-opacity="0"/></linearGradient><linearGradient id="E" x1="28.295" x2="26.88" y1="36.352" y2="39.601" gradientUnits="userSpaceOnUse"><stop stop-color="#eeeeec"/><stop offset="1" stop-color="#eeeeec" stop-opacity="0"/></linearGradient><linearGradient id="H" x1="16.909" x2="18.895" y1="37.46" y2="39.041" gradientUnits="userSpaceOnUse"><stop stop-color="#fff"/><stop offset="1" stop-color="#fff" stop-opacity="0"/></linearGradient><linearGradient id="J" x1="40.188" x2="34.298" y1="46.053" y2="30.165" gradientUnits="userSpaceOnUse"><stop stop-color="#729fcf"/><stop offset="1" stop-color="#729fcf" stop-opacity="0"/></linearGradient><radialGradient id="e" cx="0" cy="0" r="1" gradientTransform="matrix(11.3571 0 0 7.58786 23.463 52.996)" gradientUnits="userSpaceOnUse"><stop stop-color="#fff"/><stop offset="1" stop-color="#fff" stop-opacity="0"/></radialGradient><radialGradient id="g" cx="0" cy="0" r="1" gradientTransform="matrix(14.4906 0 0 9.68146 29.452 53.268)" gradientUnits="userSpaceOnUse"><stop stop-color="#fff"/><stop offset="1" stop-color="#fff" stop-opacity="0"/></radialGradient><radialGradient id="h" cx="0" cy="0" r="1" gradientTransform="matrix(8.09649 0 0 3.42135 47.844 35.752)" gradientUnits="userSpaceOnUse"><stop stop-color="#fff"/><stop offset="1" stop-color="#fff" stop-opacity="0"/></radialGradient><radialGradient id="j" cx="0" cy="0" r="1" gradientTransform="matrix(8.09649 0 0 3.42135 49.558 36.696)" gradientUnits="userSpaceOnUse"><stop stop-color="#fff"/><stop offset="1" stop-color="#fff" stop-opacity="0"/></radialGradient><radialGradient id="o" cx="0" cy="0" r="1" gradientTransform="matrix(3.33168 0 0 .49133 52.092 44.158)" gradientUnits="userSpaceOnUse"><stop stop-color="#fff"/><stop offset="1" stop-color="#fff" stop-opacity="0"/></radialGradient><radialGradient id="t" cx="0" cy="0" r="1" gradientTransform="matrix(1.28481 -.65022 .2226 .43822 48.87 48.403)" gradientUnits="userSpaceOnUse"><stop stop-color="#fff"/><stop offset="1" stop-color="#fff" stop-opacity="0"/></radialGradient><radialGradient id="u" cx="0" cy="0" r="1" gradientTransform="matrix(5.37796 0 0 2.18522 19.389 41.353)" gradientUnits="userSpaceOnUse"><stop stop-color="#fff" stop-opacity=".33"/><stop offset="1" stop-color="#fff" stop-opacity="0"/></radialGradient><radialGradient id="z" cx="0" cy="0" r="1" gradientTransform="matrix(2.93276 -.8111 .30404 1.09526 19.529 48.981)" gradientUnits="userSpaceOnUse"><stop stop-color="#fff"/><stop offset="1" stop-color="#fff" stop-opacity="0"/></radialGradient><radialGradient id="B" cx="0" cy="0" r="1" gradientTransform="matrix(42.1085 0 0 41.3671 33.903 11.926)" gradientUnits="userSpaceOnUse"><stop stop-color="#fff"/><stop offset="1" stop-color="#fff" stop-opacity="0"/></radialGradient><radialGradient id="G" cx="0" cy="0" r="1" gradientTransform="matrix(6.61757 0 0 8.39427 40.278 45.411)" gradientUnits="userSpaceOnUse"><stop stop-color="#fff"/><stop offset="1" stop-color="#fff" stop-opacity="0"/></radialGradient></defs></svg>