<svg xmlns="http://www.w3.org/2000/svg" width="50" height="50" fill="none" viewBox="0 0 50 50"><path fill="url(#a)" d="M48 19.472c0 10.317-10.67 21.943-18.304 29.737-7.307-7.459-18.303-19.42-18.303-29.737C11.393 9.154 19.587.79 29.696.79s18.303 8.364 18.303 18.682"/><path fill="#000" d="M11.422 19.21q-.03.523-.03 1.053C11.393 30.58 22.39 42.542 29.697 50 37.331 42.207 48 30.58 48 20.263q0-.527-.03-1.047c-.608 10.08-10.868 21.247-18.274 28.805-7.09-7.236-17.652-18.71-18.274-28.81z" opacity=".3"/><path fill="#fff" d="M29.696 0C19.587 0 11.393 8.364 11.393 18.682q0 .46.03.924c.534-9.827 8.51-17.628 18.273-17.628 9.765 0 17.743 7.804 18.275 17.635q.028-.468.029-.931C48 8.364 39.805 0 29.696 0" opacity=".4"/><path fill="#000" d="M31.983 15.101c-.882-.286-1.987-.596-2.739-.596-.85 0-1.228-.09-1.958-.469-.645-.334-.999-.63-1.215-1.037s-.308-.975-.308-1.87V9.486l-1.393-.559c-4.048-1.622-8.184-2.166-15.94-2.116-1.102.005-1.929.01-2.512.016s-.901.011-1.065.028a.3.3 0 0 0-.063.01c-.013.004-.027.005-.05.012-.024.005-.057.004-.133.08a.35.35 0 0 0-.1.221.36.36 0 0 0 .08.242c.075.088.11.086.134.095.048.017.064.017.084.022.08.017.168.023.313.034.288.022.757.05 1.384.089 7.426.454 12.037 1.178 15.877 2.479l.34.115-1.439.056c-6.646.261-11.64.745-15.987 1.553-1.316.244-2.099.397-2.556.509-.228.056-.368.094-.497.162-.064.033-.15.068-.213.217a.381.381 0 0 0 .085.416c.08.082.123.082.153.09.029.011.047.011.063.011a1 1 0 0 0 .087.004q.084.001.204-.005c.163-.011.384-.028.653-.055a76 76 0 0 0 2.054-.24c4.14-.54 8.023-.896 11.299-1.038 1.496-.064 3.542-.055 5.206.006.182.005.286.016.457.027-3.476.581-9.118 2.454-12.668 4.246a31 31 0 0 0-2.77 1.574c-.37.239-.67.45-.88.627a1.6 1.6 0 0 0-.26.255.5.5 0 0 0-.095.184.44.44 0 0 0 .091.374c.121.123.202.1.241.1a.2.2 0 0 0 .079-.011c.037-.006.064-.017.094-.028q.09-.033.222-.085c.178-.073.423-.182.72-.319.596-.273 1.403-.66 2.281-1.094 5.127-2.338 9.465-4.028 15.607-4.29.088.189.195.434.312.716l.535 1.25c-5.105 3.294-3.5 10.88 2.133 11.842.741.124 1.585.198 2.556.237 2.953.12 4.016.415 5.977 1.656 1.474.932 2.754 2.3 3.763 4.034.4.687.886 1.814 1.263 2.866.19.526.352 1.036.466 1.463s.175.785.176.943q0 .291.075.526a.7.7 0 0 0 .114.229.43.43 0 0 0 .333.176.41.41 0 0 0 .376-.289c.037-.101.047-.191.054-.296a5 5 0 0 0-.025-.775 16 16 0 0 0-.385-2.198c-.647-2.651-2.348-5.393-4.474-7.26 2.765.936 5.004 3.05 5.825 5.515a.9.9 0 0 0 .183.334c.045.05.104.107.214.137a.44.44 0 0 0 .365-.1c.167-.171.136-.315.127-.439a2.2 2.2 0 0 0-.071-.4c-.075-.292-.2-.649-.355-1.03-.309-.762-.73-1.61-1.127-2.162-1.478-2.049-4.605-3.734-8.126-4.473-.84-.176-2.744-.473-4.318-.473-.115 0-1.651-.132-2.207-.18-5.602-.5-5.225-8.71.5-8.71.814 0 1.317.039 2.07.259.754.221 1.76.636 3.5 1.389.758.328 1.186.533 1.403.685s.237.205.302.426c.078.27.094.651.322.868.227.217 1.182.547 1.606.787.722.431 1.088.692 1.718 1.533.672-.884.955-.91 1.75-1.18-1.186-.136-2.76-1.365-1.957-1.495-.725-.664-.89-1.83-1.242-2.03a1 1 0 0 0-.27-.164l-1.454-.15c-1.562-.943-3.83-2.097-4.973-2.471zm6.493 2.37c0-.123-.035-.17-.06-.215a1 1 0 0 0-.08-.12 3 3 0 0 0-.22-.246c-1.993-1.932-4.463-3.418-7.019-4.335a3 3 0 0 0-.482-.14c-.069-.01-.13-.022-.229-.005a.4.4 0 0 0-.188.09.4.4 0 0 0-.123.276c0 .123.042.169.063.199q.03.04.047.055c.025.022.041.039.06.05.035.027.072.05.119.08q.14.086.37.214c1.99.973 3.562 1.624 5.15 2.956.542.405.68.842 1.305.94z" opacity=".5"/><path fill="#fff" d="M9.843 5.404q-.686-.001-1.413.002c-1.102.006-1.929.011-2.512.017-.583.005-.902.01-1.065.027a.3.3 0 0 0-.063.011l-.05.011c-.024.006-.057.005-.133.08a.35.35 0 0 0-.1.222.35.35 0 0 0 .08.241c.075.089.11.087.134.096.048.017.064.017.084.022.08.017.168.022.313.033.288.022.757.05 1.384.09 7.426.454 12.037 1.178 15.877 2.478l.34.115-1.439.057c-6.646.26-11.64.745-15.987 1.553-1.316.244-2.099.396-2.556.508-.228.057-.368.094-.497.162-.064.033-.15.068-.213.218a.38.38 0 0 0 .085.416c.08.082.123.082.153.09.029.01.047.01.063.01a1 1 0 0 0 .087.005q.084 0 .204-.006c.163-.01.384-.027.653-.055a76 76 0 0 0 2.054-.24c4.14-.539 8.023-.895 11.298-1.037 1.497-.064 3.542-.055 5.206.006.182.005.286.016.458.027-3.477.58-9.119 2.454-12.668 4.245a31 31 0 0 0-2.771 1.575c-.369.238-.669.45-.88.626a1.6 1.6 0 0 0-.258.256.5.5 0 0 0-.097.183.44.44 0 0 0 .092.374c.121.124.202.1.241.1.04 0 .06-.005.079-.011.037-.006.063-.017.094-.027l.222-.086c.178-.073.423-.182.72-.318.596-.273 1.403-.66 2.281-1.094 5.127-2.339 9.465-4.029 15.606-4.29.088.189.196.433.313.716l.534 1.25c-5.104 3.294-3.5 10.88 2.133 11.842.742.123 1.585.197 2.556.236 2.953.12 4.016.415 5.977 1.657 1.474.932 2.754 2.3 3.763 4.033.4.687.886 1.814 1.263 2.866.189.526.351 1.036.465 1.463s.176.785.177.943q0 .291.074.527a.7.7 0 0 0 .115.228.43.43 0 0 0 .333.176.41.41 0 0 0 .376-.289 1 1 0 0 0 .054-.295 5 5 0 0 0-.025-.776 16 16 0 0 0-.385-2.198c-.647-2.65-2.348-5.392-4.474-7.26 2.765.936 5.003 3.051 5.825 5.515a.9.9 0 0 0 .182.335.42.42 0 0 0 .215.136c.11.028.28-.017.364-.1.167-.17.136-.315.128-.439a2.2 2.2 0 0 0-.072-.4c-.075-.292-.2-.649-.354-1.03-.31-.762-.73-1.61-1.127-2.161-1.478-2.05-4.605-3.734-8.126-4.473-.84-.176-2.744-.473-4.318-.473-.115 0-1.65-.132-2.207-.181-5.601-.5-5.225-8.71.5-8.71.814 0 1.317.04 2.07.26.755.22 1.76.635 3.5 1.388.758.328 1.186.534 1.403.686s.238.204.302.425c.079.27.094.652.322.868.227.217 1.182.547 1.606.787.722.432 1.088.692 1.718 1.534.672-.884.955-.91 1.75-1.18-1.185-.136-2.76-1.366-1.956-1.496-.726-.663-.89-1.83-1.244-2.03a1 1 0 0 0-.269-.163l-1.454-.15c-1.562-.944-3.83-2.098-4.972-2.472l-.002.005c-.882-.286-1.986-.596-2.738-.596-.851 0-1.229-.09-1.959-.469-.644-.335-.999-.63-1.215-1.037-.216-.408-.307-.976-.307-1.871V8.08l-1.394-.558c-3.795-1.521-7.666-2.094-14.527-2.119m20.669 5.593a.6.6 0 0 0-.126.007.4.4 0 0 0-.188.09.4.4 0 0 0-.123.277c0 .123.042.168.063.198.02.028.035.044.047.056.025.022.042.039.06.05.035.027.072.05.119.08q.14.085.37.213c1.99.973 3.562 1.624 5.15 2.956.542.405.68.843 1.305.94l1.287.201c0-.122-.036-.17-.06-.215a1 1 0 0 0-.08-.12 3 3 0 0 0-.22-.246c-1.993-1.932-4.463-3.418-7.019-4.335a3 3 0 0 0-.482-.139q-.05-.008-.103-.013m7.778 5.959c.137.028.422.653.646.936.01.064.028.103-.12.072-.012-.066-.034-.085-.034-.085s-.357-.217-.466-.371-.129-.423-.076-.525q.02-.034.05-.027"/><defs><linearGradient id="a" x1="16.199" x2="34.942" y1="11.93" y2="43.734" gradientUnits="userSpaceOnUse"><stop stop-color="#23bac2"/><stop offset="1" stop-color="#2777ff"/></linearGradient></defs></svg>