<svg xmlns="http://www.w3.org/2000/svg" width="50" height="50" fill="none" viewBox="0 0 50 50"><path fill="#fff" fill-rule="evenodd" d="m42.769 7.18.173.17.005-.005c3.334 3.296 2.378 9.92-2.457 17.428L50 34.141l-.409.784a27.6 27.6 0 0 1-6.382 8.112q-5.26 4.623-12.119 6.22l-.163.038-.234.055-.168.037h-.002l-.37.08q-.152.031-.307.06l-.23.043c-.245.048-.502.093-.752.135l-.21.03-.158.02a25.367 25.367 0 0 1-11.782-1.13A25.1 25.1 0 0 1 7.22 42.82l-.157-.15c-3.341-3.297-2.395-9.925 2.447-17.438L0 15.864l.409-.784a27.4 27.4 0 0 1 6.387-8.106A27.9 27.9 0 0 1 18.386.88 25 25 0 0 1 20.4.438c.229-.045.487-.092.737-.134a25.3 25.3 0 0 1 11.647.906q5.714 1.815 9.986 5.97m-3.215.403h-.01l.01.005c-3.232-.986-8.36.606-13.78 4.123 4.125-1.131 8.113-.545 10.69 1.995 2.443 2.41 3.111 6.066 2.186 9.908a7 7 0 0 1-.164.623c4.425-6.591 5.84-12.757 3.039-15.511a2 2 0 0 0-.147-.14l-.021-.02-.031-.027-.094-.071a2 2 0 0 0-.125-.093l-.07-.049a4.8 4.8 0 0 0-1.483-.743m-2.218 14.816c-.57 3.351-2.452 6.738-5.304 9.543-2.844 2.807-6.29 4.661-9.698 5.228-3.189.531-5.94-.161-7.743-1.931-1.798-1.773-2.5-4.472-1.961-7.628.57-3.348 2.447-6.736 5.286-9.539 0 0 .005 0 .016-.016l.01-.016c2.85-2.788 6.282-4.637 9.681-5.197 3.19-.531 5.934.158 7.743 1.931 1.798 1.77 2.501 4.475 1.962 7.627h.01zM8.437 8.782a25 25 0 0 0-5.405 6.628l-.016.005 8.25 8.106a47 47 0 0 1 2.158-2.765c.268-.314.545-.64.827-.963l.108-.12.393-.432c.011-.01.022-.03.022-.03l.072-.081.038-.044q.102-.11.203-.222c.104-.114.209-.232.32-.343 0-.01.016-.027.016-.027l.177-.19q.065-.062.126-.129c.005-.01.01-.01.01-.01.011-.006.011-.015.011-.015q.012-.012.023-.03l.023-.027a.3.3 0 0 0 .054-.051l.03-.032c.068-.066.148-.144.22-.221.036-.047.083-.092.13-.138l.067-.068c.012-.016.043-.047.043-.047l.126-.122.245-.238.082-.085.091-.096a54 54 0 0 1 5.65-4.856l.262-.188h.002v-.002l.003-.001.262-.19c.294-.216.585-.427.883-.633.315-.21.634-.423.947-.627 4.286-2.814 8.484-4.502 11.91-4.837q-7.096-4.215-15.283-2.962c-.229.036-.448.073-.683.12-.15.025-.278.05-.409.077l-.079.016q-1.803.367-3.538.977a25.4 25.4 0 0 0-8.369 4.893zm.455 32.848c.456.345.979.602 1.564.782h-.011c3.252.979 8.36-.618 13.76-4.125-4.118 1.127-8.098.54-10.676-2-2.43-2.397-3.1-6.066-2.179-9.908.048-.206.098-.412.162-.623C7.089 32.35 5.677 38.515 8.475 41.27a5 5 0 0 0 .417.36m38.071-7.034v.004a25.2 25.2 0 0 1-5.402 6.623q-4.943 4.326-11.396 5.756l-.052.013-.14.032q-.24.063-.483.103a5 5 0 0 1-.324.06q-.34.064-.686.112l-.191.032-.218.028q-.26.035-.536.064-7.695.855-14.33-3.08c3.299-.32 7.315-1.905 11.434-4.527l.235-.151.236-.153.32-.212h.002v-.002l.619-.414q.449-.31.883-.632c.183-.13.356-.253.532-.382a55 55 0 0 0 5.653-4.858q.063-.063.119-.125l.049-.055q.13-.121.245-.236l.124-.123s.033-.032.038-.048a.4.4 0 0 0 .067-.066l.142-.139.11-.112a2 2 0 0 0 .139-.142.3.3 0 0 1 .054-.05l.024-.029.023-.027s.016-.016.026-.02l.044-.048.044-.046.043-.04q-.069.07-.13.148l.1-.105.002-.003q.106-.112.211-.216s0-.016.016-.016q.144-.151.28-.306l.185-.203a.2.2 0 0 0 .057-.062l.104-.124.026-.031c.13-.134.25-.27.375-.407l.127-.145c.205-.233.409-.473.612-.71l.245-.288.077-.093q.146-.182.29-.354.123-.146.24-.297a53 53 0 0 0 1.521-1.99l8.215 8.09zm0 0q0-.008.01-.013v.026l-.012-.01h.005l-.003-.004z"/></svg>