<svg xmlns="http://www.w3.org/2000/svg" width="50" height="50" fill="none" viewBox="0 0 50 50"><path fill="#000" d="M8.015 50c-3.777 0-6.85-3.13-6.85-6.975V8.163c0-1.865.714-3.618 2.01-4.936a6.74 6.74 0 0 1 4.84-2.04l35.144.045C46.93 1.237 50 4.366 50 8.208v34.817C50 46.87 46.927 50 43.15 50z" opacity=".35"/><path fill="#f2f2f2" d="M6.85 48.813c-3.777 0-6.85-3.13-6.85-6.976V6.977C0 5.11.714 3.358 2.009 2.04A6.74 6.74 0 0 1 6.849 0l35.144.045c3.772.005 6.841 3.134 6.841 6.976v34.817c0 3.846-3.072 6.975-6.849 6.975z"/><path fill="#707cc0" d="M4.02 34.978v6.283c0 1.774 1.413 3.213 3.155 3.213H41.66c1.742 0 3.155-1.439 3.155-3.213v-6.283z"/><path fill="#9aa2e6" d="M4.603 4.708v34.364c0 .689.549 1.247 1.225 1.247h37.179c.676 0 1.224-.558 1.224-1.247V4.708z"/><path stroke="#40396e" stroke-linecap="round" stroke-linejoin="round" stroke-miterlimit="10" stroke-width="3" d="M6.853 3.858C5.16 3.856 3.788 5.252 3.788 6.976v34.861c0 1.722 1.37 3.118 3.061 3.118h35.136c1.691 0 3.062-1.396 3.062-3.118V7.021c0-1.72-1.369-3.116-3.058-3.118z"/><path fill="#40396e" d="M21.25 28.137q-.521 0-.745-.354t.012-.873l3.18-7.095q.199-.43.472-.627.273-.195.634-.196.36 0 .632.196.274.197.46.627L29.1 26.91q.236.532.018.88-.216.347-.7.347-.423 0-.653-.203-.23-.201-.404-.631l-.521-1.215h-4.086l-.51 1.215q-.184.442-.396.639-.212.195-.597.195m3.528-6.943-1.379 3.364h2.807l-1.403-3.364zM32.39 28.163q-2.198 0-2.198-2.492v-5.705q0-.974.944-.974.932 0 .932.974v5.63q-.001.518.217.764a.73.73 0 0 0 .577.247q.1 0 .193-.012.092-.013.18-.013.199-.013.28.126.08.14.08.57 0 .733-.609.834-.124.012-.285.032-.16.018-.311.019M37.134 28.163q-2.57 0-2.57-2.542v-2.379h-.523q-.732 0-.731-.708 0-.72.731-.721h.523v-.961q0-.974.943-.974.93 0 .931.974v.96h1.18q.721.001.721.722 0 .709-.72.708h-1.18v2.302q0 .532.242.797.242.266.776.266.186 0 .347-.038.162-.038.298-.051a.33.33 0 0 1 .286.114q.112.127.112.519 0 .316-.1.537a.62.62 0 0 1-.346.323 2.2 2.2 0 0 1-.442.107q-.28.045-.478.045M12.2 28.488q-.557 0-.842-.292t-.286-.835v-7.835q0-.542.286-.834.285-.293.828-.293 1.098 0 1.098 1.128v7.092h3.825q.957 0 .956.928 0 .942-.956.942z"/></svg>