<svg xmlns="http://www.w3.org/2000/svg" width="50" height="50" fill="none" viewBox="0 0 50 50"><g clip-path="url(#a)"><path fill="#c2e8ff" d="M.658 5.92H44.08v43.422H.66z"/><path fill="#7496c4" d="M43.421 6.578v42.106H1.316V6.578zm1.316-1.315H0v44.736h44.737z"/><path fill="#c2e8ff" d="M44.737 13.89v8.479h-3.07v-8.48zM27.632 5.263h8.479v3.07h-8.48z"/><path fill="#8bb7f0" d="M23.299 19.737 36.457 6.58 30.536.66h18.806v18.806l-5.92-5.921-13.159 13.158z"/><path fill="#4e7ab5" d="M48.684 1.316v16.56l-4.333-4.333-.93-.93-.93.93-12.228 12.228-6.034-6.034L36.456 7.509l.93-.93-.93-.93-4.333-4.333zM50 0H28.947l6.58 6.579-13.159 13.158 7.895 7.895L43.42 14.474 50 21.053z"/><g clip-path="url(#b)"><path fill="#65b1fc" d="M21.824 40.258C19.41 45.32 15.695 46.414 13 46.414c-3.035 0-5.894-1.516-7.652-3.988-1.77-2.496-2.192-5.66-1.172-8.684l.187-.386c1.43-3.41 4.899-5.77 8.637-5.77 3.035 0 5.895 1.516 7.653 3.988 1.769 2.496 2.191 5.66 1.171 8.684"/><path fill="#1689fc" d="M21.824 40.258C19.41 45.32 15.695 46.414 13 46.414V27.586c3.035 0 5.895 1.516 7.652 3.988 1.77 2.496 2.192 5.66 1.172 8.684"/><path fill="#96ebe6" d="M21.133 31.234C19.258 28.61 16.223 27 13 27c-4.02 0-7.7 2.523-9.211 6.238l-.2.41c-1.075 3.277-.656 6.38 1.278 9.118C6.742 45.39 9.777 47 13 47c3.973 0 7.605-2.465 9.164-6.098l.176-.351c1.171-3.333.76-6.535-1.207-9.317M5.828 42.086c-1.664-2.344-2.05-5.309-1.09-8.156l.152-.317c.95-2.273 2.836-4.035 5.086-4.879-1.418 1.852-2.273 5.453-2.168 6.625-.011.035-.023.07-.023.118-.305 3.925.586 7.714 2.262 9.836a8.95 8.95 0 0 1-4.219-3.227m6.586 3.637c-.41-.141-.82-.45-1.207-.86-1.64-1.77-2.543-5.507-2.25-9.293v-.105c0-.035.012-.082.012-.117.34-3.645 1.77-6.52 3.445-7.07zm1.172-.012V28.277c1.804.598 3.316 3.918 3.492 7.88.164 3.656-.75 7.09-2.332 8.753-.375.387-.762.672-1.16.8m7.676-5.64c-1.313 2.765-3.165 4.468-5.309 5.23 1.57-1.98 2.46-5.512 2.297-9.192-.14-3.117-1.02-5.804-2.297-7.422a8.95 8.95 0 0 1 4.219 3.227c1.664 2.344 2.05 5.309 1.09 8.156"/><path fill="#00c8c8" d="M21.133 31.234C19.258 28.61 16.223 27 13 27v20c3.973 0 7.605-2.465 9.164-6.098l.176-.351c1.171-3.333.76-6.535-1.207-9.317m-7.547 14.477V28.277c1.805.598 3.316 3.918 3.492 7.88.164 3.656-.75 7.09-2.332 8.753-.375.387-.762.672-1.16.8m7.676-5.64c-1.313 2.765-3.164 4.468-5.309 5.23 1.57-1.98 2.461-5.512 2.297-9.192-.14-3.117-1.02-5.804-2.297-7.422a8.94 8.94 0 0 1 4.219 3.227c1.664 2.344 2.05 5.309 1.09 8.156"/><path fill="#0053bf" d="M21.203 32.898H4.797c-.973 0-1.797.786-1.797 1.758v4.688c0 .972.824 1.758 1.797 1.758h16.406c.973 0 1.797-.786 1.797-1.758v-4.688c0-.972-.824-1.758-1.797-1.758"/><path fill="#05377f" d="M23 34.656v4.688c0 .972-.824 1.758-1.797 1.758H13v-8.204h8.203c.973 0 1.797.786 1.797 1.758"/><path fill="#e1f1fa" d="M15.87 36.086 14.7 38.429a.6.6 0 0 1-.527.329.6.6 0 0 1-.528-.329L13 37.14l-.645 1.29c-.199.398-.855.398-1.055 0l-1.171-2.344a.593.593 0 0 1 .27-.785.593.593 0 0 1 .784.269l.645 1.29.644-1.29a.59.59 0 0 1 .528-.305c.21 0 .422.106.527.305l.645 1.29.644-1.29a.593.593 0 0 1 .785-.27c.293.153.41.504.27.786"/><path fill="#bfe1ff" d="M20.032 38.757a.59.59 0 0 1-.525-.323l-.647-1.296-.648 1.296c-.2.397-.85.397-1.048 0l-1.123-2.246a.57.57 0 0 1-.128-.321.57.57 0 0 1 .53-.622c.245-.005.492.11.597.32l.648 1.296.648-1.295c.199-.398.849-.398 1.048 0l.648 1.295.647-1.295a.587.587 0 0 1 1.049.524l-1.172 2.343a.59.59 0 0 1-.524.324"/><path fill="#e1f1fa" d="M9.522 35.243a.61.61 0 0 0-.562.323l-.647 1.295-.648-1.295c-.211-.421-.84-.418-1.048 0l-.648 1.295-.648-1.295a.586.586 0 1 0-1.048.524l1.172 2.343a.586.586 0 0 0 1.048 0l.648-1.295.648 1.296a.586.586 0 0 0 1.048 0l1.104-2.208a.6.6 0 0 0 .146-.36.6.6 0 0 0-.565-.623"/><path fill="#bfe1ff" d="M15.871 36.086 14.7 38.429a.6.6 0 0 1-.527.329.6.6 0 0 1-.527-.329L13 37.14v-1.875c.21 0 .422.106.527.305l.645 1.29.644-1.29a.593.593 0 0 1 .785-.27c.293.153.41.504.27.786"/></g></g><defs><clipPath id="a"><path fill="#fff" d="M0 0h50v50H0z"/></clipPath><clipPath id="b"><path fill="#fff" d="M3 27h20v20H3z"/></clipPath></defs></svg>