<svg xmlns="http://www.w3.org/2000/svg" width="50" height="50" fill="none" viewBox="0 0 50 50"><path fill="#1d2943" d="M14.471 49.883a.2.2 0 0 1-.062-.042.4.4 0 0 1-.094-.093.7.7 0 0 0 .156.135"/><path fill="#4c5c75" d="M34.051 3.25c-.01-.489-.187-.822-.489-.957.021 0 .042.01.063.02L29.91.105c-.27-.166-.635-.135-1.04.094l-17.146 9.916c-.812.469-1.457 1.594-1.457 2.52l.083 34.113c.01.458.167.781.437.937l3.62 2.156a.4.4 0 0 1-.093-.093.7.7 0 0 0 .156.135c.26.177.635.156 1.061-.083l17.146-9.916c.812-.469 1.467-1.594 1.457-2.521zm-1.467-.832c.313-.188.593-.24.833-.177-.24-.063-.53 0-.833.177"/><path fill="#4c5c75" d="M14.471 49.883a.2.2 0 0 1-.062-.042.4.4 0 0 1-.094-.093.7.7 0 0 0 .156.135"/><path fill="#1d2943" d="M14.471 49.883a.2.2 0 0 1-.062-.042.4.4 0 0 1-.094-.093.7.7 0 0 0 .156.135"/><path fill="#1d2943" d="M34.051 3.25c-.01-.489-.187-.822-.489-.957.021 0 .042.01.063.02L29.91.105c-.27-.166-.635-.135-1.04.094l-17.146 9.916c-.812.469-1.457 1.594-1.457 2.52l.083 34.113c.01.458.167.781.437.937l3.62 2.156a.4.4 0 0 1-.093-.093.7.7 0 0 0 .156.135c.26.177.635.156 1.061-.083l17.146-9.916c.812-.469 1.467-1.594 1.457-2.521zm-1.467-.832c.313-.188.593-.24.833-.177-.24-.063-.53 0-.833.177"/><path fill="#4c5c75" d="M14.471 49.883a.2.2 0 0 1-.062-.042.4.4 0 0 1-.094-.093.7.7 0 0 0 .156.135"/><path fill="#1d2943" d="M33.625 2.31c-.273-.15-.634-.132-1.048.106l-17.142 9.908c-.81.467-1.462 1.596-1.454 2.53l.089 34.108c0 .458.158.784.422.934l-3.708-2.208c-.264-.159-.422-.485-.432-.943l-.087-34.108c0-.926.651-2.054 1.462-2.521L28.869.199c.406-.23.775-.256 1.04-.097z"/><path fill="#4c5c75" d="M32.58 2.418c.81-.47 1.464-.095 1.467.836l.09 34.105c.004.931-.646 2.058-1.456 2.526l-17.145 9.91c-.81.47-1.464.095-1.467-.836l-.09-34.105c-.004-.932.646-2.059 1.456-2.527z"/><path fill="#fff" d="M33.134 37.365c0 .577-.441 1.365-.955 1.658l-16.002 9.25a.742.742 0 0 1-1.11-.64l-.084-32.987L33.06 4.2z"/><path fill="#9ea9c9" d="m13.036 17.542-.01 4.072c0 .23-.084.406-.23.48l-.54.322c-.136.084-.334.073-.542-.052-.416-.24-.76-.833-.76-1.312l.011-4.062c.01-.25.104-.428.26-.5-.02 0-.031 0-.041.01l.561-.323c.136-.073.323-.062.541.063.417.24.75.822.75 1.302m-.021 7.988v2.438c-.01.24-.084.406-.23.49l-.55.322c-.136.084-.323.073-.531-.052-.427-.25-.76-.833-.76-1.312v-2.437c0-.24.083-.417.23-.49.01-.01.03-.01.04-.02 0-.011.011-.011.022-.011l.489-.292c.135-.083.322-.073.54.052.406.24.76.833.75 1.313"/><path fill="#9ea9c9" d="M13.015 25.53v2.438c-.01.24-.084.406-.23.49l-.55.322c-.136.084-.323.073-.531-.052-.427-.25-.76-.833-.76-1.312v-2.437c0-.24.083-.417.23-.49.01-.01.03-.01.04-.02 0-.011.011-.011.022-.011l.489-.292c.135-.083.322-.073.54.052.406.24.76.833.75 1.313m.02-7.989-.01 4.073c0 .23-.083.406-.229.48l-.54.322c-.136.084-.334.073-.542-.052-.416-.24-.76-.833-.76-1.312l.011-4.062c.01-.25.104-.428.26-.5-.02 0-.031 0-.041.01l.561-.323c.136-.073.323-.062.541.063.417.24.75.822.75 1.302"/><path fill="#9ea9c9" d="m13.036 17.545-.008 4.063c0 .235-.086.408-.227.487l-.548.321c.133-.078.219-.25.219-.494l.016-4.056c0-.479-.337-1.066-.752-1.309-.22-.125-.408-.134-.55-.055l.557-.322c.133-.078.33-.062.541.055.415.243.752.832.752 1.31"/><path fill="#f3f1fc" d="M11.732 16.557c.416.24.754.828.753 1.306l-.011 4.063c-.002.484-.344.679-.759.438-.42-.243-.76-.83-.757-1.314l.01-4.063c.002-.478.344-.672.764-.43"/><path fill="#9ea9c9" d="M13.013 25.529v2.439c-.008.244-.087.408-.227.486l-.548.322c.133-.078.218-.25.218-.486l.008-2.44c0-.479-.337-1.066-.752-1.31-.211-.125-.408-.133-.54-.055l.547-.321c.142-.08.33-.07.541.054.417.244.76.832.753 1.31"/><path fill="#f3f1fc" d="M11.711 24.54c.415.24.754.828.752 1.311l-.006 2.44c-.002.478-.343.673-.758.433-.42-.244-.76-.831-.758-1.31l.007-2.439c0-.483.343-.678.763-.435"/><path fill="#1d2943" d="M11.727 10.116 28.869.199Z"/><path fill="#f45170" d="M39.94 8.188v1.823c0 1.146-.801 2.541-1.8 3.114-.5.292-.957.313-1.29.125l-.479-.27a.4.4 0 0 1-.156-.136c-.239.948-.905 1.906-1.685 2.364-.51.292-.978.313-1.3.125l-.094-.062-.375-.219c-.062-.031-.114-.083-.166-.135-.229.958-.895 1.927-1.686 2.374-.499.292-.957.313-1.28.125a1 1 0 0 1-.103-.062l-.375-.219a.5.5 0 0 1-.166-.135c-.23.958-.905 1.927-1.686 2.375-.51.291-.978.312-1.3.125l-.094-.063-.374-.219a.7.7 0 0 1-.167-.135c-.229.948-.895 1.917-1.685 2.375-.52.302-.989.312-1.322.094l-.437-.25c-.333-.188-.53-.594-.53-1.157l-.01-1.27-6.399-3.708v-.552c.104-.062 19.296-11.122 18.072-10.416l6.409 3.718z"/><path fill="#afb2b9" d="m29.443 6.282.002.552 6.403 3.713v-.552z"/><path fill="#f45170" d="M39.461 7.917v.552l-3.61 2.083V10l-6.408-3.718 3.61-2.083z"/><path fill="#7a7c81" d="m35.847 9.995.001.552 3.613-2.08v-.553z"/><path fill="#f45170" d="m29.443 6.282 6.404 3.713 3.613-2.08L33.057 4.2z"/><path fill="#3b475a" d="m25.826 8.365.001.553 6.404 3.712-.001-.552z"/><path fill="#29313f" d="M32.23 12.078v.552l3.618-2.083v-.552z"/><path fill="#ffd06c" d="m25.826 8.365 6.404 3.713 3.617-2.083-6.404-3.713z"/><path fill="#afb2b9" d="m22.212 10.447.002.552 6.403 3.712v-.552z"/><path fill="#7a7c81" d="m28.616 14.16.001.551 3.614-2.08-.001-.553z"/><path fill="#f45170" d="m22.212 10.447 6.404 3.713 3.614-2.082-6.404-3.712z"/><path fill="#3b475a" d="M18.6 12.528v.552l6.404 3.713v-.552z"/><path fill="#29313f" d="m25.003 16.24.001.553 3.613-2.081v-.553z"/><path fill="#ffd06c" d="m18.6 12.528 6.403 3.713 3.613-2.081-6.403-3.713z"/><path fill="#cc104a" d="M25 16.24v.552l-3.61 2.083-6.409-3.708v-.552l3.62-2.084z"/><path fill="#df3260" d="m14.981 14.612.002.552 6.404 3.713-.001-.552zm6.405 3.713v.552l3.618-2.084v-.552z"/><path fill="#f45170" d="m14.981 14.612 6.405 3.712 3.617-2.083-6.404-3.713z"/><path fill="#df3260" d="m36.852 13.251-.478-.277c-.326-.188-.527-.588-.529-1.156l.479.277c.002.568.204.969.528 1.156"/><path fill="#8fabfe" d="m36.324 12.094-.479-.277-.005-1.82.479.278z"/><path fill="#e93565" d="m36.32 10.275-.48-.278 3.617-2.083.479.277z"/><path fill="#cc104a" d="m39.936 8.191.005 1.82c.004 1.144-.805 2.541-1.802 3.115-.999.575-1.812.113-1.815-1.031l-.006-1.82z"/><path fill="#febc1f" d="m33.239 15.333-.479-.278c-.325-.188-.526-.588-.528-1.156l.478.277c.002.568.204.97.529 1.157"/><path fill="#ffd06c" d="m32.71 14.176-.478-.278-.005-1.82.479.279z"/><path fill="#febc1f" d="m32.705 12.357-.478-.279 3.613-2.08.478.277z"/><path fill="#f9a83d" d="m36.32 10.275.004 1.82c.003 1.144-.801 2.538-1.798 3.112-.999.575-1.812.113-1.816-1.03l-.005-1.82z"/><path fill="#df3260" d="m29.626 17.417-.479-.279c-.326-.187-.526-.59-.528-1.159l.478.278c.002.569.204.971.529 1.16"/><path fill="#8fabfe" d="m29.098 16.257-.48-.278-.005-1.82.48.279z"/><path fill="#e93565" d="m29.092 14.438-.479-.279 3.614-2.08.478.277z"/><path fill="#cc104a" d="m32.705 12.357.005 1.82c.004 1.143-.805 2.54-1.803 3.114-.997.575-1.807.11-1.81-1.034l-.005-1.82z"/><path fill="#febc1f" d="m26.01 19.5-.484-.278c-.319-.191-.523-.591-.523-1.16l-.007-1.816.476.278.007 1.816c0 .57.204.97.53 1.16"/><path fill="#e93565" d="m21.861 18.602-.478-.278 3.613-2.081.478.278z"/><path fill="#f9a83d" d="m29.092 14.438.005 1.82c.003 1.143-.805 2.54-1.803 3.114-.998.575-1.81.112-1.814-1.032l-.006-1.82z"/><path fill="#febc1f" d="m25.474 16.52-.478-.277 3.617-2.083.479.278z"/><path fill="#df3260" d="m22.394 21.58-.476-.278c-.325-.19-.53-.59-.53-1.159l-.007-1.816.483.277v1.817c.008.57.203.968.53 1.159"/><path fill="#cc104a" d="m25.474 16.52.006 1.82c.003 1.144-.802 2.539-1.8 3.114-.997.574-1.81.111-1.814-1.031l-.005-1.821z"/><path fill="#e93565" d="m14.999 22.01-.016-6.846 6.404 3.713v1.446z"/><path fill="#4c5c75" d="M22.555 38.338c.134.104.215.295.216.554.003.576-.399 1.275-.903 1.567-.5.288-.907.057-.909-.52 0-.26.08-.543.214-.803zm6.218-3.595c.136.105.217.295.218.555.001.575-.4 1.274-.903 1.565-.5.29-.908.057-.91-.519 0-.259.08-.542.215-.803z"/><path fill="#b28afd" d="M30.176 24.383c.276-.16.492-.013.465.322l-.524 6.216c-.025.286-.223.606-.462.745l-9.095 5.256a.3.3 0 0 0-.005-.052l-.89-6.412zm-7.238 9.275-.008-3.2c-.001-.202-.146-.284-.32-.183a.7.7 0 0 0-.323.553l.01 3.2c0 .21.142.29.323.185a.7.7 0 0 0 .318-.555m2.388-1.38-.01-3.2c0-.202-.144-.284-.32-.183a.7.7 0 0 0-.322.554l.01 3.2c0 .208.145.287.323.184a.7.7 0 0 0 .319-.555m2.39-1.382-.009-3.2c0-.202-.146-.284-.32-.183a.7.7 0 0 0-.319.552l.01 3.2c0 .209.145.288.32.186a.7.7 0 0 0 .319-.555"/><path fill="#e3e7f0" d="M30.814 32.902c-.078-.046-.181-.04-.286.02l-10.334 5.974c-.093.054-.166.051-.208-.012-.009-.01-.076-.112.01-.325l.57-1.39a.7.7 0 0 0 .05-.306l-.89-6.414-.007-.049a.3.3 0 0 0-.03-.104l-.518-1.022a.44.44 0 0 0-.266-.235c-.148-.047-.324-.014-.499.088l-1.223.706a.76.76 0 0 0-.348.605c0 .121.044.213.125.259.078.047.18.037.286-.023l1.234-.71.493.982.87 6.267-.5 1.222c-.197.476-.203.925-.017 1.2.111.164.27.246.46.246a.96.96 0 0 0 .47-.144l10.334-5.974a.76.76 0 0 0 .349-.604c0-.12-.045-.211-.125-.257"/><path fill="#497bfe" d="M42 14.52v4.74c0 .469-.333 1.031-.728 1.27l-5.837 3.324-1.415 3.364-.999-.562.073-1.459-.145.084c-.198.114-.375.125-.51.052l-1.01-.573c-.124-.073-.207-.24-.207-.469v-4.74c0-.478.322-1.04.728-1.26l8.313-4.75c.208-.114.395-.124.53-.051l.947.552c.156.062.25.229.26.479"/><path fill="#57b3fe" d="M42 14.52v4.74c0 .469-.333 1.031-.728 1.27l-5.837 3.324-1.415 3.364-.999-.562.073-1.459-.145.084c-.198.114-.375.125-.51.052l-1.01-.573c-.124-.073-.207-.24-.207-.469v-4.74c0-.478.322-1.04.728-1.26l8.313-4.75c.208-.114.395-.124.53-.051l.947.552c.156.062.25.229.26.479"/><path fill="#497bfe" d="m34.02 27.215-.998-.562.138-2.629.997.563z"/><path fill="#5094ff" d="M41.777 14.058c-.133-.083-.309-.072-.515.042l-8.312 4.743c-.403.238-.733.795-.733 1.26v4.75c0 .237.083.392.217.474l-1-.567c-.134-.073-.217-.238-.217-.465v-4.75c0-.473.33-1.03.733-1.259l8.313-4.744c.206-.114.392-.123.526-.052z"/><path fill="#57b3fe" d="m32.947 18.844 8.315-4.74c.402-.232.732-.043.734.418v4.742c0 .462-.327 1.032-.728 1.264l-5.834 3.32-1.415 3.367.138-2.628-1.205.687c-.402.234-.733.045-.734-.416v-4.75c-.002-.47.327-1.032.728-1.265"/><path fill="#fff" d="m34.14 19.826.306.895.98-.566-.793 1.122.308.897-.794-.208-.79 1.123.3-1.249-.795-.203.98-.567zm2.964-1.687.305.896.98-.567-.794 1.122.309.898-.794-.208-.79 1.123.3-1.25-.795-.202.98-.567zm2.962-1.686.305.896.98-.567-.793 1.121.308.898-.794-.208-.79 1.124.3-1.25-.795-.204.98-.565z"/><path fill="#78e75a" d="M18.123 34.645c0-.01-.01 0-.01 0-.01-.01-.021-.01-.032-.021z"/><path fill="#78e75a" d="M18.362 40.509c0 .395-.28.885-.624 1.083l-.5.281.25 1.792-1.154-.677-.437-.334-6.316 3.604c-.218.125-.405.104-.52-.02.021.02.042.041.073.062l-.936-.563c-.115-.062-.177-.198-.188-.395L8 39.894c0-.396.27-.885.624-1.083l8.157-4.666c.166-.105.322-.105.437-.042l.863.52c-.03-.01-.062-.01-.093-.01q.062 0 .125.032s.01-.01.01 0c.135.052.218.197.218.416z"/><path fill="#78e75a" d="M18.362 40.509c0 .395-.28.885-.624 1.083l-.5.281.25 1.792-1.154-.677-.437-.334-6.316 3.604c-.218.125-.405.104-.52-.02.021.02.042.041.073.062l-.936-.563c-.115-.062-.177-.198-.188-.395L8 39.894c0-.396.27-.885.624-1.083l8.157-4.666c.166-.105.322-.105.437-.042l.863.52.042.022c.135.052.218.197.218.416z"/><path fill="#5ec363" d="m17.484 43.668-1.153-.684-1.445-1.096 1.153.683zm.678-9.006c-.114-.07-.273-.062-.45.036l-8.148 4.666c-.346.196-.629.692-.629 1.081l.018 5.454c0 .195.07.336.186.398l-.943-.556c-.115-.063-.177-.205-.186-.4l-.009-5.452c0-.39.275-.886.62-1.08l8.156-4.669c.168-.096.328-.106.443-.035z"/><path fill="#78e75a" d="M17.713 34.7c.345-.198.628-.038.63.359l.015 5.45c0 .395-.28.883-.624 1.083l-.492.283.242 1.792-1.445-1.096-6.457 3.685c-.345.198-.628.038-.629-.36l-.016-5.449c0-.396.281-.883.625-1.083z"/><path fill="#fff" d="M14.097 37.274c.116-.061.273-.072.397.178.01.02.18.416-.158 1.615l-.039.139 1.518-.877c.172-.1.316-.021.317.177a.76.76 0 0 1-.114.375.8.8 0 0 1-.27.283c.212-.122.386-.023.386.217a.8.8 0 0 1-.113.383.8.8 0 0 1-.272.288c.214-.123.387-.025.388.222a.74.74 0 0 1-.104.348.74.74 0 0 1-.25.26l-.243.141c.194-.112.354-.02.356.203a.74.74 0 0 1-.105.351.74.74 0 0 1-.25.26l-2.184 1.264c-.224.13-.441.169-.62.115l-.092-.03-.007-2.684c.063-.062 1.285-1.267 1.313-2.979a.33.33 0 0 1 .146-.25"/><path fill="#4c5c75" d="M12.474 40.41c.088-.051.163-.009.164.092l.007 2.823c0 .104-.073.23-.16.281l-1.156.667c-.09.052-.162.011-.162-.094l-.008-2.823c0-.1.07-.228.162-.28zm-.57 3.044a.54.54 0 0 0 .246-.427c0-.156-.108-.222-.248-.141a.54.54 0 0 0-.246.427c0 .157.111.22.248.141"/><path fill="#fff" d="M11.902 42.886c.14-.08.248-.016.249.141a.54.54 0 0 1-.247.427c-.137.08-.248.016-.248-.141s.11-.348.247-.427z"/></svg>