<svg xmlns="http://www.w3.org/2000/svg" width="50" height="50" fill="none" viewBox="0 0 50 50"><path fill="#fe93d3" d="M12.297 11.72h-7.52c-1.214 0-2.199-.97-2.199-2.166V2.165C2.578.97 3.563 0 4.777 0h7.52c1.214 0 2.198.97 2.198 2.165v7.389c0 1.196-.984 2.165-2.198 2.165"/><path fill="#fe73c5" d="M12.297 0H8.273c1.214 0 2.198.97 2.198 2.165v7.389c0 1.196-.984 2.165-2.198 2.165h4.024c1.214 0 2.198-.97 2.198-2.165V2.165C14.495.97 13.511 0 12.297 0"/><path fill="#fff" d="M8.537 8.189c1.308 0 2.368-1.043 2.368-2.33 0-1.286-1.06-2.328-2.368-2.328S6.168 4.573 6.168 5.86c0 1.286 1.06 2.329 2.369 2.329M11.861 3.232c-.491.014-.861-.53-.659-.971.228-.573 1.09-.573 1.317 0 .204.44-.168.984-.658.97"/><path fill="#08a9f1" d="M24.405 24.086c3.96 0 7.17-3.157 7.17-7.051s-3.21-7.052-7.17-7.052-7.17 3.157-7.17 7.052 3.21 7.05 7.17 7.05"/><path fill="#fff" d="M25 14.03c.118-.094.438-.093.616-.056.194.04.396.004.563-.101a.734.734 0 0 0 .234-1.018.75.75 0 0 0-.465-.331c-.115-.026-1.147-.238-1.888.343-.297.233-.652.68-.652 1.478v.983h-.378a.76.76 0 0 0-.534.218.74.74 0 0 0 0 1.05.76.76 0 0 0 .534.218h.378v4.047c0 .197.08.386.221.526a.76.76 0 0 0 1.067 0 .74.74 0 0 0 .22-.526v-4.047h.742a.76.76 0 0 0 .534-.217.74.74 0 0 0 0-1.052.76.76 0 0 0-.534-.217h-.741v-.983c0-.075.008-.255.083-.315"/><path fill="#fe2aa8" d="M20.747 21.252a60.6 60.6 0 0 0-14.019 0 .687.687 0 0 0-.614.677v8.465c0 .347.264.637.614.678 4.657.542 9.362.542 14.019 0a.687.687 0 0 0 .614-.678V21.93a.687.687 0 0 0-.614-.677"/><path fill="#fff" d="m15.561 26.156-1.823 1.036-1.824 1.035v-4.141l1.824 1.035z"/><path fill="#99e6fc" d="m47.371 4.92-2.292.66a2.31 2.31 0 0 0-1.864-.936c-1.271 0-2.301 1.013-2.301 2.263 0 .449.133.867.362 1.22-.892.157-3.833.36-6.027-3.189 0 0-1.047 5.837 3.195 7.604 0 0-1.283 1.278-3.678.934 0 0 .868 2.274 4.477 2.25 3.295-.023 7.66-2.277 7.164-8.617z"/><path fill="#62dbfb" d="m47.371 4.92-2.292.66a2.31 2.31 0 0 0-1.864-.936c-.717 0-1.356.322-1.778.827 0 0 .65.434.946 1.638 1.267 5.143-2.36 7.567-5.171 8.339.554.173 1.223.283 2.031.278 3.295-.022 7.66-2.276 7.164-8.617z"/><path fill="#b289c9" d="M26.542 28.155h13.416v8.45l-3.565 3.506h-3.565l-3.258 3.204V40.11h-3.029z"/><path fill="#a274bf" d="M35.933 28.155v8.45l-3.565 3.506H29.57v3.204l3.258-3.204h3.565l3.565-3.506v-8.45z"/><path fill="#fff" d="M36.431 30.605a.8.8 0 0 0-.57.232.79.79 0 0 0-.235.56v3.465c0 .21.085.412.236.56a.81.81 0 0 0 1.138 0 .79.79 0 0 0 .236-.56v-3.465a.79.79 0 0 0-.236-.56.8.8 0 0 0-.569-.232m-3.037 0a.8.8 0 0 0-.569.232.79.79 0 0 0-.236.56v3.465c0 .21.085.412.236.56a.81.81 0 0 0 1.138 0 .79.79 0 0 0 .236-.56v-3.465a.79.79 0 0 0-.236-.56.8.8 0 0 0-.569-.232"/><path fill="#c8effe" d="M10.043 14.156a.8.8 0 0 0-.569.232.79.79 0 0 0-.236.56v1.886c0 .21.085.412.236.56a.81.81 0 0 0 1.138 0 .79.79 0 0 0 .236-.56v-1.885a.78.78 0 0 0-.236-.561.8.8 0 0 0-.569-.232m-3.013 0a.8.8 0 0 0-.569.232.79.79 0 0 0-.236.56v2.941c0 .21.085.412.236.56a.81.81 0 0 0 1.138 0 .79.79 0 0 0 .236-.56v-2.94a.79.79 0 0 0-.236-.561.8.8 0 0 0-.569-.232m5.096 19.591a.8.8 0 0 0-.57.232.79.79 0 0 0-.235.561v1.885c0 .21.084.412.235.56a.81.81 0 0 0 1.139 0 .79.79 0 0 0 .235-.56V34.54a.78.78 0 0 0-.235-.56.8.8 0 0 0-.57-.233m3.224 0a.8.8 0 0 0-.57.232.79.79 0 0 0-.235.561v5.223c0 .21.085.412.236.56a.81.81 0 0 0 1.138 0 .79.79 0 0 0 .236-.56V34.54a.79.79 0 0 0-.236-.56.8.8 0 0 0-.57-.233M42.018 18.77a.8.8 0 0 0-.57.233.79.79 0 0 0-.235.56v1.885c0 .21.085.412.236.561a.81.81 0 0 0 1.138 0 .79.79 0 0 0 .236-.56v-1.886a.79.79 0 0 0-.236-.56.8.8 0 0 0-.57-.233m-3.225 0a.81.81 0 0 0-.569.233.8.8 0 0 0-.235.56v5.223c0 .21.084.412.235.56a.81.81 0 0 0 1.139 0 .79.79 0 0 0 .235-.56v-5.223a.79.79 0 0 0-.235-.56.8.8 0 0 0-.57-.233m-7.156 26.476a.8.8 0 0 0-.569.233.79.79 0 0 0-.236.56v1.885c0 .21.085.412.236.56a.81.81 0 0 0 1.138 0 .79.79 0 0 0 .236-.56v-1.885a.78.78 0 0 0-.236-.56.8.8 0 0 0-.569-.233m3.225-2.054a.8.8 0 0 0-.57.232.79.79 0 0 0-.235.56v5.224c0 .21.085.412.236.56a.81.81 0 0 0 1.138 0 .79.79 0 0 0 .236-.56v-5.223a.78.78 0 0 0-.236-.56.8.8 0 0 0-.57-.233"/><path fill="#fedf30" d="M4.21 34.751 5.7 37.434l2.722 1.468-2.722 1.467-1.489 2.684-1.488-2.684L0 38.902l2.722-1.468zm16.218 8.942.997 1.798 1.825.984-1.825.983-.997 1.799-.998-1.799-1.824-.983 1.824-.984zm26.75-18.439.998 1.798 1.824.984-1.824.983-.998 1.799-.997-1.799-1.825-.983 1.825-.984zM26.992 0l1.199 2.162 2.193 1.182-2.193 1.182-1.2 2.162-1.199-2.162L23.6 3.344l2.192-1.182z"/></svg>