<svg xmlns="http://www.w3.org/2000/svg" width="50" height="50" fill="none" viewBox="0 0 50 50"><circle cx="25" cy="25" r="25" fill="#e88102"/><ellipse cx="25" cy="23.682" fill="#fdd835" rx="24.745" ry="23.682"/><g fill="#fff" fill-opacity=".314"><path d="M34.878 1.963 2.306 33.125a22.6 22.6 0 0 1-1.98-7.715L26.807.06c2.847.205 5.561.859 8.072 1.904M46.56 12.06 12.857 44.316a24.6 24.6 0 0 1-5.663-4.199l34.99-33.476a23.8 23.8 0 0 1 4.377 5.42m-5.388-6.31-34.897 33.4a25 25 0 0 1-1.541-1.895L39.194 4.277a26 26 0 0 1 1.98 1.475m7.796 12.022L18.826 46.621a27 27 0 0 1-2.663-.81l31.96-30.586c.326.83.612 1.68.846 2.548"/><path d="M49.745 23.682c0 .166 0 .322-.01.488C49.469 11.318 38.5.977 25 .977S.53 11.318.265 24.17c0-.166-.01-.322-.01-.488C.255 10.606 11.337 0 25 0s24.745 10.606 24.745 23.682"/><path d="M45.102 24.707c0 10.244-8.684 18.555-19.388 18.555-6.01 0-11.387-2.627-14.949-6.739C14.306 40.185 19.367 42.48 25 42.48c10.704 0 19.388-8.31 19.388-18.554 0-4.492-1.663-8.604-4.439-11.817 3.194 3.31 5.153 7.735 5.153 12.598"/></g><ellipse cx="25" cy="23.926" fill="#f39e09" rx="19.388" ry="18.555"/><path fill="#e88102" d="M39.694 11.816c-3.398-2.802-7.816-4.492-12.653-4.492-10.704 0-19.388 8.31-19.388 18.555 0 4.629 1.765 8.857 4.694 12.11-4.123-3.409-6.735-8.438-6.735-14.063C5.612 13.682 14.296 5.37 25 5.37c5.867 0 11.133 2.5 14.694 6.445"/><path fill="#db6704" d="M23.786 19.2c-.347.38-.53.907-.53 1.581s.203 1.23.611 1.631c.409.4 1.062.781 1.96 1.152.897.362 1.744.743 2.54 1.133s1.48.84 2.062 1.338a5.4 5.4 0 0 1 1.357 1.748c.122.254.49.733.49.733v1.67c0 1.582-.52 2.87-1.572 3.867-1.05.996-2.47 1.582-4.275 1.748v2.773h-2.307v-2.802c-2.102-.215-3.714-.899-4.846-2.07-1.123-1.173-1.684-2.706-1.684-4.62v-1.465l4.877 1.465q0 1.582.735 2.402t2.082.82c.653 0 1.173-.185 1.55-.566.378-.38.562-.888.562-1.543 0-.732-.184-1.299-.561-1.718s-1.041-.811-1.98-1.182a42 42 0 0 1-2.622-1.123 9.2 9.2 0 0 1-2.072-1.319 5.3 5.3 0 0 1-1.337-1.728c-.306-.654-.459-1.445-.459-2.383V19.19s.909-1.63 1.653-2.304c1.102-1.016 2.572-1.602 4.398-1.768v-2.91h2.307v2.978c1.765.255 3.153.948 4.163 2.09.694.782 1.51 2.881 1.51 2.881v1.465H27.5c0-.957-.194-1.7-.582-2.217s-.938-.771-1.653-.771c-.632-.01-1.122.185-1.48.566"/><path fill="#fdd835" d="M27.398 28.74c0-.732-.184-1.299-.561-1.718s-1.041-.811-1.98-1.182a42 42 0 0 1-2.622-1.123 9.2 9.2 0 0 1-2.072-1.319 5.3 5.3 0 0 1-1.337-1.728c-.306-.654-.459-1.455-.459-2.383 0-1.562.551-2.851 1.653-3.857s2.572-1.602 4.398-1.768v-2.92h2.307v2.979c1.765.254 3.153.947 4.163 2.09s1.51 2.587 1.51 4.345H27.5c0-.957-.194-1.699-.582-2.216s-.938-.772-1.653-.772c-.632 0-1.132.195-1.48.576-.346.381-.53.908-.53 1.582s.204 1.23.612 1.631c.409.4 1.062.781 1.95 1.152.897.362 1.744.743 2.54 1.133s1.48.84 2.061 1.338a5.4 5.4 0 0 1 1.358 1.748c.326.664.49 1.465.49 2.393 0 1.582-.521 2.87-1.572 3.867s-2.47 1.582-4.276 1.748v2.773h-2.306v-2.802c-2.102-.215-3.714-.899-4.847-2.07-1.122-1.173-1.683-2.706-1.683-4.62h4.877q0 1.582.735 2.403.735.82 2.082.82c.653 0 1.173-.186 1.55-.567.378-.38.572-.878.572-1.533"/><g fill="#fff"><path fill-opacity=".314" d="M20.02 15.43a6.3 6.3 0 0 1 2.102-1.27l-3.459 3.32c.266-.78.715-1.455 1.357-2.05m5.674-4.688-1.276 1.22v-1.22zm6.05 15.498-8.336 7.979c-1.755-.284-3.133-.947-4.122-1.973a5.85 5.85 0 0 1-1.378-2.373l2.347-2.246h2.225q0 1.582.734 2.402.735.82 2.082.82c.653 0 1.173-.185 1.55-.566.378-.38.562-.889.562-1.543 0-.732-.184-1.299-.561-1.718s-1.04-.811-1.98-1.182a39 39 0 0 1-1.908-.8l3.02-2.892c.848.352 1.643.704 2.399 1.075.796.39 1.48.84 2.06 1.338.552.488.99 1.044 1.307 1.68m.654-6.093h-4.337l3.52-3.37c.541.957.817 2.08.817 3.37m-14.796 7.47h.724l-.693.664a7 7 0 0 1-.031-.664m6.265-6.67c.204.205.47.4.806.596l-3.02 2.89a7.8 7.8 0 0 1-1.49-1.025 5 5 0 0 1-.47-.459l3.582-3.428c.031.586.235 1.065.592 1.426m6.919-5.254-3.408 3.262a2.7 2.7 0 0 0-.45-1.015 1.86 1.86 0 0 0-1.224-.743l3.051-2.92c.786.342 1.46.81 2.03 1.416M25.245 37.11l1.184-1.132v1.132zm6.714-6.425a4.8 4.8 0 0 1-1.245 1.894 5.85 5.85 0 0 1-2.05 1.26z"/><path fill-opacity=".145" d="M41.174 13.682C28.621 17.9 18.54 27.168 13.601 38.935a19 19 0 0 1-1.255-.957c-2.929-3.251-4.694-7.48-4.694-12.1 0-10.243 8.684-18.554 19.388-18.554 4.837 0 9.255 1.69 12.643 4.492.54.596 1.03 1.221 1.49 1.866"/></g></svg>