<svg xmlns="http://www.w3.org/2000/svg" width="50" height="50" fill="none" viewBox="0 0 50 50"><path fill="#013499" d="M44.26 50c-.03-.95-.03-1.89-.03-2.89H32.98V33.92h4.2v9.9h4.72v-9.9h4.28v10.14h1.48c0 1.95 0 3.86-.07 5.81-.92.03-1.78.02-2.64.03-.17 0-.35.06-.52.1z"/><path d="M44.23 47.11H32.98V33.92h4.2v9.9h4.72v-9.9h4.28v10.14h1.48c0 1.95 0 3.86-.07 5.81-.92.03-1.78.02-2.64.03-.17 0-.35.06-.52.1h-.17c-.03-.95-.03-1.89-.03-2.89"/><path fill="#013499" d="M45.65.09c.01.13.02.26.02.39V22.5c-.17-.21-.27-.32-.36-.44-2.17-3.26-4.34-6.53-6.5-9.8-.37-.55-.45-1.18-.45-1.82.03-3.45.04-6.9.04-10.4.04-.04.09-.04.2-.02.24.05.43.07.61.07z"/><path d="M45.67.48V22.5c-.17-.21-.27-.32-.36-.44-2.17-3.26-4.34-6.53-6.5-9.8-.37-.55-.45-1.18-.45-1.82.03-3.45.04-6.9.04-10.4.04-.04.09-.04.2-.02.24.05.43.07.61.07h6.44c.01.13.02.26.02.39"/><path fill="#1e4ca4" d="M45.66.07c-2.16.02-4.3.02-6.45.02-.18 0-.37-.02-.58-.07C40.92 0 43.24 0 45.61 0c.05.01.05.03.05.07"/><path d="M39.21.09c-.18 0-.37-.02-.58-.07C40.92 0 43.24 0 45.61 0c.05.01.05.03.05.07-2.16.02-4.3.02-6.45.02"/><path fill="#2f59ac" d="M44.48 50c.12-.04.3-.1.47-.1.86-.01 1.72 0 2.63.01.05.02.05.03.04.07-1.04.02-2.07.02-3.14.02"/><path d="M44.95 49.9c.86-.01 1.72 0 2.63.01.05.02.05.03.04.07-1.04.02-2.07.02-3.14.02.12-.04.3-.1.47-.1"/><path fill="#fe0101" d="M25.75 8.84c-.89-1.43-1.77-2.83-2.71-4.34.71 0 1.27 0 1.82-.01 2.2-.03 4.4-.06 6.6-.12.53-.01.91.17 1.22.57.15.19.29.39.43.6 4.67 7.29 9.35 14.57 14.03 21.86.89 1.4 1.76 2.81 2.64 4.22.06.11.12.23.22.4-.18.01-.31.02-.43.02-2.73.02-5.46.03-8.18.06-.43.01-.68-.1-.91-.45-2.21-3.45-4.45-6.88-6.68-10.33-2.68-4.15-5.35-8.3-8.05-12.48"/><path d="M23.04 4.5c.71 0 1.27 0 1.82-.01 2.2-.03 4.4-.06 6.6-.12.53-.01.91.17 1.22.57.15.19.29.39.43.6 4.67 7.29 9.35 14.57 14.03 21.86.89 1.4 1.76 2.81 2.64 4.22.06.11.12.23.22.4-.18.01-.31.02-.43.02-2.73.02-5.46.03-8.18.06-.43.01-.68-.1-.91-.45-2.21-3.45-4.45-6.88-6.68-10.33-2.68-4.15-5.35-8.3-8.05-12.48-.89-1.43-1.77-2.83-2.71-4.34"/><path fill="#fe0101" d="M12.24 4.61c.26-.05.52-.13.79-.13 2.59-.03 5.18-.04 7.76-.09.4 0 .62.11.82.42 3.29 5.16 6.61 10.31 9.9 15.46.79 1.23 1.54 2.49 2.3 3.74.08.14.15.28.25.48h-.56c-2.69 0-5.38-.01-8.07.01-.43.01-.68-.12-.89-.47-1.57-2.51-3.16-5.01-4.75-7.5-.85-1.34-1.72-2.66-2.58-3.98-.13-.19-.28-.36-.45-.61-.21-.4-.38-.76-.59-1.09-.95-1.46-1.93-2.9-2.87-4.37-.39-.6-.71-1.25-1.06-1.87"/><path d="M13.03 4.48c2.59-.03 5.18-.04 7.76-.09.4 0 .62.11.82.42 3.29 5.16 6.61 10.31 9.9 15.46.79 1.23 1.54 2.49 2.3 3.74.08.14.15.28.25.48h-.56c-2.69 0-5.38-.01-8.07.01-.43.01-.68-.12-.89-.47-1.57-2.51-3.16-5.01-4.75-7.5-.85-1.34-1.72-2.66-2.58-3.98-.13-.19-.28-.36-.45-.61-.21-.4-.38-.76-.59-1.09-.95-1.46-1.93-2.9-2.87-4.37-.39-.6-.71-1.25-1.06-1.87.26-.05.52-.13.79-.13"/><path fill="#02349a" d="M9.38 19.76c.17-.59.3-1.14.48-1.69.04-.12.22-.29.34-.3 1.75-.01 3.5-.01 5.28-.01v13.18h-3.44v-9.69c-.03 0-.07-.01-.1-.01-.87 3.24-1.74 6.47-2.6 9.71h-3.2c-.86-3.24-1.73-6.47-2.59-9.71-.02 0-.05.01-.07.01v9.69H0V17.78h5.63c.7 2.63 1.39 5.24 2.08 7.85.03 0 .06.01.09.01.52-1.95 1.05-3.89 1.58-5.88"/><path d="M9.86 18.07c.04-.12.22-.29.34-.3 1.75-.01 3.5-.01 5.28-.01v13.18h-3.44v-9.69c-.03 0-.07-.01-.1-.01-.87 3.24-1.74 6.47-2.6 9.71h-3.2c-.86-3.24-1.73-6.47-2.59-9.71-.02 0-.05.01-.07.01v9.69H0V17.78h5.63c.7 2.63 1.39 5.24 2.08 7.85.03 0 .06.01.09.01.52-1.95 1.05-3.89 1.58-5.88.17-.59.3-1.14.48-1.69"/><path fill="#02349a" d="M22.66 37.79v2.02h-4.27V26.66c.13-.01.26-.02.39-.02 2.25-.01 4.5-.02 6.75.01.63 0 1.27.07 1.87.22 1.46.39 2.38 1.34 2.59 2.77.11.76.11 1.57-.04 2.32-.36 1.68-1.7 2.71-3.66 2.89-.98.09-1.97.07-2.96.09-.2.01-.4 0-.67 0zm1.13-5.52c.43-.07.88-.09 1.29-.21.59-.18.88-.68.87-1.3-.02-.62-.32-1.15-.91-1.26-.77-.15-1.56-.16-2.34-.24v3.01z"/><path d="M22.66 39.81h-4.27V26.66c.13-.01.26-.02.39-.02 2.25-.01 4.5-.02 6.75.01.63 0 1.27.07 1.87.22 1.46.39 2.38 1.34 2.59 2.77.11.76.11 1.57-.04 2.32-.36 1.68-1.7 2.71-3.66 2.89-.98.09-1.97.07-2.96.09-.2.01-.4 0-.67 0v4.87m2.42-7.75c.59-.18.88-.68.87-1.3-.02-.62-.32-1.15-.91-1.26-.77-.15-1.56-.16-2.34-.24v3.01h1.09c.43-.07.88-.09 1.29-.21"/><path fill="#b9babc" d="M12.2 4.6c.39.63.71 1.28 1.1 1.88.94 1.47 1.92 2.91 2.87 4.37.21.33.38.69.57 1.07-.77 1.29-1.55 2.54-2.34 3.79-.06.1-.24.19-.36.19-2.96.01-5.93.01-9.05.01.34-.6.62-1.14.95-1.65 1.94-3.1 3.9-6.2 5.86-9.3.09-.14.24-.24.4-.36"/><path d="M13.3 6.48c.94 1.47 1.92 2.91 2.87 4.37.21.33.38.69.57 1.07-.77 1.29-1.55 2.54-2.34 3.79-.06.1-.24.19-.36.19-2.96.01-5.93.01-9.05.01.34-.6.62-1.14.95-1.65 1.94-3.1 3.9-6.2 5.86-9.3.09-.14.24-.24.4-.36.39.63.71 1.28 1.1 1.88"/></svg>