<svg xmlns="http://www.w3.org/2000/svg" width="50" height="50" fill="none" viewBox="0 0 50 50"><path fill="#0066b3" d="M25.515 41.847a19.2 19.2 0 0 1-10.434-2.725c-3.12-1.879-5.591-4.603-7.098-7.83a17.23 17.23 0 0 1-1.37-10.296c.614-3.487 2.292-6.72 4.82-9.292 2.53-2.571 5.796-4.365 9.387-5.154a19.36 19.36 0 0 1 10.787.72c3.443 1.259 6.419 3.469 8.553 6.352a17.4 17.4 0 0 1 3.434 9.842 17.2 17.2 0 0 1-1.21 6.878 17.8 17.8 0 0 1-3.861 5.909 18.6 18.6 0 0 1-5.924 4.04 19.3 19.3 0 0 1-7.084 1.556m24.474-18.56c-.146-4.742-1.754-9.336-4.619-13.202s-6.86-6.83-11.48-8.516A26 26 0 0 0 19.416.606c-4.817 1.06-9.2 3.466-12.593 6.916S1.178 15.309.352 19.987a23.12 23.12 0 0 0 1.83 13.815c2.02 4.33 5.33 7.989 9.515 10.513s9.055 3.802 13.996 3.67a25.9 25.9 0 0 0 9.521-2.085c3-1.289 5.706-3.133 7.963-5.427a23.9 23.9 0 0 0 5.189-7.942 23.1 23.1 0 0 0 1.623-9.244"/><path fill="#fff" d="M24.956 41.424c-4.749-.04-9.292-1.862-12.66-5.077C8.93 33.132 7.008 28.78 6.94 24.222s1.727-8.96 4.998-12.264c3.27-3.305 7.76-5.25 12.505-5.418h.533c4.779-.007 9.368 1.794 12.774 5.013s5.352 7.595 5.42 12.182-1.75 9.015-5.06 12.325-7.843 5.234-12.62 5.358h-.534m0 .43h.546c4.898-.126 9.548-2.098 12.941-5.49s5.258-7.932 5.188-12.635c-.069-4.703-2.066-9.19-5.558-12.49-3.492-3.298-8.197-5.144-13.097-5.136h-.546c-4.94.067-9.65 2.015-13.093 5.415s-5.339 7.975-5.269 12.716c.07 4.742 2.099 9.262 5.641 12.568s8.308 5.124 13.247 5.057"/><path fill="#0066b3" d="M24.99 6.969h-.52c-4.703.062-9.187 1.914-12.467 5.15-3.279 3.236-5.085 7.589-5.02 12.103.064 4.514 1.994 8.818 5.365 11.966 3.37 3.148 7.906 4.881 12.608 4.82h.52c4.626-.167 9-2.064 12.188-5.286s4.936-7.513 4.87-11.956-1.938-8.685-5.22-11.819c-3.28-3.134-7.71-4.912-12.338-4.953zm-.034 35.301a19.65 19.65 0 0 1-10.448-3.04c-3.1-1.97-5.533-4.765-7-8.043a17.64 17.64 0 0 1-1.26-10.41c.645-3.514 2.346-6.77 4.892-9.369a18.9 18.9 0 0 1 6.047-4.143 19.6 19.6 0 0 1 7.243-1.59h.56c5.06-.068 9.94 1.796 13.568 5.183s5.706 8.017 5.776 12.874c.071 4.858-1.871 9.543-5.4 13.025-3.527 3.483-8.352 5.477-13.412 5.545h-.566"/><path fill="#fff" d="m42.647 37.61-.796-1.169-.572.695zm-2.796-.303-.138-.057s-.046-.038-.046-.063a.13.13 0 0 1 0-.095q.054-.077.118-.145.057-.08.125-.152a.4.4 0 0 1 .086-.07.07.07 0 0 1 .052 0h.053l.658.228.763-.922-.368-.53a.3.3 0 0 1 0-.057.1.1 0 0 1 0-.063l.052-.089.105-.133.119-.132a.13.13 0 0 1 .085-.044s.046 0 .073.031a.7.7 0 0 1 .085.114l1.638 2.482a.3.3 0 0 1 0 .063.3.3 0 0 1 0 .076l-.065.1a2 2 0 0 1-.125.152l-.145.177-.105.095a.13.13 0 0 1-.073 0 .2.2 0 0 1-.085 0zm3.026-2.81a.45.45 0 0 0 .191.063q.09.018.178 0a.4.4 0 0 0 .164-.108.7.7 0 0 0 .171-.22l.21-.354-.822-.449-.21.36q-.069.114-.105.24a.6.6 0 0 0 0 .183.5.5 0 0 0 .072.164.44.44 0 0 0 .158.127m-.29.587a1.1 1.1 0 0 1-.316-.259.8.8 0 0 1-.17-.335.9.9 0 0 1 0-.423c.042-.192.12-.376.23-.543l.427-.732a.205.205 0 0 1 .112-.107.23.23 0 0 1 .171.037l2.467 1.333a.18.18 0 0 1 .112.12.2.2 0 0 1 0 .145l-.934 1.547-.033.032h-.138l-.105-.05-.106-.064a.3.3 0 0 1-.059-.057.07.07 0 0 1 0-.044.05.05 0 0 1 0-.044l.658-1.15-.71-.385-.264.455a1.9 1.9 0 0 1-.302.404 1.1 1.1 0 0 1-.33.202.76.76 0 0 1-.354.044.95.95 0 0 1-.375-.113m.736-3.032a.06.06 0 0 1-.04 0v-.056a1 1 0 0 1 0-.101q.021-.081.054-.158.014-.114.052-.221a.3.3 0 0 1 .053-.095.1.1 0 0 1 .053-.038h.835q.141.015.283 0 .107-.014.204-.063a.4.4 0 0 0 .138-.12.6.6 0 0 0 .086-.177l.046-.12-1.237-.391h-.04a.07.07 0 0 1 0-.057 1 1 0 0 1 0-.095l.046-.145.053-.14.053-.088.046-.038h.04l1.23.392.045-.114a.6.6 0 0 0 0-.208.34.34 0 0 0-.04-.177.6.6 0 0 0-.117-.164 2 2 0 0 0-.204-.164l-.658-.436.04-.088a.2.2 0 0 1 0-.07 1 1 0 0 1 0-.1 1.2 1.2 0 0 1 .111-.31 1 1 0 0 1 .046-.095l.046-.038a.07.07 0 0 1 .053 0h.085l.066.05.546.405q.136.092.25.208.09.08.151.183a.5.5 0 0 1 .086.177q.006.097 0 .196a.6.6 0 0 1 .125-.126.5.5 0 0 1 .164-.089q.11-.034.224-.05.154-.012.31 0h.822a.06.06 0 0 1 .04 0v.056a1 1 0 0 1 0 .095 1 1 0 0 1-.047.152 1 1 0 0 1-.06.151c0 .038 0 .076-.052.089a.1.1 0 0 1-.052.044h-.783a1.6 1.6 0 0 0-.257 0 .5.5 0 0 0-.184.05.5.5 0 0 0-.132.114.6.6 0 0 0-.092.177l-.04.12 1.159.366a.1.1 0 0 1 .04 0v.057a.3.3 0 0 1 0 .095.6.6 0 0 1-.047.145 1 1 0 0 1-.052.139.4.4 0 0 1-.053.088.1.1 0 0 1-.046.038h-.046l-1.099-.233-.04.113a.5.5 0 0 0-.039.196q0 .086.04.164.045.088.118.158.085.088.19.152l.586.397q.027.015.046.038a.1.1 0 0 1 0 .064.3.3 0 0 1 0 .1.7.7 0 0 1-.046.158 1 1 0 0 1-.059.146 1 1 0 0 1-.046.088.1.1 0 0 1-.046.038h-.125l-.099-.107-.48-.354a3 3 0 0 1-.23-.183 1 1 0 0 1-.145-.17.6.6 0 0 1-.072-.165.6.6 0 0 1 0-.183q-.072.08-.158.145a.8.8 0 0 1-.184.095 1.2 1.2 0 0 1-.237.057q-.165.01-.33 0h-.933m2.223-4.793a3.5 3.5 0 0 1-.44-.265.9.9 0 0 1-.25-.253.5.5 0 0 1-.112-.272.9.9 0 0 1 0-.322v-.126c0-.038 0-.076.046-.114a.4.4 0 0 1 .046-.088l.046-.057h.322q.106.003.204.044c.04 0 .06.044.053.07a.1.1 0 0 1 0 .05.2.2 0 0 0-.053.057.5.5 0 0 0-.046.082.5.5 0 0 0 0 .114.2.2 0 0 0 0 .095.2.2 0 0 0 0 .088q.035.046.079.082a1 1 0 0 0 .138.101l2.31-.739a.4.4 0 0 1 .13 0 .1.1 0 0 1 .073 0q.015.05 0 .101.008.091 0 .183v.177a.23.23 0 0 1-.04.108.12.12 0 0 1-.052.056l-.085.032-1.04.31-.329.1-.335.083.316.145.315.158.941.48q.03.016.053.044a.2.2 0 0 1 0 .057 1 1 0 0 1 0 .107v.177q.005.086 0 .17a.3.3 0 0 1-.04.095.06.06 0 0 1-.059 0 .3.3 0 0 1-.151 0zm-.54-2.526h-.045a.07.07 0 0 1 0-.05.3.3 0 0 1 0-.096 1 1 0 0 1 0-.151v-.253a.2.2 0 0 1 0-.057h.046l2.631-.075v-.67c-.388-.038-.723-.07-1.006-.113a6 6 0 0 1-.744-.127 3 3 0 0 1-.506-.158 1.2 1.2 0 0 1-.316-.208.7.7 0 0 1-.171-.272 1.7 1.7 0 0 1-.053-.41.13.13 0 0 1 .04-.044h.204a1 1 0 0 1 .177 0h.099a.1.1 0 0 1-.013.025.1.1 0 0 1 0 .044.3.3 0 0 0 .04.14q.042.082.124.132.129.07.27.113.22.066.448.108l.657.088c.264.032.58.057.948.089a.37.37 0 0 1 .177.05.2.2 0 0 1 .06.127l.046 1.534a.15.15 0 0 1-.046.133.22.22 0 0 1-.158.056zm.238-3.202h-.296a.6.6 0 0 1-.093-.088q-.057-.069-.124-.165c-.047-.063-.08-.145-.119-.233a3 3 0 0 1-.085-.297 1.5 1.5 0 0 1 0-.587c.03-.177.105-.344.217-.487.119-.152.272-.277.447-.366a2.3 2.3 0 0 1 .658-.227c.247-.048.5-.058.75-.032.207.025.407.091.585.196.17.097.311.231.415.391.116.166.194.353.23.55q.015.127 0 .252v.234a1 1 0 0 1-.046.196.5.5 0 0 1-.06.126l-.045.057a.2.2 0 0 1-.053 0 .2.2 0 0 1-.079 0h-.243a.4.4 0 0 1-.086 0 .08.08 0 0 1-.052 0 .04.04 0 0 1 0-.038.12.12 0 0 1 0-.095l.066-.164a1 1 0 0 0 .092-.132.9.9 0 0 0 0-.29.7.7 0 0 0-.145-.317.8.8 0 0 0-.27-.202 1.4 1.4 0 0 0-.381-.088 2 2 0 0 0-.474.038 1.7 1.7 0 0 0-.474.145 1 1 0 0 0-.31.221.7.7 0 0 0-.144.284.75.75 0 0 0 0 .341q.025.151.099.284.057.1.132.19a.7.7 0 0 0 .118.12.24.24 0 0 1 .06.082v.069h-.225m-.125-7.407-.23-.228a1 1 0 0 0-.178-.252.5.5 0 0 0-.164-.101.4.4 0 0 0-.178 0 .7.7 0 0 0-.184.063.7.7 0 0 0-.151.114.4.4 0 0 0-.066.176.45.45 0 0 0 0 .19.9.9 0 0 0 .119.271l.164.297zm-2.02 1.774a.08.08 0 0 1-.052 0l-.053-.031-.059-.076a1 1 0 0 1-.085-.133l-.066-.132a.3.3 0 0 1 0-.095.1.1 0 0 1 0-.063.05.05 0 0 1 0-.032l1.066-.556-.112-.208a.6.6 0 0 0-.138-.177.3.3 0 0 0-.152-.076.6.6 0 0 0-.19 0h-.237l-.803.209a.1.1 0 0 1-.06 0s-.039 0-.058-.032a.5.5 0 0 1-.073-.082c0-.038-.052-.088-.085-.145a2 2 0 0 1-.08-.158.2.2 0 0 1 0-.095.14.14 0 0 1 0-.056h.172l.658-.089h.237a2 2 0 0 1 .197 0q.09.016.171.057.081.03.145.088-.015-.142 0-.284a.8.8 0 0 1 .052-.246.75.75 0 0 1 .382-.373 1 1 0 0 1 .388-.12.85.85 0 0 1 .375.05q.196.083.349.228.216.226.362.5l.375.675a.18.18 0 0 1 0 .139.19.19 0 0 1-.112.114zm-.348-5.115-1.414.524.539.695zm-.967 2.526a.4.4 0 0 1-.092.107.102.102 0 0 1-.072.038.2.2 0 0 1-.086-.056l-.197-.07-.119-.152a.4.4 0 0 1-.052-.094.06.06 0 0 1 0-.057.06.06 0 0 1 0-.05l.375-.55-.718-.928-.657.22h-.126a.3.3 0 0 1-.078-.062l-.112-.133-.08-.152a.15.15 0 0 1 0-.094.1.1 0 0 1 .053-.057l.139-.057 2.888-.941h.079a.2.2 0 0 1 .072 0q.047.036.086.082c.039.038.078.088.131.152l.145.183a.5.5 0 0 1 .066.114q.014.04 0 .082a.3.3 0 0 1-.04.07zm-1.316-4.597a.7.7 0 0 0 .105-.146.3.3 0 0 0 0-.151.4.4 0 0 0-.059-.152 1 1 0 0 0-.158-.183l-.335-.139-.573.588.27.246q.084.079.19.126a.4.4 0 0 0 .172 0 .405.405 0 0 0 .283-.139m-.822 1.086a.8.8 0 0 0 .111-.164.4.4 0 0 0 0-.177.45.45 0 0 0-.072-.189.8.8 0 0 0-.197-.215L39.2 8.8l-.658.632.348.31a.66.66 0 0 0 .369.182q.088.018.177 0a.5.5 0 0 0 .158-.107m.514.436a1.1 1.1 0 0 1-.244.19.7.7 0 0 1-.27.081.8.8 0 0 1-.276 0 1.2 1.2 0 0 1-.276-.075 2 2 0 0 1-.27-.133 4 4 0 0 1-.276-.215l-.625-.568a.19.19 0 0 1-.073-.126.19.19 0 0 1 .066-.152l1.934-1.99a.19.19 0 0 1 .152-.069c.052.001.101.021.138.057l.592.53q.194.165.335.373.116.152.158.335a.7.7 0 0 1 0 .322.7.7 0 0 1-.197.303.9.9 0 0 1-.171.139.6.6 0 0 1-.197.076.7.7 0 0 1-.204 0 .9.9 0 0 1-.211-.05q.078.105.125.227.04.12.04.246a.9.9 0 0 1-.06.253.8.8 0 0 1-.17.246m-2.672-3.025q.128-.19.217-.398a.84.84 0 0 0 .086-.36.6.6 0 0 0-.086-.322.9.9 0 0 0-.296-.278.77.77 0 0 0-.743-.082 1.1 1.1 0 0 0-.316.215q-.157.15-.276.328a2.3 2.3 0 0 0-.224.404.84.84 0 0 0-.085.36.57.57 0 0 0 .085.322.9.9 0 0 0 .296.278.86.86 0 0 0 .388.14.8.8 0 0 0 .355-.058q.183-.078.323-.214a2.4 2.4 0 0 0 .276-.335m.599.335a2.5 2.5 0 0 1-.48.53c-.16.128-.347.222-.547.278a1.4 1.4 0 0 1-.598 0 1.8 1.8 0 0 1-.658-.259 2.1 2.1 0 0 1-.5-.43 1.13 1.13 0 0 1-.23-.492c-.028-.19-.01-.385.052-.568q.115-.34.33-.632c.125-.197.286-.372.473-.518.157-.128.34-.22.54-.271a1.3 1.3 0 0 1 .598 0c.236.042.46.13.658.259q.285.17.493.423c.12.143.198.312.23.492.032.188.018.38-.039.562a2.3 2.3 0 0 1-.322.632M35.483 4.55a.6.6 0 0 1-.06.108.2.2 0 0 1-.052.063.1.1 0 0 1-.046 0 .07.07 0 0 1-.047 0l-.98-.43L33.2 6.577a.06.06 0 0 1 0 .038h-.158l-.152-.063-.138-.07a.24.24 0 0 1-.085-.056.13.13 0 0 1-.04-.05V6.33l1.224-2.583q.032-.077.112-.113a.2.2 0 0 1 .151 0l1.408.631s.04.038.04.082a.5.5 0 0 1-.066.196m-3.889-.164a2 2 0 0 0 .086-.442.9.9 0 0 0-.033-.367.63.63 0 0 0-.184-.277.9.9 0 0 0-.362-.177.8.8 0 0 0-.421 0 .7.7 0 0 0-.316.158 1 1 0 0 0-.237.29 2.3 2.3 0 0 0-.157.392q-.065.208-.093.423a.9.9 0 0 0 0 .366.63.63 0 0 0 .185.284.94.94 0 0 0 .783.177.8.8 0 0 0 .322-.158q.145-.132.237-.303.112-.175.19-.366m.658.151a2.3 2.3 0 0 1-.296.632 1.4 1.4 0 0 1-.434.48c-.172.1-.365.162-.566.183a1.9 1.9 0 0 1-.658-.07 2 2 0 0 1-.611-.265 1.1 1.1 0 0 1-.375-.404 1.2 1.2 0 0 1-.132-.55q.004-.363.112-.713.097-.336.29-.631c.113-.166.26-.308.434-.417.171-.102.365-.165.565-.183.222-.02.446.004.658.07.215.053.42.14.606.258.156.103.283.242.368.404.088.169.135.355.138.543a2.2 2.2 0 0 1-.105.708m-4.198.536a.1.1 0 0 1 0 .038.13.13 0 0 1-.059 0h-.519a.1.1 0 0 1-.047-.038.04.04 0 0 1 0-.044l.25-2.526-.697-.063c-.085.366-.164.676-.237.947a6 6 0 0 1-.23.695q-.087.241-.224.46a1 1 0 0 1-.256.272.7.7 0 0 1-.303.127q-.181.02-.362 0h-.066l-.039-.038a.3.3 0 0 1 0-.082 1 1 0 0 1 0-.12v-.164a.16.16 0 0 1 0-.095.1.1 0 0 1 .018-.062.1.1 0 0 1 .054-.04h.053q.075.015.151 0a.5.5 0 0 0 .152-.107q.087-.111.144-.24.107-.199.165-.416c.059-.165.118-.38.184-.632q.098-.379.204-.89a.4.4 0 0 1 .079-.17.2.2 0 0 1 .138 0l1.592.144a.18.18 0 0 1 .132.064.18.18 0 0 1 0 .151zM23.18 2.485l-.355 1.352.92-.063zm1.67 2.173c0 .056.04.107.047.139a.07.07 0 0 1 0 .075.13.13 0 0 1-.092.038h-.559v-.05l-.263-.632-1.264.152-.158.631a.2.2 0 0 1 0 .063.1.1 0 0 1-.046.038h-.46a.14.14 0 0 1-.092-.031.09.09 0 0 1 0-.076.4.4 0 0 1 0-.139l.763-2.823a.2.2 0 0 1 0-.07.14.14 0 0 1 .06-.043.5.5 0 0 1 .117 0h.586a.13.13 0 0 1 .072.037q.027.032.04.07zm-3.604.48a.07.07 0 0 1 0 .05l-.04.044-.098.038a.5.5 0 0 1-.152.044 1 1 0 0 1-.158.032H20.7a.1.1 0 0 1-.066 0 .1.1 0 0 1 0-.038l-.349-1.225-1.177.297.315 1.225a.06.06 0 0 1 0 .044l-.046.044-.092.045-.151.044h-.158a.4.4 0 0 1-.105 0 .13.13 0 0 1-.06 0 .04.04 0 0 1 0-.038l-.776-2.86a.1.1 0 0 1 0-.045l.04-.044.098-.038.152-.05h.263a.08.08 0 0 1 .059 0v.037l.29 1.112 1.177-.285-.29-1.111a.06.06 0 0 1 0-.044.1.1 0 0 1 .04-.044l.092-.045.158-.044.158-.031h.099a.08.08 0 0 1 .059 0h.033zm-8.066.309-.283.196q-.144.075-.257.19a.4.4 0 0 0-.092.163.3.3 0 0 0 0 .17q.031.09.08.171.052.08.13.14a.4.4 0 0 0 .165.069.5.5 0 0 0 .198 0q.146-.047.276-.126l.296-.184zm1.973 1.819a.06.06 0 0 1 0 .044.07.07 0 0 1 0 .05l-.072.07-.131.088-.139.076-.098.038h-.066a.05.05 0 0 1 0-.032l-.658-.985-.204.127a.6.6 0 0 0-.178.145.4.4 0 0 0-.072.145.6.6 0 0 0 0 .183q.012.115.04.228l.17.694V8.2a.2.2 0 0 1-.039.064l-.079.069-.145.088q-.075.05-.157.089l-.1.038h-.144V8.49a1 1 0 0 1-.033-.107l-.131-.632q-.03-.111-.033-.227a1 1 0 0 1 0-.196q.017-.084.046-.164.032-.078.085-.146a1.3 1.3 0 0 1-.29.051.7.7 0 0 1-.262 0 .7.7 0 0 1-.224-.126.8.8 0 0 1-.19-.215.9.9 0 0 1-.152-.36.7.7 0 0 1 .033-.366q.071-.196.21-.354.222-.22.494-.379l.658-.404a.23.23 0 0 1 .138 0 .2.2 0 0 1 .078.035q.036.027.053.066zm-5.263.67.58 1.262.67-.562zm2.698.757q.068.034.125.082a.09.09 0 0 1 .04.07.17.17 0 0 1-.053.082c0 .038-.08.075-.139.132q-.075.066-.158.12l-.085.063a.14.14 0 0 1-.066 0H12.2l-.6-.328-.907.777.27.587a.3.3 0 0 1 0 .063.06.06 0 0 1 0 .057.3.3 0 0 1-.066.082c0 .032-.072.07-.125.12l-.138.107a.16.16 0 0 1-.092.032.1.1 0 0 1-.06-.044.6.6 0 0 1-.065-.126l-1.171-2.71a.14.14 0 0 1 0-.139l.079-.094.15-.133.179-.145a.5.5 0 0 1 .118-.076.2.2 0 0 1 .079 0l.079.032zm-2.56 2.488a.04.04 0 0 1 0 .038.1.1 0 0 1 0 .063l-.046.082a1 1 0 0 1-.092.127l-.111.113a.3.3 0 0 1-.073.063.1.1 0 0 1-.059 0 .06.06 0 0 1-.046 0l-1.04-.783-.756.916 1.026.79a.04.04 0 0 1 0 .037v.057a.94.94 0 0 1-.138.215 1 1 0 0 1-.112.114.2.2 0 0 1-.079.063.1.1 0 0 1-.052 0 .06.06 0 0 1-.046 0l-2.382-1.832a.1.1 0 0 1-.033-.038.1.1 0 0 1 0-.063s0-.05.046-.088l.092-.12.105-.12a1 1 0 0 1 .086-.063h.099l.934.72.756-.916-.914-.72v-.038a.1.1 0 0 1 0-.063.73.73 0 0 1 .145-.208l.105-.12.072-.064h.112zM6.871 13.79a.8.8 0 0 0-.21-.075.39.39 0 0 0-.376.107q-.121.117-.197.265l-.21.341.907.486.19-.334a1 1 0 0 0 .132-.316.4.4 0 0 0 0-.208.36.36 0 0 0-.098-.158.4.4 0 0 0-.138-.108m.283-.6q.185.107.335.26c.09.1.155.219.19.347.034.147.034.3 0 .448q-.075.335-.256.632l-.394.681-.053.064a.1.1 0 0 1-.06 0 .2.2 0 0 1-.078 0 .3.3 0 0 1-.092 0L4.16 14.23v-.056a.4.4 0 0 1 .04-.102 1 1 0 0 1 .072-.132q.035-.069.079-.133l.066-.076a.1.1 0 0 1 .052 0 .08.08 0 0 1 .053 0l.96.518.224-.385a2.2 2.2 0 0 1 .342-.461 1 1 0 0 1 .349-.221.9.9 0 0 1 .382-.05c.143.011.282.052.407.12m-.75 3.258h.04c.04 0 0 .032 0 .057a1 1 0 0 1 0 .1q-.022.075-.053.146a1 1 0 0 1-.105.227.14.14 0 0 1-.053.038.05.05 0 0 1-.046 0l-2.48-.827-.23.632c.348.17.658.322.895.454.236.133.467.266.657.38q.22.148.415.328.137.132.21.303c.046.099.064.208.053.316a1.2 1.2 0 0 1-.079.34.4.4 0 0 1-.033.051.1.1 0 0 1-.022.022.1.1 0 0 1-.03.01.2.2 0 0 1-.08 0l-.124-.038-.152-.063a.25.25 0 0 1-.092-.05.079.079 0 0 1-.06-.032.1.1 0 0 1 .001-.045.4.4 0 0 0 0-.145.3.3 0 0 0-.072-.164 1.2 1.2 0 0 0-.204-.202 3 3 0 0 0-.375-.253q-.238-.14-.592-.322c-.237-.126-.52-.259-.843-.417a.33.33 0 0 1-.15-.107.17.17 0 0 1 0-.139l.539-1.446a.18.18 0 0 1 .098-.107.2.2 0 0 1 .158 0zM2.627 20.44l1.277.67.157-.872zm2.632-1.017a1 1 0 0 1 .151 0s.06 0 .072.032c.014.031 0 .05 0 .095v.183c0 .076-.032.145-.039.19-.007.043 0 .081 0 .107l-.04.038a.1.1 0 0 1-.059 0l-.658.094-.21 1.162.592.297h.053a.1.1 0 0 1 0 .057.3.3 0 0 1 0 .1 1 1 0 0 1 0 .165 1 1 0 0 1-.04.17.115.115 0 0 1-.046.082.13.13 0 0 1-.085 0l-.132-.062-2.763-1.377-.066-.044a.14.14 0 0 1 0-.07.4.4 0 0 1 0-.113v-.196c0-.082 0-.17.046-.228q.015-.065.04-.126a.2.2 0 0 1 .052-.057.2.2 0 0 1 .086 0zM2.732 23.06a.54.54 0 0 0-.282.05.4.4 0 0 0-.237.316 1 1 0 0 0 0 .19v.271H3.31v-.284a.8.8 0 0 0-.065-.234.4.4 0 0 0-.112-.164.5.5 0 0 0-.184-.107.7.7 0 0 0-.23-.038m0-.67c.164.004.327.036.48.095a.984.984 0 0 1 .56.644q.071.264.058.537v.29h1.04a.06.06 0 0 1 .039 0 .1.1 0 0 1 0 .057 1 1 0 0 1 0 .095q.005.075 0 .152.006.078 0 .158a.4.4 0 0 1 0 .094.1.1 0 0 1 0 .05h-.046l-2.928-.075a.24.24 0 0 1-.17-.063.23.23 0 0 1-.06-.158v-.947q.013-.12.04-.24.041-.146.118-.278a.8.8 0 0 1 .204-.24.8.8 0 0 1 .283-.152 1.3 1.3 0 0 1 .362-.044m1.973 3.038h.205a.1.1 0 0 1 .045 0 .06.06 0 0 1 0 .044L5.114 27a.2.2 0 0 1-.102.194.2.2 0 0 1-.082.021l-2.823.31a.18.18 0 0 1-.164-.038.2.2 0 0 1-.066-.12l-.151-1.516a.1.1 0 0 1 0-.038.1.1 0 0 1 .04-.031.2.2 0 0 1 .078 0h.323a.1.1 0 0 1 .046 0 .06.06 0 0 1 0 .038l.138 1.105.783-.089-.086-.947a.07.07 0 0 1 0-.044l.04-.032a.2.2 0 0 1 .072 0h.362v.038l.112.935.927-.114-.131-1.118a.1.1 0 0 1 0-.044.1.1 0 0 1 .04-.032.2.2 0 0 1 .078 0h.119M2.923 29.64l.21.701.659-.095.513-.05h.678l.236.012.171.057-.368-1.218zm3.066-1.894h.04a.1.1 0 0 1 .046 0q.025.035.04.075l.045.127c0 .056 0 .094.033.132a.5.5 0 0 1 0 .089.1.1 0 0 1 0 .05h-.04l-.736.202.592 1.996.73-.145h.046a.1.1 0 0 1 .046.038l.04.075.046.127c0 .056 0 .1.033.139a.4.4 0 0 1 0 .082.1.1 0 0 1 0 .05h-.04l-1.125.31a.1.1 0 0 1-.105 0 .12.12 0 0 1-.06-.076l-.045-.114a1 1 0 0 0-.204-.057.8.8 0 0 0-.237-.044H4.39c-.164 0-.361.038-.592.07q-.343.046-.796.12a.34.34 0 0 1-.17 0 .14.14 0 0 1-.059-.043.13.13 0 0 1-.027-.065l-.46-1.534a.15.15 0 0 1 0-.14.22.22 0 0 1 .13-.088l2.415-.631-.079-.253a.1.1 0 0 1 0-.1s.046-.039.086-.051zm.165 3.789.111-.044h.165l.697 1.42a.21.21 0 0 1-.044.21.2.2 0 0 1-.074.043l-2.566 1.162a.21.21 0 0 1-.276-.101l-.658-1.415a.1.1 0 0 1 0-.038.2.2 0 0 1 0-.044l.066-.05.111-.057.112-.044h.106l.5 1.004.717-.322-.421-.853a.1.1 0 0 1 0-.044v-.044l.065-.05.106-.051.111-.044h.125a.1.1 0 0 1 0 .031l.415.859.829-.379-.5-1.017a.06.06 0 0 1 0-.044v-.044l.066-.05zm.52 5.172q.11.12.256.202a.6.6 0 0 0 .256.082q.122.023.244 0a.9.9 0 0 0 .23-.114q.126-.082.224-.196a.5.5 0 0 0 .118-.467.9.9 0 0 0-.118-.303zm-.139-1.478q-.121.077-.217.183a.5.5 0 0 0-.118.468q.03.16.118.303l1.224-.815a.9.9 0 0 0-.257-.209.68.68 0 0 0-.506-.05 1 1 0 0 0-.237.12m-.415-.537c.138-.096.295-.165.46-.202a1.1 1.1 0 0 1 .461 0q.247.051.454.19.25.166.441.391l.303-.208a.08.08 0 0 1 .052 0 .1.1 0 0 1 .053 0l.072.063.092.126c.033.05.066.089.086.127q.024.039.04.082a.1.1 0 0 1 0 .063.1.1 0 0 1-.034.038l-.309.208q.165.239.257.511.076.227.046.461a.9.9 0 0 1-.165.411q-.159.21-.381.36a1.3 1.3 0 0 1-.448.19c-.149.031-.304.031-.453 0a1.3 1.3 0 0 1-.454-.184 2 2 0 0 1-.441-.391l-.296.196h-.046a.2.2 0 0 1-.053 0 .4.4 0 0 1-.066-.07.6.6 0 0 1-.098-.12l-.086-.126a.3.3 0 0 1-.04-.089.06.06 0 0 1 0-.056l.303-.209a2.2 2.2 0 0 1-.23-.499 1 1 0 0 1-.046-.46.84.84 0 0 1 .158-.411q.149-.227.368-.392"/><path fill="#0066b3" d="m35.265 39.075-.098-.114a1.8 1.8 0 0 0-.69-.403 1.9 1.9 0 0 0-.804-.077c-.39.006-.78.057-1.158.152-.375.088-.842.233-1.4.417a1.3 1.3 0 0 0-.231-.329 2.8 2.8 0 0 0-.993-.532 2.85 2.85 0 0 0-1.132-.1c-1.81.093-3.589.48-5.263 1.144a10.9 10.9 0 0 1-3.638.758 6.4 6.4 0 0 1-3.454-1.1l-.454-.258-.573-.329-.105.632-1.184 6.669.427.177.204-1.156.967-5.62.454.258c.77.49 1.63.832 2.533 1.01a7 7 0 0 0 1.198.102 11.3 11.3 0 0 0 3.79-.79 16.2 16.2 0 0 1 5.104-1.105q.436-.007.862.07c.353.042.682.195.934.435.154.162.242.37.25.588.691-.221 1.316-.436 1.816-.543a4.8 4.8 0 0 1 1.046-.14h.31l.197.032c.147.027.29.076.42.146.14.069.415-.177.415-.177l-1.204 7.578.402-.164c.033-.183.059-.373.092-.575.131-.777.237-1.339.237-1.345v-.322c.092-.537.177-1.067.263-1.566.243-1.49.454-2.703.48-2.88v-.341z"/><path fill="#fff" d="M24.956 41.424c-4.749-.04-9.292-1.862-12.66-5.077C8.93 33.132 7.008 28.78 6.94 24.222s1.727-8.96 4.998-12.264c3.27-3.305 7.76-5.25 12.505-5.418h.533c4.779-.007 9.368 1.794 12.774 5.013s5.352 7.595 5.42 12.182-1.75 9.015-5.06 12.325-7.843 5.234-12.62 5.358h-.534m0 .43h.546c4.898-.126 9.548-2.098 12.941-5.49s5.258-7.932 5.188-12.635c-.069-4.703-2.066-9.19-5.558-12.49-3.492-3.298-8.197-5.144-13.097-5.136h-.546c-4.94.067-9.65 2.015-13.093 5.415s-5.339 7.975-5.269 12.716c.07 4.742 2.099 9.262 5.641 12.568s8.308 5.124 13.247 5.057"/><path fill="#fff" d="M28.765 38.481a2.5 2.5 0 0 1 .945.074c.307.086.592.23.838.425a.9.9 0 0 1 .25.6c.698-.227 1.316-.442 1.83-.55a4.8 4.8 0 0 1 1.045-.138c.803 0 .994.158 1.053.214l.29-.202-1.62 9.877-.433-.233a1.66 1.66 0 0 0-.77-.171 9.9 9.9 0 0 0-3.053.84c-.707.32-1.448.566-2.21.733q-.308.045-.619.05c-.953 0-1.105-.493-1.125-.739l.06-.511-.763.278c-.507.189-.987.366-1.408.505a8.4 8.4 0 0 1-2.632.385 11.6 11.6 0 0 1-6.184-1.667l-.171-.12 1.572-9.126.454.26a6.86 6.86 0 0 0 3.77 1.11 11.3 11.3 0 0 0 3.79-.789 16.2 16.2 0 0 1 5.091-1.105"/><path fill="#ed1c24" d="m26.061 45.485-.52 3.587c-.137.631.659.631 1.317.55 1.703-.247 4.684-2.205 6.25-1.365.23-1.787.657-4.073.657-4.073s-.388-.518-1.855-.177-4.743 1.692-5.842 1.478"/><path fill="#0066b3" d="M33.594 45.213c.165-.998.336-2.065.494-3.012a2.57 2.57 0 0 0-1.934-.12c-1.428.335-4.553 1.61-5.73 1.49l-.435 2.672c.132.435.658.543 1.355.486 1.704-.133 4.678-2.299 6.25-1.516"/><path fill="#be1e2d" d="M25.502 49.305c.106-.682 1.086-.707 1.73-.675.645.031 1.843 0 1.941-.487.119-.669.171-1.49.171-1.49l-3.408.038z"/><path fill="#ed1c24" d="m14.483 47.986.789-4.535c1.375.783 3.533 1.895 7.94.272 3.534-1.301 6.817-1.535 6.659-.19l-.724 4.642c.263-1.591-3.947.31-6.178 1.055-2.401.802-6.368.22-8.487-1.263"/><path fill="#0066b3" d="M23.37 42.782c-4.262 1.566-6.5.17-7.894-.632l-.513 2.937a9.35 9.35 0 0 0 4.111 1.382 9.45 9.45 0 0 0 4.31-.612c1.974-.732 5.835-2.008 6.263-.865.151-.96.303-1.976.434-2.86-.546-.866-3.592-.506-6.723.63"/><path fill="#808d9c" d="M33.305 26.836c0-.038-.08-.183-.171-.379q.114.064.237.114l.144.246q-.103.012-.204.044m-1.684 0c0-.334-.085-.549-.19-1.262q.268.677.453 1.383a2 2 0 0 0-.263-.089m-.75 4.073v.05Zm0 .5a.4.4 0 0 0 0-.077.2.2 0 0 0 0 .064m2.356 2.254-.382.802-.44-.202.295-.632q.28.036.56 0m.407-.113-.105.215-.243-.108a1.6 1.6 0 0 0 .348-.107m-13.322 2.084a.4.4 0 0 1 .132-.202.4.4 0 0 0 0 .139zm-1.29-4.231a.2.2 0 0 0 0-.063.3.3 0 0 1 0 .075m-1.796-3.113-.5-.221a.8.8 0 0 0-.154-.318.8.8 0 0 0-.28-.225.43.43 0 0 0-.052-.486c.263-.323.71-1.263 1.21-2.021-.112.814-1.56 1.894-.414 2.684.75-.108 1.15-.966 1.447-2.148.145.278-.757 1.497.467 1.895.54-.095.934-1.099.796-1.85q.09.057.171.126c.165-.17.494-.17.612-.392l.112.07c.368.587.395 1.699-.112 2.103.15.007.3-.016.44-.07l-.065.102-.046.069c-.283.259-.362.328-1.184.215q.016.131.085.246c-.408.164-1.072.139-1.256 1.212a.1.1 0 0 0-.04-.031h-.033s-.052 0-.059-.044 0-.05-.046-.064H18.2l-.125.083c-.106.044-.092-.057-.277.195v.101h-.046l-.17-.082a.7.7 0 0 1-.152-.063l-.204-.057.099.044.23.102.138.056.026.095-.552-.246h-.033a.6.6 0 0 0-.132-.057l-.204-.057zm17.421-2.267a.15.15 0 0 0 0 .107l-.059-.082a.5.5 0 0 1 .073-.177l.04.044a.24.24 0 0 0-.054.108m-1.743 0 .171.063.105.19h-.151l-.125-.266m-3.572 1.838a.87.87 0 0 1-.428-.404c.14.053.29.077.44.07-.506-.405-.48-1.516-.111-2.104l.112-.07c.118.222.447.222.612.392q.08-.069.17-.126.009.672.093 1.339c-.39.2-.703.517-.888.903m1.802 6.694-.868-.385.572-1.232q.378.295.816.5zm-12.085-3.34v.069a.2.2 0 0 0 0-.05m15.131-5.741.204.057.053.063-.21-.057a.2.2 0 0 0-.047-.063m-1.552 0 .118.063.132.227h-.112a4 4 0 0 0-.138-.284m-2.402 5.778a.4.4 0 0 0 0 .089.4.4 0 0 0 0-.089m-2.414 3.834.395.202s-.119.151-.527.151a1.7 1.7 0 0 0-.04-.316h.146m-3.948-.795.369-.177a8 8 0 0 0-.165.928q-.18.015-.362 0 .04-.386.158-.758m-2.138.967.21-.101a2 2 0 0 0 0 .22.3.3 0 0 1-.197-.12m2.46-1.85.192.083a.5.5 0 0 0 0 .094l-.303.145q.06-.16.132-.322m3.881-3.574a2.5 2.5 0 0 0-1.704.442 1.1 1.1 0 0 1 .293-.395 1.157 1.157 0 0 1 1.41-.047m-1.053 2.444q-.346-.15-.657-.36h.184c.24.015.463.12.625.29zm-3.026 0h-.06q.102-.103.192-.215c-.046.07-.086.14-.132.202m.612 0c0-.07.046-.139.06-.208v.208m1.835.708.23-.108c.27.18.516.392.73.632a5.4 5.4 0 0 1-.881-.417l-.08-.095m-.164-.398v.02Zm-1.098-.486q.042.186.105.367h-.053c0-.114-.04-.228-.052-.348m2.039-1.326c.138.442.401.846 1.368.43a.37.37 0 0 0 .086.24l-1.474.7c0-.442-.355-.631-.658-.833.106-.14 0-.202.658-.569m0 0c.246-.063.505-.063.75 0a.75.75 0 0 1-.75 0m1.717.423.093.07h.039l-.224.107q.04-.081.092-.158m-.111 2.122a10 10 0 0 0-1.316-.827l1.868-.897c.04.309.012.622-.083.92a2.2 2.2 0 0 1-.47.804m-5.652-1.32h-.033l-.066-.031.158-.044c.066 0 .06 0 .316-.038q-.116.09-.243.164h-.066m-.724-.322-.092-.044h-.125l-.085-.044h-.06l-.243-.177h-.099c.343-.064.5 0 .777-.632-.869.436-1.52-1.143.21-1.105.816.404 1.152 1.465-.105 2.154h-.25m-.855 3.043a.2.2 0 0 1 0-.07l.046.039zm-3.514-5.254a1 1 0 0 0 0 .07h-.039v-.038h.033m5.921 6.504a.74.74 0 0 1-.296-.423h.276a2 2 0 0 0 0 .417m1.757-1.522q.125-.199.224-.41h.032c-.052.442.566.852-.177 1.894a6 6 0 0 0-.08-1.522m5.968-4.957v.258l-.454.228a.5.5 0 0 1 0-.139h.033a.2.2 0 0 0 .072 0c.073 0 .04.032.277-.177a.17.17 0 0 0 .059-.113m1.618-5.35c.073.058.29.304.553.632l-.145-.05a6 6 0 0 1-.408-.55m-.94.632a.7.7 0 0 1 .078.126 1 1 0 0 1-.052-.126m-17.02.77a1 1 0 0 0-.184 0c.454-.524 1.158-1.345 1.316-1.452-.06.12-.658.878-1.112 1.478m-1.06 3.94h-.223a.44.44 0 0 1-.128.275.47.47 0 0 1-.28.136l-.072-.038-.06-.05-.052-.064a.47.47 0 0 1-.053-.265.4.4 0 0 1 .112-.246 2 2 0 0 1-.138-.146 1.4 1.4 0 0 1-.106-.164 1.25 1.25 0 0 1-.092-.922 1.4 1.4 0 0 1 .523-.62c.234-.153.51-.236.793-.239.053-.1 0-.139.5-.31 0 .09.257.115.053.588.15.171.249.377.289.597s.018.446-.063.655-.218.394-.398.536c-.18.141-.395.235-.624.27M24.43 13.222q.546.03 1.092 0a5.1 5.1 0 0 0 2.25 1.073 4.7 4.7 0 0 1-1.56-.164c0 .316.731.682 1.198.777a2.05 2.05 0 0 1-1.033-.139c.153.236.385.414.658.505-.211.208-.47.366-.755.462s-.59.129-.89.094c.086.1.197.178.322.226a.84.84 0 0 0 .396.052 6 6 0 0 0-1.152 2.918 6.05 6.05 0 0 0-1.138-2.905.85.85 0 0 0 .399-.051.8.8 0 0 0 .325-.227 2 2 0 0 1-.888-.092 1.95 1.95 0 0 1-.75-.464c.27-.095.502-.272.657-.505a2.05 2.05 0 0 1-1.032.139c.467-.095 1.177-.461 1.197-.777a4.7 4.7 0 0 1-1.566.164 5 5 0 0 0 2.27-1.086m6.447 17.897a.4.4 0 0 1 0-.107.1.1 0 0 0 0 .082m0 .056a.1.1 0 0 0 0 .101.5.5 0 0 1 0-.132zm8.132-10.83a2.8 2.8 0 0 0-1.507-.227c.382-.091.73-.281 1.006-.55s.47-.605.56-.972a3 3 0 0 0-1.408 0c.323-.17.595-.416.79-.716s.306-.643.322-.996a3.6 3.6 0 0 0-1.56.316c1.066-.562 1.448-1.894.882-2.652-.322.183-1.829 1.654-2.072 1.819.954-1.226 2.276-2.609.776-4.112a24.3 24.3 0 0 1-2.467 3.865.54.54 0 0 0-.237-.177 3.76 3.76 0 0 1-1.19 1.604 1.2 1.2 0 0 0-.158-.29c-3.843 2.254-.553 6.094-3.803 4.623.155-.025.3-.09.419-.188a.83.83 0 0 0 .258-.368.8.8 0 0 0 .022-.443.8.8 0 0 0-.219-.39c-.296.17-.493.726-1.559-.045a.72.72 0 0 0 .721-.057.67.67 0 0 0 .231-.285.64.64 0 0 0 .042-.359c-1.514.739-1.704-1.793-.31-2.842.152.29 1.796-.58 1.935.77.611-.334.388-.87-.395-1.08.658.108 2.395 1.542 2.52-.29-.29.663-1.422.14-2.593 0a1.41 1.41 0 0 1 1.685.183 1 1 0 0 0 .327-.539.96.96 0 0 0-.07-.62 1 1 0 0 0-.441-.46 1.08 1.08 0 0 0-.639-.117.21.21 0 0 0-.084-.196.23.23 0 0 0-.218-.031.18.18 0 0 0-.073-.158c1.23.107 2.31-1.03 1.704-2.627.32.186.672.317 1.04.385.447.751-.823 1.66.144 2.753a.57.57 0 0 1-.217.524c.415-.094 1.066-.34.434-1.458.106.675 1.066-.386 1.126.631 1.315-1.017-.908-.676-.389-1.383.421-.568.757-1.124-.75-1.434-.335-1.136-3.079-1.263-2.197.834.25.499.526 1.358-1.007 1.636v-.145c.23-.398.803-1.522-.42-1.73-.073-.039 0 0-.27 0v.1h-.08v-.139c0-.05.172-.088 0-.398h.093a1.4 1.4 0 0 1-.178-.202q.112.074.21.165v-.632a2 2 0 0 1-.21.17q.076-.111.178-.202h-.658q.099.093.178.203a3 3 0 0 1-.218-.171v.632q.1-.097.218-.171a2 2 0 0 1-.178.202h.092c0 .063-.171.095 0 .398v.139h-.086v-.101c-.118-.032 0 0-.263 0-.565.252-1.158.511-.427 1.73v.095a5.85 5.85 0 0 1-2.04-1.263v-.41c.46-.582 1.25-2.438-.52-2.685a.38.38 0 0 0-.348-.037v.157h-.184V9.71h-.1c0-.057.402-.177.067-.67h.144a1.2 1.2 0 0 1-.256-.334q.196.09.349.24v-.777a1 1 0 0 1-.343.24c.06-.126.146-.24.25-.335h-.829q.159.144.25.335a1.1 1.1 0 0 1-.348-.24v.796q.155-.146.348-.24c-.058.126-.143.24-.25.334h.145c0 .089-.381.209.066.67h-.105v.195h-.191v-.157a.38.38 0 0 0-.349.037c-1.19.234-1.506 1.264-.52 2.684v.417a5.4 5.4 0 0 1-2.032 1.263v-.095c.23-.397.802-1.521-.428-1.73-.066-.038 0 0-.263 0v.101h-.08v-.139c0-.05.165-.088 0-.398h.093a2 2 0 0 1-.178-.202q.117.077.217.17v-.63q-.101.093-.217.17.075-.112.178-.202h-.658q.102.09.178.202a2 2 0 0 1-.217-.17v.63l.217-.163q-.078.108-.178.202h.112c0 .063-.165.094 0 .398v.139h-.079v-.102c-.125-.031 0 0-.27 0-.566.253-1.164.518-.427 1.73v.146c-2.277.366.552-5.5-3.204-2.47-1.862-.144-.171 1.946-1.04 1.82-.296-.038-.809.391-.098.997-.185-.454.394-.208 1.125-.631-.1.448-.797 1.042.434 1.459a.608.608 0 0 1-.217-.524c.717-.822.085-1.51.144-2.754.356-.081.694-.22 1-.41.204 1.263-1.006 2.305 1.704 2.627a.183.183 0 0 0-.072.158.23.23 0 0 0-.219.03.207.207 0 0 0-.084.196c-.473.032-1.763.632-.802 1.719a1.407 1.407 0 0 1 1.684-.183c-.658-.285-1.658 1.067-2.592 0-.04.802.835 1.363 2.52.29-.783.208-1.007.745-.395 1.08.112-.745.27-.739 1.927-.77.625.404 2.073 3.245-.302 2.841a.64.64 0 0 0 .041.359.67.67 0 0 0 .23.285.71.71 0 0 0 .722.057c-.059.05-.92.808-1.559.044a.8.8 0 0 0-.22.391.8.8 0 0 0 .023.443c.05.143.139.27.258.368.12.098.264.163.42.188-2.376 1.086-1.685-.322-1.567-2.299-.309-.43-1.493-1.427-2.25-2.324a1.3 1.3 0 0 0-.157.29 3.7 3.7 0 0 1-1.191-1.603.6.6 0 0 0-.237.176 24.3 24.3 0 0 1-2.467-3.864c-1.316 1.08-.58 2.525.802 4.11-.236-.164-1.743-1.635-2.072-1.818-.56.764-.178 2.09.882 2.652a3.5 3.5 0 0 0-1.553-.316c.01.356.116.703.307 1.007.191.305.462.556.785.73a3 3 0 0 0-1.408 0c.092.368.288.705.566.972.28.268.63.456 1.013.544a2.8 2.8 0 0 0-1.5.227c.104.35.319.66.615.886s.658.358 1.037.377a2.04 2.04 0 0 0-1.356.632c.17.221.393.4.651.518.259.12.543.175.83.164a1.6 1.6 0 0 0-.556.313c-.161.14-.29.31-.379.501.402.31.908.505 2.073.108-1.316.53-1.073.789-1.277 1.338.514.335 1.533.17 2.553-.764-.21.398-1.836.79-1.355 1.977h.19a.2.2 0 0 0-.039.063c-.27-.063-.928-.101-1.316.79-.099-.064-.342 0-.71.524a1 1 0 0 0 0 .1v.19l.046.088.052.07.073.063a.9.9 0 0 0-.138.297v.038a1 1 0 0 0 0 .22.1.1 0 0 1 0 .045.2.2 0 0 0 0 .082v.171c0 .031.033.076.079.151v.076l.059.057q.076.075.17.133h.04a.5.5 0 0 0-.046.271v.12a.42.42 0 0 0 .283.208.6.6 0 0 0-.066.253v.095q.009.075.033.145v.05c.066.115.17.204.296.253h1.027l.098-.076a.6.6 0 0 0 .125-.139h.323a.4.4 0 0 0 .204-.063h.098a1 1 0 0 0 .053-.075.6.6 0 0 0 .125 0h.224q.114-.01.223-.045h.046l.402.38h.243l.467-.948c.105.063 0 0 .296.133a.2.2 0 0 0 0 .088l1.428.631a.2.2 0 0 0 0 .057v.076a.12.12 0 0 0 0 .12.04.04 0 0 0 0 .038c.072.126 0 .253.381.246.066-.05.08 0 .165-.353.046.113-.033.056-.053.429a.23.23 0 0 0 .152.095h.158c.039 0 .111 0 .098-.101 0 0-.033.1.105.208h.211c.066 0 .04.038.158-.07.118-.107 0 0 .04-.22l2.67 1.193c-.236-.076-2.177 1.926-1.776.234-.283.038-.796.379-.796 1.111-.658.095-1.487 2.002-.888 2.065.08-.407.314-.771.658-1.023 0 .367-.092.348.368.998-.04.152-1.493.474-1.5.922.217.246.948-.379 1.54-.581v.095c.204-.063.131 0 .42-.278l.31-.152c.078.195.215.362.393.481.179.12.39.185.607.189a1.86 1.86 0 0 1-1.028.58c-.4.08-.816.028-1.183-.145 0 .72 2.553 1.264 3.093-.448.42.177.335.808 1.763.303.16.333.404.622.71.84.317-.203.572-.485.737-.814.204.1 1.513.549 1.921-.632.362.215 1.382.682 1.79-.48l.243.107c.105.07-.138.183.46.405a.4.4 0 0 1-.052-.221l1.901.852h.494l.065-.044.06-.063.046-.07a.1.1 0 0 1 0-.038v-.038a.1.1 0 0 1 0-.031v-.196a.2.2 0 0 0-.04-.07.25.25 0 0 0-.079-.094l-.072-.044-.151-.07-.468-.22.204-.418.968.417 1.072-2.185v-.1l-.31-.14c.79-.17 1.507-2.475.191-2.772a.94.94 0 0 1-.618-.063c0 .215.428.58.428.58.085.127.105.317-.56-.12 2.08 2.135-1.631 1.933-2.414.55.066-.057.072-.05.099-.208 0 .076.065.088.105.1h.158c.158 0 0 0 .17-.113.04-.082-.032-.07-.058-.41v-.089c0 .196-.092.101.15.417 0 0 .39.057.37-.284a.12.12 0 0 0 0-.12v-.133a.63.63 0 0 0 .203-.334h.053q.046.009.092 0l.04-.045.118-.056q.052.015.103-.008a.14.14 0 0 0 .068-.075l2.704-1.3.04.069.809-.404-.033-.05.329-.159a1.9 1.9 0 0 1-.25-.46l-.323.157-.033-.063-.822.24.046.076-2.631 1.263a.04.04 0 0 0-.04 0v-.038c0-.063 0-.044-.046-.183v-.05c0-.095 0-.051-.283-.165l-.125-.082-.04-.038c-.039-.038 0 0-.111 0h-.053c-.04 0-.04 0-.046.063-.006.064-.04 0-.06.044-.11-.48-.164-.865-1.164-1.18.244-.632 1.593-.689 1.71.669.034-.196.113-1.263.462.164a.85.85 0 0 1 .315-.511s.217-.278-.072-.821q.112.022.21.075c.158-.284.507-.385.454-.738.394.19.824.3 1.264.328l-.06-.057a.1.1 0 0 0 0-.05q.052.06.119.107c.098 0-.415.202.046.486.079-.044-.276.278.131.329 0 0-.079.151 0 .246l.658-.328c-.105-.05-1.21-.708.08-1.308a.6.6 0 0 0 .15-.303q.17-.04.343-.05c.256-.632-.48-1.453-1.356-1.977.658.329 1.474 1.459 2.553.764-.204-.55.053-.808-1.276-1.339 1.164.398 1.67.203 2.072-.107a1.5 1.5 0 0 0-.36-.506 1.6 1.6 0 0 0-.541-.328c.286.013.57-.043.83-.162.257-.119.481-.298.65-.52a2.04 2.04 0 0 0-1.355-.631 1.86 1.86 0 0 0 1.036-.377c.296-.227.511-.537.615-.886"/><path fill="#808d9c" d="M36.91 26.685a1 1 0 0 0-.335.26.95.95 0 0 0-.191.371l-.066.044-.033.089a.2.2 0 0 0-.145 0c-.19.082-.085.29-.085.29s.085.228.151.36q.102.188.23.36s.152.158.29.089a.2.2 0 0 0 .071-.066.2.2 0 0 0 .028-.092h.204a1.04 1.04 0 0 0 .936-.14 1 1 0 0 0 .305-.366.93.93 0 0 0-.06-.908 1 1 0 0 0-.353-.325 1.03 1.03 0 0 0-.947-.023M34.825 28.377c-.112-.17-.04-.24-.04-.24a.2.2 0 0 1-.092-.031l-.362.176c-.066.038-.19.114-.21.196.24.044.488.009.704-.1"/><path fill="#808d9c" d="M34.673 28.093c-.072-.057-.092-.101-.079-.164.014-.063 0-.114.08-.145h-.296c-.22.033-.428.122-.6.258.205.202.658.14.895.076M34.581 27.746a.27.27 0 0 1-.093-.318.24.24 0 0 1 .073-.093 3.05 3.05 0 0 0-1.19.088c.11.108.245.191.392.245s.306.075.463.065h.355M37.061 29.394c-.236 0-.381.183-.611.183a.6.6 0 0 1-.27-.061.55.55 0 0 1-.204-.179.87.87 0 0 1-.066-.663l-.658.335c0 .132.198.164.198.164a.21.21 0 0 0 0 .227c.065.108.223.063.223.063s0 .228.092.316a.28.28 0 0 0 .283 0 .4.4 0 0 0 .138.322.28.28 0 0 0 .283 0s.053.164.139.202c.05.01.104.006.152-.013a.25.25 0 0 0 .117-.094.5.5 0 0 0 .244.328.38.38 0 0 0 .342-.044c.184-.133.072.07.052.12-.079.253-.17.493-.256.739a.7.7 0 0 0 0 .594s.105.113.19.094c.073-.278.172-.55.25-.827.116-.309.183-.632.198-.96a1.04 1.04 0 0 0-.21-.631.6.6 0 0 0-.253-.195.64.64 0 0 0-.32-.045"/><path fill="#808d9c" d="M35.35 29.204s-.091 0-.177-.17c-.22.102-.396.274-.5.486a.45.45 0 0 0 .29-.05 4 4 0 0 0 .362-.177.3.3 0 0 1 0-.089M35.575 29.577a.2.2 0 0 1 0-.063.3.3 0 0 1-.178 0 .2.2 0 0 1-.07-.066.17.17 0 0 1-.022-.092c-.204.158-.513.455-.46.732.217-.05.415-.156.572-.309a2 2 0 0 0 .138-.177M35.686 29.83a.32.32 0 0 1-.105-.215s-.178.265-.197.284a.978.978 0 0 0-.243.834c.318-.234.582-.528.776-.866a.25.25 0 0 1-.23-.037M36.265 30.209a.25.25 0 0 1-.204-.101.33.33 0 0 1-.098-.24s-.105.164-.112.164a1.78 1.78 0 0 0-.368 1.117 1.3 1.3 0 0 0 .335-.29c.04 0 .434-.632.434-.632M36.384 30.815l.27-.436a.23.23 0 0 1-.191-.076.34.34 0 0 1-.066-.12.2.2 0 0 1-.079 0l-.171.265c-.221.39-.347.821-.368 1.264q.12-.106.217-.234c.111-.158.388-.632.388-.632M36.963 30.53a.6.6 0 0 1-.165-.258.22.22 0 0 1-.098.075c-.047.064-.323.563-.323.563-.217.385-.533 1.218-.388 1.446.25-.281.445-.602.579-.948zM37.061 31.592l.415-1.074a.402.402 0 0 1-.46.05s-.27.632-.422.992a2.4 2.4 0 0 0-.21 1.326.7.7 0 0 0 .23-.253q.068-.109.119-.227zM37.081 31.73c-.19.404-.326.828-.408 1.263.01.267.067.53.171.777l.527-1.635s-.257 0-.29-.38"/><path fill="#fff" d="M24.956 20.919H21.47v6.947c0 .858.369 1.263 1.139 1.263h1.15c.277.014.542.113.757.28.215.169.37.397.441.654.056-.264.202-.503.415-.678.214-.175.482-.276.763-.288h1.158c.763 0 1.138-.404 1.138-1.263v-6.947z"/><path stroke="#fff" stroke-miterlimit="10" stroke-width=".03" d="M24.956 20.919H21.47v6.947c0 .858.369 1.263 1.139 1.263h1.15c.277.014.542.113.757.28.215.169.37.397.441.654.056-.264.202-.503.415-.678.214-.175.482-.276.763-.288h1.158c.763 0 1.138-.404 1.138-1.263v-6.947z"/><path fill="#808d9c" d="M23.535 27.569h-.19c0-.089-.073-.12-.08-.215 0-.335-.138-.202.198-.827.316-.215.092-.228.848-.632.093.063.073.265 0 .341q.025.052.04.108a.6.6 0 0 0 .178.056c.144.12.105.064.513.695v-.07l.072.064h-.06c0 .044 0 .107.04.107s-.164 0-.204.057a.26.26 0 0 0-.15.063c-.06 0-.086 0-.132.044.302-.12-.889-1.471-1.093.133h-.065c-.066 0 .085.038.085.088m1.684-.713-.302-1.042a.6.6 0 0 0 .072-.253h.23a.47.47 0 0 1 .086.253c.06 0-.072.095 0 .265.118 0 .033 0 .243-.05.178 0 .099 0 .33.277q.094.28.276.518c-.119 0 0 0-.093.158 0 0 0-.1.106-.07v.083c0 .025 0 0-.08.132v-.05c0-.02 0 0 .093 0a.3.3 0 0 1 0 .114s-.06.031-.072.063a.21.21 0 0 0-.172.031h.086c.086 0 0 .032 0 .063h-.092c-.026 0-.151-.126-.27-.113-.118.012 0 0-.138 0h.105c.106 0 .066-.057.119-.063a.1.1 0 0 1 0 .05c0 .063.19-.082-.046-.152q-.198.081-.35.228c0-.05.047-.114 0-.158.08 0 .08-.126.178-.139.1-.013 0 .05 0 .063.093 0 0 0 .06-.158-.04 0 0-.031-.132 0-.131.032-.066-.044-.158.158-.033 0 .066-.07-.059-.196 0 0-.053 0-.085.032m-1.533-5.26c-.066.1-.04 0 .04.322-.047.082-.12.05-.093.322-.158.082-1.026-.063-.882.48 0 0-.263.265 0 .41 0 .082-.105.12.066.24a.16.16 0 0 0 .058.057.16.16 0 0 0 .16 0 .15.15 0 0 0 .059-.057c.204-.088.131.518.427.158q.112.024.224 0l.085.057c.08-.057 0-.063.224 0a.191.191 0 0 1 .151-.07l.066.234h-.052c0 .196.118.29.138.474a2.2 2.2 0 0 0-.856.157c-.236-.429-1.203-.442-1.144.632a.11.11 0 0 0-.033.095.5.5 0 0 0 .118-.057 2 2 0 0 0 0 .562.48.48 0 0 0 .171-.265.53.53 0 0 1 0 .328c.046-.126.283-.063.388-.448 0 .126.047.278-.04.353a.2.2 0 0 0 .08-.05c.408.278-.263-1.408.401-.979-.263.373.46 1.175-.184 1.857a1.47 1.47 0 0 1-.31.795h.067c.033 0 0 0-.033.196-.224.164.098-.631-.52-.631.474.1-.079 1.452 1.276 1.149v.082a.6.6 0 0 1-.177.107c.46-.1 1.467.84 2.164.146 0-.101.29.1.217-.278.046 0 0-.07.191-.082h.197c.1 0 0 .088.296.139a.5.5 0 0 0 .066-.101c.257-.102.763.113.796-.367a1 1 0 0 1-.072.108l.06-.057c0 .05-.053.107-.08.113-.026.007.08-.164 0-.246a.2.2 0 0 1-.032.132.23.23 0 0 1-.106.09s.033-.127 0-.152a.114.114 0 0 1-.046.095v-.076a.2.2 0 0 1-.041.081.2.2 0 0 1-.078.051v-.057c0-.056 0 .038-.059.038s0-.056-.033-.07c-.032-.012 0 .045-.04.058-.038.012 0-.05-.032-.064-.033-.012 0 0 0 .038a.4.4 0 0 0-.085-.157c.046 0 0-.064.046-.083.046-.018 0 0 .059 0s0-.044 0-.056 0 0 .04 0c.039 0 0-.038 0-.057s.032 0 .052-.038q.031.01.054.034a.13.13 0 0 1 .031.054.3.3 0 0 0 0-.17h.047c.046 0 .052.088.046.113-.007.026 0-.088 0-.132s.039.057.065.088c0-.208-.256-.151-.579.095 0-.057-.092-.082-.125-.145a.4.4 0 0 0 .053-.133s-.066 0-.079-.057a.1.1 0 0 0 0-.063h-.085a8.4 8.4 0 0 0-.316-1.263c0 .082 0 0 0 0l.158.063c.112.032.454-.391.914-.48.092.101-.105.253-.204.556-.04 0 0 .063-.04.101-.183 0-.164-.19-.25.265.185 0 0 0 .37-.063.282-.19.295-.417.433-1.067-.27-.31-.046-.183-.98 0 .092-.215-.04-.139-.171-.916.092.044.092.07.27-.12-.033 0 .079.17.21.05h.132c.243-.088.322-.126.092-.915h.151c-.04-.076 0-.183-.052-.246l.079-.076a.5.5 0 0 0-.198-.044s0-.032-.17-.057c0-.044.072-.088.104-.139a1 1 0 0 0-.217 0l-.17-.038c-.172-.038-.159-.158-.659 0a.16.16 0 0 1 .084.018.16.16 0 0 1 .061.058c-.197 0-.131-.088-.447.101a.2.2 0 0 0-.071.043.16.16 0 0 0-.041.07h.079c-.04.051-.263 0-.29.108h.21c-.117.044 0 0-.262.221a.6.6 0 0 0-.113-.265.6.6 0 0 0-.23-.183s-.039 0 0-.127c.04 0 .066.038.139-.038.342.24.42-.96-.355-.543.289-.31 1.02.404.361.537l.053-.044s0-.107.099-.126a.6.6 0 0 0 0-.114.12.12 0 0 0 0-.107c0 .031 0 .082-.04.1-.04.02 0-.1 0-.12a.13.13 0 0 1 0 .102v-.057.044c0 .013-.04-.044-.079-.044-.151 0-.263.19-.296.316 0 0-.131 0-.079-.133-.052.057-.144.076 0-.139-.072 0-.105.101-.144.164 0-.05-.106-.1.085-.227-.066 0 0 0-.131.076-.073-.063.039-.177.309-.26l-.152.051c-.085 0-.342.285-.079.367 0 .082.086 0-.032.157a1.8 1.8 0 0 0-.704-.322v-.063c.033-.07.059-.063-.066-.195h-.092c-.092 0 .164-.196.02-.436z"/><path fill="#fabc42" d="M34.029 31.03c-.086 0-.106.176.052.107 0-.05.046-.05-.053-.108m0 .183s-.264-.158 0-.247c.006-.063.263.19 0 .247m-1.658-3.227c.072.063.072 0 0 0-.073-.064-.086.258 0 0m0 .189c-.125.07-.185-.448.131-.133 0 .07.007.007-.131.133m4.98 3.903-.553 1.648a2.53 2.53 0 0 1 .244-2.027c.033.404.29.379.29.379m-.659.303a1.2 1.2 0 0 1-.355.486c-.132-.492.224-1.433.658-2.33a.415.415 0 0 0 .467-.057 42 42 0 0 1-.737 1.9zm-.151-.973a3.2 3.2 0 0 1-.586.948 3.6 3.6 0 0 1 .718-2.028.17.17 0 0 0 .144-.056q.057.13.158.233zm-.592.032a1.6 1.6 0 0 1-.224.227 2.86 2.86 0 0 1 .546-1.503.2.2 0 0 0 .08 0s-.034.158.262.196c-.184.29-.204.335-.658 1.099m-.17-.632a1.3 1.3 0 0 1-.336.29A1.73 1.73 0 0 1 35.792 30l.105-.17c0-.07 0 .328.31.347 0 0-.402.631-.442.631m.086-.991c-.195.34-.462.636-.783.871a1 1 0 0 1 .024-.45 1 1 0 0 1 .226-.396l.197-.284s-.059.265.336.259m-1.026.208c-.047-.277.263-.58.473-.738.053.056-.072.132.263.183a.2.2 0 0 0 0 .07 2 2 0 0 1-.144.17 1.25 1.25 0 0 1-.58.315m.468-.776c-.19.138-.42.217-.658.227.107-.214.288-.386.513-.486.08.19.178.17.178.17a.2.2 0 0 0-.033.089m2.342.347c.178.158.171.41.217.631-.066.449.105-.132-.46 1.794-.823-.234.71-1.03-.573-1.844 0 0-.243.303-.414-.088.052-.076-.408.202-.421-.329.059-.076-.421.196-.382-.328.086 0-.408.05-.204-.297 0 0-.177 0-.204-.164l.697-.335c0 .114-.111 1.358 1.158.72a.7.7 0 0 1 .326.05q.156.066.26.196m-5.862-5.349 1.71.562s-.17.19.152.449c-.697-.36-.868.177-1.862-1.01m1.724 1.484a2.75 2.75 0 0 1-1.263-.631c.657-.108 1.75.34 2.684.562-.27.095-.29.183-.322.328zm-1.06 0c.735.008 1.464.13 2.159.36q.022.137.105.253a.2.2 0 0 0-.119 0 4.45 4.45 0 0 1-2.144-.632m1.717 1.01a3.3 3.3 0 0 1-1.277-.441 8.2 8.2 0 0 1 1.652.107s-.092.114 0 .31l-.06.056zm.197.493a2.03 2.03 0 0 1-1.164-.385q.215-.083.447-.088c.053 0 .81.05.81.05s-.165.228.111.436zm-.171.442a1.15 1.15 0 0 1-.466-.064 1.1 1.1 0 0 1-.396-.245 3.2 3.2 0 0 1 1.21-.088c-.045.082-.203.145 0 .41h-.361m-.454.303a1.184 1.184 0 0 1 .849-.265h.059c.02 0-.171.076 0 .31-.25.069-.698.126-.908-.076m.355.473c.092-.1-.066-.07.58-.379a.3.3 0 0 0 .091.038s-.066.064.046.234a1.1 1.1 0 0 1-.717.107m-.572-3.39v-.203q.925.283 1.79.707c-.034.19.657.177.269 1.13 0 .215-1.382.512-.072 1.314-.237.12-.658.297-.698.335-.098-.095 0-.253 0-.253s-.414-.05-.125-.328c.125.038-.46-.246-.052-.486.125.05-.441-.285-.033-.518.105 0-.355-.259.17-.379-.21-.89.514-.442-1.262-1.32m-.343 8.627-.42.84-.54-.247.29-.575q.329.037.657 0m.415-.126-.112.221-.25-.107q.186-.042.362-.114m-3.533.562.658-1.263c.287.251.608.464.954.632l-.553 1.124zm-.23.992-1.316-.6c.132-.038.092 0 .599-.272l.973.436zM24.2 34.97a1.85 1.85 0 0 1-1.56-.158l2.1-.998.354.158a1.88 1.88 0 0 1-.894.998m.098-1.377-1.73.84c.059-.25.17-.485.325-.692.156-.207.355-.382.583-.514zm2.671-2.69c.351-.13.733-.16 1.101-.089s.708.243.978.493l-2.881 1.409c.072-.695.263-1.585.802-1.813m-.658 2.198 3.014-1.434c.118 1.263-1.007 2.855-3.014 1.434m-11.934-3.259h-.217c.092.329-1.138.707-.81-.322a1.217 1.217 0 0 1-.192-1.339 1.3 1.3 0 0 1 .479-.533c.208-.13.451-.202.7-.206.047-.334 1.06-.46.83.392a1.216 1.216 0 0 1 .187 1.215c-.08.201-.21.38-.381.518-.171.139-.376.234-.596.275m23.875-2.791a1.06 1.06 0 0 0-.45-.361 1.11 1.11 0 0 0-1.117.145 1.03 1.03 0 0 0-.334.462c-.31.234-.382.43-.362.581l-5.921 2.899c-.585-.48.375-5.608 1.81-2.034 0-.1.098-1.351.466.17a.87.87 0 0 1 .323-.51c0-2.697-4.573-2.06-3.599 1.894-1.81-1.093-3.69.177-3.796 2.23a3.3 3.3 0 0 0-1.579-.146l-6.81-3.044-.348-.145.474-.948c-.066 0-.198-.075-.507-.22a.8.8 0 0 0-.156-.32.8.8 0 0 0-.285-.224c.066-.19.093-.082-.276-.631.19-.348-.316-1.396-1.138-.512-.316-.151 0-.07-.658.196-.263-.063-.914-.1-1.283.77 0 0-1.02 0-.493 1.011-.277.41-.434.695.19 1.427-.065.183-.092.089.283.632-.19.34.31 1.383 1.139.505.309.151 0 .07.658-.196a.9.9 0 0 0 .723 0l.5.228.434-.878 6.441 2.86c-.418.4-.686.922-.763 1.484-.75-1.111-4.316-.258-3.29 1.61.139-.63 1.106-2.197 2.974-.984-6.651 3.157-2.013 1.534.21.284-.098.524-.15 2.684-2.591 1.812.467 1.181 3.546.992 3.29-1.547 1.887.676 2.506.24 3.433-1.2l6.04 2.684c-.033 0 1.052.057.388-.783 0 0-.237-.114-.658-.297l.217-.435 1.013.448 1.119-2.274-.31-.139c.823-.164 1.553-2.526.211-2.797a.93.93 0 0 1-.618-.057c.111.297.94 1.137-.132.461 2.23 2.791-2.566 1.345-2.888.095l6-2.855c.112.108.296.146.69.038.494.089 1.632 0 1.317-1.326"/></svg>