<svg xmlns="http://www.w3.org/2000/svg" width="50" height="50" fill="none" viewBox="0 0 50 50"><path fill="#ffce3e" fill-rule="evenodd" d="M8.862 12.04c-.025.02-.187.048-.38.066-.326.03-.8.098-.834.12a16.722 16.722 0 0 0-1.598.26q-.476.099-.952.194c-.546.107-.636.126-1.435.309-.188.043-.382.085-.431.094s-.306.067-.571.13c-.266.063-.568.132-.673.153l-.394.081-.444.092c-.555.114-1.04.207-1.09.207-.068 0-.084 2.62-.017 2.717a.8.8 0 0 1 .069.169c.102.355.33.691.934 1.377.64.727.79 1.019 1.039 2.028.324 1.313.51 1.94 1.138 3.808q.13.38.275.754.12.299.237.598c.856 2.21 1.467 2.941 3.178 3.81 1.108.563 2.571.983 3.796 1.09.181.016.398.04.482.054.242.04 1.553.059 2.005.028.705-.048 1.313-.106 1.524-.145q.202-.037.406-.067c.817-.122 1.887-.516 2.685-.992.55-.327 1.54-1.13 1.81-1.468.055-.069.21-.244.344-.39.752-.819 1.547-2.087 2.345-3.74.344-.71.436-.978.736-2.144.267-1.037.361-1.33.578-1.799.194-.416.234-.447.552-.427.75.048 1.365.065 1.803.05l.495-.015.08.069c.22.188.545.877.733 1.55.193.69.687 2.155.893 2.651.662 1.591 1.479 2.925 2.348 3.836 1.072 1.124 2.225 1.853 3.74 2.365.508.171 1.39.397 1.777.454.112.017.296.046.41.066.642.112 2.549.12 3.208.013.189-.03.417-.067.508-.08 2.518-.379 4.852-1.913 6.03-3.963.36-.626.84-1.815 1.029-2.548.025-.1.082-.316.125-.48.043-.165.203-.802.356-1.417s.3-1.194.326-1.287l.166-.585c.325-1.148.7-1.777 1.298-2.176.215-.144.35-.277.395-.39a.3.3 0 0 1 .067-.106c.052-.033.048-2.703-.005-2.767-.362-.442-.527-.534-1.114-.618a7 7 0 0 1-.49-.092c-.54-.129-1.082-.27-1.341-.35a36 36 0 0 0-1.516-.416c-.405-.105-1.485-.303-2.127-.39-.16-.022-.904-.14-1.295-.207a9 9 0 0 0-.507-.065c-.184-.018-.307-.043-.332-.067-.06-.055-3.215-.057-3.32-.002-.037.02-.21.05-.385.066a10 10 0 0 0-.546.069c-.126.02-.32.05-.432.065s-.312.046-.444.067c-.133.022-.35.056-.483.075-.41.059-1.851.326-2.513.466l-.635.131-.634.131c-.564.119-.702.146-1.105.22l-.609.117c-.516.105-.75.148-1.295.234-.87.139-1.286.193-1.63.212-.31.017-.37.012-1.137-.097-.975-.138-1.81-.205-2.542-.206-.709 0-.84.014-1.1.12-.186.077-.417.075-.775-.005a20 20 0 0 0-.432-.09 23 23 0 0 1-1.257-.272 16 16 0 0 0-.57-.132c-.057-.01-.287-.062-.513-.117a13 13 0 0 0-.634-.14 13 13 0 0 1-.453-.09c-.552-.124-.807-.168-1.663-.287l-.8-.115a87 87 0 0 0-1.688-.226l-.495-.064c-.14-.019-.437-.048-.66-.065q-.406-.03-.447-.067c-.058-.052-3.11-.051-3.177 0m6.048 1.704c.175.018.449.053.61.08s.354.056.431.066c.13.015.296.05.94.197.132.03.355.088.494.129.14.04.382.109.538.152 3.839 1.068 4.78 3.085 3.273 7.013a9 9 0 0 0-.142.383c0 .057-.596 1.416-.844 1.925-.934 1.915-2.352 3.335-4.11 4.115-.403.178-1.252.46-1.584.526-.153.03-.35.071-.436.092a6 6 0 0 1-.545.076c-.214.021-.501.05-.638.065a8.5 8.5 0 0 1-1.296.001l-.664-.068c-.523-.052-1.757-.277-1.885-.344a2 2 0 0 0-.222-.07c-.713-.19-1.95-.918-1.912-1.125.015-.083.237-.07.572.032 1.395.426 2.049.46 2.838.148.72-.285 1.416-1.03 1.739-1.862.24-.62.277-.922.278-2.27.001-1.171-.027-1.064.343-1.29.41-.25 1.028-.43 1.346-.392q.622.076 1.021.355c.265.187.29.284.157.586-.043.098-.198.463-.344.812s-.29.683-.319.741c-.223.448-.704 1.7-.88 2.29-.158.538-.181.624-.209.785-.055.328.032.322.382-.026.656-.654 1.43-.885 2.376-.71.111.02.271.046.355.055s.224.034.31.055c.3.07.282.09.86-.926.505-.89.534-.959.449-1.062-.093-.112-.166-.1-.334.059-.183.172-.137.167-.785.08-.608-.081-1.027-.084-1.485-.012-.562.09-.577.052-.194-.458.425-.567 1.446-2.215 1.446-2.335 0-.01.064-.16.142-.335.218-.488.416-1.052.454-1.292.01-.064.04-.21.067-.325.063-.265.088-.913.052-1.301-.138-1.465-1.18-2.657-2.95-3.372-.784-.317-.587-.374-2.183.63a52 52 0 0 1-.61.377 26 26 0 0 0-.481.3c-.12.076-.308.194-.42.261-.701.425-1.095.688-1.133.757-.025.043-.038.227-.047.65-.017.79.02.755-.622.608-.553-.126-.93-.103-1.295.081-.349.176-.329.288.06.345.811.119 1.422.622 1.697 1.398.13.367.076.416-.326.296-.71-.212-1.202-.172-1.573.129-.24.195-.164.284.24.284.786.002 1.258.315 1.627 1.083.208.431.19.453-.348.433-.574-.022-.89.07-1.159.333-.196.194-.14.25.281.284.754.06 1.227.24 1.584.607.718.736.457 1.782-.485 1.94-.264.044-.953.03-1.408-.03-.758-.098-1.14-.041-1.578.233-.314.198-.345.187-.593-.203-.803-1.268-1.627-4.206-1.843-6.578-.267-2.924.435-4.046 3.022-4.833.145-.044.282-.08.303-.08s.16-.028.307-.063c.325-.076.79-.155 1.233-.21.182-.021.473-.058.648-.08a34 34 0 0 1 2.437-.227c.367-.023 2.668.002 2.97.032m23.852-.01a37 37 0 0 1 3.77.453c.415.062 1.331.33 1.437.42.123.104-.062.184-.57.246-.653.08-1.395-.038-2.073-.328-.374-.16-.428-.156-.708.053-.721.54-1.108.822-1.209.884l-.326.203c-.486.304-1.233.507-2.127.578-.535.042-.502-.012-.513.841-.01.794-.005.781-.255.807-1.268.132-1.98.427-2.48 1.028-.346.415-.563 1.045-.428 1.242.054.08.064.076.231-.076.549-.496 1.02-.642 1.976-.609.674.024.85.047.908.122.065.081.053 5.537-.013 5.885-.121.646-.346 1.092-.653 1.291-.212.139-.264.122-1.092-.363-1.262-.738-1.91-.84-2.552-.403-.17.116-.24.112-.384-.024-.797-.752-1.783-2.508-2.46-4.382a5 5 0 0 0-.125-.314c-.16-.316-.536-1.696-.61-2.239-.328-2.382.824-3.755 3.934-4.689a16 16 0 0 1 3.25-.638c.405-.037 2.388-.03 3.072.011m-14.446.425c.238.014.575.044.75.066l.621.079c1.305.162 1.224.114 1.258.74l.05.886c.075 1.272.001 2.234-.186 2.413-.212.203-2.443.23-2.619.032-.027-.032-.134-.414-.28-1.008-.31-1.249-.617-2.208-.887-2.762-.255-.523-.224-.534 1.293-.446m20.754.967c.622.426 1.027.984 1.192 1.643.228.905.16 2.62-.166 4.243l-.15.74a5 5 0 0 1-.1.413.7.7 0 0 0-.04.162c0 .026-.032.156-.073.289s-.098.335-.129.45c-.962 3.6-2.727 5.139-6.245 5.442l-.65.058c-.496.046-1.404.003-2.232-.106-.435-.057-1.574-.37-1.763-.485-.194-.117-.122-.164.532-.347q.345-.099.685-.208.418-.135.838-.261c2.538-.763 3.424-1.59 3.74-3.496.088-.534.114-1.047.132-2.625a43 43 0 0 1 .028-1.397c.029-.102.096-.11.957-.124l.834-.013.072-.082c.05-.057.1-.18.164-.39.05-.17.131-.44.181-.603.176-.577.235-.548-1.122-.55-.94 0-.97-.001-1.035-.053l-.067-.054v-.683c0-.883-.025-.852.533-.654 1.403.498 2.731.016 3.326-1.207.158-.326.216-.336.558-.102m-6.063 1.367c.076.07.072 6.572-.004 7.147-.184 1.393-.772 2.237-1.961 2.818-.552.27-.605.202-.198-.256.28-.317.646-.84.742-1.065.217-.506.327-.939.418-1.643.041-.316.047-.67.06-3.57l.012-3.219.07-.061a.4.4 0 0 1 .19-.078 3 3 0 0 0 .299-.065c.227-.06.315-.062.372-.008m-25.818.11c1.082.284 1.956.938 2.347 1.755.157.33.146.366-.176.627-.534.433-1.18.585-1.773.419-.39-.11-1-.44-1.163-.63l-.078-.09V17.63c0-1.342-.063-1.265.843-1.027m-1.25.053c.046.087.035 7.3-.011 7.657-.121.933-.584 1.518-1.3 1.643-.441.077-.524-.035-.214-.289.384-.314.65-.769.763-1.302.03-.143.062-.283.071-.312.01-.028.023-1.637.03-3.574.016-4.05-.015-3.627.284-3.78.206-.106.336-.12.377-.043m3.818 2.608c.15.112.139.83-.023 1.538-.14.614-.197.678-.484.547-.335-.152-.543-.22-.79-.258a2.83 2.83 0 0 0-1.678.218c-.406.182-.398.203-.398-.947 0-1.184-.024-1.142.498-.885.865.425 1.84.389 2.53-.095.096-.067.249-.147.287-.15.007 0 .034.014.058.032" clip-rule="evenodd"/><path fill="#6b6666" d="M3.494 37.902h1.353v-.292l-.368-.049-.095-.11v-2.813l2.054 3.264h.665v-3.629l.1-.116.351-.048v-.286H6.201v.286l.362.048.107.116v2.602l-1.817-2.888v-.164H3.488v.298l.38.03.083.085v3.216l-.107.11-.35.048zm5.07 0h3.187v-1.088h-.404l-.1.644-.078.097H9.792v-1.58h.771l.084.085.059.438h.35v-1.41h-.35l-.06.437-.083.085h-.771v-1.446h1.181l.077.079.09.535h.415v-.955H8.563v.298l.362.03.095.086v3.24l-.095.097-.362.03zm4.286-4.079v.298l.35.03.095.086v3.24l-.095.097-.35.03v.298h1.674v-.298l-.362-.03-.095-.098V36.11h.1c.6 0 .754.261.938.839.095.291.149.565.457.808.143.115.363.188.618.188.184 0 .386-.018.593-.048v-.292h-.077c-.398 0-.576-.091-.7-.425-.113-.304-.16-.633-.344-.9-.137-.195-.339-.31-.624-.377.671-.127 1.021-.48 1.021-1.04 0-.674-.475-1.039-1.395-1.039zm1.217.347h.273c.575 0 .878.28.878.778 0 .559-.303.814-.938.814q-.098.001-.213-.006zm5.231-.347h-1.733v.298l.362.03.095.098v3.227l-.095.098-.362.03v.298h1.733c.594 0 1.039-.091 1.407-.383.48-.377.73-.936.73-1.653 0-1.277-.76-2.043-2.137-2.043m-.493.34h.345c.944 0 1.4.554 1.4 1.696 0 1.143-.457 1.702-1.4 1.702h-.345zm6.225 3.739h1.751v-.298l-.415-.03-.101-.098V36.06h.795l.084.08.059.443h.35v-1.416h-.35l-.06.443-.083.08h-.795v-1.514h1.146l.077.079.089.59h.41v-1.022h-2.98v.298l.38.03.094.086v3.24l-.095.097-.356.03zm4.085-2.06c0 1.294.813 2.157 2.042 2.157.499 0 .974-.188 1.336-.535.415-.395.635-.942.635-1.586 0-.687-.25-1.27-.706-1.672a1.92 1.92 0 0 0-1.306-.474q-.828 0-1.39.529c-.403.383-.61.918-.61 1.58m2.013-1.721c.647 0 1.11.65 1.11 1.775 0 1.076-.47 1.732-1.122 1.732-.635 0-1.116-.656-1.116-1.775 0-1.088.469-1.732 1.128-1.732m3.1 3.78h1.354v-.291l-.368-.049-.095-.11v-2.813l2.054 3.264h.665v-3.629l.1-.116.35-.048v-.286h-1.353v.286l.362.048.107.116v2.602l-1.816-2.888v-.164h-1.366v.298l.38.03.083.086v3.215l-.106.11-.35.048zm4.993-4.078V34.9h.41l.094-.65.095-.08h.712v3.307l-.1.098-.386.03v.298h1.775v-.298l-.386-.03-.101-.098V34.17h.712l.09.079.1.65h.41v-1.076zm4.576 3.945c.368.132.755.2 1.146.2.973 0 1.573-.522 1.573-1.246 0-.358-.19-.686-.535-.911-.35-.231-.664-.322-.848-.438-.315-.194-.481-.377-.481-.656 0-.334.267-.578.7-.578.19 0 .327.03.434.085l.083.086.1.632h.428v-.985a3.3 3.3 0 0 0-1.116-.207c-.849 0-1.401.523-1.401 1.198 0 .298.142.595.415.833.262.224.54.328.778.45.422.218.635.437.635.765 0 .334-.285.578-.765.578a1.7 1.7 0 0 1-.523-.086l-.077-.09-.095-.73h-.451z"/></svg>