<svg xmlns="http://www.w3.org/2000/svg" width="50" height="50" fill="none" viewBox="0 0 50 50"><path fill="#fff" d="M25.041 9c-5.18 0-9.58 3.417-10.937 8.08A7.46 7.46 0 0 0 7.4 12.9C3.331 12.9 0 16.156 0 20.136s3.33 7.236 7.401 7.236a7.46 7.46 0 0 0 6.703-4.181c1.357 4.663 5.756 8.08 10.937 8.08 5.14 0 9.498-3.376 10.897-7.96 1.192 2.413 3.741 4.101 6.66 4.101 4.071 0 7.402-3.256 7.402-7.236s-3.33-7.236-7.401-7.236c-2.92 0-5.428 1.688-6.661 4.1C34.539 12.377 30.18 9 25.04 9m0 4.221c3.906 0 7.031 3.055 7.031 6.875s-3.125 6.874-7.03 6.874c-3.907 0-7.032-3.055-7.032-6.874 0-3.82 3.125-6.875 7.031-6.875m-17.64 3.9c1.727 0 3.043 1.326 3.043 2.975 0 1.688-1.357 2.974-3.043 2.974-1.727 0-3.042-1.326-3.042-2.974S5.715 17.12 7.4 17.12m35.198 0c1.727 0 3.042 1.326 3.042 2.975 0 1.688-1.356 2.974-3.042 2.974-1.727 0-3.043-1.326-3.043-2.974-.041-1.649 1.316-2.975 3.043-2.975M5.222 34.568c-.165 0-.206.08-.206.241v5.87c0 .16.083.2.206.2h.164c.165 0 .206-.08.206-.2v-4.905l3.248 4.945c0 .04.041.04.041.04s.042 0 .042.04h.287c.165 0 .206-.08.206-.201v-5.789c0-.16-.082-.241-.206-.241h-.164q-.247 0-.247.241v4.864L5.551 34.73l-.041-.04c-.041-.04-.082-.08-.165-.08zm39.227.08c-.165 0-.082.08-.082.241v2.372s-.411-.884-1.48-.884c-1.193 0-2.056.924-2.015 2.291 0 1.367.78 2.332 1.973 2.332s1.563-.925 1.563-.925h.04s-.04.121-.04.282v.362c0 .16.082.2.246.2h.165c.164 0 .206-.08.206-.24v-5.79c0-.16-.247-.24-.37-.24zm-16.036.04c-.165 0-.041.08-.041.242v4.944c0 .965.657 1.086 1.028 1.086q.246 0 .246-.241v-.161c0-.161-.082-.201-.205-.201-.206-.04-.494-.08-.494-.643V34.89c0-.161-.246-.242-.37-.242zm-7.402.523q-.246 0-.246.241v3.86c0 1.045.616 1.648 1.603 1.648.206 0 .247-.04.247-.201v-.12c0-.162-.041-.202-.247-.242-.37-.04-.986-.16-.986-1.166v-2.21h.945c.165 0 .247-.041.247-.202v-.08q0-.241-.247-.241h-.946v-1.046c0-.16-.04-.24-.205-.24zm-8.223 1.126c-1.234 0-2.22.884-2.262 2.331 0 1.367 1.028 2.332 2.385 2.332.74 0 1.275-.322 1.521-.482a.21.21 0 0 0 .083-.282l-.083-.08c-.082-.12-.164-.161-.287-.08-.206.16-.617.401-1.193.401-.945 0-1.727-.643-1.768-1.768h3.29c.123 0 .246-.121.246-.242-.04-1.286-.699-2.13-1.932-2.13m12.829 0c-1.357 0-2.385.964-2.385 2.331S24.26 41 25.617 41c.822 0 1.398-.402 1.603-.563.124-.12.124-.2.041-.321l-.082-.08c-.082-.121-.164-.162-.288-.081-.205.2-.616.482-1.274.482-.987 0-1.768-.723-1.768-1.769 0-1.085.78-1.809 1.768-1.809.534 0 .945.282 1.151.402.123.08.247.08.329-.04l.082-.12c.123-.121.082-.242-.04-.322-.248-.12-.741-.442-1.522-.442m6.949 0c-1.316 0-2.385 1.005-2.385 2.291 0 1.327 1.069 2.332 2.385 2.332s2.385-1.005 2.385-2.332c.04-1.286-1.07-2.291-2.385-2.291m-13.323.08c-.04 0-.082.04-.164.08l-.823.965-.616.724-.946-1.086-.535-.602c-.04-.04-.082-.08-.164-.08-.041 0-.123 0-.164.08l-.124.12c-.123.08-.123.201 0 .282l.822.964.7.804-1.028 1.166-.494.603c-.082.12-.082.241.041.322l.124.12c.123.08.205.08.287-.04l.823-.965.617-.723.945 1.085.494.603c.082.12.205.12.329.04l.123-.12c.123-.08.123-.201 0-.282l-.822-.964-.7-.804 1.029-1.166.493-.603c.082-.12.082-.241-.041-.322l-.123-.12c0-.08-.042-.121-.083-.08m16.941 0c-.164 0-.206.08-.206.241v2.613c0 1.166.864 1.729 1.933 1.729 1.07 0 1.933-.563 1.933-1.729v-2.613c.04-.16-.041-.24-.206-.24h-.164q-.247 0-.247.24v2.453c0 .683-.452 1.326-1.357 1.326-.863 0-1.357-.643-1.357-1.326v-2.453q0-.24-.247-.24zm-23.396.402c.658 0 1.233.482 1.274 1.407h-2.837c.124-.884.782-1.407 1.563-1.407m19.778.04c.986 0 1.768.764 1.768 1.77 0 1.044-.782 1.808-1.768 1.808-.987 0-1.768-.804-1.768-1.809 0-.965.822-1.769 1.768-1.769m10.362 0c.986 0 1.439.885 1.439 1.77 0 1.286-.7 1.808-1.48 1.808-.864 0-1.44-.723-1.44-1.809s.658-1.769 1.48-1.769"/></svg>