<svg xmlns="http://www.w3.org/2000/svg" width="50" height="50" fill="none" viewBox="0 0 50 50"><path fill="#3b41d4" d="M5.93.008h1.256L9.212.007h.067l5.054-.001L26.168.003h3.861L37.765 0h3.305c1.559-.007 2.955.537 4.104 1.585l.08.073c.212.202.388.432.564.666l.062.082c.703.964 1.037 2.113 1.035 3.296v9.515l-.001 3.241v1.195l-.001 3.243v4.514l-.002 8.795-.12-.027-.157-.035-.079-.018a9.2 9.2 0 0 0-3.87-.047l-.09.018-.22.044v-.076q0-4.131-.004-8.262v-.124l-.003-2.617V23.55l-.003-3.053v-1.124l-.004-4.425v-.738l-.003-3.912-.001-1.943v-.993c.001-.467-.065-.888-.27-1.312l-.043-.089c-.33-.652-.912-1.065-1.593-1.292-.379-.1-.762-.106-1.15-.104h-3.334l-2.21-.001H7.545c-.83-.002-1.567.165-2.172.759l-.084.085q-.033.03-.065.064c-.547.575-.653 1.345-.651 2.104v1.136l-.001 2.197v2.825L4.57 15.24v5.872l-.001 5.861v4.618l-.001 4.454a888 888 0 0 1 0 2.675v.615c-.004.844.203 1.616.816 2.234.478.438 1.106.71 1.76.71h.268l.15.001h.414l1.239.002 3.146.003 2.076.002h.617l5.429.005h.066l3.053.003h.199l1.314.002 2.676.003h.124l8.22.007-.03.166-.017.094-.05.264c-.244 1.314-.163 2.547.098 3.85l.017.088.014.067-8.832.004h-4.507l-3.234.002h-1.19q-1.614.003-3.228.002H13l-4.209.002-2.06.001h-.469c-1.215.004-1.215.004-1.713-.108l-.081-.018c-1.038-.236-1.938-.743-2.718-1.46l-.082-.074C.637 44.201.041 42.743.002 41.327a22 22 0 0 1-.001-.597V39.66a534 534 0 0 1 0-2.087V5.844c-.004-1.033.227-2 .72-2.91l.033-.06c.188-.342.42-.64.675-.935l.047-.055c.201-.232.417-.431.66-.62l.092-.075C3.29.33 4.588.007 5.929.01"/><path fill="#393dce" d="M31.797 11.056h.895l.733.002h.834l1.716.002c.002 3.133.002 6.266 0 11.85V23a1758 1758 0 0 1-.007 4.038v.13l-.005 2.026v.534c0 .92-.035 1.778-.342 2.656l-.022.063a5.4 5.4 0 0 1-1.361 2.089l-.05.054c-.442.468-1.022.79-1.623 1.005l-.1.037a3.8 3.8 0 0 1-2.861-.187c-.557-.285-1.016-.692-1.425-1.161q-.177-.203-.364-.397-.234-.246-.465-.495-.206-.225-.414-.446l-.465-.5-.371-.4-.465-.5-.371-.398-.465-.501-.372-.399-.465-.5-.371-.399q-.233-.25-.465-.5l-.371-.4q-.233-.248-.465-.5l-.374-.4q-.244-.262-.485-.525-.185-.2-.373-.4l-.362-.39-.418-.45a92 92 0 0 1-.72-.775 18 18 0 0 1-.479-.526l-.216-.24a20 20 0 0 1-.328-.368q-.142-.16-.286-.316c-.062-.07-.062-.07-.126-.167v.062l-.007 4.105v.088l-.005 2.874-.002 1.514v.355c.002 1.04-.188 1.957-.951 2.724-.717.67-1.557.726-2.49.72q-.197-.003-.393-.002-.372 0-.742-.003l-.846-.002-1.737-.007c-.002-3.002 0-6.005.007-10.66l.001-.604v-.067l.006-4.462.004-2.94v-.676c-.003-1.34.386-2.652 1.268-3.681l.069-.08a4.37 4.37 0 0 1 2.312-1.398l.077-.017c.253-.053.502-.06.76-.059h.066c.365.002.708.032 1.059.14l.066.02c.814.255 1.477.774 2.024 1.416q.14.158.286.311.226.24.448.487.189.209.38.415l.221.242.089.096.53.579a40.227 40.227 0 0 0 .133.144l.224.243.406.445q.216.239.434.475l.409.443.176.192.088.097.224.243.406.445q.215.24.434.474l.409.444.22.24.089.097.044.048.133.144.044.049.088.096.224.243q.204.222.405.445.217.239.435.475.205.22.408.443l.177.192.088.097.223.243q.205.222.406.445.217.24.435.474l.408.444.177.192.313.34.046.05.125.137.225.25.07.079.053.06v-.064l.008-4.188v-.09l.006-2.931.004-1.907c0-1.139 0-1.139.197-1.665l.025-.068a3.2 3.2 0 0 1 .628-1.002l.054-.062c.547-.59 1.297-.779 2.073-.777"/><path fill="#3332bf" d="m15.788 15.317.05.046v.065l.053.02c.104.06.18.14.263.224l.049.049q.164.169.318.348.14.156.285.308l.127.134.064.069c.51.542.51.542.692.754q.076.083.158.16c.083.085.083.085.083.15h.064c.047.047.047.047.101.112q.177.206.365.401.21.221.41.45.141.159.288.31l.128.137.063.067.301.325.261.28.06.064.114.122q.139.147.27.298.179.202.365.396.266.28.527.567.199.215.401.428.145.153.285.313.178.2.363.394.313.33.62.666.35.384.71.761l.53.57q.142.156.287.31l.25.272.053.057.099.108q.099.109.204.21c.054.057.054.057.054.121h.064c.047.047.047.047.1.112q.183.21.374.41.313.33.62.666.315.345.634.686.255.273.508.548l.24.26.097.104.048.052.58.626.096.105.239.258q.258.28.519.559.246.263.49.529.21.23.424.46l.192.207.096.104q.126.135.248.274c.496.559 1.157.994 1.92 1.048.943.042 1.662-.225 2.37-.848.5-.47.787-1.102.948-1.76h.033c.02.902-.021 1.74-.322 2.601l-.022.063a5.4 5.4 0 0 1-1.361 2.089l-.05.054c-.442.468-1.022.79-1.623 1.005l-.1.037a3.8 3.8 0 0 1-2.862-.187c-.557-.285-1.015-.691-1.424-1.161q-.177-.202-.364-.397-.234-.246-.465-.495-.205-.225-.414-.446-.233-.25-.465-.5l-.371-.4-.466-.5-.37-.398-.466-.501-.37-.399q-.235-.25-.466-.5l-.371-.399q-.233-.25-.465-.5l-.372-.4q-.233-.248-.465-.5l-.373-.4q-.244-.262-.486-.525-.184-.2-.372-.4l-.362-.39-.418-.45a93 93 0 0 1-.72-.775 19 19 0 0 1-.479-.526l-.217-.24q-.165-.182-.328-.368-.142-.16-.285-.316c-.062-.07-.062-.07-.127-.167v.062q-.001 1.832-.005 3.664l-.001.44v.09l-.002 1.417-.004 2.353-.001.617v.355c.001 1.04-.188 1.957-.951 2.724-.717.67-1.558.726-2.49.72q-.196-.003-.393-.002l-.742-.002-.846-.003-1.737-.007v-4.567q0-2.73.004-5.46v-.723q.002-.986.002-1.971 0-1.026.002-2.051v-1.252a219 219 0 0 1 .002-1.34v-.608a2.8 2.8 0 0 1 .334-1.353 3.3 3.3 0 0 1 1.913-1.652c.904-.262 1.82-.07 2.58.474"/><path fill="#414ee4" d="M16.086 21.152c.3.237.561.51.815.795l.171.195q.098.113.198.222.158.174.312.351.137.155.277.308l.07.08.085.076c.122.15.099.329.097.513v2.351l-.001 1.475v3.234l-.002 1.276v.357c.003 1.042-.185 1.96-.95 2.729-.716.67-1.557.726-2.49.72q-.197-.003-.393-.002l-.742-.002-.846-.003-1.737-.007-.002-1.664v-.067c-.002-2.172.008-4.343.018-6.515l.016-3.572h.064l.002-.072c.044-.965.575-1.883 1.263-2.537 1.057-.925 2.62-1.106 3.775-.24"/><path fill="#414ee5" d="M35.975 11.06v11.015h-.032l-.004.056c-.08 1.113-.409 2.045-1.187 2.867l-.066.073c-.616.648-1.524 1.037-2.413 1.064-.911.01-1.626-.34-2.275-.968a7 7 0 0 1-.422-.447q-.17-.19-.348-.377l-.109-.116c-.058-.064-.058-.064-.12-.118-.126-.123-.18-.214-.193-.391V22.66q0-.36.002-.721v-.842q0-.75.004-1.503l.002-1.455v-.45a805 805 0 0 1 .005-3.055c0-1.143 0-1.143.198-1.67l.025-.067a3.2 3.2 0 0 1 .628-1.002l.054-.062c1.43-1.54 5.06-.773 6.25-.773"/><path fill="#f01b44" d="M44.525 39.05h.075a5.3 5.3 0 0 1 3.244 1.106l.09.067c.407.319.775.695 1.068 1.12l.04.058c.846 1.247 1.128 2.738.86 4.214a5.55 5.55 0 0 1-2.154 3.34l-.056.041c-1.12.823-2.596 1.144-3.965.949-1.434-.226-2.757-.976-3.624-2.15-.558-.779-.932-1.674-1.04-2.63l-.011-.093a5.5 5.5 0 0 1 1.173-3.98 5.48 5.48 0 0 1 3.475-2.006c.274-.033.549-.035.825-.036"/></svg>