<svg xmlns="http://www.w3.org/2000/svg" width="50" height="50" fill="none" viewBox="0 0 50 50"><path fill="#fa890f" fill-rule="evenodd" d="M49.517 8c0-2.485-1.947-4.5-4.348-4.5H13.286c-2.401 0-4.348 2.015-4.348 4.5v37c0 2.485 1.947 4.5 4.348 4.5H45.17c2.402 0 4.348-2.015 4.348-4.5z" clip-rule="evenodd"/><path fill="#e7eadf" fill-rule="evenodd" d="M13.333 3.5c-1.957 0-3.673 1.354-4.192 3.307l-8.502 32a4.63 4.63 0 0 0 .734 3.92A4.3 4.3 0 0 0 4.83 44.5h31.596c1.957 0 3.673-1.353 4.192-3.307l8.502-32a4.63 4.63 0 0 0-.734-3.92A4.3 4.3 0 0 0 44.93 3.5z" clip-rule="evenodd"/><path fill="#ffbc15" fill-rule="evenodd" d="M49.105 9.204a4.63 4.63 0 0 0-.728-3.927A4.3 4.3 0 0 0 44.916 3.5h-31.59c-1.954 0-3.667 1.348-4.19 3.296l-1.63 6.07c-.04.15-.01.312.082.437a.48.48 0 0 0 .384.197h39.613c.217 0 .407-.15.465-.366z" clip-rule="evenodd"/><path fill="#3b2e5e" fill-rule="evenodd" d="M8.455 44v1c0 2.761 2.163 5 4.831 5H45.17C47.837 50 50 47.761 50 45V8c0-2.761-2.163-5-4.83-5-.534 0-.967.448-.967 1s.433 1 .966 1c1.601 0 2.899 1.343 2.899 3v37c0 1.657-1.298 3-2.899 3H13.286c-1.6 0-2.898-1.343-2.898-3v-1c0-.552-.433-1-.966-1-.534 0-.967.448-.967 1" clip-rule="evenodd"/><path fill="#3b2e5e" fill-rule="evenodd" d="M13.333 3c-2.175 0-4.081 1.504-4.658 3.674l-8.502 32a5.14 5.14 0 0 0 .816 4.357C1.902 44.27 3.323 45 4.83 45h31.596c2.175 0 4.081-1.504 4.658-3.674l8.502-32a5.14 5.14 0 0 0-.816-4.357C47.858 3.73 46.437 3 44.93 3zm0 2c-1.305 0-2.449.902-2.795 2.204l-8.502 32c-.24.903-.059 1.87.49 2.614A2.87 2.87 0 0 0 4.83 43h31.596c1.305 0 2.449-.902 2.795-2.205l8.502-32c.24-.902.059-1.869-.49-2.613A2.87 2.87 0 0 0 44.93 5z" clip-rule="evenodd"/><path fill="#3b2e5e" fill-rule="evenodd" d="M29.81.001c2.087.055 3.765 1.826 3.765 4 0 .551-.433.999-.966.999-.516 0-.939-.42-.965-.949l-.003-.154C31.589 2.841 30.744 2 29.71 2c-1.067 0-1.933.896-1.933 2 0 .552-.432 1-.966 1-.533 0-.966-.448-.966-1 0-2.208 1.732-4 3.865-4zM19.183.001c2.087.055 3.765 1.826 3.765 4 0 .551-.433.999-.966.999-.517 0-.94-.42-.965-.949l-.004-.154C20.96 2.841 20.116 2 19.083 2c-1.066 0-1.932.896-1.932 2 0 .552-.433 1-.966 1-.534 0-.967-.448-.967-1 0-2.208 1.732-4 3.865-4zM7.972 14h39.613c.533 0 .966-.448.966-1s-.433-1-.966-1H7.972c-.533 0-.966.448-.966 1s.433 1 .966 1" clip-rule="evenodd"/><path fill="#3b2e5e" fill-rule="evenodd" d="M16.234 3.001c.494.026.89.437.915.948l.004.154C17.205 5.159 18.05 6 19.083 6c.533 0 .966.448.966 1s-.433 1-.966 1c-2.133 0-3.865-1.792-3.865-4 0-.552.433-1 .967-1zM26.862 3.001c.494.026.89.437.915.948l.004.154C27.833 5.159 28.678 6 29.711 6c.533 0 .966.448.966 1s-.433 1-.966 1c-2.133 0-3.865-1.792-3.865-4 0-.552.433-1 .966-1zM37.49 3.001c.493.026.89.437.915.948l.004.154C38.46 5.159 39.305 6 40.339 6c.533 0 .966.448.966 1s-.433 1-.966 1c-2.133 0-3.865-1.792-3.865-4 0-.552.433-1 .966-1z" clip-rule="evenodd"/><path fill="#3b2e5e" fill-rule="evenodd" d="M40.438.001c2.087.055 3.765 1.826 3.765 4 0 .551-.433.999-.966.999-.517 0-.939-.42-.965-.949l-.004-.154C42.216 2.841 41.372 2 40.338 2c-1.066 0-1.932.896-1.932 2 0 .552-.433 1-.966 1s-.966-.448-.966-1c0-2.208 1.732-4 3.865-4zM12.743 24.026c2.415-1.217 4.926-1.193 7.395-.743 2.644.482 5.246 1.45 7.666 2.075 3.615.935 6.846 1.072 9.353-1.524a1.026 1.026 0 0 0 0-1.414.944.944 0 0 0-1.366 0c-1.204 1.246-2.637 1.614-4.214 1.556-1.778-.066-3.725-.648-5.766-1.262-4.467-1.345-9.34-2.792-13.914-.486-.48.242-.68.841-.446 1.337a.95.95 0 0 0 1.292.461M10.81 33.026c2.997-1.51 6.137-1.118 9.17-.353.518.13 1.041-.198 1.167-.735s-.191-1.077-.71-1.208c-3.464-.875-7.049-1.227-10.472.498-.48.242-.68.841-.446 1.337a.95.95 0 0 0 1.292.461M23.961 33.82c2.092.622 4.088 1.145 5.91 1.161 2.003.018 3.811-.55 5.354-2.147a1.026 1.026 0 0 0 0-1.414.944.944 0 0 0-1.367 0c-1.14 1.181-2.489 1.575-3.97 1.561-1.664-.015-3.483-.515-5.393-1.083a.96.96 0 0 0-1.196.685c-.147.53.15 1.085.662 1.237" clip-rule="evenodd"/></svg>