<svg xmlns="http://www.w3.org/2000/svg" width="50" height="50" fill="none" viewBox="0 0 50 50"><path fill="#666" d="M6.452 36.694v.806q0 .502-.355.855a1.17 1.17 0 0 1-.855.355H1.21q-.502 0-.856-.355A1.17 1.17 0 0 1 0 37.5v-.806q0-.502.354-.856.355-.354.856-.354h4.032q.502 0 .855.354.355.354.355.856m0-8.065v.806q0 .502-.355.856a1.17 1.17 0 0 1-.855.354H1.21q-.502 0-.856-.354A1.17 1.17 0 0 1 0 29.436v-.807q0-.502.354-.855.355-.355.856-.355h4.032q.502 0 .855.355.355.354.355.855m0-8.065v.807q0 .502-.355.855a1.17 1.17 0 0 1-.855.355H1.21q-.502 0-.856-.355A1.17 1.17 0 0 1 0 21.371v-.806q0-.502.354-.856.355-.354.856-.354h4.032q.502 0 .855.354.355.354.355.855m0-8.064v.806q0 .502-.355.856a1.17 1.17 0 0 1-.855.354H1.21q-.502 0-.856-.354A1.17 1.17 0 0 1 0 13.306V12.5q0-.502.354-.855.355-.354.856-.355h4.032q.502 0 .855.355.355.354.355.855m0-8.064v.806q0 .502-.355.855a1.17 1.17 0 0 1-.855.355H1.21q-.502 0-.856-.355A1.17 1.17 0 0 1 0 5.242v-.806q0-.502.354-.856.355-.354.856-.354h4.032q.502 0 .855.354.355.354.355.856"/><path fill="#eaeaea" d="M50 2.42v2.419h-4.839v-2.42q0-1.002.709-1.71A2.33 2.33 0 0 1 47.58 0q1.003 0 1.711.709.71.708.709 1.71"/><path fill="#dad4d4" d="M50 2.42v2.419h-1.613v-2.42q0-1.002-.71-1.71a2.26 2.26 0 0 0-.903-.564q.39-.147.807-.145 1.002 0 1.71.709.71.708.709 1.71"/><path fill="#eaeaea" d="M12.903 3.226h17.742v12.903H12.903z"/><path fill="#dad4d4" d="M30.645 3.226v12.903H12.903v-2.42H25q1.336 0 2.281-.944.945-.945.945-2.281V3.226z"/><path fill="#666" d="M6.452 44.758v.806q0 .502-.355.856a1.17 1.17 0 0 1-.855.354H1.21q-.502 0-.856-.354A1.17 1.17 0 0 1 0 45.565v-.807q0-.502.354-.855.355-.354.856-.355h4.032q.502 0 .855.355.355.354.355.855"/><path fill="#4d4d4d" d="M6.452 44.758v.806q0 .502-.355.856a1.17 1.17 0 0 1-.855.354H1.21q-.502 0-.856-.354A1.17 1.17 0 0 1 0 45.565v-.404h3.629q.502 0 .855-.354.355-.354.355-.855v-.404h.403q.502 0 .855.355.355.354.355.855m0-8.064v.806q0 .502-.355.855a1.17 1.17 0 0 1-.855.355H1.21q-.502 0-.856-.355A1.17 1.17 0 0 1 0 37.5v-.403h3.629q.502 0 .855-.355.355-.353.355-.855v-.403h.403q.502 0 .855.354.355.354.355.856m0-8.065v.806q0 .502-.355.856a1.17 1.17 0 0 1-.855.354H1.21q-.502 0-.856-.354A1.17 1.17 0 0 1 0 29.436v-.404h3.629q.502 0 .855-.354.355-.354.355-.855v-.404h.403q.502 0 .855.355.355.354.355.855m0-8.065v.807q0 .502-.355.855a1.17 1.17 0 0 1-.855.355H1.21q-.502 0-.856-.355A1.17 1.17 0 0 1 0 21.371v-.403h3.629q.502 0 .855-.355.355-.353.355-.855v-.403h.403q.502 0 .855.354.355.354.355.855m0-8.064v.806q0 .502-.355.856a1.17 1.17 0 0 1-.855.354H1.21q-.502 0-.856-.354A1.17 1.17 0 0 1 0 13.306v-.403h3.629q.502 0 .855-.354.355-.354.355-.855v-.404h.403q.502 0 .855.355.355.354.355.855m0-8.064v.806q0 .502-.355.855a1.17 1.17 0 0 1-.855.355H1.21q-.502 0-.856-.355A1.17 1.17 0 0 1 0 5.242v-.403h3.629q.502 0 .855-.355.355-.353.355-.855v-.403h.403q.502 0 .855.354.355.354.355.856"/><path fill="#ed1c24" d="M47.58 7.258H50v36.29h-2.42z"/><path fill="#c1272d" d="M48.387 7.258H50v36.29h-1.613z"/><path fill="#fcee21" d="M50 4.839v2.42h-4.839v-2.42z"/><path fill="#f7931e" d="M50 4.839v2.42h-1.613v-2.42z"/><path fill="#ffd5c2" d="m50 43.548-1.516 4.033h-1.807l-1.516-4.033H50"/><path fill="#ffa180" d="m50 43.548-1.516 4.033H46.87l1.516-4.033z"/><path fill="#995b3f" d="M48.484 47.58 47.58 50l-.904-2.42z"/><path fill="#ffca3a" d="M45.161 7.258h2.42v36.29h-2.42z"/><path fill="#666" d="M33.065 0h3.225v50h-3.225z"/><path fill="#ffca3a" d="M33.065 0v50H3.225v-3.226h2.017q.502 0 .855-.354.355-.354.355-.855v-.807q0-.502-.355-.855a1.17 1.17 0 0 0-.855-.355H3.226V38.71h2.016q.502 0 .855-.355.355-.353.355-.855v-.806q0-.502-.355-.856a1.17 1.17 0 0 0-.855-.354H3.226v-4.839h2.016q.502 0 .855-.354.355-.354.355-.855v-.807q0-.502-.355-.855a1.17 1.17 0 0 0-.855-.355H3.226v-4.838h2.016q.502 0 .855-.355.355-.354.355-.855v-.806q0-.502-.355-.856a1.17 1.17 0 0 0-.855-.354H3.226v-4.839h2.016q.502 0 .855-.354.355-.355.355-.856V12.5q0-.502-.355-.855a1.17 1.17 0 0 0-.855-.355H3.226V6.452h2.016q.502 0 .855-.355.355-.354.355-.855v-.806q0-.502-.355-.856a1.17 1.17 0 0 0-.855-.354H3.226V0zm-2.42 16.13V3.225H12.903v12.903z"/><path fill="#4d4d4d" d="M36.29 29.839V50h-3.225V39.516q3.232-4.298 3.225-9.677"/><path fill="#f7931e" d="M33.065 39.516V50H3.225v-3.226h2.017q.853-.002 1.137-.806h13.782a15.9 15.9 0 0 0 7.215-1.7 15.9 15.9 0 0 0 5.689-4.752M40.323 2.42v45.162q0 1.002-.709 1.71a2.33 2.33 0 0 1-1.71.709H36.29V0h1.613q1.002 0 1.711.709.709.708.709 1.71"/><path fill="gray" d="M27.42 7.258H15.322q-.807 0-.807-.806 0-.807.807-.807h12.096q.807 0 .807.807 0 .806-.807.806m0 3.226H15.322q-.807 0-.807-.807 0-.806.807-.806h12.096q.807 0 .807.806 0 .807-.807.807m0 3.226H15.322q-.807 0-.807-.807 0-.806.807-.806h12.096q.807 0 .807.806 0 .807-.807.807M1.564 4.212q-.405 0-.404.403 0 .405.404.404.403 0 .403-.404 0-.402-.403-.403m0 8.086q-.405 0-.404.404 0 .403.404.403.403 0 .403-.403 0-.405-.403-.404m-.04 8.047q-.403 0-.403.403 0 .404.403.404t.403-.404-.403-.403m.04 8.047q-.405 0-.404.403 0 .403.404.403.403 0 .403-.403t-.403-.403m-.04 8.127q-.403 0-.403.403t.403.403.403-.403-.403-.403m0 8.007q-.403 0-.403.403t.403.403.403-.403-.403-.403"/></svg>