<svg xmlns="http://www.w3.org/2000/svg" width="50" height="50" fill="none" viewBox="0 0 50 50"><path fill="#fed5b3" d="m11.972 11.482 34.747-1.352c1.376-.055 2.523.995 2.523 2.308v33.12c0 1.24-1.026 2.258-2.325 2.308L12.17 49.218c-1.377.053-2.524-.996-2.524-2.309V13.79c0-1.24 1.027-2.258 2.326-2.308"/><path fill="#1f212b" d="M12.069 49.943c-1.753 0-3.18-1.361-3.18-3.033V13.79c0-1.633 1.341-2.964 3.053-3.03L46.82 9.405c1.753 0 3.179 1.362 3.179 3.033v33.12c0 1.632-1.34 2.963-3.051 3.03zm34.75-39.093-34.816 1.353c-.897.035-1.599.732-1.599 1.587v33.12c0 .875.747 1.588 1.665 1.588l.07-.002 34.747-1.351c.897-.036 1.598-.733 1.598-1.588V12.438c0-.876-.747-1.588-1.664-1.588"/><path fill="#fae8e6" d="M2.644 2.024 34.679.725a2.5 2.5 0 0 1 1.5.421L47.3 8.63c.63.424.338 1.37-.433 1.399L10.25 11.452a1.67 1.67 0 0 1-1.076-.337L1.525 5.283C.14 4.226.87 2.096 2.644 2.024"/><path fill="#1f212b" d="M10.182 12.176a2.46 2.46 0 0 1-1.481-.497L1.052 5.847C.172 5.175-.17 4.082.18 3.06s1.305-1.712 2.431-1.758L34.78 0c.663 0 1.298.193 1.837.556l11.12 7.482c.556.375.791 1.02.599 1.641-.193.623-.757 1.042-1.437 1.069L10.28 12.173zM34.78 1.444 2.676 2.746c-.746.03-.996.591-1.056.763-.059.172-.205.765.38 1.21l7.648 5.832a.9.9 0 0 0 .536.18v.722l.036-.723 36.616-1.424.464-.678-.437.59-11.12-7.482a1.7 1.7 0 0 0-.963-.292"/><path fill="#f69272" d="M9.054 11.11.758 4.64v32.618c0 .327.11.647.312.91l7.116 9.251c.462.6 1.46.289 1.46-.456V12.302c0-.462-.217-.9-.592-1.192"/><path fill="#1f212b" d="M8.83 48.458c-.498 0-.956-.224-1.254-.613L.46 38.596c-.3-.391-.46-.854-.46-1.338V4.639a.72.72 0 0 1 .433-.652.79.79 0 0 1 .805.093l8.296 6.47c.553.432.87 1.07.87 1.752v34.662c0 .425-.176.813-.497 1.095a1.63 1.63 0 0 1-1.077.399M1.515 6.164v31.094c0 .176.058.343.167.484l7.149 9.272c.026 0 .058-.025.058-.05V12.303a.8.8 0 0 0-.315-.633z"/><path fill="#f69272" d="M35.909 17.284c-1.131.053-2.02.943-2.02 2.022l2.782.383.07-.012v13.396L26.41 17.72l-.538.025v-.025l-1.672.104-5.247.247.051.077-.236.014c-1.183.074-2.102 1.01-2.102 2.14v.303l2.678-.167v19.477l-1.213.236c-1.139.054-2.033.95-2.033 2.037v.1l8.447-.4c1.198-.056 2.139-.999 2.139-2.142l-3.304-.614-.25.048V24.39l8.93 13.506 1.31 2.25c.958 1.647 3.072 2.328 4.88 1.574l2.103-.877-.061-.183h.238V19.056c1.259-.06 2.247-.286 2.247-1.935v-.157z"/><path fill="#1f212b" d="M16.098 42.648a.4.4 0 0 1-.262-.1.36.36 0 0 1-.117-.261v-.1c0-1.281 1.051-2.335 2.394-2.398l.852-.168V20.823l-2.274.142a.38.38 0 0 1-.284-.097.35.35 0 0 1-.12-.263v-.303c0-1.301 1.055-2.39 2.411-2.497a.4.4 0 0 1 .237-.094l6.912-.352q.076-.004.146.018l.398-.018a.37.37 0 0 1 .338.166l9.634 14.317v-11.83l-2.529-.348a.37.37 0 0 1-.325-.357c0-1.275 1.046-2.321 2.38-2.383l6.87-.32a.38.38 0 0 1 .279.099.36.36 0 0 1 .117.261v.158c0 1.909-1.31 2.201-2.247 2.274V40.66c0 .14-.084.262-.206.322a.37.37 0 0 1-.198.192l-2.102.877a4.3 4.3 0 0 1-1.684.337c-1.53 0-2.938-.792-3.68-2.066l-1.309-2.25-8.22-12.432v13.147l3.247.604a.366.366 0 0 1 .306.354c0 1.338-1.097 2.437-2.498 2.503l-8.448.399zm3.245-22.572a.4.4 0 0 1 .259.098c.076.068.12.163.12.263v19.478c0 .171-.127.32-.303.354l-1.213.235c-.889.045-1.57.637-1.706 1.401l8.026-.378c.893-.043 1.612-.674 1.753-1.49l-2.898-.538-.175.035a.4.4 0 0 1-.315-.075.36.36 0 0 1-.14-.28V24.39c0-.16.112-.302.274-.346a.39.39 0 0 1 .426.154l8.93 13.507 1.32 2.268c.608 1.044 1.764 1.694 3.017 1.694.477 0 .941-.094 1.38-.277l1.816-.757a.35.35 0 0 1 .072-.185.37.37 0 0 1 .165-.122v-21.27c0-.192.158-.35.36-.36 1.225-.058 1.813-.276 1.88-1.352l-6.464.302c-.82.038-1.484.61-1.63 1.353l2.397.33a.44.44 0 0 1 .255.079c.087.068.172.164.172.271v13.397c0 .16-.111.3-.272.346a.39.39 0 0 1-.426-.152L26.209 18.09l-.319.015a.3.3 0 0 1-.134-.016l-1.53.096-4.972.234a.4.4 0 0 1-.225.09l-.237.014c-.951.06-1.703.798-1.747 1.697l2.273-.142q.012-.002.025-.002M49.242 22.187c-.418 0-.758-.323-.758-.722V10.302l-11.238-7.57a.7.7 0 0 1-.181-1.007.78.78 0 0 1 1.056-.172l11.558 7.786c.2.136.32.355.32.59v11.536c0 .399-.34.722-.757.722M9.63 50a.77.77 0 0 1-.611-.297L4.738 44.12a.7.7 0 0 1 .164-1.009.78.78 0 0 1 1.059.158l4.043 5.274 6.244-.212c.432-.018.77.298.784.696.015.399-.312.733-.73.747L9.657 50z"/><path fill="#fae8e6" d="m34.541 3.814 5.07 3.412L10.72 8.35 6.279 4.96z"/><path fill="#1f212b" d="M10.722 8.71a.4.4 0 0 1-.237-.078L6.04 5.244c-.124-.095-.173-.252-.124-.395a.38.38 0 0 1 .344-.249l2.37-.096c.198.009.385.146.394.346s-.154.368-.363.376l-1.36.055 3.546 2.702 6.941-.27c.197.004.386.147.394.346a.37.37 0 0 1-.363.376l-7.083.276zm12.381-.481a.37.37 0 0 1-.378-.346.37.37 0 0 1 .363-.376l1.514-.059a.36.36 0 0 1 .394.346.37.37 0 0 1-.363.376l-1.514.059zm3.785-.147a.37.37 0 0 1-.378-.346.37.37 0 0 1 .363-.376l11.61-.451-4.055-2.728-.788.032a.376.376 0 0 1-.394-.346.37.37 0 0 1 .362-.376l.913-.037a.407.407 0 0 1 .24.068l5.067 3.41c.133.089.19.25.145.397a.375.375 0 0 1-.348.259l-12.722.495zm-14.456-3.01a.37.37 0 0 1-.378-.345.37.37 0 0 1 .362-.377l18.922-.767c.21.008.386.145.395.346a.37.37 0 0 1-.362.376l-18.923.767z"/><path fill="#f69272" d="m3.99 11.141 2.424 1.891v26.873L3.99 36.754z"/><path fill="#1f212b" d="M5.673 39.303a.38.38 0 0 1-.306-.148l-.896-1.165a.35.35 0 0 1 .082-.504.39.39 0 0 1 .53.077l.896 1.165q.037.051.057.107V13.203l-1.667-1.3v4.455c0 .2-.17.361-.379.361a.37.37 0 0 1-.379-.36v-5.216a.4.4 0 0 1 .007-.072v-.003a.372.372 0 0 1 .21-.254.4.4 0 0 1 .145-.034.4.4 0 0 1 .197.044.4.4 0 0 1 .06.04l2.422 1.889c.088.068.14.17.14.28v25.9c0 .199-.17.36-.38.36a.376.376 0 0 1-.369-.28.36.36 0 0 1-.148.22.4.4 0 0 1-.222.07m-1.683-4.53a.37.37 0 0 1-.379-.36V19.968c0-.2.17-.361.38-.361a.37.37 0 0 1 .378.361v14.443c0 .2-.17.361-.379.361M25.211 45.21a.37.37 0 0 1-.378-.346.37.37 0 0 1 .363-.376l15.139-.584c.2.005.385.148.394.346a.37.37 0 0 1-.363.376l-15.14.584zm17.41-.671a.37.37 0 0 1-.378-.346.37.37 0 0 1 .363-.376l1.514-.059a.37.37 0 0 1 .395.346.37.37 0 0 1-.363.377l-1.515.058zm2.58-1.249a.37.37 0 0 1-.378-.36V14.042c0-.2.17-.361.379-.361a.37.37 0 0 1 .378.361V42.93c0 .2-.17.361-.378.361m-31.817-.783a.37.37 0 0 1-.379-.361V15.269a.37.37 0 0 1 .364-.36l2.107-.082c.202-.001.384.148.393.346a.37.37 0 0 1-.362.377l-1.744.067v26.529c0 .2-.17.36-.38.36m4.376-27.045a.37.37 0 0 1-.378-.346.37.37 0 0 1 .363-.376l1.514-.059c.221.004.385.148.394.346a.37.37 0 0 1-.363.377l-1.514.058zm3.785-.146a.37.37 0 0 1-.378-.346.37.37 0 0 1 .363-.377l15.138-.584c.197-.002.385.147.394.346a.37.37 0 0 1-.363.376l-15.138.585z"/></svg>