<svg xmlns="http://www.w3.org/2000/svg" width="50" height="50" fill="none" viewBox="0 0 50 50"><path fill="#fff" d="M0 0h50v50H0z"/><mask id="a" width="50" height="12" x="0" y="19" maskUnits="userSpaceOnUse" style="mask-type:luminance"><path fill="#fff" d="M50 19H0v12h50z"/></mask><g fill="#173583" mask="url(#a)"><path d="M.838 29.273v.516H.243v-.516H0v1.329h.243v-.587h.595v.587h.243v-1.329zM1.979 29.656a.6.6 0 0 0-.227-.041.7.7 0 0 0-.19.025.6.6 0 0 0-.187.086l.065.174a.4.4 0 0 1 .135-.069.5.5 0 0 1 .144-.022q.08 0 .13.024a.16.16 0 0 1 .075.069.2.2 0 0 1 .024.104v.02a1.4 1.4 0 0 0-.255 0 .6.6 0 0 0-.208.055.3.3 0 0 0-.12.104.26.26 0 0 0-.04.142q0 .094.043.161.042.068.116.105.073.037.169.037.102 0 .185-.035a.3.3 0 0 0 .129-.101v.108h.211v-.6a.4.4 0 0 0-.052-.217.3.3 0 0 0-.148-.128m-.03.588a.19.19 0 0 1-.115.176.3.3 0 0 1-.119.025.2.2 0 0 1-.122-.034.11.11 0 0 1-.045-.096q0-.041.028-.073a.2.2 0 0 1 .083-.049.5.5 0 0 1 .14-.02 1 1 0 0 1 .15.009zM3.34 29.653H3.1v.751h-.407v-.751h-.239v.949h.909v.285h.22v-.483h-.244zM3.994 30.252v-.6h-.23v.95h.209l.475-.608v.608h.23v-.95h-.212zM5.66 29.693a.5.5 0 0 0-.265-.069.51.51 0 0 0-.368.15.5.5 0 0 0-.143.353.49.49 0 0 0 .247.434q.116.07.265.07a.51.51 0 0 0 .368-.151.51.51 0 0 0 .144-.353.5.5 0 0 0-.247-.435m-.026.59a.26.26 0 0 1-.098.1.3.3 0 0 1-.14.035.255.255 0 0 1-.239-.136.3.3 0 0 1-.036-.154q0-.09.035-.155a.25.25 0 0 1 .097-.1.3.3 0 0 1 .142-.035q.08 0 .141.035.062.035.098.1a.3.3 0 0 1 .035.155q0 .089-.035.154M6.786 30.01h-.43v-.357h-.24v.949h.24v-.394h.43v.394h.24v-.95h-.24zM7.896 29.656a.6.6 0 0 0-.226-.041.7.7 0 0 0-.19.025.6.6 0 0 0-.187.086l.064.174a.4.4 0 0 1 .135-.069.5.5 0 0 1 .144-.022q.08 0 .13.024a.16.16 0 0 1 .075.069.2.2 0 0 1 .025.104v.02a1.4 1.4 0 0 0-.255 0 .6.6 0 0 0-.208.055.3.3 0 0 0-.12.104.26.26 0 0 0-.04.142q0 .094.042.161.043.068.116.105.075.037.169.037.102 0 .185-.035a.3.3 0 0 0 .13-.101v.108h.21v-.6a.4.4 0 0 0-.052-.217.3.3 0 0 0-.147-.128m-.031.588a.19.19 0 0 1-.114.176.3.3 0 0 1-.12.025.2.2 0 0 1-.122-.034.11.11 0 0 1-.045-.096q0-.041.028-.073a.2.2 0 0 1 .083-.049.5.5 0 0 1 .14-.02 1 1 0 0 1 .15.009zM8.475 29.955q0 .141-.012.231a.27.27 0 0 1-.056.142.27.27 0 0 1-.14.076l.082.218a.5.5 0 0 0 .173-.078.34.34 0 0 0 .105-.132.7.7 0 0 0 .053-.194 2 2 0 0 0 .015-.262v-.105h.322v.751h.239v-.949h-.782v.303M9.975 29.95H9.78v-.297h-.24v.949h.425a.6.6 0 0 0 .215-.039.3.3 0 0 0 .142-.112.3.3 0 0 0 .05-.175q0-.16-.106-.243a.47.47 0 0 0-.292-.083m.104.436q-.047.038-.139.038h-.16v-.298h.176q.083 0 .126.04.044.04.044.11 0 .072-.048.11M11.26 30.01h-.431v-.357h-.24v.949h.24v-.394h.432v.394h.24v-.95h-.24zM12.371 29.656a.6.6 0 0 0-.226-.041.7.7 0 0 0-.19.025.6.6 0 0 0-.187.086l.065.174a.4.4 0 0 1 .134-.069.5.5 0 0 1 .144-.022q.08 0 .13.024a.16.16 0 0 1 .075.069.2.2 0 0 1 .025.104v.02a1.4 1.4 0 0 0-.255 0 .6.6 0 0 0-.208.055.3.3 0 0 0-.12.104.26.26 0 0 0-.04.142q0 .094.043.161.042.068.116.105a.464.464 0 0 0 .354.001.3.3 0 0 0 .13-.1v.108h.21v-.6a.4.4 0 0 0-.052-.217.3.3 0 0 0-.148-.128m-.03.588a.19.19 0 0 1-.114.176.3.3 0 0 1-.12.025.2.2 0 0 1-.122-.034.11.11 0 0 1-.045-.096q0-.041.028-.073a.2.2 0 0 1 .083-.049.5.5 0 0 1 .14-.02 1 1 0 0 1 .15.009zM13 29.69a.3.3 0 0 0-.137.109.3.3 0 0 0-.049.169q0 .09.045.158.045.066.127.102l.045.016-.253.358h.268l.235-.337h.117v.337h.23v-.95h-.42q-.12 0-.21.038m.4.141v.263h-.182q-.08 0-.122-.035a.12.12 0 0 1-.043-.098q0-.063.046-.097a.23.23 0 0 1 .136-.033zM15.21 30.36a.6.6 0 0 1-.428-.024.4.4 0 0 1-.157-.155.5.5 0 0 1-.055-.244q0-.105.031-.188a.4.4 0 0 1 .23-.234.5.5 0 0 1 .186-.031q.097 0 .177.028a.4.4 0 0 1 .14.085l.123-.202a.6.6 0 0 0-.194-.111.8.8 0 0 0-.264-.04.7.7 0 0 0-.274.05.64.64 0 0 0-.36.365.8.8 0 0 0-.05.28q0 .208.085.364a.6.6 0 0 0 .24.24.7.7 0 0 0 .357.086.9.9 0 0 0 .279-.041.7.7 0 0 0 .216-.115l-.112-.207a.6.6 0 0 1-.17.094M15.547 29.85h.294v.752h.24v-.752h.295v-.197h-.83zM17.364 29.689a.46.46 0 0 0-.242-.064q-.121 0-.206.042a.4.4 0 0 0-.14.111v-.125h-.21V31h.238v-.503a.4.4 0 0 0 .136.097.47.47 0 0 0 .37-.003.5.5 0 0 0 .148-.108.5.5 0 0 0 .098-.16.6.6 0 0 0 .034-.196.55.55 0 0 0-.06-.26.46.46 0 0 0-.166-.178m-.047.592a.26.26 0 0 1-.239.136.3.3 0 0 1-.142-.035.25.25 0 0 1-.097-.1.3.3 0 0 1-.035-.155q0-.09.036-.155a.26.26 0 0 1 .238-.136q.08 0 .14.035a.25.25 0 0 1 .099.101.3.3 0 0 1 .036.155q0 .089-.036.154M18.383 29.656a.6.6 0 0 0-.227-.041.7.7 0 0 0-.19.025.6.6 0 0 0-.187.086l.065.174a.4.4 0 0 1 .134-.069.5.5 0 0 1 .144-.022q.08 0 .13.024a.16.16 0 0 1 .076.069.2.2 0 0 1 .024.104v.02a1.4 1.4 0 0 0-.255 0 .6.6 0 0 0-.208.055.3.3 0 0 0-.12.104.26.26 0 0 0-.04.142q0 .094.043.161.042.068.116.105a.463.463 0 0 0 .355.001.3.3 0 0 0 .129-.1v.108h.21v-.6a.4.4 0 0 0-.052-.217.3.3 0 0 0-.147-.128m-.03.588a.19.19 0 0 1-.115.176.3.3 0 0 1-.12.025.2.2 0 0 1-.122-.034.11.11 0 0 1-.044-.096q0-.041.027-.073a.2.2 0 0 1 .083-.049.5.5 0 0 1 .14-.02 1 1 0 0 1 .15.009zM19.72 29.653h-.294l-.177.305-.183-.305h-.302l.32.475-.338.475.293-.003.202-.31.197.312h.307l-.335-.48zM20.601 29.693a.5.5 0 0 0-.264-.069.51.51 0 0 0-.367.15.5.5 0 0 0-.144.353.49.49 0 0 0 .246.434q.116.07.265.07a.51.51 0 0 0 .368-.151.51.51 0 0 0 .145-.353.494.494 0 0 0-.247-.435m-.027.59a.26.26 0 0 1-.098.1.3.3 0 0 1-.14.035.256.256 0 0 1-.239-.136.3.3 0 0 1-.036-.154q0-.09.035-.155a.25.25 0 0 1 .098-.1.3.3 0 0 1 .141-.035q.08 0 .142.035.06.035.097.1a.3.3 0 0 1 .036.155q0 .089-.036.154M21.737 30.088l.02-.01a.24.24 0 0 0 .082-.075q.03-.045.03-.105a.2.2 0 0 0-.096-.184.47.47 0 0 0-.256-.062h-.461v.95h.477q.12 0 .203-.035a.3.3 0 0 0 .129-.098.26.26 0 0 0 .044-.151.22.22 0 0 0-.072-.171.3.3 0 0 0-.1-.06m-.45-.261h.192q.078 0 .121.025a.09.09 0 0 1 .044.082q0 .056-.043.08a.25.25 0 0 1-.122.025h-.193zm.343.574a.24.24 0 0 1-.128.03h-.216v-.227h.216q.084 0 .129.029.045.028.044.083a.1.1 0 0 1-.044.085M22.725 29.656a.6.6 0 0 0-.226-.041.7.7 0 0 0-.19.025.6.6 0 0 0-.187.086l.065.174a.4.4 0 0 1 .134-.069.5.5 0 0 1 .144-.022q.08 0 .13.024a.17.17 0 0 1 .076.069.2.2 0 0 1 .025.104v.02a1.4 1.4 0 0 0-.255 0 .6.6 0 0 0-.208.055.263.263 0 0 0-.16.246q0 .094.042.161.042.068.116.105a.467.467 0 0 0 .355.001.3.3 0 0 0 .129-.1v.108h.211v-.6a.4.4 0 0 0-.052-.217.3.3 0 0 0-.148-.128m-.03.588a.19.19 0 0 1-.115.176.3.3 0 0 1-.119.025.2.2 0 0 1-.122-.034.11.11 0 0 1-.045-.096q0-.041.028-.073a.2.2 0 0 1 .083-.049.5.5 0 0 1 .14-.02 1 1 0 0 1 .15.009zM23.353 29.69a.3.3 0 0 0-.137.109.3.3 0 0 0-.048.169q0 .09.044.158.045.066.127.102.021.009.046.016l-.253.358h.267l.235-.337h.118v.337h.229v-.95h-.42q-.12 0-.208.038m.399.141v.263h-.182a.2.2 0 0 1-.123-.035.12.12 0 0 1-.042-.098q0-.063.046-.097a.23.23 0 0 1 .135-.033zM24.993 30.205v-.932h-.24v1.329h.235l.615-.939v.939h.241v-1.329h-.237zM26.827 30.01h-.431v-.357h-.24v.949h.24v-.394h.431v.394h.24v-.95h-.24zM28.297 29.685a.9.9 0 0 0-.238-.051v-.399h-.24v.4a1 1 0 0 0-.23.05.5.5 0 0 0-.232.169.45.45 0 0 0-.082.273.45.45 0 0 0 .08.272q.08.11.23.169.105.04.235.052V31h.24v-.38q.08-.008.153-.026a.7.7 0 0 0 .212-.096.43.43 0 0 0 .183-.37q0-.163-.08-.274a.5.5 0 0 0-.23-.169m-.477.736a.6.6 0 0 1-.117-.026.3.3 0 0 1-.144-.1.27.27 0 0 1-.048-.168q0-.1.048-.167a.3.3 0 0 1 .143-.1.6.6 0 0 1 .118-.027zm.502-.127a.3.3 0 0 1-.143.1.6.6 0 0 1-.12.028v-.588a.6.6 0 0 1 .117.026.3.3 0 0 1 .145.1q.05.067.05.168a.3.3 0 0 1-.048.167M29.52 29.693a.5.5 0 0 0-.263-.069.51.51 0 0 0-.368.15.5.5 0 0 0-.143.353.49.49 0 0 0 .246.434q.115.07.265.07a.51.51 0 0 0 .368-.151.51.51 0 0 0 .144-.353.5.5 0 0 0-.247-.435m-.026.59a.26.26 0 0 1-.099.1.3.3 0 0 1-.14.035.255.255 0 0 1-.239-.136.3.3 0 0 1-.035-.154q0-.09.035-.155a.25.25 0 0 1 .097-.1.3.3 0 0 1 .142-.035q.08 0 .141.035.062.035.098.1a.3.3 0 0 1 .035.155q0 .089-.035.154M30.772 29.689a.46.46 0 0 0-.241-.064q-.121 0-.206.042a.4.4 0 0 0-.14.111v-.125h-.21V31h.238v-.503a.4.4 0 0 0 .135.097.47.47 0 0 0 .37-.003.5.5 0 0 0 .149-.108.5.5 0 0 0 .097-.16.6.6 0 0 0 .034-.196.55.55 0 0 0-.06-.26.46.46 0 0 0-.166-.178m-.046.592a.26.26 0 0 1-.239.136.3.3 0 0 1-.142-.035.25.25 0 0 1-.097-.1.3.3 0 0 1-.035-.155q0-.09.035-.155a.26.26 0 0 1 .239-.136q.08 0 .14.035a.25.25 0 0 1 .099.101.3.3 0 0 1 .035.155q0 .089-.035.154M31.77 30.18l-.354-.527h-.211v.949h.199l-.004-.589.286.41h.148l.268-.404-.002.583h.214v-.95h-.21zM33.186 29.656a.6.6 0 0 0-.227-.041.7.7 0 0 0-.19.025.6.6 0 0 0-.186.086l.064.174a.4.4 0 0 1 .135-.069.5.5 0 0 1 .144-.022q.08 0 .13.024a.17.17 0 0 1 .076.069.2.2 0 0 1 .024.104v.02a1.4 1.4 0 0 0-.255 0 .6.6 0 0 0-.208.055.3.3 0 0 0-.12.104.26.26 0 0 0-.04.142q0 .094.043.161.042.068.116.105a.467.467 0 0 0 .355.001.3.3 0 0 0 .128-.1v.108h.212v-.6a.4.4 0 0 0-.052-.217.3.3 0 0 0-.148-.128m-.03.588a.19.19 0 0 1-.115.176.3.3 0 0 1-.12.025.2.2 0 0 1-.122-.034.11.11 0 0 1-.044-.096q0-.041.027-.073a.2.2 0 0 1 .083-.049.5.5 0 0 1 .14-.02 1 1 0 0 1 .15.009zM34.545 29.653h-.24v.751h-.406v-.751h-.24v.949h.91v.285h.22v-.483h-.244zM35.2 30.252v-.6h-.23v.95h.209l.474-.608v.608h.23v-.95h-.21zM36.866 29.693a.5.5 0 0 0-.264-.069.51.51 0 0 0-.367.15.5.5 0 0 0-.144.353.49.49 0 0 0 .247.434q.116.07.265.07a.51.51 0 0 0 .368-.151.52.52 0 0 0 .144-.353.5.5 0 0 0-.247-.435m-.026.59a.26.26 0 0 1-.098.1.3.3 0 0 1-.14.035.256.256 0 0 1-.239-.136.3.3 0 0 1-.036-.154.33.33 0 0 1 .035-.155.25.25 0 0 1 .097-.1.3.3 0 0 1 .142-.035q.08 0 .142.035.06.035.097.1a.3.3 0 0 1 .035.155q0 .089-.035.154M37.993 30.01h-.431v-.357h-.24v.949h.24v-.394h.43v.394h.24v-.95h-.24zM39.188 30.01h-.431v-.357h-.24v.949h.24v-.394h.43v.394h.24v-.95h-.24zM40.299 29.656a.6.6 0 0 0-.227-.041.7.7 0 0 0-.19.025.6.6 0 0 0-.187.086l.065.174a.492.492 0 0 1 .279-.09q.078-.001.13.023a.17.17 0 0 1 .075.069.2.2 0 0 1 .025.104v.02a1.4 1.4 0 0 0-.255 0 .6.6 0 0 0-.208.055.3.3 0 0 0-.12.104.26.26 0 0 0-.04.142q0 .094.042.161.042.068.116.105a.466.466 0 0 0 .354.001.3.3 0 0 0 .13-.1v.108h.211v-.6a.4.4 0 0 0-.052-.217.3.3 0 0 0-.148-.128m-.03.588a.19.19 0 0 1-.115.176.3.3 0 0 1-.119.025.2.2 0 0 1-.122-.034.11.11 0 0 1-.045-.096q0-.041.028-.073a.2.2 0 0 1 .083-.049.5.5 0 0 1 .14-.02 1 1 0 0 1 .15.009zM40.926 29.69a.3.3 0 0 0-.137.109.3.3 0 0 0-.048.169q0 .09.044.158.045.066.128.102.021.009.045.016l-.253.358h.267l.236-.337h.117v.337h.229v-.95h-.42q-.12 0-.208.038m.399.141v.263h-.181a.2.2 0 0 1-.124-.035.12.12 0 0 1-.042-.098q0-.063.046-.097a.23.23 0 0 1 .135-.033zM43.138 30.36a.6.6 0 0 1-.428-.024.38.38 0 0 1-.156-.155.5.5 0 0 1-.056-.244q0-.105.03-.188a.4.4 0 0 1 .23-.234.5.5 0 0 1 .186-.031q.098 0 .177.028a.4.4 0 0 1 .14.085l.124-.202a.6.6 0 0 0-.195-.111.8.8 0 0 0-.264-.04.7.7 0 0 0-.273.05.64.64 0 0 0-.36.365.8.8 0 0 0-.05.28q0 .208.086.364a.6.6 0 0 0 .239.24.7.7 0 0 0 .357.086.9.9 0 0 0 .28-.041.7.7 0 0 0 .216-.115l-.112-.207a.6.6 0 0 1-.171.094M43.843 30.252v-.6h-.23v.95h.208l.475-.608v.608h.23v-.95h-.211zM45.397 30.392a.3.3 0 0 1-.13.025.3.3 0 0 1-.215-.077.29.29 0 0 1-.078-.214.3.3 0 0 1 .035-.157.24.24 0 0 1 .102-.1.34.34 0 0 1 .158-.033q.061 0 .116.02.056.018.1.059l.111-.183a.5.5 0 0 0-.154-.082.6.6 0 0 0-.392.01.475.475 0 0 0-.277.265.5.5 0 0 0-.04.2q0 .145.067.258a.5.5 0 0 0 .182.18.572.572 0 0 0 .456.032.6.6 0 0 0 .17-.091l-.106-.184a.3.3 0 0 1-.106.07M45.704 29.85H46v.752h.24v-.752h.295v-.197h-.83zM47.512 29.785a.4.4 0 0 0-.154-.119.5.5 0 0 0-.21-.042.5.5 0 0 0-.2.037.47.47 0 0 0-.263.266.6.6 0 0 0-.038.202q0 .15.064.262a.45.45 0 0 0 .18.177.55.55 0 0 0 .267.062q.066 0 .14-.014a1 1 0 0 0 .137-.04.4.4 0 0 0 .11-.064l-.084-.17a.5.5 0 0 1-.292.094.4.4 0 0 1-.157-.032.25.25 0 0 1-.103-.087.23.23 0 0 1-.035-.131h.731a.6.6 0 0 0-.006-.223.45.45 0 0 0-.086-.178m-.625.228a.21.21 0 0 1 .08-.15.28.28 0 0 1 .174-.055q.107 0 .168.055.06.054.062.15h-.485M48.384 30.18l-.353-.527h-.212v.949h.2l-.004-.589.285.41h.149l.267-.404-.002.583h.215v-.95h-.21zM49.802 29.656a.6.6 0 0 0-.227-.042.8.8 0 0 0-.19.026.6.6 0 0 0-.187.085l.065.174a.4.4 0 0 1 .134-.068.5.5 0 0 1 .145-.023q.08 0 .13.025a.16.16 0 0 1 .075.068.2.2 0 0 1 .025.105v.02a1.4 1.4 0 0 0-.255 0 .6.6 0 0 0-.208.055.3.3 0 0 0-.12.104.26.26 0 0 0-.04.142q0 .093.043.16.042.07.116.106a.454.454 0 0 0 .354 0 .3.3 0 0 0 .13-.1v.108h.21v-.6a.4.4 0 0 0-.051-.217.3.3 0 0 0-.148-.128m-.03.588q0 .061-.032.106a.2.2 0 0 1-.083.07.3.3 0 0 1-.12.025.2.2 0 0 1-.122-.034.11.11 0 0 1-.044-.096q0-.041.027-.073a.2.2 0 0 1 .084-.05.5.5 0 0 1 .14-.02q.066 0 .15.01zM8.657 27.733V19H7.063v3.493H1.642V19H.047v8.733h1.595v-3.687h5.42v3.687zM26.386 20.658v7.075h1.594V19h-2.296l-4.718 7.076V19H19.37v8.733h2.296zM18.224 26.18h-4.305c-1.532 0-2.774-1.26-2.774-2.813s1.242-2.815 2.774-2.815h4.305V19h-4.4c-2.378 0-4.305 1.955-4.305 4.367s1.927 4.366 4.304 4.366h4.4zM33.147 27.733h4.4v-1.552h-4.305c-1.532 0-2.774-1.26-2.774-2.814s1.242-2.814 2.774-2.814h4.305V19h-4.4c-2.378 0-4.305 1.955-4.305 4.366 0 2.412 1.927 4.367 4.305 4.367M42.828 20.553a.56.56 0 0 0 .556-.565v-.423a.56.56 0 0 0-.556-.564.56.56 0 0 0-.557.564v.423a.56.56 0 0 0 .556.565m-.279-.988a.28.28 0 0 1 .279-.282.28.28 0 0 1 .277.282v.423a.28.28 0 0 1-.277.283.28.28 0 0 1-.279-.283zM41.057 19a.56.56 0 0 0-.557.564v.423a.56.56 0 0 0 .557.565.56.56 0 0 0 .557-.565v-.423a.56.56 0 0 0-.557-.564m.278.988a.28.28 0 0 1-.278.282.28.28 0 0 1-.278-.282v-.423a.28.28 0 0 1 .278-.282.28.28 0 0 1 .278.282zM44.318 20.552h.277V19h-.553v.283h.276zM48.233 20.553a.56.56 0 0 0 .556-.565v-.423a.56.56 0 0 0-.556-.564.56.56 0 0 0-.557.564v.423a.56.56 0 0 0 .556.565m-.278-.988a.28.28 0 0 1 .278-.282.28.28 0 0 1 .277.282v.423a.28.28 0 0 1-.277.283.28.28 0 0 1-.278-.283zM39.565 20.552h.278V19h-.553v.283h.275zM45.529 20.552h.278V19h-.554v.283h.276zM46.74 20.552h.278V19h-.554v.283h.276zM49.722 20.552H50V19h-.554v.283h.276zM42.508 25.34a.56.56 0 0 0 .557-.564v-.424a.56.56 0 0 0-.557-.564.56.56 0 0 0-.557.564v.424c0 .312.25.564.557.564m-.278-.988a.28.28 0 0 1 .278-.282.28.28 0 0 1 .278.282v.424a.28.28 0 0 1-.278.282.28.28 0 0 1-.278-.282zM40.898 23.787a.56.56 0 0 0-.557.564v.424a.56.56 0 0 0 .557.564.56.56 0 0 0 .557-.564v-.424a.56.56 0 0 0-.557-.564m.278.988a.28.28 0 0 1-.278.282.28.28 0 0 1-.278-.282v-.424a.28.28 0 0 1 .278-.282.28.28 0 0 1 .278.282zM44.116 25.34v-1.553h-.554v.282h.276v1.27zM47.833 25.34a.56.56 0 0 0 .556-.564v-.424a.56.56 0 0 0-.556-.564.56.56 0 0 0-.557.564v.424a.56.56 0 0 0 .556.564m-.279-.988a.28.28 0 0 1 .279-.282.28.28 0 0 1 .277.282v.424a.28.28 0 0 1-.277.282.28.28 0 0 1-.279-.282zM46.221 25.34a.56.56 0 0 0 .557-.564v-.424a.56.56 0 0 0-.557-.564.56.56 0 0 0-.556.564v.424a.56.56 0 0 0 .556.564m-.277-.988a.28.28 0 0 1 .277-.282.28.28 0 0 1 .278.282v.424a.28.28 0 0 1-.278.282.28.28 0 0 1-.277-.282zM49.444 23.787a.56.56 0 0 0-.557.564v.424a.56.56 0 0 0 .557.564.56.56 0 0 0 .556-.564v-.424a.56.56 0 0 0-.556-.564m.277.988a.28.28 0 0 1-.277.282.28.28 0 0 1-.279-.282v-.424a.28.28 0 0 1 .279-.282.28.28 0 0 1 .277.282zM39.565 25.34h.278v-1.553h-.554v.282h.276zM45.168 25.34v-1.553h-.554v.282h.275v1.27zM40.898 21.394a.56.56 0 0 0-.557.564v.423a.56.56 0 0 0 .557.565.56.56 0 0 0 .557-.565v-.423a.56.56 0 0 0-.557-.564m.278.987a.28.28 0 0 1-.278.283.28.28 0 0 1-.278-.283v-.423a.28.28 0 0 1 .278-.282.28.28 0 0 1 .278.282zM48.392 22.946a.56.56 0 0 0 .557-.565v-.423a.56.56 0 0 0-.557-.564.56.56 0 0 0-.557.564v.423c0 .313.25.565.557.565m-.278-.988a.28.28 0 0 1 .278-.282.28.28 0 0 1 .278.282v.423a.28.28 0 0 1-.278.283.28.28 0 0 1-.278-.283zM43.56 22.946a.56.56 0 0 0 .556-.565v-.423a.56.56 0 0 0-.557-.564.56.56 0 0 0-.556.564v.423a.56.56 0 0 0 .556.565m-.279-.988a.28.28 0 0 1 .278-.282.28.28 0 0 1 .279.282v.423a.28.28 0 0 1-.279.283.28.28 0 0 1-.278-.283zM45.17 22.946a.56.56 0 0 0 .557-.565v-.423a.56.56 0 0 0-.557-.564.56.56 0 0 0-.556.564v.423a.56.56 0 0 0 .556.565m-.278-.988a.28.28 0 0 1 .278-.282.28.28 0 0 1 .279.282v.423a.28.28 0 0 1-.279.283.28.28 0 0 1-.278-.283zM46.781 22.946a.56.56 0 0 0 .557-.565v-.423a.56.56 0 0 0-.557-.564.56.56 0 0 0-.556.564v.423c0 .313.249.565.556.565m-.277-.988a.28.28 0 0 1 .277-.282.28.28 0 0 1 .278.282v.423a.28.28 0 0 1-.278.283.28.28 0 0 1-.277-.283zM39.565 22.946h.278v-1.552h-.554v.282h.276zM42.505 22.946v-1.552h-.554v.282h.276v1.27zM50 22.946v-1.552h-.554v.282h.276v1.27zM40.878 26.18a.56.56 0 0 0-.557.565v.423a.56.56 0 0 0 .556.565.56.56 0 0 0 .557-.565v-.423a.56.56 0 0 0-.556-.564m.277.988a.28.28 0 0 1-.278.283.28.28 0 0 1-.278-.283v-.423a.28.28 0 0 1 .279-.282.28.28 0 0 1 .277.282zM48.969 27.169v-.423a.56.56 0 0 0-.557-.564.56.56 0 0 0-.557.564v.423a.56.56 0 0 0 .557.564.56.56 0 0 0 .557-.564m-.835 0v-.423a.28.28 0 0 1 .278-.282.28.28 0 0 1 .278.282v.423a.28.28 0 0 1-.278.282.28.28 0 0 1-.278-.282M44.197 27.169v-.423a.56.56 0 0 0-.557-.564.56.56 0 0 0-.556.564v.423a.56.56 0 0 0 .556.564.56.56 0 0 0 .557-.564m-.835 0v-.423a.28.28 0 0 1 .278-.282.28.28 0 0 1 .278.282v.423a.28.28 0 0 1-.278.282.28.28 0 0 1-.278-.282M45.788 26.745a.56.56 0 0 0-.557-.564.56.56 0 0 0-.557.564v.423a.56.56 0 0 0 .557.565.56.56 0 0 0 .556-.565zm-.278.423a.28.28 0 0 1-.278.283.28.28 0 0 1-.278-.283v-.423a.28.28 0 0 1 .278-.282.28.28 0 0 1 .278.282zM46.821 27.733a.56.56 0 0 0 .557-.564v-.423a.56.56 0 0 0-.557-.564.56.56 0 0 0-.556.564v.423a.56.56 0 0 0 .556.564m-.278-.987a.28.28 0 0 1 .278-.282.28.28 0 0 1 .278.282v.423a.28.28 0 0 1-.278.282.28.28 0 0 1-.278-.282zM39.843 27.733v-1.552h-.554v.282h.276v1.27zM42.328 27.733h.278v-1.552h-.696v.282h.418zM50 27.733v-1.552h-.554v.282h.276v1.27z"/></g></svg>