<svg xmlns="http://www.w3.org/2000/svg" width="50" height="50" fill="none" viewBox="0 0 50 50"><path fill="#6c31e3" d="M37.09 46.424c-.297 2.285-2.49 4.062-4.663 3.447-3.102-.87-6.692-2.227-9.919-2.48L17.558 47a3.23 3.23 0 0 1-2.106-.996L6.93 37.05a3.34 3.34 0 0 1-.877-1.74 3.4 3.4 0 0 1 .236-1.941s5.266-11.815 5.467-12.43c.191-.616.92-5.977 1.34-8.847a3.3 3.3 0 0 1 1.054-1.983L24.232.853a3.25 3.25 0 0 1 1.146-.681A3.2 3.2 0 0 1 27.966.4c.393.216.739.513 1.015.871l8.464 10.976a3.66 3.66 0 0 1 .727 2.187c0 2.08.173 6.347 1.302 9.1 1.101 2.666 3.112 5.567 4.165 6.982a1.716 1.716 0 0 1 .125 1.875 146 146 0 0 1-4.29 6.894c-1.436 2.177-2.096 4.872-2.393 7.138z"/><path fill="url(#a)" d="M16.371 46.687c3.964-8.202 3.849-14.08 2.164-18.26-1.551-3.866-4.433-6.297-6.702-7.81-.058.224-.125.429-.211.634L6.289 33.378a3.4 3.4 0 0 0-.24 1.94c.112.657.416 1.264.872 1.742l8.53 8.954c.265.28.577.512.92.683z"/><path fill="url(#b)" d="M27.142 30.039c1.073.117 2.126.351 3.14.742 3.256 1.24 6.224 4.023 8.666 9.403.172-.302.344-.605.536-.898a151 151 0 0 0 4.29-6.894 1.69 1.69 0 0 0-.125-1.875c-1.053-1.425-3.064-4.316-4.165-6.981-1.13-2.754-1.293-7.03-1.302-9.1 0-.792-.25-1.563-.728-2.188L28.981 1.272a3 3 0 0 0-.144-.166 9.55 9.55 0 0 1 .192 5.273 19.6 19.6 0 0 1-1.686 4.033l-.689 1.387a16.95 16.95 0 0 0-1.857 6.933c-.115 2.87.46 6.483 2.345 11.307"/><path fill="url(#c)" d="M27.142 30.039c-1.886-4.824-2.47-8.437-2.345-11.317a16.95 16.95 0 0 1 1.857-6.933c.22-.469.46-.928.69-1.377.68-1.357 1.34-2.636 1.685-4.042a9.55 9.55 0 0 0-.192-5.273A3.24 3.24 0 0 0 26.582.009a3.23 3.23 0 0 0-2.35.853L14.14 10.12a3.35 3.35 0 0 0-1.043 1.982l-1.226 8.3-.048.225c2.279 1.513 5.17 3.945 6.712 7.811.318.784.568 1.594.747 2.422 2.68-.664 5.333-1.074 7.86-.81z"/><path fill="url(#d)" d="M32.428 49.88c2.173.606 4.366-1.171 4.662-3.456.247-2.177.877-4.29 1.858-6.24-2.451-5.37-5.41-8.163-8.656-9.403-3.447-1.308-7.2-.879-11.01.068.852 3.945.344 9.11-2.911 15.838a3.4 3.4 0 0 0 1.197.323s2.336.195 5.132.4c2.776.195 6.932 1.67 9.728 2.46z"/><path fill="url(#e)" fill-rule="evenodd" d="M24.816 18.536c-.125 2.851.23 6.132 2.116 10.946l-.594-.049c-1.695-5.028-2.059-7.616-1.934-10.506.145-2.46.812-4.859 1.953-7.03.23-.48.766-1.377 1.006-1.836.68-1.338 1.139-2.051 1.532-3.281.545-1.71.43-2.53.363-3.33.44 2.92-1.216 5.468-2.46 8.046a17.55 17.55 0 0 0-1.982 7.03z" clip-rule="evenodd"/><path fill="url(#f)" fill-rule="evenodd" d="M19.09 28.633c.23.527.44.957.575 1.61l-.508.108c-.2-.761-.364-1.308-.65-1.953-1.705-4.1-4.434-6.21-6.674-7.762 2.7 1.484 5.476 3.808 7.248 7.997z" clip-rule="evenodd"/><path fill="url(#g)" fill-rule="evenodd" d="M19.693 30.752c.939 4.491-.115 10.174-3.217 15.71 2.595-5.487 3.85-10.75 2.806-15.622z" clip-rule="evenodd"/><path fill="url(#h)" fill-rule="evenodd" d="M30.407 30.351c5.084 1.944 7.047 6.21 8.512 9.765-1.82-3.72-4.328-7.841-8.694-9.374-3.332-1.152-6.137-1.016-10.943.098l-.106-.489c5.094-1.181 7.756-1.318 11.231 0" clip-rule="evenodd"/><defs><radialGradient id="a" cx="0" cy="0" r="1" gradientTransform="matrix(-5.64899 -21.9703 14.3618 -3.80818 15.94 45.877)" gradientUnits="userSpaceOnUse"><stop stop-color="#fff" stop-opacity=".4"/><stop offset="1" stop-opacity=".1"/></radialGradient><radialGradient id="b" cx="0" cy="0" r="1" gradientTransform="matrix(4.78728 -37.0077 26.8088 3.61289 34.955 36.523)" gradientUnits="userSpaceOnUse"><stop stop-color="#fff" stop-opacity=".6"/><stop offset="1" stop-color="#fff" stop-opacity=".1"/></radialGradient><radialGradient id="c" cx="0" cy="0" r="1" gradientTransform="matrix(6.60645 -31.149 20.8725 4.58934 17.28 29.96)" gradientUnits="userSpaceOnUse"><stop stop-color="#fff" stop-opacity=".8"/><stop offset="1" stop-color="#fff" stop-opacity=".4"/></radialGradient><radialGradient id="d" cx="0" cy="0" r="1" gradientTransform="matrix(-9.19158 -15.9162 17.9044 -10.8387 32.59 49.998)" gradientUnits="userSpaceOnUse"><stop stop-color="#fff" stop-opacity=".3"/><stop offset="1" stop-opacity=".3"/></radialGradient><radialGradient id="e" cx="0" cy="0" r="1" gradientTransform="matrix(-3.44684 16.2092 -10.7235 -2.34349 30.168 12.502)" gradientUnits="userSpaceOnUse"><stop stop-color="#fff" stop-opacity="0"/><stop offset="1" stop-color="#fff" stop-opacity=".2"/></radialGradient><radialGradient id="f" cx="0" cy="0" r="1" gradientTransform="matrix(8.42561 8.69046 -18.1917 18.2597 11.114 21.485)" gradientUnits="userSpaceOnUse"><stop stop-color="#fff" stop-opacity=".2"/><stop offset="1" stop-color="#fff" stop-opacity=".4"/></radialGradient><radialGradient id="g" cx="0" cy="0" r="1" gradientTransform="matrix(.86171 12.6939 -26.4258 1.95291 21.072 27.715)" gradientUnits="userSpaceOnUse"><stop stop-color="#fff" stop-opacity=".2"/><stop offset="1" stop-color="#fff" stop-opacity=".3"/></radialGradient><radialGradient id="h" cx="0" cy="0" r="1" gradientTransform="matrix(-18.9576 -10.1551 31.3088 -60.8332 38.785 38.964)" gradientUnits="userSpaceOnUse"><stop stop-color="#fff" stop-opacity=".2"/><stop offset=".5" stop-color="#fff" stop-opacity=".2"/><stop offset="1" stop-color="#fff" stop-opacity=".3"/></radialGradient></defs></svg>