<svg xmlns="http://www.w3.org/2000/svg" width="50" height="50" fill="none" viewBox="0 0 50 50"><path fill="#fcf05a" d="M39.4 49.167H5.8v-45h22.4l11.2 11.666z"/><path fill="#fdbd40" d="M44.2 44.167H10.6V.833H33L44.2 12.5z"/><path fill="#f49e21" d="M33 12.5h11.2L33 .833z"/><path fill="#e9686a" d="M17 37.5h-1.6a.78.78 0 0 1-.566-.244.85.85 0 0 1-.234-.59c0-.22.084-.432.234-.589a.78.78 0 0 1 .566-.244H17c.212 0 .416.088.566.244.15.157.234.369.234.59a.85.85 0 0 1-.234.589.78.78 0 0 1-.566.244m22.4 0H20.2a.78.78 0 0 1-.566-.244.85.85 0 0 1-.234-.59c0-.22.084-.432.234-.589a.78.78 0 0 1 .566-.244h19.2c.212 0 .416.088.566.244.15.157.234.369.234.59a.85.85 0 0 1-.234.589.78.78 0 0 1-.566.244m-22.4-5h-1.6a.78.78 0 0 1-.566-.244.85.85 0 0 1-.234-.59c0-.22.084-.432.234-.589a.78.78 0 0 1 .566-.244H17c.212 0 .416.088.566.244.15.157.234.369.234.59a.85.85 0 0 1-.234.589.78.78 0 0 1-.566.244m22.4 0H20.2a.78.78 0 0 1-.566-.244.85.85 0 0 1-.234-.59c0-.22.084-.432.234-.589a.78.78 0 0 1 .566-.244h19.2c.212 0 .416.088.566.244.15.157.234.369.234.59a.85.85 0 0 1-.234.589.78.78 0 0 1-.566.244m-22.4-5h-1.6a.78.78 0 0 1-.566-.244.85.85 0 0 1-.234-.59c0-.22.084-.432.234-.589a.78.78 0 0 1 .566-.244H17c.212 0 .416.088.566.244.15.157.234.369.234.59a.85.85 0 0 1-.234.589.78.78 0 0 1-.566.244m22.4 0H20.2a.78.78 0 0 1-.566-.244.85.85 0 0 1-.234-.59c0-.22.084-.432.234-.589a.78.78 0 0 1 .566-.244h19.2c.212 0 .416.088.566.244.15.157.234.369.234.59a.85.85 0 0 1-.234.589.78.78 0 0 1-.566.244m-22.4-5h-1.6a.78.78 0 0 1-.566-.244.85.85 0 0 1-.234-.59c0-.22.084-.432.234-.589a.78.78 0 0 1 .566-.244H17c.212 0 .416.088.566.244.15.157.234.369.234.59a.85.85 0 0 1-.234.589.78.78 0 0 1-.566.244m22.4 0H20.2a.78.78 0 0 1-.566-.244.85.85 0 0 1-.234-.59c0-.22.084-.432.234-.589a.78.78 0 0 1 .566-.244h19.2c.212 0 .416.088.566.244.15.157.234.369.234.59a.85.85 0 0 1-.234.589.78.78 0 0 1-.566.244m-22.4-5h-1.6a.78.78 0 0 1-.566-.244.85.85 0 0 1-.234-.59c0-.22.084-.432.234-.589a.78.78 0 0 1 .566-.244H17c.212 0 .416.088.566.244.15.157.234.369.234.59a.85.85 0 0 1-.234.589.78.78 0 0 1-.566.244m22.4 0H20.2a.78.78 0 0 1-.566-.244.85.85 0 0 1-.234-.59c0-.22.084-.432.234-.589a.78.78 0 0 1 .566-.244h19.2c.212 0 .416.088.566.244.15.157.234.369.234.59a.85.85 0 0 1-.234.589.78.78 0 0 1-.566.244m-24-9.167h4.8v5h-4.8z"/><path fill="#000" d="M15.4 37.5H17a.78.78 0 0 0 .566-.244.85.85 0 0 0 .234-.59.85.85 0 0 0-.234-.589.78.78 0 0 0-.566-.244h-1.6a.78.78 0 0 0-.566.244.85.85 0 0 0-.234.59c0 .22.084.433.234.589s.354.244.566.244m24-1.667H20.2a.78.78 0 0 0-.566.244.85.85 0 0 0-.234.59c0 .22.084.433.234.589s.354.244.566.244h19.2a.78.78 0 0 0 .566-.244.85.85 0 0 0 .234-.59.85.85 0 0 0-.234-.589.78.78 0 0 0-.566-.244m-24-3.333H17a.78.78 0 0 0 .566-.244.85.85 0 0 0 .234-.59.85.85 0 0 0-.234-.589.78.78 0 0 0-.566-.244h-1.6a.78.78 0 0 0-.566.244.85.85 0 0 0-.234.59c0 .22.084.433.234.589s.354.244.566.244m24-1.667H20.2a.78.78 0 0 0-.566.244.85.85 0 0 0-.234.59c0 .22.084.433.234.589s.354.244.566.244h19.2a.78.78 0 0 0 .566-.244.85.85 0 0 0 .234-.59.85.85 0 0 0-.234-.589.78.78 0 0 0-.566-.244m-24-3.333H17a.78.78 0 0 0 .566-.244.85.85 0 0 0 .234-.59.85.85 0 0 0-.234-.589.78.78 0 0 0-.566-.244h-1.6a.78.78 0 0 0-.566.244.85.85 0 0 0-.234.59c0 .22.084.433.234.589s.354.244.566.244m24-1.667H20.2a.78.78 0 0 0-.566.244.85.85 0 0 0-.234.59c0 .22.084.433.234.589s.354.244.566.244h19.2a.78.78 0 0 0 .566-.244.85.85 0 0 0 .234-.59.85.85 0 0 0-.234-.589.78.78 0 0 0-.566-.244m-24-3.333H17a.78.78 0 0 0 .566-.244.85.85 0 0 0 .234-.59.85.85 0 0 0-.234-.589.78.78 0 0 0-.566-.244h-1.6a.78.78 0 0 0-.566.244.85.85 0 0 0-.234.59c0 .22.084.433.234.589s.354.244.566.244m24-1.667H20.2a.78.78 0 0 0-.566.244.85.85 0 0 0-.234.59c0 .22.084.433.234.589s.354.244.566.244h19.2a.78.78 0 0 0 .566-.244.85.85 0 0 0 .234-.59.85.85 0 0 0-.234-.589.78.78 0 0 0-.566-.244m-24-3.333H17a.78.78 0 0 0 .566-.244.85.85 0 0 0 .234-.59.85.85 0 0 0-.234-.589.78.78 0 0 0-.566-.244h-1.6a.78.78 0 0 0-.566.244.85.85 0 0 0-.234.59c0 .22.084.433.234.589s.354.244.566.244m4-.833c0 .22.084.433.234.589s.354.244.566.244h19.2a.78.78 0 0 0 .566-.244.85.85 0 0 0 .234-.59.85.85 0 0 0-.234-.589.78.78 0 0 0-.566-.244H20.2a.78.78 0 0 0-.566.244.85.85 0 0 0-.234.59"/><path fill="#000" d="M5.8 50h33.6a.78.78 0 0 0 .566-.244.85.85 0 0 0 .234-.59V45h4a.78.78 0 0 0 .566-.244.85.85 0 0 0 .234-.59V12.5c0-.018-.009-.034-.01-.053a.8.8 0 0 0-.041-.214c-.009-.026-.015-.052-.027-.078a.8.8 0 0 0-.16-.244L33.562.244a.8.8 0 0 0-.234-.166Q33.29.062 33.254.05a.8.8 0 0 0-.208-.043C33.033.009 33.018 0 33 0H10.6a.78.78 0 0 0-.566.244.85.85 0 0 0-.234.59v2.5h-4a.78.78 0 0 0-.566.243.85.85 0 0 0-.234.59v45c0 .22.084.433.234.589S5.588 50 5.8 50m36.469-38.333H33.8V2.845zm-30.869-10h20.8V12.5c0 .221.084.433.234.59.15.155.354.243.566.243h10.4v30h-32zM6.6 5h3.2v39.167c0 .22.084.433.234.589s.354.244.566.244h28v3.333h-32z"/><path fill="#000" d="M15.4 14.167h4.8a.78.78 0 0 0 .566-.244.85.85 0 0 0 .234-.59v-5a.85.85 0 0 0-.234-.589.78.78 0 0 0-.566-.244h-4.8a.78.78 0 0 0-.566.244.85.85 0 0 0-.234.59v5c0 .22.084.432.234.589s.354.244.566.244m.8-5h3.2V12.5h-3.2z"/></svg>