<svg xmlns="http://www.w3.org/2000/svg" width="50" height="50" fill="none" viewBox="0 0 50 50"><path fill="#fff" d="M28.269 13.542a10 10 0 0 0-.84-.619 6.8 6.8 0 0 0-2.18-1.052l-.048-.013a7.9 7.9 0 0 0-2.97-.299c-2.322.21-4.459 1.381-6.063 3.078a9 9 0 0 0-1.058 1.36 1.61 1.61 0 0 0-1.383-.078 3.8 3.8 0 0 0-1.085.79c-.717.684-1.274 1.579-1.114 2.63 0 .05.017.099.027.145a2.5 2.5 0 0 0-.094.457c-.064.67.205 1.398.848 1.67.643.27 1.317.024 1.825-.437q.322-.05.626-.17c.244.433.6.79 1.028 1.03s.913.354 1.4.33a1.96 1.96 0 0 0 1.268-.638c.332-.365.52-.842.53-1.341 0-.432-.055-.862-.162-1.28a4 4 0 0 1-.066-.476v-.307q.021-.231.064-.46c0-.014 0-.058.017-.102.016-.045.026-.091.04-.135a5 5 0 0 1 .264-.649c.034-.067.045-.092.07-.139q.09-.164-.033.05a2.5 2.5 0 0 1 .456-.652q.255.004.499-.074l.068-.031-.031.015q.125-.046.257-.066.237-.06.474-.11.497-.105.999-.178a16 16 0 0 1 1.98-.16h.272c.16 0 .322 0 .485.017q.506.025 1.01.082 1.011.117 2 .364c.575.143 1.22-.398 1.28-.977.03-.298-.014-.6-.13-.876a1.74 1.74 0 0 0-.53-.699M16.52 18.724a1 1 0 0 0-.148-.238c.045-.112.09-.21.14-.33q-.012.284.008.568m.144 1.052-.064-.16v-.166l.012-.08c.025.143.052.286.08.421l-.012-.02z"/><path fill="#8b898a" d="M14.191 21.84c.345-.013.693-.044 1.038-.03q.346.023.678.135.43.132.836.33c.52.264 1.027.548 1.539.843.382.21.41.36.172.732q-.068.126-.12.26a1.4 1.4 0 0 1-.37-.106c-.861-.51-1.714-1.036-2.575-1.547-.294-.175-.606-.32-.91-.48l-.294-.093z"/><path fill="#000" d="M18.658 22.707a5.1 5.1 0 0 0-1.68-.804c-1.028-.244-2.055-.453-3.128-.368-.32.025-.616.088-.822.372-.43.632-1.027.823-1.732.693a4.7 4.7 0 0 0-1.849.073 1 1 0 0 0-.396.276c-.154.14-.278.314-.438.442-.327.27-.737.234-1.148.249-.442.021-.886.052-1.33.061-.41 0-.821-.019-1.22-.023a1.2 1.2 0 0 0-.23.044c1.36.263 2.74.265 4.12.316q.26-.027.496-.141a.2.2 0 0 0 .093-.118c.044-.218.156-.415.32-.56a.98.98 0 0 1 .586-.247q1.154-.021 2.313 0a.77.77 0 0 0 .602-.21c.361-.335.779-.6 1.233-.781l-.296-.095-.066-.017.072-.017c.348-.012.693-.044 1.028-.03q.347.024.678.136.43.133.836.33c.52.263 1.027.55 1.54.842.26.146.356.26.315.436q.272-.316.483-.678c-.058.036-.146-.02-.38-.18"/><path fill="#8b898a" d="M8.305 23.686c-.444.021-.888.053-1.331.061-.411 0-.822-.019-1.22-.023a1 1 0 0 0-.23.044 5 5 0 0 0-.646-.21c-.31-.06-.616-.078-.939-.11a3 3 0 0 1-.5-.044 5 5 0 0 1-.574-.227l-.03-.036-.071-.017-.775-.421c-.524-.282-1.082-.512-1.475-.996a2.1 2.1 0 0 1-.01-.631.47.47 0 0 0-.02-.449c.205-.314.562-.162.821-.301.216.257.555.158.812.297.339.179.67.379 1.015.539q.3.116.616.18a.94.94 0 0 1 .616.422l-.049.352.501.168c0 .013.015.032.027.04.411.29.686.75 1.17.935q.15.037.305.04c.512.06 1.027.11 1.535.19q.241.062.452.197"/><path fill="#000" d="M2.87 23.175q.282.13.576.227.248.04.5.044c.314.032.628.05.938.11q.33.084.645.21c-.692.112-1.382.263-2.083.087-.733-.184-1.487-.304-2.168-.67-.3-.162-.59-.341-.885-.514a.1.1 0 0 1-.037-.031c-.18-.375-.495-.722-.288-1.188.126-.284.288-.551.434-.827a.47.47 0 0 1 .02.448q-.04.317.01.632c.097.356.327.658.64.842q.384.219.795.381.405.129.822.21l.071.018zM3.777 21.343a4 4 0 0 1-.617-.181c-.345-.16-.676-.36-1.015-.54-.256-.138-.595-.04-.811-.296-.263.139-.616-.013-.822.301q.114-.22.255-.421c.035-.046.135-.053.205-.057.652-.03 1.196.26 1.728.602.34.221.713.392 1.077.592M4.845 22.278l-.501-.169.05-.351a.9.9 0 0 1 .451.52"/><path fill="#000" d="M2.782 23.124a8 8 0 0 1-.821-.21 6 6 0 0 1-.796-.382 1.4 1.4 0 0 1-.638-.842c.392.484.95.714 1.475.996z"/><path fill="#8b898a" d="m5.248 24.552-.097.06h-.03a.3.3 0 0 0-.128.087l-.06.04q-.178.105-.367.185a.2.2 0 0 0-.058 0c-.024 0-.037.03-.06.042-.127.061-.254.057-.375.112q-.105.052-.218.084l-.088.021a4 4 0 0 1-.35.065h-.061a1.4 1.4 0 0 0-.216.032h-.267a.3.3 0 0 0-.099 0 .04.04 0 0 1-.012.017.3.3 0 0 1-.047-.02h-.023a.18.18 0 0 0-.142-.012h-.037a1 1 0 0 0-.09.015H2.41a.15.15 0 0 1-.093-.042h-.02a.18.18 0 0 0-.146 0H2.12a.16.16 0 0 0-.103-.032h-.055a2 2 0 0 1-.282-.054h-.024a.4.4 0 0 0-.062-.024h-.04a.7.7 0 0 0-.166-.042l-.043-.019a.3.3 0 0 1-.09-.025s-.043-.015-.031-.032c.012-.016-.03 0-.041 0-.012-.031-.132-.063-.179-.067l-.096-.06c-.06-.032-.085-.043-.101-.022l-.08-.042v.021l-.019.038c.05.023.09.038.132.059q.067.06.15.088l.053.023.206.085q.055.025.115.038h.012q.1.035.206.056l.045.01h.012q.075.063.17.075.284.08.578.078h.105c.1 0 .205.012.302 0a.1.1 0 0 0 .049 0c0 .048.18.037.236.02q.114-.02.23-.014c.019-.013.044-.02.058-.032h.076q.036.021.078.032c.014-.04.088-.05.13-.057l.078-.013a1 1 0 0 0 .071-.017c.037 0 .066-.016.07-.04h.023a.3.3 0 0 0 .113 0c.043 0 .086-.04.131-.054l.056-.028c.072-.02.14-.048.205-.073a.8.8 0 0 0 .224-.082.5.5 0 0 0 .126-.068c.096-.046.189-.1.285-.15l.273-.174zM5.371 25.33l-.08.04h-.025a.2.2 0 0 0-.107.055l-.047.032-.29.133a.1.1 0 0 0-.045 0c-.02 0-.028.025-.045.035-.094.057-.205.04-.288.097a1 1 0 0 1-.16.089l-.063.025-.257.095H3.91a1 1 0 0 0-.156.063l-.037.012h-.024a.4.4 0 0 0-.068 0 .2.2 0 0 0-.037.024h-.035a.14.14 0 0 0-.076.014.02.02 0 0 1 0 .017h-.041l-.013.015a.11.11 0 0 0-.106.025h-.03a.3.3 0 0 0-.06.038.1.1 0 0 1-.081 0l-.012.013a.12.12 0 0 0-.1.05h-.03a.1.1 0 0 0-.082 0h-.041q-.102.027-.205.04h-.021a.1.1 0 0 0-.05 0h-.028a.5.5 0 0 0-.13 0h-.034a.3.3 0 0 1-.07 0s-.035 0-.027-.025h-.03c0-.025-.097-.036-.134-.038l-.066-.046c-.04-.03-.058-.036-.074-.02l-.051-.041-.015.017-.029.031c.035.027.064.046.095.067a.24.24 0 0 0 .117.076l.043.017q.083.029.169.044.045.013.094.01h.01a.7.7 0 0 0 .167 0h.045a.2.2 0 0 0 .146 0 1.3 1.3 0 0 0 .435-.113l.072-.042.222-.065a.06.06 0 0 0 .037 0c.02.046.142 0 .179-.03a.6.6 0 0 1 .17-.054c0-.013.027-.024.038-.038l.055-.02q.03.019.066.024c0-.04.055-.06.086-.07l.06-.016a.2.2 0 0 0 .051-.021.05.05 0 0 0 .047-.045h.015q.044.007.088 0a1 1 0 0 0 .094-.055.2.2 0 0 0 .042-.025l.156-.065a.8.8 0 0 0 .172-.063.3.3 0 0 0 .097-.053q.225-.1.446-.21zM5.519 26.2l-.033.027h-.014c-.027 0-.031.024-.041.043l-.015.023-.115.1h-.029c-.008 0 0 .02 0 .03-.03.045-.098.03-.125.076a.2.2 0 0 1-.053.074l-.025.02-.105.08H4.94c-.03 0-.041.039-.06.056l-.014.012H4.82c-.006 0 0 .013-.012.02h-.014c-.015 0-.025 0-.037.012v.017h-.025v.012c-.022 0-.045 0-.047.026h-.012a.1.1 0 0 0-.017.035.04.04 0 0 1-.047 0 .04.04 0 0 0-.029.017.04.04 0 0 0-.004.034h-.014c-.02 0-.033 0-.04.012l-.018.011q-.039.033-.084.065a.1.1 0 0 0-.025 0 .1.1 0 0 0-.05.045h-.018a.1.1 0 0 1-.026.023s-.013.012-.02 0c-.01-.013 0 .014 0 .02 0 .007-.052.022-.058.043a.1.1 0 0 0-.041.012c-.023 0-.031.017-.021.04l-.029.017.013.02.018.037a.3.3 0 0 1 .043-.034.07.07 0 0 0 .06-.02l.018-.011a1 1 0 0 1 .07-.042c.012 0 .03 0 .037-.023a.4.4 0 0 0 .062-.049h.014a.06.06 0 0 0 .07-.012c.055-.045.138-.06.173-.131l.02-.038.064-.032.007.003.007-.003c.031.04.076 0 .086-.027 0 0 .05-.052.07-.048s0-.021 0-.032l.023-.019c.016 0 .033.021.047.021a.05.05 0 0 1 .019-.06l.026-.014a.1.1 0 0 0 .023-.016c.014 0 .018-.017 0-.036h.047c.013 0 .02-.034.031-.046l.012-.021.064-.053c.033 0 .05-.03.074-.05.025-.022.03-.02.033-.04l.179-.16z"/><path fill="#dabd8f" d="M43.437 26.236c-.287-.735-.762-1.35-1.232-1.98a7.4 7.4 0 0 0-2.04-1.795 9.3 9.3 0 0 0-3.378-1.373 24 24 0 0 0-3.23-.406.1.1 0 0 1-.026-.017c-.73-.392-1.59-.19-2.361-.076l-1.305.196-.257.038a.51.51 0 0 0-.521.09 1.84 1.84 0 0 0-.586 1.053q-.277.471-.616.897a1.4 1.4 0 0 0-.235.16c-.158.145-.29.32-.447.467q-.158.142-.344.243l-.117.06a.5.5 0 0 0-.294.034 11.6 11.6 0 0 1-3.203.842.6.6 0 0 0-.254.091.6.6 0 0 0-.286-.034c-1.415.167-2.617.98-3.76 1.79a.53.53 0 0 0-.205.337s0 .023-.016.036c-.044.117-.177.21-.247.313-.284.46-.692.842-.822 1.398-.08.34-.115.69-.205 1.03-.085.39-.036.8.14 1.158.129.314.291.615.425.928.205.478.382.969.616 1.438 0 .132.04.261.111.37.912 1.424 1.722 3.012 3.193 3.91a5.7 5.7 0 0 0 2.114.788c.532.082 1.152.135 1.674-.05a.5.5 0 0 0 .278.035c.347-.058.673-.21.945-.44.2-.17.36-.387.466-.631.39.139.768.313 1.149.475.788.34 1.625.632 2.488.483a.7.7 0 0 0 .187-.061 7 7 0 0 0 1.553.065 42 42 0 0 0 3.375-.341 11.3 11.3 0 0 0 3.224-.866c.996-.465 1.872-1.15 2.724-1.844.717-.585 1.514-1.263 1.712-2.221 0 .044 0 .088-.015.135.233-.39.374-.831.411-1.287.082-.84.076-1.687-.016-2.526a11.2 11.2 0 0 0-.767-2.912"/><path fill="#8b898a" d="M37.946 18.035c-.288-.134-.572-.284-.867-.398q-.301-.105-.617-.128a5 5 0 0 0-.822-.021c-.53.034-1.056.093-1.584.147-.394.042-.47.156-.396.556q.016.13.014.261.172.046.35.046c.9-.122 1.797-.259 2.7-.38.307-.043.616-.053.932-.078l.28.027s.008-.021.01-.032"/><path fill="#000" d="M33.88 17.162a4.6 4.6 0 0 1 1.69-.074c.956.164 1.895.36 2.766.815.263.137.495.297.56.606.147.689.578 1.053 1.234 1.206.552.14 1.073.387 1.534.729a.96.96 0 0 1 .243.377c.082.17.125.362.216.528.193.348.552.465.88.621.367.177.73.364 1.102.529.341.151.693.278 1.027.42a1 1 0 0 1 .18.12c-1.233-.269-2.405-.763-3.584-1.214a1.4 1.4 0 0 1-.372-.299.16.16 0 0 1-.037-.133.94.94 0 0 0-.078-.587.9.9 0 0 0-.41-.417 90 90 0 0 0-1.95-.842.72.72 0 0 1-.44-.385 3.7 3.7 0 0 0-.775-1.101l.28.027h.061l-.055-.04c-.288-.135-.57-.286-.865-.398q-.301-.105-.617-.13a5 5 0 0 0-.821-.022c-.528.036-1.056.093-1.582.148-.27.03-.39.09-.411.255a5 5 0 0 1-.175-.748c.051.076.146.059.399.009"/><path fill="#8b898a" d="M42.279 21.71c.365.178.729.363 1.1.53.342.151.693.278 1.038.42q.095.053.18.12.309.007.616.053c.281.064.554.16.821.247q.214.087.436.14.28.027.563.016l.037-.021.066.01.797-.076c.538-.05 1.089-.042 1.586-.311q.153-.248.226-.53a.43.43 0 0 1 .172-.373c-.063-.337-.41-.34-.593-.55-.271.137-.524-.067-.787-.044-.347.031-.695.08-1.042.092a4 4 0 0 1-.585-.071.85.85 0 0 0-.664.128c-.029.118-.06.236-.078.314l-.48-.04c-.013 0-.023.023-.038.025-.442.1-.834.385-1.306.369a1.3 1.3 0 0 1-.272-.076c-.452-.133-.902-.276-1.36-.392a1.5 1.5 0 0 0-.433.02"/><path fill="#000" d="M47.037 23.231a4 4 0 0 1-.563-.014 3 3 0 0 1-.435-.141c-.276-.087-.55-.184-.822-.247a5 5 0 0 0-.617-.052c.547.34 1.079.718 1.728.82.682.108 1.358.28 2.055.211.31-.03.616-.078.924-.116a.1.1 0 0 0 .041-.012c.282-.253.666-.434.652-.9-.01-.286-.054-.57-.083-.854a.42.42 0 0 0-.172.373 1.9 1.9 0 0 1-.226.53 1.24 1.24 0 0 1-.822.474q-.4.045-.801.036a7 7 0 0 1-.758-.122l-.066-.01z"/><path fill="#000" d="M46.912 21.362q.29.06.585.071c.347-.012.695-.06 1.042-.092.263-.023.515.18.787.044.174.21.53.21.593.55a4 4 0 0 0-.067-.455c-.013-.053-.097-.095-.156-.122-.539-.26-1.098-.21-1.665-.116-.38.065-.756.082-1.12.12M45.679 21.764l.48.04.079-.314a.8.8 0 0 0-.56.274M47.13 23.22q.375.082.758.123.401.009.8-.036c.325-.042.62-.212.823-.473-.498.269-1.048.26-1.587.311zM44.551 29.066c-.232-1.053-.46-2.106-.957-3.068a12.2 12.2 0 0 0-2.055-2.756c-.284-.303-.666-.505-.984-.777-.822-.705-1.837-1.053-2.807-1.474a5 5 0 0 0-1.027-.313c-.885-.163-1.779-.287-2.67-.44a6 6 0 0 1-.68-.211c.328-.689.316-.689.373-1.737a2.45 2.45 0 0 0-.325-1.385c-.64-1.076-1.503-1.895-2.746-2.253a3.9 3.9 0 0 0-1.588-.162 2.6 2.6 0 0 0-.773.21 6 6 0 0 0-.752.52 2.5 2.5 0 0 0-1.027-.854c-.249-.108-.495-.211-.75-.312a7.4 7.4 0 0 0-1.377-.453 11.5 11.5 0 0 0-1.826-.06 2.8 2.8 0 0 0-.884.149c-.393.136-.77.319-1.121.545q-.431.338-.783.762c-.859.895-1.438 1.981-1.96 3.097a1.3 1.3 0 0 0-.113.49c-.015.317 0 .632 0 .95 0 .752-.017 1.508.392 2.186l-.339.044q-.73.135-1.469.187c-.852.02-.98.074-1.348-.663-.032-.063-.049-.139-.086-.21-.092-.158-.05-.26.09-.367q.173-.146.313-.324l-.066-.078-.468.221q-.014-.264.061-.518c.066-.124.232-.191.35-.28a.33.33 0 0 0-.254.004.34.34 0 0 0-.178.186 4.4 4.4 0 0 0-.18.572c-.02.064-.023.165-.064.186-.533.27-1.028.631-1.644.711-.735.093-1.13-.191-1.233-.94 0-.058-.018-.112-.024-.17a3.65 3.65 0 0 1 .556-2.642c.318-.442.69-.839 1.11-1.18a2.12 2.12 0 0 1 1.705-.539q.022-.029.041-.055a1.26 1.26 0 0 0-.906-.034c-.63.196-1.078.65-1.528 1.105-.417.39-.749.866-.975 1.396a4.2 4.2 0 0 0-.34 1.68c-.019.27.03.54.143.786.112.245.283.456.498.614a1.562 1.562 0 0 0 1.874.09c.27-.163.55-.309.821-.462.444 1.103 1.134 1.375 2.151 1.263.493-.057.98-.158 1.476-.244l.1-.017a.8.8 0 0 1 .087.25q.237.346.41.731.125.11.206.257.083.112.18.21c.231.37.558.666.944.855.269.124.265.421.024.594-.07.053-.158.082-.222.141-.585.533-1.191 1.053-1.738 1.613a5.9 5.9 0 0 0-.971 1.295 4.9 4.9 0 0 0-.529 2.37 1.87 1.87 0 0 0 .253 1.078q.292.433.532.897c.261.503.438 1.068.763 1.522.735 1.036 1.5 2.055 2.33 3.013.425.493 1.01.842 1.534 1.242q.397.317.845.552c.903.446 1.828.404 2.781.141.69-.191 1.219-.532 1.52-1.213.09-.21.266-.23.473-.143.547.228 1.085.487 1.644.657 1 .303 2.038.293 3.082.31 1.62.03 3.188-.329 4.772-.573q.083-.02.16-.053c.411-.122.822-.24 1.215-.366q.455-.11.885-.297a21.6 21.6 0 0 0 2.747-1.735c.453-.363.84-.804 1.145-1.303a6.7 6.7 0 0 0 1.089-2.265c.205-.914.049-1.822.104-2.738zM19.93 23.524c-.617-.379-.794-1.053-1.069-1.638a7 7 0 0 1-.528-1.594c-.158-.798.023-1.591.183-2.377.085-.338.238-.653.45-.926.041-.061.185-.143 0-.225a.25.25 0 0 1 .033-.118 17 17 0 0 1 1.216-1.634c.277-.3.707-.455 1.068-.674.035-.02.076-.027.111-.044 1.079-.514 2.193-.44 3.329-.257.891.145 1.654.57 2.416 1.013q.2.154.337.37c.427.535.85 1.076 1.304 1.651a.9.9 0 0 0-.065-.238q-.348-.48-.713-.947c-.34-.421-.428-.56.115-.771a3.44 3.44 0 0 1 2.508-.072c.128.047.263.068.393.104.43.108.834.308 1.184.586.351.279.641.629.852 1.029.305.56.447 1.197.41 1.837-.012.171.015.346 0 .516-.034.31-.088.617-.135.942-1.358-.152-2.642-.032-3.945.12l.04-.211a.9.9 0 0 0-.075-.68c-.129-.21-.08-.541-.129-.813a2 2 0 0 0-.142-.366l-.055.027c.045.362.103.724.127 1.089a.71.71 0 0 1-.205.657c-.09.075-.064.284-.115.42a9 9 0 0 1-.46 1.133 7 7 0 0 1-.617.861c-.152.211-.32.388-.472.588-.297.352-.685.61-1.12.743-.699.272-1.401.53-2.114.758-.308.086-.625.13-.943.129q-.586.028-1.167-.051a4.4 4.4 0 0 1-1.157-.32c-.308-.143-.553-.432-.85-.617m24.266 5.636c.092.84.098 1.686.016 2.527a3 3 0 0 1-.41 1.286 9 9 0 0 0-.128.249l-.035.056q-.409.661-.91 1.249a10.7 10.7 0 0 1-1.336 1.053 7.7 7.7 0 0 1-1.087.711 16 16 0 0 1-1.797.771q-.764.243-1.55.394a14 14 0 0 1-1.547.286c-1.027.105-2.073.173-3.112.242-.29.021-.586 0-.877-.01a8 8 0 0 1-2.386-.28 2 2 0 0 1-.259-.114l-.063-.034c-.446-.187-.894-.37-1.338-.566-.228.524-.686.73-1.15.89a.67.67 0 0 1-.426-.05 1.5 1.5 0 0 1-.87.314 5.73 5.73 0 0 1-2.731-.786c-.475-.28-.857-.726-1.28-1.097l-.029-.044h.056l.353.1.027-.064a.7.7 0 0 0-.185-.105 1.58 1.58 0 0 1-.902-.588 9.8 9.8 0 0 1-1.19-1.655c-.472-.67-.721-1.448-1.044-2.193-.133-.314-.295-.615-.425-.929a1.78 1.78 0 0 1-.14-1.158c.089-.339.124-.69.206-1.03.131-.551.54-.939.822-1.398.07-.113.205-.195.246-.313.082-.21.292-.23.432-.352l.176-.263c.535-.29 1.067-.583 1.603-.87q.313-.196.66-.317a2.7 2.7 0 0 1 .936-.133c.822.078 1.584-.128 2.361-.339a7.4 7.4 0 0 0 1.428-.598c.18-.09.363-.173.54-.272q.182-.095.337-.231c.158-.147.29-.322.448-.468q.166-.13.351-.231c.32-.564.65-1.127.958-1.7.113-.21.3-.128.444-.15a30 30 0 0 1 2.108-.253c.517-.043 1.041-.02 1.563-.024a21 21 0 0 1 3.729.421 9.3 9.3 0 0 1 3.378 1.373 7.4 7.4 0 0 1 2.04 1.796c.464.632.939 1.244 1.233 1.98.382.932.636 1.914.756 2.917"/><path fill="#fff" d="M33.054 16.762c-.21-.398-.5-.746-.85-1.022a3.15 3.15 0 0 0-1.178-.585c-.13-.036-.265-.057-.392-.103a3.44 3.44 0 0 0-2.509.072c-.542.21-.454.338-.115.77q.363.467.713.947a.9.9 0 0 1 .066.238c-.454-.574-.878-1.116-1.305-1.65a1.4 1.4 0 0 0-.337-.37c-.762-.443-1.524-.868-2.416-1.013-1.136-.184-2.25-.257-3.328.256-.035.017-.076.024-.111.045-.362.21-.791.374-1.069.673a17 17 0 0 0-1.216 1.634.25.25 0 0 0-.037.108c.177.082.033.164 0 .225a2.5 2.5 0 0 0-.45.926c-.16.785-.341 1.58-.183 2.377.112.552.29 1.087.528 1.594.276.592.463 1.263 1.069 1.638.297.185.542.474.854.617.37.159.76.266 1.157.32q.581.08 1.167.05c.319.002.636-.042.943-.128a36 36 0 0 0 2.114-.758c.43-.14.811-.402 1.101-.756.152-.21.32-.387.473-.587a7 7 0 0 0 .616-.861q.267-.55.46-1.133c.052-.137.025-.345.116-.421a.7.7 0 0 0 .205-.657c-.025-.364-.082-.726-.127-1.088l.055-.028q.09.176.142.367c.05.271 0 .597.13.812a.9.9 0 0 1 .073.68l-.039.21c1.303-.15 2.587-.27 3.945-.12.047-.323.1-.63.136-.94.016-.17-.01-.346 0-.516a3.44 3.44 0 0 0-.401-1.823"/><path fill="#dabd8f" d="M26.307 24.004a.72.72 0 0 0 .647.129.44.44 0 0 1 .32.035c.05.034 0 .192.023.29q.011.135.066.256a.288.288 0 0 1-.128.42c-.287.173-.567.363-.869.508-.702.337-1.41.666-2.126.975-.697.28-1.431.45-2.178.501-.333.03-.664.08-.992.13-.066 0-.122.08-.187.104a2.6 2.6 0 0 1-.762.23c-.165 0-.333-.211-.491-.327a1 1 0 0 1-.218-.238c-.1-.16-.183-.33-.273-.497q.089-.13.176-.263c.534-.29 1.066-.583 1.603-.87q.313-.195.66-.317c.302-.098.619-.143.936-.133.822.078 1.586-.129 2.36-.34a7.4 7.4 0 0 0 1.433-.593M33.062 20.665q-.284.11-.567.225a2 2 0 0 0-.18.108.3.3 0 0 1 .156.199.31.31 0 0 1-.046.251.5.5 0 0 0 .064.343.196.196 0 0 1-.035.269.2.2 0 0 1-.088.039c-.5.18-.993.38-1.504.526q-.889.253-1.798.409c-.37.063-.775.107-1.075-.243.32-.564.652-1.126.958-1.699.113-.21.3-.128.444-.151.7-.105 1.403-.198 2.108-.253.52-.042 1.041-.019 1.563-.023"/><path fill="#000" d="M19.321 26.272q-.089.133-.176.263z"/><path fill="#8b898a" d="m15.49 26.446-.041.055.012-.076z"/><path fill="#dabd8f" d="M43.337 31.826a8 8 0 0 0-.925.31c-.195.075-.372.174-.587.06a.3.3 0 0 0-.226.013 2.7 2.7 0 0 1-.67.234c-.434.023-.785.233-1.163.4a10 10 0 0 1-1.192.497c-.875.248-1.715.606-2.633.715-.791.095-1.562.358-2.35.462q-1.34.184-2.688.187a5.2 5.2 0 0 1-1.823-.301c-.65-.257-1.243-.689-1.834-1.084-.317-.211-.557-.544-.871-.756a6.5 6.5 0 0 1-1.461-1.23q-.16-.241-.333-.48a2 2 0 0 0-.384-.499 8.5 8.5 0 0 0-.92-.975 2.42 2.42 0 0 0-1.76-.663.3.3 0 0 1-.075-.065c-.019-.023-.117.019-.175.042s-.093.082-.117.072a.376.376 0 0 0-.468.111 1.7 1.7 0 0 0-.335.141c-.69.394-1.052 1.169-1.272 1.916a4.7 4.7 0 0 0-.095 2.558q.052.19.124.375a.4.4 0 0 1-.062.034 9.8 9.8 0 0 0 1.34 1.819q.116.191.254.366c.252.324.569.588.929.775q.289.278.629.488a5.75 5.75 0 0 0 2.734.784c.168.003.335-.031.49-.1.805-.073 1.58-.324 2.029-1.033.41.183.844.356 1.268.535l.061.033h.056q.296.171.616.287c.377.12.77.174 1.165.162q.383-.01.762-.07l.046.013c.293 0 .587.031.879.01 1.027-.07 2.077-.136 3.112-.242q.78-.099 1.546-.286.787-.148 1.55-.394.921-.33 1.796-.77a8 8 0 0 0 1.09-.712q.706-.478 1.333-1.063.503-.589.912-1.249l.033-.057.127-.248c.023-.21.047-.434.064-.65a.46.46 0 0 0-.147-.373.43.43 0 0 0-.38-.1"/><path fill="#000" d="M23.817 19.44c.04-.27.065-.468.104-.664a.2.2 0 0 1 .043-.097.19.19 0 0 1 .188-.067.2.2 0 0 1 .092.049c.273.286.58.579.602 1.012a.56.56 0 0 1-.179.442.4.4 0 0 1-.546-.11 4 4 0 0 1-.304-.565M29.711 18.406a4 4 0 0 1-.205.492c-.023.038-.165.04-.226 0a.93.93 0 0 1-.364-.401.96.96 0 0 1-.084-.542.3.3 0 0 1 .137-.21.26.26 0 0 1 .226.073c.177.184.337.381.516.588M32.15 12.812c.372-.238.536-.228.766.13.313.489.641.97.791 1.55.047.179.13.347.187.524.193.598.138.889-.43 1.428a3 3 0 0 1-.098-.289 25 25 0 0 1-.205-1.074c-.105-.55-.448-.95-.802-1.337a.602.602 0 0 1-.154-.724c.009-.048-.035-.126-.055-.208M16.83 16.437c.155-.54.437-1.14.41-1.158q.222-.51.51-.987c.363-.632.762-1.226 1.138-1.842a4 4 0 0 1 .479-.472c.084-.12-.128-.617-.206-.68-.444-.41-.557-.394-.94.031-.847.931-1.155 2.154-1.48 3.37-.136.5-.23 1.326-.037 1.921"/><path fill="#000" d="M26.938 12.601a2.3 2.3 0 0 0-.356-.396c-.783-.688-1.76-.802-2.724-.934-.933-.127-1.85.067-2.741.305-.41.111-.838.242-1.257.364-.023-.013-1.204.604-1.323.672-.596.332-1.116.812-1.663 1.236-.454.324-.856.72-1.191 1.17-.185.263-.411.5-.617.745-.039-.029-.109-.016-.08-.012-.361.632-.72 1.242-1.076 1.859-.072.128-.177.263-.082.421.084-.183.158-.358.246-.524s.222-.343.302-.529c.386-.903 1.079-1.575 1.734-2.236.656-.66 1.504-1.202 2.274-1.783q.19-.125.4-.21s1.014-.495 1.19-.52q.276-.083.541-.194c1.467-.404 2.944-.678 4.462-.318q.472.09.92.259c.523.21.925.57.962 1.236a.42.42 0 0 0 .169-.288.43.43 0 0 0-.09-.323M27.014 36.88a3 3 0 0 1-.453-.21c-.386-.286-.76-.591-1.14-.888-.347-.246-.704-.463-.885-.905-.181-.443-.436-.843-.656-1.264a.6.6 0 0 1-.032-.122 4.77 4.77 0 0 1-.617-2.573c.017-.604.337-1.033.793-1.374q.276-.095.555-.182c.187-.056.325-.086.483-.128-.072-.493-.19-.573-.584-.438-.234.08-.464.169-.713.257-.067-.135-.148-.118-.273-.015-.205.17-.436.305-.655.455l-.99.912-.617.579c.688-.083.972.094 1.18.722.077.238.106.492.17.737q.044.155.123.294c.335.653.64 1.325 1.027 1.946a5.1 5.1 0 0 0 1.198 1.448c.206.154.267.495.384.756.076.169.115.354.206.518s.055.21-.111.267l.255.26a.7.7 0 0 0 .433.092c.493-.118.986-.288 1.268-.808v-.01l-.128-.07c-.106-.06-.16-.177-.221-.255"/></svg>