<svg xmlns="http://www.w3.org/2000/svg" width="50" height="50" fill="none" viewBox="0 0 50 50"><path fill="#f3a250" d="m40.47 44.242-5.582 3.25c-3.343 1.922-7.342 2.828-11.709 2.406a33 33 0 0 1-1.743-.234c-3.455-.625-6.75-2.047-9.661-4.094a26.8 26.8 0 0 1-5.055-4.594A28.1 28.1 0 0 1 .914 30.163a26.6 26.6 0 0 1-.816-4.64c-.032-.376-.064-.735-.08-1.094-.107-2.965.262-5.857 1.309-8.705.16-.433.5-.776.927-.965l1.747-.768-1.6-.688c1.664-3.187 4.127-5.781 7.15-7.531l5.567-3.235C1.27 10.517 2.865 32.312 17.357 42.32c2.911 2.031 6.206 3.469 9.661 4.094.592.11 1.152.187 1.743.25 4.335.437 8.366-.485 11.709-2.422"/><path fill="#ffd475" d="M49.98 25.6C49.455 12.745 39.095 1.335 26.822.105c-12.25-1.21-21.77 8.241-21.245 21.08.525 12.856 10.907 24.266 23.177 25.473 12.253 1.23 21.755-8.198 21.228-21.056"/><path fill="#ffb961" d="M24.001 1.234c-10.008.375-17.64 8.62-17.179 19.9C7.37 34.478 18.98 46.005 31.61 45.531c9.88-.37 17.589-8.478 17.121-19.881-.5-12.25-10.385-23.167-22.036-24.334A20 20 0 0 0 24 1.234"/><path fill="#dd8536" d="M8.056 19.725c-.399 0-.435-.578-.037-.623l1.45-.167.167-1.413a.32.32 0 0 1 .12-.206.33.33 0 0 1 .232-.067.31.31 0 0 1 .281.343l-.191 1.658a.3.3 0 0 1-.092.186.32.32 0 0 1-.19.09l-1.702.196z"/><path fill="#dd8536" d="m8.547 18.352-.035-.003a.32.32 0 0 1-.215-.115.3.3 0 0 1-.067-.23l.192-1.657a.3.3 0 0 1 .091-.186.32.32 0 0 1 .19-.089l1.702-.195c.413-.055.501.57.076.618l-1.451.168-.167 1.41a.3.3 0 0 1-.103.2.32.32 0 0 1-.213.079M42.83 16.09l-.973-1.37a.306.306 0 0 1 .026-.388l1.15-1.242c.28-.308.758.11.473.417l-.978 1.06.826 1.167a.307.307 0 0 1-.08.434.326.326 0 0 1-.444-.078"/><path fill="#dd8536" d="m43.41 17.053.979-1.06-.826-1.166c-.244-.341.287-.697.525-.358l.97 1.372a.31.31 0 0 1-.023.387l-1.148 1.242c-.282.31-.762-.109-.477-.417m-6.165-7.97-1.396-.961a.305.305 0 0 1-.112-.372l.64-1.555a.32.32 0 0 1 .172-.17.318.318 0 0 1 .418.165.3.3 0 0 1 .003.24l-.544 1.325 1.189.818c.347.24-.029.75-.37.51"/><path fill="#dd8536" d="m38.131 9.789.544-1.322-1.188-.82c-.346-.238.022-.753.368-.51l1.396.961c.06.041.102.1.123.168.02.068.016.14-.011.206l-.64 1.553c-.158.381-.751.148-.592-.236m-9.077-4.658-1.64-.46a.32.32 0 0 1-.171-.12.3.3 0 0 1-.06-.197l.083-1.671c.011-.172.163-.286.336-.299.176.01.312.156.304.328l-.07 1.425 1.397.392c.082.023.15.077.192.15a.3.3 0 0 1 .027.238.31.31 0 0 1-.153.187.33.33 0 0 1-.245.027"/><path fill="#dd8536" d="M30.447 5.844h-.016a.32.32 0 0 1-.22-.103.3.3 0 0 1-.084-.226L30.2 4.09l-1.398-.392c-.401-.112-.235-.712.178-.601l1.641.46c.142.04.237.172.23.316l-.081 1.672a.3.3 0 0 1-.1.211.32.32 0 0 1-.22.086zm-11.638.365-1.086-1.295c-.267-.319.224-.719.494-.397l.927 1.105L20.449 5c.384-.178.66.378.281.562l-1.534.73a.32.32 0 0 1-.387-.083"/><path fill="#dd8536" d="m21.79 5.145-.924-1.106-1.305.623c-.38.182-.664-.378-.282-.562l1.534-.732a.33.33 0 0 1 .39.083l1.085 1.297c.266.32-.224.716-.496.397zm-9.42 6.696-1.62-.552c-.405-.136-.183-.731.207-.589l1.382.469.78-1.199a.331.331 0 0 1 .443-.095.306.306 0 0 1 .098.431l-.916 1.407a.326.326 0 0 1-.374.128"/><path fill="#dd8536" d="m11.642 9.803.915-1.406a.322.322 0 0 1 .374-.127l1.62.549c.403.136.186.728-.208.589l-1.382-.467-.779 1.198c-.228.349-.767.013-.54-.336m-1.536 20.259 1.217-.79-.503-1.332a.3.3 0 0 1 .017-.232.32.32 0 0 1 .177-.156.33.33 0 0 1 .238.006.32.32 0 0 1 .167.166l.592 1.563a.306.306 0 0 1-.123.37l-1.43.927c-.352.224-.704-.293-.352-.522"/><path fill="#dd8536" d="m9.788 28.988-.592-1.562a.305.305 0 0 1 .122-.37l1.43-.927a.326.326 0 0 1 .443.089.31.31 0 0 1-.09.433l-1.219.789.504 1.332a.3.3 0 0 1-.018.232.32.32 0 0 1-.176.156.33.33 0 0 1-.238-.006.31.31 0 0 1-.166-.166m6.92 9.825.678-1.265-1.096-.93c-.32-.272.096-.742.42-.473l1.287 1.093c.055.047.092.11.105.18a.3.3 0 0 1-.032.203l-.798 1.483c-.192.366-.763.075-.564-.29"/><path fill="#dd8536" d="M16.11 38.098c-.213 0-.188-.09-1.5-1.17a.306.306 0 0 1-.074-.381l.8-1.482c.188-.366.764-.078.565.29l-.68 1.263 1.096.931q.075.065.1.159a.31.31 0 0 1-.126.333.33.33 0 0 1-.182.057m10.4 5.714a.32.32 0 0 1-.225-.09.3.3 0 0 1-.094-.22l-.013-1.428-1.417-.315c-.397-.088-.294-.688.144-.61l1.663.37c.07.017.133.055.178.11.045.054.07.122.07.192l.015 1.675a.3.3 0 0 1-.092.223.32.32 0 0 1-.228.093"/><path fill="#dd8536" d="m25.095 43.176-1.663-.369a.32.32 0 0 1-.18-.108.3.3 0 0 1-.071-.195l-.012-1.675a.3.3 0 0 1 .093-.222.32.32 0 0 1 .226-.093.33.33 0 0 1 .227.09.3.3 0 0 1 .094.222l.011 1.427 1.418.312a.33.33 0 0 1 .2.138.31.31 0 0 1-.216.476.3.3 0 0 1-.125-.003zm12.058-.156c-.298 0-.288-.253-1.079-1.327l-1.362.499c-.394.147-.623-.441-.224-.586l1.6-.585a.324.324 0 0 1 .377.12l.953 1.391a.307.307 0 0 1-.1.443.3.3 0 0 1-.165.045"/><path fill="#dd8536" d="m33.813 43.66-.954-1.39c-.235-.344.298-.696.531-.349l.813 1.186 1.36-.498c.4-.142.62.44.225.586l-1.598.584a.33.33 0 0 1-.377-.119m8.554-7.373.979-1.366a.329.329 0 0 1 .38-.11l1.592.621c.392.153.157.731-.237.581l-1.356-.53-.833 1.165c-.248.337-.768-.022-.525-.36z"/><path fill="#dd8536" d="m42.999 38.357-1.592-.622c-.392-.153-.158-.734.237-.58l1.356.53.837-1.164c.246-.337.768.02.524.36l-.982 1.365a.326.326 0 0 1-.38.111m2.538-11.975-.176-1.66a.3.3 0 0 1 .048-.2.32.32 0 0 1 .165-.128l1.62-.547c.392-.14.614.452.21.588l-1.38.469.15 1.414c.041.414-.592.48-.637.064"/><path fill="#dd8536" d="m45.572 27.5 1.382-.468-.15-1.416a.3.3 0 0 1 .07-.23.32.32 0 0 1 .216-.114c.171.004.335.11.352.282l.175 1.659c.007.07-.01.14-.05.2a.32.32 0 0 1-.165.127l-1.62.548c-.392.14-.613-.453-.208-.589z"/><path fill="#f3a250" d="M44.043 25.01c-.392-9.424-7.988-17.785-16.956-18.69-8.99-.884-15.963 6.03-15.573 15.454S19.5 39.559 28.49 40.444c8.968.904 15.944-6.03 15.553-15.434"/><path fill="#dd8536" d="M37.172 33.057c-2.214 1.966-6.771 2.24-9.457 2.269a.89.89 0 0 1-.607-.208.85.85 0 0 1-.296-.558q-.14-1.305-.32-2.605a.84.84 0 0 0-.163-.407.9.9 0 0 0-.348-.275c-1.714-.727-7.495-3.622-8.269-8.754-.963-6.003 2.842-9.072 7.361-8.828 2.802.15 7.283 1.486 10.1 5.914 1.028 1.62 1.129 2.956.922 3.95a.52.52 0 0 0 .224.516q.063.044.122.093c.008.002.008.01.016.011.68.532 1.84 1.675.975 2.733-.58.707-1.043 1.2-1.364 1.52a.8.8 0 0 0-.19.897q.042.069.075.141c.45.663 1.625 1.305 1.94 2.088.146.344-.417 1.23-.721 1.503"/><path fill="#dd8536" d="M44.043 25.01c-.392-9.424-7.988-17.785-16.956-18.69-5.226-.516-9.788 1.606-12.577 5.333 2.741-2.32 6.401-3.516 10.477-3.119 13.596 1.372 21.73 18.578 13.959 28.792 3.327-2.77 5.32-7.177 5.097-12.316M27.016 46.418c-3.46-.623-6.745-2.067-9.656-4.093l-5.579 3.24c2.913 2.047 6.196 3.47 9.656 4.094zm-14.73-8.683c-2.684-3.094-4.736-6.794-5.81-10.802L.908 30.166a27.9 27.9 0 0 0 5.82 10.808zm-6.145-22.82L.607 18.158c-.485 1.97-.672 4.073-.587 6.265.014.367.048.732.085 1.097L5.642 22.3a24 24 0 0 1 .502-7.383z"/><path fill="#ffde9b" d="M37.59 32.357c-2.13 1.89-6.514 2.155-9.097 2.183a.85.85 0 0 1-.584-.2.81.81 0 0 1-.285-.536 85 85 0 0 0-.307-2.506.8.8 0 0 0-.156-.392.84.84 0 0 0-.335-.265c-1.65-.698-7.21-3.484-7.956-8.42-1.707-10.665 11.625-10.93 16.798-2.804.987 1.558 1.085 2.844.886 3.8a.5.5 0 0 0 .216.498q.06.041.115.09c.008 0 .008.008.016.01.655.51 1.77 1.61.938 2.628a20 20 0 0 1-1.312 1.462.77.77 0 0 0-.182.863c.472.747 1.164 1.776 1.495 2.595a.87.87 0 0 1-.25.994"/><path fill="#ffd475" fill-opacity=".565" d="M37.847 31.366a.9.9 0 0 1-.256.985c-2.041 1.815-6.274 2.187-9.102 2.187-.463 0-.815-.297-.863-.734-.096-.828-.192-1.672-.304-2.5a.86.86 0 0 0-.304-.547c-.123-.12-.218-.122-.448-.235-3.55-1.54-7.127-4.525-7.694-8.297-.543-3.447.453-6.539 3.631-7.922 0 .016-.016.016-.016.031-.32.47-.56.985-.767 1.516-1.952 5.047.655 11.97 7.837 11.97 3.551 0 5.998-1.704 7.31-4.032 0 .015.016.015.016.015s0 .016.016.016c.656.5 1.76 1.61.928 2.625-.544.672-.992 1.157-1.312 1.453a.79.79 0 0 0-.176.876c.032.03.048.078.08.125.432.64 1.12 1.718 1.424 2.468"/><path fill="#ffb961" fill-opacity=".565" d="M34.12 33.945c-1.742.473-3.823.593-5.63.593-.464 0-.816-.297-.864-.734-.096-.828-.192-1.672-.304-2.5a.86.86 0 0 0-.304-.547c-.254-.186-7.292-2.867-8.142-8.532-.543-3.445.453-6.539 3.631-7.922l-.016.03a7.1 7.1 0 0 1 2.144-.577c-2.827.985-4.75 3.697-4.015 8.094.768 4.938 6.35 7.72 7.997 8.423.272.125.464.359.496.656.112.844.224 1.672.32 2.515.048.438.416.735.864.735.56-.016 1.12-.016 1.68-.016.031 0 .048 0 .08-.015.212 0 1.42-.125 2.063-.204"/><path fill="#dd8536" d="M33.96 23.824c-.848.465-2.116-.169-2.847-1.414-.736-1.244-.685-2.641.137-3.105.806-.466 2.116.17 2.886 1.417.761 1.247.672 2.64-.176 3.102"/><path fill="#f3a250" d="M33.269 23.968c.936-1.416-.68-4.17-2.44-4.246.097-.175.242-.32.42-.419.806-.464 2.116.172 2.888 1.42 1.115 1.815.312 3.348-.868 3.245"/><path fill="#dd8536" d="M28.242 25.516c-1.075.578-2.641-.212-3.52-1.766-.887-1.556-.8-3.297.234-3.878 1.014-.58 2.646.213 3.585 1.77.93 1.558.776 3.297-.3 3.874"/><path fill="#f3a250" d="M28.24 25.511a1.6 1.6 0 0 1-.681.191c.947-.647 1.047-2.292.175-3.788-.75-1.243-1.938-2-2.9-1.953.042-.036.084-.058.125-.086 1.011-.583 2.648.21 3.58 1.766.934 1.555.78 3.3-.299 3.87m3.685 1.377-1.175.516a.17.17 0 0 1-.18-.02.16.16 0 0 1-.057-.168q.226-.958.432-1.917c.032-.156.248-.188.323-.047q.379.7.745 1.4a.17.17 0 0 1-.03.195.2.2 0 0 1-.058.041m1.8-.294-.73-.001a.37.37 0 0 1-.326-.211 113 113 0 0 0-.512-1.14c-.046-.102.087-.2.175-.123q.738.646 1.471 1.29c.072.067.023.187-.078.185"/><path fill="#ffb961" d="M37.839 26.443a20 20 0 0 1-1.312 1.462.77.77 0 0 0-.182.863c-.496-.89-1.657-2.02-.263-2.627 1.995-.884.805-2.336.803-2.336.008 0 .008.008.016.01.655.51 1.77 1.61.938 2.628"/><path fill="#dd8536" d="M36.807 32.913c-.04.063-.144.125-.336.188l-.976-2.266zm-1.776.766c-.121.147-.25.17-.383.125l-.56-2.422zm-2.559.594a.43.43 0 0 1-.416.062l.048-2.672z"/><path fill="#fff" d="M29.787 8.136a.27.27 0 0 1 .068-.291.28.28 0 0 1 .3-.06c2.735 1.01 3.002.968.164-.36a.272.272 0 0 1 .005-.503c5.827-2.524 5.557-2.705-.277-.657a.29.29 0 0 1-.297-.067.28.28 0 0 1-.064-.292c1.062-2.75.937-2.827-.373-.152a.28.28 0 0 1-.26.156.29.29 0 0 1-.255-.163c-1.006-2.196-1.962-4.191-2.105-4.136-.137.054.592 2.143 1.433 4.404a.27.27 0 0 1-.068.291.28.28 0 0 1-.3.061c-2.906-1.075-2.823-.878-.156.356q.074.035.12.103a.272.272 0 0 1-.123.4c-2.248.975-4.294 1.908-4.238 2.043.058.139 2.197-.572 4.513-1.388a.29.29 0 0 1 .299.066.28.28 0 0 1 .064.294c-1.078 2.807-.909 2.8.363.157a.29.29 0 0 1 .517.005c1.006 2.195 1.97 4.195 2.106 4.14.144-.054-.593-2.146-1.436-4.406z"/><path fill="#fff" fill-opacity=".44" d="M21.106 21.005c.074 1.538.435 2.713-.185 2.772-.615.058-1.197-1.149-1.27-2.688-.072-1.537.49-2.653 1.103-2.71.62-.06.28 1.088.352 2.624zm.106-4.76c.294.097.419.5.288.894-.133.396-.472.638-.765.54-.288-.093-.416-.49-.283-.885.131-.395.473-.644.76-.549"/><path fill="#dd8536" d="m3.014 14.428-.619-1.122 1.61.685"/></svg>