<svg xmlns="http://www.w3.org/2000/svg" width="50" height="50" fill="none" viewBox="0 0 50 50"><path fill="#b1cddd" d="M23.774 49.965a.43.43 0 0 1-.407-.29.42.42 0 0 1 .15-.475l1.249-.945-2.145 1.226a.43.43 0 0 1-.553-.112.423.423 0 0 1 .039-.56l2.24-2.182-3.288 1.885a.43.43 0 0 1-.55-.122.42.42 0 0 1 .049-.558l.95-.85-1.246.712a.43.43 0 0 1-.545-.098.42.42 0 0 1 .007-.549l.706-.806-.808.464a.43.43 0 0 1-.435 0 .43.43 0 0 1-.209-.377l.032-1.047a.43.43 0 0 1-.398-.323.42.42 0 0 1 .202-.47l.43-.246a.43.43 0 0 1 .59.164.4.4 0 0 1 .053.217l-.029.964 2.367-1.355a.43.43 0 0 1 .545.098.42.42 0 0 1-.007.55l-.708.805 2.549-1.458a.43.43 0 0 1 .55.123.42.42 0 0 1-.048.557l-.95.85 2.686-1.536a.43.43 0 0 1 .553.112.42.42 0 0 1-.038.559l-2.242 2.183 5-2.86a.43.43 0 0 1 .57.131.42.42 0 0 1-.095.574l-1.25.945 1.433-.82a.433.433 0 0 1 .56.116.42.42 0 0 1-.054.565l-1.715 1.581a.44.44 0 0 1 .424.21.42.42 0 0 1-.157.58l-3.025 1.731a.43.43 0 0 1-.56-.115.42.42 0 0 1 .054-.565l1.609-1.48-3.914 2.24a.4.4 0 0 1-.22.057"/><path fill="#e0bd26" d="M19.032 36.504a.43.43 0 0 1-.41-.303.42.42 0 0 1 .174-.476l3.79-2.477-4.203 2.406a.43.43 0 0 1-.579-.143.42.42 0 0 1 .125-.578l8.968-5.996-8.62 4.932a.43.43 0 0 1-.568-.15.42.42 0 0 1 .116-.57l10.056-6.69-9.901 5.667a.43.43 0 0 1-.581-.145.42.42 0 0 1 .132-.58l7.864-5.068-7.767 4.448a.43.43 0 0 1-.582-.15.42.42 0 0 1 .14-.579l1.386-.86-1.253.716a.43.43 0 0 1-.572-.15.42.42 0 0 1 .124-.573l9.252-5.982-9.368 5.358a.43.43 0 0 1-.571-.154.42.42 0 0 1 .127-.572l5.374-3.376-5.436 3.11a.43.43 0 0 1-.568-.15.42.42 0 0 1 .117-.572l11.39-7.46-11.81 6.756a.433.433 0 0 1-.566-.155.42.42 0 0 1 .123-.57l6.61-4.162-6.876 3.935a.43.43 0 0 1-.574-.153.42.42 0 0 1 .133-.575l2.317-1.429-2.481 1.42a.43.43 0 0 1-.57-.156.42.42 0 0 1 .127-.572l5.739-3.586-5.988 3.427a.43.43 0 0 1-.576-.15.42.42 0 0 1 .13-.577l7.712-4.864-7.954 4.552a.43.43 0 0 1-.581-.149.42.42 0 0 1 .14-.58l3.22-1.99-3.25 1.86a.43.43 0 0 1-.585-.142.42.42 0 0 1 .135-.582l11.495-7.464-11.702 6.692a.43.43 0 0 1-.585-.141.42.42 0 0 1 .135-.582l11.477-7.493-11.52 6.592a.43.43 0 0 1-.584-.145.42.42 0 0 1 .137-.58l7.962-5.072-7.771 4.445a.43.43 0 0 1-.578-.148.42.42 0 0 1 .13-.577l7.893-5.06-7.573 4.336a.43.43 0 0 1-.581-.145.42.42 0 0 1 .132-.58l7.419-4.784-6.949 3.977a.433.433 0 0 1-.57-.148.42.42 0 0 1 .118-.572l7.957-5.247-7.268 4.156a.43.43 0 0 1-.577-.147.42.42 0 0 1 .128-.577L14.7 8.957l-3.379 1.933a.433.433 0 0 1-.572-.15.42.42 0 0 1 .124-.573l2.041-1.317-1.038.595a.43.43 0 0 1-.577-.138.42.42 0 0 1 .116-.578l4.593-3.204-2.84 1.621a.43.43 0 0 1-.568-.132.42.42 0 0 1 .09-.571l2.937-2.269a.43.43 0 0 1-.318-.353.42.42 0 0 1 .21-.426L19.859.91a.43.43 0 0 1 .57.13.42.42 0 0 1-.092.573l-2.236 1.732L23.834.062a.43.43 0 0 1 .57.141.42.42 0 0 1-.109.574L19.703 3.98 26.44.127a.43.43 0 0 1 .569.153.42.42 0 0 1-.12.57l-2.034 1.312 3.1-1.773a.43.43 0 0 1 .58.145.42.42 0 0 1-.132.58l-4.23 2.733L29.466.82a.43.43 0 0 1 .583.141.42.42 0 0 1-.13.581l-7.955 5.246 9.197-5.263a.43.43 0 0 1 .575.15.42.42 0 0 1-.127.575L24.192 7.03l8.315-4.761a.43.43 0 0 1 .59.14.42.42 0 0 1-.142.585l-7.892 5.06 8.65-4.946a.43.43 0 0 1 .577.148.42.42 0 0 1-.131.577L26.206 8.9l8.554-4.895a.43.43 0 0 1 .586.142.42.42 0 0 1-.135.582l-11.482 7.497L35.94 5.24a.43.43 0 0 1 .57.15.42.42 0 0 1-.12.573L24.9 13.426 36.93 6.542a.43.43 0 0 1 .572.155.42.42 0 0 1-.13.573L34.15 9.261l3.302-1.888a.43.43 0 0 1 .58.149.42.42 0 0 1-.135.578l-7.715 4.864 7.852-4.492a.43.43 0 0 1 .577.152.42.42 0 0 1-.135.576l-5.734 3.583 5.72-3.274a.43.43 0 0 1 .582.15.42.42 0 0 1-.14.578l-2.325 1.435 2.188-1.252a.43.43 0 0 1 .58.149.42.42 0 0 1-.136.578l-6.6 4.153 6.454-3.692a.43.43 0 0 1 .568.15.42.42 0 0 1-.118.572l-11.39 7.463 11.18-6.399a.43.43 0 0 1 .58.15.42.42 0 0 1-.136.577l-5.377 3.377 4.975-2.844a.43.43 0 0 1 .572.15.42.42 0 0 1-.123.574l-9.247 5.98 8.664-4.962a.43.43 0 0 1 .572.155.42.42 0 0 1-.13.573l-1.403.87.75-.425a.43.43 0 0 1 .573.15.42.42 0 0 1-.124.573l-7.866 5.07 6.873-3.933a.43.43 0 0 1 .574.146.42.42 0 0 1-.12.575L28.86 26.832l8.277-4.736a.433.433 0 0 1 .572.147.42.42 0 0 1-.118.574l-8.97 5.994 6.054-3.464a.43.43 0 0 1 .58.144.42.42 0 0 1-.13.579l-3.784 2.473 2.167-1.24a.43.43 0 0 1 .571.145.42.42 0 0 1-.115.574l-3.141 2.13 1.903-1.088a.43.43 0 0 1 .562.13.423.423 0 0 1-.077.566l-4.098 3.326 2.904-1.662a.43.43 0 0 1 .551.105.42.42 0 0 1-.025.556l-2.048 2.143 1.201-.686a.432.432 0 0 1 .627.252.42.42 0 0 1-.007.253l-.41 1.19a.43.43 0 0 1 .374.334.42.42 0 0 1-.203.457l-.686.395a.432.432 0 0 1-.627-.252.42.42 0 0 1 .007-.253l.37-1.072-2.768 1.583a.43.43 0 0 1-.55-.106.42.42 0 0 1 .024-.554l2.051-2.144-4.91 2.81a.43.43 0 0 1-.673-.42.43.43 0 0 1 .176-.276l4.1-3.325-7.043 4.027a.43.43 0 0 1-.586-.136.42.42 0 0 1 .13-.583l3.137-2.125-4.982 2.85a.43.43 0 0 1-.215.057"/><path fill="#c0dbf0" d="M19.535 45.832a.43.43 0 0 1-.41-.304.42.42 0 0 1 .175-.477l1.339-.872-2.691 1.54a.43.43 0 0 1-.578-.148.42.42 0 0 1 .131-.577l.858-.548-1.287.734a.433.433 0 0 1-.578-.141.42.42 0 0 1 .122-.578l4.726-3.195-4.657 2.665a.43.43 0 0 1-.57-.145c-.058-.092-.08-.202-.058-.308.02-.107.082-.201.17-.264l3.145-2.14-1.863 1.066a.43.43 0 0 1-.573-.143.42.42 0 0 1 .115-.575l.834-.572-1.037.595a.43.43 0 0 1-.566-.125.42.42 0 0 1 .078-.57l3.198-2.636-2.273 1.294a.43.43 0 0 1-.566-.12.42.42 0 0 1 .07-.57l1.03-.882-.812.464a.432.432 0 0 1-.638-.29.42.42 0 0 1 .038-.265l.704-1.422-.2.114a.433.433 0 0 1-.57-.164.42.42 0 0 1 .142-.571l1.421-.813a.432.432 0 0 1 .638.29.42.42 0 0 1-.037.265l-.705 1.42 3.457-1.977a.433.433 0 0 1 .562.122.42.42 0 0 1-.067.567l-1.029.883 2.745-1.572a.43.43 0 0 1 .563.127.42.42 0 0 1-.075.568l-3.197 2.636 5.829-3.329a.433.433 0 0 1 .568.146.42.42 0 0 1-.11.57l-.837.575 2.257-1.291a.43.43 0 0 1 .57.145.42.42 0 0 1-.113.573l-3.141 2.137 4.99-2.855a.43.43 0 0 1 .572.145.42.42 0 0 1-.115.574L26.506 38.8l6.198-3.546a.43.43 0 0 1 .578.148.42.42 0 0 1-.13.577l-.87.556.957-.546a.43.43 0 0 1 .57.15.42.42 0 0 1-.12.573l-1.343.873.92-.526a.43.43 0 0 1 .57.143.42.42 0 0 1-.112.574l-3.188 2.196 2.222-1.27a.43.43 0 0 1 .57.127.42.42 0 0 1-.088.573l-3.517 2.775 3.612-2.067a.43.43 0 0 1 .568.126.42.42 0 0 1-.082.572l-2.025 1.648.815-.466a.43.43 0 0 1 .527.077.424.424 0 0 1 .045.526l-1.03 1.543 1.188-.68a.43.43 0 0 1 .601.146.423.423 0 0 1-.172.59l-2.774 1.58a.432.432 0 0 1-.642-.332.42.42 0 0 1 .07-.27l1.03-1.544-3.748 2.146a.433.433 0 0 1-.564-.127.423.423 0 0 1 .078-.57l2.021-1.645-4.093 2.342a.43.43 0 0 1-.57-.128.423.423 0 0 1 .088-.573l3.522-2.775-6.075 3.476a.433.433 0 0 1-.567-.146.423.423 0 0 1 .108-.57l3.187-2.197-5.092 2.913a.43.43 0 0 1-.214.06"/><path fill="#b1cddd" d="M22.536 42.43a.43.43 0 0 1-.401-.272.42.42 0 0 1 .112-.468l.746-.668-2.363 1.349a.43.43 0 0 1-.54-.096.42.42 0 0 1-.002-.545l1.271-1.504-3.573 2.045a.43.43 0 0 1-.548-.115.42.42 0 0 1 .033-.554l.978-.97-1.403.803a.43.43 0 0 1-.521-.072.42.42 0 0 1-.06-.518l.613-.989a.43.43 0 0 1-.555-.195.42.42 0 0 1 .163-.56l1.422-.813a.432.432 0 0 1 .639.32.42.42 0 0 1-.06.27l-.608.984 2.751-1.572a.43.43 0 0 1 .548.115.42.42 0 0 1-.033.553l-.978.97 2.865-1.638a.43.43 0 0 1 .543.095.42.42 0 0 1 0 .546l-1.272 1.505 3.753-2.146a.43.43 0 0 1 .553.121.42.42 0 0 1-.05.56l-.747.667 2.367-1.348a.43.43 0 0 1 .553.121.42.42 0 0 1-.05.56l-.76.68 2.385-1.361a.43.43 0 0 1 .552.11.42.42 0 0 1-.033.556l-1.095 1.096 2.726-1.559a.43.43 0 0 1 .536.089.42.42 0 0 1 .018.538l-1.124 1.445 1.438-.821a.432.432 0 0 1 .656.307.42.42 0 0 1-.227.428l-3.313 1.892a.43.43 0 0 1-.537-.085.42.42 0 0 1-.018-.539l1.124-1.445-3.623 2.069a.43.43 0 0 1-.552-.11.42.42 0 0 1 .033-.557l1.095-1.096-3.081 1.763a.43.43 0 0 1-.551-.123.423.423 0 0 1 .049-.557l.76-.68-2.39 1.36a.4.4 0 0 1-.214.06"/><path fill="#937e28" d="M24.654 22.875a.43.43 0 0 1-.406-.283.42.42 0 0 1 .136-.473l1.818-1.446-2.649 1.515a.43.43 0 0 1-.57-.13.42.42 0 0 1 .09-.572l3.61-2.806-3.153 1.8a.43.43 0 0 1-.52-.071.424.424 0 0 1-.06-.517l.797-1.302a.43.43 0 0 1-.562-.203.42.42 0 0 1 .189-.562l1.391-.79a.43.43 0 0 1 .64.319.42.42 0 0 1-.06.268l-.792 1.295 6.935-3.97a.43.43 0 0 1 .566.133.423.423 0 0 1-.088.57l-3.61 2.806 2.241-1.282a.43.43 0 0 1 .565.13.42.42 0 0 1-.082.57l-4.016 3.197a.42.42 0 0 1-.158.578l-2.038 1.167a.4.4 0 0 1-.214.06"/><path fill="#937e28" d="M27.657 16.59a.43.43 0 0 1-.396-.262.42.42 0 0 1 .092-.463l1.638-1.621-.319.182a.43.43 0 0 1-.548-.103.42.42 0 0 1 .018-.553l.822-.883-.5.285a.43.43 0 0 1-.55-.103.42.42 0 0 1 .022-.555l.469-.5-.442.256a.43.43 0 0 1-.531-.082.42.42 0 0 1-.034-.532l.853-1.2-1.458.837a.43.43 0 0 1-.534-.085.42.42 0 0 1-.026-.535l.786-1.063-2.38 1.36a.43.43 0 0 1-.571-.164.42.42 0 0 1 .141-.571l4.142-2.374a.43.43 0 0 1 .534.084.42.42 0 0 1 .027.535l-.786 1.062 1.38-.79a.43.43 0 0 1 .53.081.42.42 0 0 1 .035.532l-.858 1.201 1.23-.703a.43.43 0 0 1 .548.104.42.42 0 0 1-.02.554l-.47.5.462-.264a.43.43 0 0 1 .548.103.42.42 0 0 1-.018.552l-.823.885.716-.408a.43.43 0 0 1 .547.114.42.42 0 0 1-.033.554l-1.636 1.62 1.345-.77a.43.43 0 0 1 .656.308.42.42 0 0 1-.227.428l-4.177 2.39a.4.4 0 0 1-.204.057"/><path fill="#937e28" d="M20.103 15.223a.43.43 0 0 1-.384-.235.42.42 0 0 1 .04-.445l.951-1.275-2.287 1.307a.433.433 0 0 1-.578-.141.42.42 0 0 1 .122-.578l.353-.238a.43.43 0 0 1-.456-.175.42.42 0 0 1 .09-.572l2.917-2.271-1.94 1.105a.43.43 0 0 1-.56-.121.423.423 0 0 1 .063-.566l1.705-1.49a.423.423 0 0 1-.106-.778l2.932-1.677a.43.43 0 0 1 .558.122.423.423 0 0 1-.06.564L22.23 8.836l3.408-1.95a.43.43 0 0 1 .566.132.42.42 0 0 1-.086.57L23.2 9.857l4.29-2.456a.43.43 0 0 1 .586.136.42.42 0 0 1-.13.583l-5.285 3.58a.42.42 0 0 1-.046.425l-1.051 1.422a.43.43 0 0 1 .394.325.42.42 0 0 1-.201.468l-1.44.823a.4.4 0 0 1-.215.06m5.552 14.454a.43.43 0 0 1-.362-.197.42.42 0 0 1-.026-.41l.455-.957-2.032 1.165a.43.43 0 0 1-.547-.115.42.42 0 0 1 .032-.554l.565-.558-.207.117a.432.432 0 0 1-.638-.305.42.42 0 0 1 .047-.266l.384-.7a.43.43 0 0 1-.38-.332.42.42 0 0 1 .204-.459l.996-.57a.43.43 0 0 1 .514.063.424.424 0 0 1 .078.509l-.314.569 1.715-.982a.43.43 0 0 1 .548.115.42.42 0 0 1-.033.554l-.564.56.39-.224a.432.432 0 0 1 .633.287.42.42 0 0 1-.032.261l-.48 1.01a.45.45 0 0 1 .42.21.42.42 0 0 1-.157.58l-.995.569a.43.43 0 0 1-.214.06"/><path fill="#262626" d="M39.428 10.5C32.614-8.78 4.638.9 10.91 20.108c2.444 4.946 6.87 8.923 6.761 14.856-1.716.432-2.497 2.778-.728 3.767-.304.17-.556.418-.731.717a1.943 1.943 0 0 0 .73 2.684c-2.1 1.34-.666 4.04 1.695 3.715 2.332 5.697 10.216 5.374 12.633-.005 2.127.228 4.097-2.599 1.761-3.923.315-.16.58-.404.764-.704a1.9 1.9 0 0 0-.764-2.697c.368-.194.664-.5.844-.872a1.92 1.92 0 0 0-.436-2.256 1.96 1.96 0 0 0-1.11-.502c.562-9.118 10.065-14.592 7.099-24.39M19.75 45.842q5.307.01 10.614 0c-2.092 4.574-8.448 4.252-10.614 0m12.135-.823H20.004c-1.08 0-4.375-.17-2.494-2 2.185-1.29 5.259-.264 7.75-.578h6.169c1.265.336 2.793 1.912.457 2.578m0-3.4c-4.222.132-8.921-.68-13.15-.075-1.252-.153-2.574-.61-1.226-1.926a2.35 2.35 0 0 1 1.898-.578h12.02c1.266.336 2.794 1.912.458 2.578m0-3.401c-4.223.132-8.921-.68-13.15-.075-1.252-.153-2.574-.61-1.226-1.926 1.467-1.43 5.79-.577 7.75-.577 2.05.039 4.139-.062 6.169 0 1.265.336 2.793 1.91.457 2.578m6.797-19.708c-.944 3.544-3.61 5.782-5.254 8.92a18.25 18.25 0 0 0-1.973 7.371c-4.117.153-8.794-.699-12.897-.034a18.3 18.3 0 0 0-1.956-7.513c-1.663-3.191-4.299-5.331-5.266-8.94a13.9 13.9 0 0 1-.077-6.567 14 14 0 0 1 2.946-5.881 14.15 14.15 0 0 1 5.324-3.909A14.3 14.3 0 0 1 26.065.88c2.06.197 4.052.832 5.841 1.86a14.4 14.4 0 0 1 4.533 4.098 14.2 14.2 0 0 1 2.404 5.594 14.2 14.2 0 0 1-.16 6.079"/><path fill="#262626" d="M23.897 6.882c-2.945.467-6.985 3.707-6.262 7.126.42 1.998 3.915 1.584 4.442-.115.171-2.66 3.41-4.025 5.189-1.765a2.98 2.98 0 0 1 .375 3.116 3 3 0 0 1-1.07 1.239 3.04 3.04 0 0 1-1.566.5c-.616.03-1.196.3-1.613.752a2.3 2.3 0 0 0-.608 1.66c-.016.791-.286 2.272.222 2.966.535.733 2.007.568 2.799.51 1.292-.1 1.407-1.07 1.419-2.08 8.493-2.93 5.554-15.094-3.327-13.909m2.718 13.313c-.881.235.085 1.634-.832 1.889-.472.147-1.729.108-1.933-.353a5 5 0 0 1-.055-1.777c0-.884-.086-2.09 1.154-2.188 3.242-.138 5.404-3.942 2.903-6.452-2.419-2.428-6.495-.657-6.771 2.572a1.638 1.638 0 0 1-1.873.546c-1.047-.695-.364-2.35.025-3.195a6.24 6.24 0 0 1 3.326-3.176 6.32 6.32 0 0 1 4.618-.055c5.815 2.263 5.243 10.355-.562 12.189m-1.062 5.18c-3.023-.352-2.892 1.199-2.526 3.6.508 1.122 1.968.794 2.956.799 1.32-.133 1.132-1.587 1.132-2.54 0-1.042-.394-1.86-1.562-1.86m.199 3.404c-1.328.085-2.425.304-2.069-1.356 0-.44-.103-.904.452-1.039a5 5 0 0 1 1.087-.005c.343 0 .97-.114 1.105.309.045.346.045.697 0 1.043 0 .499.088.978-.575 1.048"/></svg>