<svg xmlns="http://www.w3.org/2000/svg" width="50" height="50" fill="none" viewBox="0 0 50 50"><g clip-path="url(#a)"><path fill="#dfebfa" d="M43.398.39h-27.84c-3.63 0-6.601 2.971-6.601 6.602V9.24h25.182c3.631 0 6.602 2.97 6.602 6.602v16.46h2.657C47.029 32.3 50 29.33 50 25.698V6.993C50 3.362 47.029.39 43.398.39"/><path fill="#b1dbfc" d="M38.717 8.937h-27.84c-.65 0-1.298.097-1.92.288v.014h25.182c3.631 0 6.602 2.97 6.602 6.602v16.46h2.657c.65 0 1.298-.097 1.92-.288V15.539c.001-3.631-2.97-6.602-6.601-6.602"/><path fill="#60b8fe" d="M34.441 8.937H6.602C2.971 8.937 0 11.908 0 15.539v18.706c0 3.631 2.971 6.602 6.602 6.602h16.709c.716 0 1.25.667 1.087 1.364a28 28 0 0 1-2.123 5.927c-.45.918.573 1.852 1.443 1.314 2.515-1.557 6.093-4.162 9.106-7.844.396-.484.992-.76 1.617-.76 3.631 0 6.602-2.972 6.602-6.603V15.54c0-3.631-2.97-6.602-6.602-6.602"/><path fill="#23a8fe" d="M28.674 42.211a1.114 1.114 0 0 0-1.088-1.364h-4.275c.716 0 1.25.667 1.087 1.364a28 28 0 0 1-2.123 5.927c-.45.918.573 1.852 1.443 1.314a40 40 0 0 0 3.272-2.257 28 28 0 0 0 1.684-4.984M4.276 34.245V15.54c0-3.631 2.97-6.602 6.602-6.602H6.602C2.971 8.937 0 11.908 0 15.539v18.706c0 3.631 2.971 6.602 6.602 6.602h4.276c-3.631 0-6.602-2.97-6.602-6.602"/><path fill="#dfebfa" d="M16.559 14.183h-3.14c-.7 0-1.272.573-1.272 1.272v2.61c0 .7.572 1.272 1.272 1.272h1.692a.497.497 0 0 1 .497.497v1.653c0 .178.196.287.347.193a3.97 3.97 0 0 0 1.876-3.37v-2.855c0-.7-.572-1.272-1.272-1.272m8.351 0h-3.14c-.7 0-1.272.573-1.272 1.272v2.61c0 .7.573 1.272 1.272 1.272h1.693a.497.497 0 0 1 .497.497v1.653c0 .178.196.287.347.193a3.97 3.97 0 0 0 1.876-3.37v-2.855c0-.7-.573-1.272-1.273-1.272"/><path fill="#b1dbfc" d="M17.52 19.834a.497.497 0 0 0-.497-.497H15.33c-.7 0-1.272-.572-1.272-1.272v-2.61c0-.7.572-1.272 1.272-1.272H13.42c-.7 0-1.272.573-1.272 1.272v2.61c0 .7.572 1.272 1.272 1.272h1.692a.497.497 0 0 1 .497.497v1.653c0 .178.196.287.347.193a3.96 3.96 0 0 0 1.565-1.834zm8.352 0a.497.497 0 0 0-.497-.497h-1.693c-.7 0-1.272-.572-1.272-1.272v-2.61c0-.7.572-1.272 1.272-1.272H21.77c-.7 0-1.272.573-1.272 1.272v2.61c0 .7.573 1.272 1.272 1.272h1.693a.497.497 0 0 1 .497.497v1.653c0 .178.196.287.347.193a3.96 3.96 0 0 0 1.565-1.834z"/><path fill="#0193fa" d="M33.484 26.124H7.512a.755.755 0 0 1 0-1.509h25.972a.755.755 0 0 1 0 1.51m0 3.471H7.512a.755.755 0 0 1 0-1.509h25.972a.755.755 0 0 1 0 1.509m0 3.47H7.512a.755.755 0 0 1 0-1.508h25.972a.755.755 0 0 1 0 1.509m-6.493 3.471H14.005a.754.754 0 0 1 0-1.508h12.986a.754.754 0 0 1 0 1.508"/></g><defs><clipPath id="a"><path fill="#fff" d="M0 0h50v50H0z"/></clipPath></defs></svg>