<svg xmlns="http://www.w3.org/2000/svg" width="50" height="50" fill="none" viewBox="0 0 50 50"><path fill="#000" d="M8.015 50c-3.777 0-6.85-3.13-6.85-6.975V8.163c0-1.865.714-3.618 2.01-4.936a6.74 6.74 0 0 1 4.84-2.04l35.144.045C46.93 1.237 50 4.366 50 8.208v34.817C50 46.87 46.927 50 43.15 50z" opacity=".35"/><path fill="#f2f2f2" d="M6.85 48.813c-3.777 0-6.85-3.13-6.85-6.976V6.977C0 5.11.714 3.358 2.009 2.04A6.74 6.74 0 0 1 6.849 0l35.144.045c3.772.005 6.841 3.134 6.841 6.976v34.817c0 3.846-3.072 6.975-6.849 6.975z"/><path fill="#707cc0" d="M4.02 34.978v6.283c0 1.774 1.413 3.213 3.155 3.213H41.66c1.742 0 3.155-1.439 3.155-3.213v-6.283z"/><path fill="#9aa2e6" d="M4.603 4.708v34.364c0 .689.549 1.247 1.225 1.247h37.179c.676 0 1.224-.558 1.224-1.247V4.708z"/><path stroke="#40396e" stroke-linecap="round" stroke-linejoin="round" stroke-miterlimit="10" stroke-width="3" d="M6.853 3.858C5.16 3.856 3.788 5.252 3.788 6.976v34.861c0 1.722 1.37 3.118 3.061 3.118h35.136c1.691 0 3.062-1.396 3.062-3.118V7.021c0-1.72-1.369-3.116-3.058-3.118z"/><path fill="#40396e" d="M22.574 27q-1.417 0-2.422-.568a3.86 3.86 0 0 1-1.547-1.6q-.54-1.032-.54-2.435 0-1.392.54-2.422t1.547-1.6q1.005-.57 2.422-.57.62 0 1.26.165t1.112.443q.384.227.471.569a.93.93 0 0 1-.056.645.84.84 0 0 1-.44.43q-.299.126-.67-.088a2.8 2.8 0 0 0-.784-.33 3.5 3.5 0 0 0-.832-.1q-1.254 0-1.894.74-.64.739-.64 2.118 0 1.378.64 2.125.64.746 1.894.746.399 0 .814-.101t.801-.317q.397-.214.696-.094.297.12.44.405.143.284.069.62-.074.334-.423.55a3.8 3.8 0 0 1-1.136.493 5.1 5.1 0 0 1-1.322.177"/><path fill="#40396e" d="M29.317 27q-2.571 0-2.57-2.541V22.08h-.523q-.732 0-.732-.709 0-.72.732-.72h.523v-.962q0-.974.943-.974.93 0 .931.974v.961h1.18q.72 0 .721.721 0 .71-.72.709h-1.18v2.302q0 .532.242.796.242.267.776.266.186 0 .347-.038.162-.038.298-.05a.33.33 0 0 1 .286.113q.112.127.111.52 0 .316-.099.536a.62.62 0 0 1-.347.323 2.2 2.2 0 0 1-.441.107q-.28.045-.478.045M32.31 26.976q-.969 0-.969-.974v-4.49q0-.962.919-.962.918 0 .919.961v.228q.447-1.125 1.85-1.214.311-.025.478.158.168.183.181.6.024.393-.156.62-.18.228-.602.279l-.285.025q-1.391.14-1.391 1.442v2.353q-.001.974-.944.974M38.656 27q-2.198 0-2.198-2.49v-5.705q0-.974.943-.974.932 0 .932.974v5.628q0 .518.218.765a.73.73 0 0 0 .577.247q.099 0 .192-.013.094-.012.18-.012.199-.014.28.126.08.14.08.57 0 .733-.608.834l-.286.032q-.16.018-.31.019M10.354 27.302q-.502 0-.766-.28t-.264-.784v-7.382q0-1.05 1.043-1.05h3.207q1.558 0 2.403.758.844.758.844 2.114 0 1.05-.534 1.75-.534.698-1.525.95.7.213 1.149 1.024l.818 1.53q.277.506.105.937t-.831.432q-.435 0-.713-.186t-.476-.572l-1.267-2.354q-.198-.372-.488-.506a1.6 1.6 0 0 0-.687-.133H11.37v2.687q0 .505-.257.785-.256.28-.758.28m1.016-5.24h1.835q1.65 0 1.65-1.33 0-1.317-1.65-1.317H11.37z"/></svg>