<svg xmlns="http://www.w3.org/2000/svg" width="50" height="50" fill="none" viewBox="0 0 50 50"><path fill="#ff4500" d="M25 0C11.192 0 0 11.192 0 25a24.93 24.93 0 0 0 7.322 17.678L2.56 47.44c-.944.944-.275 2.56 1.06 2.56H25c13.808 0 25-11.192 25-25S38.808 0 25 0"/><path fill="url(#a)" d="M39.171 30.602a5.838 5.838 0 1 0 0-11.676 5.838 5.838 0 0 0 0 11.676"/><path fill="url(#b)" d="M10.829 30.602a5.838 5.838 0 1 0 0-11.676 5.838 5.838 0 0 0 0 11.676"/><path fill="url(#c)" d="M25.014 42.278c9.205 0 16.667-5.597 16.667-12.5 0-6.904-7.462-12.5-16.667-12.5s-16.667 5.596-16.667 12.5c0 6.903 7.462 12.5 16.667 12.5"/><path fill="url(#d)" d="M20.088 28.583c-.097 2.102-1.502 2.866-3.139 2.866s-2.884-1.141-2.787-3.243 1.502-3.477 3.139-3.477 2.884 1.755 2.787 3.857z"/><path fill="url(#e)" d="M29.942 28.583c.097 2.102 1.502 2.866 3.139 2.866s2.884-1.141 2.787-3.243-1.502-3.477-3.139-3.477-2.884 1.755-2.787 3.857z"/><path fill="#ffc49c" d="M18.433 27.644c.358 0 .648-.317.648-.706 0-.39-.29-.706-.648-.706s-.648.316-.648.706.29.706.648.706M33.845 27.644c.358 0 .648-.317.648-.706 0-.39-.29-.706-.648-.706s-.648.316-.648.706.29.706.648.706"/><path fill="url(#f)" d="M25.014 33.083c-2.028 0-3.972.1-5.769.283a.46.46 0 0 0-.382.634 6.668 6.668 0 0 0 12.301 0 .46.46 0 0 0-.382-.634 57 57 0 0 0-5.768-.283"/><path fill="url(#g)" d="M34.141 15.579a4.137 4.137 0 1 0 0-8.273 4.137 4.137 0 0 0 0 8.273"/><path fill="url(#h)" d="M24.954 17.806c-.496 0-.896-.207-.896-.526a6.73 6.73 0 0 1 6.722-6.722.895.895 0 1 1 0 1.792 4.934 4.934 0 0 0-4.928 4.928c0 .32-.4.525-.896.525z"/><path fill="#842123" d="M14.542 28.391c.09-1.981 1.407-3.278 2.937-3.278 1.45 0 2.57 1.48 2.611 3.318.04-2.056-1.187-3.702-2.79-3.702-1.6 0-3.04 1.4-3.138 3.519-.097 2.118 1.15 3.201 2.787 3.201h.12c-1.49-.037-2.615-1.109-2.525-3.056zM35.486 28.391c-.09-1.981-1.407-3.278-2.937-3.278-1.45 0-2.57 1.48-2.611 3.318-.04-2.056 1.187-3.702 2.789-3.702 1.636 0 3.042 1.4 3.139 3.519.097 2.118-1.15 3.201-2.787 3.201h-.12c1.49-.037 2.615-1.109 2.525-3.056z"/><defs><radialGradient id="a" cx="0" cy="0" r="1" gradientTransform="matrix(11.8009 0 0 10.2668 39.294 21.26)" gradientUnits="userSpaceOnUse"><stop stop-color="#feffff"/><stop offset=".4" stop-color="#feffff"/><stop offset=".51" stop-color="#f9fcfc"/><stop offset=".62" stop-color="#edf3f5"/><stop offset=".7" stop-color="#dee9ec"/><stop offset=".72" stop-color="#d8e4e8"/><stop offset=".76" stop-color="#ccd8df"/><stop offset=".8" stop-color="#c8d5dd"/><stop offset=".83" stop-color="#ccd6de"/><stop offset=".85" stop-color="#d8dbe2"/><stop offset=".88" stop-color="#ede3e9"/><stop offset=".9" stop-color="#ffebef"/></radialGradient><radialGradient id="b" cx="0" cy="0" r="1" gradientTransform="matrix(11.8009 0 0 10.2668 10.951 2.795)" gradientUnits="userSpaceOnUse"><stop stop-color="#feffff"/><stop offset=".4" stop-color="#feffff"/><stop offset=".51" stop-color="#f9fcfc"/><stop offset=".62" stop-color="#edf3f5"/><stop offset=".7" stop-color="#dee9ec"/><stop offset=".72" stop-color="#d8e4e8"/><stop offset=".76" stop-color="#ccd8df"/><stop offset=".8" stop-color="#c8d5dd"/><stop offset=".83" stop-color="#ccd6de"/><stop offset=".85" stop-color="#d8dbe2"/><stop offset=".88" stop-color="#ede3e9"/><stop offset=".9" stop-color="#ffebef"/></radialGradient><radialGradient id="c" cx="0" cy="0" r="1" gradientTransform="matrix(35.5972 0 0 24.9181 25.373 19.785)" gradientUnits="userSpaceOnUse"><stop stop-color="#feffff"/><stop offset=".4" stop-color="#feffff"/><stop offset=".51" stop-color="#f9fcfc"/><stop offset=".62" stop-color="#edf3f5"/><stop offset=".7" stop-color="#dee9ec"/><stop offset=".72" stop-color="#d8e4e8"/><stop offset=".76" stop-color="#ccd8df"/><stop offset=".8" stop-color="#c8d5dd"/><stop offset=".83" stop-color="#ccd6de"/><stop offset=".85" stop-color="#d8dbe2"/><stop offset=".88" stop-color="#ede3e9"/><stop offset=".9" stop-color="#ffebef"/></radialGradient><radialGradient id="d" cx="0" cy="0" r="1" gradientTransform="matrix(3.18275 0 0 4.61053 17.28 29.517)" gradientUnits="userSpaceOnUse"><stop stop-color="#f60"/><stop offset=".5" stop-color="#ff4500"/><stop offset=".7" stop-color="#fc4301"/><stop offset=".82" stop-color="#f43f07"/><stop offset=".92" stop-color="#e53812"/><stop offset="1" stop-color="#d4301f"/></radialGradient><radialGradient id="e" cx="0" cy="0" r="1" gradientTransform="matrix(-3.18275 0 0 -4.61053 32.77 29.517)" gradientUnits="userSpaceOnUse"><stop stop-color="#f60"/><stop offset=".5" stop-color="#ff4500"/><stop offset=".7" stop-color="#fc4301"/><stop offset=".82" stop-color="#f43f07"/><stop offset=".92" stop-color="#e53812"/><stop offset="1" stop-color="#d4301f"/></radialGradient><radialGradient id="f" cx="0" cy="0" r="1" gradientTransform="matrix(10.4861 0 0 6.92084 24.984 38.795)" gradientUnits="userSpaceOnUse"><stop stop-color="#172e35"/><stop offset=".29" stop-color="#0e1c21"/><stop offset=".73" stop-color="#030708"/><stop offset="1"/></radialGradient><radialGradient id="g" cx="0" cy="0" r="1" gradientTransform="matrix(9.20602 0 0 9.0219 34.231 7.598)" gradientUnits="userSpaceOnUse"><stop stop-color="#feffff"/><stop offset=".4" stop-color="#feffff"/><stop offset=".51" stop-color="#f9fcfc"/><stop offset=".62" stop-color="#edf3f5"/><stop offset=".7" stop-color="#dee9ec"/><stop offset=".72" stop-color="#d8e4e8"/><stop offset=".76" stop-color="#ccd8df"/><stop offset=".8" stop-color="#c8d5dd"/><stop offset=".83" stop-color="#ccd6de"/><stop offset=".85" stop-color="#d8dbe2"/><stop offset=".88" stop-color="#ede3e9"/><stop offset=".9" stop-color="#ffebef"/></radialGradient><radialGradient id="h" cx="0" cy="0" r="1" gradientTransform="translate(30.396 16.917)scale(7.5463)" gradientUnits="userSpaceOnUse"><stop offset=".48" stop-color="#7a9299"/><stop offset=".67" stop-color="#172e35"/><stop offset=".75"/><stop offset=".82" stop-color="#172e35"/></radialGradient></defs></svg>