<svg xmlns="http://www.w3.org/2000/svg" width="50" height="50" fill="none" viewBox="0 0 50 50"><path fill="#cf649a" d="M43.042 27.82c-1.748.01-3.262.436-4.531 1.07-.469-.94-.938-1.762-1.016-2.376-.088-.713-.195-1.15-.088-2 .108-.852.596-2.06.596-2.16-.01-.088-.108-.524-1.114-.534-1.005-.01-1.875.198-1.972.465-.098.268-.293.882-.42 1.515-.176.931-2.012 4.229-3.057 5.962-.342-.674-.635-1.268-.694-1.743-.087-.713-.195-1.149-.087-2 .107-.852.595-2.06.595-2.16-.01-.088-.107-.524-1.113-.534s-1.875.198-1.973.465c-.098.268-.205.902-.42 1.515-.205.614-2.647 6.12-3.281 7.556a31 31 0 0 1-.811 1.713c-.205.396-.01.03-.03.07l-.273.524v.01c-.137.248-.283.485-.351.485-.05 0-.147-.663.02-1.574.36-1.911 1.24-4.892 1.23-5 0-.05.166-.575-.567-.842-.713-.268-.967.178-1.025.178-.059 0-.108.158-.108.158s.791-3.357-1.514-3.357c-1.445 0-3.437 1.595-4.424 3.05-.625.347-1.953 1.08-3.36 1.862-.537.297-1.093.614-1.62.9l-.108-.118c-2.793-3.02-7.96-5.159-7.745-9.219.078-1.475.586-5.367 9.923-10.08 7.647-3.862 13.77-2.803 14.835-.446 1.514 3.367-3.272 9.625-11.222 10.526-3.027.347-4.619-.842-5.02-1.287-.42-.466-.478-.486-.634-.396-.254.138-.098.554 0 .802.234.624 1.21 1.733 2.871 2.287 1.455.485 5.01.753 9.308-.93 4.814-1.892 8.575-7.14 7.47-11.527C30.19 6.184 22.885 4.72 15.98 7.204c-4.111 1.485-8.565 3.803-11.768 6.843C.402 17.65-.204 20.8.05 22.107c.888 4.664 7.227 7.704 9.766 9.952-.127.07-.244.139-.352.198-1.27.634-6.104 3.198-7.315 5.912-1.367 3.07.215 5.278 1.27 5.575 3.262.92 6.602-.733 8.409-3.456 1.797-2.723 1.582-6.259.752-7.873l-.03-.06.997-.593c.644-.386 1.279-.743 1.836-1.05-.313.862-.537 1.882-.655 3.367-.136 1.743.567 4 1.495 4.892.41.386.898.396 1.2.396 1.075 0 1.564-.901 2.1-1.98.665-1.318 1.25-2.843 1.25-2.843s-.732 4.13 1.27 4.13c.733 0 1.465-.96 1.797-1.456v.01s.02-.03.06-.1c.077-.118.116-.187.116-.187v-.02a79 79 0 0 0 1.924-3.644c1.26-2.515 2.471-5.664 2.471-5.664s.117.772.479 2.04c.215.752.683 1.574 1.045 2.376-.293.416-.469.654-.469.654l.01.01c-.235.317-.498.653-.772.99-.996 1.208-2.187 2.584-2.344 2.98-.185.466-.146.812.215 1.09.264.198.733.237 1.23.198.9-.06 1.524-.287 1.837-.426a6.3 6.3 0 0 0 1.582-.842c.977-.733 1.572-1.772 1.514-3.159-.03-.762-.274-1.515-.576-2.228.087-.128.175-.257.263-.396 1.543-2.287 2.735-4.802 2.735-4.802s.117.772.478 2.04c.186.643.557 1.346.89 2.04-1.446 1.198-2.355 2.584-2.667 3.495-.576 1.683-.127 2.446.723 2.624.38.08.927-.099 1.338-.277a6 6 0 0 0 1.69-.882c.976-.732 1.913-1.752 1.865-3.129-.03-.633-.196-1.257-.42-1.851 1.23-.515 2.822-.812 4.844-.565 4.346.515 5.205 3.268 5.04 4.417-.167 1.148-1.075 1.782-1.378 1.98-.303.188-.4.258-.37.396.038.208.175.198.439.159.361-.06 2.285-.941 2.363-3.06.117-2.723-2.432-5.694-6.954-5.664M9.524 39.279c-1.436 1.594-3.457 2.198-4.317 1.683-.928-.545-.566-2.891 1.201-4.585 1.075-1.03 2.471-1.98 3.39-2.564.204-.13.517-.317.888-.545.059-.04.098-.06.098-.06.068-.04.146-.089.224-.138.655 2.416.03 4.535-1.484 6.209m10.499-7.239c-.498 1.238-1.553 4.416-2.188 4.238-.547-.148-.879-2.555-.107-4.931.39-1.198 1.22-2.624 1.709-3.179.79-.891 1.65-1.188 1.865-.822.254.476-.967 3.922-1.28 4.694m8.663 4.199c-.215.109-.41.188-.498.128-.069-.04.088-.188.088-.188S29.36 35 29.789 34.455c.244-.317.537-.683.85-1.099v.119c0 1.426-1.348 2.376-1.953 2.763m6.68-1.545c-.156-.119-.137-.485.39-1.634.206-.456.675-1.218 1.485-1.94.098.296.156.583.147.85-.01 1.783-1.26 2.447-2.022 2.724"/></svg>