<svg xmlns="http://www.w3.org/2000/svg" width="50" height="50" fill="none" viewBox="0 0 50 50"><g clip-path="url(#a)"><path fill="#e2dbd5" d="M20.313 7.031H4.688V1.563A1.56 1.56 0 0 1 6.25 0h12.5a1.563 1.563 0 0 1 1.563 1.563z"/><path fill="#d4ccc7" d="M20.329 5.469h-6.267V50h10.97V14.063z"/><path fill="#c6bab3" d="M14.063 5.469h6.266V50h-6.267z"/><path fill="#e2dbd5" d="m16.563 12.5-.938 1.563V50H1.563A1.563 1.563 0 0 1 0 48.438V14.063A3.22 3.22 0 0 1 2.76 12.5z"/><path fill="#ffead2" d="M39.844 0h-9.375a.78.78 0 0 0-.782.781v6.25c0 .432.35.782.782.782h9.375c.431 0 .781-.35.781-.782V.781A.78.78 0 0 0 39.844 0"/><path fill="#faddc3" d="M39.844 0H37.5a8.59 8.59 0 0 1-5.01 7.813h7.354a.78.78 0 0 0 .781-.782V.781A.78.78 0 0 0 39.844 0"/><path fill="#f5d3b8" d="M29.688 2.344h10.937v1.562H29.688z"/><path fill="#f09b73" d="M42.969 50H27.344a.78.78 0 0 1-.782-.781V19.53a8.64 8.64 0 0 1 3.374-6.826c1.596-1.221-1.811-2.423-1.811-4.225a2.233 2.233 0 0 1 2.23-2.23h9.603a2.233 2.233 0 0 1 2.23 2.23c0 .99-1.081 1.894-1.081 1.894-.865.725-1.503 1.74-.73 2.33a8.64 8.64 0 0 1 3.373 6.827V49.22a.78.78 0 0 1-.781.781"/><path fill="#e58b6c" d="M26.563 30.41v18.809a.78.78 0 0 0 .78.781H42.97a.78.78 0 0 0 .781-.781V19.53a8.5 8.5 0 0 0-.103-1.31A20.32 20.32 0 0 1 26.563 30.41"/><path fill="#efebe8" d="M15.625 14.063H0l4.688-8.594h15.625z"/><path fill="#eed60f" d="M27.344 50c5.322 0 12.155-1.103 15.388-4.22a.77.77 0 0 0 .185-.834l-6.4-16.479a.783.783 0 0 0-.934-.469c-2.155.578-2.52-2.18-1.121-2.877a.77.77 0 0 0 .378-.97l-1.298-3.342a.78.78 0 0 0-.73-.497h-5.468z"/><path fill="#f8e868" d="M27.344 50a14.2 14.2 0 0 1-9.92-3.997.78.78 0 0 1-.184-.84l.955-2.482a.78.78 0 0 1 .682-.5c1.163-.07 1.944-1.666 1.009-2.628a.78.78 0 0 1-.169-.825l2.524-6.557a.787.787 0 0 1 1.15-.377c1.952 1.245 3.318-2.499 1.105-2.863a.788.788 0 0 1-.602-1.051l2.72-7.067a.781.781 0 0 1 1.459 0l9.375 24.35a.78.78 0 0 1-.185.84A14.2 14.2 0 0 1 27.343 50"/><path fill="#f6e23d" d="M37.448 45.162 33.404 34.66a19.54 19.54 0 0 1-15.973 11.35 14.31 14.31 0 0 0 19.832-.006.78.78 0 0 0 .185-.84"/><path fill="#f8e868" d="M30.469 44.531a2.344 2.344 0 1 0 0-4.687 2.344 2.344 0 0 0 0 4.687"/><path fill="#f6e23d" d="M28.125 39.063a2.344 2.344 0 1 0 0-4.688 2.344 2.344 0 0 0 0 4.688"/><path fill="#f8e868" d="M24.219 46.094a2.344 2.344 0 1 0 0-4.688 2.344 2.344 0 0 0 0 4.688"/><path fill="#eed60f" d="M29.688 43.75a2.343 2.343 0 0 1 3.024-2.243 2.344 2.344 0 1 0-2.924 2.923 2.3 2.3 0 0 1-.1-.68m-2.344-5.469a2.344 2.344 0 0 1 3.024-2.242 2.343 2.343 0 1 0-2.923 2.922 2.3 2.3 0 0 1-.101-.68m-3.907 7.032a2.343 2.343 0 0 1 3.024-2.243 2.344 2.344 0 1 0-2.922 2.923 2.3 2.3 0 0 1-.102-.68"/><path fill="#fcf5be" d="M27.344 28.906a1.562 1.562 0 1 0 0-3.125 1.562 1.562 0 0 0 0 3.125M28.906 31.25a.781.781 0 1 0 0-1.563.781.781 0 0 0 0 1.563"/><path fill="#81c784" d="m32.816 32.031 1.562 17.258a.78.78 0 0 0 .778.711h10.938a.78.78 0 0 0 .778-.71l1.562-17.259z"/><path fill="#f2bba5" d="M34.766 16.406a1.953 1.953 0 1 0 0-3.906 1.953 1.953 0 0 0 0 3.906M37.89 18.75a1.172 1.172 0 1 0 0-2.344 1.172 1.172 0 0 0 0 2.344"/><path fill="#fff" d="M6.25 10.938a1.563 1.563 0 1 0 0-3.126 1.563 1.563 0 0 0 0 3.125M8.594 12.5a.781.781 0 1 0 0-1.563.781.781 0 0 0 0 1.563"/><path fill="#c8e6c9" d="M36.719 37.5a1.562 1.562 0 1 0 0-3.125 1.562 1.562 0 0 0 0 3.125M39.063 39.063a.781.781 0 1 0 0-1.563.781.781 0 0 0 0 1.563"/><path fill="#d4ccc7" d="M0 48.438A1.563 1.563 0 0 0 1.563 50h14.062v-7.812C12.93 48.355 0 48.438 0 48.438"/><path fill="#ea6049" d="M0 20.313h15.625v21.875H0z"/><path fill="#de513e" d="M0 36.356v5.831h15.625V23.604A21.13 21.13 0 0 1 0 36.356"/><path fill="#fff" d="M3.125 32.813C3.125 30.518 7.031 25 7.813 25c.78 0 4.687 5.409 4.687 7.813 0 5.607-9.375 6.435-9.375 0"/><path fill="#efebe8" d="M3.524 34.882c1.789 4.086 8.976 2.84 8.976-2.07 0-.548-.204-1.253-.527-2.015-1.296 3.193-5.017 5.085-8.449 4.085"/><path fill="#49ad4d" d="M49.219 32.813H32.03a.781.781 0 1 1 0-1.563H49.22a.781.781 0 1 1 0 1.563"/><path fill="#66bb6a" d="m33.984 44.936.395 4.353a.78.78 0 0 0 .777.711h10.938a.78.78 0 0 0 .778-.71l1.206-13.326a16.8 16.8 0 0 1-14.094 8.972"/></g><defs><clipPath id="a"><path fill="#fff" d="M0 0h50v50H0z"/></clipPath></defs></svg>