<svg xmlns="http://www.w3.org/2000/svg" width="50" height="50" fill="none" viewBox="0 0 50 50"><path fill="#65ddb9" fill-rule="evenodd" d="M49.167 13.158c-2.134 0-2.134 1.579-4.267 1.579s-2.133-1.58-4.275-1.58-2.133 1.58-4.267 1.58c-2.133 0-2.133-1.58-4.266-1.58s-2.134 1.58-4.267 1.58-4.05-1.745-5.925-2.51a15.9 15.9 0 0 0-6.067-1.437c-8.284 0-15 6.362-15 14.21s6.716 14.21 15 14.21a15.9 15.9 0 0 0 6.067-1.436c1.875-.766 3.8-2.51 5.925-2.51s2.133 1.578 4.267 1.578c2.133 0 2.133-1.579 4.266-1.579s2.134 1.58 4.267 1.58 2.142-1.58 4.275-1.58 2.133 1.58 4.267 1.58z" clip-rule="evenodd"/><path fill="#46b29d" fill-rule="evenodd" d="M15.833 40C7.09 40 0 33.284 0 25s7.09-15 15.833-15c2.22.077 4.399.587 6.4 1.5q1.051.463 2.026 1.058c1.177.684 2.393 1.39 3.566 1.39a2.35 2.35 0 0 0 1.62-.623 4.1 4.1 0 0 1 2.647-.957 4.1 4.1 0 0 1 2.646.957 2.4 2.4 0 0 0 1.62.622c.606 0 1.187-.223 1.621-.622a4.1 4.1 0 0 1 2.65-.957c.978 0 1.922.34 2.651.957a2.4 2.4 0 0 0 1.62.622c.605 0 1.187-.223 1.62-.622a4 4 0 0 1 2.647-.957c.22 0 .433.084.589.232a.77.77 0 0 1 .244.558c0 .21-.088.41-.244.558a.86.86 0 0 1-.59.231c-.3-.002-.597.052-.875.158a2.3 2.3 0 0 0-.744.464 4.1 4.1 0 0 1-2.646.956c-.976 0-1.918-.34-2.646-.956a2.4 2.4 0 0 0-1.625-.624c-.607 0-1.19.224-1.625.624a4.1 4.1 0 0 1-2.646.957 4.1 4.1 0 0 1-2.647-.957 2.4 2.4 0 0 0-1.62-.622c-.605 0-1.187.223-1.621.623a4 4 0 0 1-2.646.956c-1.642 0-3.126-.86-4.436-1.619a15 15 0 0 0-1.818-.956 15.3 15.3 0 0 0-5.738-1.372C8.01 11.579 1.667 17.588 1.667 25s6.342 13.421 14.166 13.421a15.3 15.3 0 0 0 5.735-1.371q.946-.42 1.821-.957c1.31-.759 2.794-1.62 4.436-1.62a4 4 0 0 1 2.646.958c.434.399 1.016.622 1.62.622.606 0 1.187-.223 1.621-.622a4.1 4.1 0 0 1 2.647-.957 4.1 4.1 0 0 1 2.646.957c.435.4 1.018.624 1.625.624s1.19-.224 1.625-.624a4.1 4.1 0 0 1 2.646-.956c.976 0 1.918.34 2.646.956a2.35 2.35 0 0 0 1.62.622c.22 0 .433.083.589.23a.77.77 0 0 1 .244.56c0 .208-.088.41-.244.557a.86.86 0 0 1-.59.232 4 4 0 0 1-2.645-.957 2.4 2.4 0 0 0-1.62-.622c-.606 0-1.187.223-1.621.622a4.1 4.1 0 0 1-2.65.957 4.1 4.1 0 0 1-2.65-.957 2.4 2.4 0 0 0-1.621-.622c-.605 0-1.186.223-1.62.622a4.1 4.1 0 0 1-2.647.957 4.1 4.1 0 0 1-2.646-.957 2.35 2.35 0 0 0-1.621-.622c-1.172 0-2.39.705-3.566 1.387q-.976.597-2.029 1.06c-2 .913-4.178 1.423-6.397 1.5" clip-rule="evenodd"/><path fill="#955ba5" fill-rule="evenodd" d="M22.678 16.884a1.7 1.7 0 0 0-.69-.296 1.74 1.74 0 0 0-.759.028l-7.5 1.937c-.353.091-.664.29-.887.565a1.53 1.53 0 0 0-.342.959v8.536a4.8 4.8 0 0 0-2.083-.455c-2.103 0-3.75 1.213-3.75 2.763s1.647 2.763 3.75 2.763 3.75-1.213 3.75-2.763v-6.897l7.5-1.938v4.948a4.8 4.8 0 0 0-2.084-.455c-2.102 0-3.75 1.213-3.75 2.763s1.648 2.763 3.75 2.763 3.75-1.213 3.75-2.763V18.14a1.5 1.5 0 0 0-.171-.701 1.6 1.6 0 0 0-.484-.555" clip-rule="evenodd"/><path fill="#e57e25" fill-rule="evenodd" d="M30.85 32.105a.86.86 0 0 1-.59-.231.77.77 0 0 1-.243-.558V18.684c0-.21.087-.41.244-.558a.86.86 0 0 1 .589-.231c.221 0 .433.083.59.231a.77.77 0 0 1 .243.558v12.632c0 .21-.087.41-.244.558a.86.86 0 0 1-.589.231m-3.333-3.947a.86.86 0 0 1-.59-.231.77.77 0 0 1-.244-.559v-4.736c0-.21.088-.41.244-.559a.86.86 0 0 1 .59-.23c.22 0 .433.082.589.23a.77.77 0 0 1 .244.559v4.736a.77.77 0 0 1-.244.559.86.86 0 0 1-.59.23m6.666.79a.86.86 0 0 1-.589-.232.77.77 0 0 1-.244-.558v-6.316c0-.21.088-.41.244-.558a.86.86 0 0 1 .59-.231c.22 0 .432.083.589.23a.77.77 0 0 1 .244.56v6.315c0 .21-.088.41-.244.558a.86.86 0 0 1-.59.231m3.334.789a.86.86 0 0 1-.59-.231.77.77 0 0 1-.244-.559v-7.894c0-.21.088-.41.244-.559a.86.86 0 0 1 .59-.23c.22 0 .433.082.589.23a.77.77 0 0 1 .244.559v7.894c0 .21-.088.41-.244.559a.86.86 0 0 1-.59.23m3.333 3.947a.86.86 0 0 1-.59-.231.77.77 0 0 1-.243-.558v-15.79c0-.21.087-.41.244-.558a.86.86 0 0 1 .589-.231c.221 0 .433.083.59.231a.77.77 0 0 1 .243.558v15.79a.77.77 0 0 1-.244.558.86.86 0 0 1-.589.231m3.333-2.368a.86.86 0 0 1-.589-.231.77.77 0 0 1-.244-.559V19.474c0-.21.088-.41.244-.559a.86.86 0 0 1 .59-.23c.22 0 .432.082.589.23a.77.77 0 0 1 .244.559v11.052a.77.77 0 0 1-.244.559.86.86 0 0 1-.59.23m3.334-3.158a.86.86 0 0 1-.59-.231.77.77 0 0 1-.244-.559v-4.736c0-.21.088-.41.244-.559a.86.86 0 0 1 .59-.23c.22 0 .433.082.589.23a.77.77 0 0 1 .244.559v4.736a.77.77 0 0 1-.244.559.86.86 0 0 1-.59.23" clip-rule="evenodd"/></svg>