<svg xmlns="http://www.w3.org/2000/svg" width="50" height="50" fill="none" viewBox="0 0 50 50"><path fill="url(#a)" d="M46.553 44H13.409a1.59 1.59 0 0 1-1.588-1.598V10.258c0-2.352 1.894-4.258 4.23-4.258H45.77C48.106 6 50 7.906 50 10.258V40.53C50 42.447 48.457 44 46.553 44"/><path fill="url(#b)" d="M13.409 44h33.144C48.457 44 50 42.447 50 40.53V13.076l-3.296-3.318a2.92 2.92 0 0 0-2.19-.985H12.087a4.3 4.3 0 0 0-.266 1.486v32.145c0 .882.711 1.597 1.588 1.597"/><path fill="url(#c)" d="M13.613 9.109a4.42 4.42 0 0 0 4.208 3.095h11.72q-.23-.001-.46-.025l-4.758-4.786a4.4 4.4 0 0 0-3.197-1.38h-4.989c-1.348 0-2.555.61-3.365 1.569.378.448.664.967.84 1.527"/><path fill="url(#d)" d="M44.514 44H5.889a2.95 2.95 0 0 1-2.94-2.959V11.73A2.95 2.95 0 0 1 5.89 8.77h38.625a2.95 2.95 0 0 1 2.94 2.959V41.04A2.95 2.95 0 0 1 44.513 44"/><path fill="url(#e)" d="M43.362 13.598a4.4 4.4 0 0 0-3.21-1.394H2.949V41.04A2.95 2.95 0 0 0 5.89 44h38.625a2.95 2.95 0 0 0 2.94-2.959V17.716z"/><path fill="url(#f)" d="M13.613 9.109a4.42 4.42 0 0 0 4.208 3.095h11.72a4 4 0 0 1-.46-.025L25.695 8.77H13.49q.067.165.123.338"/><path fill="url(#g)" d="M29.913 13.324v-1.12h-.371a4.42 4.42 0 0 1-4.208-3.095 4.42 4.42 0 0 0-4.208-3.096h-4.989c-2.439 0-4.416 1.99-4.416 4.445v2.866z"/><path fill="url(#h)" d="M13.613 9.109a4.42 4.42 0 0 0-4.208-3.096H4.416C1.977 6.013 0 8.003 0 10.458V39.61C0 42.035 1.953 44 4.361 44h41.413a1.21 1.21 0 0 1-1.206-1.214V16.648c0-2.454-1.977-4.444-4.416-4.444H17.821a4.42 4.42 0 0 1-4.208-3.095"/><path fill="url(#i)" d="M41.195 28.866h-1.59c-.648.027-.827-.905-1.159-1.455l-.991 7.009a.68.68 0 0 1-.228.41.704.704 0 0 1-.892.023.68.68 0 0 1-.25-.397l-1.19-6.019-.68 2.968a.7.7 0 0 1-.23.361.705.705 0 0 1-1.099-.273l-.729-1.929-1.247 2.042a.71.71 0 0 1-1.102.105.7.7 0 0 1-.183-.371l-.787-6.088-1.645 6.175a.7.7 0 0 1-.234.357.7.7 0 0 1-.403.152.7.7 0 0 1-.42-.108.67.67 0 0 1-.266-.337l-1.345-3.584-1.4 6.56a.68.68 0 0 1-.255.39.704.704 0 0 1-.888-.03.68.68 0 0 1-.225-.408l-1.169-8.366-.592 2.532a.68.68 0 0 1-.244.381.7.7 0 0 1-.433.149h-2.672l-1.159 2.43a.7.7 0 0 1-.296.3.71.71 0 0 1-.804-.1.7.7 0 0 1-.21-.363l-1.406-7.231-2.207 4.338a.704.704 0 0 1-1.251-.02l-.857-1.83-1.027 1.869a.69.69 0 0 1-.61.358H3.693a.7.7 0 0 1-.49-.2.677.677 0 0 1 0-.965.7.7 0 0 1 .49-.2h2.71l1.492-2.714a.704.704 0 0 1 1.242.04l.833 1.779 2.478-4.87a.7.7 0 0 1 .299-.293.71.71 0 0 1 .796.109.7.7 0 0 1 .207.36l1.389 7.147c.245-.41.428-1.345 1.066-1.31h2.56l1.318-5.636a.68.68 0 0 1 .26-.384.705.705 0 0 1 .88.04.68.68 0 0 1 .224.404l1.14 8.159 1.073-5.027a.7.7 0 0 1 .226-.367.704.704 0 0 1 1.105.271l1.416 3.773 1.994-7.488c.044-.15.14-.28.27-.37a.71.71 0 0 1 .871.056.68.68 0 0 1 .22.401l.987 7.633.96-1.569a.705.705 0 0 1 .66-.329c.658.04.73.976 1.003 1.546l.894-3.9a.68.68 0 0 1 .25-.382.704.704 0 0 1 .871.013c.122.1.206.237.238.39l1.028 5.19.728-5.155a.7.7 0 0 1 .196-.378.7.7 0 0 1 .809-.128c.131.065.238.17.306.298l1.346 2.69h1.156a.7.7 0 0 1 .49.2.676.676 0 0 1 0 .965.7.7 0 0 1-.49.2"/><defs><linearGradient id="a" x1="39.566" x2="30.489" y1="1.947" y2="26.15" gradientUnits="userSpaceOnUse"><stop stop-color="#ffd00d"/><stop offset=".238" stop-color="#ffcb0e"/><stop offset=".535" stop-color="#fb1"/><stop offset=".863" stop-color="#ffa215"/><stop offset="1" stop-color="#ff9517"/></linearGradient><linearGradient id="b" x1="40.131" x2="23.664" y1="37.346" y2="20.984" gradientUnits="userSpaceOnUse"><stop stop-color="#ff9517" stop-opacity="0"/><stop offset=".307" stop-color="#ee8421" stop-opacity=".306"/><stop offset=".678" stop-color="#e07728" stop-opacity=".678"/><stop offset="1" stop-color="#db722b"/></linearGradient><linearGradient id="c" x1="27.571" x2="14.78" y1="17.039" y2="4.33" gradientUnits="userSpaceOnUse"><stop stop-color="#ff9517" stop-opacity="0"/><stop offset=".307" stop-color="#ee8421" stop-opacity=".306"/><stop offset=".678" stop-color="#e07728" stop-opacity=".678"/><stop offset="1" stop-color="#db722b"/></linearGradient><linearGradient id="d" x1="25.201" x2="25.201" y1="-3.76" y2="44.372" gradientUnits="userSpaceOnUse"><stop stop-color="#fffcf8"/><stop offset=".188" stop-color="#faf8f6"/><stop offset=".404" stop-color="#eceef2"/><stop offset=".635" stop-color="#d5dcea"/><stop offset=".875" stop-color="#b5c4df"/><stop offset="1" stop-color="#a1b5d8"/></linearGradient><linearGradient id="e" x1="47.153" x2="34.702" y1="30.394" y2="29.225" gradientUnits="userSpaceOnUse"><stop stop-color="#a1b5d8" stop-opacity="0"/><stop offset=".67" stop-color="#8190a4" stop-opacity=".671"/><stop offset="1" stop-color="#748290"/></linearGradient><linearGradient id="f" x1="27.444" x2="15.802" y1="16.911" y2="5.343" gradientUnits="userSpaceOnUse"><stop stop-color="#a1b5d8" stop-opacity="0"/><stop offset=".67" stop-color="#8190a4" stop-opacity=".671"/><stop offset="1" stop-color="#748290"/></linearGradient><linearGradient id="g" x1="20.817" x2="20.817" y1="7.014" y2="12.179" gradientUnits="userSpaceOnUse"><stop stop-color="#ff4974"/><stop offset=".228" stop-color="#fd4571"/><stop offset=".466" stop-color="#f93867"/><stop offset=".71" stop-color="#f12358"/><stop offset=".955" stop-color="#e60642"/><stop offset="1" stop-color="#e4003d"/></linearGradient><linearGradient id="h" x1="22.887" x2="22.887" y1="25.406" y2="46.153" gradientUnits="userSpaceOnUse"><stop stop-color="#ffd00d"/><stop offset=".238" stop-color="#ffc800"/><stop offset=".535" stop-color="#fb1"/><stop offset=".863" stop-color="#ffa215"/><stop offset="1" stop-color="#ff9517"/></linearGradient><linearGradient id="i" x1="3.011" x2="41.879" y1="28" y2="28" gradientUnits="userSpaceOnUse"><stop stop-color="#ffa68d"/><stop offset="1" stop-color="#fd3a84"/></linearGradient></defs></svg>