<svg xmlns="http://www.w3.org/2000/svg" width="50" height="50" fill="none" viewBox="0 0 50 50"><path fill="#b71c1c" d="M25 49.859C11.193 49.859 0 38.729 0 25c0 13.807 11.193 25 25 25s25-11.193 25-25c0 13.73-11.193 24.859-25 24.859" opacity=".2"/><path fill="#fff" d="M25 .141C38.807.141 50 11.271 50 25 50 11.193 38.807 0 25 0S0 11.193 0 25C0 11.27 11.193.141 25 .141" opacity=".2"/><path fill="#f44336" d="M25 49.859c13.807 0 25-11.13 25-24.859S38.807.141 25 .141 0 11.271 0 25s11.193 24.859 25 24.859"/><path fill="url(#a)" d="M40.832 16.107s-4.37 5.487-9.8 9.81c-1.56 1.243-3.22 2.43-4.907 3.426.451 1.352 1.4 2.836 2.565 3.959q.107.109.216.215c.071.073 11.272 11.207 11.288 11.224 5.75-4.383 9.53-11.192 9.79-18.889l.007-.383"/><path fill="url(#b)" d="M24.091 29.558q-.12-.072-.24-.145l.024-.07c-1.687-.996-3.346-2.183-4.907-3.425a62 62 0 0 1-1.789-1.484l-.087-.102-.003.024-.027-.023c-.122-.14-.186-.216-.186-.216l-.004.031-.212-.245-.004.03c-.139-.158-.212-.245-.212-.245l-.005.03-.212-.245-.004.031-.212-.246-.004.031c-.138-.158-.212-.246-.212-.246l-.004.031-.212-.246-.005.032-.212-.246-.004.03-.212-.245-.004.031-.212-.246-.004.031-.212-.246-.004.031-.213-.245-.004.03-.212-.245-.004.03-.212-.245-.004.031-.212-.246-.004.031c-.138-.158-.212-.246-.212-.246l-.004.032-.213-.246-.004.03-.212-.245-.004.03-.212-.245-.004.031-.212-.246-.004.031-.212-.245-.005.03-.212-.245-.004.03-.212-.245-.004.03-.212-.245-.004.031c-.138-.158-.212-.246-.212-.246l-.004.031-.212-.245-.004.03-.212-.245-.004.03-.212-.245-.004.031-.212-.246-.004.031c-.138-.158-.212-.246-.212-.246l-.004.031-.212-.245-.004.03-.212-.245-.004.03-.212-.245-.004.031-.212-.246-.004.031-.212-.246-.004.031-.212-.245s-.254 1.854-.26 4.392c-.003 1.487.079 3.208.346 4.93.436 2.759 1.367 5.516 3.223 7.278.07.073 16.351 16.263 16.425 16.333l.003.003a24.94 24.94 0 0 0 10.624-4.405c-.015-.013-15.589-15.55-15.58-15.573"/><path stroke="#212121" stroke-miterlimit="10" stroke-width="2" d="M18.968 25.918c-5.43-4.324-9.656-9.322-9.656-9.322s-.254 1.854-.26 4.393c.01-2.462.26-4.252.26-4.252s4.226 4.922 9.656 9.18Z"/><path fill="#fff" stroke="#000" stroke-miterlimit="10" stroke-width="2" d="M17.67 35.099c2.575 0 5.328-3.129 6.205-5.755-1.687-.997-3.346-2.184-4.907-3.426-5.43-4.259-9.656-9.18-9.656-9.18s-.25 1.79-.26 4.251c-.003 1.487.078 3.207.346 4.93.725 4.59 2.815 9.18 8.272 9.18Z"/><path stroke="#212121" stroke-miterlimit="10" stroke-width="2" d="M40.688 16.737s.25 1.79.26 4.252c-.006-2.538-.26-4.393-.26-4.393s-4.226 4.997-9.656 9.322c5.43-4.259 9.656-9.18 9.656-9.18Z"/><path fill="#fff" stroke="#000" stroke-miterlimit="10" stroke-width="2" d="M40.688 16.737s-4.226 4.922-9.656 9.18c-1.56 1.243-3.22 2.43-4.907 3.426.877 2.627 3.63 5.756 6.205 5.756 5.457 0 7.547-4.59 8.272-9.18.268-1.722.35-3.443.346-4.93-.01-2.462-.26-4.252-.26-4.252Z"/><defs><linearGradient id="a" x1="32.775" x2="47.621" y1="22.731" y2="37.66" gradientUnits="userSpaceOnUse"><stop stop-color="#212121" stop-opacity=".2"/><stop offset="1" stop-color="#212121" stop-opacity="0"/></linearGradient><linearGradient id="b" x1="6.4" x2="35.76" y1="19.491" y2="49.018" gradientUnits="userSpaceOnUse"><stop stop-color="#212121" stop-opacity=".2"/><stop offset="1" stop-color="#212121" stop-opacity="0"/></linearGradient></defs></svg>