<svg xmlns="http://www.w3.org/2000/svg" width="50" height="50" fill="none" viewBox="0 0 50 50"><path fill="red" d="M3.447 26.856a11.5 11.5 0 0 1-1.748.14q-.84 0-1.699-.14l.103-.352a10 10 0 0 0 1.713.159q.556 0 1.236-.087l.092-.326H.176l.273-.948q.913-.14 1.753-.14t1.694.14l-.102.352a10 10 0 0 0-1.71-.155q-.556 0-1.234.083l-.093.316h2.968zm1.687-.966H6.14q.87 0 1.49-.032l.077-.273a9.5 9.5 0 0 0-1.245-.086q-.557 0-1.235.083zm-1.177 0h.699l.17-.588q.914-.14 1.753-.14.84 0 1.695.14l-.103.352h-.005l-.146.506q-1.03.082-1.978.082H5.036l-.22.75h-.478l.22-.75H3.86zm5.423-.728h.479l-.532 1.83h-.479zm4.247 1.41.284-.987a9.5 9.5 0 0 0-1.25-.086q-.122 0-.845-.014l-.361-.008-.342 1.175h-.479l1.758.003q.557 0 1.235-.082m.396.28q-.908.14-1.748.14h-1.738l.532-1.83h1.709q.84 0 1.694.14zm.871-.962h.913l.132-.456h.005l.063-.211a24 24 0 0 1 1.865-.061q1.065 0 1.758.064l-.102.356a19 19 0 0 0-1.914-.094q-.665 0-1.226.047l-.103.355h2.369l-.098.352h-2.368l-.107.36q.55.046 1.21.046.972 0 1.934-.093l-.103.355q-.732.083-1.782.083-1.099 0-1.821-.083l.073-.247h-.005l.122-.42h-.913zm8.643.259q.206.069.307.133l-.205.71h-.478l.161-.549q-.541-.186-1.299-.194l-1.128-.01-.22.754h-.478l.488-1.691q.914-.14 1.753-.14.84 0 1.694.14l-.102.352h-.005l-.132.466zm-2.54-.262 1.358.003q.42 0 1.143-.068l.068-.237a9.5 9.5 0 0 0-1.245-.086q-.557 0-1.235.083zm4.553-.007h2.564l-.171.273h-2.564zm5.845-.88h.478l-.049.165q.718.018 1.446.137L32.78 27h-.478l.405-1.415a9 9 0 0 0-.981-.082l-.381 1.332h-.479l.381-1.332q-.468.01-1.025.079L29.813 27h-.479l.489-1.698a11 11 0 0 1 1.523-.137zm3.528.582-.093.308h2.49l.088-.305a9.5 9.5 0 0 0-1.25-.086q-.551 0-1.235.083m2.559 1.41h-.479l.215-.742h-2.49l-.215.743h-.478l.488-1.691q.912-.14 1.753-.14t1.694.14zm2.278-1.69q.253-.04.502-.069.01 0 .01.008a.1.1 0 0 1-.012.044.1.1 0 0 0-.012.045q0 .008.005.008a1 1 0 0 1 .083-.108q.659-.069 1.176-.068.84 0 1.694.14L42.719 27h-.478l.405-1.415a9.5 9.5 0 0 0-1.25-.086q-.556 0-1.235.083L39.75 27h-.479zm6.622.596h2.969l.092-.316a9 9 0 0 0-1.186-.083q-.806 0-1.807.155l.103-.352q.942-.14 1.782-.14t1.665.14l-.273.948h-2.97l-.092.326q.63.087 1.187.087.805 0 1.801-.159l-.102.352q-.938.14-1.777.14-.84 0-1.67-.14z"/></svg>