<svg xmlns="http://www.w3.org/2000/svg" width="50" height="51" fill="none" viewBox="0 0 50 51"><path fill="#cb8252" d="m24.492 15.223 3.103-5.916 2.759-5.258c1.602-3.053 4.112-3.684 6.22-2.578S39.59 5 37.989 8.053l-.353.672-4.078 7.773zm23.793 18.5H1.733A1.725 1.725 0 0 1 .19 31.228l3.449-6.896a1.72 1.72 0 0 1 1.541-.953h39.656a1.72 1.72 0 0 1 1.542.953l3.449 6.896a1.725 1.725 0 0 1-1.543 2.495"/><path fill="#a56a43" d="M4.319 33.723h41.38v14.654a2.586 2.586 0 0 1-2.586 2.586H6.905a2.586 2.586 0 0 1-2.586-2.586z"/><path fill="#84b5cb" d="M27.552 7.863H15.57a2 2 0 0 1 .138-.362l1.543-3.086h8.621L27.414 7.5q.086.174.138.362"/><path fill="#9fc9d3" d="M27.595 8.268v15.11H15.526V8.269q.003-.205.043-.405h11.983q.041.2.043.405M18.975.967h5.172A1.724 1.724 0 0 1 25.87 2.69v1.724h-8.62V2.69A1.724 1.724 0 0 1 18.973.967"/><path fill="#a56a43" d="M12.795 16.981a.862.862 0 0 1-.847-1.028c.588-3.007-1.025-3.826-1.094-3.86a.87.87 0 0 1-.413-1.14.857.857 0 0 1 1.12-.432c.122.054 2.94 1.35 2.078 5.764a.86.86 0 0 1-.844.696"/><path fill="#95a5a5" d="M44.837 10.449a1.75 1.75 0 0 1-1.724 1.724v11.206H32.768V12.173a1.73 1.73 0 0 1-1.724-1.724 1.75 1.75 0 0 1 1.724-1.724h10.345a1.73 1.73 0 0 1 1.724 1.724"/><path fill="#7f8c8d" d="M43.975 17.345H31.044a.862.862 0 0 1 0-1.724h12.93a.862.862 0 0 1 0 1.724m0 3.448h-12.07a.862.862 0 1 1 0-1.724h12.07a.862.862 0 0 1 0 1.724m-7.759-7.758a.86.86 0 0 1-.862.862h-2.586v-1.724h2.586a.86.86 0 0 1 .862.862m6.897-.862v1.724h-2.587a.862.862 0 1 1 0-1.724z"/><path fill="#f29c1f" d="M23.871 23.379a5.9 5.9 0 0 1-.586-2.586 6.034 6.034 0 0 1 6.034-6.034 6.028 6.028 0 0 1 5.449 8.62z"/><path fill="#a56a43" d="M35.354 6.139a.9.9 0 0 1-.4-.099l-1.365-.716a.863.863 0 1 1 .801-1.527l1.366.716a.862.862 0 0 1-.402 1.626"/><path fill="#e64c3c" d="M19.009 23.379a7.4 7.4 0 0 0 .828-3.448c0-3.336-2.06-6.034-4.595-6.034a3.74 3.74 0 0 0-2.302.81 3.74 3.74 0 0 0-2.302-.81c-2.535 0-4.595 2.698-4.595 6.034a7.4 7.4 0 0 0 .828 3.448z"/></svg>