<svg xmlns="http://www.w3.org/2000/svg" width="51" height="51" fill="none" viewBox="0 0 51 51"><path fill="#0588e2" d="M21.924.667H6.015C2.877.667.333 3.465.333 6.917v17.5c0 3.451 2.544 6.25 5.682 6.25h15.91c3.137 0 5.681-2.799 5.681-6.25v-17.5c0-3.452-2.544-6.25-5.682-6.25"/><path fill="#0075d3" d="M25.333 26.917H7.152c-.905 0-1.772-.395-2.411-1.099-.64-.703-.999-1.657-.999-2.651v-20c0-.744.14-1.447.355-2.108C1.909 1.93.333 4.214.333 6.917v17.5c0 3.446 2.55 6.25 5.682 6.25h15.91c2.456 0 4.533-1.734 5.324-4.14a5.2 5.2 0 0 1-1.916.39"/><path fill="#fff" d="m20.686 22.024-5.682-13.75a1.2 1.2 0 0 0-.42-.533 1.06 1.06 0 0 0-.614-.199c-.218 0-.432.07-.615.2-.184.129-.329.314-.42.532l-5.681 13.75a1.35 1.35 0 0 0 .203 1.373q.155.182.36.285a1.05 1.05 0 0 0 1.248-.226q.165-.171.258-.398l2.022-4.893h5.252l2.022 4.893q.093.226.258.397.165.17.377.257a1.04 1.04 0 0 0 .87-.034 1.2 1.2 0 0 0 .593-.699c.106-.31.096-.654-.03-.956zm-8.31-6.357 1.594-3.854 1.593 3.854h-3.187"/><path fill="#ffc343" d="M44.652 20.667h-15.91c-3.138 0-5.681 2.798-5.681 6.25v17.5c0 3.451 2.543 6.25 5.681 6.25h15.91c3.137 0 5.681-2.799 5.681-6.25v-17.5c0-3.452-2.544-6.25-5.681-6.25"/><path fill="#ffa221" d="M48.06 46.917H29.88c-.904 0-1.771-.395-2.41-1.099-.64-.703-1-1.657-1-2.651v-20c0-.744.14-1.447.355-2.108-2.187.87-3.763 3.155-3.763 5.858v17.5c0 3.446 2.549 6.25 5.681 6.25h15.91c2.456 0 4.534-1.734 5.325-4.14a5.2 5.2 0 0 1-1.916.39"/><path fill="#fff" d="M41.744 33.167h.635c.301 0 .59-.132.803-.367s.333-.552.333-.883c0-.332-.12-.65-.333-.884a1.09 1.09 0 0 0-.803-.366h-4.546v-2.5c0-.332-.12-.65-.332-.884a1.09 1.09 0 0 0-.804-.366c-.301 0-.59.131-.804.366a1.32 1.32 0 0 0-.332.884v2.5h-4.546c-.301 0-.59.131-.803.366a1.32 1.32 0 0 0-.333.884c0 .331.12.65.333.883.213.235.502.367.803.367h8.432c-.278 2.123-1.26 4.059-2.757 5.435a8.7 8.7 0 0 1-2.071-2.942 1.18 1.18 0 0 0-.646-.633 1.04 1.04 0 0 0-.864.05c-.27.14-.48.394-.582.704s-.088.652.038.95a11.1 11.1 0 0 0 2.13 3.217 7.5 7.5 0 0 1-3.193.717c-.628 0-1.096.56-1.096 1.25s.549 1.25 1.177 1.25c1.873 0 3.625-.566 5.137-1.537a9.66 9.66 0 0 0 5.172 1.537c.628 0 1.096-.56 1.096-1.25s-.549-1.25-1.177-1.25a7.3 7.3 0 0 1-3.091-.707c1.692-1.811 2.76-4.21 3.024-6.791"/><path fill="#afb4c2" d="M41.242 6.917h-5.21l.332-.367c.213-.234.333-.552.333-.883 0-.332-.12-.65-.333-.884a1.09 1.09 0 0 0-.803-.366c-.302 0-.59.132-.804.366l-2.273 2.5a1.3 1.3 0 0 0-.246.405 1.36 1.36 0 0 0 0 .957c.057.152.14.29.246.405l2.273 2.5q.159.177.369.272a1.04 1.04 0 0 0 .87 0c.137-.063.263-.155.368-.272q.16-.175.247-.405a1.36 1.36 0 0 0 0-.957 1.3 1.3 0 0 0-.247-.405l-.333-.366h5.211c.627 0 1.137.56 1.137 1.25v3.75c0 .331.12.65.333.883.213.235.502.367.803.367s.59-.132.804-.367c.213-.234.332-.552.332-.883v-3.75c0-2.068-1.529-3.75-3.409-3.75M15.91 39.783a1.1 1.1 0 0 0-.37-.271 1.05 1.05 0 0 0-.869 0 1.1 1.1 0 0 0-.368.27c-.106.117-.19.255-.247.406a1.36 1.36 0 0 0 0 .957c.057.152.141.29.247.405l.333.367H9.424c-.626 0-1.136-.562-1.136-1.25v-3.75c0-.332-.12-.65-.333-.884a1.09 1.09 0 0 0-.803-.366c-.302 0-.59.131-.804.366a1.32 1.32 0 0 0-.333.884v3.75c0 2.067 1.53 3.75 3.41 3.75h5.21l-.332.366c-.106.116-.19.254-.247.405a1.36 1.36 0 0 0 0 .957c.057.152.141.29.247.405q.16.177.368.271a1.05 1.05 0 0 0 .87 0q.209-.095.368-.27l2.273-2.5q.16-.177.247-.406a1.36 1.36 0 0 0 0-.957 1.3 1.3 0 0 0-.247-.405z"/></svg>