<svg xmlns="http://www.w3.org/2000/svg" width="50" height="50" fill="none" viewBox="0 0 50 50"><path fill="url(#a)" fill-rule="evenodd" d="M2.813 6h44.375c.745.001 1.46.303 1.987.84s.824 1.263.825 2.021v29.636H0V8.861A2.9 2.9 0 0 1 .825 6.84 2.8 2.8 0 0 1 2.812 6m44.375 38H2.813a2.79 2.79 0 0 1-1.989-.838A2.9 2.9 0 0 1 0 41.139v-.945h50v.945c0 .759-.297 1.486-.824 2.023a2.79 2.79 0 0 1-1.989.838z" clip-rule="evenodd"/><path fill="#af0000" d="M24.102 10.36c.072.036.072.145.072.218s0 .11.035.182c.252.037.504.037.791.146-.108.073-.144.182-.216.218-1.15.766-2.012 1.786-2.874 2.879-1.042 1.311-1.976 2.695-2.874 4.116a56 56 0 0 0-2.587 4.481c-1.186 2.26-2.156 4.59-2.767 7.068-.036.146-.108.292-.108.437-.107.365-.323.729-.323 1.13 0 .364-.108.692-.144 1.056 0 .11-.036.219 0 .292.18.4-.036.728-.18 1.093-.107.255-.323.364-.538.437l-.54.11c-.143 0-.287 0-.466.035-.18-.036-.216-.255-.36-.327-.143-.11-.323-.182-.467-.292-.251-.146-.43-.4-.575-.692-.215-.547-.287-1.093-.323-1.676-.072-1.093-.216-2.15-.18-3.242s.036-2.186.108-3.28c.072-1.274.144-2.586.252-3.897l.215-1.895c.108-.838.252-1.712.36-2.586.071-.51.215-1.02.287-1.53.036-.037.036-.11.072-.146.287-.364.36-.838.539-1.239a.48.48 0 0 1 .682-.218c.144.109.288.218.432.291.143.073.215.11.251.219l.36.437c.071.146.035.291 0 .437-.144 1.093-.324 2.186-.504 3.315-.072.547-.107 1.13-.143 1.712-.108 1.02-.18 2.04-.252 3.06l-.108 1.75c-.036.655-.072 1.311 0 1.967q0 .11.108.109c.036-.036.072-.036.072-.073.144-.801.539-1.53.79-2.295.18-.583.503-1.093.755-1.64l1.293-2.513c.288-.51.611-1.02.935-1.53.323-.583.646-1.166 1.006-1.713.143-.291.359-.546.539-.838.43-.692.898-1.348 1.365-2.003.539-.729 1.078-1.457 1.689-2.113l1.185-1.203c.54-.546 1.186-.947 1.869-1.275a.6.6 0 0 1 .359 0h-.036c.072.11.072.255.144.401.072.073.036.146 0 .219-.18.218-.431.328-.54.583 0 0 0 .036.037.036 0 .037.036.037.072.037.143-.073.287-.146.43-.256M29.202 11.216c.146-.195.34-.342.487-.537.195-.195.487-.342.73-.44 1.462-.683 3.02-.927 4.628-.927.682.049 1.364.146 1.998.39s1.266.538 1.753 1.026a4.17 4.17 0 0 1 1.267 2.197c.195.927.39 1.904.438 2.88a13.6 13.6 0 0 1-.633 5.028c-.146.489-.292 1.026-.487 1.514-.195.537-.439 1.025-.682 1.513a20.6 20.6 0 0 1-4.92 6.444 23.5 23.5 0 0 1-3.313 2.49 9.2 9.2 0 0 1-3.118 1.318c-.39.098-.779.098-1.169.146-.243 0-.487-.195-.584-.439l-.293-1.172c-.048-.292-.048-.585-.243-.878-.098-.147-.049-.342-.049-.488a.76.76 0 0 1 .293-.391l.34-.146c.244-.05.39-.244.439-.489.049-.537.146-1.074.244-1.562.487-2.099.925-4.198 1.412-6.298.292-1.269.633-2.538.926-3.807.292-1.319.584-2.588.828-3.906.146-.586.146-1.123.34-1.66.098-.244-.048-.44-.34-.537-.049-.049-.146 0-.244-.049-.097-.048-.195-.146-.146-.244 0-.341.049-.634.098-.976m8.427 4.54c-.049-.342-.049-.537-.049-.732-.048-.83-.535-1.367-1.12-1.806-.78-.586-1.364-.782-2.338-.88-.147 0-.341.098-.39.245-.049.098-.097.146-.097.244-.195.781-.439 1.562-.585 2.343-.536 2.392-1.072 4.785-1.656 7.177-.341 1.318-.682 2.587-.926 3.905-.195.83-.34 1.66-.536 2.49 0 .098.049.244.049.244.097 0 .244 0 .341-.049.536-.44 1.072-.879 1.559-1.367 1.754-1.708 3.117-3.661 4.19-5.858.535-1.172 1.022-2.392 1.266-3.661.146-.83.243-1.611.292-2.295"/><defs><linearGradient id="a" x1="25" x2="25" y1="53.575" y2="6" gradientUnits="userSpaceOnUse"><stop stop-color="#6c54a3"/><stop offset="1" stop-color="#00b1d2"/></linearGradient></defs></svg>