<svg xmlns="http://www.w3.org/2000/svg" width="50" height="50" fill="none" viewBox="0 0 50 50"><path fill="#47667f" d="M38.894 38.333c0-6.444-5.905-11.666-13.316-11.666-7.41 0-13.315 5.222-13.315 11.666C12.263 44.778 18.168 50 25.578 50s13.316-5.222 13.316-11.667"/><path fill="#c5cad5" d="M38.315 37.778c0-5.89-5.673-10.667-12.736-10.667S12.842 31.89 12.842 37.778s5.673 10.666 12.737 10.666c7.063 0 12.736-4.777 12.736-10.666"/><path fill="#c5cad5" d="m3 10 22 12.222v24.445L4.158 32.222z"/><path fill="#6d83b3" d="M47 10 25 22.222v24.445l20.842-14.445z"/><path fill="#5a6e91" d="M25.579 48.445h.926l11.347-7.89c.232-.888.463-1.777.463-2.666v-.333L25 46.666l-12.158-8.444c.116 1.111.347 2.223.81 3.334l9.61 6.666c.811.111 1.506.223 2.317.223"/><path fill="#eaf4f8" d="m3 10 22 12.222L47 10 25 0z"/><path fill="#34495e" d="M10.642 9.889 25 17.778l14.358-7.89L25 3.334zm32.884 20.11.695-14.332-15.747 8.777v16zM6.474 30l-.695-14.332 15.748 8.777v16z"/><path fill="#eaf4f8" d="m31.6 17.111-3.59-2.222 1.969-4.222-5.327 1.778 1.969-4.112-8.916 2.778 3.474-4.555-2.2-1.111.463-.89 3.474 1.556-2.2 2.89 7.873-2.556-1.737 4.11 5.327-1.777-2.664 5.667 2.78 1.777z"/><path fill="#ecf0f1" d="M30.559 29.333c.115.556-.58 3.111-.58 3.445s-.231.555-.578.666c-.116-1-.232-1.888-.348-2.888 0-.223.232-.334.463-.445.116.778.116 1.556.232 2.333 0 0 .347-1.666.463-2.555 0-.222.116-.444.348-.556m11.578-5.555c-.115.333-.115.889-.578 1.111 0-.333.115-.556.231-.778.232-.444.232-1 0-1.444-.116-.223.116-.334.232-.445.231-.11.115.223.347.223.232-.223.116-.667.463-.778.116.11 0 .222-.116.333-.231.556-.347 1.111 0 1.667.116.222 0 .333-.231.444 0 0-.116.111-.232-.11-.116 0-.116-.112-.116-.223M30.79 32.222c0-.666.116-1.333.116-2 0-.222.116-.444.347-.444 0 .778-.116 1.555-.116 2.333 0 .222-.115.222-.231.334-.116 0-.116-.223-.116-.223m.58-3.555c.23.11 0 .444 0 .555s-.117.223-.233.223c-.115 0-.115-.112-.115-.223-.116-.11.116-.666.347-.555m-11.233 3.222c-.463-.333-.81-.556-1.389-.889.116.445.232.778.579 1s.579.444.926.667c.116.11.232.11.116.333-.116.222-.231.111-.347 0-1.042-.556-1.621-1.333-1.737-2.444v-.334c0-.222 0-.555.347-.666.232-.111.463.11.58.222.23.222.578.333.81.555.116.112.231.223.116.334-.116.222-.232 0-.348 0-.231-.111-.347-.223-.579-.334-.115-.11-.463-.333-.463 0 0 .334 0 .334.232.445.347.222.694.444 1.042.778.231 0 .231 0 .116.333m-1.736-.444c.116.11-.116.333-.232.222-.463-.334-.81-.556-1.274-.89-.231-.11-.231-.332-.231-.444-.116-.777-.116-1.555-.232-2.333 0-.111 0-.111.116-.111.116.111.232.222.232.333 0 .445.115.89.115 1.334.116.777.232 1 .811 1.222zm13.315.333c0-.778.116-1.556.116-2.333 0-.223 0-.223.348-.223.115 0 .231-.444.463-.555 0 .222 0 .444-.232.666-.231.223-.231.445-.231.667 0 .445-.116.778-.116 1.222.116.334 0 .445-.348.556M38.085 27c-.116 0-.232 0-.116-.111 0-.556.116-2.222.232-2.556 0-.11.115-.333-.116-.333-.116 0-.232.111-.232.222-.116.334-.347 3.111-.116 3.445.116.11.348-.334.348-.667m-4.284.889s-.232.222-.232 0v-.556c-.232 0-.232.112-.232.334 0 .333 0 .555-.347.889 0 0-.116.222 0 .222.232.444.116.778.116 1.222 0 .222-.116.667.116.778.347.111.579-.667.579-.667-.232 0-.232-.333-.232-.555 0-.445-.116-.89.347-1.223 0-.11-.115-.222-.115-.444M40.748 23c-.579.445-.695 1.222-.695 2 0 .333 0 .889.58.667.925-.445.81-1.445.81-2.334q0-.832-.695-.333m-.116 2c-.116 0-.116-.333-.116-.444 0-.445.116-1.223.464-1.223.115 0 .115.112.115.223 0 .444-.115 1.444-.463 1.444m-28.715 2.333a.9.9 0 0 1-.464-.444c-.347-.556-.579-1.111-.926-1.667.347.223.81.445.926.334.232-.223-.231-.667-.347-.778-.232-.111-.463-.333-.81-.556 0 .334.115 1.445.115 1.89 0 .11.116.221-.115.221-.116 0-.232-.11-.232-.222-.116-.444-.347-2.555-.232-2.666.81.555 1.853 1 1.969 2.222 0 .444-.116.666-.58.666.117.334.348.556.464.89.231-.112.463 0 .231.11m4.284 2.445c-.348-.222-.58-.445-.927-.667-.463-.444-.694-1-.694-1.555 0-.334.231-.445.579-.223.231.112.463.334.694.445.116 0 .116.222.232 0 .116-.111.116-.222-.116-.333l-1.042-.667c-.232-.111-.463-.222-.579.111-.232.778 0 1.444.347 2.111.348.556.811.778 1.274 1.222 0 0 .232.223.348 0 .115-.222.115-.333-.116-.444"/><path fill="#ecf0f1" d="M9.6 23.444c-.348-.666-1.622-1.333-1.622-1.444-.463-.333-.694-.222-.81.333 0 .445.116.778.232 1.223.231.888.926 1.333 1.62 1.777.58.334.811.223.811-.333.116-.556 0-1.333-.231-1.556m-.116 1.334c-.116.11-.116.222-.348.11-.81-.221-1.62-1.221-1.62-2.11 0-.111 0-.334.115-.445.232-.11.347 0 .463.111.695.445 1.274.89 1.39 1.778.116.334.116.445 0 .556m30.336.11c-.231-.332-.115-.666 0-1 0-.11.232-.777-.347-.777-.347 0-.81.445-.81.778-.116.555-.232 3.111-.232 3.111.347-.222.695-.444.926-.778.348-.333.58-.889.463-1.333m-.463.556c0 .334-.115.556-.463.778v-.778q0-.333.348-.333c.115 0 .115.222.115.333m0-1.444c0 .222-.115.444-.463.667v-.778c0-.111.116-.222.232-.222.347.11.347.222.231.333m-3.937 2.778c-.347 0-.347.333-.347.444 0 0-.116 1.778-.116 1.89-.115.11-.115.221-.231.221s-.116-.222-.116-.333c0-.444 0-.778.116-1.222 0-.111.116-.445-.116-.334-.347 0-.347.334-.347.556 0 .556-.116 1-.116 1.556 0 .333.116.666.463.444.116-.111.347-.333.347-.556.463.112.348-.333.463-.555.116-.556.116-1.111.116-1.667 0-.11 0-.333-.116-.444m-21.768 0c-.116-.334-.347-.778-.463-1.111 0-.111-.116-.223-.232-.223-.115 0-.115.112-.231.223l-.695 1.777c0 .112.232.334.463.112.116-.112.348-1.112.58-1.556l.578 1.444c-.347 0-.695-.444-.81-.333-.232.222.463.667.81.889.232.111.348.556.463.667 0 .11.232.444.463.222-.347-.667-.578-1.333-.926-2.111m22.81-.89c-.694.445-.694.89-.463.89.116-.111.116-.222.232-.222.116-.112.232-.223.347-.112a.33.33 0 0 1 0 .445l-.231.222c-.348.333-.58.889-.58 1.333 0 .112 0 .334.117.334.115 0 .231 0 .347-.111.116-.223.347-.445.695-.556 0-.667.115-1.222.115-2.111 0-.333-.347-.222-.578-.111m-.115 2.223h-.116c0-.333.116-.444.463-.667q0 .334-.347.667"/></svg>