<svg xmlns="http://www.w3.org/2000/svg" width="50" height="50" fill="none" viewBox="0 0 50 50"><path fill="#ffde52" d="M25 0c13.79 0 25 11.185 25 25 0 13.79-11.185 25-25 25C11.21 50 0 38.815 0 25S11.185 0 25 0"/><path fill="#fff" d="M15.495 29.781a1.8 1.8 0 0 1-.255-.356 1.2 1.2 0 0 1-.076-.434c0-.152.025-.305.076-.433a.85.85 0 0 1 .255-.356l14.341-14.393c.102-.101.23-.178.357-.254.127-.051.28-.076.433-.076s.305.025.433.076c.127.05.254.127.356.255l8.56 8.584c.101.102.177.23.254.357.05.127.076.28.076.433s-.025.305-.076.433a.84.84 0 0 1-.255.356L25.633 38.365a1.1 1.1 0 0 1-.357.23 1.2 1.2 0 0 1-.433.076c-.152 0-.28-.025-.433-.076a1.1 1.1 0 0 1-.356-.23z"/><path fill="#fff" d="M15.495 29.781a1.8 1.8 0 0 1-.255-.356 1.2 1.2 0 0 1-.076-.434c0-.152.025-.305.076-.433a.85.85 0 0 1 .255-.356l14.341-14.393c.102-.101.23-.178.357-.254.127-.051.28-.076.433-.076s.305.025.433.076c.127.05.254.127.356.255l8.56 8.584c.101.102.177.23.254.357.05.127.076.28.076.433s-.025.305-.076.433a.84.84 0 0 1-.255.356L25.633 38.365a1.1 1.1 0 0 1-.357.23 1.2 1.2 0 0 1-.433.076c-.152 0-.28-.025-.433-.076a1.1 1.1 0 0 1-.356-.23z"/><path fill="#1d2431" fill-rule="evenodd" d="M30.448 14.096a1 1 0 0 0-.191.134L15.892 28.645l-.026.021a.26.26 0 0 0-.074.113.6.6 0 0 0-.034.212q.002.11.023.178c.063.104.099.155.134.191l8.56 8.584a.5.5 0 0 0 .141.092.67.67 0 0 0 .439.006.5.5 0 0 0 .157-.098L39.576 23.53l.026-.02a.26.26 0 0 0 .074-.114.6.6 0 0 0 .034-.212.7.7 0 0 0-.023-.177 1 1 0 0 0-.134-.191l-8.582-8.608-.02-.026a.26.26 0 0 0-.114-.074.6.6 0 0 0-.212-.033.7.7 0 0 0-.177.022m-.477-1.094c.21-.084.441-.119.654-.119s.444.035.654.119c.184.073.398.194.577.407l8.539 8.564a2.3 2.3 0 0 1 .344.471l.025.041.017.044c.084.21.12.441.12.654s-.036.444-.12.655a1.44 1.44 0 0 1-.406.576L26.054 38.786c-.17.17-.37.286-.557.361-.21.084-.44.12-.654.12-.231 0-.423-.042-.621-.108l-.017-.005-.016-.007a1.7 1.7 0 0 1-.557-.36l-8.558-8.585c-.155-.155-.265-.338-.334-.454l-.01-.017-.025-.041-.018-.045a1.8 1.8 0 0 1-.119-.654c0-.213.035-.443.119-.654.073-.183.194-.396.406-.576L29.415 13.39c.155-.155.337-.265.454-.334l.017-.01.04-.025z" clip-rule="evenodd"/><path fill="#fff" d="M25.446 38.485c-.1.099-.225.173-.349.248-.125.05-.274.075-.423.075-.15 0-.274-.025-.424-.075a.8.8 0 0 1-.348-.248L9.882 24.442a1.1 1.1 0 0 1-.324-.77c0-.298.125-.572.324-.77l8.392-8.375c.1-.1.224-.175.348-.25.125-.049.274-.074.424-.074s.274.025.423.075c.125.05.25.124.349.248l14.02 14.042c.199.198.323.472.323.77s-.124.572-.323.77z"/><path fill="#1d2431" fill-rule="evenodd" d="M18.877 14.82a1 1 0 0 0-.183.128l-8.392 8.375a.5.5 0 0 0-.149.35c0 .129.054.253.15.348l14.043 14.065.02.026c.015.02.04.04.09.062a.65.65 0 0 0 .386.017 1 1 0 0 0 .183-.129l8.392-8.375a.5.5 0 0 0 .149-.349.5.5 0 0 0-.15-.349L19.374 14.924l-.02-.025a.2.2 0 0 0-.09-.062.65.65 0 0 0-.386-.017m-.475-1.095c.207-.082.434-.117.643-.117.228 0 .417.04.612.105l.016.006.017.006c.18.072.39.191.568.4l14 14.022c.303.302.498.725.498 1.191s-.195.89-.498 1.192l-8.392 8.375c-.153.152-.333.26-.446.328l-.018.01-.04.024-.044.018a1.8 1.8 0 0 1-.645.117c-.227 0-.416-.04-.61-.105l-.017-.005-.017-.007a1.4 1.4 0 0 1-.569-.4L9.462 24.864a1.69 1.69 0 0 1-.498-1.192c0-.467.195-.889.498-1.192l8.392-8.375c.153-.152.333-.26.446-.327l.018-.01.04-.025z" clip-rule="evenodd"/><path fill="#1d2431" d="M27.813 33.252a.794.794 0 1 0 0-1.588.794.794 0 0 0 0 1.587M34.768 16.966l-2.245-2.245-6.173 6.173 2.245 2.245z"/></svg>