<svg xmlns="http://www.w3.org/2000/svg" width="50" height="50" fill="none" viewBox="0 0 50 50"><path fill="#aad400" d="M50 25c0 13.807-11.193 25-25 25S0 38.807 0 25 11.193 0 25 0s25 11.193 25 25"/><path fill="#000" d="M21.288 2.804c-.793 0-1.431.638-1.431 1.43v4.864c0 .793.638 1.431 1.43 1.431h4.22c.735 3.72.417 5.364-.956 9.308-1.03-1.27-2.433-2.129-4.05-2.763-1.39-.545-2.582-1.334-3.04-2.307.087-.185.143-.389.143-.608V9.295c0-.792-.638-1.43-1.43-1.43H11.31c-.793 0-1.431.638-1.431 1.43v4.864c0 .793.638 1.43 1.43 1.43h4.865c.391 0 .743-.157 1.001-.41.276 1.308 1.32 2.127 3.04 2.986 1.553.776 2.77 2.61 3.371 4.39-.303.853-.621 1.76-.984 2.817-.68 2.03-1.536 4.384-2.145 6.965a6.9 6.9 0 0 0-2.2-.814c-.33-.218-.576-.422-.751-.67-.547-.777-.168-2.275-.34-3.336h1.896c.792 0 1.43-.637 1.43-1.43v-4.864c0-.793-.638-1.43-1.43-1.43h-4.855c-.793 0-1.43.637-1.43 1.43v4.864c0 .793.637 1.43 1.43 1.43h2.61c-.045 1.115-.874 2.831-.16 3.845 0 .008.015.019.017.027h-.144c-2.904.058-4.544-.393-6.223-1.44.253-.257.411-.618.411-1.01v-4.855c0-.793-.638-1.43-1.43-1.43H4.423c-.792 0-1.43.637-1.43 1.43v4.855c0 .793.638 1.43 1.43 1.43h4.865c.101 0 .208-.006.304-.026 1.525 1.47 3.672 2.58 6.688 2.977 1.895.25 3.015.64 3.737 1.19-.631 3.87-.511 8.166 1.61 12.634.36.054.715.123 1.081.16a22.6 22.6 0 0 0 4.587 0c.276-.027 1.114-.167 1.386-.205-3.666-6.4-4.222-12.132-3.094-17.57.411-.41.896-.717 1.458-.974 1.34-.615 3.444-1.048 5.007-1.19 3.072-.236 6.252-1.197 6.93-3.62.256.242.61.393.992.393h4.855c.793 0 1.43-.638 1.43-1.43v-4.865c0-.793-.637-1.43-1.43-1.43h-4.855c-.792 0-1.43.637-1.43 1.43v4.864c0 .142.025.273.062.402-.36 1.669-2.473 2.072-4.4 2.218.616-.676.94-1.342 1.28-2.065.668-1.43.343-3.258.196-4.105-.349-1.123-.585-2.96-.322-4.64h1.95c.792 0 1.43-.638 1.43-1.43V8.221c0-.792-.638-1.43-1.43-1.43h-4.864c-.793 0-1.431.638-1.431 1.43v4.864c0 .793.638 1.43 1.43 1.43h2.477c-.556 1.436-.493 3.102-.188 4.802.128.742-.039 2.252-.545 3.335-.476 1.017-.997 1.688-3.255 2.88-1.38.099-3.056.227-4.488.786 2.406-7.762 1.145-12.858.08-15.843a1.43 1.43 0 0 0 1.056-1.378V4.234c0-.792-.638-1.43-1.43-1.43z"/><path fill="#000" d="M29.72 3.206q.148.494.15 1.028v1.342c.674-.656 1.584-1.073 2.576-1.073h1.34a22 22 0 0 0-4.067-1.297m-12.143.77c-1.225.433-2.398.969-3.514 1.6h2.11c.492 0 .96.104 1.395.286V4.234c0-.087 0-.173.015-.259zM41.03 9.51v3.576c0 .361-.069.705-.17 1.037h3.603A22.4 22.4 0 0 0 41.03 9.51M7.59 11.083a22.2 22.2 0 0 0-4.462 9.523 3.6 3.6 0 0 1 1.296-.242h3.46c.303-1.127.71-2.21 1.216-3.236-.91-.685-1.51-1.769-1.51-2.969zm39.708 14.378a3.7 3.7 0 0 1-2.468.966h-2.173a17.685 17.685 0 0 1-13.77 15.87 28.5 28.5 0 0 0 1.78 3.667c.097.17.174.356.223.545 9.301-2.555 16.2-11 16.408-21.048M4.04 32.641a22.43 22.43 0 0 0 14.806 13.796 21.7 21.7 0 0 1-1.26-5.329A17.72 17.72 0 0 1 9.1 32.873q-.14-.106-.277-.214H4.424q-.195 0-.384-.018"/><path fill="url(#a)" d="M50 25c0 13.807-11.193 25-25 25S0 38.807 0 25 11.193 0 25 0s25 11.193 25 25"/><defs><radialGradient id="a" cx="0" cy="0" r="1" gradientTransform="rotate(-.379 3448.149 -1919.802)scale(37.1042 25)" gradientUnits="userSpaceOnUse"><stop stop-opacity="0"/><stop offset="1" stop-opacity=".125"/></radialGradient></defs></svg>