<svg xmlns="http://www.w3.org/2000/svg" width="50" height="50" fill="none" viewBox="0 0 50 50"><path fill="#3d87cf" d="m21.107 36.414 4.82-11.593c2.295-.122 6.019.38 8.325.92l-4.957 11.927c-2.25-.54-5.939-1.199-8.188-1.254"/><path fill="#fac705" d="m42.773 30.407-5.01 11.982c-1.675-1.337-6.265-3.879-8.468-4.72l4.957-11.927c2.244.775 7.035 3.11 8.52 4.665"/><path fill="#66c557" d="M47.679 19.307 42.76 30.409c-1.606-1.427-6.254-3.862-8.52-4.665l4.969-11.949c2.266.736 6.994 3.88 8.469 5.512"/><path fill="#f3632e" d="m25.925 24.829 4.889-11.732c2.289-.078 6.104.273 8.405.702l-4.969 11.95c-2.277-.608-6.047-.965-8.325-.92"/><path fill="#3d87cf" d="m9.37 29.137-2.357-.039c.16-.462.367-.98.568-1.415l2.38-.006c-.172.474-.378.987-.59 1.46M13.013 31.05l-2.971-.018.832-1.961c.98-.006 1.973 0 2.96.033zM17.948 30.564c-.344.77-.637 1.594-.992 2.369l-3.344-.04.986-2.351zM6.198 26.783l-1.715-.011c.137-.385.31-.814.487-1.198.585-.006 1.17-.04 1.756-.017zM3.099 24.343c-.442.012-.89.056-1.331.045l.43-1.014c.442-.023.884-.045 1.325-.045zM10.928 25.37l-2.364-.027.568-1.41c.803.022 1.606-.022 2.404.006zM14.556 27.311l-2.95-.011.798-1.951c.993-.006 1.985-.011 2.978.011zM18.536 29.152l-3.356-.073.975-2.313 3.345.034zM7.828 22.888c-.573-.017-1.164.028-1.744-.006l.528-1.265 1.71.045c-.126.396-.304.83-.494 1.226M4.714 20.463l-1.325.027.408-1.008c.43-.04.895-.04 1.342-.04z"/><path fill="#f3632e" d="m14.144 17.638-2.369-.017.58-1.438c.797.012 1.594 0 2.397.017zM14.835 19.578l.797-1.973h2.955l-.798 1.973zM21.797 21.29l-3.356-.022.97-2.346 3.35.011zM11.06 15.127c-.562.027-1.153 0-1.727.011l.482-1.248c.562-.045 1.159.022 1.727.005zM7.931 12.687c-.441.011-.883.056-1.33.039l.435-1.015 1.314-.06zM15.745 13.786a57 57 0 0 1-2.375-.045l.586-1.41c.797.011 1.594-.017 2.392.006zM19.373 15.726c-.986 0-1.979.017-2.971-.012l.826-1.961c.992-.012 1.98.005 2.971.011zM23.325 17.595l-3.333-.034.97-2.357 3.355.022zM12.646 11.274h-1.732l.51-1.265c.585.028 1.16 0 1.739.034zM9.547 8.82l-1.33.056.412-1.02c.442-.05.89-.028 1.331-.055z"/><path fill="#000" d="M7.872 33.075q-1.404.019-2.816-.022l.67-1.616c.942 0 1.888.027 2.84.016zM29.42 15.155l-4.216.028 1.48-3.572c1.434-.157 2.88-.307 4.32-.262zM11.207 5.154l-1.6.033.464-1.154C10.611 4.022 11.15 4 11.689 4zM14.394 7.436c-.711-.022-1.423-.016-2.14-.044l.563-1.338c.717.023 1.434-.011 2.15.034zM25.132 13.9l-3.988-.017 1.16-2.815 3.993.034zM17.655 11.93l.867-2.128 3.516.005-.883 2.146zM17.479 9.976l-2.823-.022.654-1.605c.94 0 1.888-.034 2.84 0zM27.879 18.879c-1.406.033-2.818.056-4.23.061l1.378-3.305 4.206-.016zM26.292 22.674l-4.217.056-.023-.012 1.366-3.304 4.251-.062zM4.832 16.682l.465-1.143 1.623-.056-.476 1.176zM20.505 26.484l1.36-3.294 4.223-.05-1.349 3.299zM9.562 19.05l-2.14-.028.562-1.337c.717.022 1.428-.012 2.145.033zM20.314 25.47l-3.988-.027 1.148-2.798 3.999.033zM16.333 23.559l-3.482-.012-.03-.011.89-2.123 3.51.005zM12.646 21.604l-2.817-.028.648-1.605q1.431-.016 2.863.012zM23.149 30.264l-.017.04-4.223.05 1.383-3.383 4.245-.045zM21.563 34.074l-4.235.1-.029-.011 1.406-3.35 4.217-.039zM1.6 28.281c-.533-.016-1.067.034-1.6 0l.465-1.103c.545-.045 1.09-.034 1.64-.056zM19.873 38.126c-1.411-.034-2.817-.045-4.234.067l1.474-3.556 4.252-.072zM4.744 30.678l-2.157.012.533-1.332c.729 0 1.446-.023 2.174-.006zM15.526 36.984l-3.97-.055 1.164-2.792 3.97.038zM8.064 35.03l.889-2.151 3.494.022-.89 2.157z"/><path fill="#000" fill-rule="evenodd" d="M45.49 19.92c-1.474-1.632-3.523-2.792-5.79-3.522l-3.545 8.522c2.26.808 4.257 1.917 5.864 3.338zM40.89 31.04c-1.486-1.556-3.615-2.66-5.853-3.434l-3.603 8.706c2.197.841 4.257 1.839 5.933 3.176zM50 18.928 38.737 46.004c-2.92-3.868-7.999-6.309-13.1-7.234-1.755-.312-3.517-.546-5.272-.613l1.474-3.522c2.25.06 4.504.317 6.754.863l3.637-8.755c-2.306-.54-4.607-.608-6.902-.485l1.182-2.876c2.272-.044 4.55.095 6.828.702l3.511-8.432c-2.3-.435-4.601-.59-6.89-.513l1.571-3.812c5.222-.022 11.264 1.393 15.544 4.76 1.084.836 2.083 1.76 2.926 2.842" clip-rule="evenodd"/></svg>