<svg xmlns="http://www.w3.org/2000/svg" width="50" height="50" fill="none" viewBox="0 0 50 50"><path fill="#e8edf2" d="M46.513 19.828a.39.39 0 0 1-.553 0l-1.203-1.2a.58.58 0 0 0-.413-.17.6.6 0 0 0-.273.065q-.46.236-.953.395a.59.59 0 0 0-.41.557v1.697a.39.39 0 0 1-.391.39H39.98a.39.39 0 0 1-.39-.39v-1.697a.59.59 0 0 0-.41-.557 6.4 6.4 0 0 1-.954-.395.6.6 0 0 0-.273-.066.58.58 0 0 0-.413.17l-1.203 1.2a.39.39 0 0 1-.553 0l-1.651-1.647a.39.39 0 0 1 0-.55l.39-.39H12.828l-.1.064v28.153l.1.543h32.49c.834 0 1.51-.674 1.51-1.505v-24.98z"/><path fill="#d9e7ec" d="M17.359 44.495V17.337h-4.532V46h6.041c-.833 0-1.509-.674-1.509-1.505"/><path fill="#b6c4cf" d="M12.827 36.011V17.24H.837L0 17.337v18.577l.414.097z"/><path fill="#9facba" d="M0 17.337h4.678v18.577H0z"/><path fill="#596c76" d="M12.827 46H1.509C.676 46 0 45.326 0 44.495v-8.581h12.827z"/><path fill="#465a61" d="M4.678 44.495v-8.581H0v8.58C0 45.327.676 46 1.51 46h4.677c-.833 0-1.509-.674-1.509-1.505"/><path fill="#596c76" d="M9.608 21.09H3.219a.733.733 0 0 1-.732-.732.73.73 0 0 1 .732-.73h6.389a.732.732 0 0 1 .518 1.247.73.73 0 0 1-.518.214m0 2.709H3.219a.733.733 0 0 1-.732-.73.73.73 0 0 1 .732-.732h6.389a.734.734 0 0 1 .732.731.73.73 0 0 1-.732.73m0 2.71H3.219a.733.733 0 0 1-.732-.731.73.73 0 0 1 .732-.73h6.389a.734.734 0 0 1 .732.73.73.73 0 0 1-.732.73m0 4.516H3.219a.733.733 0 0 1-.732-.731.73.73 0 0 1 .732-.73h6.389a.734.734 0 0 1 .732.73.73.73 0 0 1-.732.73m0 2.71H3.219a.733.733 0 0 1-.732-.731.73.73 0 0 1 .732-.731h6.389a.734.734 0 0 1 .732.73.73.73 0 0 1-.732.731"/><path fill="#00c27a" d="M42.254 41.082h-25.36a1.256 1.256 0 0 1-1.258-1.254c0-.693.563-1.255 1.257-1.255h25.36a1.256 1.256 0 1 1 0 2.509"/><path fill="#08b865" d="M18.754 39.828c0-.693.563-1.255 1.258-1.255h-3.119a1.256 1.256 0 1 0 0 2.509h3.119a1.256 1.256 0 0 1-1.258-1.254"/><path fill="#7a8c98" d="M32.344 34.035H15.845a.734.734 0 0 1-.732-.73.73.73 0 0 1 .732-.731h16.499a.733.733 0 0 1 .733.73.73.73 0 0 1-.733.731M3.313 40.107a.732.732 0 1 0 .002-1.463.732.732 0 0 0-.002 1.463M9.514 40.107a.732.732 0 1 0 .002-1.463.732.732 0 0 0-.002 1.463M3.313 43.118a.732.732 0 1 0 .002-1.463.732.732 0 0 0-.002 1.463M9.514 43.118a.732.732 0 1 0 .002-1.463.732.732 0 0 0-.002 1.463M32.344 28.215H15.845a.734.734 0 0 1-.732-.731.73.73 0 0 1 .732-.73h16.499a.733.733 0 0 1 .733.73.73.73 0 0 1-.733.73"/><path fill="#00c27a" d="M40.59 33.004c0-.777.634-1.408 1.412-1.408v-.098h-4.024c-.834 0-1.51.674-1.51 1.506 0 .831.676 1.505 1.51 1.505h4.024v-.097a1.41 1.41 0 0 1-1.411-1.408"/><path fill="#08b865" d="M38.581 33.004c0-.832.676-1.506 1.51-1.506h-2.113c-.834 0-1.51.674-1.51 1.506 0 .831.676 1.505 1.51 1.505h2.112c-.833 0-1.509-.674-1.509-1.505"/><path fill="#7a8c98" d="M42.002 34.509c.834 0 1.51-.674 1.51-1.505 0-.832-.676-1.506-1.51-1.506-.833 0-1.509.674-1.509 1.506 0 .831.676 1.505 1.509 1.505"/><path fill="#596c76" d="M41.584 33.004c0-.64.4-1.184.963-1.403a1.507 1.507 0 0 0-2.054 1.402 1.507 1.507 0 0 0 2.054 1.403 1.505 1.505 0 0 1-.963-1.402"/><path fill="#00c27a" d="M43.511 27.183c0-.832-.676-1.506-1.509-1.506h-4.024v.098c.778 0 1.411.631 1.411 1.408s-.633 1.408-1.411 1.408v.097h4.024c.833 0 1.509-.674 1.509-1.505"/><path fill="#7a8c98" d="M37.978 28.688c.833 0 1.509-.674 1.509-1.505 0-.832-.676-1.506-1.51-1.506-.833 0-1.508.674-1.508 1.506 0 .831.675 1.505 1.509 1.505"/><path fill="#596c76" d="M37.56 27.183c0-.64.4-1.184.963-1.402a1.507 1.507 0 0 0-2.054 1.402 1.507 1.507 0 0 0 2.054 1.402 1.505 1.505 0 0 1-.963-1.402"/><path fill="#7a8c98" d="M24.799 22.394h-8.954a.734.734 0 0 1-.732-.73.73.73 0 0 1 .732-.732h8.954a.733.733 0 0 1 .732.731.73.73 0 0 1-.732.73m-1.51 19.04h-2.313a.5.5 0 0 1-.503-.502v-2.308a.5.5 0 0 1 .503-.502h2.314a.503.503 0 0 1 .503.502v2.308a.5.5 0 0 1-.503.502"/><path fill="#596c76" d="M21.982 40.932v-2.308a.5.5 0 0 1 .503-.502h-1.51a.5.5 0 0 0-.502.502v2.308a.5.5 0 0 0 .503.502h1.509a.503.503 0 0 1-.503-.502"/><path fill="#7a8c98" d="M6.413 40.107a.732.732 0 1 0 .002-1.463.732.732 0 0 0-.002 1.463M6.413 43.118a.732.732 0 1 0 .002-1.463.732.732 0 0 0-.002 1.463"/><path fill="#fd4755" d="M35.337 16.429a.585.585 0 0 0 .104-.685 6.4 6.4 0 0 1-.396-.95.59.59 0 0 0-.558-.41h-1.701a.39.39 0 0 1-.39-.39v-2.33q0-.027.005-.054H1.509C.676 11.61 0 12.284 0 13.115v4.222h34.427z"/><path fill="#fb2b3a" d="M6.187 11.61H1.51C.676 11.61 0 12.284 0 13.115v4.222h4.678v-4.222c0-.831.676-1.505 1.51-1.505"/><path fill="#fe646f" d="M3.095 15.204a.732.732 0 1 0 .002-1.463.732.732 0 0 0-.002 1.463"/><path fill="#fed402" d="M5.634 15.204a.732.732 0 1 0 .002-1.463.732.732 0 0 0-.002 1.463"/><path fill="#00c27a" d="M8.173 15.204a.732.732 0 1 0 .002-1.463.732.732 0 0 0-.002 1.463"/><path fill="#b6c4cf" d="M50 13.994v-2.33a.487.487 0 0 0-.488-.486H47.81a.49.49 0 0 1-.466-.342 6.5 6.5 0 0 0-.402-.966.49.49 0 0 1 .087-.57l1.203-1.201a.486.486 0 0 0 0-.69l-1.651-1.647a.49.49 0 0 0-.69 0l-1.204 1.201a.49.49 0 0 1-.573.086 6.5 6.5 0 0 0-.967-.4.49.49 0 0 1-.343-.465V4.487A.487.487 0 0 0 42.317 4H39.98a.49.49 0 0 0-.488.487v1.697a.49.49 0 0 1-.343.464 6.5 6.5 0 0 0-.968.401.49.49 0 0 1-.572-.086l-1.204-1.2a.49.49 0 0 0-.69 0L34.065 7.41a.486.486 0 0 0 0 .689l1.203 1.2c.151.151.184.382.087.571a6.5 6.5 0 0 0-.402.966.49.49 0 0 1-.466.342h-1.7a.49.49 0 0 0-.49.487v2.33a.486.486 0 0 0 .49.487h1.7c.214 0 .4.139.466.341q.161.499.402.966c.097.19.064.42-.087.57l-1.203 1.201a.487.487 0 0 0 0 .69l1.651 1.647a.49.49 0 0 0 .69 0l1.204-1.201a.49.49 0 0 1 .573-.086q.466.24.967.4a.49.49 0 0 1 .343.465v1.697a.486.486 0 0 0 .488.487h2.336a.49.49 0 0 0 .488-.487v-1.697c0-.213.14-.399.343-.464q.5-.162.967-.401a.49.49 0 0 1 .573.086l1.203 1.2a.49.49 0 0 0 .69 0l1.652-1.647a.487.487 0 0 0 0-.689l-1.203-1.2a.49.49 0 0 1-.087-.571q.24-.466.402-.966a.49.49 0 0 1 .466-.341h1.7a.49.49 0 0 0 .489-.488"/><path fill="#9facba" d="M37.892 14.859a3.8 3.8 0 0 1-.583-2.03c0-.745.214-1.44.583-2.029a6.67 6.67 0 0 1 4.936-4.47.5.5 0 0 1-.023-.146V4.487A.487.487 0 0 0 42.317 4H39.98a.49.49 0 0 0-.488.487v1.697a.49.49 0 0 1-.343.464 6.5 6.5 0 0 0-.968.401.49.49 0 0 1-.572-.086l-1.204-1.2a.49.49 0 0 0-.69 0L34.065 7.41a.486.486 0 0 0 0 .689l1.203 1.2c.151.151.184.382.087.571a6.5 6.5 0 0 0-.402.966.49.49 0 0 1-.466.342h-1.7a.49.49 0 0 0-.49.487v2.33a.486.486 0 0 0 .49.487h1.7c.214 0 .4.139.466.341q.161.499.402.966c.097.19.064.42-.087.57l-1.203 1.201a.487.487 0 0 0 0 .69l1.651 1.646a.49.49 0 0 0 .69 0l1.204-1.2a.49.49 0 0 1 .573-.086q.466.24.967.4a.49.49 0 0 1 .343.465v1.697a.486.486 0 0 0 .488.487h2.336a.49.49 0 0 0 .488-.487v-1.697q0-.076.023-.146a6.67 6.67 0 0 1-4.936-4.47"/><path fill="#8d9ca8" d="M41.149 16.66c2.12 0 3.84-1.715 3.84-3.83s-1.72-3.831-3.84-3.831a3.836 3.836 0 0 0-3.84 3.83c0 2.116 1.719 3.831 3.84 3.831"/><path fill="#7a8c98" d="M39.352 12.83a3.83 3.83 0 0 1 2.819-3.693 3.836 3.836 0 0 0-4.862 3.693 3.836 3.836 0 0 0 4.861 3.692 3.83 3.83 0 0 1-2.818-3.692"/><path fill="#465a61" d="M41.149 14.123c.716 0 1.297-.579 1.297-1.293 0-.715-.58-1.294-1.297-1.294-.716 0-1.297.58-1.297 1.294s.58 1.293 1.297 1.293"/></svg>