<svg xmlns="http://www.w3.org/2000/svg" width="50" height="50" fill="none" viewBox="0 0 50 50"><g clip-path="url(#a)"><path fill="#314e55" d="M22.917 0H1.042A1.04 1.04 0 0 0 0 1.042v21.875a1.04 1.04 0 0 0 1.042 1.041h21.875a1.04 1.04 0 0 0 1.041-1.041V1.042A1.04 1.04 0 0 0 22.917 0"/><path fill="#e65f58" d="M2.083 2.083h19.792v19.792H2.083z"/><path fill="#314e55" d="M22.917 26.042H1.042A1.04 1.04 0 0 0 0 27.083v21.875A1.04 1.04 0 0 0 1.042 50h21.875a1.04 1.04 0 0 0 1.041-1.042V27.083a1.043 1.043 0 0 0-1.041-1.041"/><path fill="#81a4e3" d="M2.083 28.125h19.792v19.792H2.083z"/><path fill="#314e55" d="M48.958 26.042H27.083a1.04 1.04 0 0 0-1.041 1.041v21.875A1.04 1.04 0 0 0 27.083 50h21.875A1.04 1.04 0 0 0 50 48.958V27.083a1.04 1.04 0 0 0-1.042-1.041"/><path fill="#e4ad40" d="M28.125 28.125h19.792v19.792H28.125z"/><path fill="#314e55" d="M48.958 0H27.083a1.04 1.04 0 0 0-1.041 1.042v21.875a1.04 1.04 0 0 0 1.041 1.041h21.875A1.04 1.04 0 0 0 50 22.917V1.042A1.04 1.04 0 0 0 48.958 0"/><path fill="#5ecb66" d="M28.125 2.083h19.792v19.792H28.125z"/></g><path fill="#b6c4cf" d="M40 26.979V23.02a.83.83 0 0 0-.828-.827H36.29a.83.83 0 0 1-.789-.581 11 11 0 0 0-.681-1.64.83.83 0 0 1 .146-.97l2.04-2.04a.827.827 0 0 0 0-1.17l-2.799-2.799a.827.827 0 0 0-1.17 0l-2.04 2.04a.83.83 0 0 1-.97.146 11 11 0 0 0-1.64-.681.83.83 0 0 1-.58-.79v-2.881a.83.83 0 0 0-.828-.828H23.02a.83.83 0 0 0-.828.828v2.882a.83.83 0 0 1-.58.789q-.848.274-1.64.681a.83.83 0 0 1-.97-.146l-2.04-2.04a.827.827 0 0 0-1.17 0l-2.799 2.799a.827.827 0 0 0 0 1.17l2.04 2.04a.83.83 0 0 1 .146.97 11 11 0 0 0-.681 1.64.83.83 0 0 1-.79.58h-2.882a.83.83 0 0 0-.827.828v3.958a.827.827 0 0 0 .827.827h2.883c.362 0 .678.237.789.581q.274.848.681 1.64a.83.83 0 0 1-.146.97l-2.04 2.04a.83.83 0 0 0 0 1.17l2.799 2.799a.83.83 0 0 0 1.17 0l2.04-2.04a.83.83 0 0 1 .97-.146q.792.407 1.64.681a.83.83 0 0 1 .58.79v2.882a.827.827 0 0 0 .828.827h3.958a.83.83 0 0 0 .828-.828V36.29a.83.83 0 0 1 .58-.789q.848-.274 1.64-.681a.83.83 0 0 1 .97.146l2.04 2.04a.83.83 0 0 0 1.17 0l2.799-2.799a.827.827 0 0 0 0-1.17l-2.04-2.04a.83.83 0 0 1-.146-.97q.407-.792.681-1.64a.83.83 0 0 1 .79-.58h2.882a.83.83 0 0 0 .827-.828"/><path fill="#9facba" d="M19.48 28.448A6.48 6.48 0 0 1 18.493 25c0-1.267.363-2.448.989-3.448a11.32 11.32 0 0 1 8.365-7.593.8.8 0 0 1-.04-.25v-2.881A.83.83 0 0 0 26.98 10H23.02a.83.83 0 0 0-.828.828v2.882a.83.83 0 0 1-.58.789q-.848.274-1.64.681a.83.83 0 0 1-.97-.146l-2.04-2.04a.827.827 0 0 0-1.17 0l-2.799 2.799a.827.827 0 0 0 0 1.17l2.04 2.04a.83.83 0 0 1 .146.97 11 11 0 0 0-.681 1.64.83.83 0 0 1-.79.58h-2.882a.83.83 0 0 0-.827.828v3.958a.827.827 0 0 0 .827.827h2.883c.362 0 .678.237.789.581q.274.848.681 1.64a.83.83 0 0 1-.146.97l-2.04 2.04a.83.83 0 0 0 0 1.17l2.799 2.799a.827.827 0 0 0 1.17 0l2.04-2.04a.83.83 0 0 1 .97-.146q.792.406 1.64.68c.344.112.58.428.58.79v2.882a.827.827 0 0 0 .828.828h3.958a.827.827 0 0 0 .828-.828V36.29q0-.13.039-.249a11.32 11.32 0 0 1-8.365-7.593"/><path fill="#8d9ca8" d="M25 31.508a6.508 6.508 0 1 0 0-13.016 6.508 6.508 0 0 0 0 13.016"/><path fill="#7a8c98" d="M21.954 25a6.51 6.51 0 0 1 4.777-6.273 6.508 6.508 0 1 0 0 12.547A6.51 6.51 0 0 1 21.954 25"/><path fill="#465a61" d="M25 27.198a2.198 2.198 0 1 0 0-4.396 2.198 2.198 0 0 0 0 4.396"/><defs><clipPath id="a"><path fill="#fff" d="M0 0h50v50H0z"/></clipPath></defs></svg>