<svg xmlns="http://www.w3.org/2000/svg" width="50" height="50" fill="none" viewBox="0 0 50 50"><path fill="#000" d="M17.283 1.931q-.375.024-.752.13c-2.006.575-3.189 2.767-2.651 4.913l1.457 5.82a25.6 25.6 0 0 0-3.527 2.727L7.657 10.89c-1.437-1.604-3.836-1.57-5.305 0s-1.438 4.065 0 5.669l4.194 4.677c-1.854 2.221-3.554 4.3-5.241 5.664-1.74 1.365-1.74 4.78 0 6.146C8.75 37.998 13.75 50.035 24.998 50h.004c11.248.035 16.248-12.002 23.693-16.955 1.74-1.366 1.74-4.78 0-6.146-1.686-1.363-3.386-3.441-5.239-5.662l4.197-4.68c1.438-1.603 1.469-4.098 0-5.668s-3.865-1.604-5.303 0l-4.157 4.638a25.7 25.7 0 0 0-3.503-2.717l1.462-5.836c.538-2.146-.645-4.338-2.651-4.912-2.007-.575-4.055.691-4.592 2.837L27.605 9.91c-.834-.122-1.7-.193-2.605-.193h-.003c-.892 0-1.746.07-2.57.19L21.123 4.9c-.47-1.877-2.096-3.082-3.84-2.968" opacity=".2"/><path fill="#ef9202" d="M17.283.008q-.375.024-.752.13c-2.006.575-3.189 2.767-2.651 4.913l1.457 5.82a25.7 25.7 0 0 0-3.527 2.727L7.657 8.966c-1.437-1.604-3.836-1.571-5.305 0s-1.438 4.065 0 5.669l4.194 4.677c-1.854 2.221-3.554 4.3-5.241 5.663-1.74 1.366-1.74 4.781 0 6.147 7.445 4.953 12.445 16.99 23.693 16.955h.004c11.248.035 16.248-12.002 23.693-16.955 1.74-1.366 1.74-4.78 0-6.146-1.686-1.363-3.386-3.441-5.239-5.662l4.197-4.68c1.438-1.603 1.469-4.098 0-5.668s-3.865-1.604-5.303 0l-4.157 4.638a25.7 25.7 0 0 0-3.503-2.717l1.462-5.836C36.69 2.905 35.507.713 33.5.138c-2.007-.574-4.055.692-4.592 2.838l-1.304 5.011c-.834-.123-1.7-.193-2.605-.193h-.003c-.892 0-1.746.07-2.57.19l-1.304-5.008c-.47-1.878-2.096-3.082-3.84-2.968"/><path fill="#000" d="M25 46.154c7.89 0 14.286-6.888 14.286-15.385S32.89 15.385 25 15.385s-14.286 6.888-14.286 15.384S17.11 46.154 25 46.154" opacity=".2"/><path fill="#fff" d="M25 44.23c7.89 0 14.286-6.887 14.286-15.384S32.89 13.461 25 13.461 10.714 20.35 10.714 28.847 17.11 44.231 25 44.231"/><path fill="#ff5a2e" d="M25 38.462c4.931 0 8.929-4.305 8.929-9.616 0-5.31-3.998-9.615-8.929-9.615s-8.929 4.305-8.929 9.615S20.07 38.462 25 38.462"/><path fill="#fff" d="M17.282.007q-.375.025-.75.132c-1.988.57-3.162 2.727-2.661 4.853.312-1.378 1.285-2.536 2.66-2.93q.378-.108.75-.131c1.744-.114 3.37 1.09 3.84 2.967l1.305 5.01c.825-.12 1.678-.191 2.57-.191H25c.904 0 1.771.069 2.605.191l1.305-5.01c.537-2.146 2.583-3.41 4.59-2.836 1.375.394 2.348 1.552 2.66 2.93.502-2.126-.673-4.284-2.66-4.853-2.007-.575-4.053.69-4.59 2.836l-1.305 5.01A18 18 0 0 0 25 7.794h-.003c-.893 0-1.746.072-2.57.191l-1.305-5.01c-.47-1.877-2.097-3.081-3.84-2.968M5.015 7.775c-.963.004-1.93.405-2.664 1.19-.966 1.033-1.27 2.46-.966 3.775a4 4 0 0 1 .966-1.851c1.469-1.57 3.867-1.604 5.305 0l4.153 4.63a25.7 25.7 0 0 1 3.53-2.726l-.408-1.634a26 26 0 0 0-3.122 2.438L7.656 8.966a3.5 3.5 0 0 0-2.64-1.191m39.973 0a3.5 3.5 0 0 0-2.636 1.19l-4.158 4.64c-.963-.882-2-1.696-3.097-2.43l-.408 1.633a25.7 25.7 0 0 1 3.505 2.72l4.157-4.64c1.438-1.603 3.833-1.57 5.302 0 .498.533.809 1.175.966 1.849.302-1.315-.002-2.74-.966-3.771-.735-.786-1.703-1.187-2.665-1.191M5.706 20.3c-1.526 1.824-2.98 3.523-4.402 4.673C.198 25.842-.2 27.539.101 29.01c.172-.843.57-1.617 1.203-2.114 1.687-1.363 3.389-3.439 5.242-5.66zm38.592 0-.84.935c1.852 2.221 3.552 4.299 5.238 5.66.634.498 1.031 1.272 1.203 2.115.301-1.472-.097-3.169-1.203-4.037-1.422-1.15-2.873-2.85-4.398-4.673" opacity=".2"/></svg>