<svg xmlns="http://www.w3.org/2000/svg" width="50" height="50" fill="none" viewBox="0 0 50 50"><path fill="#fff" d="M27.1 29.27c1.23.69 2.43 1.35 3.63 1.98.14.08.35.09.51.06 1.19-.22 2.38-.46 3.56-.7.19-.04.37-.11.49-.07-1.59-.54-3.2-1.02-4.77-1.62-1.99-.76-3.76-1.92-5.44-3.2-.8-.61-1.47-1.38-2.28-1.97a69 69 0 0 0-4.17-2.78c-1.09-.68-1.86-1.64-2.6-2.65-.24-.33-.41-.73-.71-1.26.78.24 1.42.41 2.04.64 2.41.91 4.62 2.18 6.64 3.76 1.01.77 1.91 1.67 2.89 2.48 1.6 1.31 3.41 2.3 5.34 3.02 1.47.55 3.02.99 4.57 1.25 1.63.27 3.29.35 4.97.2 2.16-.2 4.23-.65 6.24-1.41.62-.23 1.22-.49 1.95-.79-.6 8.16-4.1 14.69-10.81 19.18-8.23 5.53-17.13 6.16-25.86 1.47C3.55 41.63-.61 33.06.07 22.09c2.1-.65 4.14-1.05 6.25-1.22 3.35-.28 6.57.22 9.72 1.28 2.62.87 5 2.2 7.14 3.95 1.29 1.05 2.59 2.1 3.92 3.17m4.05 7.26c2.54-.8 5.14-1.25 7.8-1.15 1.64.06 3.27.37 4.9.58.45.06.83.02 1.05-.46.18-.42.39-.82.61-1.27-.18-.08-.35-.2-.54-.25-.83-.22-1.67-.43-2.5-.64-2.49-.65-5.02-.66-7.52-.32-1.64.22-3.27.7-4.84 1.24-2.24.76-4.27 1.98-6.06 3.52-1.81 1.55-3.58 3.11-5.68 4.27-1.57.87-3.21 1.56-5.02 2.12 1.01.51 1.95.98 2.91 1.44.09.05.26.01.37-.04 1.77-.86 3.38-1.96 4.9-3.19 1.39-1.12 2.76-2.28 4.22-3.3 1.61-1.13 3.42-1.92 5.4-2.55M12.51 23.69c-3.39-.68-6.76-.6-10.1.25v1.81c.16 0 .31.03.45 0 2.21-.45 4.45-.49 6.68-.23 2.08.25 4.13.69 6.08 1.48 2.7 1.08 5.18 2.52 7.34 4.48.77.7 1.58 1.35 2.39 2 .12.1.38.14.5.08.61-.31 1.2-.66 1.84-1.02-2.01-1.01-3.67-2.39-5.28-3.85a19.7 19.7 0 0 0-4.17-2.9c-1.79-.93-3.64-1.67-5.73-2.1m21.64 14.58c-.72.19-1.45.34-2.15.58-2.87.98-5.5 2.37-7.77 4.43-1.02.93-2.14 1.75-3.22 2.6-.39.31-.83.55-1.31.87.76.16 1.4.33 2.05.42.28.04.65 0 .86-.16.66-.49 1.25-1.06 1.87-1.59 2.15-1.83 4.59-3.2 7.27-4.07 1.59-.5 3.23-.87 4.87-1.11 1.48-.22 3-.24 4.5-.25.38-.01.64-.01.87-.31.37-.47.75-.94 1.21-1.51-1.38-.11-2.65-.24-3.93-.32-1.69-.11-3.36.08-5.12.42M3.23 28.12c-.38.04-.53.25-.46.62.08.45.16.9.25 1.37 7.24-.64 13.57 1.39 19 6.11.46-.36.91-.71 1.39-1.08-.62-.52-1.26-1-1.83-1.55-1.95-1.87-4.22-3.24-6.73-4.22-2.25-.89-4.58-1.49-7.01-1.48-1.5 0-3 .15-4.61.23m13.11 7.1c-3.9-2.19-8.1-3.04-12.59-2.68.26.59.49 1.19.76 1.76.07.14.29.27.45.29 1.33.19 2.67.3 3.99.52 3.25.52 6.18 1.88 8.89 3.68.51.33.78.28 1.16 0s.75-.59 1.14-.91c-.39-.31-.76-.63-1.16-.91-.84-.59-1.7-1.16-2.64-1.75m-.57 5.18c-2.25-1.6-7.98-3.51-9.66-3.2 1.24 1.69 2.5 3.33 4.11 4.68.33.28.66.42 1 .31 1.56-.51 3.1-1.06 4.65-1.61 0 0-.02-.08-.1-.18m15.69 3.67c-1.89.84-3.71 1.79-5.42 3.28 4.9-.3 9.11-1.89 12.8-4.89-1.1.06-2.21.13-3.26.39-1.36.33-2.68.8-4.12 1.22m15.07-12.5c.15-.51.31-1.03.47-1.53-1.55.28-3.04.54-4.29.77.99.28 2.19.63 3.41.96.11.03.27-.06.41-.2"/><path d="M30.73 31.25c.14.08.35.09.51.06 1.19-.22 2.38-.46 3.56-.7.19-.04.37-.11.49-.07-1.59-.54-3.2-1.02-4.77-1.62-1.99-.76-3.76-1.92-5.44-3.2-.8-.61-1.47-1.38-2.28-1.97a69 69 0 0 0-4.17-2.78c-1.09-.68-1.86-1.64-2.6-2.65-.24-.33-.41-.73-.71-1.26.78.24 1.42.41 2.04.64 2.41.91 4.62 2.18 6.64 3.76 1.01.77 1.91 1.67 2.89 2.48 1.6 1.31 3.41 2.3 5.34 3.02 1.47.55 3.02.99 4.57 1.25 1.63.27 3.29.35 4.97.2 2.16-.2 4.23-.65 6.24-1.41.62-.23 1.22-.49 1.95-.79-.6 8.16-4.1 14.69-10.81 19.18-8.23 5.53-17.13 6.16-25.86 1.47C3.55 41.63-.61 33.06.07 22.09c2.1-.65 4.14-1.05 6.25-1.22 3.35-.28 6.57.22 9.72 1.28 2.62.87 5 2.2 7.14 3.95 1.29 1.05 2.59 2.1 3.92 3.17 1.23.69 2.43 1.35 3.63 1.98m8.22 4.13c1.64.06 3.27.37 4.9.58.45.06.83.02 1.05-.46.18-.42.39-.82.61-1.27-.18-.08-.35-.2-.54-.25-.83-.22-1.67-.43-2.5-.64-2.49-.65-5.02-.66-7.52-.32-1.64.22-3.27.7-4.84 1.24-2.24.76-4.27 1.98-6.06 3.52-1.81 1.55-3.58 3.11-5.68 4.27-1.57.87-3.21 1.56-5.02 2.12 1.01.51 1.95.98 2.91 1.44.09.05.26.01.37-.04 1.77-.86 3.38-1.96 4.9-3.19 1.39-1.12 2.76-2.28 4.22-3.3 1.61-1.13 3.42-1.92 5.4-2.55 2.54-.8 5.14-1.25 7.8-1.15M2.41 23.94v1.81c.16 0 .31.03.45 0 2.21-.45 4.45-.49 6.68-.23 2.08.25 4.13.69 6.08 1.48 2.7 1.08 5.18 2.52 7.34 4.48.77.7 1.58 1.35 2.39 2 .12.1.38.14.5.08.61-.31 1.2-.66 1.84-1.02-2.01-1.01-3.67-2.39-5.28-3.85a19.7 19.7 0 0 0-4.17-2.9c-1.79-.93-3.64-1.67-5.73-2.1-3.39-.68-6.76-.6-10.1.25M32 38.85c-2.87.98-5.5 2.37-7.77 4.43-1.02.93-2.14 1.75-3.22 2.6-.39.31-.83.55-1.31.87.76.16 1.4.33 2.05.42.28.04.65 0 .86-.16.66-.49 1.25-1.06 1.87-1.59 2.15-1.83 4.59-3.2 7.27-4.07 1.59-.5 3.23-.87 4.87-1.11 1.48-.22 3-.24 4.5-.25.38-.01.64-.01.87-.31.37-.47.75-.94 1.21-1.51-1.38-.11-2.65-.24-3.93-.32-1.69-.11-3.36.08-5.12.42-.72.19-1.45.34-2.15.58M2.77 28.74c.08.45.16.9.25 1.37 7.24-.64 13.57 1.39 19 6.11.46-.36.91-.71 1.39-1.08-.62-.52-1.26-1-1.83-1.55-1.95-1.87-4.22-3.24-6.73-4.22-2.25-.89-4.58-1.49-7.01-1.48-1.5 0-3 .15-4.61.23-.38.04-.53.25-.46.62m.98 3.8c.26.59.49 1.19.76 1.76.07.14.29.27.45.29 1.33.19 2.67.3 3.99.52 3.25.52 6.18 1.88 8.89 3.68.51.33.78.28 1.16 0s.75-.59 1.14-.91c-.39-.31-.76-.63-1.16-.91-.84-.59-1.7-1.16-2.64-1.75-3.9-2.19-8.1-3.04-12.59-2.68m2.36 4.66c1.24 1.69 2.5 3.33 4.11 4.68.33.28.66.42 1 .31 1.56-.51 3.1-1.06 4.65-1.61 0 0-.02-.08-.1-.18-2.25-1.6-7.98-3.51-9.66-3.2m19.93 10.15c4.9-.3 9.11-1.89 12.8-4.89-1.1.06-2.21.13-3.26.39-1.36.33-2.68.8-4.12 1.22-1.89.84-3.71 1.79-5.42 3.28M47 30.04c-1.55.28-3.04.54-4.29.77.99.28 2.19.63 3.41.96.11.03.27-.06.41-.2.15-.51.31-1.03.47-1.53"/><path fill="none" d="M14.025 0H50v25.995H14.025z"/><path fill="#ff7133" d="M23.31 7.53c1.04-.38 2.01-1.05 3.08-1.18 2.47-.3 4.81.25 6.9 1.66.51.35.96.78 1.53 1.25-5.01 3.56-6.43 8.24-4.89 13.94-.05.04-.1.09-.16.13-.77-.48-1.59-.89-2.3-1.45-1.09-.87-2.14-1.8-3.15-2.76-1.78-1.67-3.8-2.95-6.07-3.82-1.08-.41-2.19-.75-3.31-1.02-.57-.14-.73-.47-.8-.95-.35-2.59.04-5.07 1.3-7.34C17.15 2.93 19.69.9 23.22.19c1.65-.33 3.26-.17 4.9 0 2.89.3 5.6 1.19 8.18 2.48 1.86.94 3.56 2.11 5.15 3.48 2.56 2.2 4.53 4.83 6.02 7.81 1.1 2.2 1.85 4.53 2.18 6.99.12.88.25 1.77.34 2.65.02.13-.13.33-.26.41-1.71.99-3.57 1.57-5.54 1.73-1.71.14-3.42.23-5.13.25-1.91.02-3.77-.38-5.57-1.01-.34-.11-.65-.5-.83-.83-.72-1.33-1.2-2.72-1.29-4.27-.12-2.21.33-4.23 1.53-6.07.76-1.16 1.76-2.1 3-2.76.7-.37 1.41-.73 2.12-1.1-5.56-7.59-15.26-7.32-19.6-.5 3 1.23 6 2.47 9 3.7.28-.57.56-1.15.85-1.75-2.14-.9-4.28-1.8-6.46-2.75-.04-.05-.05-.11-.05-.11 0-.04.05-.07.14-.11.41-.27.48-.32.72-.46.25-.14.38-.25.69-.44m18.54 8.88c-.99.39-1.43 1.25-1.06 2.04.43.92 1.4 1.21 2.25.69.63-.38.91-1.22.61-1.86-.35-.74-1.03-1.1-1.8-.87"/><path d="M26.39 6.35c2.47-.3 4.81.25 6.9 1.66.51.35.96.78 1.53 1.25-5.01 3.56-6.43 8.24-4.89 13.94-.05.04-.1.09-.16.13-.77-.48-1.59-.89-2.3-1.45-1.09-.87-2.14-1.8-3.15-2.76-1.78-1.67-3.8-2.95-6.07-3.82-1.08-.41-2.19-.75-3.31-1.02-.57-.14-.73-.47-.8-.95-.35-2.59.04-5.07 1.3-7.34C17.15 2.93 19.69.9 23.22.19c1.65-.33 3.26-.17 4.9 0 2.89.3 5.6 1.19 8.18 2.48 1.86.94 3.56 2.11 5.15 3.48 2.56 2.2 4.53 4.83 6.02 7.81 1.1 2.2 1.85 4.53 2.18 6.99.12.88.25 1.77.34 2.65.02.13-.13.33-.26.41-1.71.99-3.57 1.57-5.54 1.73-1.71.14-3.42.23-5.13.25-1.91.02-3.77-.38-5.57-1.01-.34-.11-.65-.5-.83-.83-.72-1.33-1.2-2.72-1.29-4.27-.12-2.21.33-4.23 1.53-6.07.76-1.16 1.76-2.1 3-2.76.7-.37 1.41-.73 2.12-1.1-5.56-7.59-15.26-7.32-19.6-.5 3 1.23 6 2.47 9 3.7.28-.57.56-1.15.85-1.75-2.14-.9-4.28-1.8-6.46-2.75-.04-.05-.05-.11-.05-.11 0-.04.05-.07.14-.11.41-.27.48-.32.72-.46.25-.14.38-.25.69-.44 1.04-.38 2.01-1.05 3.08-1.18m14.4 12.1c.43.92 1.4 1.21 2.25.69.63-.38.91-1.22.61-1.86-.35-.74-1.03-1.1-1.8-.87-.99.39-1.43 1.25-1.06 2.04"/><path fill="#ff7133" d="M13.81 19.15c-2.05-.46-4.07-.55-6.12-.5-2.31.05-4.51.58-6.67 1.37-.18.06-.37.1-.56.15a3 3 0 0 0-.19-.12c.4-1.3.74-2.62 1.2-3.9 1.06-2.91 2.65-5.52 4.72-7.83 2.46-2.73 5.39-4.82 8.74-6.33.15-.07.36-.03.66-.04-.25.39-.41.72-.64.99-1.58 1.83-2.47 4-2.89 6.34-.33 1.78-.28 3.59.14 5.38.33 1.43.82 2.79 1.57 4.05.08.12.06.29.04.44"/><path d="M7.69 18.65c-2.31.05-4.51.58-6.67 1.37-.18.06-.37.1-.56.15a3 3 0 0 0-.19-.12c.4-1.3.74-2.62 1.2-3.9 1.06-2.91 2.65-5.52 4.72-7.83 2.46-2.73 5.39-4.82 8.74-6.33.15-.07.36-.03.66-.04-.25.39-.41.72-.64.99-1.58 1.83-2.47 4-2.89 6.34-.33 1.78-.28 3.59.14 5.38.33 1.43.82 2.79 1.57 4.05.08.12.06.29.04.44-2.05-.46-4.07-.55-6.12-.5"/></svg>