<svg width="50" height="50" viewBox="0 0 50 50" fill="none" xmlns="http://www.w3.org/2000/svg">
<path d="M25.2794 45.4482C25.2205 45.4969 25.1715 45.5554 25.1127 45.6138V45.5456C25.1323 45.5359 25.1519 45.5261 25.1715 45.5067H25.1813C25.2107 45.4872 25.25 45.4677 25.2794 45.4482Z" fill="#D3DCFB"/>
<path d="M43.5378 37.1696C38.5074 36.9456 33.1927 39.0201 28.4565 42.6822C27.368 43.5198 26.309 44.4451 25.2892 45.4482H25.2794C25.2401 45.4677 25.2107 45.4872 25.1715 45.5164C26.2109 43.7243 27.3092 42.0589 28.4466 40.5297C31.8198 36.0008 35.5166 32.7381 39.0271 31.5206V16.7749C39.0173 15.2361 39.0173 13.6875 39.0173 12.1486V8.03854C40.5274 7.71713 42.0277 7.59052 43.5182 7.65869V19.7163C43.5378 25.5308 43.5378 31.3551 43.5378 37.1696Z" fill="#D3DCFB"/>
<path d="M25.0244 45.6042C25.0146 45.614 25.0146 45.614 25.0048 45.614V45.5846L25.0244 45.6042Z" fill="#BEC8F7"/>
<path d="M39.0369 16.7749V31.5109C35.5166 32.7283 31.8198 35.9911 28.4565 40.52C27.319 42.0491 26.2207 43.7243 25.1813 45.5067H25.1715C25.1519 45.5164 25.1323 45.5261 25.1127 45.5456C25.0931 45.5554 25.0734 45.5651 25.0538 45.5846V16.3853C25.044 16.3756 25.044 16.3756 25.0342 16.3756C25.0636 16.3561 25.0833 16.3367 25.1127 16.3269V16.1029C29.2605 8.97353 34.3007 3.63625 39.0369 2V12.1486C39.0271 13.6972 39.0271 15.2361 39.0369 16.7749Z" fill="#E9EFFF"/>
<path d="M46.607 13.0155V42.2439C46.5874 42.2342 46.5776 42.2342 46.558 42.2342C40.5078 40.6174 34.1144 41.3187 28.4466 43.812C27.368 44.2795 26.3188 44.8249 25.3088 45.4288L25.3186 45.4093C26.3188 44.4256 27.368 43.5101 28.4466 42.6822C33.1927 39.0201 38.4976 36.9456 43.5378 37.1696C43.5378 31.3551 43.5378 25.5308 43.528 19.7065V12.3824C44.5674 12.5382 45.5872 12.7427 46.607 13.0155ZM25.3186 45.4093L25.3088 45.4288C25.299 45.4288 25.2892 45.4385 25.2892 45.4385L25.3186 45.4093Z" fill="#BEC8F7"/>
<path d="M49.1565 16.7749H46.607V42.2439C46.5972 42.2342 46.5678 42.2342 46.558 42.2342V45.0586H30.1038L28.4467 44.2795V43.812C27.3582 44.2892 26.2992 44.8346 25.2794 45.4385H25.2696C25.2303 45.458 25.2009 45.4774 25.1617 45.5067H25.1519C25.1323 45.5164 25.1127 45.5261 25.0931 45.5456C25.0735 45.5554 25.0538 45.5651 25.0342 45.5846L25.0146 45.6041H25.0048L24.9852 45.5846C24.9754 45.5846 24.9754 45.5748 24.9754 45.5748L24.8871 45.5164C23.8085 44.8736 22.6906 44.299 21.5434 43.7925V44.2795L19.896 45.0586H3.45164V16.7749H0.853105C0.372621 16.7749 0 17.0963 0 17.5054V47.2695C0 47.6786 0.382426 48 0.853105 48H19.9646C20.5138 48 21.0629 47.8831 21.5336 47.6494L25.0048 46.0034L28.4761 47.6494C28.9566 47.8734 29.4959 48 30.045 48H49.1467C49.6272 48 49.9998 47.6786 49.9998 47.2695V17.5054C50.0096 17.0963 49.6272 16.7749 49.1565 16.7749Z" fill="#2A428C"/>
<path d="M21.5532 43.7925V44.2795L19.9058 45.0587H3.45164V42.2439C9.50183 40.6174 15.8952 41.3089 21.5532 43.7925ZM46.558 42.2342V45.0587H30.1038L28.4467 44.2795V43.812C34.1144 41.3187 40.5176 40.6174 46.558 42.2342Z" fill="#3C58A0"/>
<path d="M24.8969 45.5164C23.8183 44.8736 22.7004 44.299 21.5532 43.7925C15.8952 41.3089 9.50183 40.6174 3.44184 42.2439V13.0155C4.47145 12.733 5.52067 12.5187 6.5797 12.3726C6.56989 13.8433 6.56989 15.3043 6.56989 16.7749V19.7065C6.56989 25.5308 6.56989 31.3453 6.56009 37.1696C11.5611 36.9456 16.8268 38.9909 21.5434 42.6043C22.7103 43.4808 23.8281 44.4645 24.8969 45.5164Z" fill="#BEC8F7"/>
<path d="M25.0538 16.3853V45.5846L25.0342 45.6041H25.0244L25.0048 45.5846C24.995 45.5846 24.995 45.5748 24.995 45.5748L24.9068 45.5164C23.8281 44.4645 22.7103 43.4808 21.563 42.6043C16.8366 38.9909 11.5709 36.9456 6.56989 37.1696C6.5797 31.3551 6.5797 25.5308 6.5797 19.7065V16.7749C6.5797 15.3043 6.5797 13.8433 6.5895 12.3726V7.65869C12.8456 7.37624 19.5234 10.6585 25.0048 16.1029V16.3561L25.0244 16.3756H25.0342C25.044 16.3756 25.044 16.3756 25.0538 16.3853Z" fill="#D3DCFB"/>
<path d="M22.0336 21.4012C21.8571 21.4012 21.6806 21.3428 21.5237 21.2259C17.9152 18.3625 14.0223 16.5022 10.2863 15.8497C9.84503 15.7718 9.55085 15.353 9.6293 14.9147C9.70775 14.4764 10.1294 14.1842 10.5707 14.2621C14.5812 14.9536 18.7193 16.9308 22.5436 19.9695C22.8966 20.252 22.9554 20.7584 22.671 21.109C22.5043 21.2941 22.269 21.4012 22.0336 21.4012ZM22.0336 28.1897C21.8571 28.1897 21.6806 28.1313 21.5237 28.0144C17.9152 25.151 14.0223 23.2907 10.2863 22.6382C9.84503 22.5602 9.55085 22.1414 9.6293 21.7032C9.70775 21.2649 10.1294 20.9727 10.5707 21.0506C14.5812 21.7421 18.7193 23.7192 22.5436 26.758C22.8966 27.0404 22.9554 27.5469 22.671 27.8975C22.5043 28.0826 22.269 28.1897 22.0336 28.1897ZM22.0336 35.7476C21.8571 35.7476 21.6806 35.6892 21.5237 35.5723C17.9152 32.7089 14.0223 30.8486 10.2863 30.1961C9.84503 30.1181 9.55085 29.6993 9.6293 29.2611C9.70775 28.8228 10.1294 28.5306 10.5707 28.6085C14.5812 29.3 18.7193 31.2772 22.5436 34.3159C22.8966 34.5983 22.9554 35.1048 22.671 35.4554C22.5043 35.6405 22.269 35.7476 22.0336 35.7476Z" fill="#FD995B"/>
</svg>
