<svg width="50" height="50" viewBox="0 0 50 50" fill="none" xmlns="http://www.w3.org/2000/svg">
<path d="M47.5041 15.1279C47.0956 13.3649 46.162 11.7597 44.821 10.5149C43.4801 9.27014 41.792 8.44152 39.9698 8.13366C38.1475 7.82581 36.2728 8.05251 34.5823 8.78515C32.8917 9.5178 31.4611 10.7236 30.4709 12.2502H19.529C18.5388 10.7236 17.1081 9.51782 15.4176 8.78518C13.727 8.05255 11.8523 7.82585 10.0301 8.1337C8.20785 8.44156 6.51974 9.27017 5.17881 10.515C3.83789 11.7597 2.90424 13.3649 2.49571 15.1279C0.427128 24.0517 -3.2259 39.7994 5.90458 41.8226C10.8162 42.9107 14.1404 38.8522 16.4877 33.4825C16.6077 33.4885 16.7263 33.5003 16.8479 33.5003C17.7993 33.5007 18.741 33.3126 19.616 32.9473C20.4909 32.582 21.2811 32.047 21.9386 31.3748H28.0611C28.7187 32.047 29.5089 32.5818 30.3838 32.947C31.2588 33.3122 32.2005 33.5003 33.1519 33.4998C33.2735 33.4998 33.3921 33.4879 33.5122 33.482C35.8594 38.8519 39.1839 42.9102 44.0952 41.8221C53.2257 39.7993 49.5732 24.0517 47.5041 15.1279Z" fill="#2D4A60"/>
<path d="M14.674 15.4364H13.0446V13.844C13.0446 13.4213 12.8729 13.0159 12.5671 12.717C12.2613 12.4182 11.8466 12.2502 11.4142 12.2502C10.9818 12.2502 10.5671 12.4182 10.2614 12.717C9.9556 13.0159 9.78383 13.4213 9.78383 13.844V15.4364H8.15505C7.72264 15.4364 7.30794 15.6043 7.00218 15.9032C6.69642 16.202 6.52464 16.6074 6.52464 17.0301C6.52464 17.4528 6.69642 17.8581 7.00218 18.157C7.30794 18.4559 7.72264 18.6238 8.15505 18.6238H9.78383V20.2165C9.78383 20.6392 9.9556 21.0446 10.2614 21.3435C10.5671 21.6423 10.9818 21.8102 11.4142 21.8102C11.8466 21.8102 12.2613 21.6423 12.5671 21.3435C12.8729 21.0446 13.0446 20.6392 13.0446 20.2165V18.6238H14.674C15.1064 18.6238 15.5211 18.4559 15.8269 18.157C16.1327 17.8581 16.3044 17.4528 16.3044 17.0301C16.3044 16.6074 16.1327 16.202 15.8269 15.9032C15.5211 15.6043 15.1064 15.4364 14.674 15.4364Z" fill="#EAEFF0"/>
<path d="M15.2164 18.0939H13.0436V18.6238H14.674C14.9533 18.6234 15.2277 18.5525 15.4708 18.4182C15.7138 18.2838 15.9174 18.0905 16.0617 17.8568C15.8078 18.0107 15.5152 18.0928 15.2164 18.0939ZM10.3262 15.4377V13.314C10.3274 13.0218 10.4114 12.7356 10.569 12.4873C10.3298 12.6284 10.1319 12.8273 9.99435 13.065C9.85682 13.3026 9.78431 13.5709 9.78383 13.844V15.4377H10.3262ZM11.9566 21.2802C11.5242 21.2802 11.1095 21.1123 10.8038 20.8134C10.498 20.5146 10.3262 20.1092 10.3262 19.6865V18.0938H8.69747C8.4078 18.0952 8.12305 18.0207 7.87277 17.8782C7.62249 17.7356 7.41581 17.5302 7.2742 17.2832C7.13259 17.0361 7.0612 16.7566 7.06746 16.4735C7.07372 16.1904 7.15739 15.9141 7.30979 15.6733C7.00546 15.8531 6.76979 16.1255 6.63887 16.4486C6.50795 16.7718 6.48898 17.128 6.58486 17.4627C6.68075 17.7974 6.88622 18.0922 7.1698 18.3019C7.45339 18.5116 7.79946 18.6247 8.15505 18.6238H9.78383V20.2165C9.78295 20.5641 9.8986 20.9023 10.1131 21.1795C10.3275 21.4567 10.629 21.6575 10.9714 21.7513C11.3137 21.8451 11.6781 21.8266 12.0087 21.6988C12.3393 21.5709 12.6179 21.3406 12.8019 21.0433C12.548 21.1971 12.2554 21.2791 11.9566 21.2802Z" fill="#BAC2C6"/>
<path d="M38.5866 15.4377C39.487 15.4377 40.217 14.7241 40.217 13.844C40.217 12.9638 39.487 12.2502 38.5866 12.2502C37.6861 12.2502 36.9562 12.9638 36.9562 13.844C36.9562 14.7241 37.6861 15.4377 38.5866 15.4377Z" fill="#00CF66"/>
<path d="M38.5866 21.8125C39.487 21.8125 40.217 21.099 40.217 20.2188C40.217 19.3386 39.487 18.6251 38.5866 18.6251C37.6861 18.6251 36.9562 19.3386 36.9562 20.2188C36.9562 21.099 37.6861 21.8125 38.5866 21.8125Z" fill="#009AE0"/>
<path d="M41.8474 18.6251C42.7479 18.6251 43.4778 17.9116 43.4778 17.0314C43.4778 16.1512 42.7479 15.4377 41.8474 15.4377C40.947 15.4377 40.217 16.1512 40.217 17.0314C40.217 17.9116 40.947 18.6251 41.8474 18.6251Z" fill="#FD3730"/>
<path d="M35.3258 18.6251C36.2262 18.6251 36.9562 17.9116 36.9562 17.0314C36.9562 16.1512 36.2262 15.4377 35.3258 15.4377C34.4253 15.4377 33.6954 16.1512 33.6954 17.0314C33.6954 17.9116 34.4253 18.6251 35.3258 18.6251Z" fill="#FAC100"/>
<path d="M39.1301 14.9065C38.8406 14.9079 38.5559 14.8335 38.3056 14.691C38.0554 14.5486 37.8487 14.3433 37.7071 14.0964C37.5654 13.8495 37.4939 13.5701 37.5 13.2871C37.5062 13.0041 37.5896 12.7278 37.7418 12.487C37.5306 12.6117 37.3511 12.7818 37.2171 12.9843C37.083 13.1868 36.9978 13.4165 36.968 13.656C36.9382 13.8954 36.9645 14.1384 37.045 14.3664C37.1255 14.5945 37.258 14.8016 37.4325 14.9722C37.607 15.1428 37.8189 15.2723 38.0522 15.3509C38.2855 15.4296 38.5341 15.4553 38.7791 15.4262C39.024 15.397 39.259 15.3138 39.4662 15.1827C39.6734 15.0516 39.8473 14.8762 39.9749 14.6697C39.7211 14.8234 39.4287 14.9053 39.1301 14.9065Z" fill="#00B157"/>
<path d="M39.1301 21.2813C38.8406 21.2827 38.5559 21.2083 38.3056 21.0659C38.0554 20.9234 37.8487 20.7181 37.7071 20.4712C37.5654 20.2244 37.4939 19.9449 37.5 19.6619C37.5062 19.3789 37.5896 19.1027 37.7418 18.8619C37.5306 18.9866 37.3511 19.1566 37.2171 19.3591C37.083 19.5617 36.9978 19.7914 36.968 20.0308C36.9382 20.2703 36.9645 20.5132 37.045 20.7413C37.1255 20.9693 37.258 21.1765 37.4325 21.347C37.607 21.5176 37.8189 21.6471 38.0522 21.7258C38.2855 21.8044 38.5341 21.8302 38.7791 21.801C39.024 21.7719 39.259 21.6886 39.4662 21.5576C39.6734 21.4265 39.8473 21.2511 39.9749 21.0446C39.7211 21.1982 39.4287 21.2802 39.1301 21.2813Z" fill="#0081BD"/>
<path d="M42.3909 18.0939C42.1014 18.0953 41.8167 18.0209 41.5665 17.8785C41.3162 17.736 41.1096 17.5307 40.9679 17.2838C40.8262 17.0369 40.7547 16.7575 40.7609 16.4745C40.767 16.1915 40.8505 15.9153 41.0027 15.6744C40.7914 15.7991 40.6119 15.9692 40.4779 16.1717C40.3438 16.3742 40.2586 16.6039 40.2288 16.8434C40.199 17.0829 40.2254 17.3258 40.3058 17.5538C40.3863 17.7819 40.5188 17.989 40.6933 18.1596C40.8678 18.3302 41.0798 18.4597 41.3131 18.5383C41.5464 18.617 41.7949 18.6427 42.0399 18.6136C42.2849 18.5844 42.5198 18.5012 42.727 18.3701C42.9342 18.2391 43.1081 18.0636 43.2357 17.8571C42.9819 18.0108 42.6895 18.0928 42.3909 18.0939Z" fill="#D3241F"/>
<path d="M35.8693 18.0939C35.5798 18.0953 35.2951 18.0209 35.0448 17.8785C34.7946 17.736 34.5879 17.5307 34.4463 17.2838C34.3046 17.0369 34.2331 16.7575 34.2392 16.4745C34.2454 16.1915 34.3288 15.9153 34.481 15.6744C34.2698 15.7991 34.0903 15.9692 33.9563 16.1717C33.8222 16.3742 33.737 16.6039 33.7072 16.8434C33.6774 17.0829 33.7037 17.3258 33.7842 17.5538C33.8647 17.7819 33.9972 17.989 34.1717 18.1596C34.3462 18.3302 34.5581 18.4597 34.7914 18.5383C35.0247 18.617 35.2733 18.6427 35.5183 18.6136C35.7632 18.5844 35.9982 18.5012 36.2054 18.3701C36.4126 18.2391 36.5865 18.0636 36.7141 17.8571C36.4603 18.0108 36.1679 18.0928 35.8693 18.0939Z" fill="#FF9500"/>
<path d="M16.8479 30.3123C18.9489 30.3123 20.6521 28.6474 20.6521 26.5937C20.6521 24.5399 18.9489 22.875 16.8479 22.875C14.7468 22.875 13.0436 24.5399 13.0436 26.5937C13.0436 28.6474 14.7468 30.3123 16.8479 30.3123Z" fill="#8FA5A5"/>
<path d="M16.8479 30.3123C18.9489 30.3123 20.6521 28.6474 20.6521 26.5937C20.6521 24.5399 18.9489 22.875 16.8479 22.875C14.7468 22.875 13.0436 24.5399 13.0436 26.5937C13.0436 28.6474 14.7468 30.3123 16.8479 30.3123Z" fill="#7B8C8C"/>
<path d="M33.1519 30.3123C35.253 30.3123 36.9562 28.6474 36.9562 26.5937C36.9562 24.5399 35.253 22.875 33.1519 22.875C31.0509 22.875 29.3477 24.5399 29.3477 26.5937C29.3477 28.6474 31.0509 30.3123 33.1519 30.3123Z" fill="#7B8C8C"/>
<path d="M17.9349 27.1249C18.8353 27.1249 19.5653 26.4114 19.5653 25.5312C19.5653 24.651 18.8353 23.9375 17.9349 23.9375C17.0344 23.9375 16.3044 24.651 16.3044 25.5312C16.3044 26.4114 17.0344 27.1249 17.9349 27.1249Z" fill="#8FA5A5"/>
<path d="M34.2389 27.1249C35.1394 27.1249 35.8693 26.4114 35.8693 25.5312C35.8693 24.651 35.1394 23.9375 34.2389 23.9375C33.3385 23.9375 32.6085 24.651 32.6085 25.5312C32.6085 26.4114 33.3385 27.1249 34.2389 27.1249Z" fill="#8FA5A5"/>
<path d="M23.3696 19.6876H20.1087C19.8085 19.6876 19.5652 19.9254 19.5652 20.2188V21.2813C19.5652 21.5747 19.8085 21.8125 20.1087 21.8125H23.3696C23.6697 21.8125 23.913 21.5747 23.913 21.2813V20.2188C23.913 19.9254 23.6697 19.6876 23.3696 19.6876Z" fill="#EAEFF0"/>
<path d="M29.8912 19.6876H26.6303C26.3302 19.6876 26.0869 19.9254 26.0869 20.2188V21.2813C26.0869 21.5747 26.3302 21.8125 26.6303 21.8125H29.8912C30.1914 21.8125 30.4347 21.5747 30.4347 21.2813V20.2188C30.4347 19.9254 30.1914 19.6876 29.8912 19.6876Z" fill="#EAEFF0"/>
<path d="M20.1087 21.2813V20.2188C20.1087 20.0779 20.1659 19.9428 20.2678 19.8432C20.3698 19.7436 20.508 19.6876 20.6521 19.6876H20.1087C19.9646 19.6876 19.8263 19.7436 19.7244 19.8432C19.6225 19.9428 19.5652 20.0779 19.5652 20.2188V21.2813C19.5653 21.4222 19.6225 21.5573 19.7244 21.6569C19.8264 21.7565 19.9646 21.8125 20.1087 21.8125H20.6521C20.508 21.8125 20.3698 21.7565 20.2679 21.6569C20.166 21.5573 20.1087 21.4222 20.1087 21.2813ZM26.6303 21.2813V20.2188C26.6303 20.0779 26.6876 19.9428 26.7895 19.8432C26.8914 19.7436 27.0296 19.6876 27.1737 19.6876H26.6303C26.5589 19.6876 26.4883 19.7013 26.4223 19.728C26.3564 19.7547 26.2965 19.7939 26.246 19.8432C26.1956 19.8925 26.1555 19.9511 26.1282 20.0155C26.1009 20.08 26.0869 20.1491 26.0869 20.2188V21.2813C26.0869 21.4222 26.1442 21.5573 26.2461 21.6569C26.348 21.7565 26.4862 21.8125 26.6303 21.8125H27.1737C27.0296 21.8125 26.8914 21.7565 26.7895 21.6569C26.6876 21.5573 26.6303 21.4222 26.6303 21.2813Z" fill="#BAC2C6"/>
</svg>
