<svg width="50" height="50" viewBox="0 0 50 50" fill="none" xmlns="http://www.w3.org/2000/svg">
<path d="M48.4269 10.2052H43.9154L44.9212 5.89603C45.1458 4.92886 44.3939 4.00958 43.388 4.00958H36.6109C35.8785 4.00958 35.234 4.50752 35.0778 5.20657L33.9157 10.2052H23.0079L24.0137 5.88646C24.2383 4.91929 23.4864 4 22.4806 4H15.7034C14.971 4 14.3265 4.49795 14.1703 5.19699L12.9985 10.2052H7.7545C7.0221 10.2052 6.37759 10.7031 6.22135 11.4022L4.6882 17.9042C4.4636 18.8714 5.21552 19.7907 6.22135 19.7907H10.7427L8.32088 30.2189H3.08669C2.35429 30.2189 1.70978 30.7168 1.55354 31.4159L0.0399196 37.9083C-0.184682 38.8755 0.567245 39.7948 1.57307 39.7948H6.08463L5.07881 44.104C4.85421 45.0711 5.60613 45.9904 6.61196 45.9904H13.3891C14.1215 45.9904 14.766 45.4925 14.9222 44.7934L16.0843 39.7948H26.9921L25.9863 44.1135C25.7617 45.0807 26.5136 46 27.5194 46H34.2966C35.029 46 35.6735 45.5021 35.8297 44.803L37.0015 39.7948H42.2455C42.9779 39.7948 43.6224 39.2969 43.7787 38.5978L45.2825 32.1149C45.5071 31.1477 44.7552 30.2285 43.7494 30.2285H39.228L41.6596 19.8003H46.8938C47.6262 19.8003 48.2707 19.3023 48.4269 18.6033L49.9308 12.1204C50.1847 11.1245 49.4328 10.2052 48.4269 10.2052ZM29.2381 30.2093H18.3303L20.7619 19.7811H31.6697L29.2381 30.2093Z" fill="url(#paint0_linear_28_48)"/>
<path d="M22.9883 10.2148H12.9789V10.2244H7.73497C7.00257 10.2244 6.35806 10.7223 6.20182 11.4213L4.6882 17.9042C4.4636 18.8714 5.21552 19.7907 6.22135 19.7907H31.6599L33.8864 10.2148H22.9883Z" fill="url(#paint1_linear_28_48)"/>
<path d="M10.7427 19.7907L8.32088 30.2189L6.0944 39.7948L5.08857 44.104C4.86397 45.0711 5.6159 45.9904 6.62172 45.9904H13.3988C14.1312 45.9904 14.7757 45.4925 14.932 44.7934L16.0941 39.7948L18.3205 30.2189L20.7521 19.7907H10.7427Z" fill="url(#paint2_linear_28_48)"/>
<path d="M20.7619 19.7907H10.7427L8.32088 30.2189H18.3303L20.7619 19.7907Z" fill="url(#paint3_linear_28_48)"/>
<path d="M23.9942 5.89603C24.2188 4.92886 23.4668 4.00957 22.461 4.00957H15.6839C14.9515 4.00957 14.307 4.50752 14.1508 5.20657L12.9789 10.2148H22.9883L23.9942 5.89603Z" fill="url(#paint4_linear_28_48)"/>
<path d="M23.9942 5.89603C24.2188 4.92886 23.4668 4.00957 22.461 4.00957H15.6839C14.9515 4.00957 14.307 4.50752 14.1508 5.20657L12.9789 10.2148H22.9883L23.9942 5.89603Z" fill="url(#paint5_linear_28_48)"/>
<path d="M27.0116 39.7852H37.0211V39.7757H42.265C42.9974 39.7757 43.6419 39.2777 43.7982 38.5787L45.302 32.0958C45.5169 31.1669 44.8333 30.2859 43.8861 30.2093H18.3205L16.0941 39.7852H27.0116Z" fill="url(#paint6_linear_28_48)"/>
<path d="M18.3303 30.2189L16.1038 39.7852H27.0117L29.2381 30.2093L18.3303 30.2189Z" fill="url(#paint7_linear_28_48)"/>
<path d="M3.08669 30.2285C2.35429 30.2285 1.70978 30.7264 1.55354 31.4254L0.0399196 37.9083C-0.184682 38.8755 0.567245 39.7948 1.57307 39.7948H6.08463L8.31112 30.2189L3.08669 30.2285Z" fill="url(#paint8_linear_28_48)"/>
<path d="M6.08463 39.7852L5.07881 44.104C4.8542 45.0711 5.60613 45.9904 6.61196 45.9904H13.3891C14.1215 45.9904 14.766 45.4925 14.9222 44.7934L16.0843 39.7948L6.08463 39.7852Z" fill="url(#paint9_linear_28_48)"/>
<path d="M43.7982 38.5787L45.302 32.0958C45.5169 31.1669 44.8333 30.2859 43.8861 30.2093H39.2476L37.0211 39.7757H42.265C42.9974 39.7757 43.6322 39.2777 43.7982 38.5787Z" fill="url(#paint10_linear_28_48)"/>
<path d="M25.9277 39.7852H27.0117L26.0058 44.104C25.7812 45.0711 26.5332 45.9904 27.539 45.9904H34.3161C35.0485 45.9904 35.693 45.4925 35.8492 44.7934L37.0211 39.7852H25.9277Z" fill="url(#paint11_linear_28_48)"/>
<path d="M25.9277 39.7852H27.0117L26.0058 44.104C25.7812 45.0711 26.5332 45.9904 27.539 45.9904H34.3161C35.0485 45.9904 35.693 45.4925 35.8492 44.7934L37.0211 39.7852H25.9277Z" fill="url(#paint12_linear_28_48)"/>
<path d="M25.9277 39.7852H27.0117L26.0058 44.104C25.7812 45.0711 26.5332 45.9904 27.539 45.9904H34.3161C35.0485 45.9904 35.693 45.4925 35.8492 44.7934L37.0211 39.7852H25.9277Z" fill="url(#paint13_linear_28_48)"/>
<path d="M43.9154 10.2052L44.9212 5.89603C45.1458 4.92886 44.3939 4.00957 43.388 4.00957H36.6109C35.8785 4.00957 35.234 4.50752 35.0778 5.20657L33.9157 10.2052L31.6892 19.7811L29.2577 30.2093H39.2671L39.2769 30.1997H39.2573L41.6889 19.7715L43.9154 10.2052Z" fill="url(#paint14_linear_28_48)"/>
<path d="M29.2381 30.2093L39.2476 30.2189L41.6791 19.7811H31.6697L29.2381 30.2093Z" fill="url(#paint15_linear_28_48)"/>
<path d="M48.4269 10.2052H43.9154L41.6889 19.7811H46.9231C47.6555 19.7811 48.3 19.2832 48.4562 18.5841L49.9601 12.1012C50.1847 11.1245 49.4327 10.2052 48.4269 10.2052Z" fill="url(#paint16_linear_28_48)"/>
<path d="M48.4269 10.2052H43.9154L41.6889 19.7811H46.9231C47.6555 19.7811 48.3 19.2832 48.4562 18.5841L49.9601 12.1012C50.1847 11.1245 49.4327 10.2052 48.4269 10.2052Z" fill="url(#paint17_linear_28_48)"/>
<path d="M48.4269 10.2052H43.9154L41.6889 19.7811H46.9231C47.6555 19.7811 48.3 19.2832 48.4562 18.5841L49.9601 12.1012C50.1847 11.1245 49.4327 10.2052 48.4269 10.2052Z" fill="url(#paint18_linear_28_48)"/>
<path d="M31.6697 19.7811L33.8962 10.2148H22.9883L20.7619 19.7907L31.6697 19.7811Z" fill="url(#paint19_linear_28_48)"/>
<defs>
<linearGradient id="paint0_linear_28_48" x1="2.85467" y1="3.2841" x2="40.599" y2="41.7748" gradientUnits="userSpaceOnUse">
<stop stop-color="#FF4565"/>
<stop offset="0.27" stop-color="#FA4362"/>
<stop offset="0.55" stop-color="#EE3D5A"/>
<stop offset="0.834" stop-color="#D9344D"/>
<stop offset="1" stop-color="#CA2E43"/>
</linearGradient>
<linearGradient id="paint1_linear_28_48" x1="19.2766" y1="15.2889" x2="19.2766" y2="21.229" gradientUnits="userSpaceOnUse">
<stop stop-color="#6D3326" stop-opacity="0"/>
<stop offset="0.241" stop-color="#6A3124" stop-opacity="0.063"/>
<stop offset="0.492" stop-color="#622E1F" stop-opacity="0.252"/>
<stop offset="0.746" stop-color="#542816" stop-opacity="0.565"/>
<stop offset="1" stop-color="#42210B"/>
</linearGradient>
<linearGradient id="paint2_linear_28_48" x1="13.1038" y1="32.7882" x2="18.6817" y2="33.961" gradientUnits="userSpaceOnUse">
<stop stop-color="#6D3326" stop-opacity="0"/>
<stop offset="0.241" stop-color="#6A3124" stop-opacity="0.063"/>
<stop offset="0.492" stop-color="#622E1F" stop-opacity="0.252"/>
<stop offset="0.746" stop-color="#542816" stop-opacity="0.565"/>
<stop offset="1" stop-color="#42210B"/>
</linearGradient>
<linearGradient id="paint3_linear_28_48" x1="14.5384" y1="23.5351" x2="14.5384" y2="19.1166" gradientUnits="userSpaceOnUse">
<stop stop-color="#6D3326" stop-opacity="0"/>
<stop offset="0.241" stop-color="#6A3124" stop-opacity="0.063"/>
<stop offset="0.492" stop-color="#622E1F" stop-opacity="0.252"/>
<stop offset="0.746" stop-color="#542816" stop-opacity="0.565"/>
<stop offset="1" stop-color="#42210B"/>
</linearGradient>
<linearGradient id="paint4_linear_28_48" x1="18.7362" y1="7.31155" x2="24.8306" y2="8.66008" gradientUnits="userSpaceOnUse">
<stop stop-color="#6D3326" stop-opacity="0"/>
<stop offset="0.241" stop-color="#6A3124" stop-opacity="0.063"/>
<stop offset="0.492" stop-color="#622E1F" stop-opacity="0.252"/>
<stop offset="0.746" stop-color="#542816" stop-opacity="0.565"/>
<stop offset="1" stop-color="#42210B"/>
</linearGradient>
<linearGradient id="paint5_linear_28_48" x1="18.5072" y1="8.00293" x2="18.5072" y2="11.6194" gradientUnits="userSpaceOnUse">
<stop stop-color="#6D3326" stop-opacity="0"/>
<stop offset="0.241" stop-color="#6A3124" stop-opacity="0.063"/>
<stop offset="0.492" stop-color="#622E1F" stop-opacity="0.252"/>
<stop offset="0.746" stop-color="#542816" stop-opacity="0.565"/>
<stop offset="1" stop-color="#42210B"/>
</linearGradient>
<linearGradient id="paint6_linear_28_48" x1="30.7234" y1="36.0172" x2="30.7234" y2="40.9904" gradientUnits="userSpaceOnUse">
<stop stop-color="#6D3326" stop-opacity="0"/>
<stop offset="0.241" stop-color="#6A3124" stop-opacity="0.063"/>
<stop offset="0.492" stop-color="#622E1F" stop-opacity="0.252"/>
<stop offset="0.746" stop-color="#542816" stop-opacity="0.565"/>
<stop offset="1" stop-color="#42210B"/>
</linearGradient>
<linearGradient id="paint7_linear_28_48" x1="21.9017" y1="34.8462" x2="15.7488" y2="33.556" gradientUnits="userSpaceOnUse">
<stop stop-color="#6D3326" stop-opacity="0"/>
<stop offset="0.241" stop-color="#6A3124" stop-opacity="0.063"/>
<stop offset="0.492" stop-color="#622E1F" stop-opacity="0.252"/>
<stop offset="0.746" stop-color="#542816" stop-opacity="0.565"/>
<stop offset="1" stop-color="#42210B"/>
</linearGradient>
<linearGradient id="paint8_linear_28_48" x1="3.29899" y1="34.624" x2="7.8383" y2="35.7959" gradientUnits="userSpaceOnUse">
<stop stop-color="#6D3326" stop-opacity="0"/>
<stop offset="0.241" stop-color="#6A3124" stop-opacity="0.063"/>
<stop offset="0.492" stop-color="#622E1F" stop-opacity="0.252"/>
<stop offset="0.746" stop-color="#542816" stop-opacity="0.565"/>
<stop offset="1" stop-color="#42210B"/>
</linearGradient>
<linearGradient id="paint9_linear_28_48" x1="10.5707" y1="43.755" x2="10.5707" y2="46.7676" gradientUnits="userSpaceOnUse">
<stop stop-color="#6D3326" stop-opacity="0"/>
<stop offset="0.241" stop-color="#6A3124" stop-opacity="0.063"/>
<stop offset="0.492" stop-color="#622E1F" stop-opacity="0.252"/>
<stop offset="0.746" stop-color="#542816" stop-opacity="0.565"/>
<stop offset="1" stop-color="#42210B"/>
</linearGradient>
<linearGradient id="paint10_linear_28_48" x1="41.9148" y1="35.3428" x2="45.1327" y2="36.1632" gradientUnits="userSpaceOnUse">
<stop stop-color="#6D3326" stop-opacity="0"/>
<stop offset="0.241" stop-color="#6A3124" stop-opacity="0.063"/>
<stop offset="0.492" stop-color="#622E1F" stop-opacity="0.252"/>
<stop offset="0.746" stop-color="#542816" stop-opacity="0.565"/>
<stop offset="1" stop-color="#42210B"/>
</linearGradient>
<linearGradient id="paint11_linear_28_48" x1="31.476" y1="43.6986" x2="31.476" y2="46.6378" gradientUnits="userSpaceOnUse">
<stop stop-color="#6D3326" stop-opacity="0"/>
<stop offset="0.241" stop-color="#6A3124" stop-opacity="0.063"/>
<stop offset="0.492" stop-color="#622E1F" stop-opacity="0.252"/>
<stop offset="0.746" stop-color="#542816" stop-opacity="0.565"/>
<stop offset="1" stop-color="#42210B"/>
</linearGradient>
<linearGradient id="paint12_linear_28_48" x1="31.4867" y1="42.6962" x2="36.9422" y2="44.2774" gradientUnits="userSpaceOnUse">
<stop stop-color="#6D3326" stop-opacity="0"/>
<stop offset="0.241" stop-color="#6A3124" stop-opacity="0.063"/>
<stop offset="0.492" stop-color="#622E1F" stop-opacity="0.252"/>
<stop offset="0.746" stop-color="#542816" stop-opacity="0.565"/>
<stop offset="1" stop-color="#42210B"/>
</linearGradient>
<linearGradient id="paint13_linear_28_48" x1="31.476" y1="43.3032" x2="31.476" y2="39.5173" gradientUnits="userSpaceOnUse">
<stop stop-color="#6D3326" stop-opacity="0"/>
<stop offset="0.241" stop-color="#6A3124" stop-opacity="0.063"/>
<stop offset="0.492" stop-color="#622E1F" stop-opacity="0.252"/>
<stop offset="0.746" stop-color="#542816" stop-opacity="0.565"/>
<stop offset="1" stop-color="#42210B"/>
</linearGradient>
<linearGradient id="paint14_linear_28_48" x1="38.2375" y1="17.5435" x2="43.2375" y2="18.7743" gradientUnits="userSpaceOnUse">
<stop stop-color="#6D3326" stop-opacity="0"/>
<stop offset="0.241" stop-color="#6A3124" stop-opacity="0.063"/>
<stop offset="0.492" stop-color="#622E1F" stop-opacity="0.252"/>
<stop offset="0.746" stop-color="#542816" stop-opacity="0.565"/>
<stop offset="1" stop-color="#42210B"/>
</linearGradient>
<linearGradient id="paint15_linear_28_48" x1="35.4616" y1="26.9239" x2="35.4616" y2="32.2358" gradientUnits="userSpaceOnUse">
<stop stop-color="#6D3326" stop-opacity="0"/>
<stop offset="0.241" stop-color="#6A3124" stop-opacity="0.063"/>
<stop offset="0.492" stop-color="#622E1F" stop-opacity="0.252"/>
<stop offset="0.746" stop-color="#542816" stop-opacity="0.565"/>
<stop offset="1" stop-color="#42210B"/>
</linearGradient>
<linearGradient id="paint16_linear_28_48" x1="45.841" y1="16.5879" x2="45.841" y2="20.3827" gradientUnits="userSpaceOnUse">
<stop stop-color="#6D3326" stop-opacity="0"/>
<stop offset="0.241" stop-color="#6A3124" stop-opacity="0.063"/>
<stop offset="0.492" stop-color="#622E1F" stop-opacity="0.252"/>
<stop offset="0.746" stop-color="#542816" stop-opacity="0.565"/>
<stop offset="1" stop-color="#42210B"/>
</linearGradient>
<linearGradient id="paint17_linear_28_48" x1="45.8276" y1="15.1843" x2="49.6741" y2="16.3552" gradientUnits="userSpaceOnUse">
<stop stop-color="#6D3326" stop-opacity="0"/>
<stop offset="0.241" stop-color="#6A3124" stop-opacity="0.063"/>
<stop offset="0.492" stop-color="#622E1F" stop-opacity="0.252"/>
<stop offset="0.746" stop-color="#542816" stop-opacity="0.565"/>
<stop offset="1" stop-color="#42210B"/>
</linearGradient>
<linearGradient id="paint18_linear_28_48" x1="47.3577" y1="15.3853" x2="42.238" y2="14.4467" gradientUnits="userSpaceOnUse">
<stop stop-color="#6D3326" stop-opacity="0"/>
<stop offset="0.241" stop-color="#6A3124" stop-opacity="0.063"/>
<stop offset="0.492" stop-color="#622E1F" stop-opacity="0.252"/>
<stop offset="0.746" stop-color="#542816" stop-opacity="0.565"/>
<stop offset="1" stop-color="#42210B"/>
</linearGradient>
<linearGradient id="paint19_linear_28_48" x1="28.5061" y1="15.1726" x2="33.858" y2="15.9942" gradientUnits="userSpaceOnUse">
<stop stop-color="#6D3326" stop-opacity="0"/>
<stop offset="0.241" stop-color="#6A3124" stop-opacity="0.063"/>
<stop offset="0.492" stop-color="#622E1F" stop-opacity="0.252"/>
<stop offset="0.746" stop-color="#542816" stop-opacity="0.565"/>
<stop offset="1" stop-color="#42210B"/>
</linearGradient>
</defs>
</svg>
