<svg width="50" height="50" viewBox="0 0 50 50" fill="none" xmlns="http://www.w3.org/2000/svg">
<path d="M7.66667 0L5 1.34591V31.0847L42.3333 49.9977L45 48.6517V18.913L7.66667 0ZM11.6667 29.0483L10.3333 28.3812V27.0235L11.6667 27.7024V29.0483ZM11.6667 22.2953L10.3333 21.6165V20.2706L11.6667 20.9494V22.2953ZM11.6667 15.5423L10.3333 14.8635V13.5176L11.6667 14.1847V15.5423ZM11.6667 8.77768L10.3333 8.11057V6.75296L11.6667 7.43177V8.77768ZM39.6667 43.2447L38.3333 42.5659V41.22L39.6667 41.8871V43.2447ZM39.6667 36.48L38.3333 35.8129V34.4553L39.6667 35.1341V36.48ZM39.6667 29.7271L38.3333 29.0483V27.7024L39.6667 28.3812V29.7271ZM39.6667 22.9741L38.3333 22.2953V20.9494L39.6667 21.6165V22.9741Z" fill="#5274D9"/>
<path d="M5 1.34942V31.08L42.3333 50V20.2694L5 1.34942ZM11.6667 31.7565L7.66667 29.7294V25.6753L11.6667 27.7024V31.7565ZM11.6667 18.2412L7.66667 16.2141V12.16L11.6667 14.1871V18.2412ZM11.6667 24.9988L7.66667 22.9718V18.9177L11.6667 20.9447V24.9988ZM11.6667 11.4847L7.66667 9.45765V5.40354L11.6667 7.43059V11.4847ZM39.6667 45.9459L35.6667 43.9188V39.8647L39.6667 41.8918V45.9459ZM39.6667 32.4318L35.6667 30.4047V26.3506L39.6667 28.3776V32.4318ZM39.6667 39.1882L35.6667 37.1612V33.1071L39.6667 35.1341V39.1882ZM39.6667 25.6741L35.6667 23.6471V19.5929L39.6667 21.62V25.6741Z" fill="#6189FF"/>
<path d="M45 48.6482L42.3333 50V20.2694L45 18.9177V48.6482Z" fill="#4460B3"/>
<path d="M7.66667 5.40354V9.45766L10.3333 8.1059V6.7553L7.66667 5.40354Z" fill="#4460B3"/>
<path d="M7.66667 12.16V16.2141L10.3333 14.8635V13.5118L7.66667 12.16Z" fill="#4460B3"/>
<path d="M7.66667 18.9177V22.9718L10.3333 21.62V20.2694L7.66667 18.9177Z" fill="#4460B3"/>
<path d="M7.66667 25.6741V29.7282L10.3333 28.3777V27.0259L7.66667 25.6741Z" fill="#4460B3"/>
<path d="M35.6667 19.5929V23.6471L38.3333 22.2965V20.9447L35.6667 19.5929Z" fill="#4460B3"/>
<path d="M35.6667 26.3506V30.4047L38.3333 29.0529V27.7012L35.6667 26.3506Z" fill="#4460B3"/>
<path d="M35.6667 33.1071V37.1612L38.3333 35.8106V34.4588L35.6667 33.1071Z" fill="#4460B3"/>
<path d="M35.6667 39.8647V43.9188L38.3333 42.5671V41.2153L35.6667 39.8647Z" fill="#4460B3"/>
<path d="M18.3333 16.2141V29.7282L29 28.3776L18.3333 16.2141Z" fill="#66E1FF"/>
</svg>
