<svg width="50" height="50" viewBox="0 0 50 50" fill="none" xmlns="http://www.w3.org/2000/svg">
<g clip-path="url(#clip0_141_18)">
<path d="M39.2119 0H10.7881C4.82999 0 0 4.82999 0 10.7881V39.2119C0 45.17 4.82999 50 10.7881 50H39.2119C45.17 50 50 45.17 50 39.2119V10.7881C50 4.82999 45.17 0 39.2119 0Z" fill="#F9D266"/>
<path d="M49.5225 42.3936C48.8419 44.5965 47.4736 46.5236 45.6182 47.8925C43.7627 49.2613 41.5176 49.9999 39.2119 50H10.7881C7.92691 50 5.18292 48.8634 3.15976 46.8402C1.1366 44.8171 0 42.0731 0 39.2119L0 10.7881C0.000124427 8.48236 0.738713 6.23729 2.10754 4.38185C3.47636 2.5264 5.40346 1.15814 7.60645 0.477539C7.28883 1.50819 7.12785 2.5807 7.12891 3.65918V32.083C7.12891 33.4997 7.40795 34.9026 7.9501 36.2114C8.49225 37.5203 9.2869 38.7096 10.2887 39.7113C12.3118 41.7345 15.0558 42.8711 17.917 42.8711H46.3408C47.4193 42.8721 48.4918 42.7112 49.5225 42.3936Z" fill="#FFB448"/>
<path d="M20.5225 29.4092C21.4111 30.8447 22.9834 31.46 24.4189 31.46C26.0596 31.46 27.4609 30.6787 27.4609 29.375C27.4609 28.1445 26.5723 27.0508 24.8291 27.0508H21.0693V22.168H24.6924C26.2646 22.168 26.8115 20.2197 26.1279 19.1943C25.0342 17.4854 22.0605 17.9297 20.5566 19.6387L17.002 16.4941C18.9844 14.0332 21.8896 12.5635 24.624 12.5635C27.5977 12.5635 30.6055 13.5889 31.9043 16.8018C32.8613 19.1943 32.6562 22.6465 30.1953 24.1846C32.6562 25.4541 33.4424 27.9785 33.4424 29.8584C33.4424 34.5752 29.1016 37.4463 24.6582 37.4463C21.5479 37.4463 18.3691 36.1133 16.5576 33.0713L20.5225 29.4092Z" fill="#91632C"/>
</g>
<defs>
<clipPath id="clip0_141_18">
<rect width="50" height="50" fill="white"/>
</clipPath>
</defs>
</svg>
