<svg width="50" height="50" viewBox="0 0 50 50" fill="none" xmlns="http://www.w3.org/2000/svg">
<g clip-path="url(#clip0_141_10)">
<path d="M39.2119 0H10.7881C4.82999 0 0 4.82999 0 10.7881V39.2119C0 45.17 4.82999 50 10.7881 50H39.2119C45.17 50 50 45.17 50 39.2119V10.7881C50 4.82999 45.17 0 39.2119 0Z" fill="#F9D266"/>
<path d="M49.5225 42.3936C48.8419 44.5965 47.4736 46.5236 45.6182 47.8925C43.7627 49.2613 41.5176 49.9999 39.2119 50H10.7881C7.92691 50 5.18292 48.8634 3.15976 46.8402C1.1366 44.8171 0 42.0731 0 39.2119L0 10.7881C0.000124427 8.48236 0.738713 6.23729 2.10754 4.38185C3.47636 2.5264 5.40346 1.15814 7.60645 0.477539C7.28883 1.50819 7.12785 2.5807 7.12891 3.65918V32.083C7.12891 33.4997 7.40795 34.9026 7.9501 36.2114C8.49225 37.5203 9.2869 38.7096 10.2887 39.7113C12.3118 41.7345 15.0558 42.8711 17.917 42.8711H46.3408C47.4193 42.8721 48.4918 42.7112 49.5225 42.3936Z" fill="#FFB448"/>
<path d="M16.8994 18.249C18.8818 14.4551 22.1631 12.7461 25.4785 12.7461C30.8105 12.7461 33.584 16.4033 33.584 20.1973C33.584 22.4531 32.7637 24.915 30.5762 26.9658L25.2441 32.0244L28.0762 31.4453H33.5449V37.2559H17.959L16.4209 34.0771L26.2695 23C29.5166 19.3428 24.1504 15.8564 21.4844 20.7441L16.8994 18.249Z" fill="#91632C"/>
</g>
<defs>
<clipPath id="clip0_141_10">
<rect width="50" height="50" fill="white"/>
</clipPath>
</defs>
</svg>
