<svg width="50" height="50" viewBox="0 0 50 50" fill="none" xmlns="http://www.w3.org/2000/svg">
<path opacity="0.35" d="M7.25315 47C3.83421 47 1.05263 44.2421 1.05263 40.8531V10.1306C1.05263 8.48743 1.69894 6.94271 2.87158 5.78143C4.0421 4.62172 5.59789 3.98372 7.25315 3.98372L43.8068 4.02352C47.2216 4.02719 50 6.78505 50 10.1704V40.8526C50 44.2421 47.2184 47 43.7995 47H7.25315Z" fill="black"/>
<path d="M6.20053 45.9524C2.78158 45.9524 0 43.1987 0 39.8144V9.138C0 7.4969 0.646316 5.95481 1.81895 4.7951C2.98947 3.63748 4.54526 3 6.2 3L42.7537 3.03929C46.169 3.04348 48.9474 5.79714 48.9474 9.17781V39.8144C48.9474 43.1987 46.1658 45.9524 42.7468 45.9524H6.20053Z" fill="#F2F2F2"/>
<path d="M3.6842 33.8058V39.3513C3.6842 40.9175 4.95999 42.1867 6.53315 42.1867H42.4142C43.9879 42.1867 45.2632 40.917 45.2632 39.3513V33.8058H3.6842Z" fill="#707CC0"/>
<path d="M4.21053 7.09148V37.5149C4.21053 38.1246 4.70579 38.619 5.31631 38.619H43.6305C44.2416 38.619 44.7368 38.1246 44.7368 37.5149V7.09148H4.21053Z" fill="#9AA2E6"/>
<path d="M42.7532 43.3333H6.19421C4.22947 43.3333 2.63158 41.7509 2.63158 39.806V9.14638C2.63158 8.20666 3 7.323 3.67 6.65724C4.34368 5.98781 5.24 5.61905 6.19421 5.61905C6.19579 5.61905 6.19684 5.61905 6.19842 5.61905L42.7579 5.65833C44.7195 5.66095 46.3158 7.2439 46.3158 9.18671V39.806C46.3158 41.7509 44.7179 43.3333 42.7532 43.3333ZM6.19421 7.19047C5.66158 7.19047 5.16158 7.39633 4.78579 7.76876C4.41473 8.13805 4.21052 8.62728 4.21052 9.14638V39.8055C4.21052 40.8845 5.1 41.7619 6.19421 41.7619H42.7537C43.8474 41.7619 44.7368 40.8845 44.7368 39.806V9.18671C44.7368 8.10924 43.8484 7.23185 42.7553 7.23028L6.19579 7.19047C6.19579 7.19047 6.19526 7.19047 6.19421 7.19047Z" fill="#40396E"/>
<path d="M15.9805 22.5019C15.1747 22.5019 14.4853 22.3432 13.9132 22.0269C13.3405 21.7105 12.9005 21.2652 12.5932 20.6922C12.2853 20.1186 12.1316 19.4413 12.1316 18.6603C12.1316 17.8861 12.2853 17.213 12.5932 16.6395C12.9005 16.0664 13.3405 15.6212 13.9132 15.3048C14.4858 14.9884 15.1753 14.8297 15.9805 14.8297C16.3342 14.8297 16.6926 14.8758 17.0568 14.967C17.4205 15.0581 17.7368 15.1812 18.0058 15.3362C18.2253 15.463 18.3595 15.6212 18.4089 15.8113C18.4584 16.0015 18.4421 16.1806 18.3611 16.3498C18.2795 16.5185 18.1537 16.6384 17.9842 16.7086C17.8147 16.7788 17.6237 16.7542 17.4116 16.6348C17.1995 16.508 16.9774 16.4169 16.7432 16.3603C16.51 16.3042 16.2732 16.276 16.0332 16.276C15.3189 16.276 14.78 16.4823 14.4158 16.8935C14.0521 17.3052 13.87 17.8945 13.87 18.6614C13.87 19.4282 14.0521 20.0191 14.4158 20.4345C14.78 20.8499 15.3189 21.0568 16.0332 21.0568C16.2589 21.0568 16.4905 21.029 16.7274 20.9724C16.9642 20.9164 17.1926 20.8284 17.4111 20.7089C17.6374 20.589 17.8353 20.5633 18.0047 20.6299C18.1742 20.6964 18.3 20.809 18.3816 20.9677C18.4626 21.1259 18.4821 21.2982 18.44 21.4847C18.3974 21.6712 18.2774 21.8241 18.0795 21.9441C17.8105 22.1196 17.4874 22.2573 17.1089 22.3553C16.7316 22.4522 16.3553 22.5019 15.9805 22.5019Z" fill="#40396E"/>
<path d="M21.0284 22.502C20.6395 22.502 20.2968 22.4281 20 22.2804C19.7031 22.1327 19.4679 21.932 19.2947 21.6785C19.1216 21.4255 19.0347 21.1406 19.0347 20.8237C19.0347 20.4512 19.1337 20.1521 19.3316 19.9269C19.5295 19.7017 19.8516 19.5419 20.2968 19.4466C20.7421 19.3518 21.3326 19.3041 22.0674 19.3041H22.4489V19.1244C22.4489 18.8154 22.3784 18.5954 22.2368 18.4649C22.0953 18.335 21.8553 18.2696 21.5158 18.2696C21.3247 18.2696 21.1163 18.2926 20.89 18.3382C20.6637 18.3843 20.42 18.4597 20.1589 18.5655C19.9605 18.6499 19.7947 18.6551 19.6605 18.5812C19.5258 18.5074 19.4379 18.3948 19.3953 18.2434C19.3526 18.092 19.3653 17.939 19.4326 17.784C19.4995 17.6295 19.6321 17.5169 19.83 17.4461C20.1621 17.3194 20.4747 17.2298 20.7684 17.1774C21.0616 17.1245 21.3321 17.0978 21.5795 17.0978C22.3853 17.0978 22.9863 17.2796 23.3821 17.6415C23.7774 18.0035 23.9758 18.565 23.9758 19.325V21.668C23.9758 22.2097 23.7284 22.481 23.2337 22.481C22.7316 22.481 22.4805 22.2102 22.4805 21.668V21.6047C22.3747 21.8791 22.1958 22.097 21.9453 22.2589C21.6942 22.4208 21.3884 22.502 21.0284 22.502ZM21.3884 21.436C21.6853 21.436 21.9363 21.3339 22.1416 21.1296C22.3463 20.9253 22.4489 20.6618 22.4489 20.3381V20.127H22.0779C21.5337 20.127 21.1479 20.1747 20.9221 20.2695C20.6958 20.3648 20.5826 20.5282 20.5826 20.7603C20.5826 20.9578 20.6516 21.1196 20.7895 21.2464C20.9274 21.3726 21.1268 21.436 21.3884 21.436Z" fill="#40396E"/>
<path d="M25.9805 24.3798C25.4432 24.3798 25.1742 24.109 25.1742 23.5669V17.9212C25.1742 17.3864 25.4358 17.1193 25.9595 17.1193C26.4895 17.1193 26.7542 17.3864 26.7542 17.9212V17.9527C26.9026 17.6923 27.1221 17.4849 27.4121 17.3304C27.7016 17.1753 28.0268 17.0978 28.3874 17.0978C28.8395 17.0978 29.2374 17.2073 29.58 17.4252C29.9226 17.6436 30.19 17.9527 30.3811 18.3539C30.5721 18.7551 30.6668 19.2339 30.6668 19.7891C30.6668 20.3454 30.5716 20.8252 30.3811 21.2296C30.19 21.6345 29.9232 21.9478 29.58 22.1688C29.2374 22.3904 28.8395 22.5014 28.3874 22.5014C28.0405 22.5014 27.7247 22.4276 27.4379 22.2799C27.1521 22.1321 26.9311 21.9352 26.7753 21.689V23.5674C26.7753 24.109 26.5105 24.3798 25.9805 24.3798ZM27.91 21.3092C28.2495 21.3092 28.5247 21.1861 28.7374 20.94C28.9495 20.6938 29.0553 20.3103 29.0553 19.7897C29.0553 19.2763 28.9495 18.8981 28.7374 18.6551C28.5247 18.4126 28.2489 18.291 27.91 18.291C27.5637 18.291 27.2847 18.4126 27.0721 18.6551C26.86 18.8981 26.7542 19.2763 26.7542 19.7897C26.7542 20.3103 26.86 20.6938 27.0721 20.94C27.2847 21.1861 27.5637 21.3092 27.91 21.3092Z" fill="#40396E"/>
<path d="M33.6358 22.502C33.3247 22.502 33.0047 22.4737 32.6763 22.4176C32.3474 22.361 32.0484 22.2657 31.7805 22.1327C31.6037 22.0415 31.4884 21.9252 31.4358 21.7843C31.3826 21.644 31.381 21.5067 31.4305 21.3731C31.48 21.239 31.5684 21.139 31.6958 21.0725C31.8232 21.006 31.9716 21.007 32.141 21.0777C32.431 21.1971 32.6979 21.2815 32.9416 21.3307C33.1858 21.38 33.421 21.4046 33.6468 21.4046C33.9442 21.4046 34.1632 21.3569 34.3047 21.2621C34.4458 21.1668 34.5168 21.0421 34.5168 20.887C34.5168 20.6414 34.3363 20.4863 33.9758 20.423L32.8621 20.2229C32.4168 20.1453 32.0774 19.9871 31.8442 19.7478C31.611 19.5089 31.4942 19.1957 31.4942 18.8086C31.4942 18.4566 31.5932 18.1543 31.791 17.9013C31.9889 17.6483 32.2616 17.4514 32.6079 17.3105C32.9542 17.1696 33.3537 17.0989 33.8063 17.0989C34.4279 17.0989 34.98 17.2188 35.4605 17.4582C35.6226 17.5357 35.7237 17.6447 35.7626 17.785C35.801 17.926 35.7921 18.0632 35.7358 18.1968C35.6789 18.3303 35.5874 18.4309 35.46 18.4974C35.3326 18.564 35.1805 18.5587 35.0037 18.4817C34.7705 18.3759 34.5584 18.3005 34.3674 18.2544C34.1763 18.2088 33.9963 18.1858 33.8263 18.1858C33.5084 18.1858 33.2784 18.2371 33.1368 18.3387C32.9953 18.4409 32.9247 18.5692 32.9247 18.7237C32.9247 18.9699 33.091 19.1244 33.4232 19.1878L34.5368 19.3884C34.9963 19.466 35.3458 19.6189 35.5868 19.8473C35.8268 20.0762 35.9474 20.3879 35.9474 20.7812C35.9474 21.3229 35.7353 21.7456 35.311 22.0478C34.8868 22.35 34.3289 22.502 33.6358 22.502Z" fill="#40396E"/>
<path d="M13.9516 31.8142C13.6753 31.8142 13.4668 31.742 13.3258 31.5979C13.1842 31.4539 13.1137 31.248 13.1137 30.9803V25.1865C13.1137 24.9193 13.1842 24.714 13.3258 24.5694C13.4668 24.4254 13.6721 24.3531 13.9405 24.3531C14.4847 24.3531 14.7574 24.6307 14.7574 25.1865V30.4319H17.5989C18.0721 30.4319 18.3095 30.6608 18.3095 31.1181C18.3095 31.5822 18.0721 31.8142 17.5989 31.8142H13.9516Z" fill="#40396E"/>
<path d="M21.5016 31.9305C20.9432 31.9305 20.4574 31.8195 20.0437 31.5979C19.6305 31.3763 19.3105 31.0636 19.0842 30.6587C18.8579 30.2543 18.7447 29.7745 18.7447 29.2182C18.7447 28.6698 18.8579 28.1931 19.0842 27.7882C19.3105 27.3839 19.6305 27.0727 20.0437 26.8543C20.4574 26.6364 20.9437 26.5269 21.5016 26.5269C22.06 26.5269 22.5458 26.6364 22.9595 26.8543C23.3732 27.0727 23.6947 27.3839 23.9247 27.7882C24.1547 28.1931 24.2695 28.6698 24.2695 29.2182C24.2695 29.7745 24.1547 30.2543 23.9247 30.6587C23.6947 31.0636 23.3737 31.3769 22.9595 31.5979C22.5458 31.8195 22.0595 31.9305 21.5016 31.9305ZM21.5016 30.7378C21.8411 30.7378 22.1184 30.6147 22.3342 30.3685C22.5495 30.1223 22.6579 29.7389 22.6579 29.2182C22.6579 28.7049 22.55 28.3267 22.3342 28.0837C22.1189 27.8411 21.8411 27.7196 21.5016 27.7196C21.1621 27.7196 20.8868 27.8411 20.6747 28.0837C20.4626 28.3267 20.3568 28.7049 20.3568 29.2182C20.3568 29.7389 20.4626 30.1223 20.6747 30.3685C20.8863 30.6147 21.1621 30.7378 21.5016 30.7378Z" fill="#40396E"/>
<path d="M27.7795 31.9305C27.2137 31.9305 26.7205 31.8195 26.3 31.5979C25.8795 31.3763 25.5558 31.0615 25.3295 30.6535C25.1032 30.2449 24.99 29.763 24.99 29.2078C24.99 28.6515 25.1032 28.1732 25.3295 27.7725C25.5558 27.3718 25.8795 27.0638 26.3 26.849C26.7205 26.6348 27.2137 26.5269 27.7795 26.5269C27.9984 26.5269 28.2337 26.5536 28.4847 26.6065C28.7353 26.6589 28.9779 26.749 29.2111 26.8752C29.3874 26.9596 29.4968 27.0774 29.5395 27.2293C29.5821 27.3807 29.5732 27.5295 29.5132 27.6772C29.4532 27.8249 29.3574 27.9323 29.2268 27.9993C29.0963 28.0664 28.9421 28.0543 28.7658 27.9627C28.4826 27.8149 28.2068 27.7411 27.9384 27.7411C27.5211 27.7411 27.1979 27.8694 26.9684 28.1261C26.7384 28.3833 26.6237 28.7473 26.6237 29.2188C26.6237 29.6829 26.7384 30.0474 26.9684 30.3114C27.1979 30.5749 27.5211 30.7069 27.9384 30.7069C28.0658 30.7069 28.2 30.6912 28.3411 30.6592C28.4826 30.6278 28.6242 30.5733 28.7658 30.4958C28.9421 30.4047 29.0963 30.3937 29.2268 30.4639C29.3574 30.5346 29.4479 30.6419 29.4968 30.786C29.5463 30.93 29.55 31.0799 29.5079 31.2344C29.4653 31.3894 29.3595 31.5089 29.19 31.5932C28.9495 31.7131 28.7095 31.7996 28.4684 31.8519C28.2279 31.9038 27.9984 31.9305 27.7795 31.9305Z" fill="#40396E"/>
<path d="M31.1195 31.9091C30.5821 31.9091 30.3132 31.6382 30.3132 31.0961V25.0917C30.3132 24.55 30.5821 24.2787 31.1195 24.2787C31.6495 24.2787 31.9142 24.5495 31.9142 25.0917V28.7751H31.9353L33.4726 27.0759C33.6284 26.9004 33.77 26.7684 33.8974 26.6799C34.0247 26.5919 34.2011 26.5484 34.4274 26.5484C34.6463 26.5484 34.8158 26.6029 34.9363 26.7118C35.0568 26.8208 35.1168 26.958 35.1168 27.123C35.1168 27.2885 35.0458 27.4488 34.9042 27.6033L33.5474 29.1124L35.0847 30.8745C35.2189 31.0432 35.2768 31.2071 35.26 31.3653C35.2421 31.524 35.17 31.654 35.0426 31.7561C34.9153 31.8577 34.7526 31.9091 34.5547 31.9091C34.3074 31.9091 34.1142 31.863 33.9768 31.7718C33.8389 31.6807 33.6921 31.5398 33.5363 31.3496L31.9353 29.5765H31.9142V31.0966C31.9142 31.6382 31.6495 31.9091 31.1195 31.9091Z" fill="#40396E"/>
</svg>
