<svg width="50" height="50" viewBox="0 0 50 50" fill="none" xmlns="http://www.w3.org/2000/svg">
<path d="M50 42H0V8H50V42Z" fill="#30E2F2"/>
<path d="M25 8H50V42H25V8Z" fill="#2EB8E7"/>
<path d="M13.2812 22.1667C10.858 22.1667 8.88672 20.2602 8.88672 17.9167C8.88672 15.5731 10.858 13.6667 13.2812 13.6667C15.7045 13.6667 17.6758 15.5731 17.6758 17.9167C17.6758 20.2602 15.7045 22.1667 13.2812 22.1667Z" fill="#FFD9B3"/>
<path d="M17.6758 17.9167C17.6758 15.5731 15.7045 13.6667 13.2812 13.6667V22.1667C15.7045 22.1667 17.6758 20.2602 17.6758 17.9167Z" fill="#FFBB99"/>
<path d="M20.6055 30.6667H5.95703V26.4167C5.95703 24.0731 7.92832 22.1667 10.3516 22.1667H16.2109C18.6342 22.1667 20.6055 24.0731 20.6055 26.4167V30.6667Z" fill="#366AB3"/>
<path d="M13.2812 22.1667V30.6667H20.6055V26.4167C20.6055 24.0731 18.6342 22.1667 16.2109 22.1667H13.2812Z" fill="#004080"/>
<path d="M5.95703 33.5H20.6055V36.3333H5.95703V33.5Z" fill="#E6F6FF"/>
<path d="M13.2812 33.5H20.6055V36.3333H13.2812V33.5Z" fill="#BEE3ED"/>
<path d="M23.5352 22.1667H44.043V25H23.5352V22.1667Z" fill="#E6F6FF"/>
<path d="M25 22.1667H44.043V25H25V22.1667Z" fill="#BEE3ED"/>
<path d="M23.5352 30.6667H44.043V33.5H23.5352V30.6667Z" fill="#E6F6FF"/>
<path d="M25 30.6667H44.043V33.5H25V30.6667Z" fill="#BEE3ED"/>
<path d="M23.5352 13.6667H26.4648V16.5H23.5352V13.6667Z" fill="#366AB3"/>
<path d="M25 13.6667H26.4648V16.5H25V13.6667Z" fill="#004080"/>
<path d="M29.3945 13.6667H32.3242V16.5H29.3945V13.6667ZM35.2539 13.6667H38.1836V16.5H35.2539V13.6667Z" fill="#366AB3"/>
<path d="M29.3945 13.6667H32.3242V16.5H29.3945V13.6667ZM35.2539 13.6667H38.1836V16.5H35.2539V13.6667Z" fill="#004080"/>
<path d="M26.4648 19.3333H29.3945V27.8333H26.4648V19.3333ZM32.3242 27.8333H35.2539V36.3333H32.3242V27.8333Z" fill="#FFBF66"/>
</svg>
