<svg width="50" height="50" viewBox="0 0 50 50" fill="none" xmlns="http://www.w3.org/2000/svg">
<path d="M18.8994 35.0181H1.27607C0.571289 35.0181 0 34.4531 0 33.7563V17.7693C0 17.0724 0.571289 16.5074 1.27607 16.5074H18.8994C19.6042 16.5074 20.1755 17.0724 20.1755 17.7693V33.7563C20.1755 34.4531 19.6041 35.0181 18.8994 35.0181Z" fill="#FE93D3"/>
<path d="M18.8995 16.5074H14.0956L15.4474 27.44C15.5172 28.0046 15.0717 28.5023 14.4965 28.5023H14.3866C12.5635 28.5023 11.0857 29.9636 11.0857 31.7664V35.018H18.8995C19.6042 35.018 20.1755 34.4531 20.1755 33.7562V17.7693C20.1755 17.0724 19.6042 16.5074 18.8995 16.5074Z" fill="#FE73C5"/>
<path d="M9.7834 23.1347C9.87285 23.1958 9.97899 23.2285 10.0877 23.2285C10.1964 23.2285 10.3025 23.1958 10.392 23.1347C10.7391 22.8976 11.3748 22.5737 12.2572 22.5737C13.5416 22.5737 14.4268 23.5553 14.4268 24.6984C14.4268 25.9892 13.2786 27.5107 10.3146 28.8476C10.2434 28.8797 10.166 28.8963 10.0876 28.8963C10.0093 28.8963 9.93191 28.8797 9.86064 28.8476C6.89668 27.5107 5.74854 25.9892 5.74854 24.6984C5.74854 23.5553 6.63369 22.5737 7.91807 22.5737C8.80059 22.5737 9.43633 22.8976 9.7834 23.1347ZM41.0055 31.4514L19.1793 34.0904C18.9487 34.1182 18.7164 34.0544 18.5335 33.9129C18.3505 33.7714 18.2319 33.5639 18.2037 33.3359L14.7755 5.6102C14.7473 5.38222 14.8119 5.1525 14.9549 4.97158C15.098 4.79067 15.3079 4.67336 15.5385 4.64548L37.3647 2.00647C37.5952 1.97859 37.8275 2.04242 38.0105 2.18392C38.1934 2.32541 38.312 2.53297 38.3402 2.76095L41.7686 30.4867C41.7967 30.7147 41.7321 30.9444 41.589 31.1253C41.4459 31.3062 41.236 31.4235 41.0055 31.4514Z" fill="#F9F7F8"/>
<path d="M37.3645 2.0064L34.5131 2.35115C34.7436 2.32328 34.9759 2.38711 35.1589 2.5286C35.3418 2.6701 35.4604 2.87766 35.4886 3.10564L38.917 30.8314C38.9452 31.0594 38.8806 31.2891 38.7375 31.47C38.5944 31.651 38.3845 31.7683 38.154 31.7961L41.0054 31.4514C41.236 31.4235 41.4459 31.3062 41.589 31.1253C41.7321 30.9444 41.7966 30.7147 41.7684 30.4867L38.3401 2.76089C38.3119 2.53291 38.1933 2.32535 38.0103 2.18385C37.8274 2.04236 37.5951 1.97853 37.3645 2.0064Z" fill="#EFEDEF"/>
<path d="M21.0954 10.3735C20.9035 10.3729 20.719 10.3 20.5795 10.1697C20.44 10.0394 20.3559 9.86143 20.3444 9.67201C20.3328 9.48259 20.3947 9.29593 20.5174 9.15C20.64 9.00407 20.8143 8.90983 21.0048 8.88643L32.9957 7.43665C33.4087 7.38586 33.7857 7.67759 33.8363 8.08675C33.8483 8.18402 33.8409 8.28268 33.8143 8.37709C33.7878 8.47151 33.7427 8.55983 33.6817 8.63702C33.6206 8.71421 33.5448 8.77876 33.4585 8.82697C33.3723 8.87518 33.2772 8.90612 33.1789 8.91801L21.188 10.3678C21.1569 10.3716 21.1259 10.3735 21.0954 10.3735ZM21.6855 15.1456C21.4936 15.145 21.3092 15.0721 21.1696 14.9418C21.0301 14.8115 20.9461 14.6335 20.9345 14.4441C20.923 14.2547 20.9848 14.068 21.1075 13.9221C21.2302 13.7762 21.4044 13.6819 21.5949 13.6585L33.5859 12.2087C33.9981 12.158 34.3759 12.4496 34.4265 12.8588C34.4386 12.956 34.4311 13.0547 34.4046 13.1491C34.378 13.2435 34.333 13.3318 34.2719 13.409C34.2109 13.4862 34.135 13.5508 34.0488 13.599C33.9625 13.6472 33.8675 13.6781 33.7691 13.69L21.7781 15.1399C21.7469 15.1438 21.716 15.1456 21.6855 15.1456ZM22.2756 19.9177C22.0837 19.9171 21.8992 19.8442 21.7597 19.7139C21.6202 19.5836 21.5361 19.4057 21.5246 19.2162C21.513 19.0268 21.5749 18.8402 21.6975 18.6942C21.8202 18.5483 21.9945 18.454 22.1849 18.4307L34.1759 16.9808C34.5887 16.9302 34.9661 17.2217 35.0166 17.6309C35.0286 17.7281 35.0211 17.8268 34.9946 17.9212C34.9681 18.0156 34.923 18.104 34.862 18.1811C34.8009 18.2583 34.7251 18.3229 34.6388 18.3711C34.5525 18.4193 34.4575 18.4502 34.3591 18.4621L22.3681 19.912C22.3371 19.9159 22.3061 19.9177 22.2756 19.9177ZM22.8656 24.6899C22.6737 24.6893 22.4892 24.6164 22.3497 24.4861C22.2102 24.3558 22.1261 24.1779 22.1146 23.9884C22.1031 23.799 22.1649 23.6124 22.2876 23.4664C22.4103 23.3205 22.5845 23.2263 22.775 23.2029L34.766 21.753C35.1781 21.7024 35.556 21.9939 35.6066 22.4031C35.6186 22.5003 35.6112 22.599 35.5846 22.6934C35.5581 22.7878 35.513 22.8762 35.452 22.9534C35.391 23.0305 35.3151 23.0951 35.2289 23.1433C35.1426 23.1915 35.0475 23.2224 34.9492 23.2343L22.9582 24.6842C22.9275 24.688 22.8965 24.6899 22.8656 24.6899ZM23.4557 29.462C23.2638 29.4614 23.0794 29.3885 22.9399 29.2582C22.8004 29.1279 22.7163 28.95 22.7047 28.7605C22.6932 28.5711 22.755 28.3845 22.8777 28.2385C23.0004 28.0926 23.1747 27.9984 23.3651 27.975L35.356 26.5251C35.7687 26.4746 36.1462 26.766 36.1966 27.1752C36.2087 27.2725 36.2012 27.3711 36.1747 27.4655C36.1482 27.5599 36.1031 27.6483 36.042 27.7255C35.981 27.8027 35.9052 27.8672 35.8189 27.9154C35.7326 27.9636 35.6376 27.9946 35.5392 28.0064L23.5483 29.4563C23.5173 29.4602 23.4863 29.462 23.4557 29.462Z" fill="#554E56"/>
<path d="M28.8771 21.0674L25.6247 29.9338C25.4167 30.5007 25.7129 31.127 26.2863 31.3326L42.1502 37.0229C42.7236 37.2286 43.357 36.9357 43.5649 36.3688L46.5504 28.2299C41.3359 27.7143 44.8677 18.9135 41.9819 16.8981C40.2242 15.6706 33.0383 20.4184 28.8771 21.0674Z" fill="#9BE69D"/>
<path d="M44.037 27.6873L41.1678 35.5089C40.9598 36.0758 40.3265 36.3687 39.7532 36.163L42.1503 37.0229C42.7237 37.2286 43.3571 36.9357 43.565 36.3687L46.5505 28.2299C45.5917 28.135 44.766 27.9452 44.037 27.6873Z" fill="#6FD7A3"/>
<path d="M35.6215 48H14.3865C13.6749 48 13.098 47.4296 13.098 46.7259V31.7665C13.098 31.0628 13.6749 30.4924 14.3865 30.4924H35.6215C36.3331 30.4924 36.9099 31.0628 36.9099 31.7665V46.7259C36.9099 47.4296 36.3331 48 35.6215 48Z" fill="#EB5569"/>
<path d="M35.6215 30.4924H33.1808C33.8924 30.4924 34.4693 31.0628 34.4693 31.7665V46.7259C34.4693 47.4296 33.8924 48 33.1808 48H35.6215C36.3331 48 36.91 47.4296 36.91 46.7259V31.7665C36.91 31.0628 36.3331 30.4924 35.6215 30.4924Z" fill="#E53950"/>
<path d="M27.5015 38.5984L23.3943 35.8459C22.8689 35.4938 22.1591 35.866 22.1591 36.4937V41.9987C22.1591 42.6264 22.8688 42.9986 23.3943 42.6465L27.5015 39.894C27.9646 39.5835 27.9646 38.9087 27.5015 38.5984Z" fill="#F9F7F8"/>
<path d="M46.5504 28.2299L49.9335 19.0071C50.1415 18.4402 49.8453 17.8138 49.272 17.6083L33.4079 11.9179C32.8346 11.7122 32.2012 12.0051 31.9933 12.572L28.877 21.0674C39.8704 19.3528 38.16 27.4004 46.5504 28.2299Z" fill="#C8EFFE"/>
<path d="M49.272 17.6082L46.8749 16.7484C47.4482 16.954 47.7444 17.5803 47.5364 18.1472L44.0369 27.6872C44.7659 27.9451 45.5916 28.135 46.5503 28.2298L49.9334 19.0071C50.1416 18.4402 49.8454 17.8139 49.272 17.6082Z" fill="#B3DAFE"/>
<path d="M44.1467 22.0958C44.9905 22.0958 45.6746 21.4194 45.6746 20.585C45.6746 19.7506 44.9905 19.0742 44.1467 19.0742C43.3029 19.0742 42.6189 19.7506 42.6189 20.585C42.6189 21.4194 43.3029 22.0958 44.1467 22.0958Z" fill="#FFE177"/>
</svg>
