<svg width="51" height="51" viewBox="0 0 51 51" fill="none" xmlns="http://www.w3.org/2000/svg">
<path fill-rule="evenodd" clip-rule="evenodd" d="M25.5632 10.0891C33.1021 10.0891 39.2204 15.9188 39.2204 23.1022C39.2204 32.611 32.2658 30.7332 32.2658 40.9516H18.8606C18.8606 30.6459 11.906 32.5891 11.906 23.1022C11.906 15.9079 18.0242 10.0891 25.5632 10.0891Z" fill="#FFC60B"/>
<path fill-rule="evenodd" clip-rule="evenodd" d="M25.5632 10.0891C33.1021 10.0891 39.2204 15.9188 39.2204 23.1022C39.2204 32.611 32.2658 30.7332 32.2658 40.9516H25.5632V10.0891Z" fill="#FAA21B"/>
<path fill-rule="evenodd" clip-rule="evenodd" d="M21.7937 46.4865C23.9019 51.8359 27.236 51.8359 29.3327 46.4865H21.7937Z" fill="#75978A"/>
<path fill-rule="evenodd" clip-rule="evenodd" d="M21.4271 46.4865H29.6878C32.0824 46.4865 32.0824 43.0367 29.6878 43.0367H21.4271C19.0325 43.0367 19.0325 46.4865 21.4271 46.4865Z" fill="#88A792"/>
<path fill-rule="evenodd" clip-rule="evenodd" d="M18.9408 39.587H32.1856C34.5801 39.587 34.5801 43.0367 32.1856 43.0367H18.9408C16.5462 43.0367 16.5462 39.587 18.9408 39.587Z" fill="#75978A"/>
<path fill-rule="evenodd" clip-rule="evenodd" d="M25.5632 50.504C26.9266 50.504 28.29 49.1721 29.3327 46.4974H25.5632V50.504Z" fill="#738B77"/>
<path fill-rule="evenodd" clip-rule="evenodd" d="M25.5632 46.4865H29.6993C32.0939 46.4865 32.0939 43.0367 29.6993 43.0367H25.5632V46.4865Z" fill="#75978A"/>
<path fill-rule="evenodd" clip-rule="evenodd" d="M25.5632 39.587H32.1856C34.5801 39.587 34.5801 43.0367 32.1856 43.0367H25.5632V39.587Z" fill="#738B77"/>
<path d="M49.6466 23.4516C50.1507 23.4516 50.5632 23.8446 50.5632 24.3249C50.5632 24.8053 50.1507 25.1983 49.6466 25.1983H44.4793C43.9752 25.1983 43.5627 24.8053 43.5627 24.3249C43.5627 23.8446 43.9752 23.4516 44.4793 23.4516H49.6466ZM1.47978 25.1874C0.975656 25.1874 0.56319 24.7944 0.56319 24.314C0.56319 23.8337 0.975656 23.4407 1.47978 23.4407H6.64706C7.15118 23.4407 7.56365 23.8337 7.56365 24.314C7.56365 24.7944 7.15118 25.1874 6.64706 25.1874H1.47978ZM7.88445 8.71359C7.52928 8.37517 7.52928 7.8184 7.88445 7.47997C8.23963 7.14154 8.82396 7.14154 9.17914 7.47997L12.834 10.9625C13.1892 11.3009 13.1892 11.8577 12.834 12.1961C12.4789 12.5346 11.8945 12.5346 11.5394 12.1961L7.88445 8.71359ZM24.6466 1.37735C24.6466 0.897001 25.0591 0.503988 25.5632 0.503988C26.0673 0.503988 26.4798 0.897001 26.4798 1.37735V6.29001C26.4798 6.77036 26.0788 7.16338 25.5632 7.16338C25.0591 7.16338 24.6466 6.77036 24.6466 6.29001V1.37735ZM41.9472 7.47997C42.3024 7.14154 42.8867 7.14154 43.2419 7.47997C43.5971 7.8184 43.5971 8.37517 43.2419 8.71359L39.587 12.1961C39.2318 12.5346 38.6475 12.5346 38.2923 12.1961C37.9372 11.8577 37.9372 11.3009 38.2923 10.9625L41.9472 7.47997Z" fill="#FAA21B"/>
<path fill-rule="evenodd" clip-rule="evenodd" d="M25.5632 17.207L28.7254 18.9429L31.8877 20.6896V27.6437L28.7254 29.3795L25.5632 31.1263L22.401 29.3795L19.2387 27.6437V20.6896L22.401 18.9429L25.5632 17.207Z" fill="#C02026"/>
<path fill-rule="evenodd" clip-rule="evenodd" d="M25.5632 17.207L28.7254 18.9429L31.8877 20.6896L28.7254 22.4254L25.5632 24.1612L22.401 22.4254L19.2387 20.6896L22.401 18.9429L25.5632 17.207Z" fill="#F26344"/>
</svg>
