<svg width="50" height="50" viewBox="0 0 50 50" fill="none" xmlns="http://www.w3.org/2000/svg">
<path d="M20.0658 35.3333H29.9342V44H20.0658V35.3333Z" fill="#B0C1D4"/>
<path d="M29.6053 35.6667V43.6667H20.3947V35.6667H29.6053ZM30.2632 35H19.7368V44.3333H30.2632V35Z" fill="#66798F"/>
<path d="M0.328949 3.33334H49.6711V38.6667H0.328949V3.33334Z" fill="#C2E8FF"/>
<path d="M49.3421 3.66667V38.3333H0.657895V3.66667H49.3421ZM50 3H0V39H50V3Z" fill="#66798F"/>
<path d="M0.657898 33.6667H49.3421V38.3333H0.657898V33.6667Z" fill="#66798F"/>
<path d="M10.8684 46.6667C10.952 45.756 11.3678 44.9096 12.0346 44.2931C12.7013 43.6766 13.5711 43.3344 14.4737 43.3333H35.5263C36.4289 43.3344 37.2987 43.6766 37.9654 44.2931C38.6322 44.9096 39.048 45.756 39.1316 46.6667H10.8684Z" fill="#B0C1D4"/>
<path d="M35.5263 43.6667C36.2846 43.6665 37.0197 43.9319 37.6072 44.4178C38.1946 44.9037 38.5983 45.5804 38.75 46.3333H11.25C11.4017 45.5804 11.8054 44.9037 12.3928 44.4178C12.9803 43.9319 13.7154 43.6665 14.4737 43.6667H35.5263ZM35.5263 43H14.4737C13.4268 43 12.4227 43.4214 11.6825 44.1716C10.9422 44.9217 10.5263 45.9391 10.5263 47H39.4737C39.4737 45.9391 39.0578 44.9217 38.3175 44.1716C37.5772 43.4214 36.5732 43 35.5263 43Z" fill="#66798F"/>
<path d="M43.4211 35.6667H47.3684V37H43.4211V35.6667Z" fill="#FFEEA3"/>
<path d="M1 5.61111C1 4.72137 1.72137 4 2.61111 4H13.8889C14.7786 4 15.5 4.72137 15.5 5.61111V16.8889C15.5 17.7786 14.7786 18.5 13.8889 18.5H2.61111C1.72137 18.5 1 17.7786 1 16.8889V5.61111Z" fill="#2196F3"/>
<path d="M9.45833 14.4722H8.03653V9.81651L6.63889 10.2362V9.12857L9.32824 8.17237H9.45833V14.4722Z" fill="white"/>
<path d="M34 20.6111C34 19.7214 34.7214 19 35.6111 19H46.8889C47.7786 19 48.5 19.7214 48.5 20.6111V31.8889C48.5 32.7786 47.7786 33.5 46.8889 33.5H35.6111C34.7214 33.5 34 32.7786 34 31.8889V20.6111Z" fill="#2196F3"/>
<path d="M40.3478 26.0611H41.0357C41.5811 26.0611 41.8534 25.7945 41.8534 25.2608C41.8534 25.0529 41.7885 24.8834 41.6588 24.7525C41.5291 24.6212 41.3459 24.5555 41.1094 24.5555C40.9161 24.5555 40.7481 24.6119 40.6056 24.7243C40.463 24.8366 40.3913 24.9768 40.3913 25.144H38.9332C38.9332 24.8125 39.0255 24.5164 39.2103 24.257C39.3948 23.9973 39.651 23.7951 39.9784 23.6489C40.3051 23.5035 40.6648 23.4305 41.0571 23.4305C41.7579 23.4305 42.3085 23.5905 42.7101 23.9107C43.1108 24.2309 43.3114 24.6707 43.3114 25.2302C43.3114 25.5012 43.2284 25.7574 43.0625 25.9983C42.8966 26.2391 42.6549 26.4345 42.3379 26.5843C42.6722 26.7055 42.9348 26.8896 43.1253 27.1357C43.3158 27.3826 43.4109 27.6875 43.4109 28.0508C43.4109 28.6131 43.1946 29.0634 42.762 29.4009C42.3294 29.7385 41.7611 29.9072 41.0575 29.9072C40.645 29.9072 40.262 29.8287 39.9088 29.6712C39.5555 29.5141 39.2877 29.2962 39.106 29.0183C38.9244 28.7404 38.8333 28.4234 38.8333 28.0689H40.3003C40.3003 28.2619 40.378 28.4298 40.5339 28.5708C40.6897 28.7118 40.8815 28.7827 41.1094 28.7827C41.366 28.7827 41.571 28.711 41.7237 28.5688C41.8763 28.4258 41.9528 28.2433 41.9528 28.0214C41.9528 27.704 41.8735 27.4789 41.7148 27.3464C41.5561 27.2138 41.337 27.1474 41.0571 27.1474H40.3478V26.0611Z" fill="white"/>
<path d="M34 5.61111C34 4.72137 34.7214 4 35.6111 4H46.8889C47.7786 4 48.5 4.72137 48.5 5.61111V16.8889C48.5 17.7786 47.7786 18.5 46.8889 18.5H35.6111C34.7214 18.5 34 17.7786 34 16.8889V5.61111Z" fill="#2196F3"/>
<path d="M43.6667 14.4722H39.363V13.5124L41.3451 11.3656C41.8344 10.7924 42.0781 10.3377 42.0781 9.99977C42.0781 9.72669 42.0197 9.51845 41.9045 9.37587C41.7885 9.23328 41.6206 9.1624 41.3998 9.1624C41.1827 9.1624 41.0059 9.25745 40.871 9.44837C40.7357 9.63888 40.6676 9.87652 40.6676 10.1617H39.2361C39.2361 9.7718 39.3304 9.41212 39.5201 9.08184C39.709 8.75156 39.9716 8.49298 40.3079 8.3069C40.6434 8.12122 41.0192 8.02777 41.4345 8.02777C42.1003 8.02777 42.6146 8.18687 42.9739 8.50385C43.3344 8.82044 43.5144 9.27598 43.5144 9.86967C43.5144 10.1198 43.4689 10.3635 43.3783 10.6003C43.2881 10.8371 43.1479 11.0857 42.957 11.3463C42.7665 11.6069 42.4595 11.9553 42.0358 12.3915L41.2391 13.3384H43.6667V14.4722Z" fill="white"/>
<path d="M1 20.6111C1 19.7214 1.72137 19 2.61111 19H13.8889C14.7786 19 15.5 19.7214 15.5 20.6111V31.8889C15.5 32.7786 14.7786 33.5 13.8889 33.5H2.61111C1.72137 33.5 1 32.7786 1 31.8889V20.6111Z" fill="#2196F3"/>
<path d="M9.85587 26.9537H10.6614V28.1044H9.85587V29.4722H8.33096V28.1044H5.92355L5.83333 27.1929L8.33096 23.0411V23.0278H9.85587V26.9537ZM7.14558 26.9537H8.33096V24.9708L8.2359 25.1214L7.14558 26.9537Z" fill="white"/>
</svg>
