<svg width="50" height="50" viewBox="0 0 50 50" fill="none" xmlns="http://www.w3.org/2000/svg">
<path d="M48.4874 12.6814C47.1759 7.84946 42.1507 2.82514 37.3189 1.51267C34.3561 0.773422 30.3875 0.0126951 25 0C19.6125 0.0136716 15.6439 0.773422 12.6811 1.51267C7.85028 2.82514 2.82508 7.84946 1.51264 12.6814C0.774384 15.6432 0.0136713 19.6129 0 24.9995C0.0136713 30.3871 0.773407 34.3558 1.51264 37.3186C2.82508 42.1505 7.8493 47.1749 12.6811 48.4873C15.6439 49.2266 19.6125 49.9863 25 50C30.3865 49.9863 34.3561 49.2266 37.3189 48.4873C42.1507 47.1749 47.1749 42.1505 48.4874 37.3186C49.2266 34.3568 49.9863 30.3871 50 24.9995C49.9863 19.6119 49.2266 15.6432 48.4874 12.6804V12.6814Z" fill="#FFF1EB"/>
<path d="M25 8.38753C15.8256 8.38753 8.38834 15.8249 8.38834 24.9995C8.38834 34.1741 15.8256 41.6115 25 41.6115C34.1744 41.6115 41.6117 34.1741 41.6117 24.9995C41.6117 15.8249 34.1744 8.38753 25 8.38753Z" fill="url(#paint0_linear_103_8)"/>
<path d="M35.1324 23.8745C33.8157 25.1139 32.5064 26.3613 31.2048 27.6166C31.487 29.3832 31.7439 31.1429 31.9646 32.8939C32.1179 34.1605 30.7517 35.2103 29.6551 34.6399C28.1337 33.8529 26.5781 33.0247 25 32.1781C23.4219 33.0257 21.8663 33.8529 20.3449 34.6399C19.2483 35.2103 17.8821 34.1605 18.0354 32.8939C18.2561 31.1429 18.5129 29.3842 18.7952 27.6166C17.494 26.3608 16.1848 25.1134 14.8676 23.8745C13.9243 22.9937 14.4858 21.4488 15.7933 21.2291C17.5931 20.9342 19.3889 20.6422 21.1808 20.3609C22.0011 18.7272 22.8204 17.0866 23.6163 15.4479C24.1963 14.2546 25.8047 14.2546 26.3847 15.4479C27.1806 17.0866 27.9999 18.7282 28.8202 20.3609C30.6121 20.6422 32.4089 20.9342 34.2076 21.2291C35.5152 21.4498 36.0767 22.9937 35.1334 23.8745H35.1324Z" fill="url(#paint1_linear_103_8)"/>
<defs>
<linearGradient id="paint0_linear_103_8" x1="36.7466" y1="36.7464" x2="13.2529" y2="13.2541" gradientUnits="userSpaceOnUse">
<stop stop-color="#FE7838"/>
<stop offset="0.43" stop-color="#FE7636"/>
<stop offset="0.97" stop-color="#FFAD8A"/>
</linearGradient>
<linearGradient id="paint1_linear_103_8" x1="32.2976" y1="33.4603" x2="17.7021" y2="18.8652" gradientUnits="userSpaceOnUse">
<stop stop-color="#FFDDCE"/>
<stop offset="0.52" stop-color="white"/>
<stop offset="1" stop-color="white"/>
</linearGradient>
</defs>
</svg>
