<svg width="50" height="50" viewBox="0 0 50 50" fill="none" xmlns="http://www.w3.org/2000/svg">
<path d="M47.8614 7.5L42.5 2.13857C41.3574 0.995996 39.8926 0.263574 38.2812 0.0583984C37.959 0.0292969 37.6368 0 37.3144 0H4.39453C1.96279 0 0 1.96279 0 4.39453V45.5078C0 47.9394 1.96279 49.9023 4.39453 49.9023H45.6055C48.0372 49.9023 50 47.9394 50 45.5078V12.6854C50 10.7226 49.2383 8.87686 47.8614 7.5Z" fill="#495A79"/>
<path d="M50 12.6854V45.5078C50 47.9394 48.0372 49.9023 45.6055 49.9023H25V0H37.3144C37.6367 0 37.959 0.0292969 38.2812 0.0584961C39.8926 0.263574 41.3574 0.995996 42.5 2.13867L47.8614 7.5C49.2383 8.87686 50 10.7226 50 12.6854Z" fill="#42516D"/>
<path d="M39.7461 23.5352H10.2539C9.44492 23.5352 8.78906 24.1908 8.78906 25V32.4219H41.2109V25C41.2109 24.1908 40.5551 23.5352 39.7461 23.5352Z" fill="#5AF1FF"/>
<path d="M39.7461 23.5352H25V32.4219H41.2109V25C41.2109 24.1908 40.5551 23.5352 39.7461 23.5352Z" fill="#51DAE6"/>
<path d="M8.78906 29.4922H41.2109V50H8.78906V29.4922Z" fill="#D9E1F2"/>
<path d="M25 29.4922H41.2109V50H25V29.4922Z" fill="#C3CDE6"/>
<path d="M38.2228 0H11.7188V16.1133C11.7188 16.9223 12.3746 17.5781 13.1836 17.5781H36.8164C37.6254 17.5781 38.2812 16.9223 38.2812 16.1133V0.0584961L38.2228 0Z" fill="#DBE2F2"/>
<path d="M25 0V17.5781H36.8164C37.6254 17.5781 38.2812 16.9223 38.2812 16.1133V0.0584961C38.2584 0.0356445 38.2457 0.0227539 38.2228 0H25Z" fill="#CFD6E6"/>
<path d="M32.4219 14.6484H23.5352V0H32.4219V14.6484Z" fill="#495A79"/>
<path d="M25 0H32.4219V14.6484H25V0Z" fill="#42516D"/>
<path d="M33.8867 44.1406H16.1133C15.3036 44.1406 14.6484 43.4854 14.6484 42.6758C14.6484 41.8661 15.3036 41.2109 16.1133 41.2109H33.8867C34.6964 41.2109 35.3516 41.8661 35.3516 42.6758C35.3516 43.4854 34.6964 44.1406 33.8867 44.1406Z" fill="#949FB3"/>
<path d="M33.8867 41.2109H25V44.1406H33.8867C34.6964 44.1406 35.3516 43.4854 35.3516 42.6758C35.3516 41.8661 34.6964 41.2109 33.8867 41.2109Z" fill="#8A94A8"/>
<path d="M33.8867 38.2812H16.1133C15.3036 38.2812 14.6484 37.6261 14.6484 36.8164C14.6484 36.0067 15.3036 35.3516 16.1133 35.3516H33.8867C34.6964 35.3516 35.3516 36.0067 35.3516 36.8164C35.3516 37.6261 34.6964 38.2812 33.8867 38.2812Z" fill="#949FB3"/>
<path d="M33.8867 35.3516H25V38.2812H33.8867C34.6964 38.2812 35.3516 37.6261 35.3516 36.8164C35.3516 36.0067 34.6964 35.3516 33.8867 35.3516Z" fill="#8A94A8"/>
<path d="M25 36.5725H33.1166C34.5782 36.5725 35.9917 37.0857 37.1018 38.0185L44.9452 44.615C45.4702 45.0565 46.2384 45.1324 46.8218 44.7692C54.9813 39.7047 45.0844 19.7182 43.1227 16.0896C42.9147 15.7045 42.5719 13.6155 42.1551 13.4664L35.5595 11.1145C35.2745 11.0127 34.9692 10.9781 34.6681 11.0135C34.367 11.0489 34.0786 11.1534 33.8263 11.3184C33.8263 11.3184 31.9669 12.4838 31.5501 12.4838H18.6836C18.2668 12.4838 16.1737 11.3184 16.1737 11.3184C15.9213 11.1535 15.633 11.0491 15.3319 11.0137C15.0308 10.9783 14.7255 11.0128 14.4405 11.1145L7.84485 13.4664C7.42725 13.6155 7.08527 15.7045 6.87733 16.0896C4.91563 19.7182 -4.98133 39.7047 3.17821 44.7692C3.76251 45.1315 4.53069 45.0557 5.05483 44.615L12.8982 38.0185C14.0081 37.0856 15.4216 36.5727 16.8834 36.5725H25Z" fill="#38454F"/>
<path d="M31.6086 32.3591C33.5068 32.3591 35.0456 30.85 35.0456 28.9884C35.0456 27.1268 33.5068 25.6177 31.6086 25.6177C29.7103 25.6177 28.1715 27.1268 28.1715 28.9884C28.1715 30.85 29.7103 32.3591 31.6086 32.3591Z" fill="#546A79"/>
<path d="M11.8456 23.9324C13.7438 23.9324 15.2827 22.4233 15.2827 20.5617C15.2827 18.7001 13.7438 17.191 11.8456 17.191C9.94739 17.191 8.40857 18.7001 8.40857 20.5617C8.40857 22.4233 9.94739 23.9324 11.8456 23.9324Z" fill="#546A79"/>
<path d="M37.6234 18.8763C38.5725 18.8763 39.342 18.1218 39.342 17.191C39.342 16.2602 38.5725 15.5056 37.6234 15.5056C36.6743 15.5056 35.9049 16.2602 35.9049 17.191C35.9049 18.1218 36.6743 18.8763 37.6234 18.8763Z" fill="#EBBA16"/>
<path d="M34.1863 22.247C35.1354 22.247 35.9048 21.4925 35.9048 20.5617C35.9048 19.6309 35.1354 18.8763 34.1863 18.8763C33.2372 18.8763 32.4678 19.6309 32.4678 20.5617C32.4678 21.4925 33.2372 22.247 34.1863 22.247Z" fill="#7383BF"/>
<path d="M41.0604 22.247C42.0096 22.247 42.779 21.4925 42.779 20.5617C42.779 19.6309 42.0096 18.8763 41.0604 18.8763C40.1113 18.8763 39.3419 19.6309 39.3419 20.5617C39.3419 21.4925 40.1113 22.247 41.0604 22.247Z" fill="#D75A4A"/>
<path d="M37.6234 25.6177C38.5725 25.6177 39.342 24.8632 39.342 23.9324C39.342 23.0016 38.5725 22.247 37.6234 22.247C36.6743 22.247 35.9049 23.0016 35.9049 23.9324C35.9049 24.8632 36.6743 25.6177 37.6234 25.6177Z" fill="#61B872"/>
<path d="M27.3122 13.3518C27.3122 13.19 27.2959 13.0316 27.2658 12.879C27.2378 12.7346 27.1744 12.5989 27.0811 12.4838H24.951C24.8779 12.4897 24.8092 12.5091 24.7353 12.5091C24.6606 12.5091 24.5918 12.4906 24.5196 12.4838H22.3809C22.3009 12.5826 22.2445 12.6978 22.216 12.8209C22.1381 13.1738 22.1381 13.539 22.216 13.8919C22.3262 14.3803 22.5811 14.8259 22.9485 15.1728C23.316 15.5197 23.7798 15.7525 24.2816 15.8419C24.6527 15.9065 25.0337 15.8906 25.3979 15.7953C25.762 15.7 26.1004 15.5276 26.3893 15.2902C26.6782 15.0529 26.9106 14.7563 27.07 14.4214C27.2295 14.0865 27.3121 13.7214 27.3122 13.3518Z" fill="#AFB6BB"/>
<path d="M23.4455 27.0106H20.622V24.2416C20.622 24.0821 20.5574 23.929 20.4423 23.8162C20.3273 23.7033 20.1712 23.64 20.0085 23.64H17.7993C17.6366 23.64 17.4806 23.7033 17.3655 23.8162C17.2505 23.929 17.1858 24.0821 17.1858 24.2416V27.0106H14.3623C14.1996 27.0106 14.0435 27.074 13.9285 27.1869C13.8134 27.2997 13.7488 27.4527 13.7488 27.6123V29.7788C13.7488 30.1117 14.0237 30.3805 14.3623 30.3805H17.185V33.1495C17.185 33.4824 17.4599 33.7512 17.7985 33.7512H20.0076C20.347 33.7512 20.6211 33.4815 20.6211 33.1495V30.3805H23.4447C23.7841 30.3805 24.0582 30.1108 24.0582 29.7788V27.6123C24.0583 27.5333 24.0425 27.4551 24.0118 27.3821C23.9811 27.3091 23.936 27.2428 23.8791 27.1869C23.8222 27.131 23.7546 27.0867 23.6802 27.0565C23.6058 27.0262 23.5261 27.0106 23.4455 27.0106Z" fill="#546A79"/>
</svg>
