<svg width="50" height="50" viewBox="0 0 50 50" fill="none" xmlns="http://www.w3.org/2000/svg">
<path d="M46.4979 16.5858C46.3096 14.0058 44.4014 10.6997 42.4933 9.11798C40.3466 7.49737 38.1121 5.99344 35.8148 4.61916C33.5301 3.21895 31.17 1.93542 28.7472 0.794512C27.4668 0.249986 26.0733 -0.0222771 24.6799 0.00365273C23.2864 -0.035242 21.9056 0.237021 20.6126 0.794512C18.1897 1.93542 15.8422 3.21895 13.5575 4.61916C9.86676 6.93988 6.87903 9.11798 6.87903 9.11798C5.28474 10.5052 4.09215 12.2814 3.38916 14.278C3.25107 14.6281 3.51469 15.0041 3.8913 15.0041H6.9418C7.34351 15.0041 7.72011 14.7577 7.93352 14.4077C8.47332 13.5001 9.16377 12.6704 9.96719 11.9832C9.96719 11.9832 12.4402 10.1941 15.4782 8.28823C17.3738 7.13435 19.3195 6.0842 21.3155 5.15072C22.37 4.69695 23.525 4.47655 24.6673 4.50248C25.8223 4.47655 26.9646 4.69695 28.0317 5.15072C30.0277 6.0842 31.9735 7.13435 33.8565 8.28823C35.7646 9.41618 37.61 10.6478 39.38 11.9832C40.9492 13.2797 42.531 15.9894 42.6816 18.1027C42.6816 18.1027 43.0456 21.2402 43.1084 24.9611C43.0959 27.2689 42.9829 29.5636 42.7318 31.8455C42.3678 34.244 41.1752 36.4091 39.38 37.9649C39.38 37.9649 36.907 39.8189 33.8565 41.7118C31.9735 42.8656 30.0277 43.9158 28.0317 44.8493C26.9646 45.303 25.8223 45.5235 24.6673 45.4975C23.525 45.5235 22.3826 45.316 21.3155 44.8622C19.3195 43.9288 17.3738 42.8786 15.4782 41.7247C12.4402 39.8837 9.96719 37.9908 9.96719 37.9908C9.26419 37.4074 8.5612 36.5517 7.98374 35.5794C7.77033 35.2293 7.40628 34.9959 7.00456 34.9959H3.90385C3.52725 34.9959 3.26362 35.3719 3.40171 35.7349C4.16747 37.7186 5.52325 39.7152 6.87903 40.8431C6.87903 40.8431 9.86676 43.1509 13.5575 45.3938C15.8422 46.807 18.1897 48.0775 20.6126 49.2314C21.9056 49.763 23.2864 50.0352 24.6799 49.9963C26.0733 50.0352 27.4668 49.763 28.7472 49.2055C31.17 48.0646 33.5301 46.781 35.8148 45.3808C39.5056 43.0601 42.4933 40.8172 42.4933 40.8172C44.665 38.9243 46.1213 36.2665 46.5606 33.3494C46.8494 30.5619 47 27.7615 47 24.9611C46.9372 20.4234 46.4979 16.5858 46.4979 16.5858Z" fill="url(#paint0_linear_116_16)"/>
<path d="M3 19.5029C3 18.9454 3.42682 18.5046 3.96662 18.5046H18.968C19.5078 18.5046 19.9472 18.9454 19.9472 19.5029V22.4978C19.9472 23.0553 19.5078 23.4961 18.968 23.4961H3V19.5029Z" fill="#0066B3"/>
<path d="M3 26.5039H33.505C34.0322 26.5039 34.4716 26.9447 34.4716 27.5022V30.4971C34.4716 31.0546 34.0322 31.4954 33.505 31.4954H3.96662C3.42682 31.4954 3 31.0546 3 30.4971V26.5039Z" fill="#EE2F53"/>
<defs>
<linearGradient id="paint0_linear_116_16" x1="25.0837" y1="0.00364625" x2="25.0837" y2="50.0108" gradientUnits="userSpaceOnUse">
<stop stop-color="#0066B3"/>
<stop offset="0.354167" stop-color="#0066B3"/>
<stop offset="0.6875" stop-color="#EE2F53"/>
<stop offset="1" stop-color="#EE2F53"/>
</linearGradient>
</defs>
</svg>
