<?xml version="1.0" encoding="UTF-8" standalone="no"?>
<svg
   id="Layer_1"
   x="0"
   y="0"
   version="1.1"
   viewBox="0 0 50 50"
   xml:space="preserve"
   width="50"
   height="50"
   xmlns="http://www.w3.org/2000/svg"
   xmlns:svg="http://www.w3.org/2000/svg"><defs
     id="defs41" /><g
     id="g43"
     transform="translate(99.098666,36.05617)"><g
       id="_x31_16"
       transform="translate(7.1649674,6.0607159)"><rect
         style="fill:#000000;fill-opacity:0"
         id="rect41"
         width="50"
         height="50"
         x="-106.26363"
         y="-42.116886" /></g><g
       id="g42"
       transform="matrix(1.0416666,0,0,1.0274348,-13.485686,-45.927923)"><path
         fill="#9ea9c9"
         d="m -34.188464,28.71744 c 0,0.289978 -0.19995,0.589966 -0.58997,0.809998 l -32.89001,19.000002 c -0.77002,0.449951 -2.02002,0.449951 -2.78998,0 l -11.160033,-6.480042 c -0.359985,-0.22998 -0.539978,-0.5 -0.539978,-0.789978 l -0.03003,-3.390015 47.98004,-12.489992 z"
         id="path1" /><path
         fill="#c9cee2"
         d="m -81.589516,37.043808 c -0.768729,0.443827 -0.787242,1.172364 -0.02356,1.616169 l 11.152919,6.481369 c 0.76369,0.443806 2.02144,0.435437 2.79017,-0.0084 l 32.89441,-18.991594 c 0.76868,-0.443798 0.77273,-1.163933 0.009,-1.607737 l -11.15292,-6.48137 c -0.76369,-0.443804 -2.00698,-0.443839 -2.77566,-4.1e-5 z"
         id="path2" /><g
         id="g41"
         transform="translate(-85.688464,5.792142)"><path
           fill="#f3f1fc"
           d="m 24.059317,20.988985 c -0.135201,0.07806 -0.130009,0.196833 -0.0015,0.271498 l 2.522918,1.46616 c 0.110976,0.06449 0.31601,0.06789 0.451212,-0.01017 l 2.533543,-1.462744 c 0.117561,-0.06787 0.118269,-0.190054 0.0073,-0.254545 l -2.522919,-1.466162 c -0.128481,-0.07466 -0.339415,-0.07465 -0.456976,-0.0068 z"
           id="path3" /><path
           fill="#f3f1fc"
           d="m 19.668236,23.524178 c -0.129322,0.07466 -0.124149,0.193449 0.0043,0.268114 l 2.522921,1.466159 c 0.110973,0.06449 0.316029,0.06788 0.445349,-0.0068 l 2.539425,-1.466139 c 0.117561,-0.06787 0.112388,-0.186659 0.0014,-0.25115 l -2.522919,-1.466161 c -0.128481,-0.07467 -0.333536,-0.07805 -0.451095,-0.01018 z"
           id="path4" /><path
           fill="#f3f1fc"
           d="m 15.283034,26.055975 c -0.129341,0.07467 -0.130028,0.196844 -0.0015,0.271509 l 2.522918,1.46616 c 0.110975,0.06449 0.32189,0.06449 0.451231,-0.01018 l 2.539425,-1.466137 c 0.117559,-0.06787 0.112368,-0.186648 0.0014,-0.251139 L 18.27359,24.600026 c -0.128481,-0.07466 -0.333515,-0.07806 -0.451077,-0.01019 z"
           id="path5" /><path
           fill="#f3f1fc"
           d="m 10.897813,28.587784 c -0.135202,0.07806 -0.130009,0.196833 -0.0015,0.271498 l 2.522919,1.466159 c 0.110975,0.06449 0.316009,0.06789 0.451211,-0.01017 l 2.533544,-1.462742 c 0.117581,-0.06788 0.118269,-0.190053 0.0073,-0.254545 l -2.52292,-1.466161 c -0.128481,-0.07467 -0.339395,-0.07467 -0.456977,-0.0068 z"
           id="path6" /><path
           fill="#f3f1fc"
           d="m 6.5067315,31.122974 c -0.1293211,0.07466 -0.1241488,0.193451 0.00433,0.268116 l 2.5229197,1.46616 c 0.1109743,0.06449 0.3160286,0.06788 0.4453497,-0.0068 l 2.5394241,-1.466139 c 0.117561,-0.06787 0.112388,-0.186659 0.0014,-0.251152 L 9.4972515,29.667013 C 9.3687706,29.592348 9.1637163,29.588965 9.046155,29.656838 Z"
           id="path7" /><path
           fill="#f3f1fc"
           d="m 34.875378,14.744328 c -0.129319,0.07466 -0.124127,0.193438 0.0044,0.268103 l 2.522919,1.466161 c 0.110977,0.06449 0.316009,0.06789 0.445332,-0.0068 l 2.539424,-1.466137 c 0.117562,-0.06787 0.112389,-0.18666 0.0014,-0.251152 l -2.522923,-1.46616 c -0.128479,-0.07466 -0.333534,-0.07805 -0.451095,-0.01018 z"
           id="path8" /><path
           fill="#f3f1fc"
           d="m 30.490177,17.276125 c -0.12932,0.07466 -0.130028,0.196844 -0.0015,0.271509 l 2.522921,1.466162 c 0.110973,0.06449 0.321907,0.06448 0.451229,-0.01018 l 2.539425,-1.466137 c 0.117561,-0.06788 0.112389,-0.186661 0.0014,-0.251152 l -2.522918,-1.46616 c -0.128479,-0.07466 -0.333535,-0.07805 -0.451096,-0.01018 z"
           id="path9" /><path
           fill="#f3f1fc"
           d="m 28.118183,23.34774 c -0.1352,0.07806 -0.130009,0.196833 -0.0015,0.271498 l 2.522919,1.46616 c 0.110956,0.06448 0.316009,0.06789 0.451212,-0.01017 l 2.533542,-1.462744 c 0.117562,-0.06787 0.118248,-0.190065 0.0073,-0.254545 l -2.522919,-1.466162 c -0.12848,-0.07466 -0.339414,-0.07465 -0.456975,-0.0068 z"
           id="path10" /><path
           fill="#f3f1fc"
           d="m 23.727102,25.882933 c -0.129322,0.07466 -0.124149,0.193449 0.0043,0.268114 l 2.522919,1.46616 c 0.110956,0.06448 0.31603,0.06788 0.44535,-0.0068 l 2.539425,-1.466138 c 0.117561,-0.06787 0.112368,-0.186671 0.0014,-0.251151 L 26.717623,24.42697 c -0.128481,-0.07466 -0.333536,-0.07805 -0.451098,-0.01018 z"
           id="path11" /><path
           fill="#f3f1fc"
           d="m 19.3419,28.41473 c -0.129341,0.07468 -0.130028,0.196844 -0.0015,0.271509 l 2.522919,1.46616 c 0.110954,0.06448 0.32189,0.06449 0.451231,-0.01018 l 2.539423,-1.466137 c 0.117561,-0.06787 0.112348,-0.186659 0.0014,-0.251139 l -2.522919,-1.466162 c -0.128481,-0.07466 -0.333515,-0.07806 -0.451076,-0.01019 z"
           id="path12" /><path
           fill="#f3f1fc"
           d="m 14.956679,30.946539 c -0.135201,0.07806 -0.130009,0.196833 -0.0015,0.271498 l 2.522918,1.466159 c 0.110957,0.06448 0.31601,0.06789 0.451212,-0.01017 l 2.533543,-1.462743 c 0.117582,-0.06789 0.11825,-0.190066 0.0073,-0.254546 l -2.522919,-1.466161 c -0.128481,-0.07466 -0.339396,-0.07466 -0.456976,-0.0068 z"
           id="path13" /><path
           fill="#f3f1fc"
           d="m 10.565598,33.481731 c -0.129322,0.07466 -0.12415,0.193447 0.0043,0.268113 l 2.52292,1.466163 c 0.110955,0.06448 0.316029,0.06788 0.44535,-0.0068 l 2.539424,-1.466137 c 0.117562,-0.06788 0.11237,-0.186672 0.0014,-0.251152 l -2.52292,-1.46616 c -0.12848,-0.07466 -0.333534,-0.07805 -0.451096,-0.01017 z"
           id="path14" /><path
           fill="#f3f1fc"
           d="m 38.934246,17.103083 c -0.129322,0.07466 -0.12413,0.193439 0.0044,0.268102 l 2.522918,1.466162 c 0.110955,0.06448 0.31601,0.06789 0.445332,-0.0068 l 2.539421,-1.466137 c 0.117561,-0.06787 0.11237,-0.186672 0.0014,-0.251152 l -2.522918,-1.466159 c -0.128483,-0.07467 -0.333535,-0.07805 -0.451096,-0.01018 z"
           id="path15" /><path
           fill="#f3f1fc"
           d="m 34.549046,19.63488 c -0.129323,0.07466 -0.130032,0.196844 -0.0015,0.271509 l 2.522918,1.466162 c 0.110955,0.06448 0.321911,0.06448 0.45123,-0.01018 l 2.539424,-1.466137 c 0.117562,-0.06788 0.11237,-0.186672 0.0014,-0.251152 l -2.522923,-1.46616 c -0.128479,-0.07466 -0.333534,-0.07805 -0.451095,-0.01018 z"
           id="path16" /><path
           fill="#f3f1fc"
           d="m 32.177048,25.706495 c -0.135201,0.07806 -0.130009,0.196833 -0.0015,0.271498 l 2.522919,1.46616 c 0.110954,0.06448 0.316009,0.06789 0.45121,-0.01017 l 2.533542,-1.462744 c 0.117561,-0.06787 0.118252,-0.190065 0.0073,-0.254545 L 35.1676,24.250532 c -0.128479,-0.07466 -0.339413,-0.07465 -0.456974,-0.0068 z"
           id="path17" /><path
           fill="#f3f1fc"
           d="m 19.015545,33.305294 c -0.141081,0.08145 -0.130009,0.196831 -0.0074,0.268101 l 2.522919,1.466163 c 0.110956,0.06448 0.315971,0.07468 0.457052,-0.0068 L 33.292084,28.50641 c 0.12344,-0.07127 0.106526,-0.190066 -0.0044,-0.254546 l -2.522918,-1.466161 c -0.122641,-0.07127 -0.321814,-0.07805 -0.445256,-0.0068 z"
           id="path18" /><path
           fill="#f3f1fc"
           d="m 14.624463,35.840485 c -0.129321,0.07466 -0.124148,0.193451 0.0043,0.268116 l 2.522918,1.466159 c 0.110957,0.06448 0.316031,0.06788 0.445351,-0.0068 l 2.539425,-1.466137 c 0.117561,-0.06788 0.112367,-0.186672 0.0014,-0.251152 l -2.52292,-1.46616 c -0.128479,-0.07466 -0.333535,-0.07805 -0.451096,-0.01018 z"
           id="path19" /><path
           fill="#f3f1fc"
           d="m 42.993111,19.461838 c -0.129322,0.07466 -0.124127,0.193439 0.0044,0.268102 l 2.522919,1.466162 c 0.110954,0.06448 0.316009,0.06789 0.445332,-0.0068 l 2.539424,-1.466137 c 0.117562,-0.06787 0.11237,-0.186672 0.0014,-0.251152 l -2.522919,-1.466159 c -0.128479,-0.07467 -0.333534,-0.07805 -0.451095,-0.01018 z"
           id="path20" /><path
           fill="#9ea9c9"
           d="m 43.003677,20.475983 2.52274,1.473083 c 0.110477,0.06446 0.313003,0.06446 0.441913,-0.0092 l 2.541115,-1.463924 c 0.05524,-0.03681 0.08283,-0.08283 0.08283,-0.12891 v -0.745757 c 0,0.04602 -0.02759,0.0921 -0.08283,0.119694 l -2.541115,1.463923 c -0.12891,0.08283 -0.340648,0.07362 -0.451129,0.0092 L 42.994518,19.73017 c -0.06446,-0.03681 -0.0921,-0.09205 -0.0921,-0.138127 v 0.754973 c 0,0.04608 0.02764,0.0921 0.101261,0.12891 z"
           id="path21" /><path
           fill="#9ea9c9"
           d="m 44.449169,18.119017 c 0.05524,-0.03681 0.08289,-0.08289 0.08289,-0.128911 v -0.754972 c 0,0.04608 -0.02764,0.0921 -0.08289,0.12891 l -2.541115,1.463923 c -0.128856,0.07362 -0.331436,0.07362 -0.45113,0.0092 L 38.934242,17.37326 c -0.06446,-0.03681 -0.09205,-0.09205 -0.09205,-0.138126 v 0.745758 c 0,0.05524 0.03681,0.101318 0.101261,0.138125 l 2.522686,1.473083 c 0.110477,0.06446 0.313057,0.06446 0.441913,-0.0092 z"
           id="path22" /><path
           fill="#9ea9c9"
           d="m 19.010481,34.323151 2.522739,1.463924 c 0.110478,0.06445 0.313004,0.07367 0.460345,0 l 11.296837,-6.527723 c 0.06446,-0.03681 0.0921,-0.08283 0.0921,-0.128853 v -0.745758 c 0,0.04602 -0.02765,0.09205 -0.0921,0.119694 L 21.98435,35.032101 c -0.138126,0.08289 -0.340652,0.07367 -0.45113,0.0092 l -2.522739,-1.463924 c -0.0644,-0.03681 -0.101263,-0.08283 -0.101263,-0.13807 l 0.0092,0.754975 c 0,0.04602 0.02765,0.09204 0.09205,0.128853 z"
           id="path23" /><path
           fill="#9ea9c9"
           d="m 38.510757,22.133215 v 0.745758 c 0,0.05524 0.03681,0.101318 0.101265,0.138126 l 2.522683,1.463866 c 0.110477,0.06445 0.322219,0.06445 0.451129,-0.0092 l 2.531899,-1.463923 c 0.06446,-0.03681 0.09205,-0.08283 0.09205,-0.12891 v -0.745758 c 0,0.04602 -0.02759,0.0921 -0.09205,0.119694 l -2.541115,1.463924 c -0.12891,0.08283 -0.340652,0.08283 -0.45113,0.01838 l -2.522682,-1.473084 c -0.06446,-0.03681 -0.09205,-0.08289 -0.09205,-0.12891 z"
           id="path24" /><path
           fill="#9ea9c9"
           d="m 36.006451,17.538979 -2.541115,1.463922 c -0.12891,0.07361 -0.340653,0.07361 -0.45113,0.0092 l -2.522684,-1.463924 c -0.06445,-0.03681 -0.101261,-0.08289 -0.101261,-0.138125 l 0.0092,0.754973 c 0,0.04602 0.02765,0.0921 0.0921,0.12891 l 2.522684,1.473082 c 0.110478,0.06446 0.32222,0.06446 0.45113,-0.0092 l 2.541115,-1.473139 c 0.05524,-0.02759 0.08289,-0.07367 0.08289,-0.119694 v -0.754973 c -10e-7,0.04608 -0.02765,0.0921 -0.08289,0.128911 z"
           id="path25" /><path
           fill="#9ea9c9"
           d="m 20.796623,26.313187 -2.541059,1.473083 c -0.12891,0.07367 -0.340708,0.07367 -0.451186,0.0092 l -2.522684,-1.463924 c -0.06446,-0.03681 -0.09205,-0.09205 -0.09205,-0.138069 v 0.745758 c 0,0.05524 0.02759,0.101261 0.09205,0.138069 l 2.522684,1.463923 c 0.110478,0.06445 0.322276,0.06445 0.451186,-0.0092 l 2.541059,-1.463865 c 0.05524,-0.03686 0.08289,-0.08289 0.08289,-0.12891 v -0.745758 c 0,0.04602 -0.02765,0.09205 -0.08289,0.119694 z"
           id="path26" /><path
           fill="#9ea9c9"
           d="m 20.557291,31.828115 -0.0092,-0.745758 c 0,0.04603 -0.02765,0.09205 -0.08289,0.12891 l -2.531898,1.46387 c -0.138072,0.07367 -0.340653,0.07367 -0.45113,0.0092 l -2.522684,-1.463925 c -0.06445,-0.03681 -0.101262,-0.09205 -0.101262,-0.138071 v 0.754975 c 0,0.04602 0.03681,0.09205 0.101262,0.128853 l 2.522684,1.463922 c 0.110477,0.07367 0.313059,0.07367 0.45113,-0.0092 l 2.531898,-1.454706 c 0.05524,-0.03681 0.0921,-0.09205 0.0921,-0.13807 z"
           id="path27" /><path
           fill="#9ea9c9"
           d="m 28.116125,24.370487 2.522684,1.463923 c 0.110478,0.06446 0.322275,0.07367 0.451128,-0.0092 l 2.531901,-1.463865 c 0.06445,-0.03686 0.0921,-0.08289 0.0921,-0.12891 v -0.754974 c 0,0.05524 -0.02765,0.101263 -0.0921,0.138126 l -2.531901,1.463867 c -0.138069,0.07367 -0.34065,0.07367 -0.451128,0.0092 L 28.116125,23.61557 c -0.06445,-0.03686 -0.101263,-0.08289 -0.101263,-0.12891 l 0.0092,0.745758 c 0,0.05524 0.02759,0.101261 0.09205,0.138069 z"
           id="path28" /><path
           fill="#9ea9c9"
           d="m 32.176403,26.727453 2.522682,1.463923 c 0.110478,0.06445 0.313004,0.07367 0.45113,-0.0092 l 2.531899,-1.463865 c 0.06446,-0.02765 0.09205,-0.08289 0.09205,-0.128912 v -0.745756 c 0,0.04602 -0.02759,0.09205 -0.09205,0.12891 l -2.531899,1.463867 c -0.138126,0.07367 -0.340652,0.07367 -0.45113,0.0092 l -2.522682,-1.463925 c -0.06446,-0.03681 -0.101318,-0.09205 -0.101318,-0.138069 v 0.745756 c 0,0.05524 0.03686,0.101263 0.101318,0.138071 z"
           id="path29" /><path
           fill="#9ea9c9"
           d="m 25.179119,23.781288 -2.541115,1.473082 c -0.128854,0.07367 -0.331436,0.06445 -0.441913,0 l -2.522684,-1.463923 c -0.06446,-0.03681 -0.101263,-0.08283 -0.101263,-0.138069 v 0.754973 c 0,0.04602 0.03681,0.101263 0.101263,0.138069 l 2.522684,1.463924 c 0.110477,0.06446 0.313059,0.06446 0.45113,-0.0092 l 2.531898,-1.463867 c 0.06445,-0.03686 0.0921,-0.08289 0.0921,-0.12891 v -0.745759 c 0,0.04603 -0.03686,0.09205 -0.0921,0.119696 z"
           id="path30" /><path
           fill="#9ea9c9"
           d="m 29.570831,22.004362 c 0.05524,-0.03686 0.08283,-0.08289 0.08283,-0.12891 v -0.754974 c 0,0.04602 -0.02759,0.101263 -0.09205,0.12891 l -2.531899,1.463867 c -0.12891,0.08289 -0.34065,0.07367 -0.451129,0.0092 L 24.0559,21.258533 c -0.06446,-0.03681 -0.0921,-0.08283 -0.0921,-0.128855 v 0.745758 c 0,0.04602 0.02765,0.101261 0.0921,0.138069 l 2.522683,1.463923 c 0.119695,0.06446 0.322219,0.06446 0.451129,-0.0092 z"
           id="path31" /><path
           fill="#9ea9c9"
           d="m 34.551743,19.905159 c -0.06445,-0.03681 -0.101262,-0.08289 -0.101262,-0.138126 v 0.754974 c 0,0.04602 0.03681,0.101318 0.101262,0.138126 l 2.522686,1.463866 c 0.110534,0.06445 0.322273,0.06445 0.451183,-0.0092 l 2.541061,-1.463923 c 0.05529,-0.03681 0.08289,-0.08289 0.08289,-0.12891 v -0.754974 c 0,0.04608 -0.02759,0.0921 -0.09205,0.128912 l -2.531902,1.463922 c -0.12891,0.07361 -0.340649,0.07361 -0.451183,0.0092 z"
           id="path32" /><path
           fill="#9ea9c9"
           d="m 29.331444,26.764317 -0.0092,-0.745759 c 0,0.04603 -0.02759,0.09205 -0.08283,0.128911 l -2.541115,1.463867 c -0.128912,0.07367 -0.331436,0.07367 -0.44197,0.0092 l -2.522685,-1.473083 c -0.06445,-0.03686 -0.101261,-0.08289 -0.101261,-0.128911 v 0.745759 c 0,0.04602 0.03681,0.101263 0.101261,0.138069 l 2.522685,1.463924 c 0.110534,0.06446 0.313058,0.07367 0.44197,-0.0092 l 2.541115,-1.463867 c 0.06445,-0.02765 0.09205,-0.08289 0.09205,-0.12891 z"
           id="path33" /><path
           fill="#9ea9c9"
           d="m 24.856899,29.425127 c 0.05524,-0.03686 0.08283,-0.08289 0.08283,-0.128912 v -0.745756 c 0,0.04602 -0.02759,0.09205 -0.08283,0.12891 l -2.541115,1.463867 c -0.12891,0.07367 -0.34065,0.07367 -0.451129,0.0092 l -2.522683,-1.463924 c -0.06445,-0.03681 -0.10132,-0.09205 -0.10132,-0.138069 l 0.0092,0.754972 c 0,0.04603 0.02765,0.09205 0.0921,0.128855 l 2.522683,1.473139 c 0.110479,0.06445 0.322219,0.06445 0.451129,-0.01843 z"
           id="path34" /><path
           fill="#9ea9c9"
           d="m 40.388947,15.752835 c 0.05524,-0.02759 0.08283,-0.07367 0.08283,-0.119694 v -0.754973 c 0,0.04608 -0.02759,0.0921 -0.08283,0.12891 l -2.541115,1.463923 c -0.12891,0.07362 -0.331436,0.07362 -0.441914,0.0092 l -2.522682,-1.463923 c -0.06446,-0.04602 -0.101318,-0.09205 -0.101318,-0.138126 v 0.745757 c 0,0.05524 0.03686,0.101319 0.101318,0.138127 l 2.522682,1.463923 c 0.110478,0.0644 0.313004,0.07361 0.441914,0 z"
           id="path35" /><path
           fill="#9ea9c9"
           d="m 16.404966,28.854246 -2.531899,1.463923 c -0.138127,0.07367 -0.340652,0.07367 -0.45113,0.0092 l -2.522739,-1.463923 c -0.06446,-0.04602 -0.101263,-0.09205 -0.101263,-0.138071 v 0.745758 c 0,0.05524 0.03681,0.101263 0.101263,0.13807 l 2.522739,1.463924 c 0.110478,0.06445 0.313004,0.07367 0.45113,-0.0092 l 2.531899,-1.463868 c 0.06445,-0.02765 0.09205,-0.08289 0.09205,-0.12891 v -0.745758 c 0,0.04603 -0.03681,0.09205 -0.09205,0.128855 z"
           id="path36" /><path
           fill="#9ea9c9"
           d="m 14.526721,35.971222 0.0092,0.754974 c 0,0.04603 0.02765,0.09205 0.0921,0.128853 l 2.522683,1.473141 c 0.11048,0.06445 0.32222,0.06445 0.45113,-0.0092 l 2.541115,-1.463925 c 0.05524,-0.0368 0.08283,-0.08283 0.08283,-0.128853 v -0.754974 c 0,0.04602 -0.02759,0.101265 -0.09205,0.12891 l -2.541117,1.463867 c -0.12891,0.08289 -0.331434,0.07367 -0.441914,0.0092 l -2.522683,-1.463921 c -0.06445,-0.03681 -0.101318,-0.09205 -0.101318,-0.138073 z"
           id="path37" /><path
           fill="#9ea9c9"
           d="m 10.4665,33.614258 0.0092,0.745758 c 0,0.05524 0.02759,0.101261 0.09205,0.138069 l 2.522684,1.463924 c 0.119694,0.06445 0.322276,0.07367 0.451129,0 l 2.541116,-1.463924 c 0.05524,-0.03681 0.08289,-0.08283 0.08289,-0.128853 v -0.754974 c 0,0.04602 -0.02765,0.09204 -0.0921,0.12891 l -2.5319,1.463867 c -0.128854,0.07367 -0.340651,0.07367 -0.45113,0.0092 l -2.522683,-1.463924 c -0.06446,-0.03681 -0.09205,-0.09204 -0.101262,-0.138069 z"
           id="path38" /><path
           fill="#9ea9c9"
           d="m 6.4154382,31.257292 v 0.745756 c 0,0.05524 0.036864,0.101265 0.1013188,0.138069 l 2.5226831,1.463924 c 0.1104784,0.06446 0.3130035,0.07367 0.4419136,0 L 12.02247,32.131958 c 0.05524,-0.02764 0.08283,-0.07367 0.08283,-0.119694 v -0.754972 c 0,0.04602 -0.02759,0.09205 -0.08283,0.128854 l -2.5411163,1.463921 c -0.1289101,0.07367 -0.3406506,0.07367 -0.451129,0.0092 L 6.5075411,31.395361 c -0.064455,-0.04602 -0.092103,-0.09205 -0.092103,-0.138069 z"
           id="path39" /><g
           id="g40"><path
             fill="#f3f1fc"
             d="m 38.60791,21.993635 c -0.129322,0.07466 -0.130028,0.196844 -0.0015,0.271509 l 2.522919,1.466162 c 0.110958,0.06448 0.321911,0.06448 0.451233,-0.01018 l 2.539421,-1.466137 c 0.117561,-0.06787 0.11237,-0.186672 0.0014,-0.251152 l -2.522918,-1.46616 c -0.128483,-0.07466 -0.333535,-0.07805 -0.451096,-0.01018 z"
             id="path40" /></g></g><path
         fill="#ffffff"
         d="m -70.831434,44.167569 c -0.49945,0 -0.94223,0.194839 -1.26459,0.520721 -0.32588,0.322334 -0.5207,0.765118 -0.5207,1.264587 0,-0.984756 -0.800553,-1.785308 -1.78529,-1.785308 0.488812,0 0.942232,-0.205437 1.26811,-0.517159 0.31172,-0.325901 0.51718,-0.779301 0.51718,-1.268131 0,0.48883 0.19482,0.94223 0.5207,1.268131 0.32236,0.311722 0.76514,0.517159 1.26459,0.517159 z"
         id="path41" /></g></g></svg>
