<svg viewBox="0 0 50 50" xmlns="http://www.w3.org/2000/svg" xmlns:xlink="http://www.w3.org/1999/xlink" width="50.000004" height="50.000004" fill="none" customFrame="#000000">
	<g id="hp">
		<g id="g3061">
			<g id="g3021">
				<path id="path3023" d="M50 25C50 38.8077 38.8077 50 25 50C24.6235 50 24.249 49.9905 23.8763 49.9734L18.7626 35.9185L23.2165 35.9185C25.8661 35.9185 27.294 33.8784 26.387 31.3867L20.0793 14.052L14.7831 14.0529L21.5519 32.633L17.5695 32.633L10.8007 14.0529L5.50253 14.0529L13.4616 35.9185L13.4626 35.9185L18.2502 49.0769C7.72236 46.1317 0 36.468 0 25C0 13.1916 8.1882 3.296 19.1961 0.678784L23.8354 13.4283L23.8392 13.4283L32.0236 35.9185L41.7785 35.9185C44.4309 35.9185 45.8579 33.8784 44.9509 31.3867L39.4085 16.1615C38.9864 15.0017 37.6317 14.0529 36.3977 14.0529L29.3665 14.0529L24.2575 0.0114073C24.5037 0.0047526 24.7519 0 25 0C38.8077 -1.81328e-06 50 11.1933 50 25Z" fill="rgb(0,150,214)" fill-rule="nonzero" transform="matrix(1,0,0,-1,0,50)" />
			</g>
			<g id="g3025">
				<path id="path3027" d="M9.55527 15.2955L5.57478 15.2955L0 0L3.98049 0L9.55527 15.2955Z" fill="rgb(0,150,214)" fill-rule="nonzero" transform="matrix(1,0,0,-1,30.5719,32.6492)" />
			</g>
		</g>
	</g>
</svg>
