<svg width="50" height="50" viewBox="0 0 50 50" fill="none" xmlns="http://www.w3.org/2000/svg">
<path d="M48.3036 18.905L41.4906 7.62733C40.4537 5.90886 38.9953 4.48843 37.2559 3.50283C35.5165 2.51724 33.5546 1.99968 31.5592 2H18.4408C16.4459 1.99981 14.4845 2.51723 12.7455 3.50247C11.0064 4.4877 9.54825 5.90757 8.5113 7.62542L1.69639 18.905C0.586894 20.7406 0 22.8486 0 24.9981C0 27.1475 0.586894 29.2556 1.69639 31.0912L8.5113 42.3727C9.54802 44.0909 11.0061 45.5111 12.7452 46.4967C14.4842 47.4823 16.4457 48 18.4408 48H31.5611C33.5557 47.9999 35.5166 47.4823 37.2553 46.4971C38.994 45.5118 40.4519 44.0922 41.4887 42.3746L48.3036 31.0931C49.4131 29.2575 50 27.1495 50 25C50 22.8505 49.4131 20.7425 48.3036 18.9069V18.905Z" fill="#00C6FF"/>
<path d="M38.5468 35.3883L31.0018 28.5075L31.1463 28.2967C32.0704 26.9416 32.7188 25.3987 32.9451 23.7695C33.1653 22.2134 33.0338 20.6273 32.5601 19.1298C32.0865 17.6322 31.2831 16.2619 30.21 15.1215C29.1369 13.981 27.8219 13.0999 26.3634 12.5439C24.9048 11.988 23.3404 11.7717 21.7872 11.9111C16.7711 12.35 12.7589 16.4804 12.4053 21.5404C12.3054 22.9672 12.4978 24.3995 12.9705 25.7482C13.4433 27.0968 14.1863 28.333 15.1533 29.3798C16.1203 30.4267 17.2907 31.2617 18.5916 31.8331C19.8924 32.4045 21.2961 32.7 22.7151 32.7012C24.2914 32.7012 25.8031 32.3504 27.2159 31.6585L27.4992 31.5205L35.4721 38.7962C35.9244 39.1772 36.5052 39.3674 37.0933 39.327C37.6813 39.2867 38.2312 39.0189 38.628 38.5795C39.0248 38.1402 39.2379 37.5634 39.2228 36.9694C39.2077 36.3755 38.9655 35.8104 38.5468 35.3922V35.3883ZM23.3882 28.8774C22.4163 28.9769 21.4345 28.8571 20.5142 28.5267C19.5938 28.1963 18.7579 27.6636 18.0671 26.9673C17.3763 26.271 16.8478 25.4284 16.5201 24.5007C16.1923 23.573 16.0734 22.5834 16.1721 21.6037C16.3311 20.0896 17.0004 18.6763 18.0683 17.5996C19.1362 16.5228 20.5381 15.8477 22.0401 15.6869C23.0122 15.5868 23.9943 15.7061 24.9149 16.0362C25.8356 16.3663 26.6718 16.899 27.3628 17.5955C28.0538 18.292 28.5822 19.1348 28.9097 20.0629C29.2372 20.9909 29.3556 21.9808 29.2562 22.9607C29.0972 24.4747 28.4279 25.888 27.36 26.9648C26.2921 28.0415 24.8902 28.7166 23.3882 28.8774Z" fill="white"/>
</svg>
