<svg width="50" height="50" viewBox="0 0 50 50" fill="none" xmlns="http://www.w3.org/2000/svg">
<g clip-path="url(#clip0_250_42)">
<path d="M0.86207 5.17241L9.53674e-07 6.89655V37.931C0.00136537 38.3879 0.183453 38.8256 0.506497 39.1487C0.82954 39.4717 1.26729 39.6538 1.72414 39.6552H39.6552C40.112 39.6538 40.5498 39.4717 40.8728 39.1487C41.1959 38.8256 41.3779 38.3879 41.3793 37.931V6.89655L40.5172 5.17241H0.86207Z" fill="#A9B0BB"/>
<path d="M41.3793 6.89655V37.931C41.3779 38.3879 41.1959 38.8256 40.8728 39.1487C40.5498 39.4717 40.112 39.6538 39.6552 39.6552H15.5172V6.89655H41.3793Z" fill="#636C77"/>
<path d="M41.3793 1.72414V6.89655H0V1.72414C0.00136442 1.26729 0.183452 0.829539 0.506496 0.506496C0.829539 0.183452 1.26729 0.00136442 1.72414 0L39.6552 0C40.112 0.00136442 40.5498 0.183452 40.8728 0.506496C41.1959 0.829539 41.3779 1.26729 41.3793 1.72414Z" fill="#CAD0D7"/>
<path d="M35.3448 45.6897C41.0581 45.6897 45.6897 41.0581 45.6897 35.3448C45.6897 29.6315 41.0581 25 35.3448 25C29.6315 25 25 29.6315 25 35.3448C25 41.0581 29.6315 45.6897 35.3448 45.6897Z" fill="#66D4F1"/>
<path d="M44.2586 40.6034L49.2414 45.5862C49.6026 45.9479 49.8486 46.4085 49.9482 46.9099C50.0478 47.4113 49.9965 47.9309 49.801 48.4032C49.6054 48.8755 49.2743 49.2792 48.8494 49.5634C48.4245 49.8476 47.925 49.9996 47.4138 50C47.0742 50 46.738 49.933 46.4244 49.8028C46.1108 49.6726 45.826 49.4818 45.5862 49.2414L40.6034 44.2586L44.2586 40.6034Z" fill="#A38671"/>
<path d="M41.3793 26.9397V37.931C41.3779 38.3879 41.1959 38.8256 40.8728 39.1487C40.5498 39.4717 40.112 39.6538 39.6552 39.6552H25.931C25.0725 37.7672 24.7992 35.6654 25.1466 33.6207C25.2379 33.0328 25.3879 32.4552 25.5948 31.8966C25.9122 30.9725 26.3655 30.1009 26.9397 29.3103C28.3401 27.362 30.3739 25.9606 32.6932 25.3458C35.0126 24.731 37.4735 24.9409 39.6552 25.9397C40.2621 26.2129 40.8405 26.5483 41.3793 26.9397Z" fill="#3AADD9"/>
<path d="M41.3793 6.89655V26.9397C40.8402 26.5484 40.2625 26.2134 39.6552 25.9397V6.89655H41.3793Z" fill="#535E68"/>
<path d="M41.3793 26.9397V37.931C41.3779 38.3879 41.1959 38.8256 40.8728 39.1487C40.5498 39.4717 40.112 39.6538 39.6552 39.6552H37.931C38.3879 39.6538 38.8256 39.4717 39.1487 39.1487C39.4717 38.8256 39.6538 38.3879 39.6552 37.931V25.9397C40.2621 26.2129 40.8405 26.5483 41.3793 26.9397Z" fill="#2A99BC"/>
<path d="M41.3793 1.72414V6.89655H39.6552V1.72414C39.6538 1.26729 39.4717 0.82954 39.1487 0.506497C38.8256 0.183453 38.3879 0.00136537 37.931 9.53674e-07L39.6552 9.53674e-07C40.112 0.00136537 40.5498 0.183453 40.8728 0.506497C41.1959 0.82954 41.3779 1.26729 41.3793 1.72414Z" fill="#A9B0BB"/>
<path d="M49.2414 49.2414C49.0027 49.4832 48.718 49.6749 48.4042 49.8052C48.0903 49.9355 47.7536 50.0017 47.4138 50C47.1046 50.0016 46.7977 49.9461 46.5086 49.8362C46.8578 49.7112 47.1724 49.5078 47.431 49.2414C47.9153 48.7565 48.1874 48.0991 48.1874 47.4138C48.1874 46.7284 47.9153 46.0711 47.431 45.5862L44.1379 42.2931C44.4052 41.9517 44.6526 41.5948 44.8793 41.2241L49.2414 45.5862C49.7257 46.0711 49.9977 46.7284 49.9977 47.4138C49.9977 48.0991 49.7257 48.7565 49.2414 49.2414Z" fill="#937661"/>
<path d="M23.2759 22.4138C23.0472 22.4137 22.828 22.3229 22.6664 22.1612L18.356 17.8509C18.1944 17.6892 18.1036 17.47 18.1036 17.2414C18.1036 17.0128 18.1944 16.7936 18.356 16.6319L22.6664 12.3216C22.829 12.1645 23.0467 12.0776 23.2728 12.0796C23.4988 12.0816 23.715 12.1722 23.8748 12.3321C24.0347 12.4919 24.1253 12.7081 24.1273 12.9341C24.1293 13.1602 24.0424 13.3779 23.8853 13.5405L20.1845 17.2414L23.8853 20.9422C24.0059 21.0628 24.0879 21.2164 24.1212 21.3836C24.1544 21.5508 24.1374 21.7241 24.0721 21.8816C24.0069 22.0391 23.8964 22.1737 23.7547 22.2685C23.613 22.3632 23.4463 22.4138 23.2759 22.4138ZM33.6207 22.4138C33.4502 22.4138 33.2836 22.3632 33.1418 22.2685C33.0001 22.1737 32.8896 22.0391 32.8244 21.8816C32.7592 21.7241 32.7421 21.5508 32.7754 21.3836C32.8086 21.2164 32.8907 21.0628 33.0112 20.9422L36.7121 17.2414L33.0112 13.5405C32.8542 13.3779 32.7673 13.1602 32.7692 12.9341C32.7712 12.7081 32.8619 12.4919 33.0217 12.3321C33.1815 12.1722 33.3978 12.0816 33.6238 12.0796C33.8498 12.0776 34.0676 12.1645 34.2302 12.3216L38.5405 16.6319C38.7021 16.7936 38.7929 17.0128 38.7929 17.2414C38.7929 17.47 38.7021 17.6892 38.5405 17.8509L34.2302 22.1612C34.0685 22.3229 33.8493 22.4137 33.6207 22.4138ZM26.7241 22.4138C26.5833 22.4138 26.4445 22.3794 26.3201 22.3134C26.1956 22.2474 26.0892 22.1519 26.0102 22.0353C25.9311 21.9187 25.8819 21.7845 25.8667 21.6444C25.8516 21.5044 25.871 21.3627 25.9233 21.2319L29.3716 12.6112C29.4564 12.3988 29.6221 12.2288 29.8323 12.1386C30.0424 12.0484 30.2798 12.0453 30.4922 12.1302C30.7046 12.215 30.8746 12.3807 30.9649 12.5909C31.0551 12.8011 31.0581 13.0385 30.9733 13.2509L27.525 21.8716C27.461 22.0317 27.3505 22.1689 27.2078 22.2656C27.065 22.3622 26.8965 22.4139 26.7241 22.4138Z" fill="#B4DF80"/>
<path d="M36.2069 29.3103H35.3448C35.1162 29.3103 34.8969 29.2195 34.7353 29.0579C34.5736 28.8962 34.4828 28.6769 34.4828 28.4483C34.4828 28.2196 34.5736 28.0004 34.7353 27.8387C34.8969 27.677 35.1162 27.5862 35.3448 27.5862H36.2069C36.4355 27.5862 36.6548 27.677 36.8165 27.8387C36.9781 28.0004 37.069 28.2196 37.069 28.4483C37.069 28.6769 36.9781 28.8962 36.8165 29.0579C36.6548 29.2195 36.4355 29.3103 36.2069 29.3103Z" fill="#2291AA"/>
<path d="M28.5 27.5862C27.918 28.1018 27.3948 28.68 26.9397 29.3103H20.6897C20.461 29.3103 20.2417 29.2195 20.0801 29.0579C19.9184 28.8962 19.8276 28.6769 19.8276 28.4483C19.8276 28.2196 19.9184 28.0004 20.0801 27.8387C20.2417 27.677 20.461 27.5862 20.6897 27.5862H28.5Z" fill="#F4F6F8"/>
<path d="M32.7586 28.4483C32.7586 28.6769 32.6678 28.8962 32.5061 29.0579C32.3445 29.2195 32.1252 29.3103 31.8966 29.3103H26.9397C27.3948 28.68 27.918 28.1018 28.5 27.5862H31.8966C32.1252 27.5862 32.3445 27.677 32.5061 27.8387C32.6678 28.0004 32.7586 28.2196 32.7586 28.4483ZM36.2069 33.6207H31.8966C31.6679 33.6207 31.4486 33.5299 31.287 33.3682C31.1253 33.2065 31.0345 32.9873 31.0345 32.7586C31.0345 32.53 31.1253 32.3107 31.287 32.149C31.4486 31.9874 31.6679 31.8966 31.8966 31.8966H36.2069C36.4355 31.8966 36.6548 31.9874 36.8165 32.149C36.9781 32.3107 37.069 32.53 37.069 32.7586C37.069 32.9873 36.9781 33.2065 36.8165 33.3682C36.6548 33.5299 36.4355 33.6207 36.2069 33.6207Z" fill="#2291AA"/>
<path d="M25.5948 31.8966C25.3879 32.4552 25.2379 33.0328 25.1466 33.6207H20.6897C20.461 33.6207 20.2417 33.5299 20.0801 33.3682C19.9184 33.2065 19.8276 32.9873 19.8276 32.7586C19.8276 32.53 19.9184 32.3107 20.0801 32.149C20.2417 31.9874 20.461 31.8966 20.6897 31.8966H25.5948Z" fill="#F4F6F8"/>
<path d="M29.3103 32.7586C29.3103 32.9873 29.2195 33.2065 29.0579 33.3682C28.8962 33.5299 28.6769 33.6207 28.4483 33.6207H25.1466C25.2379 33.0328 25.3879 32.4552 25.5948 31.8966H28.4483C28.6769 31.8966 28.8962 31.9874 29.0579 32.149C29.2195 32.3107 29.3103 32.53 29.3103 32.7586Z" fill="#2291AA"/>
<path d="M4.31034 4.31034H3.44828C3.21964 4.31034 3.00037 4.21952 2.8387 4.05785C2.67703 3.89618 2.58621 3.67691 2.58621 3.44828C2.58621 3.21964 2.67703 3.00037 2.8387 2.8387C3.00037 2.67703 3.21964 2.58621 3.44828 2.58621H4.31034C4.53898 2.58621 4.75825 2.67703 4.91992 2.8387C5.08159 3.00037 5.17241 3.21964 5.17241 3.44828C5.17241 3.67691 5.08159 3.89618 4.91992 4.05785C4.75825 4.21952 4.53898 4.31034 4.31034 4.31034Z" fill="#D94452"/>
<path d="M8.62069 4.31034H7.75862C7.52999 4.31034 7.31072 4.21952 7.14905 4.05785C6.98738 3.89618 6.89655 3.67691 6.89655 3.44828C6.89655 3.21964 6.98738 3.00037 7.14905 2.8387C7.31072 2.67703 7.52999 2.58621 7.75862 2.58621H8.62069C8.84932 2.58621 9.06859 2.67703 9.23026 2.8387C9.39193 3.00037 9.48276 3.21964 9.48276 3.44828C9.48276 3.67691 9.39193 3.89618 9.23026 4.05785C9.06859 4.21952 8.84932 4.31034 8.62069 4.31034Z" fill="#F5B945"/>
<path d="M12.931 4.31034H12.069C11.8403 4.31034 11.6211 4.21952 11.4594 4.05785C11.2977 3.89618 11.2069 3.67691 11.2069 3.44828C11.2069 3.21964 11.2977 3.00037 11.4594 2.8387C11.6211 2.67703 11.8403 2.58621 12.069 2.58621H12.931C13.1597 2.58621 13.3789 2.67703 13.5406 2.8387C13.7023 3.00037 13.7931 3.21964 13.7931 3.44828C13.7931 3.67691 13.7023 3.89618 13.5406 4.05785C13.3789 4.21952 13.1597 4.31034 12.931 4.31034Z" fill="#89C053"/>
<path d="M4.31034 12.069H3.44828C3.21964 12.069 3.00037 11.9781 2.8387 11.8165C2.67703 11.6548 2.58621 11.4355 2.58621 11.2069C2.58621 10.9783 2.67703 10.759 2.8387 10.5973C3.00037 10.4357 3.21964 10.3448 3.44828 10.3448H4.31034C4.53898 10.3448 4.75825 10.4357 4.91992 10.5973C5.08159 10.759 5.17241 10.9783 5.17241 11.2069C5.17241 11.4355 5.08159 11.6548 4.91992 11.8165C4.75825 11.9781 4.53898 12.069 4.31034 12.069Z" fill="#B4DF80"/>
<path d="M12.069 12.069H7.75862C7.52999 12.069 7.31072 11.9781 7.14905 11.8165C6.98738 11.6548 6.89655 11.4355 6.89655 11.2069C6.89655 10.9783 6.98738 10.759 7.14905 10.5973C7.31072 10.4357 7.52999 10.3448 7.75862 10.3448H12.069C12.2976 10.3448 12.5169 10.4357 12.6785 10.5973C12.8402 10.759 12.931 10.9783 12.931 11.2069C12.931 11.4355 12.8402 11.6548 12.6785 11.8165C12.5169 11.9781 12.2976 12.069 12.069 12.069Z" fill="#EB5463"/>
<path d="M4.31034 15.5172H3.44828C3.21964 15.5172 3.00037 15.4264 2.8387 15.2647C2.67703 15.1031 2.58621 14.8838 2.58621 14.6552C2.58621 14.4265 2.67703 14.2073 2.8387 14.0456C3.00037 13.8839 3.21964 13.7931 3.44828 13.7931H4.31034C4.53898 13.7931 4.75825 13.8839 4.91992 14.0456C5.08159 14.2073 5.17241 14.4265 5.17241 14.6552C5.17241 14.8838 5.08159 15.1031 4.91992 15.2647C4.75825 15.4264 4.53898 15.5172 4.31034 15.5172Z" fill="#B4DF80"/>
<path d="M12.069 15.5172H7.75862C7.52999 15.5172 7.31072 15.4264 7.14905 15.2647C6.98738 15.1031 6.89655 14.8838 6.89655 14.6552C6.89655 14.4265 6.98738 14.2073 7.14905 14.0456C7.31072 13.8839 7.52999 13.7931 7.75862 13.7931H12.069C12.2976 13.7931 12.5169 13.8839 12.6785 14.0456C12.8402 14.2073 12.931 14.4265 12.931 14.6552C12.931 14.8838 12.8402 15.1031 12.6785 15.2647C12.5169 15.4264 12.2976 15.5172 12.069 15.5172Z" fill="#EB5463"/>
<path d="M4.31034 18.9655H3.44828C3.21964 18.9655 3.00037 18.8747 2.8387 18.713C2.67703 18.5514 2.58621 18.3321 2.58621 18.1034C2.58621 17.8748 2.67703 17.6555 2.8387 17.4939C3.00037 17.3322 3.21964 17.2414 3.44828 17.2414H4.31034C4.53898 17.2414 4.75825 17.3322 4.91992 17.4939C5.08159 17.6555 5.17241 17.8748 5.17241 18.1034C5.17241 18.3321 5.08159 18.5514 4.91992 18.713C4.75825 18.8747 4.53898 18.9655 4.31034 18.9655Z" fill="#B4DF80"/>
<path d="M12.069 18.9655H7.75862C7.52999 18.9655 7.31072 18.8747 7.14905 18.713C6.98738 18.5514 6.89655 18.3321 6.89655 18.1034C6.89655 17.8748 6.98738 17.6555 7.14905 17.4939C7.31072 17.3322 7.52999 17.2414 7.75862 17.2414H12.069C12.2976 17.2414 12.5169 17.3322 12.6785 17.4939C12.8402 17.6555 12.931 17.8748 12.931 18.1034C12.931 18.3321 12.8402 18.5514 12.6785 18.713C12.5169 18.8747 12.2976 18.9655 12.069 18.9655Z" fill="#EB5463"/>
<path d="M4.31034 22.4138H3.44828C3.21964 22.4138 3.00037 22.323 2.8387 22.1613C2.67703 21.9996 2.58621 21.7804 2.58621 21.5517C2.58621 21.3231 2.67703 21.1038 2.8387 20.9421C3.00037 20.7805 3.21964 20.6897 3.44828 20.6897H4.31034C4.53898 20.6897 4.75825 20.7805 4.91992 20.9421C5.08159 21.1038 5.17241 21.3231 5.17241 21.5517C5.17241 21.7804 5.08159 21.9996 4.91992 22.1613C4.75825 22.323 4.53898 22.4138 4.31034 22.4138Z" fill="#B4DF80"/>
<path d="M12.069 22.4138H7.75862C7.52999 22.4138 7.31072 22.323 7.14905 22.1613C6.98738 21.9996 6.89655 21.7804 6.89655 21.5517C6.89655 21.3231 6.98738 21.1038 7.14905 20.9421C7.31072 20.7805 7.52999 20.6897 7.75862 20.6897H12.069C12.2976 20.6897 12.5169 20.7805 12.6785 20.9421C12.8402 21.1038 12.931 21.3231 12.931 21.5517C12.931 21.7804 12.8402 21.9996 12.6785 22.1613C12.5169 22.323 12.2976 22.4138 12.069 22.4138Z" fill="#EB5463"/>
<path d="M4.31034 25.8621H3.44828C3.21964 25.8621 3.00037 25.7712 2.8387 25.6096C2.67703 25.4479 2.58621 25.2286 2.58621 25C2.58621 24.7714 2.67703 24.5521 2.8387 24.3904C3.00037 24.2288 3.21964 24.1379 3.44828 24.1379H4.31034C4.53898 24.1379 4.75825 24.2288 4.91992 24.3904C5.08159 24.5521 5.17241 24.7714 5.17241 25C5.17241 25.2286 5.08159 25.4479 4.91992 25.6096C4.75825 25.7712 4.53898 25.8621 4.31034 25.8621Z" fill="#B4DF80"/>
<path d="M12.069 25.8621H7.75862C7.52999 25.8621 7.31072 25.7712 7.14905 25.6096C6.98738 25.4479 6.89655 25.2286 6.89655 25C6.89655 24.7714 6.98738 24.5521 7.14905 24.3904C7.31072 24.2288 7.52999 24.1379 7.75862 24.1379H12.069C12.2976 24.1379 12.5169 24.2288 12.6785 24.3904C12.8402 24.5521 12.931 24.7714 12.931 25C12.931 25.2286 12.8402 25.4479 12.6785 25.6096C12.5169 25.7712 12.2976 25.8621 12.069 25.8621Z" fill="#EB5463"/>
<path d="M4.31034 29.3103H3.44828C3.21964 29.3103 3.00037 29.2195 2.8387 29.0579C2.67703 28.8962 2.58621 28.6769 2.58621 28.4483C2.58621 28.2196 2.67703 28.0004 2.8387 27.8387C3.00037 27.677 3.21964 27.5862 3.44828 27.5862H4.31034C4.53898 27.5862 4.75825 27.677 4.91992 27.8387C5.08159 28.0004 5.17241 28.2196 5.17241 28.4483C5.17241 28.6769 5.08159 28.8962 4.91992 29.0579C4.75825 29.2195 4.53898 29.3103 4.31034 29.3103Z" fill="#B4DF80"/>
<path d="M12.069 29.3103H7.75862C7.52999 29.3103 7.31072 29.2195 7.14905 29.0579C6.98738 28.8962 6.89655 28.6769 6.89655 28.4483C6.89655 28.2196 6.98738 28.0004 7.14905 27.8387C7.31072 27.677 7.52999 27.5862 7.75862 27.5862H12.069C12.2976 27.5862 12.5169 27.677 12.6785 27.8387C12.8402 28.0004 12.931 28.2196 12.931 28.4483C12.931 28.6769 12.8402 28.8962 12.6785 29.0579C12.5169 29.2195 12.2976 29.3103 12.069 29.3103Z" fill="#EB5463"/>
<path d="M4.31034 32.7586H3.44828C3.21964 32.7586 3.00037 32.6678 2.8387 32.5061C2.67703 32.3445 2.58621 32.1252 2.58621 31.8965C2.58621 31.6679 2.67703 31.4486 2.8387 31.287C3.00037 31.1253 3.21964 31.0345 3.44828 31.0345H4.31034C4.53898 31.0345 4.75825 31.1253 4.91992 31.287C5.08159 31.4486 5.17241 31.6679 5.17241 31.8965C5.17241 32.1252 5.08159 32.3445 4.91992 32.5061C4.75825 32.6678 4.53898 32.7586 4.31034 32.7586Z" fill="#B4DF80"/>
<path d="M12.069 32.7586H7.75862C7.52999 32.7586 7.31072 32.6678 7.14905 32.5061C6.98738 32.3445 6.89655 32.1252 6.89655 31.8965C6.89655 31.6679 6.98738 31.4486 7.14905 31.287C7.31072 31.1253 7.52999 31.0345 7.75862 31.0345H12.069C12.2976 31.0345 12.5169 31.1253 12.6785 31.287C12.8402 31.4486 12.931 31.6679 12.931 31.8965C12.931 32.1252 12.8402 32.3445 12.6785 32.5061C12.5169 32.6678 12.2976 32.7586 12.069 32.7586Z" fill="#EB5463"/>
<path d="M4.31034 36.2069H3.44828C3.21964 36.2069 3.00037 36.1161 2.8387 35.9544C2.67703 35.7927 2.58621 35.5735 2.58621 35.3448C2.58621 35.1162 2.67703 34.8969 2.8387 34.7353C3.00037 34.5736 3.21964 34.4828 3.44828 34.4828H4.31034C4.53898 34.4828 4.75825 34.5736 4.91992 34.7353C5.08159 34.8969 5.17241 35.1162 5.17241 35.3448C5.17241 35.5735 5.08159 35.7927 4.91992 35.9544C4.75825 36.1161 4.53898 36.2069 4.31034 36.2069Z" fill="#B4DF80"/>
<path d="M12.069 36.2069H7.75862C7.52999 36.2069 7.31072 36.1161 7.14905 35.9544C6.98738 35.7927 6.89655 35.5735 6.89655 35.3448C6.89655 35.1162 6.98738 34.8969 7.14905 34.7353C7.31072 34.5736 7.52999 34.4828 7.75862 34.4828H12.069C12.2976 34.4828 12.5169 34.5736 12.6785 34.7353C12.8402 34.8969 12.931 35.1162 12.931 35.3448C12.931 35.5735 12.8402 35.7927 12.6785 35.9544C12.5169 36.1161 12.2976 36.2069 12.069 36.2069Z" fill="#EB5463"/>
<path d="M35.3448 24.1379C29.1621 24.1422 24.1517 29.1569 24.1534 35.3397C24.1552 41.5224 29.1672 46.5345 35.35 46.5362C41.5328 46.5379 46.5474 41.5276 46.5517 35.3448C46.5457 29.1578 41.5319 24.144 35.3448 24.1379ZM35.3448 44.8276C30.1078 44.8276 25.8621 40.5819 25.8621 35.3448C25.8621 30.1078 30.1078 25.8621 35.3448 25.8621C40.5819 25.8621 44.8276 30.1078 44.8276 35.3448C44.8241 40.581 40.581 44.8241 35.3448 44.8276Z" fill="#F5B945"/>
</g>
<defs>
<clipPath id="clip0_250_42">
<rect width="50" height="50" fill="white"/>
</clipPath>
</defs>
</svg>
