<svg width="50" height="50" viewBox="0 0 50 50" fill="none" xmlns="http://www.w3.org/2000/svg">
<path d="M0 50H50V0H0V50Z" fill="#F0D91F"/>
<path d="M25 0H0V50H25V0Z" fill="#D1BD1B"/>
<path d="M41.2135 38.8073C40.6822 36.8073 36.526 36.3385 33.6822 34.2135C30.8072 32.276 30.1197 27.5885 32.4947 24.901C33.3072 23.901 34.651 23.151 36.0572 22.8073L37.526 22.6198C40.3697 22.5573 42.1197 23.3073 43.4322 24.776C43.8124 25.1458 44.0885 25.526 44.651 26.401C43.151 27.3333 43.151 27.3333 40.9947 28.7448C40.526 27.7448 39.776 27.1198 38.9635 26.8698C37.7135 26.4948 36.1197 26.8958 35.8072 28.2448C35.6822 28.651 35.7135 29.026 35.901 29.7135C36.4062 30.8698 38.1145 31.3698 39.6458 32.0885C44.052 33.875 45.5364 35.7917 45.901 38.0729C46.2499 40.0417 45.7135 41.1823 45.651 41.3698C44.026 46.9323 34.9635 47.1198 31.3385 43.4635C30.5885 42.5885 30.0885 42.151 29.651 41.1562L33.4635 38.9635C34.4947 40.526 35.427 41.375 37.1197 41.75C39.401 42.026 41.7135 41.2448 41.2135 38.8073Z" fill="black"/>
<path d="M16.9427 39.5313C16.974 39.5313 17.0729 39.7188 17.2032 39.9375C17.6927 40.75 18.1094 41.3125 18.9323 41.7188C19.7396 41.974 21.5104 42.1563 22.1979 40.7188C22.6146 40 22.4844 37.6406 22.4844 35.0729C22.4844 31.0313 22.5 27.0156 22.5 22.9792H27.1823C27.1823 27.2917 27.1979 31.6875 27.1719 35.9688C27.1875 38.625 27.4115 41 26.349 42.9375C25.6094 44.4375 24.2032 45.4063 22.5729 45.8802C20.0677 46.4427 17.6719 46.099 15.8907 45.0365C14.6979 44.3177 13.7709 43.1875 13.1354 41.875L16.9427 39.5313Z" fill="black"/>
<path d="M37.8593 22.6146C37.7499 22.6146 37.6406 22.6198 37.526 22.6198L36.0572 22.8073C34.651 23.1511 33.3072 23.9011 32.4947 24.9011C30.1197 27.5886 30.8072 32.2761 33.6822 34.2136L43.5989 34.2709C42.6614 33.5156 41.3801 32.7917 39.6458 32.0886C38.1093 31.3698 36.4062 30.8698 35.901 29.7136C35.7135 29.0261 35.6822 28.6511 35.8072 28.2448C36.0468 27.2136 37.0312 26.7344 38.0468 26.7344C38.3541 26.7344 38.6666 26.7813 38.9635 26.8698C39.776 27.1198 40.526 27.7448 40.9947 28.7448C43.151 27.3334 43.151 27.3334 44.651 26.4011C44.0885 25.5261 43.8072 25.1511 43.4322 24.7761C42.1718 23.3646 40.5051 22.6146 37.8593 22.6146Z" fill="#212121"/>
<path d="M27.1875 22.9792H22.5052C22.5052 26.75 22.4843 30.5 22.4843 34.2708H27.1822C27.1979 30.5573 27.1875 26.724 27.1875 22.9792Z" fill="#212121"/>
</svg>
