<svg width="50" height="50" viewBox="0 0 50 50" fill="none" xmlns="http://www.w3.org/2000/svg">
<path opacity="0.35" d="M8.01463 50C4.23808 50 1.16551 46.8707 1.16551 43.0245V8.16254C1.16551 6.29767 1.87916 4.54495 3.17444 3.22723C4.46743 1.91153 6.18611 1.18703 8.01406 1.18703L43.1588 1.23195C46.9308 1.23658 50 4.36586 50 8.20775V43.0245C50 46.8707 46.9274 50 43.1509 50H8.01463Z" fill="black"/>
<path d="M6.84912 48.813C3.07257 48.813 0 45.6837 0 41.8375V6.97552C0 5.11065 0.713652 3.35793 2.00892 2.0402C3.30192 0.724503 5.0206 0 6.84855 0L41.9933 0.0449192C45.7653 0.049556 48.8345 3.17883 48.8345 7.02073V41.8375C48.8345 45.6837 45.7619 48.813 41.9854 48.813H6.84912Z" fill="#F2F2F2"/>
<path d="M4.02069 34.9776V41.261C4.02069 43.0354 5.43305 44.4738 7.17528 44.4738H41.6592C43.4014 44.4738 44.8138 43.0354 44.8138 41.261V34.9776H4.02069Z" fill="#707CC0"/>
<path d="M4.60345 4.70845V39.0721C4.60345 39.7609 5.15171 40.3192 5.82801 40.3192H43.0065C43.6828 40.3192 44.231 39.7609 44.231 39.0721V4.70845H4.60345Z" fill="#9AA2E6"/>
<path d="M6.85265 3.85774C5.16056 3.85583 3.78786 5.25231 3.78786 6.97563V35.4732V38.7286V41.8373C3.78786 43.5593 5.15849 44.9552 6.84925 44.9552H41.9852C43.676 44.9552 45.0466 43.5593 45.0466 41.8373V38.7286V35.4732V7.02069C45.0466 5.30008 43.6781 3.90472 41.9886 3.9028L6.85265 3.85774Z" stroke="#40396E" stroke-width="3" stroke-miterlimit="10" stroke-linecap="round" stroke-linejoin="round"/>
<path d="M21.2503 28.1374C20.9031 28.1374 20.6539 28.0191 20.5048 27.7832C20.3568 27.5474 20.3602 27.2564 20.5173 26.9104L23.6974 19.8149C23.8294 19.528 23.9865 19.3193 24.1686 19.1883C24.3507 19.0579 24.5624 18.9924 24.8026 18.9924C25.0428 18.9924 25.2533 19.0579 25.4354 19.1883C25.6175 19.3193 25.7712 19.528 25.8953 19.8149L29.0993 26.9104C29.2564 27.2645 29.2632 27.5578 29.1175 27.7896C28.973 28.0215 28.7396 28.1374 28.4164 28.1374C28.1352 28.1374 27.9179 28.0702 27.7642 27.9345C27.6105 27.8001 27.4762 27.5891 27.3601 27.3028L26.8388 26.0879H22.7527L22.2439 27.3028C22.1199 27.5978 21.9878 27.8105 21.8467 27.9415C21.7056 28.0719 21.5075 28.1374 21.2503 28.1374ZM24.7776 21.1937L23.3992 24.5578H26.206L24.8026 21.1937H24.7776Z" fill="#40396E"/>
<path d="M32.3899 28.1629C30.925 28.1629 30.192 27.3323 30.192 25.6706V19.9661C30.192 19.317 30.5061 18.9924 31.1356 18.9924C31.757 18.9924 32.0677 19.317 32.0677 19.9661V25.5952C32.0677 25.9407 32.1394 26.1957 32.2851 26.3603C32.4297 26.5249 32.622 26.6072 32.8622 26.6072C32.9282 26.6072 32.9931 26.6026 33.0546 26.5945C33.1172 26.5864 33.1763 26.5817 33.2344 26.5817C33.3676 26.5736 33.4598 26.6154 33.5144 26.7081C33.5679 26.8008 33.5952 26.9909 33.5952 27.2773C33.5952 27.7664 33.3915 28.0447 32.9863 28.1119C32.9032 28.12 32.8087 28.131 32.7006 28.1438C32.5936 28.1559 32.49 28.1629 32.3899 28.1629Z" fill="#40396E"/>
<path d="M37.1339 28.1629C35.4197 28.1629 34.5638 27.3155 34.5638 25.6208V23.2421H34.0414C33.5531 23.2421 33.3095 23.0067 33.3095 22.5338C33.3095 22.0539 33.5531 21.8128 34.0414 21.8128H34.5638V20.8518C34.5638 20.2026 34.8779 19.8781 35.5074 19.8781C36.1277 19.8781 36.4384 20.2026 36.4384 20.8518V21.8128H37.6187C38.0991 21.8128 38.3392 22.0539 38.3392 22.5338C38.3392 23.0067 38.0991 23.2421 37.6187 23.2421H36.4384V25.5442C36.4384 25.899 36.5192 26.1644 36.6809 26.3412C36.8425 26.518 37.1009 26.6072 37.4571 26.6072C37.5812 26.6072 37.6973 26.5945 37.8043 26.569C37.9124 26.5435 38.0114 26.5273 38.1025 26.518C38.2186 26.5099 38.3142 26.5481 38.3882 26.6322C38.4633 26.7162 38.4997 26.8895 38.4997 27.1509C38.4997 27.3619 38.4667 27.541 38.4007 27.6882C38.3347 27.836 38.2186 27.9438 38.0535 28.011C37.9454 28.0528 37.7986 28.0887 37.6119 28.1183C37.4264 28.1478 37.2659 28.1629 37.1339 28.1629Z" fill="#40396E"/>
<path d="M12.1999 28.4882C11.8288 28.4882 11.548 28.3908 11.3579 28.1957C11.1677 28.0009 11.0724 27.7226 11.0724 27.3612V19.5263C11.0724 19.1649 11.1677 18.8866 11.3579 18.6915C11.548 18.4963 11.8238 18.3989 12.186 18.3989C12.9185 18.3989 13.2845 18.775 13.2845 19.5268V26.6191H17.1093C17.7469 26.6191 18.0655 26.9285 18.0655 27.5467C18.0655 28.1747 17.7465 28.4886 17.1093 28.4886L12.1999 28.4882Z" fill="#40396E"/>
</svg>
