<svg width="50" height="50" viewBox="0 0 50 50" fill="none" xmlns="http://www.w3.org/2000/svg">
<path d="M44.4351 50C45.2408 50 45.8996 49.3462 45.8996 48.5352V42.155H48.5352C49.3441 42.155 50 41.4991 50 40.6901V12.4479C50 11.639 49.3441 10.9831 48.5352 10.9831H23.4311C22.6221 10.9831 21.9662 11.639 21.9662 12.4479V40.6901C21.9662 41.4991 22.6221 42.155 23.4311 42.155H35.9831L43.399 49.5709C43.535 49.707 43.6966 49.815 43.8743 49.8886C44.0521 49.9622 44.2426 50.0001 44.4351 50Z" fill="#00B6FF"/>
<path d="M44.4351 50C45.2408 50 45.8996 49.3462 45.8996 48.5352V42.155H48.5352C49.3441 42.155 50 41.4991 50 40.6901V12.4479C50 11.639 49.3441 10.9831 48.5352 10.9831H35.9831V42.155L43.399 49.5709C43.535 49.707 43.6965 49.815 43.8743 49.8886C44.0521 49.9622 44.2426 50.0001 44.4351 50Z" fill="#4893FF"/>
<path d="M42.1113 32.4897L39.3537 21.4588C39.1664 20.7067 38.7327 20.039 38.1217 19.5622C37.5106 19.0854 36.7575 18.8269 35.9824 18.8281C35.2076 18.8272 34.4547 19.0857 33.8439 19.5625C33.2331 20.0394 32.7996 20.707 32.6125 21.4589L29.855 32.4897C29.6588 33.2746 30.136 34.0699 30.9209 34.2661C31.7058 34.4623 32.5011 33.9851 32.6973 33.2003L33.2043 31.1719H38.7621L39.2691 33.2003C39.4653 33.9852 40.2606 34.4623 41.0455 34.2661C41.8304 34.0699 42.3075 33.2746 42.1113 32.4897ZM33.9366 28.2422L35.4548 22.1693C35.4842 22.0514 35.5524 21.9468 35.6483 21.8722C35.7442 21.7976 35.8624 21.7573 35.9839 21.7577C36.1052 21.7575 36.223 21.7979 36.3186 21.8725C36.4143 21.9472 36.4821 22.0516 36.5114 22.1693L38.0296 28.2422H33.9366Z" fill="#F5FAFF"/>
<path d="M5.56494 39.0169C4.75918 39.0169 4.10039 38.3631 4.10039 37.5521V31.1719H1.46484C0.655859 31.1719 0 30.516 0 29.707V1.46484C0 0.655859 0.655859 0 1.46484 0H26.5689C27.3779 0 28.0338 0.655859 28.0338 1.46484V29.707C28.0338 30.516 27.3779 31.1719 26.5689 31.1719H14.0169L6.60098 38.5879C6.46494 38.724 6.30343 38.8319 6.12566 38.9055C5.94789 38.9791 5.75735 39.017 5.56494 39.0169Z" fill="#FFCB00"/>
<path d="M26.5689 0H14.0169V31.1719H26.5689C27.3779 31.1719 28.0338 30.516 28.0338 29.707V1.46484C28.0338 0.655859 27.378 0 26.5689 0Z" fill="#FF9D22"/>
<path d="M20.709 22.0265C19.05 21.5343 17.5 20.7305 16.142 19.6579C17.972 17.5599 19.2679 15.0506 19.9191 12.3438H20.293C21.102 12.3438 21.7578 11.688 21.7578 10.879C21.7578 10.07 21.102 9.41416 20.293 9.41416H15.4817V7.74092C15.4817 6.93193 14.8259 6.27607 14.0169 6.27607C13.2079 6.27607 12.5521 6.93193 12.5521 7.74092V9.41406H7.74092C6.93193 9.41406 6.27607 10.0699 6.27607 10.8789C6.27607 11.6879 6.93193 12.3438 7.74092 12.3438H16.8861C16.3113 14.2998 15.3079 16.0816 14.017 17.598C13.713 17.2274 13.4572 16.8442 13.1924 16.4406L12.1035 14.782C11.6595 14.1058 10.7513 13.9174 10.0751 14.3614C9.39873 14.8055 9.21045 15.7137 9.65449 16.3898L10.7431 18.048C11.105 18.5989 11.4996 19.1277 11.9247 19.6313C9.88252 21.2175 8.00508 21.7992 7.27979 22.0405C6.51191 22.2951 6.0959 23.1241 6.35049 23.892C6.55439 24.5069 7.12637 24.8961 7.74063 24.8961C8.18848 24.8961 11.2205 23.9793 14.0169 21.7075C16.8115 24.0236 19.8381 24.8961 20.2935 24.8961C20.9256 24.8961 21.5088 24.4837 21.6975 23.8469C21.9272 23.0713 21.4847 22.2562 20.709 22.0265Z" fill="#F5FAFF"/>
<path d="M20.709 22.0265C19.05 21.5343 17.5 20.7305 16.142 19.6579C17.972 17.5599 19.2679 15.0506 19.9191 12.3438H20.293C21.102 12.3438 21.7578 11.688 21.7578 10.879C21.7578 10.07 21.102 9.41416 20.293 9.41416H15.4817V7.74092C15.4817 6.93193 14.8259 6.27607 14.0169 6.27607V12.3438H16.886C16.3112 14.2999 15.3078 16.0817 14.0169 17.5981V21.7078C16.8115 24.0239 19.8381 24.8964 20.2935 24.8964C20.9256 24.8964 21.5088 24.484 21.6975 23.8472C21.9272 23.0713 21.4847 22.2562 20.709 22.0265ZM39.269 33.2003C39.4652 33.9852 40.2605 34.4623 41.0454 34.2661C41.8303 34.0699 42.3075 33.2746 42.1113 32.4897L39.3537 21.4588C39.1665 20.7068 38.7328 20.0392 38.1219 19.5624C37.511 19.0856 36.758 18.8271 35.9831 18.8281V21.7578L35.9839 21.7577C36.1052 21.7575 36.223 21.7979 36.3186 21.8725C36.4143 21.9472 36.4821 22.0516 36.5114 22.1693L38.0296 28.2422H35.9831V31.1719H38.762L39.269 33.2003Z" fill="#DFE9EE"/>
</svg>
