<svg width="50" height="50" viewBox="0 0 50 50" fill="none" xmlns="http://www.w3.org/2000/svg">
<path d="M7.0125 50C3.14583 50 0 46.7945 0 42.8549V7.14512C0 5.23476 0.730953 3.43963 2.05714 2.08963C3.38095 0.742073 5.14048 0 7.01191 0L42.9952 0.0457316C46.8577 0.0506096 50 3.2561 50 7.19146V42.8549C50 46.7945 46.8542 50 42.9875 50H7.0125Z" fill="#F2F2F2"/>
<path d="M4.16667 35.8604V42.3159C4.16667 44.139 5.60952 45.6165 7.38869 45.6165H42.6113C44.3911 45.6165 45.8333 44.1384 45.8333 42.3159V35.8604H4.16667Z" fill="#707CC0"/>
<path d="M4.7619 4.76281V40.178C4.7619 40.8878 5.32202 41.4634 6.0125 41.4634H43.9869C44.678 41.4634 45.2381 40.8878 45.2381 40.178V4.76281H4.7619Z" fill="#9AA2E6"/>
<path d="M42.9952 46.9512H7.00476C4.78333 46.9512 2.97619 45.1091 2.97619 42.8451V7.15488C2.97619 6.06097 3.39345 5.03232 4.1506 4.25732C4.9131 3.47683 5.94583 3.04329 7.00952 3.04878L43 3.09451C45.2185 3.09756 47.0238 4.94024 47.0238 7.20183V42.8451C47.0238 45.1091 45.2167 46.9512 42.9952 46.9512ZM7.00536 4.87805C6.40298 4.87805 5.8375 5.11768 5.4131 5.55122C4.99286 5.9811 4.7619 6.55061 4.7619 7.15488V42.8445C4.7619 44.1006 5.76786 45.1219 7.00476 45.1219H42.9952C44.2321 45.1219 45.2381 44.1006 45.2381 42.8451V7.20183C45.2381 5.94756 44.2333 4.92622 42.9976 4.92439L7.00714 4.87805H7.00536Z" fill="#40396E"/>
<path d="M23.8095 30.4878L40.4762 32.3171V15.2439L23.8095 17.0732V30.4878Z" fill="#40396E"/>
<path d="M33.0357 12.1951H31.25V34.7561H33.0357V12.1951Z" fill="#9AA2E6"/>
<path d="M41.0714 24.6951V22.8659H19.0476V24.6951H41.0714Z" fill="#9AA2E6"/>
<path d="M11.1226 31.1201C10.5964 31.1201 10.1982 30.9787 9.92857 30.6951C9.65893 30.4122 9.52381 30.0079 9.52381 29.4829V18.1012C9.52381 17.5762 9.65893 17.172 9.92857 16.8884C10.1982 16.6049 10.5893 16.4634 11.103 16.4634C12.1417 16.4634 12.6607 17.0098 12.6607 18.1018V28.4049H18.0845C18.9887 28.4049 19.4405 28.8543 19.4405 29.7524C19.4405 30.6646 18.9881 31.1207 18.0845 31.1207L11.1226 31.1201Z" fill="#40396E"/>
</svg>
