<svg width="50" height="50" viewBox="0 0 50 50" fill="none" xmlns="http://www.w3.org/2000/svg">
<path d="M49.9882 46.4537L46.0601 24.812C46.0407 24.7052 45.9979 24.6042 45.9348 24.516C45.8717 24.4278 45.7897 24.3548 45.6949 24.3021L35.808 18.8031C35.682 18.7333 35.5381 18.7024 35.3946 18.7141L37.1933 41.918L37.133 41.945L48.9655 47.2533C49.0874 47.3081 49.2219 47.3285 49.3546 47.3124C49.4873 47.2962 49.6131 47.2442 49.7183 47.1618C49.8236 47.0796 49.9044 46.9701 49.9519 46.8453C49.9995 46.7205 50.0121 46.5851 49.9882 46.4537ZM25 24.0601L14.8882 18.7934C14.7687 18.7315 14.6345 18.7038 14.5003 18.7133C14.5354 18.7112 14.5706 18.7114 14.6056 18.7141L12.8069 41.918L24.6995 47.2534C24.7941 47.2957 24.8964 47.3177 25 47.3177V24.0601Z" fill="#44C868"/>
<path d="M14.6055 18.7142C14.4619 18.7025 14.3181 18.7334 14.192 18.8031L4.30498 24.3021C4.21018 24.3548 4.12826 24.4278 4.06512 24.516C4.00197 24.6042 3.95919 24.7052 3.93985 24.8119L0.0118176 46.4536C-0.012021 46.5851 0.000515215 46.7205 0.0480712 46.8453C0.0956272 46.9702 0.176394 47.0796 0.281642 47.1619C0.386905 47.2442 0.512655 47.2962 0.645324 47.3124C0.777994 47.3285 0.912549 47.3081 1.03447 47.2534L12.8024 41.974L14.6055 18.7142ZM35.3944 18.7137C35.2958 18.721 35.1997 18.7481 35.1118 18.7936L25 24.0602V47.3178H25.0001C25.1037 47.3178 25.2061 47.2959 25.3006 47.2535L37.1933 41.9181L35.3944 18.7137Z" fill="#4CE166"/>
<path d="M2.74942 31.3705L1.95147 35.7668L13.7673 29.526L14.0416 25.9871L14.0871 25.4001L2.74942 31.3705Z" fill="#FFDB56"/>
<path d="M13.8736 28.1538L13.7673 29.526L1.95147 35.7669L0.0118176 46.4537C-0.012021 46.5851 0.000515215 46.7205 0.0480712 46.8454C0.0956272 46.9702 0.176394 47.0796 0.281642 47.1619C0.386905 47.2442 0.512655 47.2963 0.645324 47.3124C0.777994 47.3285 0.912549 47.3081 1.03447 47.2534L12.8024 41.974L13.8736 28.1538Z" fill="#A8EEFC"/>
<path d="M25.003 26.961L14.0871 25.4001L13.7673 29.526L25 46.5845V40.3816L18.2972 29.8271L25.003 30.6291V26.961ZM44.9166 23.8693L40.1671 21.2276L35.6708 22.2782L35.7271 23.0043L35.9491 25.869L44.9166 23.8693Z" fill="#FFBB24"/>
<path d="M36.3479 31.0133L35.9221 25.5203L35.6708 22.2782L25.003 26.961V30.6291L31.9713 27.5989L36.3479 31.0133Z" fill="#FFDB56"/>
<path d="M49.9883 46.4537L49.0016 41.0175L35.9492 25.869L36.348 31.0133L49.7338 47.1482C49.834 47.0654 49.9104 46.9575 49.9551 46.8354C49.9999 46.7134 50.0113 46.5816 49.9883 46.4537Z" fill="#FFBB24"/>
<path d="M25.047 2.68214C19.3866 2.68214 14.7814 7.2835 14.7814 12.9394C14.7814 16.438 16.4424 20.1942 19.7185 24.1036C22.1246 26.975 24.4981 28.8218 24.598 28.899C24.7265 28.9985 24.8845 29.0525 25.0471 29.0524C25.2097 29.0525 25.3677 28.9985 25.4962 28.899C25.596 28.8218 27.9696 26.975 30.3757 24.1036C33.6518 20.1942 35.3128 16.4381 35.3128 12.9394C35.3126 7.2835 30.7075 2.68214 25.047 2.68214ZM28.8488 12.9393C28.8488 15.0371 27.1466 16.7379 25.047 16.7379C22.9474 16.7379 21.2452 15.0372 21.2452 12.9393C21.2452 10.8413 22.9474 9.14063 25.047 9.14063C27.1466 9.14063 28.8488 10.8414 28.8488 12.9393Z" fill="#FF4A4A"/>
<path d="M25.047 2.68214C24.5984 2.68214 24.1565 2.71124 23.7229 2.76729C28.7603 3.41837 32.6645 7.73174 32.6645 12.9394C32.6645 16.438 31.0035 20.1942 27.7274 24.1036C26.18 25.9501 24.6473 27.3719 23.723 28.1729C24.2361 28.6174 24.5624 28.8715 24.598 28.899C24.7266 28.9985 24.8845 29.0525 25.0471 29.0524C25.2097 29.0525 25.3677 28.9985 25.4962 28.899C25.596 28.8218 27.9696 26.975 30.3757 24.1036C33.6518 20.1942 35.3128 16.4381 35.3128 12.9394C35.3126 7.2835 30.7075 2.68214 25.047 2.68214Z" fill="#E7343F"/>
<path d="M25.3006 47.2534L29.723 45.2694L25 40.3816V47.3178H25.0001C25.1037 47.3178 25.2062 47.2959 25.3006 47.2534Z" fill="#FFDB56"/>
<path d="M46.06 24.812C46.0406 24.7053 45.9978 24.6042 45.9347 24.516C45.8716 24.4278 45.7896 24.3548 45.6949 24.3021L44.9165 23.8692L35.9491 25.8689L49.0014 41.0174L46.06 24.812ZM24.9999 47.3177C25 47.3177 25 47.3177 24.9999 47.3177V46.5845L13.7673 29.526L12.8067 41.9181L24.6993 47.2535C24.7939 47.2959 24.8963 47.3178 24.9999 47.3177Z" fill="#1EA4E9"/>
</svg>
