<svg width="50" height="50" viewBox="0 0 50 50" fill="none" xmlns="http://www.w3.org/2000/svg">
<path d="M48.5111 34.0712H1.48887C0.666797 34.0712 0 33.4151 0 32.6063V5.46495C0 4.65608 0.666797 4 1.48887 4H48.5111C49.3332 4 50 4.65608 50 5.46495V32.6063C50 33.4151 49.3332 34.0712 48.5111 34.0712Z" fill="#FF7045"/>
<path d="M48.5111 4H25.0004V34.0712H48.5111C49.3332 34.0712 50 33.4151 50 32.6063V5.46495C50 4.65608 49.3332 4 48.5111 4Z" fill="#F03049"/>
<path d="M21.1976 25.7356C21.002 25.7357 20.8084 25.6978 20.6278 25.6242C20.4471 25.5506 20.283 25.4427 20.1447 25.3066C20.0065 25.1706 19.8968 25.0091 19.822 24.8313C19.7472 24.6536 19.7087 24.4631 19.7087 24.2707V11.4564C19.7087 10.9227 20.0035 10.4314 20.4788 10.1735C20.712 10.0469 20.9755 9.98423 21.2417 9.99195C21.508 9.99968 21.7672 10.0775 21.9925 10.2174L32.3082 16.6245C32.5209 16.7566 32.6961 16.9394 32.8175 17.1561C32.939 17.3727 33.0027 17.6161 33.0027 17.8635C33.0027 18.111 32.939 18.3544 32.8175 18.571C32.6961 18.7877 32.5209 18.9705 32.3082 19.1025L21.9925 25.5096C21.7545 25.6572 21.4789 25.7355 21.1976 25.7355V25.7356Z" fill="white"/>
<path d="M32.3082 16.6246L25.0004 12.0859V23.6412L32.3082 19.1026C32.5209 18.9706 32.6962 18.7878 32.8176 18.5711C32.9391 18.3544 33.0028 18.111 33.0028 17.8636C33.0028 17.6162 32.9391 17.3727 32.8176 17.1561C32.6962 16.9394 32.5209 16.7566 32.3082 16.6246Z" fill="#FFFF9C"/>
<path d="M48.5111 46H1.48887C0.666797 46 0 45.3438 0 44.535V31.1409H50V44.535C50 45.3438 49.3332 46 48.5111 46Z" fill="#707789"/>
<path d="M25.0004 46H48.5111C49.3332 46 50 45.3438 50 44.535V31.1409H25.0004V46Z" fill="#555A66"/>
<path d="M42.7689 40.0354H7.23116C6.40869 40.0354 5.7419 39.3797 5.7419 38.5704C5.7419 37.7612 6.40869 37.1055 7.23116 37.1055H42.7689C43.5913 37.1055 44.2581 37.7612 44.2581 38.5704C44.2581 39.3797 43.5913 40.0354 42.7689 40.0354Z" fill="#555A66"/>
<path d="M42.7688 37.1055H25.0003V40.0354H42.7688C43.5913 40.0354 44.2581 39.3797 44.2581 38.5704C44.2581 37.7612 43.5913 37.1055 42.7688 37.1055Z" fill="#3F334B"/>
<path d="M32.1457 34.7108C29.9827 34.7108 28.2234 36.4423 28.2234 38.5704C28.2234 40.6986 29.9827 42.4301 32.1457 42.4301C34.3087 42.4301 36.0684 40.6986 36.0684 38.5704C36.0684 36.4423 34.3086 34.7108 32.1457 34.7108Z" fill="#00C8C8"/>
</svg>
