<svg viewBox="0 0 50 50" xmlns="http://www.w3.org/2000/svg" xmlns:xlink="http://www.w3.org/1999/xlink" width="50.000000" height="50.000000" fill="none" customFrame="#000000">
	<g id="miro">
		<path id="Форма 6" d="M0 12.5C0 5.59644 5.59644 0 12.5 0L37.5 0C44.4036 0 50 5.59644 50 12.5L50 37.5C50 44.4036 44.4036 50 37.5 50L12.5 50C5.59644 50 0 44.4036 0 37.5L0 12.5Z" fill="rgb(255,221,51)" fill-rule="nonzero" />
		<path id="Форма 7" d="M33.2413 9.53125L28.7023 9.53125L32.4847 16.1769L24.1634 9.53125L19.6247 9.53125L23.7853 17.6539L15.0858 9.53125L10.5469 9.53125L15.0858 19.8705L10.5469 40.5469L15.0858 40.5469L23.7853 18.3934L19.6247 40.5469L24.1634 40.5469L32.4847 16.9164L28.7023 40.5469L33.2413 40.5469L41.5625 14.6999L33.2413 9.53125Z" fill="rgb(28,28,30)" fill-rule="evenodd" />
	</g>
</svg>
