<svg viewBox="0 0 50 50" xmlns="http://www.w3.org/2000/svg" xmlns:xlink="http://www.w3.org/1999/xlink" width="50.000000" height="50.000000" fill="none" customFrame="#000000">
	<g id="money">
		<circle id="Эллипс 1" cx="25" cy="25" r="25" fill="rgb(232,129,2)" />
		<ellipse id="Эллипс 2" rx="24.744900" ry="23.681641" cx="25.0000019" cy="23.6816406" fill="rgb(253,216,53)" />
		<g id="Сочетание 2">
			<path id="Форма 1" d="M34.8776 1.96289L2.30612 33.125C1.21429 30.7324 0.530612 28.1348 0.32653 25.4102L26.8061 0.0585938C29.6531 0.263672 32.3674 0.917969 34.8776 1.96289L34.8776 1.96289ZM46.5612 12.0605L12.8571 44.3164C10.7551 43.1836 8.85714 41.7676 7.19388 40.1172L42.1837 6.64062C43.898 8.22266 45.3776 10.0488 46.5612 12.0605ZM41.1735 5.75195L6.27551 39.1504C5.73469 38.5449 5.21429 37.9102 4.73469 37.2559L39.1939 4.27734C39.8776 4.73633 40.5408 5.23438 41.1735 5.75195ZM48.9694 17.7734L18.8265 46.6211C17.9184 46.3965 17.0306 46.123 16.1633 45.8105L48.1225 15.2246C48.449 16.0547 48.7347 16.9043 48.9694 17.7734Z" fill="rgb(255,255,255)" fill-opacity="0.31400001" fill-rule="nonzero" />
			<path id="Форма 2" d="M49.7449 23.6816C49.7449 23.8477 49.7449 24.0039 49.7347 24.1699C49.4694 11.3184 38.5 0.976562 25 0.976562C11.5 0.976562 0.530612 11.3184 0.265306 24.1699C0.265306 24.0039 0.255102 23.8477 0.255102 23.6816C0.255102 10.6055 11.3367 0 25 0C38.6633 0 49.7449 10.6055 49.7449 23.6816Z" fill="rgb(255,255,255)" fill-opacity="0.31400001" fill-rule="nonzero" />
			<path id="Форма 3" d="M45.102 24.707C45.102 34.9512 36.4184 43.2617 25.7143 43.2617C19.7041 43.2617 14.3265 40.6348 10.7653 36.5234C14.3061 40.1855 19.3674 42.4805 25 42.4805C35.7041 42.4805 44.3878 34.1699 44.3878 23.9258C44.3878 19.4336 42.7245 15.3223 39.949 12.1094C43.1429 15.4199 45.102 19.8438 45.102 24.707Z" fill="rgb(255,255,255)" fill-opacity="0.31400001" fill-rule="nonzero" />
		</g>
		<ellipse id="Эллипс 3" rx="19.387756" ry="18.554688" cx="25.0000019" cy="23.9257812" fill="rgb(243,158,9)" />
		<path id="Форма 4" d="M39.6939 11.8164C36.2959 9.01367 31.8776 7.32422 27.0408 7.32422C16.3367 7.32422 7.65306 15.6348 7.65306 25.8789C7.65306 30.5078 9.41837 34.7363 12.3469 37.9883C8.22449 34.5801 5.61225 29.5508 5.61225 23.9258C5.61225 13.6816 14.2959 5.37109 25 5.37109C30.8673 5.37109 36.1327 7.87109 39.6939 11.8164Z" fill="rgb(232,129,2)" fill-rule="nonzero" />
		<path id="Форма 5" d="M23.7857 19.1992C23.4388 19.5801 23.2551 20.1074 23.2551 20.7812C23.2551 21.4551 23.4592 22.0117 23.8673 22.4121C24.2755 22.8125 24.9286 23.1934 25.8265 23.5645C26.7245 23.9258 27.5714 24.3066 28.3673 24.6973C29.1633 25.0879 29.8469 25.5371 30.4286 26.0352C31.0102 26.5332 31.4592 27.1191 31.7857 27.7832C31.9082 28.0371 32.2755 28.5156 32.2755 28.5156L32.2755 30.1855C32.2755 31.7676 31.7551 33.0566 30.7041 34.0527C29.6531 35.0488 28.2347 35.6348 26.4286 35.8008L26.4286 38.5742L24.1224 38.5742L24.1224 35.7715C22.0204 35.5566 20.4082 34.873 19.2755 33.7012C18.1531 32.5293 17.5918 30.9961 17.5918 29.082L17.5918 27.6172L22.4694 29.082C22.4694 30.1367 22.7143 30.9375 23.2041 31.4844C23.6939 32.0312 24.3878 32.3047 25.2857 32.3047C25.9388 32.3047 26.4592 32.1191 26.8367 31.7383C27.2143 31.3574 27.398 30.8496 27.398 30.1953C27.398 29.4629 27.2143 28.8965 26.8367 28.4766C26.4592 28.0566 25.7959 27.666 24.8571 27.2949C23.9082 26.9238 23.0408 26.5527 22.2347 26.1719C21.4286 25.791 20.7449 25.3516 20.1633 24.8535C19.5816 24.3555 19.1429 23.7793 18.8265 23.125C18.5204 22.4707 18.3673 21.6797 18.3673 20.7422L18.3673 19.1895C18.3673 19.1895 19.2755 17.5586 20.0204 16.8848C21.1224 15.8691 22.5918 15.2832 24.4184 15.1172L24.4184 12.207L26.7245 12.207L26.7245 15.1855C28.4898 15.4395 29.8776 16.1328 30.8878 17.2754C31.5816 18.0566 32.398 20.1562 32.398 20.1562L32.398 21.6211L27.5 21.6211C27.5 20.6641 27.3061 19.9219 26.9184 19.4043C26.5306 18.8867 25.9796 18.6328 25.2653 18.6328C24.6326 18.623 24.1429 18.8184 23.7857 19.1992L23.7857 19.1992Z" fill="rgb(219,103,4)" fill-rule="nonzero" />
		<path id="Форма 6" d="M27.398 28.7402C27.398 28.0078 27.2143 27.4414 26.8367 27.0215C26.4592 26.6016 25.7959 26.2109 24.8571 25.8398C23.9082 25.4688 23.0408 25.0977 22.2347 24.7168C21.4286 24.3359 20.7449 23.8965 20.1633 23.3984C19.5816 22.9004 19.1429 22.3242 18.8265 21.6699C18.5204 21.0156 18.3673 20.2148 18.3673 19.2871C18.3673 17.7246 18.9184 16.4355 20.0204 15.4297C21.1224 14.4238 22.5918 13.8281 24.4184 13.6621L24.4184 10.7422L26.7245 10.7422L26.7245 13.7207C28.4898 13.9746 29.8776 14.668 30.8878 15.8105C31.898 16.9531 32.398 18.3984 32.398 20.1562L27.5 20.1562C27.5 19.1992 27.3061 18.457 26.9184 17.9395C26.5306 17.4219 25.9796 17.168 25.2653 17.168C24.6326 17.168 24.1326 17.3633 23.7857 17.7441C23.4388 18.125 23.2551 18.6523 23.2551 19.3262C23.2551 20 23.4592 20.5566 23.8673 20.957C24.2755 21.3574 24.9286 21.7383 25.8163 22.1094C26.7143 22.4707 27.5612 22.8516 28.3571 23.2422C29.1531 23.6328 29.8367 24.082 30.4184 24.5801C31 25.0781 31.449 25.6641 31.7755 26.3281C32.102 26.9922 32.2653 27.793 32.2653 28.7207C32.2653 30.3027 31.7449 31.5918 30.6939 32.5879C29.6429 33.584 28.2245 34.1699 26.4184 34.3359L26.4184 37.1094L24.1122 37.1094L24.1122 34.3066C22.0102 34.0918 20.398 33.4082 19.2653 32.2363C18.1428 31.0645 17.5816 29.5312 17.5816 27.6172L22.4592 27.6172C22.4592 28.6719 22.7041 29.4727 23.1939 30.0195C23.6837 30.5664 24.3775 30.8398 25.2755 30.8398C25.9286 30.8398 26.449 30.6543 26.8265 30.2734C27.2041 29.8926 27.398 29.3945 27.398 28.7402L27.398 28.7402Z" fill="rgb(253,216,53)" fill-rule="nonzero" />
		<g id="Сочетание 3">
			<path id="Форма 7" d="M20.0204 15.4297C20.6122 14.8828 21.3163 14.4629 22.1224 14.1602L18.6633 17.4805C18.9286 16.6992 19.3776 16.0254 20.0204 15.4297ZM25.6939 10.7422L24.4184 11.9629L24.4184 10.7422L25.6939 10.7422ZM31.7449 26.2402L23.4082 34.2188C21.6531 33.9355 20.2755 33.2715 19.2857 32.2461C18.6429 31.5723 18.1837 30.7812 17.9082 29.873L20.2551 27.627L22.4796 27.627C22.4796 28.6816 22.7245 29.4824 23.2143 30.0293C23.7041 30.5762 24.398 30.8496 25.2959 30.8496C25.949 30.8496 26.4694 30.6641 26.8469 30.2832C27.2245 29.9023 27.4082 29.3945 27.4082 28.7402C27.4082 28.0078 27.2245 27.4414 26.8469 27.0215C26.4694 26.6016 25.8061 26.2109 24.8673 25.8398C24.1939 25.5762 23.5612 25.3125 22.9592 25.0391L25.9796 22.1484C26.8265 22.5 27.6225 22.8516 28.3776 23.2227C29.1735 23.6133 29.8571 24.0625 30.4388 24.5605C30.9898 25.0488 31.4286 25.6055 31.7449 26.2402ZM32.398 20.1465L28.0612 20.1465L31.5816 16.7773C32.1224 17.7344 32.398 18.8574 32.398 20.1465ZM17.602 27.6172L18.3265 27.6172L17.6327 28.2812C17.6122 28.0664 17.602 27.8418 17.602 27.6172ZM23.8673 20.9473C24.0714 21.1523 24.3367 21.3477 24.6735 21.543L21.6531 24.4336C21.0918 24.1309 20.5918 23.7891 20.1633 23.4082C19.9898 23.2617 19.8367 23.1055 19.6939 22.9492L23.2755 19.5215C23.3061 20.1074 23.5102 20.5859 23.8673 20.9473L23.8673 20.9473ZM30.7857 15.6934L27.3776 18.9551C27.2857 18.5547 27.1327 18.2129 26.9286 17.9395C26.6225 17.5293 26.2143 17.2852 25.7041 17.1973L28.7551 14.2773C29.5408 14.6191 30.2143 15.0879 30.7857 15.6934L30.7857 15.6934ZM25.2449 37.1094L26.4286 35.9766L26.4286 37.1094L25.2449 37.1094ZM31.9592 30.6836C31.7041 31.4063 31.2857 32.0312 30.7143 32.5781C30.1429 33.125 29.4592 33.5449 28.6633 33.8379L31.9592 30.6836Z" fill="rgb(255,255,255)" fill-opacity="0.31400001" fill-rule="nonzero" />
			<path id="Форма 8" d="M41.1735 13.6816C28.6224 17.9004 18.5408 27.168 13.602 38.9355C13.1735 38.6328 12.7551 38.3203 12.3469 37.9785C9.41837 34.7266 7.65306 30.4981 7.65306 25.8789C7.65306 15.6348 16.3367 7.32422 27.0408 7.32422C31.8776 7.32422 36.2959 9.01367 39.6837 11.8164C40.2245 12.4121 40.7143 13.0371 41.1735 13.6816L41.1735 13.6816Z" fill="rgb(255,255,255)" fill-opacity="0.144999996" fill-rule="nonzero" />
		</g>
	</g>
</svg>
