<svg width="50" height="50" viewBox="0 0 50 50" fill="none" xmlns="http://www.w3.org/2000/svg">
<g clip-path="url(#clip0_245_10)">
<path d="M25 50C38.8071 50 50 38.8071 50 25C50 11.1929 38.8071 0 25 0C11.1929 0 0 11.1929 0 25C0 38.8071 11.1929 50 25 50Z" fill="#4A98F7"/>
<path d="M36.0032 13.9968L34.8906 15.2655L25 5.375L25.401 21.0734L5.375 25L15.1775 34.8025L13.9968 36.0033L27.8345 49.841C39.3767 48.5385 48.5385 39.3768 49.8411 27.8346L36.0032 13.9968Z" fill="#2864F0"/>
<path d="M25.6902 25.0393L25 5.375C21.5435 13.8072 21.296 17.4278 19.3235 19.3236C17.4278 21.2959 13.8072 21.5435 5.375 25C13.8072 28.4566 17.4278 28.7041 19.3235 30.6765C21.2959 32.5724 21.5435 36.1929 25 44.625L25.6902 25.0393Z" fill="#FDBA12"/>
<path d="M25 44.625V5.375C28.4564 13.8071 28.704 17.4277 30.6764 19.3235C32.5722 21.2959 36.1928 21.5434 44.625 25C36.1928 28.4565 32.5722 28.7041 30.6765 30.6764C28.704 32.5722 28.4565 36.1929 25 44.625Z" fill="#FFA300"/>
<path d="M25 18.6348C22.8312 18.6777 20.6625 16.7865 13.9968 13.9968C16.7864 20.6625 18.6777 22.8312 18.6348 25C18.6776 27.1688 16.7865 29.3376 13.9968 36.0033C20.6625 33.2136 22.8312 31.3223 25 31.3652L25.8293 25.0864L25 18.6348Z" fill="#FFDC4A"/>
<path d="M25 18.6348C27.1688 18.6777 29.3376 16.7865 36.0032 13.9968C33.2136 20.6624 31.3224 22.8312 31.3652 25C31.3223 27.1688 33.2135 29.3375 36.0032 36.0032C29.3375 33.2135 27.1688 31.3223 25 31.3652V18.6348Z" fill="#FFCE00"/>
</g>
<defs>
<clipPath id="clip0_245_10">
<rect width="50" height="50" fill="white"/>
</clipPath>
</defs>
</svg>
