<svg width="50" height="50" viewBox="0 0 50 50" fill="none" xmlns="http://www.w3.org/2000/svg">
<path d="M42.9926 6.12049C42.7948 5.85421 42.5452 5.62908 42.2582 5.45814C41.9712 5.28719 41.6526 5.17381 41.3207 5.12456L8.46516 0.203493C7.7951 0.10424 7.1123 0.269861 6.56635 0.664074C6.02039 1.05829 5.6558 1.64895 5.55243 2.30666L0.0269378 37.8823C-0.070683 38.5399 0.0992849 39.2089 0.500064 39.7444C0.900843 40.2799 1.5002 40.6389 2.16845 40.7437L28.6557 44.7115C29.8239 44.8871 31.0159 44.8349 32.1635 44.5578C33.3111 44.2807 34.3918 43.7842 35.3439 43.0966C36.296 42.409 37.1008 41.5439 37.7122 40.5507C38.3237 39.5575 38.7298 38.4556 38.9073 37.3082L43.4613 7.98598C43.5125 7.66017 43.4975 7.32764 43.417 7.00758C43.3366 6.68753 43.1923 6.38631 42.9926 6.12133V6.12049Z" fill="#29B6F6"/>
<path d="M42.1626 46.577C42.0433 46.5854 40.2197 46.8197 37.5609 47.1629C29.968 48.142 15.6345 50 15.2595 50C14.6399 49.9984 14.042 49.7761 13.5765 49.3744C13.1111 48.9727 12.8098 48.4189 12.7286 47.8156L7.99902 12.1295C7.91698 11.4691 8.10232 10.8035 8.51514 10.276C8.92796 9.74843 9.53522 9.40123 10.2061 9.30914L43.1597 5.09945C43.8304 5.01618 44.5074 5.1963 45.0436 5.60064C45.5798 6.00498 45.9317 6.60085 46.023 7.2587L49.4402 33.0106L49.9259 36.6763C50.2312 38.9999 49.5852 41.3475 48.1296 43.2038C46.6741 45.06 44.5281 46.2732 42.1626 46.577Z" fill="#FFD740"/>
<path d="M42.1626 46.577C42.0433 46.5854 40.2197 46.8197 37.5609 47.1629C37.9382 45.5912 38.1298 43.9821 38.1319 42.3673C37.1519 37.9819 39.6743 34.04 44.6936 34.0316C45.3072 33.948 47.7103 33.4709 49.4402 33.0106L49.9259 36.6763C50.2312 38.9999 49.5852 41.3475 48.1296 43.2038C46.6741 45.06 44.5281 46.2732 42.1626 46.577Z" fill="#F9C112"/>
<path d="M32.9984 6.44103L27.8768 11.4717C27.0851 12.2275 28.3114 13.436 29.0818 12.6551L34.2033 7.62527C34.5357 7.29803 33.3316 6.11463 32.9984 6.44103Z" fill="#37474F"/>
<path d="M40.7821 3.68004C40.7829 3.41429 40.73 3.15103 40.6264 2.90552C40.5228 2.66 40.3707 2.43711 40.1788 2.24975L38.4719 0.573411C38.0796 0.205374 37.558 0 37.0155 0C36.473 0 35.9514 0.205374 35.5591 0.573411L33.9562 2.14765C33.2395 2.07129 32.5147 2.16438 31.8421 2.41916C31.1695 2.67394 30.5687 3.08302 30.0899 3.61225C29.9361 3.77036 29.8514 3.98132 29.8539 4.19999C29.8565 4.41865 29.9461 4.62765 30.1035 4.78226L35.8932 10.4683C36.0544 10.6249 36.2723 10.7124 36.4991 10.7116C36.7259 10.7109 36.9432 10.6218 37.1033 10.4641C37.6042 9.98792 37.9902 9.40758 38.2328 8.7657C38.4753 8.12382 38.5684 7.43671 38.5051 6.75487L40.1788 5.11033C40.3708 4.92288 40.523 4.69985 40.6266 4.45418C40.7301 4.20852 40.783 3.9451 40.7821 3.67921V3.68004Z" fill="#E53935"/>
<path d="M14.4968 23.1032C14.2835 23.098 14.0799 23.0146 13.9261 22.8694C13.7723 22.7242 13.6794 22.5277 13.6657 22.3186C13.652 22.1095 13.7186 21.903 13.8522 21.7396C13.9858 21.5763 14.1769 21.468 14.3878 21.4361L42.2743 17.8691C42.4985 17.8404 42.7251 17.9003 42.9043 18.0356C43.0836 18.171 43.2007 18.3708 43.23 18.591C43.2593 18.8111 43.1983 19.0337 43.0604 19.2098C42.9226 19.3858 42.7192 19.5008 42.495 19.5296L14.6085 23.0965C14.5717 23.1011 14.5339 23.1034 14.4968 23.1032ZM17.9524 16.7535C17.7391 16.7484 17.5355 16.665 17.3817 16.5198C17.2279 16.3746 17.135 16.1781 17.1213 15.9689C17.1076 15.7598 17.1741 15.5533 17.3078 15.3899C17.4414 15.2266 17.6325 15.1183 17.8433 15.0864L37.2788 12.6007C37.5009 12.5761 37.724 12.6382 37.8999 12.7735C38.0759 12.9089 38.1907 13.1067 38.2195 13.3244C38.2483 13.5421 38.1889 13.7621 38.0541 13.9372C37.9193 14.1123 37.7198 14.2283 37.4987 14.2603L18.0632 16.746C18.0265 16.7509 17.9895 16.7534 17.9524 16.7535ZM15.2681 28.9131C15.0548 28.9079 14.8512 28.8245 14.6973 28.6793C14.5435 28.5341 14.4506 28.3376 14.4369 28.1285C14.4233 27.9194 14.4898 27.7128 14.6234 27.5495C14.7571 27.3861 14.9481 27.2778 15.159 27.2459L43.0446 23.679C43.2672 23.6532 43.4912 23.7146 43.6681 23.8499C43.8449 23.9852 43.9604 24.1835 43.9894 24.4018C44.0184 24.6201 43.9587 24.8408 43.8232 25.0161C43.6877 25.1915 43.4872 25.3073 43.2653 25.3386L15.3788 28.9055C15.3421 28.9104 15.3051 28.9129 15.2681 28.9131ZM16.0384 34.7221C15.8251 34.7169 15.6215 34.6335 15.4677 34.4883C15.3139 34.3431 15.221 34.1466 15.2073 33.9375C15.1936 33.7284 15.2602 33.5219 15.3938 33.3585C15.5274 33.1952 15.7185 33.0869 15.9293 33.055L43.815 29.488C44.0376 29.4623 44.2616 29.5237 44.4384 29.659C44.6153 29.7942 44.7307 29.9925 44.7597 30.2108C44.7888 30.4291 44.7291 30.6498 44.5935 30.8252C44.458 31.0005 44.2576 31.1164 44.0357 31.1476L16.1501 34.7154C16.113 34.72 16.0757 34.7223 16.0384 34.7221ZM16.8079 40.5311C16.5955 40.5247 16.3932 40.4407 16.2405 40.2956C16.0878 40.1504 15.9957 39.9546 15.9821 39.7463C15.9686 39.538 16.0346 39.3323 16.1673 39.1693C16.3 39.0063 16.4899 38.8977 16.6997 38.8648L25.1507 37.7835C25.2617 37.7694 25.3745 37.7769 25.4825 37.8056C25.5906 37.8343 25.6919 37.8835 25.7805 37.9507C25.8692 38.0178 25.9435 38.1014 25.9993 38.1967C26.0551 38.292 26.0912 38.3972 26.1056 38.5062C26.1199 38.6152 26.1123 38.726 26.0831 38.8321C26.0539 38.9382 26.0037 39.0377 25.9354 39.1248C25.8671 39.2118 25.7819 39.2849 25.6849 39.3396C25.5878 39.3944 25.4807 39.4299 25.3697 39.444C25.218 39.4557 16.9468 40.5353 16.8088 40.532L16.8079 40.5311Z" fill="#FFA000"/>
</svg>
