<svg width="50" height="50" viewBox="0 0 50 50" fill="none" xmlns="http://www.w3.org/2000/svg">
<g clip-path="url(#clip0_53_6)">
<path d="M25.2183 0C11.2383 -0.111667 -0.115 11.24 0.00166667 25.22C0.116667 38.7933 11.2083 49.885 24.7817 50C38.7617 50.12 50.1183 38.7633 49.9983 24.7833C49.8867 11.2117 38.7933 0.116667 25.2183 0Z" fill="#0086FF"/>
<path d="M24.9633 7.72333C25.8583 7.72333 26.5833 8.44833 26.5833 9.34333V11.4233C31.5533 13.7433 34.8083 17.5933 34.8083 21.9483C34.8083 24.5033 33.6917 26.8817 31.7633 28.8817C31.3933 29.265 30.88 29.4817 30.3433 29.4817H26.5867V32.5767H31.3033C32.32 32.5767 34.1467 30.6467 35.0117 29.4833C35.0117 29.4833 35.0483 29.4267 35.1483 29.3967C35.2483 29.3667 43.8117 27.4017 43.8117 27.4017C43.8533 27.3905 43.897 27.389 43.9394 27.3973C43.9817 27.4055 44.0216 27.4234 44.056 27.4494C44.0904 27.4755 44.1184 27.509 44.1379 27.5476C44.1574 27.5861 44.1678 27.6285 44.1683 27.6717V29.4733C44.1683 29.59 44.1067 29.69 43.9983 29.7367C43.4117 29.9867 41.4733 30.8867 40.665 32.0067C38.5867 34.9017 36.9983 39.4517 33.4483 39.4517H18.6367C13.3917 39.4517 9.00333 35.2883 9.00667 29.7433C9.00667 29.6067 9.12333 29.4933 9.26167 29.4933H16.2817C16.5233 29.4933 16.715 29.6883 16.715 29.9267V31.2817C16.715 32.0017 17.2967 32.5867 18.0183 32.5867H23.3433V29.4867H19.7067C21.8752 26.7428 23.0512 23.3457 23.0433 19.8483C23.0433 15.7867 21.4867 12.0817 18.9367 9.31167C20.4783 9.49167 21.9533 9.79833 23.3433 10.2067V9.34333C23.3433 8.44833 24.0683 7.72333 24.9633 7.72333ZM17.7417 12.44C19.4037 14.5481 20.3057 17.1555 20.3017 19.84C20.3017 22.2567 19.585 24.5067 18.3517 26.3833H9.685L17.7417 12.44Z" fill="white"/>
</g>
<defs>
<clipPath id="clip0_53_6">
<rect width="50" height="50" fill="white"/>
</clipPath>
</defs>
</svg>
