<svg width="50" height="50" viewBox="0 0 50 50" fill="none" xmlns="http://www.w3.org/2000/svg">
<path d="M40.4699 44.2418L34.8876 47.4919C31.5446 49.4138 27.5458 50.3201 23.1791 49.8982C22.5873 49.8357 22.0275 49.7576 21.4357 49.6638C17.9807 49.0388 14.6857 47.6169 11.7746 45.5699C9.91914 44.273 8.20765 42.7261 6.7201 40.976C4.00196 37.8276 2.02039 34.1374 0.913858 30.1631C0.513978 28.6475 0.226066 27.1005 0.0981046 25.5224C0.0661143 25.1473 0.0341237 24.788 0.0181285 24.4286C-0.0890391 21.4644 0.280449 18.5721 1.32653 15.7236C1.48648 15.2907 1.82718 14.9485 2.25425 14.7595L4.00093 13.9907L2.40141 13.3032C4.06491 10.1156 6.52816 7.52173 9.55125 5.77167L15.1176 2.53718C1.27055 10.5171 2.86527 32.3117 17.3569 42.3198C20.268 44.3511 23.563 45.7887 27.018 46.4137C27.6098 46.5231 28.1696 46.6012 28.7614 46.6637C33.0961 47.1012 37.1269 46.1793 40.4699 44.2418Z" fill="#F3A250"/>
<path d="M49.9806 25.6005C49.4544 12.7438 39.0943 1.33401 26.8212 0.10428C14.5705 -1.10514 5.0518 8.34519 5.57645 21.1831C6.10109 34.0398 16.4835 45.4496 28.7534 46.6575C41.0057 47.8872 50.5085 38.4587 49.9806 25.6005Z" fill="#FFD475"/>
<path d="M24.0013 1.23401C13.9931 1.60902 6.36181 9.85306 6.82247 21.1331C7.3695 34.4789 18.9788 46.0059 31.6102 45.5324C41.4904 45.1621 49.1985 37.054 48.7314 25.6505C48.2308 13.4001 38.3457 2.48405 26.6949 1.31682C25.8 1.22835 24.9 1.20068 24.0013 1.23401Z" fill="#FFB961"/>
<path d="M8.0557 19.7253C7.65742 19.7253 7.62063 19.1471 8.01891 19.1018L9.46967 18.9346L9.63602 17.5221C9.64722 17.4409 9.69009 17.3672 9.75568 17.3162C9.82126 17.2653 9.90447 17.241 9.98791 17.2486C10.1639 17.2658 10.2902 17.4221 10.2694 17.5924L10.0775 19.2503C10.0698 19.3206 10.0377 19.3863 9.98649 19.4364C9.93526 19.4864 9.86802 19.5178 9.79597 19.5253L8.09409 19.7221L8.0557 19.7253Z" fill="#DD8536"/>
<path d="M8.54675 18.3518L8.51156 18.3487C8.46987 18.3444 8.42946 18.3321 8.39268 18.3124C8.3559 18.2928 8.32348 18.2662 8.29729 18.2342C8.2711 18.2023 8.25168 18.1655 8.24013 18.1262C8.22859 18.0868 8.22516 18.0456 8.23005 18.0049L8.42199 16.347C8.42964 16.2767 8.46175 16.211 8.51298 16.1609C8.56421 16.1109 8.63146 16.0795 8.70351 16.072L10.4054 15.8767C10.8181 15.822 10.906 16.447 10.4806 16.4955L9.02981 16.6627L8.86346 18.0737C8.85516 18.15 8.81821 18.2207 8.75973 18.2721C8.70126 18.3234 8.62539 18.3518 8.54675 18.3518ZM42.8308 16.0908L41.8583 14.7204C41.8169 14.6626 41.7969 14.5927 41.8015 14.5223C41.8062 14.4519 41.8352 14.3851 41.8839 14.3329L43.0339 13.0907C43.3138 12.7828 43.7921 13.2001 43.5074 13.5079L42.5285 14.5673L43.3554 15.7345C43.4037 15.8025 43.4224 15.8864 43.4074 15.9679C43.3924 16.0493 43.3449 16.1216 43.2755 16.1689C43.2058 16.216 43.1199 16.2343 43.0366 16.2196C42.9532 16.205 42.8792 16.1586 42.8308 16.0908Z" fill="#DD8536"/>
<path d="M43.4098 17.0533L44.3887 15.9939L43.5634 14.8267C43.3186 14.486 43.8497 14.1298 44.088 14.4688L45.0589 15.8408C45.1002 15.8985 45.1203 15.9683 45.116 16.0386C45.1116 16.1089 45.0831 16.1758 45.0349 16.2283L43.8865 17.4705C43.605 17.7799 43.1251 17.3611 43.4098 17.0533ZM37.2453 9.08272L35.8489 8.12175C35.7901 8.08112 35.7471 8.0223 35.7268 7.95481C35.7064 7.88732 35.71 7.81511 35.7369 7.74986L36.3767 6.19512C36.4094 6.11871 36.4714 6.05788 36.5495 6.02573C36.6276 5.99358 36.7155 5.99268 36.7942 6.02324C36.8723 6.05477 36.9346 6.11508 36.9675 6.19111C37.0004 6.26714 37.0014 6.35278 36.9702 6.4295L36.4263 7.75455L37.6148 8.57333C37.9619 8.8124 37.586 9.32335 37.2453 9.08272Z" fill="#DD8536"/>
<path d="M38.1314 9.78899L38.6752 8.46707L37.4868 7.64673C37.1413 7.40922 37.5092 6.89358 37.8547 7.13734L39.2511 8.09831C39.3102 8.13902 39.3535 8.19811 39.3738 8.26593C39.3942 8.33376 39.3904 8.40632 39.363 8.47176L38.7232 10.0249C38.5649 10.4062 37.9715 10.1734 38.1314 9.78899ZM29.0542 5.13102L27.4146 4.67007C27.3453 4.6505 27.2848 4.60874 27.2427 4.55149C27.2007 4.49424 27.1795 4.42483 27.1827 4.35443L27.2659 2.6825C27.2771 2.51062 27.429 2.39655 27.6018 2.38405C27.7777 2.39342 27.9137 2.5403 27.9057 2.71218L27.8353 4.13723L29.2333 4.52944C29.315 4.55244 29.3839 4.60618 29.425 4.67886C29.4661 4.75153 29.476 4.83717 29.4524 4.91695C29.4289 4.99672 29.3739 5.06409 29.2995 5.10424C29.2251 5.14439 29.1358 5.15402 29.0542 5.13102Z" fill="#DD8536"/>
<path d="M30.4473 5.84354H30.4313C30.3466 5.8391 30.2671 5.80211 30.2102 5.74064C30.1533 5.67917 30.1235 5.59821 30.1274 5.51541L30.1994 4.09036L28.8014 3.69816C28.4 3.58565 28.5663 2.98563 28.979 3.09657L30.6201 3.55753C30.7624 3.59659 30.8568 3.72941 30.8504 3.87316L30.7688 5.5451C30.7647 5.62524 30.7292 5.70077 30.6697 5.75604C30.6101 5.81131 30.5311 5.84208 30.4489 5.84198L30.4473 5.84354ZM18.8092 6.20918L17.7232 4.91382C17.4561 4.59506 17.9471 4.19505 18.2174 4.51693L19.1435 5.62166L20.4488 4.99976C20.8326 4.82163 21.1094 5.3779 20.7303 5.56228L19.1963 6.292C19.1318 6.32326 19.0583 6.33209 18.9879 6.31703C18.9175 6.30198 18.8545 6.26393 18.8092 6.20918Z" fill="#DD8536"/>
<path d="M21.7907 5.14508L20.8662 4.03879L19.561 4.66225C19.1819 4.84351 18.8972 4.28411 19.2795 4.09973L20.8134 3.36846C20.8783 3.33737 20.952 3.32863 21.0226 3.34367C21.0931 3.3587 21.1564 3.39663 21.2021 3.45127L22.2882 4.74819C22.5537 5.06852 22.0643 5.46384 21.7923 5.14508H21.7907ZM12.3696 11.8406L10.7493 11.289C10.3446 11.1531 10.5669 10.5578 10.9572 10.7L12.3392 11.1687L13.1182 9.97025C13.1647 9.901 13.237 9.85227 13.3198 9.83446C13.4026 9.81665 13.4893 9.83117 13.5612 9.87493C13.6327 9.91952 13.6831 9.98998 13.7014 10.0708C13.7197 10.1517 13.7044 10.2364 13.6588 10.3062L12.7439 11.7125C12.7055 11.7721 12.6476 11.8172 12.5797 11.8405C12.5117 11.8637 12.4376 11.8638 12.3696 11.8406Z" fill="#DD8536"/>
<path d="M11.6418 9.80306L12.5567 8.39676C12.5949 8.33702 12.6529 8.29188 12.721 8.26885C12.7891 8.24581 12.8632 8.24629 12.931 8.27019L14.5513 8.81865C14.9544 8.95459 14.7369 9.5468 14.3434 9.40773L12.9614 8.94053L12.1824 10.139C11.9537 10.4875 11.4147 10.1515 11.6418 9.80306ZM10.1063 30.0616L11.3235 29.2725L10.8197 27.9396C10.7948 27.863 10.8011 27.7799 10.8373 27.7077C10.8735 27.6354 10.9369 27.5796 11.0141 27.5519C11.0914 27.5241 11.1766 27.5265 11.2521 27.5585C11.3276 27.5906 11.3876 27.6499 11.4195 27.724L12.0113 29.2865C12.0367 29.3528 12.0383 29.4255 12.016 29.4927C11.9936 29.56 11.9485 29.6179 11.8881 29.6569L10.4582 30.5835C10.1063 30.8085 9.75438 30.2913 10.1063 30.0616Z" fill="#DD8536"/>
<path d="M9.78798 28.9881L9.19616 27.4255C9.1706 27.3595 9.16871 27.2869 9.19079 27.2197C9.21286 27.1524 9.2576 27.0945 9.31772 27.0552L10.7477 26.1286C10.8185 26.0831 10.905 26.0668 10.9881 26.0835C11.0712 26.1002 11.1441 26.1485 11.1908 26.2177C11.2371 26.2868 11.2537 26.3711 11.237 26.4521C11.2202 26.5331 11.1714 26.6044 11.1012 26.6505L9.88235 27.4396L10.3862 28.7725C10.4111 28.8491 10.4048 28.9322 10.3685 29.0044C10.3323 29.0767 10.269 29.1325 10.1917 29.1602C10.1145 29.188 10.0292 29.1856 9.95374 29.1536C9.87824 29.1215 9.81989 29.0622 9.78798 28.9881ZM16.7075 38.8134L17.3857 37.5478L16.29 36.6181C15.9701 36.3462 16.386 35.8758 16.7091 36.1446L17.9967 37.2384C18.0515 37.2846 18.0886 37.3477 18.102 37.4172C18.1154 37.4868 18.1042 37.5587 18.0703 37.6212L17.2721 39.1041C17.0802 39.4697 16.5091 39.1791 16.7075 38.8134Z" fill="#DD8536"/>
<path d="M16.1093 38.0978C15.8965 38.0978 15.9221 38.0072 14.6105 36.9274C14.5561 36.8813 14.5192 36.8185 14.5058 36.7493C14.4925 36.6801 14.5034 36.6085 14.5369 36.5462L15.3367 35.0649C15.5238 34.6992 16.0997 34.9867 15.9013 35.3555L15.2215 36.6181L16.3172 37.5493C16.3663 37.591 16.4012 37.6463 16.4174 37.7078C16.4335 37.7694 16.43 37.8343 16.4074 37.8938C16.3848 37.9534 16.3442 38.0048 16.2909 38.0413C16.2377 38.0777 16.1743 38.0974 16.1093 38.0978ZM26.5109 43.8121C26.4264 43.8121 26.3452 43.7793 26.2853 43.7211C26.2253 43.6628 26.1914 43.5837 26.191 43.5011L26.1782 42.0745L24.761 41.7589C24.3644 41.6714 24.4667 41.0713 24.905 41.1495L26.5685 41.5198C26.6385 41.5356 26.701 41.5739 26.746 41.6286C26.7909 41.6833 26.8158 41.7512 26.8164 41.8214L26.8308 43.4964C26.8312 43.5376 26.8233 43.5784 26.8075 43.6166C26.7918 43.6548 26.7684 43.6895 26.7388 43.7189C26.7093 43.7482 26.674 43.7715 26.6352 43.7875C26.5964 43.8035 26.5531 43.8119 26.5109 43.8121Z" fill="#DD8536"/>
<path d="M25.0953 43.1761L23.4319 42.8073C23.361 42.7921 23.2976 42.7538 23.252 42.6987C23.2063 42.6436 23.1812 42.575 23.1807 42.5042L23.1695 40.8291C23.1691 40.788 23.177 40.7471 23.1928 40.7089C23.2086 40.6708 23.232 40.636 23.2615 40.6067C23.2911 40.5774 23.3263 40.554 23.3652 40.538C23.404 40.522 23.4457 40.5137 23.4878 40.5135C23.53 40.5133 23.5718 40.5212 23.6107 40.5368C23.6497 40.5524 23.6852 40.5754 23.7151 40.6045C23.745 40.6335 23.7687 40.668 23.7848 40.7061C23.801 40.7441 23.8093 40.7848 23.8093 40.826L23.8205 42.2526L25.2377 42.5651C25.2788 42.5742 25.3176 42.591 25.352 42.6147C25.3864 42.6384 25.4157 42.6685 25.4382 42.7032C25.4607 42.738 25.476 42.7767 25.4832 42.8172C25.4903 42.8577 25.4893 42.8992 25.48 42.9394C25.4708 42.9795 25.4536 43.0174 25.4293 43.051C25.405 43.0846 25.3743 43.1133 25.3387 43.1352C25.3031 43.1572 25.2634 43.1721 25.222 43.1791C25.1805 43.1862 25.138 43.1851 25.097 43.1761H25.0953ZM37.1525 43.0198C36.855 43.0198 36.8646 42.7667 36.0744 41.6932L34.7116 42.1917C34.3182 42.3386 34.0894 41.751 34.4877 41.6057L36.0872 41.0213C36.1546 40.9962 36.2287 40.9942 36.2974 41.0158C36.366 41.0374 36.425 41.0813 36.4647 41.1401L37.418 42.5323C37.4506 42.5794 37.4694 42.6342 37.4724 42.6909C37.4755 42.7476 37.4627 42.804 37.4354 42.8541C37.4081 42.9042 37.3673 42.9461 37.3175 42.9753C37.2677 43.0045 37.2106 43.0199 37.1525 43.0198Z" fill="#DD8536"/>
<path d="M33.8127 43.6605L32.8594 42.2698C32.6243 41.9261 33.1569 41.5745 33.3904 41.9214L34.203 43.1073L35.5626 42.6089C35.9625 42.4667 36.1832 43.0495 35.7881 43.1948L34.1902 43.7792C34.1228 43.8038 34.0488 43.8054 33.9803 43.7839C33.9118 43.7623 33.8528 43.7189 33.8127 43.6605ZM42.3669 36.2868L43.3458 34.9211C43.3876 34.8639 43.4478 34.822 43.5168 34.8022C43.5858 34.7824 43.6597 34.7857 43.7265 34.8117L45.318 35.4321C45.7099 35.5852 45.4748 36.1633 45.0813 36.0133L43.7249 35.4821L42.8916 36.6477C42.6436 36.9853 42.1238 36.6259 42.3669 36.2884V36.2868Z" fill="#DD8536"/>
<path d="M42.9987 38.3572L41.4072 37.7353C41.0153 37.5821 41.2489 37.0009 41.6439 37.1556L43.0003 37.6853L43.8369 36.5212C44.0832 36.1837 44.6047 36.5415 44.3615 36.8806L43.3794 38.2462C43.3378 38.3037 43.2776 38.3457 43.2085 38.3655C43.1395 38.3854 43.0655 38.3835 42.9987 38.3572ZM45.5372 26.3818L45.3612 24.7223C45.3536 24.6522 45.3704 24.5816 45.4091 24.522C45.4477 24.4625 45.5058 24.4174 45.574 24.3942L47.1943 23.8473C47.5861 23.7067 47.8085 24.2989 47.4038 24.4348L46.0234 24.9036L46.1738 26.3177C46.2154 26.7318 45.582 26.7974 45.5372 26.3818Z" fill="#DD8536"/>
<path d="M45.5724 27.5005L46.9543 27.0318L46.804 25.6161C46.7955 25.5335 46.8208 25.4509 46.8745 25.3865C46.9281 25.3221 47.0057 25.281 47.0903 25.2723C47.2614 25.2755 47.4246 25.3817 47.4422 25.5536L47.6165 27.213C47.6237 27.2831 47.6064 27.3535 47.5675 27.4127C47.5286 27.472 47.4704 27.5167 47.4022 27.5396L45.7819 28.0881C45.39 28.2287 45.1693 27.6349 45.574 27.499L45.5724 27.5005Z" fill="#DD8536"/>
<path d="M44.0432 25.0098C43.6513 15.5861 36.0552 7.22484 27.0867 6.32012C18.0975 5.43572 11.1236 12.35 11.5139 21.7738C11.9041 31.1976 19.5002 39.5588 28.4895 40.4432C37.458 41.3479 44.4335 34.4133 44.0432 25.0098Z" fill="#F3A250"/>
<path d="M37.1717 33.057C34.958 35.0227 30.4009 35.2977 27.7154 35.3258C27.4933 35.3345 27.2761 35.2601 27.1082 35.1179C26.9403 34.9756 26.8342 34.7762 26.8116 34.5602C26.7179 33.6904 26.6113 32.8221 26.4917 31.9554C26.4747 31.8081 26.4187 31.6676 26.3293 31.5479C26.2398 31.4282 26.1199 31.3333 25.9815 31.2726C24.2668 30.546 18.4861 27.6506 17.712 22.5191C16.7491 16.5158 20.5543 13.4469 25.073 13.6907C27.8753 13.8407 32.3556 15.1767 35.1739 19.605C36.2008 21.2253 36.3016 22.5613 36.0952 23.5551C36.0793 23.6529 36.0919 23.7531 36.1314 23.8443C36.171 23.9355 36.2361 24.014 36.3192 24.0707C36.3607 24.1004 36.4007 24.1301 36.4407 24.1645C36.4487 24.1661 36.4487 24.1739 36.4567 24.1754C37.1365 24.7067 38.2962 25.8505 37.4324 26.9083C36.8518 27.6146 36.3895 28.1084 36.068 28.4287C35.9482 28.5425 35.8661 28.6888 35.8321 28.8487C35.7982 29.0085 35.8141 29.1746 35.8777 29.3256C35.9064 29.3706 35.9315 29.4176 35.9529 29.4662C36.4039 30.1288 37.578 30.771 37.8931 31.5538C38.0386 31.8976 37.4756 32.7835 37.1717 33.057Z" fill="#DD8536"/>
<path d="M44.0432 25.0098C43.6513 15.5861 36.0552 7.22484 27.0867 6.32012C21.8611 5.80448 17.2993 7.92643 14.5097 11.6531C17.2513 9.33273 20.911 8.13737 24.9866 8.53426C38.5825 9.90618 46.7176 27.1115 38.9456 37.3259C42.2726 34.5555 44.2656 30.1491 44.0432 25.0098ZM27.0164 46.4184C23.5566 45.7949 20.2712 44.3511 17.3601 42.3245L11.781 45.5652C14.6937 47.6122 17.9775 49.0341 21.4373 49.6591L27.0164 46.4184ZM12.2864 37.7353C9.60243 34.6414 7.55025 30.9413 6.47538 26.9333L0.909058 30.1663C2.0147 34.142 4.00123 37.8317 6.7281 40.9745L12.2864 37.7353ZM6.14108 14.9157L0.606749 18.1565C0.122096 20.1269 -0.065048 22.2301 0.0197263 24.4223C0.034122 24.7895 0.0677118 25.1536 0.104501 25.5192L5.64203 22.3004C5.42741 19.8287 5.59674 17.3395 6.14428 14.9173L6.14108 14.9157Z" fill="#DD8536"/>
<path d="M37.5892 32.357C35.4602 34.2477 31.0759 34.5117 28.4927 34.5399C28.2793 34.5481 28.0707 34.4766 27.9093 34.3398C27.7479 34.2031 27.646 34.0115 27.6242 33.8039C27.5343 32.967 27.4319 32.1315 27.3171 31.2976C27.3006 31.1559 27.2467 31.0209 27.1606 30.9058C27.0745 30.7907 26.9592 30.6996 26.826 30.6413C25.1769 29.9428 19.6154 27.1568 18.87 22.2207C17.1633 11.5562 30.4953 11.2906 35.6681 19.4174C36.655 20.9753 36.7526 22.2613 36.5543 23.2176C36.5388 23.3119 36.5509 23.4085 36.5891 23.4964C36.6273 23.5843 36.69 23.6599 36.7702 23.7145C36.8104 23.7424 36.8489 23.7727 36.8854 23.8051C36.8934 23.8051 36.8934 23.8129 36.9014 23.8145C37.5556 24.3254 38.6704 25.4255 37.8387 26.4427C37.2805 27.1224 36.8374 27.5974 36.5271 27.9052C36.412 28.0148 36.3331 28.1555 36.3006 28.3092C36.2681 28.4629 36.2835 28.6227 36.3447 28.7678C36.8166 29.5147 37.5092 30.5444 37.8403 31.3632C37.9079 31.534 37.92 31.721 37.8751 31.8988C37.8302 32.0765 37.7304 32.2365 37.5892 32.357Z" fill="#FFDE9B"/>
<path d="M37.8467 31.3663C37.9747 31.6944 37.8787 32.1007 37.5908 32.3507C35.5498 34.1664 31.3175 34.5383 28.4895 34.5383C28.0257 34.5383 27.6738 34.2414 27.6258 33.8039C27.5298 32.9757 27.4338 32.132 27.3219 31.3038C27.2936 31.091 27.1853 30.896 27.018 30.7569C26.8948 30.6366 26.8004 30.635 26.5701 30.5225C23.0208 28.9818 19.4427 25.9974 18.8764 22.2254C18.3326 18.7784 19.3291 15.6861 22.5073 14.3032C22.5073 14.3188 22.4913 14.3188 22.4913 14.3345C22.1714 14.8032 21.9315 15.3189 21.7236 15.8501C19.7722 20.8972 22.3794 27.8193 29.5612 27.8193C33.1121 27.8193 35.5594 26.1161 36.871 23.7879C36.871 23.8035 36.887 23.8035 36.887 23.8035C36.887 23.8035 36.887 23.8192 36.903 23.8192C37.5588 24.3192 38.6624 25.4286 37.8307 26.4443C37.2869 27.1162 36.839 27.6005 36.5191 27.8974C36.2792 28.1318 36.2152 28.4912 36.3431 28.7725C36.3751 28.8037 36.3911 28.8506 36.4231 28.8975C36.855 29.5381 37.5428 30.6163 37.8467 31.3663Z" fill="#FFD475" fill-opacity="0.565"/>
<path d="M34.1198 33.9445C32.3779 34.418 30.297 34.5383 28.4895 34.5383C28.0257 34.5383 27.6738 34.2414 27.6258 33.8039C27.5298 32.9757 27.4338 32.132 27.3219 31.3038C27.2936 31.091 27.1853 30.896 27.018 30.7569C26.7636 30.571 19.7258 27.8896 18.8764 22.2254C18.3326 18.7799 19.3291 15.6861 22.5073 14.3032L22.4913 14.3329C23.1697 14.0302 23.8933 13.8356 24.6347 13.7563C21.8083 14.7407 19.8841 17.4533 20.6199 21.8504C21.3877 26.788 26.97 29.5694 28.6175 30.2725C28.8894 30.3975 29.0813 30.6319 29.1133 30.9288C29.2253 31.7726 29.3373 32.6007 29.4332 33.4445C29.4812 33.882 29.8491 34.1789 30.297 34.1789C30.8568 34.1633 31.4166 34.1633 31.9765 34.1633C32.0085 34.1633 32.0245 34.1633 32.0564 34.1477C32.2692 34.1477 33.4768 34.0227 34.1198 33.9445Z" fill="#FFB961" fill-opacity="0.565"/>
<path d="M33.9599 23.8239C33.1121 24.2895 31.8437 23.6551 31.1127 22.4097C30.3769 21.1659 30.4281 19.769 31.2503 19.3049C32.0564 18.8393 33.3664 19.4753 34.1358 20.7222C34.8972 21.9691 34.8076 23.3629 33.9599 23.8239Z" fill="#DD8536"/>
<path d="M33.2689 23.9676C34.2046 22.5519 32.5891 19.7987 30.8296 19.7221C30.9263 19.5469 31.0715 19.4017 31.2487 19.3034C32.0548 18.8393 33.3648 19.4753 34.1374 20.7222C35.2523 22.5379 34.4493 24.0707 33.2689 23.9676Z" fill="#F3A250"/>
<path d="M28.2416 25.5161C27.1667 26.0942 25.6008 25.3036 24.7227 23.7504C23.8349 22.1941 23.9229 20.4534 24.9562 19.8722C25.9703 19.2924 27.6018 20.0847 28.5407 21.6425C29.4716 23.2004 29.3165 24.9395 28.2416 25.5161Z" fill="#DD8536"/>
<path d="M28.24 25.5114C28.0321 25.6224 27.7969 25.6895 27.5586 25.702C28.5055 25.0551 28.6063 23.4098 27.7345 21.9144C26.9844 20.6706 25.7959 19.9143 24.8346 19.9612C24.8762 19.9253 24.9178 19.9034 24.9594 19.8753C25.9703 19.2924 27.6066 20.0847 28.5391 21.641C29.4732 23.1957 29.3181 24.9411 28.24 25.5114ZM31.9253 26.888L30.7496 27.4037C30.7209 27.4174 30.6887 27.4229 30.6568 27.4194C30.625 27.4158 30.5949 27.4035 30.57 27.3838C30.5451 27.3641 30.5265 27.3378 30.5164 27.3081C30.5063 27.2784 30.5051 27.2465 30.5129 27.2162C30.6649 26.5771 30.8072 25.938 30.9448 25.2989C30.9768 25.1427 31.1927 25.1114 31.2679 25.252C31.5206 25.7192 31.7685 26.1864 32.0133 26.6521C32.0239 26.673 32.0301 26.6958 32.0314 26.7192C32.0327 26.7425 32.0291 26.7658 32.0209 26.7878C32.0127 26.8097 31.9999 26.8298 31.9835 26.8467C31.9671 26.8637 31.9473 26.8788 31.9253 26.888ZM33.7247 26.5943L32.9954 26.5927C32.9259 26.592 32.8582 26.5718 32.8003 26.5343C32.7424 26.4969 32.6968 26.4439 32.6691 26.3818C32.5011 26.0036 32.3316 25.6239 32.1572 25.2427C32.1108 25.1395 32.2436 25.0411 32.3316 25.1192C32.8242 25.5489 33.3153 25.9802 33.8031 26.4099C33.8751 26.4755 33.8255 26.5958 33.7247 26.5943Z" fill="#F3A250"/>
<path d="M37.8387 26.4427C37.2805 27.1224 36.8374 27.5974 36.5271 27.9052C36.412 28.0148 36.3331 28.1555 36.3006 28.3092C36.2681 28.4629 36.2835 28.6227 36.3447 28.7678C35.8489 27.8771 34.6876 26.7474 36.0824 26.1411C38.077 25.2567 36.887 23.8051 36.8854 23.8051C36.8934 23.8051 36.8934 23.8129 36.9014 23.8145C37.5556 24.3254 38.6704 25.4255 37.8387 26.4427Z" fill="#FFB961"/>
<path d="M36.807 32.9132C36.767 32.9757 36.6631 33.0382 36.4711 33.1007L35.4954 30.835L36.807 32.9132ZM35.0315 33.6789C34.91 33.8258 34.7804 33.8492 34.6477 33.8039L34.0878 31.3819L35.0315 33.6789ZM32.4723 34.2727C32.4146 34.3175 32.3458 34.3469 32.2729 34.3579C32.1999 34.3688 32.1253 34.361 32.0564 34.3352L32.1044 31.6632L32.4723 34.2727Z" fill="#DD8536"/>
<path d="M29.7867 8.13581C29.7684 8.08598 29.7652 8.03206 29.7773 7.98047C29.7895 7.92888 29.8165 7.88178 29.8553 7.84476C29.894 7.80774 29.9428 7.78236 29.9959 7.77163C30.0489 7.7609 30.104 7.76528 30.1546 7.78423C32.8898 8.79521 33.1569 8.75302 30.3194 7.42485C30.2702 7.40237 30.2287 7.36657 30.1998 7.3217C30.1709 7.27683 30.1558 7.22479 30.1563 7.17177C30.1568 7.11875 30.1729 7.06699 30.2026 7.02265C30.2324 6.97832 30.2746 6.94328 30.3242 6.9217C36.1512 4.39818 35.8809 4.21692 30.0475 6.26543C29.9964 6.28302 29.9413 6.28602 29.8885 6.27409C29.8358 6.26216 29.7876 6.23579 29.7497 6.19806C29.7117 6.16034 29.6856 6.11284 29.6743 6.06111C29.663 6.00939 29.6671 5.9556 29.686 5.90604C30.748 3.15595 30.6233 3.07938 29.3133 5.75447C29.2895 5.80184 29.2524 5.84163 29.2064 5.86919C29.1603 5.89675 29.1072 5.91095 29.0532 5.91013C28.9992 5.90931 28.9466 5.8935 28.9014 5.86456C28.8563 5.83562 28.8205 5.79473 28.7982 5.74666C27.7921 3.55127 26.8356 1.55589 26.6933 1.61058C26.5557 1.66527 27.2851 3.7544 28.1264 6.01542C28.1447 6.06525 28.148 6.11917 28.1358 6.17076C28.1237 6.22235 28.0966 6.26945 28.0579 6.30647C28.0192 6.34349 27.9704 6.36887 27.9173 6.3796C27.8642 6.39033 27.8091 6.38595 27.7585 6.367C24.8522 5.29196 24.9354 5.48884 27.6018 6.72326C27.651 6.74558 27.6926 6.78126 27.7217 6.82604C27.7508 6.87082 27.766 6.92282 27.7657 6.97583C27.7654 7.02885 27.7494 7.08066 27.7198 7.12508C27.6902 7.16951 27.6481 7.20467 27.5986 7.2264C25.3513 8.20144 23.3055 9.13428 23.3615 9.26866C23.4191 9.40773 25.5576 8.69676 27.8737 7.88111C27.9249 7.86311 27.9802 7.85978 28.0332 7.87153C28.0862 7.88327 28.1347 7.9096 28.1729 7.9474C28.2111 7.98519 28.2374 8.03288 28.2487 8.08482C28.26 8.13676 28.2559 8.19078 28.2368 8.2405C27.1587 11.0484 27.3283 11.0406 28.5999 8.39832C28.6232 8.35038 28.66 8.30996 28.7061 8.28181C28.7521 8.25366 28.8054 8.23897 28.8597 8.23946C28.9141 8.23995 28.9671 8.25561 29.0126 8.28459C29.0581 8.31357 29.0942 8.35466 29.1165 8.40301C30.1226 10.5984 31.0871 12.5985 31.2231 12.5438C31.3671 12.4891 30.6297 10.3968 29.7867 8.13737V8.13581Z" fill="white"/>
<path d="M21.1062 21.005C21.1797 22.5426 21.5412 23.7176 20.9206 23.777C20.3064 23.8348 19.7242 22.6285 19.6506 21.0894C19.5786 19.5518 20.1416 18.4362 20.7543 18.3784C21.3749 18.319 21.0342 19.4675 21.1062 21.0034V21.005ZM21.2117 16.2455C21.506 16.3423 21.6308 16.7455 21.4996 17.1392C21.3669 17.5346 21.0278 17.7768 20.7351 17.6799C20.4472 17.5861 20.3192 17.1892 20.452 16.7939C20.5831 16.3986 20.9254 16.1502 21.2117 16.2455Z" fill="white" fill-opacity="0.44"/>
<path d="M3.01402 14.4282L2.39501 13.3063L4.00572 13.9907" fill="#DD8536"/>
</svg>
