<svg width="50" height="50" viewBox="0 0 50 50" fill="none" xmlns="http://www.w3.org/2000/svg">
<path d="M10.2813 2.57302e-05C8.93026 -0.00300004 7.59197 0.260867 6.34323 0.776476C5.09448 1.29208 3.95989 2.04928 3.00458 3.00458C2.04928 3.95989 1.29208 5.09448 0.776476 6.34323C0.260867 7.59197 -0.00300004 8.93026 2.57302e-05 10.2813V39.7187C-0.00300004 41.0697 0.260867 42.408 0.776476 43.6568C1.29208 44.9055 2.04928 46.0401 3.00458 46.9954C3.95989 47.9507 5.09448 48.7079 6.34323 49.2235C7.59197 49.7391 8.93026 50.003 10.2813 50H39.7187C41.0697 50.003 42.408 49.7391 43.6568 49.2235C44.9055 48.7079 46.0401 47.9507 46.9954 46.9954C47.9507 46.0401 48.7079 44.9055 49.2235 43.6568C49.7391 42.408 50.003 41.0697 50 39.7187V10.2813C50.003 8.93026 49.7391 7.59197 49.2235 6.34323C48.7079 5.09448 47.9507 3.95989 46.9954 3.00458C46.0401 2.04928 44.9055 1.29208 43.6568 0.776476C42.408 0.260867 41.0697 -0.00300004 39.7187 2.57302e-05H10.2813ZM26.5521 9.47297C31.0958 9.47297 35.0062 10.8813 37.8 13.3209C39.1922 14.5248 40.3071 16.016 41.0681 17.6919C41.829 19.3678 42.218 21.1886 42.2083 23.0292C42.2187 26.8916 40.375 30.2708 37.5062 32.5354C34.6416 34.8104 30.7875 36.0708 26.5521 36.0708C21.7313 36.0708 17.2604 34.3166 17.2604 34.3166V39.9791C18.0876 40.2208 19.4438 40.7395 18.5834 41.602H12.0625C11.2084 40.7479 12.4584 40.2479 13.4042 39.9791V15.9709C11.2105 17.6584 10.0855 19.1167 9.51252 20.2021C10.1792 22.3271 8.92087 22.2209 8.92087 22.2209L6.65002 18.6167C6.65002 18.6167 14.7084 9.47087 26.5521 9.47087V9.47297ZM26.1562 11.4959C23.1917 11.4896 19.523 12.4813 17.2604 14.0875V32.1C19.3188 33.1146 22.4354 33.8333 26.1354 33.8333H26.1562C29.4812 33.8333 32.3646 32.5979 34.3437 30.6396C36.327 28.6646 37.4395 26.0916 37.452 22.9667C37.4416 19.7584 36.402 17 34.4937 14.925C32.5812 12.8584 29.7562 11.498 26.1562 11.4959Z" fill="#0096FA"/>
</svg>
