<svg width="50" height="50" viewBox="0 0 50 50" fill="none" xmlns="http://www.w3.org/2000/svg">
<path d="M20.6849 43.9926C14.8236 43.9905 8.96124 44.0179 3.09995 43.9788C0.127137 43.9588 -0.413281 43.2392 0.256254 40.2542C2.52413 30.1317 4.86594 20.0272 7.08384 9.89305C7.6784 7.1754 8.96124 5.97401 11.7977 6.00043C23.5202 6.11243 35.2439 6.03635 46.9675 6.04903C49.908 6.0522 50.4016 6.6978 49.7414 9.75886C47.5985 19.6975 45.442 29.633 43.2481 39.559C42.4265 43.2741 41.481 43.9831 37.6742 43.9915C32.0107 44.0031 26.3473 43.9947 20.6849 43.9926Z" fill="#0277BD"/>
<path d="M26.1099 24.9373C25.4768 24.2114 24.9499 23.5986 24.5157 23.1072C21.9854 20.2248 19.6675 17.5388 17.1612 14.7926C16.0137 13.5363 15.6483 12.3159 17.0259 11.0754C18.3868 9.84972 19.7248 9.9575 20.9733 11.3681C24.4511 15.2956 27.9248 19.2273 31.4599 23.1009C32.7802 24.5474 32.472 25.5312 31.0184 26.6036C25.4382 30.7192 19.8904 34.8802 14.3477 39.0486C13.1024 39.9858 11.9143 40.2204 10.9074 38.8362C9.79738 37.3094 10.8241 36.4007 11.9757 35.5459C16.0939 32.4891 20.2048 29.4196 24.2981 26.3268C24.8687 25.8967 25.6288 25.3019 26.1099 24.9373ZM22.6664 38.7559C21.495 38.7559 20.8442 37.6993 20.8442 36.6427C20.8442 35.586 21.495 34.5294 22.6664 34.5294C27.0647 34.5294 29.0306 34.5294 32.5584 34.5294C33.7298 34.5294 34.3806 35.586 34.3806 36.6427C34.3806 37.6993 33.7298 38.7559 32.5584 38.7559C30.3457 38.7559 26.0505 38.7559 22.6664 38.7559Z" fill="#FAFAFA"/>
</svg>
