<svg width="50" height="50" viewBox="0 0 50 50" fill="none" xmlns="http://www.w3.org/2000/svg">
<path d="M46.875 14.2667H3.125C1.39922 14.2667 0 15.6398 0 17.3333V37.2667C0 38.9602 1.39922 40.3333 3.125 40.3333H46.875C48.6008 40.3333 50 38.9602 50 37.2667V17.3333C50 15.6398 48.6008 14.2667 46.875 14.2667Z" fill="#576D7E"/>
<path d="M3.125 14.2667H46.0938C46.0938 15.1138 45.3945 15.8 44.5312 15.8H4.6875C3.82422 15.8 3.125 15.1138 3.125 14.2667Z" fill="#748B9E"/>
<path d="M7.03125 20.4C7.46272 20.4 7.8125 20.0568 7.8125 19.6333C7.8125 19.2099 7.46272 18.8667 7.03125 18.8667C6.59978 18.8667 6.25 19.2099 6.25 19.6333C6.25 20.0568 6.59978 20.4 7.03125 20.4Z" fill="#84BD5A"/>
<path d="M3.90625 20.4C4.33772 20.4 4.6875 20.0568 4.6875 19.6333C4.6875 19.2099 4.33772 18.8667 3.90625 18.8667C3.47478 18.8667 3.125 19.2099 3.125 19.6333C3.125 20.0568 3.47478 20.4 3.90625 20.4Z" fill="#84BD5A"/>
<path d="M7.8125 27.3H42.1875C42.6187 27.3 42.9688 27.6435 42.9688 28.0667V30.3667C42.9688 30.7899 42.6187 31.1333 42.1875 31.1333H7.8125C7.38125 31.1333 7.03125 30.7899 7.03125 30.3667V28.0667C7.03125 27.6435 7.38125 27.3 7.8125 27.3Z" fill="#123247"/>
<path d="M42.9688 14.2667H7.03125L8.34375 7.83433C8.49141 7.106 9.14922 6.58543 9.90625 6.6H40.125C40.882 6.58543 41.5398 7.106 41.6875 7.83433L42.9688 14.2667Z" fill="#35495C"/>
<path d="M39.8438 3.53333C39.8438 2.68617 39.1445 2 38.2812 2H11.7188C10.8555 2 10.1562 2.68617 10.1562 3.53333V14.2667H39.8438V3.53333Z" fill="#E2E7F0"/>
<path d="M39.8438 5.06667V14.2667H38.2812V6.6C38.2812 5.75283 38.9805 5.06667 39.8438 5.06667Z" fill="#C9D5E3"/>
<path d="M8.59375 31.1333H10.1562V32.6667C9.29297 32.6667 8.59375 31.9805 8.59375 31.1333ZM10.1562 38.8H4.6875C3.82422 38.8 3.125 39.4862 3.125 40.3333H10.1562V38.8ZM48.4375 18.8667V37.2667C48.4375 38.1138 47.7383 38.8 46.875 38.8H42.1875C41.7563 38.8 41.4062 38.4565 41.4062 38.0333V31.1333H39.8438V40.3333H46.875C48.6008 40.3333 50 38.9602 50 37.2667V17.3333C49.1367 17.3333 48.4375 18.0195 48.4375 18.8667Z" fill="#3F556B"/>
<path d="M10.1562 46.4667C10.1562 47.3138 10.8555 48 11.7188 48H38.2812C39.1445 48 39.8438 47.3138 39.8438 46.4667V31.1333H10.1562V46.4667Z" fill="#E2E7F0"/>
<path d="M14.0625 34.9667H35.9375C36.3687 34.9667 36.7188 35.3101 36.7188 35.7333C36.7188 36.1565 36.3687 36.5 35.9375 36.5H14.0625C13.6313 36.5 13.2812 36.1565 13.2812 35.7333C13.2812 35.3101 13.6313 34.9667 14.0625 34.9667ZM14.0625 42.6333H26.5625C26.9937 42.6333 27.3438 42.9768 27.3438 43.4C27.3438 43.8232 26.9937 44.1667 26.5625 44.1667H14.0625C13.6313 44.1667 13.2812 43.8232 13.2812 43.4C13.2812 42.9768 13.6313 42.6333 14.0625 42.6333ZM14.0625 38.8H35.9375C36.3687 38.8 36.7188 39.1435 36.7188 39.5667C36.7188 39.9899 36.3687 40.3333 35.9375 40.3333H14.0625C13.6313 40.3333 13.2812 39.9899 13.2812 39.5667C13.2812 39.1435 13.6313 38.8 14.0625 38.8Z" fill="#9DACBA"/>
<path d="M39.0625 31.1333H10.1562C10.1562 31.9805 10.8555 32.6667 11.7188 32.6667H37.5C37.9312 32.6667 38.2812 33.0101 38.2812 33.4333V45.7C38.2812 46.1232 37.9312 46.4667 37.5 46.4667H13.2812C12.418 46.4667 11.7188 47.1528 11.7188 48H38.2812C39.1445 48 39.8438 47.3138 39.8438 46.4667V31.1333H39.0625Z" fill="#C9D5E3"/>
<path d="M10.1562 18.8667H14.8438C15.275 18.8667 15.625 19.2101 15.625 19.6333C15.625 20.0565 15.275 20.4 14.8438 20.4H10.1562C9.725 20.4 9.375 20.0565 9.375 19.6333C9.375 19.2101 9.725 18.8667 10.1562 18.8667Z" fill="#35495C"/>
</svg>
