<svg width="50" height="50" viewBox="0 0 50 50" fill="none" xmlns="http://www.w3.org/2000/svg">
<path d="M28.3982 14.3029C28.3982 14.3029 27.6492 14.6412 26.9172 14.8437C26.4744 14.9666 26.039 15.0388 25.7776 14.9569C25.084 14.7392 26.4306 3.259 21.5745 2.60601C21.3099 2.57046 21.0549 2.56184 20.8116 2.57908C16.5968 2.86134 15.6333 10.6506 17.4547 15.7283C17.4547 15.7283 16.7409 15.9792 15.501 15.879C15.0592 15.8435 14.5502 15.7627 13.9826 15.6097C13.9826 15.6097 9.43699 0.383426 21.2288 0.0041967C22.3791 -0.0324334 23.3533 0.172264 24.176 0.557958C29.8067 3.19845 28.3982 14.3029 28.3982 14.3029Z" fill="#3E3E7A"/>
<path d="M24.176 0.557958C23.0054 0.381271 21.2085 0.35326 19.3508 1.27117C16.9777 2.44549 15.9416 4.45368 15.6461 5.04945C14.6228 7.1072 14.7423 9.00217 14.9194 11.798C15.0219 13.4227 15.2619 14.8081 15.501 15.879C15.0592 15.8435 14.5502 15.7627 13.9826 15.6097C13.9826 15.6097 9.43699 0.383426 21.2288 0.0041967C22.3791 -0.0324334 23.3533 0.172264 24.176 0.557958Z" fill="#2C2C61"/>
<path d="M26.9172 14.8436C26.4743 14.9665 26.039 15.0387 25.7776 14.9568C25.084 14.7391 26.4306 3.25889 21.5745 2.6059C21.3099 2.57035 21.0549 2.56173 20.8116 2.57897C21.4305 2.39905 22.2041 2.31189 23.0203 2.55527C24.3926 2.96466 25.0904 4.07542 25.5631 4.82849C26.565 6.42739 26.6856 7.97976 26.8702 10.8067C26.9353 11.7947 26.9855 13.176 26.9172 14.8436Z" fill="#2C2C61"/>
<path d="M43.2311 8.93968C43.2311 8.93968 37.3986 10.6985 34.3684 7.33313C34.3684 7.33313 27.5506 10.5456 10.6576 11.2339V13.605L15.5058 16.9704L31.414 17.5058L41.3377 12.0753L43.2311 8.93968Z" fill="#FF6B7D"/>
<path d="M20.7326 17.3528C20.7326 17.3528 18.0811 49.7834 14.7487 49.7834C13.3423 49.7834 10.9522 48.2998 8.61858 46.4178C5.42067 43.8387 3.4744 40.2609 3.16816 38.9788C2.63784 36.7616 11.091 14.2707 11.091 14.2707C11.6853 15.3782 12.0598 12.9961 12.8974 13.371C14.8383 14.2394 16.9447 13.6047 16.9447 13.6047L20.7326 17.3528Z" fill="#FF8293"/>
<path d="M10.3877 28.1404C9.62159 30.5925 5.85175 37.1082 5.91577 38.7858C5.95845 39.917 7.57394 43.9291 8.61857 46.4178C5.42067 43.8387 2.3284 40.5096 2.02216 39.2275C1.49184 37.0103 10.6577 11.2335 10.6577 11.2335C11.9772 11.5407 12.6855 12.3293 12.8974 13.371C12.6114 15.3673 11.0813 25.9232 10.3877 28.1404Z" fill="#FF6B7D"/>
<path d="M46.0412 41.0432C44.6018 44.9443 24.0531 49.7625 19.2056 48.4621C18.2058 48.1938 13.2538 47.8171 13.1001 45.2897C12.5079 35.573 16.9446 13.6045 16.9446 13.6045C31.2621 16.6642 43.2311 8.93957 43.2311 8.93957C43.2311 8.93957 45.0952 18.1337 46.4919 26.938C47.5985 33.9107 46.6772 39.3194 46.0412 41.0432Z" fill="#FF9FB3"/>
<path d="M47.7767 42.3637C46.3372 46.2648 19.5962 51.0838 14.7487 49.7834C13.7489 49.5152 11.7229 47.5106 13.1001 45.2898C14.4713 45.7067 16.234 46.1549 18.287 46.463C26.0358 47.6277 39.1433 47.0017 43.2482 39.7295C44.0602 38.2913 44.4881 36.5482 45.3449 33.0608C45.9104 30.7542 46.2647 28.6771 46.4919 26.9382C47.5985 33.9107 48.4126 40.6399 47.7767 42.3637Z" fill="#FF8293"/>
<path d="M36.9836 16.3153C36.9836 16.3153 36.274 16.6589 35.5676 16.8734C35.1205 17.0092 34.6735 17.0932 34.4088 17.0038C33.727 16.7743 35.0501 4.67777 30.2783 3.98923C25.5055 3.3008 24.336 12.1568 26.23 17.8172C26.23 17.8172 25.5599 18.0704 24.3915 17.982C23.938 17.9485 23.4109 17.8634 22.8176 17.6922C22.8176 17.6922 18.351 1.64716 29.939 1.24747C30.1311 1.24089 30.3178 1.24197 30.5003 1.24962C38.7239 1.60073 36.9836 16.3153 36.9836 16.3153Z" fill="#51518E"/>
<path d="M30.5003 1.24962C28.9616 1.58899 26.8926 2.37869 25.3988 4.24252C23.5613 6.53513 23.5539 9.25869 23.5464 12.0544C23.54 14.486 23.9636 16.519 24.3915 17.9821C23.938 17.9486 23.4109 17.8635 22.8176 17.6923C22.8176 17.6923 18.351 1.64727 29.939 1.24757C30.1311 1.24089 30.3178 1.24197 30.5003 1.24962Z" fill="#3E3E7A"/>
<path d="M35.5676 16.8734C35.1205 17.0092 34.6735 17.0932 34.4088 17.0038C33.727 16.7743 35.0501 4.67777 30.2783 3.98923C30.2783 3.98923 32.7548 3.83872 34.5529 6.33248C35.9584 8.28185 35.8941 13.6123 35.5676 16.8734Z" fill="#3E3E7A"/>
<path d="M30.8292 32.9962C30.8292 32.9962 30.4737 19.9801 34.9705 21.0961C39.4673 22.2122 41.9312 27.8438 40.472 30.3827C39.013 32.9216 30.8292 32.9962 30.8292 32.9962Z" fill="#51518E"/>
<path d="M31.4679 33.1216C31.4679 33.1216 35.7267 22.4549 31.1328 21.025C26.5389 19.5952 21.6263 24.5635 22.5293 27.0084C23.4322 29.4534 31.4679 33.1216 31.4679 33.1216Z" fill="#3E3E7A"/>
<path d="M31.5403 32.3471C31.5403 32.3471 23.0847 25.1546 20.7917 29.3363C18.4988 33.5179 20.1315 38.3423 22.65 38.7862C25.1685 39.2301 31.5403 32.3471 31.5403 32.3471Z" fill="#2C2C61"/>
<path d="M31.22 32.5246C31.22 32.5246 22.0865 36.7067 23.316 39.7478C24.5456 42.7888 32.5553 45.0067 33.7903 41.6789C35.0253 38.3512 31.22 32.5246 31.22 32.5246Z" fill="#51518E"/>
<path d="M31.2239 32.5231C31.2239 32.5231 39.4131 29.3516 41.366 32.431C43.3189 35.5104 37.6831 42.0124 35.4935 41.4786C33.3039 40.945 31.1673 33.5714 31.2239 32.5231Z" fill="#3E3E7A"/>
<path d="M34.3469 33.1124C33.5819 35.3749 30.5184 36.4447 28.7098 35.2046C27.6705 34.4926 27.233 33.1469 27.3365 31.8508C27.3781 31.3283 27.5072 30.8144 27.7206 30.3534C28.3129 29.068 29.7096 27.855 31.2611 28.0004C31.4083 28.0144 31.5545 28.0402 31.6975 28.078C33.6128 28.5702 35.0491 31.0385 34.3469 33.1124Z" fill="#F6D14F"/>
<path d="M32.9459 31.4738C32.5383 32.897 31.1277 33.859 29.6488 33.6468C28.5615 33.4918 27.7324 32.744 27.3365 31.8508C27.3781 31.3283 27.5072 30.8144 27.7206 30.3534C28.3129 29.068 29.7096 27.855 31.2611 28.0004C31.4083 28.0144 31.5545 28.0402 31.6975 28.078C32.7261 28.7135 33.3301 30.1323 32.9459 31.4738Z" fill="#FFE262"/>
</svg>
