<svg width="50" height="50" viewBox="0 0 50 50" fill="none" xmlns="http://www.w3.org/2000/svg">
<path d="M23.7743 49.9653C23.6843 49.9653 23.5965 49.9372 23.5235 49.8851C23.4505 49.8329 23.3959 49.7593 23.3674 49.6746C23.3389 49.59 23.3381 49.4986 23.3649 49.4134C23.3917 49.3283 23.4449 49.2536 23.517 49.2001L24.7659 48.2555L22.6214 49.4807C22.5311 49.5316 22.4252 49.5484 22.3233 49.5277C22.2215 49.5071 22.1307 49.4506 22.0678 49.3686C22.0049 49.2866 21.9741 49.1847 21.9813 49.0819C21.9885 48.9792 22.033 48.8825 22.1067 48.8098L24.3473 46.6273L21.0593 48.5123C20.9681 48.5614 20.8619 48.576 20.7606 48.5535C20.6593 48.5309 20.5696 48.4727 20.5083 48.3896C20.447 48.3066 20.4182 48.2042 20.4273 48.1017C20.4363 47.9992 20.4826 47.9034 20.5575 47.8321L21.5071 46.9818L20.2615 47.6943C20.1737 47.7444 20.0707 47.762 19.971 47.744C19.8713 47.7261 19.7812 47.6737 19.7167 47.5961C19.6523 47.5186 19.6176 47.4209 19.6189 47.3204C19.6202 47.22 19.6573 47.1232 19.7237 47.0473L20.4305 46.2413L19.6216 46.7047C19.5557 46.7431 19.4806 46.7634 19.4042 46.7634C19.3277 46.7634 19.2526 46.7431 19.1867 46.7047C19.1213 46.6659 19.0676 46.6106 19.0309 46.5444C18.9943 46.4782 18.9761 46.4035 18.9783 46.328L19.01 45.2814C18.9172 45.2775 18.8281 45.2438 18.7563 45.1854C18.6844 45.127 18.6336 45.047 18.6116 44.9576C18.5895 44.8681 18.5974 44.7739 18.6339 44.6893C18.6705 44.6046 18.7339 44.534 18.8144 44.4881L19.2433 44.2424C19.3095 44.2045 19.3846 44.1848 19.461 44.1853C19.5374 44.1859 19.6123 44.2066 19.6779 44.2455C19.7435 44.2843 19.7975 44.3398 19.8342 44.4062C19.8709 44.4727 19.889 44.5476 19.8867 44.6233L19.8584 45.5866L22.2251 44.2322C22.313 44.1821 22.4159 44.1645 22.5156 44.1825C22.6153 44.2005 22.7054 44.2529 22.7699 44.3304C22.8343 44.408 22.869 44.5056 22.8677 44.6061C22.8665 44.7065 22.8293 44.8033 22.7629 44.8792L22.0552 45.6852L24.6038 44.2271C24.6951 44.178 24.8012 44.1633 24.9025 44.1858C25.0038 44.2084 25.0935 44.2666 25.1548 44.3497C25.2161 44.4328 25.2449 44.5351 25.2358 44.6376C25.2268 44.7402 25.1805 44.836 25.1056 44.9073L24.1569 45.7575L26.8418 44.2211C26.9322 44.1702 27.0381 44.1534 27.1399 44.1741C27.2417 44.1947 27.3325 44.2513 27.3955 44.3332C27.4584 44.4152 27.4891 44.5171 27.4819 44.6199C27.4748 44.7226 27.4302 44.8193 27.3565 44.892L25.1151 47.0754L30.1144 44.2143C30.2087 44.1603 30.3203 44.1439 30.4264 44.1685C30.5325 44.193 30.6252 44.2566 30.6857 44.3464C30.7462 44.4363 30.7699 44.5455 30.7521 44.6521C30.7342 44.7586 30.6761 44.8544 30.5896 44.92L29.3407 45.8655L30.7732 45.0459C30.8646 44.9933 30.9723 44.976 31.0757 44.9972C31.1792 45.0185 31.2711 45.0769 31.3338 45.1612C31.3965 45.2454 31.4256 45.3497 31.4156 45.4539C31.4055 45.5582 31.357 45.6551 31.2793 45.726L29.5637 47.3075C29.6473 47.2979 29.7319 47.3125 29.8073 47.3497C29.8827 47.3868 29.9455 47.4448 29.9883 47.5166C30.0452 47.6143 30.0606 47.7303 30.0312 47.8392C30.0017 47.9481 29.9298 48.041 29.8313 48.0973L26.8058 49.8284C26.7145 49.881 26.6067 49.8983 26.5033 49.877C26.3998 49.8558 26.3079 49.7974 26.2452 49.7131C26.1825 49.6288 26.1534 49.5246 26.1635 49.4203C26.1735 49.3161 26.222 49.2192 26.2997 49.1482L27.909 47.6688L23.9948 49.9075C23.928 49.9465 23.8517 49.9665 23.7743 49.9653Z" fill="#B1CDDD"/>
<path d="M19.0323 36.5044C18.9402 36.5043 18.8506 36.4747 18.7767 36.4202C18.7029 36.3656 18.6487 36.2889 18.6222 36.2014C18.5958 36.114 18.5984 36.0204 18.6298 35.9346C18.6612 35.8487 18.7196 35.7752 18.7964 35.7248L22.5854 33.2481L18.3829 35.6542C18.2866 35.7096 18.1723 35.7256 18.0643 35.6989C17.9562 35.6723 17.8629 35.605 17.804 35.5114C17.745 35.4178 17.7251 35.3051 17.7485 35.1972C17.7719 35.0893 17.8366 34.9946 17.9292 34.9332L26.8967 28.9374L18.2774 33.8687C18.1814 33.9202 18.0692 33.9334 17.9636 33.9057C17.8581 33.878 17.7672 33.8115 17.7094 33.7197C17.6517 33.6278 17.6314 33.5176 17.6528 33.4115C17.6742 33.3054 17.7356 33.2114 17.8245 33.1486L27.8807 26.4598L17.9798 32.1258C17.883 32.1816 17.768 32.1976 17.6594 32.1705C17.5508 32.1434 17.4572 32.0753 17.3986 31.9807C17.34 31.8861 17.3211 31.7725 17.3459 31.6643C17.3706 31.556 17.4371 31.4617 17.5311 31.4014L25.3947 26.3331L17.6281 30.7807C17.5307 30.8364 17.4151 30.8519 17.3063 30.824C17.1975 30.796 17.1041 30.7269 17.0462 30.6314C16.9883 30.5359 16.9705 30.4217 16.9967 30.3133C17.0229 30.205 17.091 30.1112 17.1863 30.052L18.5717 29.1925L17.3192 29.9084C17.2227 29.9611 17.1094 29.9749 17.0028 29.947C16.8963 29.9191 16.8046 29.8516 16.7469 29.7586C16.6892 29.6655 16.6699 29.554 16.6929 29.4472C16.7159 29.3403 16.7796 29.2464 16.8706 29.1848L26.123 23.2026L16.7548 28.5607C16.658 28.6128 16.5446 28.6259 16.4383 28.5973C16.332 28.5688 16.2408 28.5008 16.1837 28.4075C16.1266 28.3141 16.1079 28.2026 16.1315 28.0959C16.1551 27.9893 16.2192 27.8957 16.3105 27.8346L21.6847 24.4592L16.2487 27.5694C16.1524 27.6207 16.04 27.6338 15.9344 27.6057C15.8288 27.5777 15.738 27.5108 15.6805 27.4187C15.623 27.3265 15.6032 27.2161 15.6251 27.1099C15.647 27.0038 15.709 26.9099 15.7983 26.8475L27.1875 19.3868L15.3789 26.1435C15.2821 26.1942 15.1695 26.2063 15.064 26.1774C14.9586 26.1484 14.8683 26.0806 14.8116 25.9878C14.7549 25.895 14.7362 25.7843 14.7592 25.6783C14.7822 25.5722 14.8452 25.4789 14.9354 25.4174L21.5457 21.2564L14.6695 25.1913C14.5722 25.2444 14.458 25.258 14.3508 25.2293C14.2436 25.2007 14.1518 25.1319 14.0947 25.0376C14.0376 24.9432 14.0196 24.8306 14.0446 24.7233C14.0696 24.6161 14.1355 24.5227 14.2285 24.4626L16.5446 23.0342L14.0638 24.4533C13.9669 24.5046 13.8538 24.5171 13.7479 24.4882C13.6419 24.4593 13.5512 24.3913 13.4945 24.298C13.4377 24.2048 13.4192 24.0935 13.4428 23.9871C13.4663 23.8807 13.5302 23.7874 13.6212 23.7263L19.36 20.1401L13.3716 23.5665C13.2746 23.6202 13.1605 23.6345 13.0531 23.6065C12.9457 23.5785 12.8535 23.5103 12.7958 23.4162C12.7381 23.3221 12.7195 23.2096 12.7438 23.1022C12.7682 22.9948 12.8336 22.9009 12.9264 22.8404L20.6381 17.9762L12.6845 22.5284C12.5871 22.584 12.4716 22.5996 12.3627 22.5716C12.2539 22.5437 12.1605 22.4746 12.1026 22.379C12.0447 22.2835 12.0269 22.1693 12.0531 22.061C12.0793 21.9526 12.1474 21.8588 12.2427 21.7997L15.4629 19.8093L12.2135 21.6688C12.1168 21.7262 12.0011 21.7436 11.8915 21.7171C11.782 21.6906 11.6873 21.6224 11.6281 21.5273C11.5689 21.4321 11.5499 21.3177 11.5752 21.2088C11.6004 21.0998 11.668 21.0052 11.7632 20.9452L23.2579 13.4811L11.5564 20.1732C11.4597 20.2306 11.344 20.248 11.2345 20.2215C11.1249 20.195 11.0303 20.1268 10.9711 20.0317C10.9118 19.9366 10.8928 19.8222 10.9181 19.7132C10.9434 19.6043 11.0109 19.5096 11.1061 19.4497L22.5828 11.9566L11.0623 18.5493C10.9653 18.6057 10.8498 18.622 10.7407 18.5947C10.6316 18.5675 10.5377 18.4988 10.4791 18.4036C10.4206 18.3084 10.4022 18.1941 10.4279 18.0856C10.4535 17.977 10.5212 17.8828 10.6163 17.8232L18.5777 12.7516L10.8067 17.1974C10.7098 17.2521 10.5953 17.2672 10.4874 17.2396C10.3795 17.212 10.2866 17.1438 10.2285 17.0495C10.1704 16.9553 10.1516 16.8423 10.1761 16.7345C10.2006 16.6267 10.2665 16.5326 10.3598 16.4722L18.2517 11.4116L10.6789 15.7478C10.5821 15.8036 10.4671 15.8196 10.3585 15.7925C10.2499 15.7654 10.1563 15.6973 10.0978 15.6027C10.0392 15.5081 10.0202 15.3945 10.045 15.2863C10.0698 15.178 10.1362 15.0837 10.2303 15.0234L17.6486 10.2391L10.7003 14.2165C10.6042 14.2685 10.4915 14.2821 10.3856 14.2545C10.2796 14.2268 10.1884 14.16 10.1305 14.0678C10.0727 13.9755 10.0527 13.8648 10.0746 13.7584C10.0965 13.652 10.1586 13.5579 10.2483 13.4955L18.2045 8.24874L10.9371 12.4047C10.8405 12.4591 10.7263 12.4743 10.6186 12.4469C10.5109 12.4195 10.4182 12.3518 10.3599 12.258C10.3016 12.1642 10.2824 12.0516 10.3062 11.944C10.33 11.8364 10.3951 11.7421 10.4876 11.6811L14.7003 8.95698L11.3214 10.8904C11.2249 10.9431 11.1116 10.9569 11.005 10.9291C10.8984 10.9012 10.8068 10.8337 10.7491 10.7406C10.6914 10.6475 10.672 10.536 10.6951 10.4292C10.7181 10.3224 10.7817 10.2284 10.8728 10.1669L12.9144 8.84985L11.8764 9.44501C11.7807 9.5004 11.6672 9.51695 11.5595 9.49119C11.4518 9.46543 11.3583 9.39936 11.2987 9.30683C11.239 9.21429 11.2178 9.10247 11.2395 8.99478C11.2611 8.88709 11.324 8.79189 11.4149 8.72912L16.0076 5.5246L13.1674 7.14599C13.0734 7.19888 12.9627 7.21465 12.8575 7.19014C12.7523 7.16562 12.6603 7.10264 12.5999 7.01378C12.5395 6.92492 12.5152 6.81674 12.5319 6.71089C12.5485 6.60503 12.6048 6.5093 12.6896 6.44285L15.6268 4.17443C15.5443 4.15342 15.47 4.10855 15.4133 4.04553C15.3567 3.98251 15.3202 3.9042 15.3086 3.82057C15.297 3.73695 15.3108 3.65179 15.3482 3.57596C15.3856 3.50013 15.445 3.43706 15.5187 3.39477L19.8584 0.909549C19.9524 0.855578 20.0636 0.838993 20.1695 0.863144C20.2754 0.887294 20.3681 0.950381 20.4289 1.03966C20.4896 1.12894 20.514 1.23775 20.4969 1.34411C20.4799 1.45048 20.4227 1.54647 20.337 1.61269L18.1007 3.34546L23.8335 0.0618694C23.929 0.00870923 24.0413 -0.00624465 24.1476 0.0200727C24.2538 0.0463901 24.3459 0.111985 24.4049 0.203414C24.4639 0.294843 24.4854 0.40518 24.4649 0.51181C24.4445 0.618441 24.3837 0.713288 24.295 0.776913L19.7031 3.98143L26.4395 0.127337C26.536 0.0760202 26.6486 0.0632063 26.7543 0.0915204C26.86 0.119835 26.9507 0.187133 27.008 0.279629C27.0652 0.372125 27.0846 0.482815 27.0622 0.589023C27.0397 0.695231 26.9772 0.788915 26.8873 0.850883L24.8543 2.16194L27.9536 0.389208C28.0504 0.33341 28.1654 0.317352 28.274 0.344464C28.3825 0.371577 28.4761 0.439709 28.5347 0.534304C28.5933 0.628898 28.6122 0.742451 28.5875 0.850698C28.5627 0.958946 28.4962 1.0533 28.4022 1.1136L24.1723 3.8471L29.4659 0.819425C29.5624 0.76261 29.6775 0.745552 29.7866 0.771911C29.8956 0.79827 29.9899 0.865945 30.0492 0.960414C30.1084 1.05488 30.128 1.16862 30.1036 1.27721C30.0793 1.38581 30.0129 1.48061 29.9188 1.54127L21.9643 6.78719L31.1609 1.52427C31.2576 1.47071 31.3715 1.45632 31.4787 1.4841C31.5858 1.51188 31.678 1.57967 31.7359 1.67329C31.7937 1.76691 31.8128 1.87909 31.7891 1.98634C31.7654 2.09359 31.7008 2.18759 31.6087 2.24866L24.1921 7.03121L32.5069 2.26992C32.6039 2.21106 32.7205 2.19282 32.8311 2.21921C32.9417 2.2456 33.0372 2.31446 33.0966 2.41063C33.156 2.5068 33.1744 2.62242 33.1478 2.73204C33.1211 2.84166 33.0517 2.93631 32.9546 2.99516L25.0627 8.05574L33.7121 3.1091C33.809 3.05444 33.9235 3.03931 34.0314 3.06691C34.1393 3.09451 34.2322 3.16268 34.2903 3.25696C34.3484 3.35124 34.3672 3.46424 34.3427 3.57201C34.3182 3.67979 34.2523 3.77388 34.159 3.83434L26.2062 8.90001L34.7603 4.00524C34.8571 3.94781 34.9728 3.93046 35.0823 3.95695C35.1919 3.98343 35.2865 4.05162 35.3457 4.14675C35.4049 4.24188 35.424 4.3563 35.3987 4.46523C35.3734 4.57416 35.3059 4.66885 35.2107 4.72878L23.7288 12.2261L35.9407 5.23892C36.0371 5.18693 36.1499 5.17354 36.256 5.20151C36.362 5.22947 36.4532 5.29666 36.5108 5.38925C36.5684 5.48183 36.588 5.59278 36.5655 5.69925C36.5431 5.80572 36.4803 5.89962 36.3902 5.96162L24.9015 13.4258L36.9289 6.54233C37.026 6.49021 37.1396 6.47719 37.2461 6.506C37.3526 6.5348 37.4438 6.6032 37.5007 6.69696C37.5576 6.79073 37.5759 6.90263 37.5516 7.00939C37.5274 7.11615 37.4626 7.20954 37.3707 7.27012L34.1496 9.26136L37.4522 7.373C37.5493 7.31799 37.6642 7.30276 37.7725 7.33056C37.8808 7.35836 37.9738 7.42699 38.0318 7.52181C38.0898 7.61664 38.1081 7.73015 38.0828 7.83815C38.0575 7.94616 37.9907 8.0401 37.8965 8.09995L30.1822 12.9641L38.0338 8.47235C38.1309 8.41838 38.2455 8.404 38.3532 8.43226C38.4609 8.46051 38.5532 8.52919 38.6107 8.62374C38.6682 8.7183 38.6864 8.83133 38.6613 8.93891C38.6362 9.04648 38.5699 9.14017 38.4764 9.20015L32.7419 12.783L38.4627 9.50878C38.56 9.45312 38.6756 9.43759 38.7844 9.46551C38.8932 9.49343 38.9866 9.56259 39.0445 9.65809C39.1024 9.75359 39.1202 9.8678 39.094 9.97615C39.0678 10.0845 38.9997 10.1783 38.9044 10.2374L36.5789 11.6718L38.7672 10.4202C38.8643 10.3652 38.9793 10.35 39.0875 10.3778C39.1958 10.4056 39.2889 10.4742 39.3468 10.569C39.4048 10.6639 39.4231 10.7774 39.3978 10.8854C39.3725 10.9934 39.3057 11.0873 39.2115 11.1472L32.6115 15.3005L39.0648 11.608C39.1611 11.5566 39.2735 11.5436 39.3791 11.5716C39.4847 11.5996 39.5755 11.6665 39.633 11.7587C39.6905 11.8509 39.7103 11.9613 39.6884 12.0674C39.6665 12.1736 39.6046 12.2675 39.5152 12.3298L28.1243 19.7932L39.305 13.3943C39.4022 13.3393 39.5171 13.3241 39.6254 13.3519C39.7337 13.3797 39.8267 13.4483 39.8847 13.5431C39.9427 13.638 39.9609 13.7515 39.9357 13.8595C39.9104 13.9675 39.8435 14.0614 39.7494 14.1213L34.3717 17.4984L39.3471 14.6544C39.4436 14.6017 39.5569 14.5878 39.6635 14.6157C39.77 14.6436 39.8617 14.7111 39.9194 14.8042C39.9771 14.8972 39.9965 15.0087 39.9734 15.1156C39.9504 15.2224 39.8868 15.3164 39.7957 15.3779L30.5485 21.3576L39.2133 16.3965C39.3103 16.3444 39.4239 16.3314 39.5304 16.3602C39.6369 16.389 39.7281 16.4574 39.7851 16.5511C39.842 16.6449 39.8602 16.7568 39.836 16.8636C39.8118 16.9703 39.747 17.0637 39.655 17.1243L38.2516 17.9941L39.0022 17.569C39.0988 17.5163 39.2121 17.5024 39.3186 17.5303C39.4252 17.5582 39.5168 17.6257 39.5746 17.7188C39.6323 17.8118 39.6516 17.9233 39.6286 18.0302C39.6055 18.137 39.5419 18.2309 39.4509 18.2925L31.5847 23.3624L38.4584 19.4293C38.5546 19.3758 38.668 19.3611 38.7748 19.3883C38.8817 19.4156 38.9739 19.4826 39.0322 19.5754C39.0905 19.6682 39.1105 19.7798 39.088 19.8868C39.0655 19.9939 39.0022 20.0883 38.9113 20.1503L28.8603 26.8322L37.1373 22.0964C37.2334 22.0437 37.3463 22.0295 37.4527 22.0568C37.559 22.0841 37.6507 22.1508 37.7089 22.2431C37.7671 22.3355 37.7874 22.4464 37.7654 22.5531C37.7435 22.6598 37.6811 22.7541 37.5911 22.8166L28.6218 28.8107L34.6746 25.3469C34.7711 25.2914 34.8857 25.2754 34.994 25.3023C35.1022 25.3292 35.1957 25.3969 35.2544 25.4909C35.3131 25.585 35.3326 25.6981 35.3085 25.8061C35.2845 25.9142 35.219 26.0087 35.1258 26.0696L31.3411 28.5429L33.5079 27.3033C33.6038 27.2504 33.7165 27.236 33.8228 27.263C33.9291 27.2899 34.0209 27.3563 34.0794 27.4483C34.1378 27.5403 34.1585 27.651 34.1371 27.7577C34.1157 27.8644 34.0538 27.9588 33.9643 28.0217L30.823 30.1524L32.7256 29.0641C32.8188 29.0124 32.928 28.997 33.032 29.0209C33.136 29.0448 33.2273 29.1063 33.288 29.1933C33.3486 29.2804 33.3744 29.3867 33.3602 29.4916C33.346 29.5965 33.2928 29.6923 33.2111 29.7604L29.1133 33.0857L32.017 31.4243C32.1063 31.3732 32.2112 31.3556 32.3125 31.3748C32.4137 31.394 32.5046 31.4488 32.5685 31.529C32.6323 31.6093 32.6649 31.7096 32.6602 31.8117C32.6555 31.9138 32.6139 32.0108 32.5429 32.0849L30.4953 34.2284L31.6962 33.5422C31.7718 33.4991 31.8588 33.4798 31.9457 33.487C32.0326 33.4941 32.1152 33.5273 32.1826 33.5822C32.2499 33.637 32.2988 33.7109 32.3227 33.794C32.3466 33.8771 32.3444 33.9655 32.3164 34.0473L31.9055 35.2376C31.9954 35.247 32.08 35.2842 32.1473 35.3441C32.2146 35.4039 32.261 35.4833 32.28 35.5709C32.2991 35.6585 32.2897 35.7498 32.2532 35.8318C32.2168 35.9138 32.1551 35.9823 32.0771 36.0275L31.3908 36.4228C31.3153 36.4659 31.2283 36.4852 31.1414 36.4781C31.0545 36.471 30.9719 36.4378 30.9045 36.3829C30.8371 36.3281 30.7882 36.2542 30.7643 36.1711C30.7404 36.088 30.7426 35.9996 30.7706 35.9178L31.1412 34.8456L28.373 36.4288C28.2839 36.4793 28.1794 36.4965 28.0785 36.4771C27.9777 36.4577 27.8872 36.4032 27.8235 36.3233C27.7599 36.2434 27.7272 36.1435 27.7316 36.0418C27.7359 35.9401 27.777 35.8433 27.8472 35.769L29.8982 33.6247L24.9881 36.4347C24.942 36.4671 24.89 36.4902 24.8349 36.5026C24.7798 36.5151 24.7228 36.5166 24.6672 36.5072C24.5547 36.4883 24.4545 36.4258 24.3885 36.3335C24.3225 36.2413 24.2962 36.1269 24.3154 36.0154C24.3345 35.904 24.3975 35.8046 24.4906 35.7392L28.5901 32.414L21.5483 36.4415C21.4521 36.4998 21.3366 36.5181 21.2269 36.4926C21.1171 36.4671 21.0219 36.3998 20.9618 36.3053C20.9018 36.2108 20.8816 36.0966 20.9058 35.9875C20.93 35.8784 20.9965 35.7831 21.0911 35.7222L24.2289 33.5967L19.2468 36.4475C19.1816 36.485 19.1076 36.5047 19.0323 36.5044Z" fill="#E0BD26"/>
<path d="M19.535 45.8315C19.4427 45.8314 19.3529 45.8018 19.2789 45.7472C19.2049 45.6925 19.1507 45.6156 19.1243 45.5279C19.0979 45.4403 19.1007 45.3465 19.1324 45.2606C19.164 45.1747 19.2228 45.1012 19.2999 45.051L20.639 44.1795L17.948 45.7192C17.8512 45.7739 17.7366 45.789 17.6287 45.7614C17.5208 45.7338 17.4279 45.6657 17.3698 45.5714C17.3117 45.4771 17.2929 45.3641 17.3174 45.2563C17.3419 45.1485 17.4078 45.0545 17.5011 44.994L18.3589 44.4456L17.0722 45.1802C16.9761 45.2355 16.8621 45.2516 16.7542 45.2253C16.6463 45.1989 16.553 45.1321 16.4938 45.0388C16.4347 44.9456 16.4143 44.8332 16.4371 44.7254C16.4599 44.6176 16.5239 44.5228 16.6158 44.4609L21.3424 41.2657L16.6845 43.9312C16.5887 43.9835 16.4764 43.9975 16.3706 43.9705C16.2647 43.9435 16.1733 43.8774 16.1149 43.7858C16.0565 43.6942 16.0356 43.584 16.0565 43.4776C16.0774 43.3713 16.1385 43.2768 16.2272 43.2136L19.372 41.0736L17.5088 42.1398C17.413 42.1934 17.3001 42.2085 17.1933 42.1819C17.0866 42.1553 16.9943 42.0891 16.9355 41.9969C16.8767 41.9047 16.8558 41.7937 16.8773 41.6867C16.8987 41.5797 16.9608 41.485 17.0507 41.4222L17.8845 40.85L16.8483 41.4451C16.7552 41.4984 16.6453 41.515 16.5404 41.4918C16.4355 41.4686 16.3432 41.4071 16.2819 41.3197C16.2205 41.2322 16.1945 41.1251 16.209 41.0195C16.2235 40.914 16.2775 40.8176 16.3602 40.7496L19.5581 38.1139L17.2849 39.408C17.1925 39.4615 17.0832 39.4788 16.9786 39.4565C16.8739 39.4342 16.7815 39.374 16.7194 39.2876C16.6572 39.2012 16.63 39.0949 16.6429 38.9896C16.6558 38.8843 16.7079 38.7876 16.7891 38.7184L17.8185 37.8359L17.007 38.3001C16.9274 38.346 16.835 38.3653 16.7434 38.3551C16.6519 38.3449 16.5661 38.3058 16.4988 38.2435C16.4314 38.1812 16.3861 38.0991 16.3695 38.0093C16.3529 37.9195 16.3659 37.8268 16.4065 37.7449L17.1108 36.3233L16.9118 36.4373C16.8138 36.4881 16.6997 36.4994 16.5935 36.4689C16.4872 36.4383 16.397 36.3683 16.3416 36.2733C16.2863 36.1784 16.2701 36.0659 16.2964 35.9595C16.3227 35.853 16.3895 35.7607 16.4829 35.7018L17.9043 34.889C17.9839 34.8431 18.0763 34.8238 18.1678 34.834C18.2594 34.8442 18.3451 34.8834 18.4125 34.9456C18.4798 35.0079 18.5252 35.09 18.5418 35.1798C18.5584 35.2696 18.5454 35.3623 18.5047 35.4442L17.7996 36.8649L21.2566 34.8873C21.3489 34.8349 21.4576 34.8183 21.5615 34.8408C21.6655 34.8633 21.7573 34.9233 21.8191 35.0092C21.8809 35.095 21.9083 35.2006 21.896 35.3053C21.8836 35.4101 21.8325 35.5065 21.7524 35.576L20.7231 36.4585L23.4681 34.8873C23.561 34.8352 23.6703 34.8193 23.7744 34.8429C23.8786 34.8664 23.9701 34.9275 24.0311 35.0144C24.0922 35.1013 24.1183 35.2076 24.1045 35.3126C24.0906 35.4175 24.0377 35.5136 23.9562 35.5819L20.7591 38.2177L26.5879 34.889C26.6835 34.8373 26.7955 34.8235 26.9009 34.8505C27.0064 34.8776 27.0975 34.9434 27.1558 35.0346C27.2141 35.1258 27.2352 35.2356 27.2148 35.3417C27.1944 35.4478 27.1341 35.5422 27.046 35.6058L26.2088 36.1797L28.4657 34.889C28.5614 34.8367 28.6737 34.8227 28.7796 34.8497C28.8854 34.8767 28.9769 34.9428 29.0353 35.0344C29.0936 35.126 29.1145 35.2362 29.0936 35.3426C29.0727 35.4489 29.0117 35.5434 28.9229 35.6066L25.7816 37.7441L30.7724 34.889C30.8682 34.8362 30.9809 34.8217 31.0872 34.8487C31.1935 34.8757 31.2853 34.942 31.3438 35.034C31.4022 35.1261 31.4229 35.2368 31.4015 35.3435C31.3801 35.4501 31.3183 35.5446 31.2287 35.6075L26.5064 38.8001L32.7042 35.2538C32.801 35.1991 32.9156 35.184 33.0235 35.2116C33.1314 35.2392 33.2243 35.3073 33.2824 35.4016C33.3405 35.4959 33.3593 35.6089 33.3347 35.7167C33.3102 35.8245 33.2444 35.9185 33.1511 35.979L32.2821 36.5351L33.2386 35.9892C33.335 35.9372 33.4478 35.9238 33.5538 35.9518C33.6599 35.9798 33.7511 36.0469 33.8087 36.1395C33.8663 36.2321 33.8859 36.3431 33.8634 36.4495C33.841 36.556 33.7782 36.6499 33.6881 36.7119L32.3464 37.5851L33.2652 37.0588C33.3608 37.0058 33.4734 36.9911 33.5796 37.0178C33.6859 37.0444 33.7778 37.1104 33.8365 37.2021C33.8952 37.2938 33.9163 37.4044 33.8954 37.511C33.8745 37.6176 33.8132 37.7123 33.7241 37.7755L30.5356 39.9725L32.7582 38.7014C32.8519 38.6474 32.9628 38.6306 33.0685 38.6544C33.1743 38.6781 33.267 38.7407 33.3281 38.8294C33.3892 38.9182 33.4141 39.0266 33.3978 39.1328C33.3815 39.2391 33.3252 39.3353 33.2403 39.402L29.7232 42.1772L33.3346 40.1103C33.428 40.0565 33.5383 40.0396 33.6437 40.0629C33.749 40.0862 33.8416 40.148 33.903 40.236C33.9644 40.324 33.9901 40.4317 33.9749 40.5376C33.9597 40.6436 33.9047 40.7399 33.821 40.8075L31.7957 42.4561L32.6107 41.9901C32.6944 41.9422 32.792 41.9237 32.8876 41.9376C32.9833 41.9516 33.0714 41.9972 33.1376 42.0669C33.2038 42.1367 33.2444 42.2267 33.2526 42.3221C33.2608 42.4176 33.2362 42.5131 33.1828 42.5929L32.1534 44.1361L33.3407 43.4559C33.3895 43.4252 33.4441 43.4045 33.5011 43.3952C33.5582 43.3859 33.6166 43.3881 33.6728 43.4018C33.729 43.4154 33.7818 43.4402 33.8281 43.4746C33.8744 43.509 33.9131 43.5523 33.9421 43.6019C33.971 43.6516 33.9896 43.7065 33.9965 43.7634C34.0035 43.8203 33.9988 43.8781 33.9827 43.9331C33.9666 43.9882 33.9394 44.0395 33.9027 44.0838C33.8661 44.1282 33.8208 44.1648 33.7696 44.1914L30.9962 45.772C30.9125 45.8199 30.8149 45.8384 30.7193 45.8244C30.6236 45.8105 30.5355 45.7649 30.4693 45.6951C30.4031 45.6253 30.3625 45.5354 30.3543 45.4399C30.3461 45.3445 30.3707 45.249 30.4241 45.1691L31.4535 43.626L27.7065 45.772C27.6133 45.8245 27.5037 45.8406 27.3991 45.817C27.2946 45.7934 27.2028 45.7318 27.1417 45.6445C27.0807 45.5571 27.0549 45.4502 27.0694 45.3449C27.0839 45.2396 27.1377 45.1436 27.2201 45.0756L29.2412 43.4304L25.1485 45.772C25.0548 45.826 24.9439 45.8428 24.8382 45.819C24.7325 45.7953 24.6397 45.7327 24.5786 45.644C24.5176 45.5552 24.4927 45.4468 24.5089 45.3406C24.5252 45.2343 24.5815 45.1381 24.6664 45.0714L28.1878 42.2962L22.1127 45.772C22.0172 45.8232 21.9057 45.8367 21.8006 45.8097C21.6954 45.7826 21.6046 45.717 21.5463 45.6262C21.4881 45.5353 21.4668 45.426 21.4867 45.3201C21.5067 45.2143 21.5664 45.12 21.6538 45.0561L24.8414 42.8591L19.7494 45.772C19.6845 45.8102 19.6105 45.8307 19.535 45.8315Z" fill="#C0DBF0"/>
<path d="M22.5356 42.4305C22.4489 42.4307 22.3641 42.4047 22.2926 42.3562C22.221 42.3076 22.166 42.2386 22.1348 42.1584C22.1035 42.0782 22.0976 41.9905 22.1177 41.9069C22.1378 41.8233 22.183 41.7476 22.2474 41.69L22.9928 41.0217L20.6304 42.371C20.5431 42.4203 20.4412 42.4376 20.3423 42.42C20.2435 42.4024 20.154 42.351 20.0895 42.2747C20.025 42.1984 19.9895 42.1021 19.9893 42.0025C19.9891 41.903 20.0241 41.8065 20.0883 41.73L21.3595 40.2259L17.7859 42.2707C17.6959 42.3197 17.5912 42.3351 17.4907 42.3141C17.3902 42.293 17.3007 42.237 17.2384 42.1561C17.1761 42.0752 17.1452 41.9748 17.1512 41.8732C17.1572 41.7716 17.1998 41.6755 17.2712 41.6024L18.2491 40.6315L16.8457 41.4349C16.7632 41.482 16.6671 41.5005 16.5728 41.4875C16.4784 41.4744 16.3911 41.4307 16.3247 41.363C16.2582 41.2954 16.2163 41.2078 16.2057 41.1139C16.195 41.0201 16.2162 40.9254 16.2658 40.8449L16.8775 39.856C16.7774 39.8998 16.6643 39.9039 16.5612 39.8677C16.4581 39.8315 16.3729 39.7576 16.323 39.6612C16.273 39.5648 16.2621 39.4531 16.2925 39.349C16.3228 39.2449 16.3922 39.1562 16.4863 39.101L17.9077 38.2882C17.9902 38.2414 18.086 38.2231 18.1802 38.2362C18.2743 38.2492 18.3614 38.2929 18.4277 38.3604C18.4941 38.4278 18.536 38.5152 18.5468 38.6088C18.5577 38.7023 18.5368 38.7969 18.4876 38.8774L17.8785 39.862L20.6304 38.2899C20.7204 38.2409 20.8251 38.2255 20.9256 38.2466C21.0261 38.2676 21.1156 38.3237 21.1779 38.4046C21.2402 38.4854 21.2711 38.5858 21.2651 38.6874C21.2591 38.789 21.2165 38.8851 21.1451 38.9582L20.1672 39.9275L23.0323 38.2899C23.1196 38.2402 23.2218 38.2224 23.3209 38.2398C23.4201 38.2572 23.5099 38.3086 23.5746 38.3851C23.6394 38.4615 23.6749 38.5581 23.675 38.6579C23.6752 38.7577 23.6399 38.8544 23.5753 38.931L22.3031 40.4359L26.0561 38.2899C26.1474 38.2401 26.2538 38.225 26.3555 38.2473C26.4572 38.2696 26.5473 38.3279 26.6088 38.4112C26.6704 38.4945 26.6993 38.5971 26.6901 38.7C26.6808 38.8028 26.6342 38.8989 26.5588 38.9701L25.8125 39.6384L28.1792 38.2899C28.2705 38.2401 28.3769 38.225 28.4786 38.2473C28.5803 38.2696 28.6704 38.3279 28.7319 38.4112C28.7935 38.4945 28.8224 38.5971 28.8132 38.7C28.8039 38.8028 28.7573 38.8989 28.6819 38.9701L27.9218 39.6503L30.3074 38.2899C30.3973 38.2392 30.5026 38.2223 30.604 38.2425C30.7054 38.2626 30.7961 38.3184 30.8593 38.3996C30.9225 38.4808 30.9539 38.5818 30.9479 38.6841C30.9418 38.7865 30.8987 38.8832 30.8264 38.9565L29.731 40.0525L32.4571 38.4931C32.543 38.4444 32.6432 38.4267 32.7408 38.4429C32.8384 38.459 32.9274 38.5082 32.9926 38.5819C33.0578 38.6557 33.0953 38.7495 33.0987 38.8475C33.1021 38.9456 33.0712 39.0417 33.0112 39.1197L31.8875 40.5651L33.3252 39.7438C33.374 39.7131 33.4286 39.6924 33.4857 39.6831C33.5428 39.6738 33.6012 39.676 33.6573 39.6897C33.7135 39.7033 33.7664 39.7281 33.8126 39.7625C33.8589 39.7969 33.8977 39.8402 33.9266 39.8898C33.9556 39.9395 33.9741 39.9944 33.9811 40.0513C33.9881 40.1082 33.9833 40.166 33.9672 40.221C33.9511 40.2761 33.9239 40.3274 33.8873 40.3717C33.8507 40.4161 33.8054 40.4527 33.7541 40.4793L30.4412 42.371C30.3556 42.4206 30.2553 42.4391 30.1574 42.4236C30.0595 42.4081 29.97 42.3595 29.9042 42.286C29.8388 42.2121 29.8012 42.118 29.7979 42.0197C29.7947 41.9214 29.8259 41.825 29.8862 41.747L31.01 40.3016L27.3866 42.371C27.2967 42.4218 27.1913 42.4386 27.0899 42.4185C26.9885 42.3983 26.8979 42.3425 26.8347 42.2614C26.7715 42.1802 26.74 42.0791 26.7461 41.9768C26.7521 41.8745 26.7953 41.7777 26.8676 41.7044L27.963 40.6085L24.8817 42.371C24.7905 42.4202 24.6843 42.4348 24.583 42.4123C24.4817 42.3897 24.3921 42.3315 24.3308 42.2484C24.2695 42.1653 24.2407 42.063 24.2497 41.9605C24.2587 41.8579 24.305 41.7621 24.3799 41.6908L25.1399 41.0107L22.7501 42.371C22.6853 42.4096 22.6112 42.4302 22.5356 42.4305Z" fill="#B1CDDD"/>
<path d="M24.6536 22.8753C24.5646 22.8754 24.4779 22.8483 24.4052 22.7974C24.3326 22.7466 24.2777 22.6747 24.2481 22.5916C24.2185 22.5085 24.2158 22.4183 24.2401 22.3336C24.2645 22.2488 24.3149 22.1737 24.3842 22.1185L26.2019 20.6732L23.553 22.1883C23.4591 22.2419 23.3482 22.2583 23.2425 22.2341C23.1369 22.21 23.0445 22.1471 22.9837 22.0581C22.923 21.9692 22.8985 21.8607 22.9151 21.7546C22.9318 21.6484 22.9883 21.5525 23.0735 21.486L26.6823 18.6802L23.5298 20.4802C23.4474 20.5271 23.3516 20.5455 23.2574 20.5326C23.1633 20.5196 23.0762 20.4761 23.0097 20.4088C22.9432 20.3414 22.9012 20.2541 22.8902 20.1605C22.8793 20.067 22.9 19.9724 22.9491 19.8918L23.7468 18.5901C23.645 18.6355 23.5293 18.6397 23.4243 18.6018C23.3194 18.5639 23.2335 18.487 23.1849 18.3873C23.1363 18.2877 23.1288 18.1731 23.1641 18.0681C23.1993 17.9631 23.2745 17.8758 23.3737 17.8249L24.7651 17.0342C24.8475 16.9873 24.9433 16.9688 25.0374 16.9818C25.1316 16.9947 25.2187 17.0382 25.2852 17.1056C25.3517 17.1729 25.3937 17.2602 25.4046 17.3538C25.4156 17.4473 25.3949 17.5419 25.3458 17.6225L24.5532 18.9166L31.4878 14.9477C31.5816 14.8951 31.6921 14.8795 31.797 14.904C31.902 14.9285 31.9938 14.9913 32.0542 15.0799C32.1145 15.1684 32.139 15.2763 32.1228 15.3819C32.1065 15.4876 32.0507 15.5833 31.9664 15.65L28.3559 18.4558L30.5974 17.1745C30.6908 17.1221 30.8007 17.1063 30.9053 17.1304C31.01 17.1544 31.1017 17.2165 31.1624 17.3043C31.223 17.3921 31.2483 17.4993 31.2331 17.6046C31.2179 17.71 31.1634 17.8059 31.0803 17.8733L27.064 21.0711C27.12 21.1686 27.1348 21.2841 27.1053 21.3924C27.0757 21.5007 27.0041 21.593 26.9062 21.6492L24.868 22.8157C24.8032 22.8542 24.7291 22.8748 24.6536 22.8753Z" fill="#937E28"/>
<path d="M27.6568 16.5903C27.572 16.5903 27.4891 16.5654 27.4187 16.5188C27.3482 16.4721 27.2932 16.4058 27.2607 16.3282C27.2282 16.2506 27.2197 16.1652 27.2361 16.0828C27.2525 16.0003 27.2933 15.9246 27.3531 15.8651L28.9907 14.2437L28.6724 14.4257C28.5837 14.4762 28.4797 14.4936 28.3791 14.4747C28.2786 14.4559 28.1881 14.402 28.1241 14.3229C28.0601 14.2438 28.0268 14.1446 28.0301 14.0432C28.0335 13.9418 28.0732 13.845 28.1423 13.7701L28.9641 12.8867L28.464 13.1724C28.375 13.2235 28.2704 13.2412 28.1693 13.2223C28.0683 13.2034 27.9774 13.1491 27.9133 13.0693C27.8493 12.9896 27.8163 12.8896 27.8204 12.7877C27.8245 12.6859 27.8653 12.5888 27.9356 12.5143L28.4048 12.0144L27.963 12.2695C27.8784 12.318 27.7795 12.3365 27.6829 12.3217C27.5862 12.3069 27.4976 12.2599 27.4316 12.1883C27.3656 12.1168 27.3263 12.0251 27.3201 11.9283C27.314 11.8316 27.3413 11.7357 27.3977 11.6565L28.2512 10.4559L26.793 11.2926C26.7077 11.3414 26.6081 11.3596 26.5108 11.3442C26.4136 11.3288 26.3247 11.2808 26.259 11.2081C26.1933 11.1354 26.1548 11.0425 26.1501 10.945C26.1453 10.8475 26.1745 10.7514 26.2328 10.6727L27.0194 9.60996L24.6381 10.9703C24.5401 11.0212 24.4261 11.0325 24.3198 11.0019C24.2136 10.9714 24.1233 10.9013 24.068 10.8064C24.0126 10.7115 23.9964 10.599 24.0227 10.4925C24.049 10.386 24.1159 10.2937 24.2092 10.2349L28.3507 7.86103C28.4359 7.81215 28.5355 7.79381 28.6327 7.80907C28.7299 7.82433 28.8189 7.87227 28.8847 7.94485C28.9505 8.01743 28.9891 8.11023 28.994 8.20767C28.9989 8.30511 28.9699 8.40127 28.9118 8.48L28.126 9.54194L29.5054 8.75208C29.59 8.70352 29.6888 8.6851 29.7855 8.69986C29.8822 8.71461 29.9708 8.76166 30.0368 8.83321C30.1028 8.90475 30.1421 8.9965 30.1483 9.09324C30.1544 9.18997 30.127 9.28589 30.0707 9.36509L29.2128 10.5665L30.4421 9.86333C30.531 9.81281 30.6352 9.79551 30.7359 9.81456C30.8365 9.83362 30.927 9.88776 30.9908 9.9672C31.0547 10.0466 31.0878 10.1461 31.084 10.2476C31.0803 10.3491 31.04 10.4459 30.9705 10.5206L30.5013 11.0205L30.9628 10.7569C31.0515 10.7064 31.1556 10.689 31.2561 10.7078C31.3566 10.7267 31.4471 10.7805 31.5111 10.8597C31.5751 10.9388 31.6084 11.038 31.6051 11.1394C31.6018 11.2408 31.562 11.3376 31.4929 11.4124L30.6703 12.2975L31.3857 11.8886C31.4757 11.8396 31.5804 11.8242 31.6809 11.8452C31.7813 11.8663 31.8709 11.9223 31.9332 12.0032C31.9955 12.0841 32.0264 12.1845 32.0204 12.2861C32.0144 12.3877 31.9718 12.4837 31.9004 12.5569L30.2637 14.1765L31.6087 13.4071C31.6575 13.3763 31.7121 13.3557 31.7692 13.3464C31.8263 13.3371 31.8847 13.3393 31.9409 13.3529C31.9971 13.3666 32.0499 13.3913 32.0962 13.4257C32.1424 13.4601 32.1812 13.5035 32.2102 13.5531C32.2391 13.6027 32.2576 13.6577 32.2646 13.7146C32.2716 13.7715 32.2669 13.8292 32.2507 13.8843C32.2346 13.9394 32.2074 13.9906 32.1708 14.035C32.1342 14.0794 32.0889 14.116 32.0376 14.1425L27.8609 16.5334C27.7989 16.5694 27.7286 16.589 27.6568 16.5903Z" fill="#937E28"/>
<path d="M20.1029 15.2232C20.0232 15.2232 19.9451 15.2012 19.8774 15.1597C19.8096 15.1182 19.7548 15.0588 19.7192 14.9882C19.6836 14.9176 19.6685 14.8385 19.6757 14.7599C19.6828 14.6813 19.7119 14.6062 19.7597 14.543L20.7102 13.2676L18.4233 14.5753C18.3271 14.6306 18.2131 14.6467 18.1053 14.6204C17.9974 14.594 17.904 14.5272 17.8449 14.4339C17.7857 14.3407 17.7654 14.2283 17.7881 14.1205C17.8109 14.0127 17.875 13.9179 17.9669 13.856L18.3195 13.6179C18.2346 13.6382 18.1455 13.6322 18.0641 13.6009C17.9827 13.5696 17.9129 13.5145 17.864 13.4428C17.8032 13.3538 17.7788 13.2453 17.7955 13.1391C17.8122 13.033 17.8688 12.937 17.954 12.8706L20.8706 10.5996L18.9319 11.7049C18.8398 11.757 18.7315 11.7735 18.6279 11.7511C18.5243 11.7287 18.4327 11.669 18.3708 11.5836C18.309 11.4982 18.2813 11.3932 18.293 11.2887C18.3047 11.1842 18.3551 11.0878 18.4344 11.0179L20.1389 9.52834C20.0841 9.51438 20.0327 9.48964 19.9878 9.45561C19.9428 9.42158 19.9052 9.37894 19.8772 9.33023C19.8203 9.23269 19.8048 9.11674 19.834 9.00785C19.8633 8.89896 19.935 8.80604 20.0334 8.74952L22.9645 7.07287C23.0565 7.02166 23.1643 7.00584 23.2673 7.02845C23.3703 7.05105 23.4613 7.1105 23.5229 7.19541C23.5844 7.28032 23.6123 7.38474 23.6011 7.48872C23.5898 7.59269 23.5404 7.68892 23.4621 7.75901L22.2302 8.83625L25.6383 6.88582C25.7321 6.83354 25.8423 6.8181 25.947 6.84256C26.0517 6.86702 26.1433 6.9296 26.2037 7.01788C26.264 7.10616 26.2887 7.21369 26.2728 7.31916C26.2569 7.42463 26.2016 7.52032 26.1179 7.58726L23.2013 9.85822L27.4904 7.40191C27.5865 7.34368 27.702 7.32533 27.8117 7.35082C27.9215 7.37631 28.0167 7.44359 28.0768 7.53811C28.1369 7.63264 28.157 7.7468 28.1328 7.85592C28.1086 7.96504 28.0421 8.06034 27.9476 8.1212L22.6617 11.7007C22.6927 11.7692 22.7048 11.8446 22.6968 11.9193C22.6888 11.994 22.661 12.0652 22.6163 12.1258L21.5646 13.5482C21.6569 13.5529 21.7453 13.5871 21.8165 13.6456C21.8876 13.7041 21.9378 13.7839 21.9595 13.873C21.9812 13.9621 21.9733 14.0558 21.9369 14.1401C21.9005 14.2243 21.8376 14.2947 21.7576 14.3406L20.3173 15.1637C20.2525 15.2023 20.1784 15.2228 20.1029 15.2232ZM25.6546 29.6771C25.5824 29.677 25.5114 29.6589 25.4481 29.6244C25.3848 29.5899 25.3314 29.5401 25.2927 29.4796C25.254 29.4191 25.2314 29.35 25.2269 29.2785C25.2224 29.2071 25.2361 29.1356 25.2669 29.0709L25.7224 28.1135L23.6902 29.2775C23.6002 29.3265 23.4955 29.3419 23.395 29.3208C23.2946 29.2998 23.2051 29.2438 23.1428 29.1629C23.0805 29.082 23.0495 28.9816 23.0555 28.88C23.0615 28.7784 23.1041 28.6823 23.1755 28.6092L23.74 28.0506L23.5333 28.1679C23.4523 28.2142 23.3583 28.233 23.2656 28.2214C23.1728 28.2099 23.0865 28.1686 23.0196 28.104C22.9527 28.0393 22.9089 27.9547 22.8949 27.8631C22.881 27.7716 22.8976 27.678 22.9422 27.5966L23.3265 26.8968C23.236 26.8886 23.1504 26.8521 23.0822 26.7925C23.0139 26.733 22.9665 26.6534 22.9469 26.5654C22.9272 26.4774 22.9363 26.3855 22.9728 26.303C23.0092 26.2204 23.0712 26.1515 23.1498 26.1061L24.1457 25.5365C24.2267 25.4898 24.3209 25.4708 24.4138 25.4821C24.5067 25.4935 24.5934 25.5347 24.6605 25.5995C24.7275 25.6643 24.7714 25.749 24.7853 25.8408C24.7993 25.9326 24.7825 26.0264 24.7376 26.1078L24.4237 26.6766L26.1393 25.6955C26.2293 25.6465 26.334 25.6311 26.4345 25.6521C26.5349 25.6731 26.6245 25.7292 26.6868 25.8101C26.7491 25.891 26.78 25.9914 26.774 26.0929C26.768 26.1945 26.7254 26.2906 26.654 26.3637L26.0895 26.9232L26.4807 26.6996C26.5597 26.6553 26.6509 26.637 26.741 26.6473C26.8312 26.6576 26.9157 26.696 26.9825 26.757C27.0492 26.818 27.0947 26.8983 27.1125 26.9866C27.1302 27.0748 27.1193 27.1663 27.0812 27.248L26.6008 28.2572C26.6837 28.2496 26.7671 28.2652 26.8414 28.3024C26.9157 28.3395 26.978 28.3966 27.0211 28.4672C27.0777 28.5648 27.093 28.6806 27.0636 28.7893C27.0341 28.898 26.9624 28.9907 26.8641 29.0471L25.8691 29.6167C25.8042 29.6552 25.7302 29.6761 25.6546 29.6771Z" fill="#937E28"/>
<path d="M39.4277 10.4993C32.6141 -8.77883 4.63731 0.899345 10.9097 20.1086C13.3544 25.0552 17.7808 29.0318 17.671 34.9647C15.9553 35.3966 15.1739 37.7432 16.9427 38.732C16.6394 38.9027 16.3873 39.15 16.2118 39.4487C16.0364 39.7474 15.944 40.0869 15.944 40.4325C15.944 40.7781 16.0364 41.1176 16.2118 41.4163C16.3873 41.715 16.6394 41.9623 16.9427 42.133C14.8419 43.4729 16.2761 46.1733 18.6369 45.8485C20.9692 51.545 28.8534 51.2219 31.2699 45.8434C33.3973 46.0712 35.3668 43.2442 33.031 41.9204C33.346 41.7595 33.6103 41.5157 33.7948 41.2157C33.9793 40.9158 34.0769 40.5712 34.0769 40.22C34.0769 39.8687 33.9793 39.5241 33.7948 39.2242C33.6103 38.9242 33.346 38.6804 33.031 38.5195C33.3992 38.3254 33.6951 38.0196 33.8752 37.6467C34.0552 37.2739 34.11 36.8536 34.0316 36.4476C33.9531 36.0417 33.7455 35.6713 33.4391 35.3908C33.1328 35.1103 32.7438 34.9344 32.3293 34.889C32.8912 25.7711 42.394 20.2974 39.4277 10.4993ZM19.7512 45.8434C23.2888 45.8502 26.8267 45.8502 30.3649 45.8434C28.2727 50.4168 21.9171 50.0954 19.7512 45.8434ZM31.8858 45.0204H20.0042C18.9242 45.0204 15.6294 44.8503 17.5105 43.0198C19.6954 41.7291 22.7689 42.7562 25.2592 42.4425H31.4286C32.6939 42.7783 34.2216 44.3538 31.8858 45.0204ZM31.8858 41.6194C27.6636 41.7521 22.9645 40.9392 18.7355 41.5446C17.4839 41.3916 16.1621 40.9358 17.5105 39.6188C17.7648 39.3907 18.0666 39.2208 18.3945 39.121C18.7224 39.0212 19.0684 38.9941 19.408 39.0415H31.4286C32.6939 39.3774 34.2216 40.9528 31.8858 41.6194ZM31.8858 38.2185C27.6628 38.3511 22.9645 37.5383 18.7355 38.1437C17.4839 37.9906 16.1621 37.5349 17.5105 36.2179C18.9765 34.7887 23.2999 35.6406 25.2592 35.6406C27.3094 35.6797 29.399 35.5794 31.4286 35.6406C32.6939 35.9765 34.2216 37.5519 31.8858 38.2185ZM38.6831 18.511C37.7395 22.0548 35.0734 24.2926 33.429 27.4316C32.2586 29.7248 31.5865 32.2357 31.456 34.8023C27.3385 34.9553 22.6617 34.1034 18.5588 34.7683C18.4533 32.1544 17.7866 29.5929 16.603 27.2548C14.9405 24.0639 12.3045 21.9238 11.3368 18.3146C10.7874 16.1627 10.7611 13.9123 11.2599 11.7484C11.7587 9.5844 12.7685 7.56865 14.2062 5.86675C15.6439 4.16485 17.4686 2.82539 19.5303 1.95845C21.5919 1.0915 23.8317 0.721824 26.0655 0.87979C28.1246 1.07744 30.1166 1.71179 31.9064 2.73981C33.6963 3.76783 35.2421 5.16546 36.4389 6.83784C37.6357 8.51021 38.4556 10.4182 38.8428 12.4323C39.23 14.4465 39.1756 16.5196 38.6831 18.511Z" fill="#262626"/>
<path d="M23.897 6.88242C20.9521 7.34919 16.9118 10.5894 17.6349 14.0082C18.0553 16.0062 21.55 15.5922 22.0767 13.8926C22.2483 11.2339 25.4874 9.86758 27.2656 12.1283C27.6128 12.5625 27.8317 13.0835 27.8979 13.6336C27.9642 14.1836 27.8753 14.7411 27.6411 15.2441C27.4069 15.7471 27.0365 16.1758 26.5712 16.4827C26.1059 16.7895 25.5638 16.9625 25.0053 16.9823C24.3885 17.0121 23.8086 17.2825 23.3923 17.7346C22.9761 18.1867 22.7572 18.7837 22.7835 19.3953C22.7681 20.186 22.4979 21.6671 23.0057 22.3609C23.541 23.0938 25.013 22.9288 25.8048 22.871C27.0966 22.7707 27.2124 21.8014 27.2236 20.7905C35.7168 17.8614 32.7779 5.6972 23.897 6.88242ZM26.6145 20.1945C25.7336 20.43 26.7003 21.8286 25.7825 22.0837C25.3107 22.2308 24.054 22.1917 23.8498 21.7308C23.7253 21.1464 23.7067 20.5447 23.7949 19.9539C23.7949 19.0705 23.7091 17.8648 24.9487 17.7662C28.1912 17.6276 30.3529 13.8237 27.8524 11.3138C25.4333 8.88556 21.357 10.6566 21.0808 13.8858C20.8704 14.1655 20.5741 14.37 20.2364 14.4685C19.8987 14.5669 19.5378 14.554 19.2082 14.4316C18.1608 13.737 18.8436 12.0824 19.233 11.2373C19.8934 9.79761 21.083 8.6618 22.5592 8.06145C24.0353 7.4611 25.687 7.44142 27.1773 8.00642C32.9924 10.2689 32.4202 18.3614 26.6145 20.1945ZM25.5534 25.3741C22.5296 25.0229 22.6609 26.5738 23.0272 28.9757C23.535 30.0971 24.995 29.7689 25.9832 29.774C27.3034 29.6414 27.1146 28.1875 27.1146 27.2344C27.1146 26.192 26.7209 25.3741 25.5534 25.3741ZM25.7516 28.7793C24.4237 28.8643 23.3265 29.0828 23.6834 27.4231C23.6834 26.9836 23.5804 26.5193 24.1354 26.3842C24.4964 26.3429 24.8609 26.3412 25.2223 26.3791C25.5654 26.3791 26.1925 26.2651 26.3272 26.6877C26.3722 27.034 26.3722 27.3846 26.3272 27.7309C26.3272 28.23 26.4155 28.7087 25.7516 28.7793Z" fill="#262626"/>
</svg>
