<svg width="50" height="50" viewBox="0 0 50 50" fill="none" xmlns="http://www.w3.org/2000/svg">
<g clip-path="url(#clip0_135_12)">
<path d="M43.3979 0.390234H15.5588C11.9276 0.390234 8.95664 3.36123 8.95664 6.99238V9.23887H34.1394C37.7705 9.23887 40.7415 12.2099 40.7415 15.841V32.3007H43.3979C47.029 32.3007 50 29.3297 50 25.6985V6.99238C50 3.36113 47.029 0.390234 43.3979 0.390234Z" fill="#DFEBFA"/>
<path d="M38.7169 8.93701H10.8778C10.2267 8.93683 9.57917 9.03379 8.95664 9.22471V9.23887H34.1394C37.7705 9.23887 40.7415 12.2099 40.7415 15.841V32.3007H43.3978C44.0489 32.3009 44.6964 32.2039 45.3189 32.013V15.5392C45.319 11.908 42.348 8.93701 38.7169 8.93701Z" fill="#B1DBFC"/>
<path d="M34.4412 8.93701H6.60215C2.971 8.93701 0 11.908 0 15.5392V34.2452C0 37.8764 2.971 40.8474 6.60215 40.8474H23.3107C24.0271 40.8474 24.5618 41.514 24.3979 42.2112C23.9549 44.0977 23.2769 46.0926 22.2745 48.1376C21.8244 49.0561 22.8483 49.9897 23.7181 49.4515C26.2328 47.8951 29.8107 45.2903 32.8239 41.608C33.22 41.1239 33.8157 40.8473 34.4412 40.8473C38.0724 40.8473 41.0434 37.8763 41.0434 34.2451V15.5391C41.0434 11.908 38.0724 8.93701 34.4412 8.93701Z" fill="#60B8FE"/>
<path d="M28.6736 42.2112C28.8374 41.5139 28.3027 40.8474 27.5864 40.8474H23.3107C24.0271 40.8474 24.5617 41.5139 24.3979 42.2112C23.9549 44.0977 23.2769 46.0926 22.2745 48.1376C21.8244 49.0561 22.8483 49.9897 23.7181 49.4515C24.8452 48.7534 25.9373 48.0003 26.9904 47.1948C27.7553 45.4797 28.2989 43.8065 28.6736 42.2112ZM4.27568 34.2452V15.5392C4.27568 11.908 7.24668 8.93701 10.8778 8.93701H6.60215C2.971 8.93701 0 11.908 0 15.5392V34.2452C0 37.8764 2.971 40.8474 6.60215 40.8474H10.8778C7.24658 40.8474 4.27568 37.8765 4.27568 34.2452Z" fill="#23A8FE"/>
<path d="M16.5588 14.1831H13.4187C12.719 14.1831 12.1466 14.7556 12.1466 15.4552V18.0652C12.1466 18.7649 12.719 19.3373 13.4187 19.3373H15.1113C15.2432 19.3373 15.3696 19.3897 15.4628 19.4829C15.556 19.5761 15.6084 19.7025 15.6084 19.8344V21.4872C15.6084 21.6649 15.8041 21.7736 15.9552 21.68C16.5288 21.3243 17.0022 20.828 17.3304 20.2382C17.6587 19.6484 17.831 18.9846 17.831 18.3096V15.4552C17.831 14.7556 17.2585 14.1831 16.5588 14.1831ZM24.9105 14.1831H21.7705C21.0709 14.1831 20.4984 14.7556 20.4984 15.4552V18.0652C20.4984 18.7649 21.0709 19.3373 21.7705 19.3373H23.4632C23.595 19.3373 23.7214 19.3897 23.8147 19.4829C23.9079 19.5761 23.9603 19.7025 23.9603 19.8344V21.4872C23.9603 21.6649 24.156 21.7736 24.307 21.68C24.8807 21.3243 25.354 20.828 25.6823 20.2382C26.0105 19.6484 26.1828 18.9846 26.1828 18.3096V15.4552C26.1826 14.7556 25.6103 14.1831 24.9105 14.1831Z" fill="#DFEBFA"/>
<path d="M17.5198 19.8344C17.5198 19.7025 17.4675 19.5761 17.3742 19.4829C17.281 19.3897 17.1546 19.3373 17.0228 19.3373H15.3301C14.6305 19.3373 14.058 18.7648 14.058 18.0652V15.4552C14.058 14.7556 14.6305 14.1831 15.3301 14.1831H13.4187C12.719 14.1831 12.1466 14.7556 12.1466 15.4552V18.0652C12.1466 18.7648 12.719 19.3373 13.4187 19.3373H15.1112C15.2431 19.3373 15.3695 19.3897 15.4627 19.4829C15.5559 19.5761 15.6083 19.7025 15.6083 19.8344V21.4872C15.6083 21.6649 15.804 21.7737 15.9551 21.68C16.6545 21.2458 17.2014 20.6047 17.5198 19.8455V19.8344ZM25.8716 19.8344C25.8716 19.7025 25.8192 19.5761 25.726 19.4829C25.6328 19.3897 25.5063 19.3373 25.3745 19.3373H23.6818C22.9822 19.3373 22.4098 18.7648 22.4098 18.0652V15.4552C22.4098 14.7556 22.9822 14.1831 23.6818 14.1831H21.7705C21.0709 14.1831 20.4984 14.7556 20.4984 15.4552V18.0652C20.4984 18.7648 21.0709 19.3373 21.7705 19.3373H23.4631C23.5949 19.3373 23.7213 19.3897 23.8146 19.4829C23.9078 19.5761 23.9602 19.7025 23.9602 19.8344V21.4872C23.9602 21.6649 24.1559 21.7737 24.3069 21.68C25.0064 21.2458 25.5533 20.6047 25.8717 19.8455V19.8344H25.8716Z" fill="#B1DBFC"/>
<path d="M33.4843 26.1242H7.5125C7.3124 26.1242 7.12049 26.0447 6.97899 25.9032C6.8375 25.7617 6.75801 25.5698 6.75801 25.3697C6.75801 25.1696 6.8375 24.9777 6.97899 24.8362C7.12049 24.6947 7.3124 24.6152 7.5125 24.6152H33.4844C33.6845 24.6152 33.8764 24.6948 34.0179 24.8363C34.1594 24.9778 34.2388 25.1697 34.2388 25.3698C34.2388 25.5699 34.1593 25.7618 34.0178 25.9033C33.8763 26.0448 33.6844 26.1242 33.4843 26.1242ZM33.4843 29.595H7.5125C7.3124 29.595 7.12049 29.5155 6.97899 29.374C6.8375 29.2325 6.75801 29.0406 6.75801 28.8405C6.75801 28.6404 6.8375 28.4485 6.97899 28.307C7.12049 28.1655 7.3124 28.086 7.5125 28.086H33.4844C33.6845 28.086 33.8764 28.1656 34.0179 28.3071C34.1594 28.4486 34.2388 28.6405 34.2388 28.8406C34.2388 29.0407 34.1593 29.2326 34.0178 29.3741C33.8763 29.5156 33.6844 29.595 33.4843 29.595ZM33.4843 33.0658H7.5125C7.3124 33.0658 7.12049 32.9863 6.97899 32.8448C6.8375 32.7033 6.75801 32.5114 6.75801 32.3113C6.75801 32.1112 6.8375 31.9193 6.97899 31.7778C7.12049 31.6363 7.3124 31.5568 7.5125 31.5568H33.4844C33.6845 31.5568 33.8764 31.6364 34.0179 31.7779C34.1594 31.9194 34.2388 32.1113 34.2388 32.3114C34.2388 32.5115 34.1593 32.7034 34.0178 32.8449C33.8763 32.9864 33.6844 33.0658 33.4843 33.0658ZM26.9913 36.5365H14.0054C13.8053 36.5365 13.6134 36.457 13.4719 36.3155C13.3304 36.174 13.2509 35.9821 13.2509 35.782C13.2509 35.5819 13.3304 35.39 13.4719 35.2485C13.6134 35.107 13.8053 35.0275 14.0054 35.0275H26.9913C27.1914 35.0275 27.3833 35.107 27.5248 35.2485C27.6663 35.39 27.7458 35.5819 27.7458 35.782C27.7458 35.9821 27.6663 36.174 27.5248 36.3155C27.3833 36.457 27.1914 36.5365 26.9913 36.5365Z" fill="#0193FA"/>
</g>
<defs>
<clipPath id="clip0_135_12">
<rect width="50" height="50" fill="white"/>
</clipPath>
</defs>
</svg>
