<svg width="50" height="50" viewBox="0 0 50 50" fill="none" xmlns="http://www.w3.org/2000/svg">
<path opacity="0.35" d="M8.01464 50C4.23809 50 1.16552 46.8707 1.16552 43.0245V8.16254C1.16552 6.29767 1.87917 4.54495 3.17444 3.22723C4.46744 1.91153 6.18612 1.18703 8.01407 1.18703L43.1589 1.23195C46.9308 1.23658 50 4.36586 50 8.20775V43.0245C50 46.8707 46.9274 50 43.1509 50H8.01464Z" fill="black"/>
<path d="M6.84912 48.813C3.07257 48.813 0 45.6837 0 41.8375V6.97552C0 5.11065 0.713652 3.35793 2.00892 2.0402C3.30192 0.724503 5.0206 0 6.84855 0L41.9933 0.0449192C45.7653 0.049556 48.8345 3.17883 48.8345 7.02073V41.8375C48.8345 45.6837 45.7619 48.813 41.9854 48.813H6.84912Z" fill="#F2F2F2"/>
<path d="M4.02069 34.9776V41.261C4.02069 43.0354 5.43305 44.4738 7.17528 44.4738H41.6592C43.4014 44.4738 44.8138 43.0354 44.8138 41.261V34.9776H4.02069Z" fill="#707CC0"/>
<path d="M4.60345 4.70845V39.0721C4.60345 39.7609 5.15171 40.3192 5.82801 40.3192H43.0065C43.6828 40.3192 44.231 39.7609 44.231 39.0721V4.70845H4.60345Z" fill="#9AA2E6"/>
<path d="M6.85265 3.85775C5.16056 3.85584 3.78786 5.25232 3.78786 6.97564V35.4732V38.7286V41.8373C3.78786 43.5593 5.15849 44.9552 6.84925 44.9552H41.9852C43.676 44.9552 45.0466 43.5593 45.0466 41.8373V38.7286V35.4732V7.02069C45.0466 5.30009 43.6781 3.90472 41.9886 3.90281L6.85265 3.85775Z" stroke="#40396E" stroke-width="3" stroke-miterlimit="10" stroke-linecap="round" stroke-linejoin="round"/>
<path d="M22.5739 27.0008C21.6292 27.0008 20.8222 26.811 20.1518 26.4316C19.4814 26.0523 18.9658 25.519 18.605 24.8316C18.2454 24.1445 18.0655 23.3328 18.0655 22.3967C18.0655 21.4694 18.2454 20.662 18.605 19.9746C18.9658 19.2874 19.4814 18.7542 20.1518 18.3746C20.8222 17.9952 21.6292 17.8054 22.5739 17.8054C22.9871 17.8054 23.4071 17.8605 23.8339 17.97C24.2607 18.0795 24.6307 18.2273 24.9459 18.4125C25.202 18.5644 25.3591 18.7542 25.4172 18.9817C25.4752 19.2095 25.457 19.4245 25.3614 19.6268C25.2658 19.8294 25.1189 19.9728 24.9209 20.0569C24.7217 20.1412 24.4986 20.1119 24.2505 19.9685C24.0012 19.8166 23.7406 19.7071 23.4674 19.6395C23.1943 19.572 22.9165 19.5384 22.6354 19.5384C21.7988 19.5384 21.1683 19.785 20.7414 20.2783C20.3146 20.7715 20.1018 21.4778 20.1018 22.3967C20.1018 23.316 20.3146 24.0242 20.7414 24.5218C21.1683 25.0194 21.7988 25.2681 22.6354 25.2681C22.9006 25.2681 23.1715 25.2344 23.4492 25.1669C23.7258 25.0994 23.9933 24.9942 24.2505 24.8505C24.5146 24.7073 24.7468 24.6757 24.9459 24.7557C25.144 24.836 25.2908 24.9707 25.3864 25.1606C25.4809 25.3501 25.5048 25.557 25.4547 25.7801C25.4046 26.0039 25.2646 26.1873 25.0324 26.3305C24.7172 26.5415 24.3393 26.7058 23.8965 26.8237C23.4526 26.9417 23.0121 27.0008 22.5739 27.0008Z" fill="#40396E"/>
<path d="M29.3166 27.0008C27.6025 27.0008 26.7466 26.1534 26.7466 24.4587V22.0805H26.2241C25.7359 22.0805 25.4923 21.8446 25.4923 21.3723C25.4923 20.8918 25.7359 20.6512 26.2241 20.6512H26.7466V19.69C26.7466 19.0408 27.0607 18.7162 27.6901 18.7162C28.3105 18.7162 28.6212 19.0408 28.6212 19.69V20.6512H29.8015C30.2818 20.6512 30.522 20.8918 30.522 21.3723C30.522 21.8446 30.2818 22.0805 29.8015 22.0805H28.6212V24.3827C28.6212 24.7369 28.702 25.0023 28.8636 25.1794C29.0253 25.3565 29.2836 25.4451 29.6399 25.4451C29.7639 25.4451 29.88 25.4324 29.987 25.4072C30.0952 25.382 30.1942 25.3652 30.2852 25.3565C30.4013 25.3483 30.4969 25.3863 30.5709 25.4703C30.646 25.5547 30.6825 25.7277 30.6825 25.9891C30.6825 26.1998 30.6495 26.3792 30.5834 26.5264C30.5174 26.6742 30.4013 26.7817 30.2363 26.8489C30.1282 26.8912 29.9813 26.9269 29.7947 26.9565C29.6091 26.986 29.4487 27.0008 29.3166 27.0008Z" fill="#40396E"/>
<path d="M32.3101 26.9756C31.6636 26.9756 31.3415 26.651 31.3415 26.0016V21.5114C31.3415 20.8706 31.6477 20.5501 32.26 20.5501C32.8724 20.5501 33.1785 20.8706 33.1785 21.5114V21.7392C33.4767 20.9889 34.0936 20.584 35.0292 20.5249C35.2364 20.5081 35.3957 20.5608 35.5073 20.6831C35.62 20.8054 35.6792 21.0054 35.6883 21.2839C35.7042 21.5453 35.6518 21.7519 35.5323 21.9035C35.4128 22.0553 35.2114 22.1484 34.9302 22.1817L34.6445 22.2072C33.7169 22.2999 33.2537 22.7807 33.2537 23.6489V26.0016C33.2537 26.651 32.9384 26.9756 32.3101 26.9756Z" fill="#40396E"/>
<path d="M38.6556 27.0008C37.1907 27.0008 36.4577 26.1705 36.4577 24.5091V18.8046C36.4577 18.1555 36.7718 17.8309 37.4013 17.8309C38.0227 17.8309 38.3334 18.1555 38.3334 18.8046V24.4331C38.3334 24.7792 38.4051 25.0339 38.5508 25.1985C38.6954 25.3628 38.8877 25.4451 39.1279 25.4451C39.1939 25.4451 39.2588 25.4408 39.3203 25.4324C39.3829 25.4243 39.442 25.4199 39.5001 25.4199C39.6333 25.4115 39.7255 25.4535 39.7801 25.5463C39.8336 25.639 39.8609 25.8288 39.8609 26.1154C39.8609 26.6046 39.6572 26.8825 39.252 26.9504C39.1689 26.9585 39.0744 26.9692 38.9663 26.982C38.8593 26.9944 38.7557 27.0008 38.6556 27.0008Z" fill="#40396E"/>
<path d="M10.354 27.3016C10.0194 27.3016 9.76396 27.2089 9.58811 27.0223C9.41226 26.8361 9.32413 26.5744 9.32413 26.2376V18.8561C9.32413 18.1559 9.67196 17.8054 10.3668 17.8054H13.5745C14.6126 17.8054 15.4134 18.0581 15.9767 18.5635C16.54 19.0689 16.8214 19.7738 16.8214 20.6782C16.8214 21.3788 16.6432 21.9616 16.2868 22.4271C15.9305 22.8926 15.4223 23.2099 14.7624 23.3785C15.2286 23.5201 15.6118 23.8616 15.9107 24.4022L16.729 25.9317C16.9138 26.2689 16.9487 26.5814 16.8342 26.8694C16.7197 27.1573 16.4425 27.3012 16.0027 27.3012C15.7123 27.3012 15.4747 27.2394 15.29 27.115C15.1048 26.991 14.9468 26.8001 14.8144 26.5431L13.5473 24.1886C13.4154 23.9406 13.2523 23.7724 13.059 23.6832C12.8653 23.5948 12.6366 23.5502 12.3723 23.5502H11.3692V26.2368C11.3692 26.5736 11.2834 26.8353 11.1122 27.0215C10.9414 27.2089 10.6883 27.3016 10.354 27.3016ZM11.3703 22.0618H13.2053C14.3051 22.0618 14.8552 21.6182 14.8552 20.7318C14.8552 19.854 14.3051 19.4151 13.2053 19.4151H11.3703V22.0618Z" fill="#40396E"/>
</svg>
