<svg width="50" height="50" viewBox="0 0 50 50" fill="none" xmlns="http://www.w3.org/2000/svg">
<g clip-path="url(#clip0_281_8834)">
<path d="M20.3125 7.03125H4.6875V1.5625C4.6875 1.1481 4.85212 0.750671 5.14515 0.457646C5.43817 0.16462 5.8356 0 6.25 0L18.75 0C19.1644 0 19.5618 0.16462 19.8549 0.457646C20.1479 0.750671 20.3125 1.1481 20.3125 1.5625V7.03125Z" fill="#E2DBD5"/>
<path d="M20.3288 5.46875H14.0625V50H25.0325V14.0625L20.3288 5.46875Z" fill="#D4CCC7"/>
<path d="M14.0625 5.46875H20.3288V50H14.0625V5.46875Z" fill="#C6BAB3"/>
<path d="M16.5625 12.5L15.625 14.0625V50H1.5625C1.1481 50 0.750671 49.8354 0.457646 49.5424C0.16462 49.2493 0 48.8519 0 48.4375V14.0625C0.285937 13.5859 0.690405 13.1916 1.17402 12.9177C1.65764 12.6439 2.20392 12.5 2.75967 12.5H16.5625Z" fill="#E2DBD5"/>
<path d="M39.8438 0H30.4688C30.0373 0 29.6875 0.349778 29.6875 0.78125V7.03125C29.6875 7.46272 30.0373 7.8125 30.4688 7.8125H39.8438C40.2752 7.8125 40.625 7.46272 40.625 7.03125V0.78125C40.625 0.349778 40.2752 0 39.8438 0Z" fill="#FFEAD2"/>
<path d="M39.8437 0H37.5C37.5002 1.64511 37.0283 3.25572 36.1402 4.64056C35.2522 6.0254 33.9854 7.12629 32.4902 7.8125H39.8437C40.0509 7.8125 40.2497 7.73019 40.3962 7.58368C40.5427 7.43716 40.625 7.23845 40.625 7.03125V0.78125C40.625 0.57405 40.5427 0.375336 40.3962 0.228823C40.2497 0.08231 40.0509 0 39.8437 0Z" fill="#FADDC3"/>
<path d="M29.6875 2.34375H40.625V3.90625H29.6875V2.34375Z" fill="#F5D3B8"/>
<path d="M42.9688 50H27.3438C27.1365 50 26.9378 49.9177 26.7913 49.7712C26.6448 49.6247 26.5625 49.426 26.5625 49.2188V19.5312C26.5657 18.2113 26.8713 16.9097 27.4561 15.7263C28.0408 14.543 28.889 13.5094 29.9355 12.7051C31.5319 11.4838 28.125 10.2816 28.125 8.47979C28.1257 7.88862 28.3608 7.32185 28.7788 6.90383C29.1969 6.48581 29.7636 6.25067 30.3548 6.25H39.9577C40.5489 6.25067 41.1156 6.48581 41.5337 6.90383C41.9517 7.32185 42.1868 7.88862 42.1875 8.47979C42.1875 9.4709 41.1067 10.3743 41.1067 10.3743C40.2416 11.0987 39.6037 12.1132 40.377 12.7047C41.4235 13.5091 42.2718 14.5427 42.8565 15.7261C43.4412 16.9095 43.7469 18.2113 43.75 19.5312V49.2188C43.75 49.426 43.6677 49.6247 43.5212 49.7712C43.3747 49.9177 43.176 50 42.9688 50Z" fill="#F09B73"/>
<path d="M26.5625 30.4096V49.2188C26.5625 49.426 26.6448 49.6247 26.7913 49.7712C26.9378 49.9177 27.1365 50 27.3438 50H42.9688C43.176 50 43.3747 49.9177 43.5212 49.7712C43.6677 49.6247 43.75 49.426 43.75 49.2188V19.5312C43.7497 19.0923 43.7154 18.654 43.6474 18.2203C42.1781 21.6142 39.8106 24.5429 36.8 26.6908C33.7894 28.8388 30.2498 30.1245 26.5625 30.4096Z" fill="#E58B6C"/>
<path d="M15.625 14.0625H0L4.6875 5.46875H20.3125L15.625 14.0625Z" fill="#EFEBE8"/>
<path d="M27.3438 50C32.666 50 39.4992 48.8965 42.7321 45.7796C42.8417 45.6743 42.9177 45.539 42.9505 45.3907C42.9833 45.2424 42.9715 45.0876 42.9166 44.946L36.5162 28.4673C36.4457 28.288 36.3115 28.141 36.1394 28.0544C35.9674 27.9679 35.7694 27.9477 35.5834 27.998C33.4275 28.5759 33.0633 25.8179 34.4616 25.1207C34.6344 25.0354 34.769 24.8886 34.839 24.709C34.9089 24.5295 34.9092 24.3303 34.8396 24.1506L33.5416 20.8087C33.4842 20.6622 33.3839 20.5364 33.2538 20.4479C33.1237 20.3593 32.9699 20.3122 32.8125 20.3125H27.3438V50Z" fill="#EED60F"/>
<path d="M27.3438 50C23.6427 50.0114 20.0835 48.5773 17.4241 46.0033C17.3144 45.8966 17.2384 45.7601 17.2056 45.6106C17.1728 45.4611 17.1846 45.3052 17.2396 45.1624L18.1951 42.681C18.249 42.5411 18.3419 42.4197 18.4628 42.3312C18.5837 42.2427 18.7276 42.1909 18.8771 42.1818C20.04 42.1117 20.8205 40.5154 19.8856 39.5527C19.7817 39.4457 19.7106 39.3111 19.6807 39.1649C19.6509 39.0187 19.6635 38.8671 19.7171 38.7278L22.2415 32.1714C22.2841 32.0641 22.3498 31.9676 22.4339 31.8885C22.5179 31.8094 22.6183 31.7497 22.7279 31.7137C22.8376 31.6777 22.9538 31.6662 23.0684 31.68C23.1829 31.6938 23.2931 31.7326 23.391 31.7937C25.3429 33.0393 26.7087 29.2953 24.4961 28.9313C24.3823 28.9111 24.2743 28.8662 24.1798 28.7996C24.0853 28.7331 24.0065 28.6466 23.9491 28.5463C23.8916 28.446 23.8569 28.3343 23.8474 28.2191C23.8378 28.104 23.8537 27.9881 23.8938 27.8797L26.6146 20.813C26.6714 20.6657 26.7714 20.539 26.9016 20.4497C27.0317 20.3603 27.1859 20.3125 27.3438 20.3125C27.5016 20.3125 27.6558 20.3603 27.7859 20.4497C27.9161 20.539 28.0161 20.6657 28.0729 20.813L37.4479 45.1624C37.5029 45.3052 37.5147 45.4611 37.4819 45.6106C37.4491 45.7601 37.3731 45.8966 37.2634 46.0033C34.604 48.5773 31.0448 50.0114 27.3438 50Z" fill="#F8E868"/>
<path d="M37.4479 45.1624L33.4037 34.6587C31.9762 37.7894 29.7475 40.4877 26.9428 42.4808C24.1382 44.474 20.857 45.6913 17.4311 46.0099C20.0972 48.5713 23.6513 50.0012 27.3485 50C31.0457 49.9988 34.5989 48.5665 37.2634 46.0033C37.3731 45.8966 37.4491 45.7601 37.4819 45.6106C37.5147 45.4611 37.5029 45.3052 37.4479 45.1624Z" fill="#F6E23D"/>
<path d="M30.4688 44.5312C31.7632 44.5312 32.8125 43.4819 32.8125 42.1875C32.8125 40.8931 31.7632 39.8438 30.4688 39.8438C29.1743 39.8438 28.125 40.8931 28.125 42.1875C28.125 43.4819 29.1743 44.5312 30.4688 44.5312Z" fill="#F8E868"/>
<path d="M28.125 39.0625C29.4194 39.0625 30.4688 38.0132 30.4688 36.7188C30.4688 35.4243 29.4194 34.375 28.125 34.375C26.8306 34.375 25.7812 35.4243 25.7812 36.7188C25.7812 38.0132 26.8306 39.0625 28.125 39.0625Z" fill="#F6E23D"/>
<path d="M24.2188 46.0938C25.5132 46.0938 26.5625 45.0444 26.5625 43.75C26.5625 42.4556 25.5132 41.4062 24.2188 41.4062C22.9243 41.4062 21.875 42.4556 21.875 43.75C21.875 45.0444 22.9243 46.0938 24.2188 46.0938Z" fill="#F8E868"/>
<path d="M29.6875 43.75C29.6875 43.384 29.7732 43.0232 29.9378 42.6963C30.1023 42.3694 30.3411 42.0856 30.6351 41.8676C30.929 41.6496 31.2699 41.5034 31.6305 41.4408C31.9911 41.3783 32.3613 41.401 32.7115 41.5072C32.594 41.1197 32.3781 40.7693 32.0849 40.49C31.7916 40.2108 31.431 40.0123 31.0382 39.9139C30.6454 39.8155 30.2338 39.8205 29.8436 39.9285C29.4533 40.0365 29.0977 40.2438 28.8114 40.5301C28.525 40.8164 28.3178 41.1721 28.2098 41.5623C28.1018 41.9526 28.0967 42.3642 28.1951 42.757C28.2936 43.1498 28.4921 43.5104 28.7713 43.8036C29.0505 44.0969 29.401 44.3128 29.7885 44.4303C29.7215 44.2097 29.6874 43.9805 29.6875 43.75ZM27.3438 38.2813C27.3438 37.9153 27.4295 37.5544 27.594 37.2275C27.7586 36.9006 27.9974 36.6168 28.2913 36.3988C28.5853 36.1808 28.9262 36.0347 29.2868 35.9721C29.6473 35.9095 30.0176 35.9323 30.3678 36.0385C30.2503 35.651 30.0344 35.3005 29.7411 35.0213C29.4479 34.7421 29.0873 34.5436 28.6945 34.4452C28.3017 34.3467 27.8901 34.3518 27.4998 34.4598C27.1096 34.5678 26.7539 34.775 26.4676 35.0614C26.1813 35.3477 25.974 35.7033 25.866 36.0936C25.758 36.4838 25.753 36.8954 25.8514 37.2882C25.9498 37.681 26.1483 38.0416 26.4275 38.3349C26.7068 38.6281 27.0572 38.844 27.4447 38.9615C27.3777 38.741 27.3437 38.5117 27.3438 38.2813ZM23.4375 45.3125C23.4375 44.9465 23.5232 44.5857 23.6878 44.2588C23.8523 43.9319 24.0911 43.6481 24.3851 43.4301C24.679 43.2121 25.0199 43.0659 25.3805 43.0033C25.7411 42.9408 26.1113 42.9635 26.4615 43.0697C26.344 42.6822 26.1281 42.3318 25.8349 42.0525C25.5416 41.7733 25.181 41.5748 24.7882 41.4764C24.3954 41.378 23.9838 41.383 23.5936 41.491C23.2033 41.599 22.8477 41.8063 22.5614 42.0926C22.275 42.3789 22.0678 42.7346 21.9598 43.1248C21.8518 43.5151 21.8467 43.9267 21.9451 44.3195C22.0436 44.7123 22.2421 45.0729 22.5213 45.3661C22.8005 45.6594 23.151 45.8753 23.5385 45.9928C23.4715 45.7722 23.4374 45.543 23.4375 45.3125Z" fill="#EED60F"/>
<path d="M27.3438 28.9062C28.2067 28.9062 28.9062 28.2067 28.9062 27.3438C28.9062 26.4808 28.2067 25.7812 27.3438 25.7812C26.4808 25.7812 25.7812 26.4808 25.7812 27.3438C25.7812 28.2067 26.4808 28.9062 27.3438 28.9062Z" fill="#FCF5BE"/>
<path d="M28.9062 31.25C29.3377 31.25 29.6875 30.9002 29.6875 30.4688C29.6875 30.0373 29.3377 29.6875 28.9062 29.6875C28.4748 29.6875 28.125 30.0373 28.125 30.4688C28.125 30.9002 28.4748 31.25 28.9062 31.25Z" fill="#FCF5BE"/>
<path d="M32.8157 32.0312L34.3782 49.2895C34.3959 49.4836 34.4855 49.6642 34.6294 49.7956C34.7734 49.9271 34.9613 50 35.1563 50H46.0938C46.2887 50 46.4766 49.9271 46.6206 49.7956C46.7645 49.6642 46.8541 49.4836 46.8718 49.2895L48.4343 32.0312H32.8157Z" fill="#81C784"/>
<path d="M34.7656 16.4062C35.8443 16.4062 36.7188 15.5318 36.7188 14.4531C36.7188 13.3744 35.8443 12.5 34.7656 12.5C33.6869 12.5 32.8125 13.3744 32.8125 14.4531C32.8125 15.5318 33.6869 16.4062 34.7656 16.4062Z" fill="#F2BBA5"/>
<path d="M37.8906 18.75C38.5378 18.75 39.0625 18.2253 39.0625 17.5781C39.0625 16.9309 38.5378 16.4062 37.8906 16.4062C37.2434 16.4062 36.7188 16.9309 36.7188 17.5781C36.7188 18.2253 37.2434 18.75 37.8906 18.75Z" fill="#F2BBA5"/>
<path d="M6.25 10.9375C7.11295 10.9375 7.8125 10.2379 7.8125 9.375C7.8125 8.51206 7.11295 7.8125 6.25 7.8125C5.38706 7.8125 4.6875 8.51206 4.6875 9.375C4.6875 10.2379 5.38706 10.9375 6.25 10.9375Z" fill="white"/>
<path d="M8.59375 12.5C9.02522 12.5 9.375 12.1502 9.375 11.7188C9.375 11.2873 9.02522 10.9375 8.59375 10.9375C8.16228 10.9375 7.8125 11.2873 7.8125 11.7188C7.8125 12.1502 8.16228 12.5 8.59375 12.5Z" fill="white"/>
<path d="M36.7188 37.5C37.5817 37.5 38.2812 36.8004 38.2812 35.9375C38.2812 35.0746 37.5817 34.375 36.7188 34.375C35.8558 34.375 35.1562 35.0746 35.1562 35.9375C35.1562 36.8004 35.8558 37.5 36.7188 37.5Z" fill="#C8E6C9"/>
<path d="M39.0625 39.0625C39.494 39.0625 39.8438 38.7127 39.8438 38.2812C39.8438 37.8498 39.494 37.5 39.0625 37.5C38.631 37.5 38.2812 37.8498 38.2812 38.2812C38.2812 38.7127 38.631 39.0625 39.0625 39.0625Z" fill="#C8E6C9"/>
<path d="M0 48.4375C0 48.8519 0.16462 49.2493 0.457646 49.5424C0.750671 49.8354 1.1481 50 1.5625 50H15.625V42.1875C12.9297 48.3551 0 48.4375 0 48.4375Z" fill="#D4CCC7"/>
<path d="M0 20.3125H15.625V42.1875H0V20.3125Z" fill="#EA6049"/>
<path d="M0 36.3562V42.1875H15.625V23.6027C14.2904 26.8627 12.1617 29.7371 9.43278 31.9646C6.70384 34.192 3.46123 35.7017 0 36.3562Z" fill="#DE513E"/>
<path d="M3.125 32.8125C3.125 30.5185 7.03125 25 7.8125 25C8.59375 25 12.5 30.4085 12.5 32.8125C12.5 38.4197 3.125 39.248 3.125 32.8125Z" fill="white"/>
<path d="M3.52441 34.8817C5.3125 38.9675 12.5 37.7221 12.5 32.8125C12.5 32.264 12.2962 31.5587 11.9727 30.7973C10.677 33.9897 6.95625 35.8815 3.52441 34.8817Z" fill="#EFEBE8"/>
<path d="M49.2188 32.8125H32.0312C31.824 32.8125 31.6253 32.7302 31.4788 32.5837C31.3323 32.4372 31.25 32.2385 31.25 32.0312C31.25 31.824 31.3323 31.6253 31.4788 31.4788C31.6253 31.3323 31.824 31.25 32.0312 31.25H49.2188C49.426 31.25 49.6247 31.3323 49.7712 31.4788C49.9177 31.6253 50 31.824 50 32.0312C50 32.2385 49.9177 32.4372 49.7712 32.5837C49.6247 32.7302 49.426 32.8125 49.2188 32.8125Z" fill="#49AD4D"/>
<path d="M33.9844 44.9357L34.3785 49.2895C34.3962 49.4836 34.4857 49.6641 34.6296 49.7955C34.7735 49.927 34.9613 49.9999 35.1562 50H46.0938C46.2887 50 46.4766 49.9271 46.6206 49.7956C46.7645 49.6642 46.8541 49.4836 46.8718 49.2895L48.0782 35.964C46.716 38.5591 44.6984 40.7525 42.2259 42.3264C39.7534 43.9004 36.9121 44.7999 33.9844 44.9357Z" fill="#66BB6A"/>
</g>
<defs>
<clipPath id="clip0_281_8834">
<rect width="50" height="50" fill="white"/>
</clipPath>
</defs>
</svg>
