<svg width="51" height="51" viewBox="0 0 51 51" fill="none" xmlns="http://www.w3.org/2000/svg">
<path d="M48.4879 0.500009H26.1088C24.9977 0.500009 24.0968 1.40081 24.0968 2.51208V19.046C24.0968 20.1573 24.9977 21.0581 26.1088 21.0581H42.344L46.1983 24.9124V21.0581H48.4879C49.5992 21.0581 50.5 20.1573 50.5 19.046V2.51208C50.5 1.40081 49.5992 0.500009 48.4879 0.500009Z" fill="#F7F7F7"/>
<path d="M48.4879 0.500009H45.4698C46.5811 0.500009 47.4819 1.40081 47.4819 2.51208V19.046C47.4819 20.1573 46.5811 21.0581 45.4698 21.0581H42.344L46.1983 24.9124V21.0581H48.4879C49.5992 21.0581 50.5 20.1573 50.5 19.046V2.51208C50.5 1.40081 49.5992 0.500009 48.4879 0.500009Z" fill="#EFEFEF"/>
<path d="M33.6712 8.80222C34.0566 8.80221 34.4334 8.68832 34.7543 8.47483C35.0752 8.26135 35.3259 7.9578 35.4748 7.60232L37.451 3.89095C38.5422 3.89095 39.4267 4.77556 39.4267 5.8667V7.59709C39.4267 8.19115 39.9084 8.67284 40.5025 8.67284H43.4202C44.2937 8.67284 44.9419 9.4828 44.7505 10.3351L43.3783 15.5281C43.2899 15.863 43.0931 16.1593 42.8186 16.3707C42.5441 16.5821 42.2074 16.6967 41.8609 16.6967H35.4629C34.7296 16.6967 34.2966 16.494 33.6712 16.1109V8.80222Z" fill="#FFDFBD"/>
<path d="M32.5777 17.6266H31.3083C30.7045 17.6266 30.215 17.137 30.215 16.5331V8.91851C30.215 8.31468 30.7045 7.82515 31.3083 7.82515H32.5777C33.1816 7.82515 33.6711 8.31468 33.6711 8.91851V16.5331C33.6711 17.137 33.1816 17.6266 32.5777 17.6266Z" fill="#3498AC"/>
<path d="M2.51205 12.7062H24.8911C26.0023 12.7062 26.9032 13.6072 26.9032 14.7183V31.2522C26.9032 32.3635 26.0023 33.2643 24.8911 33.2643H8.65591L4.80169 37.1186V33.2643H2.51205C1.40078 33.2643 0.499975 32.3635 0.499975 31.2522V14.7183C0.499975 13.6072 1.40078 12.7062 2.51205 12.7062Z" fill="#FFE66B"/>
<path d="M17.5132 16.5946C15.8495 16.5945 14.4087 17.5602 13.7017 18.9692C12.9949 17.5601 11.5543 16.5942 9.89052 16.594C7.52895 16.5939 5.61436 18.5385 5.61416 20.9375C5.61366 26.7969 13.7008 29.9413 13.7008 29.9413C13.7008 29.9413 21.7885 26.7981 21.789 20.9388C21.7892 18.5397 19.8748 16.5948 17.5132 16.5946Z" fill="#FF815C"/>
<path d="M17.5132 16.5946C16.9974 16.5941 16.4859 16.6886 16.0043 16.8733C17.621 17.4933 18.771 19.0795 18.7709 20.9388C18.7705 25.1804 14.5324 27.9985 12.192 29.2314C13.0845 29.7016 13.7008 29.9413 13.7008 29.9413C13.7008 29.9413 21.7885 26.7981 21.789 20.9388C21.7892 18.5397 19.8748 16.5948 17.5132 16.5946Z" fill="#FC6D44"/>
<path d="M40.0475 26.0876H17.6684C16.5571 26.0876 15.6563 26.9885 15.6563 28.0997V44.6336C15.6563 45.7449 16.5571 46.6457 17.6684 46.6457H33.9036L37.7578 50.5V46.6457H40.0475C41.1586 46.6457 42.0595 45.7449 42.0595 44.6336V28.0997C42.0595 26.9885 41.1586 26.0876 40.0475 26.0876Z" fill="#C9F0FF"/>
<path d="M40.0475 26.0876H37.0294C38.1405 26.0876 39.0414 26.9885 39.0414 28.0997V44.6336C39.0414 45.7449 38.1405 46.6457 37.0294 46.6457H33.9036L37.7578 50.5V46.6457H40.0475C41.1586 46.6457 42.0595 45.7449 42.0595 44.6336V28.0997C42.0595 26.9885 41.1586 26.0876 40.0475 26.0876Z" fill="#B5EAFF"/>
<path d="M24.272 36.5749C24.272 37.6354 23.4123 38.495 22.352 38.495C21.2915 38.495 20.4319 37.6354 20.4319 36.5749C20.4319 35.5145 21.2915 34.6549 22.352 34.6549C23.4123 34.6549 24.272 35.5145 24.272 36.5749Z" fill="white"/>
<path d="M30.7779 36.5749C30.7779 37.6354 29.9183 38.495 28.8578 38.495C27.7975 38.495 26.9378 37.6354 26.9378 36.5749C26.9378 35.5145 27.7975 34.6549 28.8578 34.6549C29.9183 34.6549 30.7779 35.5145 30.7779 36.5749Z" fill="white"/>
<path d="M37.2837 36.5749C37.2837 37.6354 36.424 38.495 35.3637 38.495C34.3032 38.495 33.4435 37.6354 33.4435 36.5749C33.4435 35.5145 34.3032 34.6549 35.3637 34.6549C36.424 34.6549 37.2837 35.5145 37.2837 36.5749Z" fill="white"/>
</svg>
