<svg width="50" height="50" viewBox="0 0 50 50" fill="none" xmlns="http://www.w3.org/2000/svg">
<path fill-rule="evenodd" clip-rule="evenodd" d="M49.1667 13.1579C47.0333 13.1579 47.0333 14.7368 44.9 14.7368C42.7667 14.7368 42.7667 13.1579 40.625 13.1579C38.4833 13.1579 38.4917 14.7368 36.3583 14.7368C34.225 14.7368 34.225 13.1579 32.0917 13.1579C29.9583 13.1579 29.9583 14.7368 27.825 14.7368C25.6917 14.7368 23.775 12.9921 21.9 12.2263C20.0048 11.3541 17.9388 10.8648 15.8333 10.7895C7.54917 10.7895 0.833336 17.1518 0.833336 25C0.833336 32.8482 7.54917 39.2105 15.8333 39.2105C17.9388 39.1352 20.0048 38.6459 21.9 37.7737C23.775 37.0079 25.7 35.2632 27.825 35.2632C29.95 35.2632 29.9583 36.8421 32.0917 36.8421C34.225 36.8421 34.225 35.2632 36.3583 35.2632C38.4917 35.2632 38.4917 36.8421 40.625 36.8421C42.7583 36.8421 42.7667 35.2632 44.9 35.2632C47.0333 35.2632 47.0333 36.8421 49.1667 36.8421V13.1579Z" fill="#65DDB9"/>
<path fill-rule="evenodd" clip-rule="evenodd" d="M15.8333 40C7.08917 40 0 33.2839 0 25C0 16.7161 7.08917 10 15.8333 10C18.0525 10.0766 20.2317 10.5874 22.2325 11.5C22.9325 11.8079 23.61 12.1616 24.2592 12.5579C25.4358 13.2416 26.6525 13.9474 27.825 13.9474C28.431 13.9518 29.014 13.728 29.4458 13.3253C30.1738 12.7091 31.1159 12.3684 32.0921 12.3684C33.0683 12.3684 34.0104 12.7091 34.7383 13.3253C35.1726 13.7243 35.7538 13.9474 36.3587 13.9474C36.9637 13.9474 37.5449 13.7243 37.9792 13.3253C38.7087 12.7088 39.652 12.3681 40.6296 12.3681C41.6071 12.3681 42.5505 12.7088 43.28 13.3253C43.7144 13.7241 44.2955 13.9471 44.9004 13.9471C45.5053 13.9471 46.0865 13.7241 46.5208 13.3253C47.2441 12.7021 48.189 12.3604 49.1667 12.3684C49.3877 12.3684 49.5996 12.4516 49.7559 12.5997C49.9122 12.7477 50 12.9485 50 13.1579C50 13.3673 49.9122 13.5681 49.7559 13.7161C49.5996 13.8642 49.3877 13.9474 49.1667 13.9474C48.8667 13.945 48.5692 13.9987 48.2912 14.1054C48.0132 14.2122 47.7602 14.3699 47.5467 14.5695C46.8186 15.1851 45.8768 15.5254 44.9008 15.5254C43.9249 15.5254 42.9831 15.1851 42.255 14.5695C41.8196 14.1692 41.2367 13.9453 40.63 13.9453C40.0233 13.9453 39.4404 14.1692 39.005 14.5695C38.277 15.1857 37.335 15.5263 36.3587 15.5263C35.3825 15.5263 34.4405 15.1857 33.7125 14.5695C33.2781 14.1704 32.6968 13.9472 32.0917 13.9472C31.4866 13.9472 30.9052 14.1704 30.4708 14.5695C29.7477 15.1929 28.8027 15.5347 27.825 15.5263C26.1833 15.5263 24.6992 14.6658 23.3892 13.9071C22.8069 13.5493 22.1994 13.2298 21.5708 12.9511C19.7771 12.1277 17.8246 11.6608 15.8333 11.5789C8.00917 11.5789 1.66667 17.5876 1.66667 25C1.66667 32.4124 8.00917 38.4211 15.8333 38.4211C17.8237 38.3394 19.7754 37.8727 21.5683 37.0497C22.1978 36.7709 22.8062 36.4512 23.3892 36.0929C24.6992 35.3342 26.1833 34.4737 27.825 34.4737C28.8027 34.4653 29.7477 34.8071 30.4708 35.4305C30.9052 35.8296 31.4866 36.0528 32.0917 36.0528C32.6968 36.0528 33.2781 35.8296 33.7125 35.4305C34.4405 34.8143 35.3825 34.4737 36.3587 34.4737C37.335 34.4737 38.277 34.8143 39.005 35.4305C39.4404 35.8308 40.0233 36.0547 40.63 36.0547C41.2367 36.0547 41.8196 35.8308 42.255 35.4305C42.9831 34.8149 43.9249 34.4746 44.9008 34.4746C45.8768 34.4746 46.8186 34.8149 47.5467 35.4305C47.9783 35.8332 48.5608 36.0574 49.1667 36.0526C49.3877 36.0526 49.5996 36.1358 49.7559 36.2839C49.9122 36.4319 50 36.6327 50 36.8421C50 37.0515 49.9122 37.2523 49.7559 37.4003C49.5996 37.5484 49.3877 37.6316 49.1667 37.6316C48.189 37.6396 47.2441 37.2979 46.5208 36.6747C46.0865 36.2759 45.5053 36.0529 44.9004 36.0529C44.2955 36.0529 43.7144 36.2759 43.28 36.6747C42.5505 37.2912 41.6071 37.6319 40.6296 37.6319C39.652 37.6319 38.7087 37.2912 37.9792 36.6747C37.5449 36.2757 36.9637 36.0526 36.3587 36.0526C35.7538 36.0526 35.1726 36.2757 34.7383 36.6747C34.0104 37.2909 33.0683 37.6316 32.0921 37.6316C31.1159 37.6316 30.1738 37.2909 29.4458 36.6747C29.014 36.272 28.431 36.0482 27.825 36.0526C26.6525 36.0526 25.4358 36.7584 24.2592 37.4397C23.6096 37.8374 22.9315 38.1916 22.23 38.5C20.2298 39.4126 18.0519 39.9233 15.8333 40Z" fill="#46B29D"/>
<path fill-rule="evenodd" clip-rule="evenodd" d="M22.6783 16.8842C22.4754 16.736 22.2387 16.6345 21.9872 16.5879C21.7357 16.5414 21.4761 16.5509 21.2292 16.6158L13.7292 18.5532C13.3762 18.6441 13.0646 18.8426 12.8424 19.118C12.6203 19.3933 12.5 19.7303 12.5 20.0768V28.6126C11.8532 28.3073 11.1393 28.1515 10.4167 28.1579C8.31416 28.1579 6.66666 29.3713 6.66666 30.9211C6.66666 32.4708 8.31416 33.6842 10.4167 33.6842C12.5192 33.6842 14.1667 32.4708 14.1667 30.9211V24.0242L21.6667 22.0861V27.0337C21.0199 26.7284 20.3059 26.5726 19.5833 26.5789C17.4808 26.5789 15.8333 27.7924 15.8333 29.3421C15.8333 30.8918 17.4808 32.1053 19.5833 32.1053C21.6858 32.1053 23.3333 30.8918 23.3333 29.3421V18.1395C23.3343 17.8965 23.2756 17.6566 23.162 17.4387C23.0483 17.2209 22.8827 17.031 22.6783 16.8842Z" fill="#955BA5"/>
<path fill-rule="evenodd" clip-rule="evenodd" d="M30.85 32.1053C30.629 32.1053 30.417 32.0221 30.2607 31.874C30.1044 31.726 30.0167 31.5252 30.0167 31.3158V18.6842C30.0167 18.4748 30.1044 18.274 30.2607 18.126C30.417 17.9779 30.629 17.8947 30.85 17.8947C31.071 17.8947 31.283 17.9779 31.4392 18.126C31.5955 18.274 31.6833 18.4748 31.6833 18.6842V31.3158C31.6833 31.5252 31.5955 31.726 31.4392 31.874C31.283 32.0221 31.071 32.1053 30.85 32.1053ZM27.5167 28.1579C27.2956 28.1579 27.0837 28.0747 26.9274 27.9267C26.7711 27.7786 26.6833 27.5778 26.6833 27.3684V22.6316C26.6833 22.4222 26.7711 22.2214 26.9274 22.0733C27.0837 21.9253 27.2956 21.8421 27.5167 21.8421C27.7377 21.8421 27.9496 21.9253 28.1059 22.0733C28.2622 22.2214 28.35 22.4222 28.35 22.6316V27.3684C28.35 27.5778 28.2622 27.7786 28.1059 27.9267C27.9496 28.0747 27.7377 28.1579 27.5167 28.1579ZM34.1833 28.9474C33.9623 28.9474 33.7503 28.8642 33.5941 28.7161C33.4378 28.5681 33.35 28.3673 33.35 28.1579V21.8421C33.35 21.6327 33.4378 21.4319 33.5941 21.2839C33.7503 21.1358 33.9623 21.0526 34.1833 21.0526C34.4043 21.0526 34.6163 21.1358 34.7726 21.2839C34.9289 21.4319 35.0167 21.6327 35.0167 21.8421V28.1579C35.0167 28.3673 34.9289 28.5681 34.7726 28.7161C34.6163 28.8642 34.4043 28.9474 34.1833 28.9474ZM37.5167 29.7368C37.2956 29.7368 37.0837 29.6537 36.9274 29.5056C36.7711 29.3576 36.6833 29.1567 36.6833 28.9474V21.0526C36.6833 20.8432 36.7711 20.6424 36.9274 20.4944C37.0837 20.3463 37.2956 20.2632 37.5167 20.2632C37.7377 20.2632 37.9496 20.3463 38.1059 20.4944C38.2622 20.6424 38.35 20.8432 38.35 21.0526V28.9474C38.35 29.1567 38.2622 29.3576 38.1059 29.5056C37.9496 29.6537 37.7377 29.7368 37.5167 29.7368ZM40.85 33.6842C40.629 33.6842 40.417 33.601 40.2607 33.453C40.1044 33.3049 40.0167 33.1041 40.0167 32.8947V17.1053C40.0167 16.8959 40.1044 16.6951 40.2607 16.547C40.417 16.399 40.629 16.3158 40.85 16.3158C41.071 16.3158 41.283 16.399 41.4392 16.547C41.5955 16.6951 41.6833 16.8959 41.6833 17.1053V32.8947C41.6833 33.1041 41.5955 33.3049 41.4392 33.453C41.283 33.601 41.071 33.6842 40.85 33.6842ZM44.1833 31.3158C43.9623 31.3158 43.7503 31.2326 43.5941 31.0846C43.4378 30.9365 43.35 30.7357 43.35 30.5263V19.4737C43.35 19.2643 43.4378 19.0635 43.5941 18.9154C43.7503 18.7674 43.9623 18.6842 44.1833 18.6842C44.4043 18.6842 44.6163 18.7674 44.7726 18.9154C44.9289 19.0635 45.0167 19.2643 45.0167 19.4737V30.5263C45.0167 30.7357 44.9289 30.9365 44.7726 31.0846C44.6163 31.2326 44.4043 31.3158 44.1833 31.3158ZM47.5167 28.1579C47.2956 28.1579 47.0837 28.0747 46.9274 27.9267C46.7711 27.7786 46.6833 27.5778 46.6833 27.3684V22.6316C46.6833 22.4222 46.7711 22.2214 46.9274 22.0733C47.0837 21.9253 47.2956 21.8421 47.5167 21.8421C47.7377 21.8421 47.9496 21.9253 48.1059 22.0733C48.2622 22.2214 48.35 22.4222 48.35 22.6316V27.3684C48.35 27.5778 48.2622 27.7786 48.1059 27.9267C47.9496 28.0747 47.7377 28.1579 47.5167 28.1579Z" fill="#E57E25"/>
</svg>
