<svg width="50" height="50" viewBox="0 0 50 50" fill="none" xmlns="http://www.w3.org/2000/svg">
<path d="M3.44724 26.8563C2.84177 26.9497 2.25912 26.9964 1.69926 26.9964C1.13939 26.9964 0.572973 26.9497 0 26.8563L0.102665 26.5045C0.708022 26.6098 1.27926 26.6625 1.81637 26.6625C2.18749 26.6625 2.59924 26.6338 3.05163 26.5763L3.14446 26.2495H0.175826L0.449251 25.3016C1.05799 25.2083 1.64228 25.1616 2.20215 25.1616C2.76201 25.1616 3.32674 25.2083 3.89634 25.3016L3.79382 25.6535C3.19164 25.5506 2.62199 25.4991 2.08488 25.4991C1.71386 25.4991 1.3021 25.5266 0.849628 25.5816L0.756798 25.8977H3.72543L3.44724 26.8563ZM5.13398 25.8904H6.13991C6.71924 25.8904 7.21562 25.8797 7.62907 25.8582L7.70715 25.5853C7.27423 25.5278 6.8592 25.4991 6.46206 25.4991C6.09103 25.4991 5.67928 25.5266 5.22681 25.5816L5.13398 25.8904ZM3.95728 25.8904H4.65552L4.82643 25.3016C5.43516 25.2083 6.01946 25.1616 6.57933 25.1616C7.13918 25.1616 7.70391 25.2083 8.27352 25.3016L8.171 25.6535H8.16608L8.01961 26.1598C7.33279 26.2148 6.67364 26.2424 6.04216 26.2424H5.03638L4.81674 26.9928H4.33814L4.55792 26.2424H3.85968L3.95728 25.8904ZM9.38048 25.1616H9.85893L9.32669 26.9928H8.84823L9.38048 25.1616ZM13.6274 26.5726L13.9107 25.5853C13.4778 25.5278 13.0611 25.4991 12.6607 25.4991C12.5793 25.4991 12.2977 25.4943 11.816 25.4848L11.4548 25.4775L11.113 26.6517H10.6345L12.3922 26.6553C12.7633 26.6553 13.175 26.6277 13.6274 26.5726ZM14.023 26.8527C13.4176 26.9461 12.8349 26.9928 12.2751 26.9928H10.5368L11.069 25.1616H12.7779C13.3378 25.1616 13.9025 25.2083 14.4721 25.3016L14.023 26.8527ZM14.894 25.8904H15.8071L15.9388 25.4345H15.9437L16.0072 25.2227C16.5084 25.182 17.1302 25.1616 17.8724 25.1616C18.582 25.1616 19.1679 25.1831 19.6301 25.2262L19.5276 25.5816C18.8994 25.5194 18.2614 25.4883 17.6136 25.4883C17.1709 25.4883 16.7623 25.5038 16.388 25.535L16.2855 25.8904H18.6535L18.5559 26.2424H16.1879L16.0805 26.6014C16.4483 26.6325 16.8519 26.648 17.2913 26.648C17.9391 26.648 18.5836 26.6169 19.2248 26.5547L19.1223 26.9103C18.634 26.9653 18.04 26.9928 17.3402 26.9928C16.6078 26.9928 16.0007 26.9653 15.5189 26.9103L15.5922 26.6625H15.5873L15.7093 26.2424H14.7964L14.894 25.8904ZM23.5369 26.149C23.6736 26.1945 23.7761 26.2387 23.8444 26.2818L23.6394 26.9928H23.1608L23.322 26.4435C22.9607 26.319 22.5278 26.2543 22.0231 26.2495L20.8953 26.2388L20.6757 26.9928H20.1971L20.6854 25.3016C21.2941 25.2083 21.8784 25.1616 22.4383 25.1616C22.9981 25.1616 23.5628 25.2083 24.1324 25.3016L24.0299 25.6535H24.025L23.8933 26.1203L23.5369 26.149ZM20.9978 25.8869L22.3553 25.8904C22.6352 25.8904 23.016 25.8677 23.4977 25.8223L23.5661 25.5853C23.1332 25.5278 22.7181 25.4991 22.321 25.4991C21.95 25.4991 21.5382 25.5266 21.0857 25.5816L20.9978 25.8869ZM25.5503 25.8797H28.1137L27.9427 26.1525H25.3794L25.5503 25.8797ZM31.3948 25H31.8734L31.8245 25.1651C32.303 25.1771 32.7847 25.2226 33.2697 25.3016L32.7814 27H32.3029L32.7082 25.5853C32.373 25.5398 32.0459 25.5123 31.7269 25.5026L31.346 26.8348H30.8674L31.2483 25.5026C30.9359 25.5099 30.5941 25.5362 30.223 25.5816L29.8129 27H29.3343L29.8226 25.3016C30.3467 25.2202 30.8545 25.1747 31.346 25.1651L31.3948 25ZM34.923 25.5816L34.8304 25.8904H37.3204L37.4083 25.5853C36.9754 25.5278 36.5588 25.4991 36.1585 25.4991C35.7906 25.4991 35.3788 25.5266 34.923 25.5816ZM37.4816 26.9928H37.003L37.2179 26.2495H34.7279L34.513 26.9928H34.0345L34.5227 25.3016C35.1314 25.2083 35.7157 25.1616 36.2756 25.1616C36.8354 25.1616 37.4002 25.2083 37.9699 25.3016L37.4816 26.9928ZM39.7595 25.3016C39.9287 25.2753 40.0964 25.2525 40.2624 25.2334C40.2689 25.2334 40.2722 25.2358 40.2722 25.2405C40.2722 25.2501 40.2681 25.2651 40.26 25.2854C40.2518 25.3058 40.2477 25.3208 40.2478 25.3304C40.2477 25.3351 40.2494 25.3375 40.2527 25.3375C40.2754 25.3016 40.3031 25.2657 40.3357 25.2298C40.775 25.1843 41.1673 25.1616 41.5124 25.1616C42.0722 25.1616 42.6369 25.2083 43.2065 25.3016L42.7183 27H42.2398L42.6451 25.5853C42.2122 25.5278 41.7955 25.4991 41.3951 25.4991C41.0241 25.4991 40.6123 25.5266 40.1598 25.5816L39.7498 27H39.2712L39.7595 25.3016ZM46.382 25.8977H49.3506L49.4433 25.5816C49.0201 25.5266 48.6247 25.4991 48.2569 25.4991C47.7198 25.4991 47.1176 25.5506 46.4502 25.6535L46.5529 25.3016C47.1811 25.2083 47.7751 25.1616 48.335 25.1616C48.8949 25.1616 49.4499 25.2083 50 25.3016L49.7266 26.2495H46.7579L46.6651 26.5763C47.085 26.6338 47.4805 26.6625 47.8516 26.6625C48.3888 26.6625 48.9893 26.6098 49.6533 26.5045L49.5507 26.8563C48.9258 26.9497 48.3334 26.9964 47.7736 26.9964C47.2136 26.9964 46.657 26.9497 46.1037 26.8563L46.382 25.8977Z" fill="#FF0000"/>
</svg>
