<svg width="50" height="50" viewBox="0 0 50 50" fill="none" xmlns="http://www.w3.org/2000/svg">
<path opacity="0.2" d="M25 49.8588C11.1928 49.8588 0 38.7292 0 25C0 38.8071 11.1928 50 25 50C38.8072 50 50 38.8071 50 25C50 38.7292 38.8072 49.8588 25 49.8588Z" fill="#B71C1C"/>
<path opacity="0.2" d="M25 0.14125C38.8072 0.14125 50 11.2708 50 25C50 11.1929 38.8072 0 25 0C11.1928 0 0 11.1929 0 25C0 11.2708 11.1928 0.14125 25 0.14125Z" fill="white"/>
<path d="M25 49.8588C38.8071 49.8588 50 38.7291 50 25C50 11.2709 38.8071 0.14125 25 0.14125C11.1929 0.14125 0 11.2709 0 25C0 38.7291 11.1929 49.8588 25 49.8588Z" fill="#F44336"/>
<path d="M40.8317 16.1069C40.8317 16.1069 36.4623 21.5938 31.0318 25.9177C29.4715 27.16 27.8126 28.3469 26.1251 29.3435C26.5762 30.695 27.5249 32.1788 28.69 33.3017C28.761 33.3746 28.8331 33.4463 28.9062 33.5167C28.9773 33.5896 40.1776 44.7242 40.194 44.7406C45.9437 40.3583 49.7232 33.5494 49.9841 25.8523C49.9832 25.8465 49.991 25.469 49.991 25.469" fill="url(#paint0_linear_59_25)"/>
<path d="M24.0911 29.5583C24.0107 29.5108 23.9308 29.4608 23.8506 29.4125C23.8585 29.3896 23.8673 29.3663 23.8751 29.3433C22.1876 28.3467 20.5287 27.1598 18.9684 25.9175C18.3627 25.4343 17.7663 24.9398 17.1794 24.4342C17.1236 24.3694 17.0922 24.3323 17.0922 24.3323L17.0888 24.3565L17.062 24.3333C16.9403 24.1933 16.876 24.1173 16.876 24.1173L16.8718 24.1483C16.7339 23.9898 16.6598 23.9025 16.6598 23.9025L16.6556 23.9335C16.5175 23.775 16.4435 23.6877 16.4435 23.6877L16.4393 23.7187C16.3015 23.5602 16.2273 23.4729 16.2273 23.4729L16.2231 23.504C16.0853 23.3454 16.0111 23.2581 16.0111 23.2581L16.0069 23.2892C15.869 23.1306 15.7949 23.0433 15.7949 23.0433L15.7907 23.0744C15.6528 22.9158 15.5786 22.8285 15.5786 22.8285L15.5745 22.8596C15.4366 22.701 15.3624 22.6137 15.3624 22.6137L15.3582 22.6448C15.2204 22.4862 15.1462 22.399 15.1462 22.399L15.142 22.43C15.0041 22.2715 14.93 22.1842 14.93 22.1842L14.9258 22.2152C14.7879 22.0567 14.7138 21.9694 14.7138 21.9694L14.7096 22.0004C14.5717 21.8419 14.4975 21.7546 14.4975 21.7546L14.4933 21.7856C14.3555 21.6271 14.2813 21.5398 14.2813 21.5398L14.2771 21.5708C14.1393 21.4123 14.0651 21.325 14.0651 21.325L14.0609 21.356C13.923 21.1975 13.8489 21.1102 13.8489 21.1102L13.8447 21.1412C13.7068 20.9827 13.6326 20.8954 13.6326 20.8954L13.6285 20.9265C13.4906 20.7679 13.4164 20.6806 13.4164 20.6806L13.4122 20.7117C13.2744 20.5531 13.2002 20.4658 13.2002 20.4658L13.196 20.4969C13.0582 20.3383 12.984 20.251 12.984 20.251L12.9798 20.2821C12.8419 20.1235 12.7678 20.0362 12.7678 20.0362L12.7636 20.0673C12.6257 19.9087 12.5515 19.8215 12.5515 19.8215L12.5474 19.8525C12.4095 19.694 12.3353 19.6067 12.3353 19.6067L12.3311 19.6377C12.1931 19.4792 12.1191 19.3919 12.1191 19.3919L12.1151 19.4229C11.9773 19.2644 11.9031 19.1771 11.9031 19.1771L11.8991 19.2081C11.761 19.0496 11.6871 18.9623 11.6871 18.9623L11.6831 18.9933C11.545 18.8348 11.4711 18.7475 11.4711 18.7475L11.4671 18.7785C11.329 18.62 11.255 18.5327 11.255 18.5327L11.2511 18.5637C11.113 18.4052 11.039 18.3179 11.039 18.3179L11.0351 18.349C10.897 18.1904 10.823 18.1031 10.823 18.1031L10.819 18.1342C10.681 17.9756 10.607 17.8883 10.607 17.8883L10.603 17.9194C10.465 17.7608 10.391 17.6735 10.391 17.6735L10.387 17.7046C10.2489 17.546 10.175 17.4587 10.175 17.4587L10.171 17.4898C10.0329 17.3312 9.95898 17.244 9.95898 17.244L9.955 17.275C9.81692 17.1165 9.74296 17.0292 9.74296 17.0292L9.73898 17.0602C9.60091 16.9017 9.52695 16.8144 9.52695 16.8144L9.52297 16.8454C9.3849 16.6869 9.31094 16.5996 9.31094 16.5996C9.31094 16.5996 9.05701 18.454 9.05135 20.9925C9.048 22.4792 9.1295 24.2 9.39747 25.9217C9.83347 28.6806 10.7635 31.4379 12.6198 33.2002C12.6907 33.2731 28.9714 49.4627 29.0451 49.5327L29.0485 49.536C32.9715 48.9006 36.5871 47.3579 39.6716 45.131C39.6572 45.1183 24.0834 29.5812 24.0911 29.5583Z" fill="url(#paint1_linear_59_25)"/>
<path d="M18.9682 25.9177C13.5377 21.5935 9.31157 16.596 9.31157 16.596C9.31157 16.596 9.05763 18.4504 9.05198 20.989C9.06245 18.5271 9.31157 16.7373 9.31157 16.7373C9.31157 16.7373 13.5377 21.6592 18.9682 25.9177Z" stroke="#212121" stroke-width="2" stroke-miterlimit="10"/>
<path d="M17.6698 35.099C20.2452 35.099 22.9983 31.97 23.8751 29.3435C22.1876 28.3469 20.5287 27.16 18.9684 25.9177C13.5379 21.6592 9.31178 16.7373 9.31178 16.7373C9.31178 16.7373 9.06266 18.5271 9.05219 20.989C9.04883 22.4756 9.13034 24.1965 9.39831 25.9181C10.1232 30.5085 12.213 35.0988 17.6698 35.099Z" fill="white" stroke="black" stroke-width="2" stroke-miterlimit="10"/>
<path d="M40.6884 16.7373C40.6884 16.7373 40.9375 18.5273 40.948 20.9892C40.9424 18.4506 40.6884 16.596 40.6884 16.596C40.6884 16.596 36.4623 21.5935 31.0318 25.9177C36.4623 21.6592 40.6884 16.7373 40.6884 16.7373Z" stroke="#212121" stroke-width="2" stroke-miterlimit="10"/>
<path d="M40.6884 16.7373C40.6884 16.7373 36.4623 21.6592 31.0318 25.9177C29.4715 27.16 27.8126 28.3469 26.1251 29.3435C27.0017 31.97 29.7548 35.099 32.3302 35.099C37.787 35.099 39.8766 30.5085 40.6019 25.9181C40.8699 24.1967 40.9514 22.4758 40.948 20.9894C40.9375 18.5271 40.6884 16.7373 40.6884 16.7373Z" fill="white" stroke="black" stroke-width="2" stroke-miterlimit="10"/>
<defs>
<linearGradient id="paint0_linear_59_25" x1="32.7754" y1="22.7308" x2="47.6206" y2="37.6604" gradientUnits="userSpaceOnUse">
<stop stop-color="#212121" stop-opacity="0.2"/>
<stop offset="1" stop-color="#212121" stop-opacity="0"/>
</linearGradient>
<linearGradient id="paint1_linear_59_25" x1="6.40012" y1="19.4908" x2="35.7599" y2="49.0176" gradientUnits="userSpaceOnUse">
<stop stop-color="#212121" stop-opacity="0.2"/>
<stop offset="1" stop-color="#212121" stop-opacity="0"/>
</linearGradient>
</defs>
</svg>
