<svg width="50" height="50" viewBox="0 0 50 50" fill="none" xmlns="http://www.w3.org/2000/svg">
<g clip-path="url(#clip0_119_6)">
<path d="M49.9892 25C49.9892 11.1989 38.8011 0.0108223 25 0.0108223C11.1989 0.0108223 0.0108265 11.1989 0.0108265 25C0.0108265 38.8011 11.1989 49.9892 25 49.9892C38.8011 49.9892 49.9892 38.8011 49.9892 25Z" fill="#00BA00"/>
<path fill-rule="evenodd" clip-rule="evenodd" d="M25.3937 44.1535L9.84252 28.6417C9.21744 28.0145 8.86646 27.1651 8.86646 26.2795C8.86646 25.394 9.21744 24.5446 9.84252 23.9173C10.4698 23.2922 11.3192 22.9413 12.2047 22.9413C13.0903 22.9413 13.9397 23.2922 14.5669 23.9173L22.0472 31.3976V9.0748C22.0524 8.19068 22.4073 7.34455 23.0343 6.72122C23.6614 6.09789 24.5096 5.74802 25.3937 5.74803C26.2744 5.75839 27.1155 6.11554 27.7346 6.742C28.3537 7.36846 28.7008 8.21373 28.7008 9.09449V31.3976L36.1811 23.9173C36.8083 23.2922 37.6578 22.9413 38.5433 22.9413C39.4288 22.9413 40.2783 23.2922 40.9055 23.9173C41.5306 24.5446 41.8816 25.394 41.8816 26.2795C41.8816 27.1651 41.5306 28.0145 40.9055 28.6417L30.0787 39.4488L25.374 44.1732L25.3937 44.1535Z" fill="white"/>
</g>
<defs>
<clipPath id="clip0_119_6">
<rect width="50" height="50" fill="white"/>
</clipPath>
</defs>
</svg>
