<svg width="50" height="51" viewBox="0 0 50 51" fill="none" xmlns="http://www.w3.org/2000/svg">
<path d="M24.4917 15.2225L27.5953 9.30742L30.3539 4.04918C31.9557 0.995957 34.4661 0.364968 36.5739 1.47092C38.6825 2.57688 39.5912 4.99998 37.9886 8.05321L37.636 8.72471L33.5583 16.4983L24.4917 15.2225ZM48.2853 33.7229H1.73268C1.43889 33.7227 1.15002 33.6475 0.893473 33.5044C0.636924 33.3613 0.421209 33.1549 0.266794 32.905C0.11238 32.6551 0.024389 32.3699 0.0111706 32.0765C-0.00204785 31.783 0.0599448 31.491 0.191266 31.2283L3.63961 24.3322C3.7827 24.0459 4.00268 23.805 4.27492 23.6367C4.54716 23.4683 4.86091 23.379 5.18102 23.3788H44.837C45.1572 23.3788 45.4712 23.468 45.7436 23.6364C46.016 23.8048 46.2361 24.0457 46.3792 24.3322L49.8276 31.2283C49.9589 31.4911 50.0209 31.7831 50.0077 32.0767C49.9944 32.3702 49.9063 32.6555 49.7518 32.9054C49.5973 33.1553 49.3815 33.3616 49.1248 33.5047C48.8681 33.6478 48.5792 33.7229 48.2853 33.7229Z" fill="#CB8252"/>
<path d="M4.31893 33.7229H45.6991V48.377C45.6991 49.0629 45.4266 49.7206 44.9416 50.2056C44.4565 50.6906 43.7987 50.963 43.1128 50.963H6.90519C6.21927 50.963 5.56145 50.6906 5.07643 50.2056C4.59141 49.7206 4.31893 49.0629 4.31893 48.377V33.7229Z" fill="#A56A43"/>
<path d="M27.5521 7.8627H15.5692C15.6036 7.73771 15.6502 7.61703 15.7071 7.50066L17.2502 4.41468H25.8711L27.4142 7.50066C27.4711 7.61703 27.5177 7.73771 27.5521 7.8627Z" fill="#84B5CB"/>
<path d="M27.5953 8.26785V23.3788H15.526V8.26785C15.5276 8.13174 15.542 7.99609 15.5692 7.8627H27.5521C27.5793 7.99609 27.5937 8.13174 27.5953 8.26785ZM18.9744 0.966649H24.1469C24.6042 0.966649 25.0427 1.14829 25.3661 1.4716C25.6894 1.79492 25.8711 2.23343 25.8711 2.69066V4.41468H17.2502V2.69066C17.2502 2.23343 17.4319 1.79492 17.7552 1.4716C18.0786 1.14829 18.5171 0.966649 18.9744 0.966649Z" fill="#9FC9D3"/>
<path d="M12.795 16.981C12.6677 16.9811 12.542 16.953 12.4268 16.8987C12.3117 16.8444 12.21 16.7653 12.1291 16.6671C12.0481 16.5689 11.99 16.4539 11.9587 16.3306C11.9275 16.2072 11.924 16.0784 11.9484 15.9535C12.5355 12.946 10.9234 12.127 10.8544 12.0934C10.6502 11.9947 10.4927 11.8201 10.4154 11.6069C10.3381 11.3937 10.3472 11.1588 10.4406 10.9521C10.5337 10.7478 10.7032 10.5881 10.9128 10.5075C11.1224 10.4269 11.3553 10.4318 11.5613 10.5211C11.6829 10.5746 14.501 11.8702 13.6389 16.2845C13.6006 16.4803 13.4956 16.6568 13.3416 16.7838C13.1877 16.9108 12.9945 16.9805 12.795 16.981Z" fill="#A56A43"/>
<path d="M44.837 10.4487C44.8299 10.9037 44.6459 11.3381 44.3241 11.6599C44.0023 11.9817 43.5679 12.1656 43.1128 12.1727V23.3788H32.7678V12.1727C32.3109 12.1714 31.8732 11.9893 31.5501 11.6663C31.2271 11.3433 31.045 10.9055 31.0436 10.4487C31.0507 9.9937 31.2346 9.55931 31.5565 9.23753C31.8783 8.91574 32.3127 8.73182 32.7678 8.72471H43.1128C43.5697 8.72607 44.0074 8.90815 44.3305 9.23117C44.6535 9.55419 44.8356 9.9919 44.837 10.4487Z" fill="#95A5A5"/>
<path d="M43.9749 17.3448H31.0436C30.815 17.3448 30.5957 17.254 30.434 17.0923C30.2723 16.9306 30.1815 16.7114 30.1815 16.4828C30.1815 16.2542 30.2723 16.0349 30.434 15.8732C30.5957 15.7116 30.815 15.6208 31.0436 15.6208H43.9749C44.2035 15.6208 44.4228 15.7116 44.5845 15.8732C44.7461 16.0349 44.837 16.2542 44.837 16.4828C44.837 16.7114 44.7461 16.9306 44.5845 17.0923C44.4228 17.254 44.2035 17.3448 43.9749 17.3448ZM43.9749 20.7928H31.9057C31.677 20.7928 31.4578 20.702 31.2961 20.5403C31.1344 20.3787 31.0436 20.1594 31.0436 19.9308C31.0436 19.7022 31.1344 19.4829 31.2961 19.3213C31.4578 19.1596 31.677 19.0688 31.9057 19.0688H43.9749C44.2035 19.0688 44.4228 19.1596 44.5845 19.3213C44.7461 19.4829 44.837 19.7022 44.837 19.9308C44.837 20.1594 44.7461 20.3787 44.5845 20.5403C44.4228 20.702 44.2035 20.7928 43.9749 20.7928ZM36.2161 13.0347C36.2161 13.2634 36.1253 13.4826 35.9636 13.6443C35.8019 13.8059 35.5827 13.8967 35.354 13.8967H32.7678V12.1727H35.354C35.5827 12.1727 35.8019 12.2636 35.9636 12.4252C36.1253 12.5869 36.2161 12.8061 36.2161 13.0347ZM43.1128 12.1727V13.8967H40.5265C40.2979 13.8967 40.0786 13.8059 39.917 13.6443C39.7553 13.4826 39.6645 13.2634 39.6645 13.0347C39.6645 12.8061 39.7553 12.5869 39.917 12.4252C40.0786 12.2636 40.2979 12.1727 40.5265 12.1727H43.1128Z" fill="#7F8C8D"/>
<path d="M23.871 23.3788C23.4819 22.5725 23.2815 21.6881 23.2848 20.7928C23.2848 19.1925 23.9206 17.6577 25.0523 16.5261C26.184 15.3945 27.7189 14.7588 29.3194 14.7588C30.3378 14.7576 31.3399 15.0144 32.2322 15.5053C33.1244 15.9962 33.8777 16.7051 34.4218 17.5659C34.9659 18.4267 35.283 19.4113 35.3435 20.4278C35.404 21.4443 35.2059 22.4596 34.7678 23.3788H23.871Z" fill="#F29C1F"/>
<path d="M35.354 6.13869C35.2144 6.13869 35.0782 6.10421 34.954 6.04042L33.5885 5.32409C33.3859 5.21778 33.2339 5.03537 33.1658 4.81697C33.0977 4.59857 33.1192 4.36208 33.2255 4.15952C33.3318 3.95697 33.5143 3.80494 33.7327 3.73688C33.9511 3.66882 34.1876 3.69031 34.3902 3.79662L35.7558 4.51294C35.9268 4.60243 36.0628 4.74671 36.1421 4.92267C36.2213 5.09863 36.2392 5.2961 36.1929 5.48345C36.1466 5.67081 36.0388 5.83721 35.8867 5.95601C35.7346 6.07481 35.547 6.13914 35.354 6.13869Z" fill="#A56A43"/>
<path d="M19.0089 23.3788C19.5606 22.3134 19.8451 21.1307 19.8365 19.9308C19.8365 16.5948 17.7761 13.8967 15.2416 13.8967C14.4053 13.9019 13.595 14.1872 12.9398 14.707C12.2846 14.1874 11.4743 13.9022 10.638 13.8967C8.10349 13.8967 6.0431 16.5948 6.0431 19.9308C6.03472 21.1303 6.31878 22.3138 6.87071 23.3788H19.0089Z" fill="#E64C3C"/>
</svg>
