<svg width="51" height="51" viewBox="0 0 51 51" fill="none" xmlns="http://www.w3.org/2000/svg">
<path d="M21.9242 0.66666H6.01514C2.87716 0.66666 0.333326 3.46488 0.333326 6.91666V24.4167C0.333326 27.8684 2.87716 30.6667 6.01514 30.6667H21.9242C25.0622 30.6667 27.6061 27.8684 27.6061 24.4167V6.91666C27.6061 3.46488 25.0622 0.66666 21.9242 0.66666Z" fill="#0588E2"/>
<path d="M25.3333 26.9167H7.15151C6.24736 26.9167 5.38025 26.5216 4.74092 25.8183C4.10159 25.1151 3.74242 24.1612 3.74242 23.1667V3.16666C3.74242 2.42291 3.88105 1.72041 4.09696 1.05916C1.90946 1.92916 0.333326 4.21416 0.333326 6.91666V24.4167C0.333326 27.8629 2.88219 30.6667 6.01514 30.6667H21.9242C24.3811 30.6667 26.4583 28.9329 27.2492 26.5267C26.6361 26.7784 25.9877 26.9104 25.3333 26.9167Z" fill="#0075D3"/>
<path d="M20.6856 22.0242L15.0038 8.27416C14.9134 8.05592 14.7678 7.8709 14.5845 7.74115C14.4011 7.61141 14.1877 7.54242 13.9697 7.54242C13.7517 7.54242 13.5383 7.61141 13.3549 7.74115C13.1715 7.8709 13.026 8.05592 12.9356 8.27416L7.25378 22.0242C7.19159 22.1737 7.15684 22.3353 7.15151 22.4996C7.14618 22.6639 7.17038 22.8278 7.22273 22.9818C7.27507 23.1359 7.35453 23.277 7.45655 23.3972C7.55857 23.5174 7.68115 23.6143 7.81726 23.6823C7.95338 23.7503 8.10035 23.7881 8.24976 23.7935C8.39917 23.7989 8.54808 23.7718 8.68797 23.7138C8.82785 23.6558 8.95595 23.568 9.06494 23.4555C9.17393 23.3429 9.26166 23.2078 9.3231 23.0579L11.3447 18.1654H16.597L18.6186 23.0579C18.68 23.2076 18.7678 23.3424 18.8767 23.4547C18.9857 23.5669 19.1138 23.6544 19.2536 23.712C19.3935 23.7696 19.5423 23.7963 19.6915 23.7904C19.8407 23.7846 19.9874 23.7463 20.1231 23.6779C20.3975 23.5408 20.6112 23.2894 20.7171 22.9791C20.823 22.6687 20.8125 22.3248 20.6879 22.0229L20.6856 22.0242ZM12.3765 15.6667L13.9697 11.8129L15.5629 15.6667H12.3776H12.3765Z" fill="white"/>
<path d="M44.6515 20.6667H28.7424C25.6044 20.6667 23.0606 23.4649 23.0606 26.9167V44.4167C23.0606 47.8684 25.6044 50.6667 28.7424 50.6667H44.6515C47.7895 50.6667 50.3333 47.8684 50.3333 44.4167V26.9167C50.3333 23.4649 47.7895 20.6667 44.6515 20.6667Z" fill="#FFC343"/>
<path d="M48.0606 46.9167H29.8788C28.9746 46.9167 28.1075 46.5216 27.4682 45.8183C26.8289 45.115 26.4697 44.1612 26.4697 43.1667V23.1667C26.4697 22.4229 26.6083 21.7204 26.8242 21.0592C24.6367 21.9292 23.0606 24.2142 23.0606 26.9167V44.4167C23.0606 47.8629 25.6095 50.6667 28.7424 50.6667H44.6515C47.1083 50.6667 49.1856 48.9329 49.9765 46.5267C49.3634 46.7784 48.715 46.9104 48.0606 46.9167Z" fill="#FFA221"/>
<path d="M41.7436 33.1667H42.3788C42.6802 33.1667 42.9692 33.035 43.1823 32.8005C43.3954 32.5661 43.5151 32.2482 43.5151 31.9167C43.5151 31.5851 43.3954 31.2672 43.1823 31.0328C42.9692 30.7984 42.6802 30.6667 42.3788 30.6667H37.8333V28.1667C37.8333 27.8351 37.7136 27.5172 37.5005 27.2828C37.2874 27.0484 36.9983 26.9167 36.697 26.9167C36.3956 26.9167 36.1065 27.0484 35.8934 27.2828C35.6803 27.5172 35.5606 27.8351 35.5606 28.1667V30.6667H31.0151C30.7138 30.6667 30.4247 30.7984 30.2116 31.0328C29.9985 31.2672 29.8788 31.5851 29.8788 31.9167C29.8788 32.2482 29.9985 32.5661 30.2116 32.8005C30.4247 33.035 30.7138 33.1667 31.0151 33.1667H39.447C39.1687 35.2903 38.1869 37.2259 36.6901 38.6017C35.8156 37.7963 35.109 36.7931 34.6186 35.6604C34.4878 35.3638 34.2558 35.136 33.9731 35.0267C33.6904 34.9173 33.3799 34.9352 33.1091 35.0764C32.8384 35.2177 32.6293 35.4709 32.5274 35.7809C32.4255 36.0909 32.4391 36.4326 32.5651 36.7317C33.0937 37.936 33.8155 39.0256 34.6958 39.9479C33.6863 40.4228 32.5995 40.667 31.5015 40.6654C30.8742 40.6654 30.4061 41.2254 30.4061 41.9154C30.4061 42.6054 30.9549 43.1654 31.5833 43.1654C33.4561 43.1654 35.2083 42.5992 36.7197 41.6279C38.2918 42.6299 40.0755 43.1601 41.8924 43.1654C42.5197 43.1654 42.9879 42.6054 42.9879 41.9154C42.9879 41.2254 42.439 40.6654 41.8106 40.6654C40.7475 40.6608 39.6962 40.4202 38.7197 39.9579C40.4118 38.1468 41.4804 35.7475 41.7436 33.1667Z" fill="white"/>
<path d="M41.2424 6.91666H36.0311L36.364 6.55041C36.5771 6.31602 36.6968 5.99813 36.6968 5.66666C36.6968 5.33519 36.5771 5.01729 36.364 4.78291C36.1509 4.54852 35.8619 4.41685 35.5606 4.41685C35.2593 4.41685 34.9703 4.54852 34.7572 4.78291L32.4845 7.28291C32.3788 7.39889 32.295 7.53665 32.2379 7.68829C32.1807 7.83994 32.1513 8.00249 32.1513 8.16666C32.1513 8.33083 32.1807 8.49338 32.2379 8.64502C32.295 8.79667 32.3788 8.93442 32.4845 9.05041L34.7572 11.5504C34.8625 11.6669 34.9877 11.7593 35.1255 11.8224C35.2634 11.8855 35.4113 11.918 35.5606 11.918C35.7099 11.918 35.8578 11.8855 35.9957 11.8224C36.1335 11.7593 36.2587 11.6669 36.364 11.5504C36.4696 11.4344 36.5534 11.2967 36.6106 11.145C36.6678 10.9934 36.6972 10.8308 36.6972 10.6667C36.6972 10.5025 36.6678 10.3399 36.6106 10.1883C36.5534 10.0366 36.4696 9.89889 36.364 9.78291L36.0311 9.41666H41.2424C41.8686 9.41666 42.3788 9.97791 42.3788 10.6667V14.4167C42.3788 14.7482 42.4985 15.0661 42.7116 15.3005C42.9247 15.535 43.2138 15.6667 43.5151 15.6667C43.8165 15.6667 44.1056 15.535 44.3187 15.3005C44.5318 15.0661 44.6515 14.7482 44.6515 14.4167V10.6667C44.6515 8.59916 43.122 6.91666 41.2424 6.91666ZM15.9095 39.7829C15.804 39.6669 15.6787 39.5748 15.5409 39.512C15.403 39.4492 15.2553 39.4168 15.1061 39.4168C14.9568 39.4168 14.8091 39.4492 14.6713 39.512C14.5334 39.5748 14.4081 39.6669 14.3026 39.7829C14.1971 39.899 14.1134 40.0367 14.0563 40.1884C13.9992 40.34 13.9699 40.5025 13.9699 40.6667C13.9699 40.8308 13.9992 40.9933 14.0563 41.1449C14.1134 41.2966 14.1971 41.4344 14.3026 41.5504L14.6356 41.9167H9.42424C8.7981 41.9167 8.28787 41.3554 8.28787 40.6667V36.9167C8.28787 36.5851 8.16815 36.2672 7.95504 36.0328C7.74193 35.7984 7.45289 35.6667 7.15151 35.6667C6.85013 35.6667 6.56109 35.7984 6.34798 36.0328C6.13487 36.2672 6.01514 36.5851 6.01514 36.9167V40.6667C6.01514 42.7342 7.54469 44.4167 9.42424 44.4167H14.6356L14.3026 44.7829C14.1971 44.899 14.1134 45.0367 14.0563 45.1884C13.9992 45.34 13.9699 45.5025 13.9699 45.6667C13.9699 45.8308 13.9992 45.9933 14.0563 46.1449C14.1134 46.2966 14.1971 46.4344 14.3026 46.5504C14.4081 46.6665 14.5334 46.7585 14.6713 46.8213C14.8091 46.8841 14.9568 46.9165 15.1061 46.9165C15.2553 46.9165 15.403 46.8841 15.5409 46.8213C15.6787 46.7585 15.804 46.6665 15.9095 46.5504L18.1822 44.0504C18.2878 43.9344 18.3716 43.7967 18.4288 43.645C18.4859 43.4934 18.5154 43.3308 18.5154 43.1667C18.5154 43.0025 18.4859 42.8399 18.4288 42.6883C18.3716 42.5366 18.2878 42.3989 18.1822 42.2829L15.9095 39.7829Z" fill="#AFB4C2"/>
</svg>
