<svg width="50" height="50" viewBox="0 0 50 50" fill="none" xmlns="http://www.w3.org/2000/svg">
<g clip-path="url(#clip0_273_14)">
<path d="M43.75 0H6.25C6.0428 0 5.84409 0.08231 5.69757 0.228823C5.55106 0.375336 5.46875 0.57405 5.46875 0.78125V49.2188C5.46875 49.426 5.55106 49.6247 5.69757 49.7712C5.84409 49.9177 6.0428 50 6.25 50H35.2539C35.4611 50 35.6598 49.9177 35.8063 49.7712L44.3024 41.2751C44.4489 41.1286 44.5312 40.9299 44.5312 40.7227V0.78125C44.5312 0.57405 44.4489 0.375336 44.3024 0.228823C44.1559 0.08231 43.9572 0 43.75 0Z" fill="#E9E9E9"/>
<path d="M7.8125 49.2188V0.78125C7.8125 0.57405 7.89481 0.375336 8.04132 0.228823C8.18784 0.08231 8.38655 0 8.59375 0L6.25 0C6.0428 0 5.84409 0.08231 5.69757 0.228823C5.55106 0.375336 5.46875 0.57405 5.46875 0.78125V49.2188C5.46875 49.426 5.55106 49.6247 5.69757 49.7712C5.84409 49.9177 6.0428 50 6.25 50H8.59375C8.38655 50 8.18784 49.9177 8.04132 49.7712C7.89481 49.6247 7.8125 49.426 7.8125 49.2188ZM44.5312 40.7227V40.625H35.1562C34.949 40.625 34.7503 40.7073 34.6038 40.8538C34.4573 41.0003 34.375 41.199 34.375 41.4062V50H35.2539C35.4611 50 35.6598 49.9177 35.8063 49.7712L44.3024 41.2751C44.4489 41.1286 44.5312 40.9299 44.5312 40.7227Z" fill="#D3D2D2"/>
<path d="M39.8438 5.46875H10.1562C9.94905 5.46875 9.75034 5.55106 9.60382 5.69757C9.45731 5.84409 9.375 6.0428 9.375 6.25V16.4062C9.375 16.6135 9.45731 16.8122 9.60382 16.9587C9.75034 17.1052 9.94905 17.1875 10.1562 17.1875H39.8438C40.051 17.1875 40.2497 17.1052 40.3962 16.9587C40.5427 16.8122 40.625 16.6135 40.625 16.4062V6.25C40.625 6.0428 40.5427 5.84409 40.3962 5.69757C40.2497 5.55106 40.051 5.46875 39.8438 5.46875Z" fill="#7B7979"/>
<path d="M10.9375 7.03125H39.0625V15.625H10.9375V7.03125Z" fill="#918F90"/>
<path d="M23.4375 18.75H10.1562C9.94905 18.75 9.75034 18.8323 9.60382 18.9788C9.45731 19.1253 9.375 19.324 9.375 19.5312V38.2812C9.375 38.4885 9.45731 38.6872 9.60382 38.8337C9.75034 38.9802 9.94905 39.0625 10.1562 39.0625H23.4375C23.6447 39.0625 23.8434 38.9802 23.9899 38.8337C24.1364 38.6872 24.2188 38.4885 24.2188 38.2812V19.5312C24.2188 19.324 24.1364 19.1253 23.9899 18.9788C23.8434 18.8323 23.6447 18.75 23.4375 18.75Z" fill="#41CDE0"/>
<path d="M10.9375 20.3125H22.6562V37.5H10.9375V20.3125Z" fill="#7BE1E8"/>
<path d="M39.8438 18.75H26.5625C26.3553 18.75 26.1566 18.8323 26.0101 18.9788C25.8636 19.1253 25.7812 19.324 25.7812 19.5312V27.3438C25.7812 27.551 25.8636 27.7497 26.0101 27.8962C26.1566 28.0427 26.3553 28.125 26.5625 28.125H39.8438C40.051 28.125 40.2497 28.0427 40.3962 27.8962C40.5427 27.7497 40.625 27.551 40.625 27.3438V19.5312C40.625 19.324 40.5427 19.1253 40.3962 18.9788C40.2497 18.8323 40.051 18.75 39.8438 18.75Z" fill="#F7A840"/>
<path d="M27.3438 20.3125H39.0625V26.5625H27.3438V20.3125Z" fill="#FFCD78"/>
<path d="M39.8438 29.6875H26.5625C26.3553 29.6875 26.1566 29.7698 26.0101 29.9163C25.8636 30.0628 25.7812 30.2615 25.7812 30.4688V38.2812C25.7812 38.4885 25.8636 38.6872 26.0101 38.8337C26.1566 38.9802 26.3553 39.0625 26.5625 39.0625H39.8438C40.051 39.0625 40.2497 38.9802 40.3962 38.8337C40.5427 38.6872 40.625 38.4885 40.625 38.2812V30.4688C40.625 30.2615 40.5427 30.0628 40.3962 29.9163C40.2497 29.7698 40.051 29.6875 39.8438 29.6875Z" fill="#DE6B5D"/>
<path d="M27.3438 31.25H39.0625V37.5H27.3438V31.25Z" fill="#FF8C78"/>
</g>
<defs>
<clipPath id="clip0_273_14">
<rect width="50" height="50" fill="white"/>
</clipPath>
</defs>
</svg>
