<svg width="50" height="50" viewBox="0 0 50 50" fill="none" xmlns="http://www.w3.org/2000/svg">
<path d="M0 10.4167C0 4.66371 4.66371 0 10.4167 0H39.5833C45.3362 0 50 4.66371 50 10.4167V39.5833C50 45.3362 45.3362 50 39.5833 50H10.4167C4.66371 50 0 45.3362 0 39.5833V10.4167Z" fill="#0055CC"/>
<path d="M19.5634 9.23127H11.206C10.1154 9.23127 9.23127 10.1154 9.23127 11.206V36.0128C9.23127 37.1034 10.1154 37.9875 11.206 37.9875H19.5634C20.654 37.9875 21.5381 37.1034 21.5381 36.0128V11.206C21.5381 10.1154 20.654 9.23127 19.5634 9.23127Z" fill="white"/>
<path d="M38.794 9.23127H30.4366C29.346 9.23127 28.4619 10.1154 28.4619 11.206V24.6245C28.4619 25.7151 29.346 26.5992 30.4366 26.5992H38.794C39.8846 26.5992 40.7687 25.7151 40.7687 24.6245V11.206C40.7687 10.1154 39.8846 9.23127 38.794 9.23127Z" fill="white"/>
</svg>
