<svg width="50" height="50" viewBox="0 0 50 50" fill="none" xmlns="http://www.w3.org/2000/svg">
<path fill-rule="evenodd" clip-rule="evenodd" d="M2.8125 6H47.188C47.9333 6.00126 48.6477 6.3031 49.1748 6.83941C49.7019 7.37572 49.9986 8.10277 50 8.8613V38.4974H0V8.8613C0.00131747 8.10266 0.298091 7.37549 0.825282 6.83915C1.35247 6.30281 2.06708 6.00105 2.8125 6ZM47.188 44H2.8125C2.06675 44 1.35153 43.6986 0.824107 43.162C0.296689 42.6254 0.000258942 41.8976 0 41.1386L0 40.1944H50V41.1386C49.9997 41.8976 49.7033 42.6254 49.1759 43.162C48.6485 43.6986 47.9333 44 47.1875 44H47.188Z" fill="url(#paint0_linear_135_40)"/>
<path d="M24.1018 10.3594C24.1736 10.3959 24.1736 10.5052 24.1736 10.578C24.1736 10.6509 24.1736 10.6873 24.2095 10.7602C24.4611 10.7966 24.7126 10.7966 25 10.9059C24.8922 10.9788 24.8563 11.0881 24.7844 11.1245C23.6347 11.8896 22.7724 12.9096 21.91 14.0026C20.8681 15.3141 19.9339 16.6985 19.0357 18.1194C18.1015 19.5766 17.2392 21.0703 16.4487 22.6004C15.263 24.8592 14.2929 27.1908 13.6821 29.6682C13.6462 29.8139 13.5743 29.9596 13.5743 30.1053C13.4665 30.4697 13.251 30.834 13.251 31.2347C13.251 31.599 13.1432 31.9269 13.1072 32.2912C13.1072 32.4005 13.0713 32.5098 13.1072 32.5827C13.2869 32.9834 13.0713 33.3113 12.9276 33.6756C12.8198 33.9307 12.6042 34.0399 12.3886 34.1128L11.8497 34.2221C11.706 34.2221 11.5623 34.2221 11.3826 34.2585C11.203 34.2221 11.167 34.0035 11.0233 33.9307C10.8796 33.8214 10.6999 33.7485 10.5562 33.6392C10.3047 33.4935 10.1251 33.2385 9.98135 32.947C9.76577 32.4005 9.69391 31.8541 9.65798 31.2711C9.58612 30.1782 9.4424 29.1217 9.47833 28.0287C9.51426 26.9358 9.51426 25.8428 9.58612 24.7499C9.65798 23.4748 9.72984 22.1633 9.83763 20.8517L10.0532 18.9573C10.161 18.1194 10.3047 17.245 10.4125 16.3706C10.4844 15.8606 10.6281 15.3506 10.6999 14.8405C10.7359 14.8041 10.7359 14.7312 10.7718 14.6948C11.0592 14.3305 11.1311 13.8569 11.3107 13.4561C11.4185 13.2011 11.7419 13.0918 11.9934 13.2375C12.1371 13.3468 12.2809 13.4561 12.4246 13.529C12.5683 13.6018 12.6402 13.6383 12.6761 13.7476L13.0354 14.1847C13.1072 14.3305 13.0713 14.4762 13.0354 14.6219C12.8917 15.7149 12.712 16.8078 12.5324 17.9372C12.4605 18.4837 12.4246 19.0666 12.3886 19.6495C12.2809 20.6696 12.209 21.6896 12.1371 22.7097L12.0293 24.4584C11.9934 25.1142 11.9575 25.77 12.0293 26.4257C12.0293 26.4986 12.0653 26.535 12.1371 26.535C12.1731 26.4986 12.209 26.4986 12.209 26.4622C12.3527 25.6607 12.7479 24.9321 12.9994 24.167C13.1791 23.5841 13.5025 23.074 13.754 22.5276L15.0474 20.0138C15.3349 19.5038 15.6583 18.9937 15.9816 18.4837C16.305 17.9008 16.6284 17.3179 16.9877 16.7714C17.1314 16.4799 17.347 16.2249 17.5266 15.9335C17.9578 15.2413 18.4248 14.5855 18.8919 13.9297C19.4309 13.2011 19.9698 12.4725 20.5806 11.8167L21.7663 10.6145C22.3053 10.068 22.952 9.66723 23.6347 9.33935C23.7425 9.30292 23.8502 9.30292 23.994 9.33935H23.958C24.0299 9.44864 24.0299 9.59437 24.1018 9.74009C24.1736 9.81296 24.1377 9.88582 24.1018 9.95868C23.9221 10.1773 23.6706 10.2866 23.5628 10.5416C23.5628 10.5416 23.5628 10.578 23.5987 10.578C23.5987 10.6145 23.6347 10.6145 23.6706 10.6145C23.8143 10.5416 23.958 10.4687 24.1018 10.3594Z" fill="#AF0000"/>
<path d="M29.2016 11.216C29.3477 11.0207 29.5426 10.8742 29.6887 10.679C29.8836 10.4837 30.1759 10.3372 30.4194 10.2396C31.8808 9.55612 33.4397 9.31202 35.0472 9.31202C35.7292 9.36084 36.4112 9.45848 37.0445 9.70257C37.6778 9.94667 38.3111 10.2396 38.7982 10.7278C39.4315 11.3136 39.8699 12.0459 40.0648 12.9246C40.2596 13.8522 40.4545 14.8286 40.5032 15.805C40.6006 17.5136 40.4058 19.1735 39.8699 20.8333C39.7238 21.3215 39.5776 21.8585 39.3828 22.3467C39.1879 22.8837 38.9444 23.3719 38.7008 23.8601C37.4829 26.3499 35.8267 28.4979 33.7807 30.3042C32.7577 31.2318 31.6373 32.0617 30.4681 32.794C29.4939 33.4286 28.4709 33.868 27.3504 34.1121C26.9607 34.2097 26.571 34.2097 26.1813 34.2585C25.9377 34.2585 25.6942 34.0633 25.5967 33.8192L25.3045 32.6475C25.2557 32.3546 25.2557 32.0617 25.0609 31.7688C24.9635 31.6223 25.0122 31.427 25.0122 31.2806C25.0609 31.1341 25.1583 30.9877 25.3045 30.89L25.6455 30.7436C25.889 30.6947 26.0352 30.4995 26.0839 30.2554C26.1326 29.7184 26.23 29.1814 26.3275 28.6932C26.8146 26.594 27.253 24.4947 27.7402 22.3955C28.0324 21.1262 28.3734 19.8569 28.6657 18.5876C28.958 17.2695 29.2503 16.0002 29.4939 14.6821C29.64 14.0963 29.64 13.5593 29.8349 13.0223C29.9323 12.7782 29.7861 12.5829 29.4939 12.4853C29.4451 12.4364 29.3477 12.4853 29.2503 12.4364C29.1529 12.3876 29.0554 12.29 29.1041 12.1923C29.1041 11.8506 29.1529 11.5577 29.2016 11.216ZM37.6291 15.7561C37.5804 15.4144 37.5804 15.2191 37.5804 15.0238C37.5317 14.1939 37.0445 13.6569 36.46 13.2175C35.6805 12.6317 35.096 12.4364 34.1217 12.3388C33.9755 12.3388 33.7807 12.4364 33.732 12.5829C33.6833 12.6805 33.6345 12.7294 33.6345 12.827C33.4397 13.6081 33.1961 14.3892 33.05 15.1703C32.5141 17.5624 31.9783 19.9546 31.3937 22.3467C31.0527 23.6648 30.7117 24.9341 30.4681 26.2522C30.2733 27.0821 30.1271 27.9121 29.9323 28.742C29.9323 28.8396 29.981 28.9861 29.981 28.9861C30.0784 28.9861 30.2246 28.9861 30.322 28.9373C30.8578 28.4979 31.3937 28.0585 31.8808 27.5703C33.6345 25.8617 34.9985 23.9089 36.0702 21.7121C36.6061 20.5404 37.0932 19.3199 37.3368 18.0506C37.4829 17.2207 37.5804 16.4396 37.6291 15.7561Z" fill="#AF0000"/>
<defs>
<linearGradient id="paint0_linear_135_40" x1="24.9998" y1="53.5745" x2="24.9999" y2="6" gradientUnits="userSpaceOnUse">
<stop stop-color="#6C54A3"/>
<stop offset="1" stop-color="#00B1D2"/>
</linearGradient>
</defs>
</svg>
