<svg width="50" height="50" viewBox="0 0 50 50" fill="none" xmlns="http://www.w3.org/2000/svg">
<path d="M21.1072 36.4138L25.9268 24.8214C28.2219 24.6989 31.9457 25.2004 34.2523 25.741L29.2949 37.6678C27.0458 37.1272 23.3563 36.4695 21.1072 36.4138Z" fill="#3D87CF"/>
<path d="M42.7728 30.4071L37.7637 42.3895C36.0883 41.052 31.4981 38.5105 29.2949 37.669L34.2522 25.7422C36.4956 26.5169 41.2867 28.8523 42.7728 30.4071Z" fill="#FAC705"/>
<path d="M47.6788 19.307L42.7615 30.4088C41.1549 28.9821 36.5074 26.5466 34.2409 25.7441L39.2098 13.7951C41.4762 14.5307 46.2042 17.6741 47.6788 19.307Z" fill="#66C557"/>
<path d="M25.925 24.8285L30.8135 13.0968C33.1029 13.0188 36.9184 13.3699 39.2192 13.799L34.2504 25.7481C31.9725 25.1406 28.2029 24.784 25.925 24.8285Z" fill="#F3632E"/>
<path d="M9.37055 29.1373L7.01278 29.0984C7.1734 28.6358 7.37992 28.1175 7.5807 27.6828L9.96138 27.677C9.78928 28.1508 9.58281 28.6636 9.37055 29.1373Z" fill="#3D87CF"/>
<path d="M13.0132 31.0492L10.0417 31.0325L10.8735 29.0707C11.8545 29.065 12.847 29.0707 13.8335 29.1041L13.0132 31.0492Z" fill="#3D87CF"/>
<path d="M17.9483 30.5641C17.6041 31.3332 17.3115 32.158 16.9558 32.9328L13.6115 32.8938L14.5982 30.542L17.9483 30.5641Z" fill="#3D87CF"/>
<path d="M6.19795 26.7832L4.48267 26.7718C4.62028 26.3872 4.79245 25.9581 4.97028 25.5735C5.55542 25.5678 6.14055 25.5346 6.72565 25.5568L6.19795 26.7832Z" fill="#3D87CF"/>
<path d="M3.09873 24.3434C2.65702 24.3548 2.20956 24.3992 1.76785 24.3879L2.19809 23.3736C2.6398 23.3514 3.08152 23.3291 3.52324 23.3291L3.09873 24.3434Z" fill="#3D87CF"/>
<path d="M10.9275 25.3707L8.56402 25.3429L9.13194 23.9329C9.93507 23.9551 10.7382 23.9106 11.5355 23.9386L10.9275 25.3707Z" fill="#3D87CF"/>
<path d="M14.5555 27.3111L11.6069 27.2997L12.4043 25.349C13.3967 25.3433 14.3892 25.3376 15.3817 25.3604L14.5555 27.3111Z" fill="#3D87CF"/>
<path d="M18.536 29.1516L15.18 29.0791L16.1553 26.7662L19.4998 26.7996L18.536 29.1516Z" fill="#3D87CF"/>
<path d="M7.82837 22.8882C7.25471 22.8715 6.66385 22.916 6.08446 22.8825L6.6122 21.6173L8.32176 21.6618C8.19561 22.0575 8.01769 22.4924 7.82837 22.8882Z" fill="#3D87CF"/>
<path d="M4.71448 20.4627L3.38933 20.4905L3.79662 19.4818C4.22687 19.4428 4.69153 19.4428 5.13898 19.4428L4.71448 20.4627Z" fill="#3D87CF"/>
<path d="M14.1443 17.6377L11.7751 17.621L12.3545 16.1831C13.1519 16.1946 13.9492 16.1831 14.7524 16.1998L14.1443 17.6377Z" fill="#F3632E"/>
<path d="M14.8351 19.5781L15.6325 17.6052H18.5868L17.7894 19.5781H14.8351Z" fill="#F3632E"/>
<path d="M21.7969 21.2902L18.4409 21.268L19.4104 18.9217L22.7605 18.9331L21.7969 21.2902Z" fill="#F3632E"/>
<path d="M11.0599 15.1267C10.4977 15.1545 9.90682 15.1267 9.33313 15.1381L9.815 13.8897C10.3772 13.8451 10.9738 13.9119 11.5417 13.8954L11.0599 15.1267Z" fill="#F3632E"/>
<path d="M7.93126 12.6869C7.48954 12.6983 7.04783 12.7427 6.60037 12.7258L7.03637 11.7115L8.35005 11.6502L7.93126 12.6869Z" fill="#F3632E"/>
<path d="M15.7454 13.7855C14.9537 13.7855 14.1621 13.7741 13.3704 13.741L13.9555 12.3309C14.7529 12.3424 15.5503 12.3143 16.3477 12.3367L15.7454 13.7855Z" fill="#F3632E"/>
<path d="M19.3733 15.7259C18.3866 15.7259 17.3941 15.7426 16.4018 15.7145L17.2279 13.7527C18.2203 13.7413 19.2071 13.7584 20.1994 13.7641L19.3733 15.7259Z" fill="#F3632E"/>
<path d="M23.3245 17.5949L19.9916 17.5615L20.9611 15.204L24.317 15.2262L23.3245 17.5949Z" fill="#F3632E"/>
<path d="M12.6462 11.2744H10.9137L11.4243 10.0093C12.0094 10.0371 12.5831 10.0093 13.1625 10.0427L12.6462 11.2744Z" fill="#F3632E"/>
<path d="M9.54702 8.82041L8.21613 8.87619L8.62917 7.8563C9.07088 7.80608 9.51834 7.82847 9.96005 7.80051L9.54702 8.82041Z" fill="#F3632E"/>
<path d="M7.87223 33.0752C6.93716 33.0866 5.99643 33.0809 5.05553 33.0529L5.72671 31.4367C6.66751 31.4367 7.61409 31.4645 8.56631 31.4534L7.87223 33.0752Z" fill="black"/>
<path d="M29.4209 15.1552L25.2037 15.183L26.684 11.6106C28.1184 11.4545 29.5642 11.304 31.0045 11.3486L29.4209 15.1552Z" fill="black"/>
<path d="M11.2068 5.15366L9.60631 5.18706L10.071 4.03337C10.6102 4.02196 11.1495 4 11.6888 4L11.2068 5.15366Z" fill="black"/>
<path d="M14.3941 7.43647C13.6827 7.41421 12.9714 7.41977 12.2544 7.39194L12.8166 6.05437C13.5336 6.07662 14.2507 6.04296 14.9677 6.08776L14.3941 7.43647Z" fill="black"/>
<path d="M25.1318 13.8996L21.1442 13.8829L22.3032 11.0684L26.2967 11.1018L25.1318 13.8996Z" fill="black"/>
<path d="M17.6554 11.9307L18.5216 9.80171L22.0381 9.80744L21.1546 11.9531L17.6554 11.9307Z" fill="black"/>
<path d="M17.4785 9.97606L14.6561 9.95381L15.3101 8.34872C16.2509 8.34872 17.1975 8.31533 18.1497 8.34872L17.4785 9.97606Z" fill="black"/>
<path d="M27.8786 18.879C26.4729 18.9124 25.0614 18.9348 23.6499 18.9404L25.027 15.6354L29.2328 15.6187L27.8786 18.879Z" fill="black"/>
<path d="M26.2922 22.6741L22.075 22.7299L22.0521 22.7185L23.4177 19.4136L27.6693 19.3522L26.2922 22.6741Z" fill="black"/>
<path d="M4.83224 16.6818L5.29692 15.5393L6.92042 15.4835L6.44428 16.6594L4.83224 16.6818Z" fill="black"/>
<path d="M20.5049 26.4836L21.8648 23.1898L26.0877 23.1395L24.7394 26.4389L20.5049 26.4836Z" fill="black"/>
<path d="M9.56152 19.0502L7.42183 19.0224L7.98401 17.6848C8.70108 17.7071 9.41242 17.6734 10.1294 17.7182L9.56152 19.0502Z" fill="black"/>
<path d="M20.314 25.4706L16.3263 25.4427L17.4739 22.645L21.473 22.6784L20.314 25.4706Z" fill="black"/>
<path d="M16.3327 23.5587L12.8506 23.5473L12.8219 23.5359L13.7111 21.4125L17.2218 21.4182L16.3327 23.5587Z" fill="black"/>
<path d="M12.646 21.6041L9.82931 21.5762L10.4775 19.9712C11.4298 19.9597 12.3879 19.9655 13.3401 19.9826L12.646 21.6041Z" fill="black"/>
<path d="M23.1489 30.2644L23.1317 30.3034L18.9087 30.3536L20.2915 26.9706L24.5374 26.9261L23.1489 30.2644Z" fill="black"/>
<path d="M21.5625 34.0739L17.3281 34.1742L17.2994 34.1628L18.7052 30.8132L22.9224 30.7742L21.5625 34.0739Z" fill="black"/>
<path d="M1.60044 28.2813C1.06694 28.2646 0.53344 28.3147 0 28.2813L0.464662 27.1778C1.00963 27.1333 1.55462 27.1444 2.10534 27.122L1.60044 28.2813Z" fill="black"/>
<path d="M19.8733 38.1258C18.4618 38.0924 17.0561 38.0813 15.6389 38.1928L17.1135 34.637L21.3651 34.5645L19.8733 38.1258Z" fill="black"/>
<path d="M4.74367 30.6782L2.58665 30.6896L3.12016 29.3576C3.84871 29.3576 4.56578 29.3354 5.29436 29.3519L4.74367 30.6782Z" fill="black"/>
<path d="M15.5255 36.9844L11.5551 36.9287L12.7198 34.1366L16.6903 34.1755L15.5255 36.9844Z" fill="black"/>
<path d="M8.06374 35.0298L8.95289 32.8785L12.4465 32.9008L11.5573 35.0576L8.06374 35.0298Z" fill="black"/>
<path fill-rule="evenodd" clip-rule="evenodd" d="M45.4902 19.9205C44.0156 18.2876 41.9673 17.1284 39.7008 16.3982L36.1549 24.9197C38.4156 25.7278 40.4122 26.837 42.0188 28.258L45.4902 19.9205ZM40.8886 31.0392C39.4025 29.4843 37.2738 28.3807 35.036 27.6061L31.4328 36.3116C33.6303 37.1531 35.6901 38.1508 37.3656 39.4884L40.8886 31.0392ZM50 18.9285L38.7368 46.0039C35.8163 42.1361 30.7385 39.695 25.6376 38.7699C23.8818 38.4578 22.1204 38.2237 20.3647 38.1568L21.8392 34.6345C24.0884 34.6958 26.3433 34.9521 28.5926 35.4983L32.2304 26.7428C29.9238 26.2022 27.623 26.1353 25.3279 26.2579L26.5099 23.3822C28.7821 23.3376 31.06 23.4769 33.3377 24.0844L36.8492 15.652C34.5484 15.2173 32.2475 15.0612 29.9582 15.1392L31.5303 11.3271C36.7517 11.3049 42.7935 12.7204 47.0737 16.0866C48.1582 16.9226 49.1566 17.8473 50 18.9285Z" fill="black"/>
</svg>
