<svg width="50" height="50" viewBox="0 0 50 50" fill="none" xmlns="http://www.w3.org/2000/svg">
<path d="M46.5129 19.8278C46.4392 19.9014 46.341 19.9419 46.2366 19.9419C46.1322 19.9419 46.0342 19.9014 45.9603 19.8278L44.7568 18.6272C44.7027 18.573 44.6383 18.5301 44.5674 18.5009C44.4965 18.4717 44.4205 18.4568 44.3437 18.4571C44.2495 18.4571 44.1551 18.4799 44.0706 18.5232C43.7642 18.6802 43.4455 18.8123 43.1178 18.9181C42.8723 18.9972 42.7073 19.2211 42.7073 19.4753V21.172C42.7073 21.3869 42.5321 21.5617 42.3167 21.5617H39.9812C39.7658 21.5617 39.5906 21.3869 39.5906 21.172V19.4753C39.5906 19.2211 39.4257 18.9971 39.1802 18.9181C38.8524 18.8124 38.5337 18.6803 38.2272 18.5232C38.1427 18.4799 38.0491 18.4573 37.9541 18.4571C37.7977 18.4571 37.651 18.5175 37.541 18.6272L36.3375 19.8278C36.2638 19.9014 36.1656 19.9419 36.0612 19.9419C35.9568 19.9419 35.8588 19.9014 35.785 19.8278L34.1336 18.1804C34.0604 18.1073 34.0193 18.0082 34.0193 17.9048C34.0193 17.8015 34.0604 17.7024 34.1336 17.6293L34.5247 17.2392H12.827L12.7264 17.304V45.4572L12.827 46H45.3171C46.1505 46 46.8262 45.326 46.8262 44.4946V19.5152L46.5129 19.8278Z" fill="#E8EDF2"/>
<path d="M17.359 44.4945V17.3366H12.827V45.9999H18.8681C18.0346 45.9999 17.359 45.3259 17.359 44.4945Z" fill="#D9E7EC"/>
<path d="M12.827 36.0114V17.2391H0.836621L0 17.3366V35.914L0.414355 36.0114H12.827Z" fill="#B6C4CF"/>
<path d="M0 17.3366H4.67803V35.914H0V17.3366Z" fill="#9FACBA"/>
<path d="M12.827 45.9999H1.50908C0.675586 45.9999 0 45.3259 0 44.4945V35.914H12.827V45.9999Z" fill="#596C76"/>
<path d="M4.67803 44.4945V35.914H0V44.4945C0 45.3259 0.675586 45.9999 1.50908 45.9999H6.18711C5.35371 45.9999 4.67803 45.3259 4.67803 44.4945Z" fill="#465A61"/>
<path d="M9.60762 21.0891H3.21934C3.02509 21.0891 2.83879 21.0121 2.70144 20.8751C2.56408 20.7381 2.48692 20.5522 2.48692 20.3585C2.48692 20.1647 2.56408 19.9788 2.70144 19.8418C2.83879 19.7048 3.02509 19.6278 3.21934 19.6278H9.60772C9.7039 19.6278 9.79914 19.6467 9.888 19.6835C9.97686 19.7202 10.0576 19.774 10.1256 19.8419C10.1936 19.9097 10.2476 19.9903 10.2844 20.0789C10.3212 20.1675 10.3401 20.2626 10.3401 20.3585C10.3401 20.4545 10.3211 20.5495 10.2843 20.6381C10.2475 20.7267 10.1936 20.8073 10.1255 20.8751C10.0575 20.943 9.97677 20.9968 9.88791 21.0335C9.79904 21.0702 9.7038 21.0891 9.60762 21.0891ZM9.60762 23.7988H3.21934C3.02509 23.7988 2.83879 23.7218 2.70144 23.5848C2.56408 23.4478 2.48692 23.2619 2.48692 23.0681C2.48692 22.8744 2.56408 22.6885 2.70144 22.5515C2.83879 22.4145 3.02509 22.3375 3.21934 22.3375H9.60772C9.7039 22.3375 9.79914 22.3564 9.888 22.3931C9.97686 22.4299 10.0576 22.4837 10.1256 22.5515C10.1936 22.6194 10.2476 22.6999 10.2844 22.7886C10.3212 22.8772 10.3401 22.9722 10.3401 23.0682C10.3401 23.1641 10.3211 23.2592 10.2843 23.3478C10.2475 23.4364 10.1936 23.517 10.1255 23.5848C10.0575 23.6527 9.97677 23.7065 9.88791 23.7432C9.79904 23.7799 9.7038 23.7988 9.60762 23.7988ZM9.60762 26.5085H3.21934C3.02509 26.5085 2.83879 26.4315 2.70144 26.2945C2.56408 26.1575 2.48692 25.9716 2.48692 25.7778C2.48692 25.5841 2.56408 25.3982 2.70144 25.2612C2.83879 25.1242 3.02509 25.0472 3.21934 25.0472H9.60772C9.7039 25.0472 9.79914 25.0661 9.888 25.1028C9.97686 25.1396 10.0576 25.1934 10.1256 25.2612C10.1936 25.3291 10.2476 25.4096 10.2844 25.4983C10.3212 25.5869 10.3401 25.6819 10.3401 25.7779C10.3401 25.8738 10.3211 25.9688 10.2843 26.0575C10.2475 26.1461 10.1936 26.2267 10.1255 26.2945C10.0575 26.3623 9.97677 26.4162 9.88791 26.4529C9.79904 26.4896 9.7038 26.5085 9.60762 26.5085ZM9.60762 31.0246H3.21934C3.02509 31.0246 2.83879 30.9476 2.70144 30.8106C2.56408 30.6736 2.48692 30.4877 2.48692 30.2939C2.48692 30.1002 2.56408 29.9143 2.70144 29.7773C2.83879 29.6403 3.02509 29.5633 3.21934 29.5633H9.60772C9.7039 29.5633 9.79914 29.5822 9.888 29.6189C9.97686 29.6557 10.0576 29.7095 10.1256 29.7773C10.1936 29.8452 10.2476 29.9257 10.2844 30.0144C10.3212 30.103 10.3401 30.198 10.3401 30.294C10.3401 30.3899 10.3211 30.485 10.2843 30.5736C10.2475 30.6622 10.1936 30.7428 10.1255 30.8106C10.0575 30.8785 9.97677 30.9323 9.88791 30.969C9.79904 31.0057 9.7038 31.0246 9.60762 31.0246ZM9.60762 33.7343H3.21934C3.02509 33.7343 2.83879 33.6573 2.70144 33.5203C2.56408 33.3833 2.48692 33.1974 2.48692 33.0036C2.48692 32.8099 2.56408 32.624 2.70144 32.487C2.83879 32.35 3.02509 32.273 3.21934 32.273H9.60772C9.7039 32.273 9.79914 32.2919 9.888 32.3286C9.97686 32.3654 10.0576 32.4192 10.1256 32.487C10.1936 32.5549 10.2476 32.6354 10.2844 32.7241C10.3212 32.8127 10.3401 32.9077 10.3401 33.0037C10.3401 33.0996 10.3211 33.1946 10.2843 33.2833C10.2475 33.3719 10.1936 33.4525 10.1255 33.5203C10.0575 33.5881 9.97677 33.642 9.88791 33.6787C9.79904 33.7154 9.7038 33.7343 9.60762 33.7343Z" fill="#596C76"/>
<path d="M42.2535 41.0824H16.8931C16.1985 41.0824 15.6355 40.5208 15.6355 39.828C15.6355 39.1351 16.1985 38.5735 16.8931 38.5735H42.2535C42.948 38.5735 43.511 39.1351 43.511 39.828C43.511 40.5208 42.948 41.0824 42.2535 41.0824Z" fill="#00C27A"/>
<path d="M18.7542 39.828C18.7542 39.1351 19.3172 38.5735 20.0117 38.5735H16.893C16.1984 38.5735 15.6355 39.1351 15.6355 39.828C15.6355 40.5208 16.1984 41.0824 16.893 41.0824H20.0117C19.3172 41.0824 18.7542 40.5208 18.7542 39.828Z" fill="#08B865"/>
<path d="M32.344 34.0353H15.845C15.6508 34.0353 15.4645 33.9583 15.3271 33.8213C15.1898 33.6843 15.1126 33.4984 15.1126 33.3047C15.1126 33.1109 15.1898 32.925 15.3271 32.788C15.4645 32.651 15.6508 32.574 15.845 32.574H32.344C32.5383 32.574 32.7246 32.651 32.8619 32.788C32.9993 32.925 33.0765 33.1109 33.0765 33.3047C33.0765 33.4984 32.9993 33.6843 32.8619 33.8213C32.7246 33.9583 32.5383 34.0353 32.344 34.0353Z" fill="#7A8C98"/>
<path d="M3.31289 40.107C3.71739 40.107 4.04531 39.7799 4.04531 39.3763C4.04531 38.9728 3.71739 38.6457 3.31289 38.6457C2.90838 38.6457 2.58047 38.9728 2.58047 39.3763C2.58047 39.7799 2.90838 40.107 3.31289 40.107Z" fill="#7A8C98"/>
<path d="M9.51406 40.107C9.91857 40.107 10.2465 39.7799 10.2465 39.3763C10.2465 38.9728 9.91857 38.6457 9.51406 38.6457C9.10956 38.6457 8.78164 38.9728 8.78164 39.3763C8.78164 39.7799 9.10956 40.107 9.51406 40.107Z" fill="#7A8C98"/>
<path d="M3.31289 43.1178C3.71739 43.1178 4.04531 42.7907 4.04531 42.3871C4.04531 41.9836 3.71739 41.6565 3.31289 41.6565C2.90838 41.6565 2.58047 41.9836 2.58047 42.3871C2.58047 42.7907 2.90838 43.1178 3.31289 43.1178Z" fill="#7A8C98"/>
<path d="M9.51406 43.1178C9.91857 43.1178 10.2465 42.7907 10.2465 42.3871C10.2465 41.9836 9.91857 41.6565 9.51406 41.6565C9.10956 41.6565 8.78164 41.9836 8.78164 42.3871C8.78164 42.7907 9.10956 43.1178 9.51406 43.1178Z" fill="#7A8C98"/>
<path d="M32.344 28.2146H15.845C15.6508 28.2146 15.4645 28.1376 15.3271 28.0006C15.1898 27.8635 15.1126 27.6777 15.1126 27.4839C15.1126 27.2901 15.1898 27.1043 15.3271 26.9673C15.4645 26.8303 15.6508 26.7533 15.845 26.7533H32.344C32.5383 26.7533 32.7246 26.8303 32.8619 26.9673C32.9993 27.1043 33.0765 27.2901 33.0765 27.4839C33.0765 27.6777 32.9993 27.8635 32.8619 28.0006C32.7246 28.1376 32.5383 28.2146 32.344 28.2146Z" fill="#7A8C98"/>
<path d="M40.5906 33.0036C40.5906 32.2273 41.2237 31.5956 42.0021 31.5956V31.4982H37.9779C37.1445 31.4982 36.4688 32.1722 36.4688 33.0036C36.4688 33.8351 37.1444 34.509 37.9779 34.509H42.0021V34.4116C41.2237 34.4115 40.5906 33.78 40.5906 33.0036Z" fill="#00C27A"/>
<path d="M38.5814 33.0036C38.5814 32.1723 39.257 31.4982 40.0905 31.4982H37.9778C37.1444 31.4982 36.4688 32.1723 36.4688 33.0036C36.4688 33.835 37.1443 34.509 37.9778 34.509H40.0905C39.2571 34.5089 38.5814 33.835 38.5814 33.0036Z" fill="#08B865"/>
<path d="M42.002 34.509C42.8355 34.509 43.5111 33.835 43.5111 33.0036C43.5111 32.1722 42.8355 31.4982 42.002 31.4982C41.1686 31.4982 40.493 32.1722 40.493 33.0036C40.493 33.835 41.1686 34.509 42.002 34.509Z" fill="#7A8C98"/>
<path d="M41.5841 33.0036C41.5841 32.3646 41.9839 31.8199 42.5471 31.6014C42.3734 31.5333 42.1885 31.4983 42.002 31.4982C41.1686 31.4982 40.4929 32.1723 40.4929 33.0036C40.4929 33.835 41.1685 34.509 42.002 34.509C42.1945 34.509 42.3779 34.4718 42.5471 34.4059C41.9839 34.1874 41.5841 33.6427 41.5841 33.0036Z" fill="#596C76"/>
<path d="M43.511 27.1828C43.511 26.3514 42.8354 25.6774 42.002 25.6774H37.9778V25.7748C38.7561 25.7748 39.3893 26.4064 39.3893 27.1828C39.3893 27.9592 38.7561 28.5908 37.9778 28.5908V28.6882H42.002C42.8354 28.6882 43.511 28.0143 43.511 27.1828Z" fill="#00C27A"/>
<path d="M37.9778 28.6882C38.8113 28.6882 39.4869 28.0142 39.4869 27.1828C39.4869 26.3514 38.8113 25.6774 37.9778 25.6774C37.1444 25.6774 36.4688 26.3514 36.4688 27.1828C36.4688 28.0142 37.1444 28.6882 37.9778 28.6882Z" fill="#7A8C98"/>
<path d="M37.56 27.1828C37.56 26.5437 37.9598 25.9991 38.5229 25.7806C38.3493 25.7125 38.1644 25.6775 37.9778 25.6774C37.1444 25.6774 36.4688 26.3514 36.4688 27.1828C36.4688 28.0142 37.1443 28.6882 37.9778 28.6882C38.1704 28.6882 38.3538 28.651 38.5229 28.585C37.9598 28.3665 37.56 27.8219 37.56 27.1828Z" fill="#596C76"/>
<path d="M24.7987 22.3937H15.845C15.6508 22.3937 15.4645 22.3167 15.3271 22.1797C15.1898 22.0427 15.1126 21.8569 15.1126 21.6631C15.1126 21.4693 15.1898 21.2835 15.3271 21.1464C15.4645 21.0094 15.6508 20.9324 15.845 20.9324H24.7987C24.993 20.9324 25.1793 21.0094 25.3166 21.1464C25.454 21.2835 25.5311 21.4693 25.5311 21.6631C25.5311 21.8569 25.454 22.0427 25.3166 22.1797C25.1793 22.3167 24.993 22.3937 24.7987 22.3937ZM23.2897 41.4337H20.9759C20.9098 41.4337 20.8444 41.4208 20.7834 41.3955C20.7223 41.3703 20.6669 41.3334 20.6202 41.2868C20.5734 41.2402 20.5364 41.1848 20.5111 41.124C20.4858 41.0631 20.4728 40.9978 20.4728 40.9319V38.6237C20.4728 38.5578 20.4858 38.4925 20.5111 38.4316C20.5364 38.3708 20.5734 38.3154 20.6202 38.2688C20.6669 38.2222 20.7223 38.1853 20.7834 38.1601C20.8444 38.1348 20.9098 38.1219 20.9759 38.1219H23.2897C23.3558 38.1219 23.4212 38.1348 23.4823 38.1601C23.5433 38.1853 23.5988 38.2222 23.6455 38.2688C23.6922 38.3154 23.7292 38.3708 23.7545 38.4316C23.7798 38.4925 23.7928 38.5578 23.7928 38.6237V40.9319C23.7928 40.9978 23.7798 41.0631 23.7545 41.124C23.7292 41.1848 23.6922 41.2402 23.6455 41.2868C23.5988 41.3334 23.5433 41.3703 23.4823 41.3955C23.4212 41.4208 23.3558 41.4337 23.2897 41.4337Z" fill="#7A8C98"/>
<path d="M21.9819 40.9319V38.6237C21.9819 38.5578 21.9949 38.4925 22.0202 38.4316C22.0455 38.3708 22.0825 38.3154 22.1292 38.2688C22.176 38.2222 22.2314 38.1853 22.2924 38.1601C22.3535 38.1348 22.4189 38.1219 22.485 38.1219H20.9759C20.9098 38.1219 20.8444 38.1348 20.7834 38.1601C20.7223 38.1853 20.6669 38.2222 20.6202 38.2688C20.5734 38.3154 20.5364 38.3708 20.5111 38.4316C20.4858 38.4925 20.4728 38.5578 20.4729 38.6237V40.9319C20.4728 40.9978 20.4858 41.0631 20.5111 41.124C20.5364 41.1848 20.5734 41.2402 20.6202 41.2868C20.6669 41.3334 20.7223 41.3703 20.7834 41.3955C20.8444 41.4208 20.9098 41.4337 20.9759 41.4337H22.485C22.4189 41.4337 22.3535 41.4208 22.2924 41.3955C22.2314 41.3703 22.176 41.3334 22.1292 41.2868C22.0825 41.2402 22.0455 41.1848 22.0202 41.124C21.9949 41.0631 21.9819 40.9978 21.9819 40.9319Z" fill="#596C76"/>
<path d="M6.41348 40.107C6.81798 40.107 7.1459 39.7799 7.1459 39.3763C7.1459 38.9728 6.81798 38.6457 6.41348 38.6457C6.00897 38.6457 5.68105 38.9728 5.68105 39.3763C5.68105 39.7799 6.00897 40.107 6.41348 40.107Z" fill="#7A8C98"/>
<path d="M6.41348 43.1178C6.81798 43.1178 7.1459 42.7907 7.1459 42.3871C7.1459 41.9836 6.81798 41.6565 6.41348 41.6565C6.00897 41.6565 5.68105 41.9836 5.68105 42.3871C5.68105 42.7907 6.00897 43.1178 6.41348 43.1178Z" fill="#7A8C98"/>
<path d="M35.3371 16.4288C35.5177 16.2488 35.5595 15.9737 35.4413 15.7442C35.2839 15.4385 35.1515 15.1206 35.0454 14.7936C34.9661 14.5487 34.7417 14.3842 34.4869 14.3842H32.786C32.5706 14.3842 32.3954 14.2094 32.3954 13.9945V11.6648C32.3954 11.646 32.3983 11.6279 32.401 11.6098H1.50908C0.675586 11.6098 0 12.2838 0 13.1151V17.3365H34.427L35.3371 16.4288Z" fill="#FD4755"/>
<path d="M6.18711 11.6098H1.50908C0.675586 11.6098 0 12.2838 0 13.1151V17.3366H4.67803V13.1151C4.67803 12.2838 5.35371 11.6098 6.18711 11.6098Z" fill="#FB2B3A"/>
<path d="M3.09473 15.2039C3.49923 15.2039 3.82715 14.8768 3.82715 14.4732C3.82715 14.0697 3.49923 13.7426 3.09473 13.7426C2.69022 13.7426 2.3623 14.0697 2.3623 14.4732C2.3623 14.8768 2.69022 15.2039 3.09473 15.2039Z" fill="#FE646F"/>
<path d="M5.63379 15.2039C6.03829 15.2039 6.36621 14.8768 6.36621 14.4732C6.36621 14.0697 6.03829 13.7426 5.63379 13.7426C5.22928 13.7426 4.90137 14.0697 4.90137 14.4732C4.90137 14.8768 5.22928 15.2039 5.63379 15.2039Z" fill="#FED402"/>
<path d="M8.17285 15.2039C8.57736 15.2039 8.90527 14.8768 8.90527 14.4732C8.90527 14.0697 8.57736 13.7426 8.17285 13.7426C7.76835 13.7426 7.44043 14.0697 7.44043 14.4732C7.44043 14.8768 7.76835 15.2039 8.17285 15.2039Z" fill="#00C27A"/>
<path d="M50 13.9944V11.6647C50 11.5355 49.9486 11.4116 49.857 11.3202C49.7654 11.2289 49.6412 11.1776 49.5117 11.1776H47.8109C47.5974 11.1776 47.4109 11.0384 47.3453 10.8356C47.2377 10.5036 47.1033 10.1808 46.9434 9.87042C46.8456 9.68055 46.8785 9.45016 47.0298 9.29926L48.2333 8.09868C48.3249 8.00733 48.3763 7.88344 48.3763 7.75425C48.3763 7.62507 48.3249 7.50118 48.2333 7.40983L46.5819 5.76239C46.4904 5.67105 46.3662 5.61973 46.2367 5.61973C46.1072 5.61973 45.983 5.67105 45.8914 5.76239L44.6878 6.96297C44.5365 7.11387 44.3056 7.1467 44.1152 7.04919C43.8041 6.88962 43.4805 6.75552 43.1477 6.64822C42.9444 6.58275 42.8049 6.39678 42.8049 6.18373V4.48709C42.8049 4.35791 42.7534 4.23401 42.6619 4.14267C42.5703 4.05132 42.4461 4 42.3166 4H39.9812C39.8517 4 39.7275 4.05132 39.6359 4.14267C39.5443 4.23401 39.4929 4.35791 39.4929 4.48709V6.18373C39.4929 6.39678 39.3533 6.58275 39.1501 6.64822C38.8172 6.75555 38.4936 6.88965 38.1825 7.04919C37.9922 7.1467 37.7612 7.11387 37.61 6.96297L36.4064 5.76239C36.3149 5.67105 36.1907 5.61973 36.0612 5.61973C35.9317 5.61973 35.8075 5.67105 35.7159 5.76239L34.0646 7.40983C33.973 7.50118 33.9215 7.62507 33.9215 7.75425C33.9215 7.88344 33.973 8.00733 34.0646 8.09868L35.2681 9.29926C35.4193 9.45016 35.4522 9.68055 35.3545 9.87042C35.1946 10.1808 35.0601 10.5036 34.9525 10.8356C34.8869 11.0384 34.7005 11.1776 34.4869 11.1776H32.7861C32.6566 11.1776 32.5324 11.2289 32.4409 11.3202C32.3493 11.4116 32.2979 11.5355 32.2979 11.6647V13.9944C32.2979 14.1236 32.3493 14.2475 32.4409 14.3388C32.5324 14.4302 32.6566 14.4815 32.7861 14.4815H34.487C34.7006 14.4815 34.887 14.6207 34.9526 14.8235C35.0602 15.1555 35.1947 15.4783 35.3546 15.7887C35.4523 15.9785 35.4194 16.2089 35.2682 16.3598L34.0646 17.5603C33.9731 17.6517 33.9216 17.7756 33.9216 17.9047C33.9216 18.0339 33.9731 18.1578 34.0646 18.2492L35.716 19.8966C35.8076 19.9879 35.9318 20.0393 36.0613 20.0393C36.1908 20.0393 36.315 19.9879 36.4065 19.8966L37.6101 18.696C37.7613 18.5451 37.9923 18.5123 38.1826 18.6098C38.4937 18.7694 38.8173 18.9035 39.1502 19.0108C39.3534 19.0762 39.493 19.2622 39.493 19.4753V21.172C39.493 21.3012 39.5444 21.4251 39.636 21.5164C39.7276 21.6078 39.8517 21.6591 39.9812 21.6591H42.3167C42.4462 21.6591 42.5704 21.6078 42.662 21.5164C42.7535 21.4251 42.805 21.3012 42.805 21.172V19.4753C42.805 19.2622 42.9445 19.0762 43.1478 19.0108C43.4806 18.9034 43.8042 18.7693 44.1153 18.6098C44.3057 18.5123 44.5366 18.5451 44.6879 18.696L45.8914 19.8966C45.983 19.9879 46.1072 20.0393 46.2367 20.0393C46.3662 20.0393 46.4904 19.9879 46.5819 19.8966L48.2333 18.2492C48.3249 18.1578 48.3763 18.0339 48.3763 17.9047C48.3763 17.7756 48.3249 17.6517 48.2333 17.5603L47.0298 16.3598C46.8785 16.2089 46.8456 15.9784 46.9434 15.7887C47.1033 15.4783 47.2377 15.1555 47.3453 14.8235C47.4109 14.6207 47.5974 14.4815 47.8109 14.4815H49.5117C49.6412 14.4815 49.7654 14.4302 49.857 14.3388C49.9486 14.2475 50 14.1236 50 13.9944Z" fill="#B6C4CF"/>
<path d="M37.8923 14.859C37.5229 14.2704 37.3087 13.5751 37.3087 12.8295C37.3087 12.0839 37.5229 11.3886 37.8923 10.8C38.6121 8.55771 40.4923 6.8336 42.8282 6.33014C42.8129 6.2828 42.805 6.23338 42.8049 6.18363V4.48709C42.8049 4.35791 42.7534 4.23401 42.6619 4.14267C42.5703 4.05132 42.4461 4 42.3166 4H39.9812C39.8517 4 39.7275 4.05132 39.6359 4.14267C39.5443 4.23401 39.4929 4.35791 39.4929 4.48709V6.18373C39.4929 6.39678 39.3533 6.58275 39.1501 6.64822C38.8172 6.75555 38.4936 6.88965 38.1825 7.04919C37.9922 7.1467 37.7612 7.11387 37.61 6.96297L36.4064 5.76239C36.3149 5.67105 36.1907 5.61973 36.0612 5.61973C35.9317 5.61973 35.8075 5.67105 35.7159 5.76239L34.0646 7.40983C33.973 7.50118 33.9215 7.62507 33.9215 7.75425C33.9215 7.88344 33.973 8.00733 34.0646 8.09868L35.2681 9.29926C35.4193 9.45016 35.4522 9.68055 35.3545 9.87042C35.1946 10.1808 35.0601 10.5036 34.9525 10.8356C34.8869 11.0384 34.7005 11.1776 34.4869 11.1776H32.7861C32.6566 11.1776 32.5324 11.2289 32.4409 11.3202C32.3493 11.4116 32.2979 11.5355 32.2979 11.6647V13.9944C32.2979 14.1236 32.3493 14.2475 32.4409 14.3388C32.5324 14.4302 32.6566 14.4815 32.7861 14.4815H34.487C34.7006 14.4815 34.887 14.6207 34.9526 14.8235C35.0602 15.1555 35.1946 15.4782 35.3546 15.7886C35.4523 15.9784 35.4194 16.2088 35.2682 16.3597L34.0646 17.5602C33.9731 17.6516 33.9216 17.7755 33.9216 17.9046C33.9216 18.0338 33.9731 18.1577 34.0646 18.2491L35.716 19.8965C35.8076 19.9879 35.9318 20.0392 36.0613 20.0392C36.1908 20.0392 36.315 19.9879 36.4065 19.8965L37.6101 18.6959C37.7613 18.545 37.9923 18.5122 38.1826 18.6097C38.4937 18.7693 38.8173 18.9034 39.1502 19.0107C39.3534 19.0761 39.493 19.2621 39.493 19.4752V21.1719C39.493 21.3011 39.5444 21.425 39.636 21.5163C39.7276 21.6077 39.8517 21.659 39.9812 21.659H42.3167C42.4462 21.659 42.5704 21.6077 42.662 21.5163C42.7535 21.425 42.805 21.3011 42.805 21.1719V19.4752C42.805 19.4243 42.8134 19.3752 42.8282 19.3288C40.4922 18.8254 38.6121 17.1013 37.8923 14.859Z" fill="#9FACBA"/>
<path d="M41.1489 16.6605C43.2698 16.6605 44.9892 14.9453 44.9892 12.8296C44.9892 10.7139 43.2698 8.99872 41.1489 8.99872C39.028 8.99872 37.3087 10.7139 37.3087 12.8296C37.3087 14.9453 39.028 16.6605 41.1489 16.6605Z" fill="#8D9CA8"/>
<path d="M39.3518 12.8296C39.3518 11.0669 40.5456 9.58323 42.1705 9.13686C41.8377 9.04522 41.4941 8.99875 41.1489 8.99872C39.028 8.99872 37.3087 10.7139 37.3087 12.8296C37.3087 14.9453 39.028 16.6605 41.1489 16.6605C41.5028 16.6605 41.8451 16.6118 42.1705 16.5223C40.5456 16.076 39.3518 14.5923 39.3518 12.8296Z" fill="#7A8C98"/>
<path d="M41.1489 14.1233C41.8652 14.1233 42.4458 13.5441 42.4458 12.8296C42.4458 12.1151 41.8652 11.5359 41.1489 11.5359C40.4327 11.5359 39.8521 12.1151 39.8521 12.8296C39.8521 13.5441 40.4327 14.1233 41.1489 14.1233Z" fill="#465A61"/>
</svg>
