<svg id="clock" width="38" height="38" viewBox="0 0 38 38" fill="none" xmlns="http://www.w3.org/2000/svg" tz="Europe/Moscow">
            <path d="M19 38C29.4934 38 38 29.4934 38 19C38 8.50659 29.4934 0 19 0C8.50659 0 0 8.50659 0 19C0 29.4934 8.50659 38 19 38Z" fill="#E5E5E5" />
            <rect id="minuteHand" x="18" y="2" width="2" height="16.7" fill="black" />
            <rect id="hourHand" x="18" y="7" width="2" height="11" fill="black" />
            <rect x="16" y="16" width="6" height="6" rx="3" fill="black" />
            <path id="secondHand" transform="translate(0, -15)" d="M19 17.5C19.3781 17.4959 19.7437 17.6346 20.0239 17.8886C20.304 18.1425 20.4779 18.4929 20.5107 18.8695C20.5436 19.2462 20.433 19.6214 20.2011 19.92C19.9692 20.2186 19.6331 20.4186 19.26 20.48L15.65 34.2L14.44 33.88L18.04 20.16C17.8002 19.9634 17.6272 19.6974 17.5449 19.3984C17.4625 19.0995 17.4748 18.7824 17.58 18.4908C17.6853 18.1991 17.8784 17.9472 18.1326 17.7698C18.3869 17.5924 18.6899 17.4981 19 17.5Z" fill="#FF3A30" />
         </svg>