<svg width="50" height="50" viewBox="0 0 50 50" fill="none" xmlns="http://www.w3.org/2000/svg">
<g clip-path="url(#clip0_241_8)">
<path d="M46.1364 0H3.86364C1.72727 0 0 1.72727 0 3.86364V46.1364C0 48.2727 1.72727 50 3.86364 50H46.1364C48.2727 50 50 48.2727 50 46.1364V3.86364C50 1.72727 48.2727 0 46.1364 0ZM25.3409 42.3636C15.75 42.5455 7.84091 34.9318 7.65909 25.3409C7.47727 15.75 15.0909 7.84091 24.6818 7.65909C34.2727 7.47727 42.1818 15.0909 42.3636 24.6818C42.3636 24.9091 42.3636 25.1136 42.3636 25.3409C42.1818 34.6591 34.6591 42.1818 25.3409 42.3636Z" fill="#FF6666"/>
<path d="M8.45459 17.8636L11.8182 12.8636L22.7273 26.7727L18.7728 31L8.45459 17.8636Z" fill="#FF6666"/>
<path d="M33.841 36.2727H19.6365L16.3183 44.0682L10.1365 44.2273C15.4319 32 20.7274 19.8182 26.0228 7.61363L28.0228 7.86363L42.1365 41.0682L35.9092 41.0909L33.841 36.2727ZM21.7956 31.25H31.8183L28.3865 22.8864L26.8865 19.2273C26.341 20.5227 25.7956 21.8182 25.2501 23.1364C24.091 25.8409 22.9547 28.5454 21.7956 31.25Z" fill="#FF6666"/>
<path d="M42.9091 19.1591L35.9545 28L32 23.7727L40.4318 13.0455L42.9091 19.1591Z" fill="#FF6666"/>
</g>
<defs>
<clipPath id="clip0_241_8">
<rect width="50" height="50" fill="white"/>
</clipPath>
</defs>
</svg>
