<svg width="50" height="50" viewBox="0 0 50 50" fill="none" xmlns="http://www.w3.org/2000/svg">
<g clip-path="url(#clip0_89_6)">
<path d="M29.7274 10.4344C29.7274 10.1363 30.0681 9.92334 30.3237 10.0511L37.5213 13.3305C37.6917 13.4157 37.7768 13.586 37.7768 13.7138V30.5366C37.7768 30.7922 37.9472 30.9625 38.2027 30.9625H48.7649C49.0204 30.9625 49.2334 31.2181 49.1482 31.4736C48.0707 35.4855 46.0136 39.1695 43.1559 42.1848C40.2981 45.2044 36.7334 47.4617 32.7853 48.7521C28.8373 50.0468 24.6295 50.3365 20.5409 49.5954C16.4523 48.8543 12.6107 47.1039 9.36968 44.506C9.24191 44.3782 9.19932 44.1652 9.2845 43.9949L10.7325 41.5247C10.8603 41.3118 11.1584 41.2266 11.3714 41.3969C13.5647 43.2325 16.1031 44.6082 18.8416 45.4387C21.5758 46.2734 24.4506 46.5417 27.2956 46.2351C30.1363 45.9284 32.8918 45.0511 35.3876 43.6584C37.8833 42.2615 40.0724 40.379 41.8228 38.1175C42.0358 37.8194 41.8654 37.4361 41.4821 37.4361H37.5213C37.3509 37.4361 37.2232 37.3509 37.138 37.2232L29.77 24.4463L29.7274 24.2334V10.4344Z" fill="#FD393B"/>
<path d="M17.9727 10.2215C18.1431 9.92334 18.569 9.92334 18.7394 10.2215L34.0715 36.7973C34.2419 37.0954 34.029 37.4361 33.7308 37.4361H26.7462C26.5758 37.4361 26.448 37.3509 26.3629 37.2232L24.5315 34.029C24.4463 33.9012 24.3186 33.816 24.1482 33.816H15.8859C15.5877 33.816 15.3748 33.4753 15.5451 33.1772L18.3135 28.3646C18.356 28.2368 18.5264 28.1516 18.6542 28.1516H20.4003C20.6985 28.1516 20.9114 27.8109 20.7411 27.5128L18.7394 23.9779C18.569 23.6797 18.1431 23.6797 17.9727 23.9779L8.98637 39.5656V39.6082L8.00681 41.2692L7.96423 41.3118L7.53833 42.121C7.36797 42.3765 7.02726 42.4191 6.8569 42.2061C5.32368 40.5877 4.00341 38.7138 2.93867 36.7547C2.85349 36.6269 2.85349 36.4566 2.93867 36.3288L3.36457 35.5196L3.44974 35.4344V35.3918L17.9727 10.2215Z" fill="#FD393B"/>
<path d="M25 0C28.5434 0.00425894 32.0485 0.758092 35.2768 2.21891C38.5051 3.67973 41.3884 5.80494 43.7308 8.46678C46.0775 11.1244 47.8279 14.2504 48.8714 17.6363C49.9148 21.0221 50.2257 24.5911 49.7871 28.109C49.7871 28.322 49.6167 28.4923 49.4038 28.4923H46.5503C46.2947 28.4923 46.0818 28.2368 46.1244 27.9813C47.0102 21.7504 45.1022 15.4472 40.9072 10.7538C36.7164 6.06474 30.6644 3.46252 24.3739 3.64566C18.0835 3.83305 12.1934 6.7845 8.28365 11.7121C4.37394 16.644 2.83646 23.0494 4.08859 29.2164L4.046 29.5145L2.04429 32.9642C1.83135 33.2624 1.40545 33.2198 1.27768 32.879C0.0212947 29.1227 -0.32368 25.1192 0.272572 21.201C0.868825 17.2871 2.38501 13.569 4.70613 10.3535C7.023 7.14225 10.0724 4.52726 13.6031 2.72572C17.1295 0.924191 21.0392 -0.00851789 25 0Z" fill="#FD393B"/>
</g>
<defs>
<clipPath id="clip0_89_6">
<rect width="50" height="50" fill="white"/>
</clipPath>
</defs>
</svg>
