<svg viewBox="0 0 50 50" xmlns="http://www.w3.org/2000/svg" xmlns:xlink="http://www.w3.org/1999/xlink" width="50.000000" height="50.000000" fill="none" customFrame="#000000">
	<path id="helix" d="M6.3616 41.6541L19.665 41.6541C29.5789 46.7842 41.1029 49.1578 47.458 49.7703C49.0679 50 50 50 50 50C43.7296 48.9281 34.2393 46.0951 26.1048 41.8838C19.7497 38.5914 13.9877 34.4568 10.5136 29.6331C6.78527 24.4265 4.6669 19.0667 4.24323 14.4727C3.81956 9.80207 5.09058 5.89713 7.97156 3.67667C11.022 1.37965 14.5809 0.307704 18.3939 0.0780015C13.3099 -0.304836 8.22577 0.690542 4.24323 3.75324C-1.6882 8.27072 -1.77294 20.9044 6.3616 31.241C6.3616 31.3175 6.44633 31.3175 6.44633 31.3941L6.44633 41.6541L6.3616 41.6541L6.3616 41.6541ZM49.9153 39.1274L49.9153 30.705C48.729 31.7004 46.7801 32.3129 44.4075 32.5426C41.2723 32.7723 37.544 32.2363 33.7309 30.7816C32.7141 30.3987 31.6973 29.9393 30.7652 29.4799C26.359 27.2595 22.7154 24.0436 20.3428 20.7512C17.9703 17.4588 16.9534 14.0133 17.8855 11.5631C18.8176 10.0318 20.0039 9.11296 21.2749 8.57699C22.5459 8.04102 23.9864 7.88788 25.5117 7.96445C26.9522 8.04102 28.4774 8.42386 30.0026 8.95983C31.6973 9.57237 33.3073 10.4146 34.9172 11.3334C36.4424 12.2522 37.7982 13.4007 38.9845 14.5493C40.2555 15.8509 41.2723 17.2291 42.0349 18.5308C42.7976 19.909 43.2212 21.2872 43.2212 22.4357C43.2212 23.4311 42.8823 24.2733 42.0349 24.9624C41.3571 25.3453 40.3402 25.4218 39.154 25.2687C37.7982 25.039 36.273 24.4265 34.7477 23.6608C33.2225 22.8185 31.8668 21.8232 30.7652 20.6747C29.6637 19.6027 28.901 18.4542 28.4774 17.3823C27.5453 14.5493 29.1552 13.5539 30.511 13.2476C31.1889 13.0945 31.782 13.0179 32.0362 13.0179L32.121 13.0179L33.5615 12.8648L32.2904 12.3288C32.2057 12.3288 31.2736 12.1757 30.2568 12.1757C29.4942 12.2522 28.6468 12.3288 27.8842 12.6351C27.0369 12.9413 26.359 13.4773 25.8506 14.3196C25.5117 14.9321 25.3422 15.6978 25.4269 16.6166C25.5964 18.2245 26.5285 19.9855 27.969 21.5935C29.4942 23.278 31.4431 24.8093 33.7309 25.9578C35.934 27.1063 38.3066 27.6423 40.425 27.7954C42.6281 27.872 44.4922 27.4126 45.5938 26.4172C45.7633 26.2641 45.9327 26.0344 46.1022 25.8812C47.458 24.1202 47.2885 21.8232 46.1022 19.4496C44.9159 17.1526 42.8823 14.7024 40.3402 12.5585C38.9845 11.41 37.6287 10.338 36.1035 9.41924C34.8325 8.577 33.4767 7.88789 32.121 7.19878C29.0705 5.744 25.8506 4.82519 22.8849 4.90176C19.9192 4.90176 17.2076 5.89713 15.2587 8.34729C15.0045 8.73013 14.6656 9.11297 14.4114 9.57237C12.632 12.7116 13.3098 16.6931 15.6824 20.6747C18.2245 24.8859 22.6307 29.0971 27.8842 32.2364C34.0699 35.9116 41.0181 37.7492 45.4243 38.5149C46.3564 38.7446 48.8137 39.1274 49.9153 39.1274L49.9153 39.1274ZM49.9153 18.4542L49.9153 0.767107L26.1048 0.767107C30.2568 1.68592 34.2393 3.44697 37.7135 5.74399C42.5433 8.95983 47.119 13.4773 49.7458 18.0714C49.8305 18.1479 49.8305 18.3011 49.9153 18.4542Z" fill="rgb(0,190,110)" fill-rule="evenodd" />
</svg>
