<svg viewBox="0 0 50 50.0158" xmlns="http://www.w3.org/2000/svg" xmlns:xlink="http://www.w3.org/1999/xlink" width="50.000027" height="50.015846" fill="none" customFrame="#000000">
	<g id="search">
		<path id="Форма 1" d="M18.479 24.1014L14.4327 24.1014C14.0473 24.1014 13.8546 23.9062 13.8546 23.5158C13.8546 21.1147 13.6234 20.939 14.8951 20.939L14.8951 16.0782C13.6234 16.0782 13.8546 15.9318 13.8546 13.5014C13.8546 13.111 14.0473 12.9157 14.4327 12.9157L18.479 12.9157C18.8644 12.9157 19.057 13.111 19.057 13.5014C19.057 15.9318 19.2883 16.0782 18.0166 16.0782L18.0166 20.939C19.2883 20.939 19.057 21.0854 19.057 23.5158C19.057 23.9062 18.8644 24.1014 18.479 24.1014ZM16.4558 12.1251C13.739 12.1251 13.739 7.96712 16.4558 7.96712C19.1726 7.96712 19.1726 12.1251 16.4558 12.1251Z" fill="rgb(115,181,229)" fill-rule="evenodd" />
		<path id="Форма 2" d="M28.8097 32.9431C28.6516 32.9408 28.5172 32.8825 28.4066 32.7682L24.7789 29.038C23.9152 28.1929 26.1033 27.9015 28.4354 24.5793C28.683 24.2502 28.9613 24.2211 29.2703 24.4918L32.9267 28.1929C33.1901 28.4649 33.1901 28.7369 32.9267 29.0089L29.1839 32.7682C29.0733 32.8825 28.9389 32.9408 28.7809 32.9431L28.8097 32.9431Z" fill="rgb(154,179,205)" fill-rule="evenodd" />
		<path id="Форма 3" d="M25.6757 29.9564L24.7797 29.0843C23.9126 28.154 26.1092 27.8924 28.4503 24.5493C28.7093 24.2327 28.9887 24.2133 29.2885 24.4912L30.1844 25.3924C28.9706 27.2142 27.458 28.7355 25.6468 29.9564L25.6757 29.9564Z" fill="rgb(139,161,185)" fill-rule="evenodd" />
		<path id="Форма 4" d="M16.4558 32.0368C5.46518 32.4923 -0.0200768 27.148 5.2282e-05 16.0037C0.0201828 4.85942 5.52471 -0.464562 16.5136 0.0317406C26.6024 0.487386 31.6376 5.83091 31.6191 16.0623C31.6006 26.2937 26.5462 31.6185 16.4558 32.0368ZM16.4558 28.1423C8.4788 28.1423 4.49029 24.1014 4.49029 16.0196C4.49029 7.93784 8.4788 3.89694 16.4558 3.89694C24.4329 3.89694 28.4214 7.93784 28.4214 16.0196C28.4214 24.1014 24.4329 28.1423 16.4558 28.1423Z" fill="rgb(197,214,229)" fill-rule="evenodd" />
		<path id="Форма 5" d="M45.0936 50.0149C43.7854 50.0188 42.6698 49.5509 41.7468 48.611L27.2636 33.9581C26.97 33.6753 26.97 33.3926 27.2636 33.1099L33.3223 27.0264C33.582 26.7856 33.8416 26.7856 34.1013 27.0264L48.5845 41.6794C51.5562 44.6919 49.3924 50.0149 45.0935 50.0149L45.0936 50.0149Z" fill="rgb(176,101,39)" fill-rule="evenodd" />
		<path id="Форма 6" d="M41.0228 47.849L40.1846 47.0291L47.0345 40.0893L47.8726 40.9092L41.0228 47.849ZM31.803 38.5373L30.9937 37.6882L37.8435 30.7484L38.6528 31.5683L31.803 38.5373Z" fill="rgb(200,121,40)" fill-rule="evenodd" />
		<path id="Форма 7" d="M16.4558 28.1423C8.4788 28.1423 4.49029 24.1014 4.49029 16.0196C4.49029 7.93783 8.4788 3.89694 16.4558 3.89694C24.4329 3.89694 28.4214 7.93783 28.4214 16.0196C28.4214 24.1014 24.4329 28.1423 16.4558 28.1423Z" fill="rgb(0,204,255)" fill-opacity="0.180000007" fill-rule="evenodd" />
	</g>
</svg>
