<svg width="50" height="50" viewBox="0 0 50 50" fill="none" xmlns="http://www.w3.org/2000/svg">
<path d="M14.0058 27.7822L12.4375 27.2172C12.9675 25.6763 13.2624 24.0643 13.3125 22.4355L14.9783 22.5022C14.9215 24.3011 14.5936 26.0811 14.0058 27.7822Z" fill="#E7EAEF"/>
<path d="M49.7565 11.0775L45.5898 6.91085C45.4336 6.75455 45.2216 6.66673 45.0007 6.66668H23.8756C22.7404 4.27339 20.8245 2.33767 18.443 1.17783C16.0615 0.0179955 13.3563 -0.296901 10.7721 0.284927C8.18787 0.866754 5.87859 2.31066 4.22399 4.37921C2.56939 6.44776 1.66797 9.01779 1.66797 11.6667C1.66797 14.3156 2.56939 16.8856 4.22399 18.9541C5.87859 21.0227 8.18787 22.4666 10.7721 23.0484C13.3563 23.6303 16.0615 23.3154 18.443 22.1555C20.8245 20.9957 22.7404 19.06 23.8756 16.6667H30.0006C30.2216 16.6666 30.4335 16.5788 30.5898 16.4225L32.5006 14.5117L34.4115 16.4225C34.5677 16.5787 34.7797 16.6665 35.0006 16.6665C35.2216 16.6665 35.4335 16.5787 35.5898 16.4225L37.5006 14.5117L39.4115 16.4225C39.5677 16.5787 39.7797 16.6665 40.0006 16.6665C40.2216 16.6665 40.4335 16.5787 40.5898 16.4225L42.5006 14.5117L44.4115 16.4225C44.5678 16.5787 44.7797 16.6665 45.0007 16.6665C45.2216 16.6665 45.4335 16.5787 45.5898 16.4225L49.7565 12.2558C49.9127 12.0996 50.0005 11.8876 50.0005 11.6667C50.0005 11.4457 49.9127 11.2338 49.7565 11.0775ZM9.16724 15C8.50797 15 7.8635 14.8045 7.31534 14.4382C6.76717 14.072 6.33993 13.5514 6.08764 12.9423C5.83535 12.3332 5.76933 11.663 5.89795 11.0164C6.02657 10.3698 6.34404 9.77583 6.81022 9.30966C7.27639 8.84348 7.87034 8.52601 8.51694 8.39739C9.16355 8.26878 9.83377 8.33479 10.4429 8.58708C11.0519 8.83937 11.5725 9.26661 11.9388 9.81478C12.3051 10.3629 12.5006 11.0074 12.5006 11.6667C12.4995 12.5504 12.1479 13.3976 11.5231 14.0225C10.8982 14.6474 10.051 14.9989 9.16724 15Z" fill="#FCB860"/>
<path d="M18.0892 31.0768L13.9225 26.9102C13.7663 26.7539 13.5544 26.6661 13.3334 26.666H5.00001C4.77901 26.6661 4.56709 26.7539 4.41084 26.9102L0.244167 31.0768C0.0878757 31.2331 4.71979e-05 31.445 0 31.666V47.4993C0.000661847 48.1622 0.264267 48.7977 0.732966 49.2664C1.20166 49.7351 1.83717 49.9987 2.50001 49.9994H15.8334C16.4962 49.9987 17.1317 49.7351 17.6004 49.2664C18.0691 48.7977 18.3327 48.1622 18.3334 47.4993V31.666C18.3333 31.445 18.2455 31.2331 18.0892 31.0768Z" fill="#FC6067"/>
<path d="M9.16733 32.5007C5.89649 32.5007 3.33398 27.7423 3.33398 21.6673C3.33398 15.5923 5.89649 10.834 9.16733 10.834C9.38834 10.834 9.60031 10.9218 9.75659 11.0781C9.91287 11.2343 10.0007 11.4463 10.0007 11.6673C10.0007 11.8883 9.91287 12.1003 9.75659 12.2566C9.60031 12.4129 9.38834 12.5007 9.16733 12.5007C7.19649 12.5007 5.00065 16.2657 5.00065 21.6673C5.00065 27.069 7.19649 30.834 9.16733 30.834C9.38834 30.834 9.60031 30.9218 9.75659 31.0781C9.91287 31.2343 10.0007 31.4463 10.0007 31.6673C10.0007 31.8883 9.91287 32.1003 9.75659 32.2566C9.60031 32.4129 9.38834 32.5007 9.16733 32.5007Z" fill="#E7EAEF"/>
</svg>
