<svg width="50" height="50" viewBox="0 0 50 50" fill="none" xmlns="http://www.w3.org/2000/svg">
<g clip-path="url(#clip0_200_5)">
<path d="M30.2192 49.9998C31.891 49.9998 33.3489 48.5419 33.3489 46.8701V39.561H35.4386C36.6926 39.561 37.5284 38.7249 37.5284 37.4712V16.5953H12.4715V37.4714C12.4715 38.7252 13.3074 39.5612 14.5612 39.5612H16.6511V46.8703C16.6511 48.5421 18.1086 50 19.7808 50C21.4524 50 22.9102 48.5421 22.9102 46.8703V39.5612H27.0898V46.8703C27.0896 48.5419 28.5475 49.9998 30.2192 49.9998ZM42.7479 37.4714C44.4197 37.4714 45.8773 36.0137 45.8773 34.3418V19.7237C45.8773 18.0607 44.4198 16.5953 42.7479 16.5953C41.0759 16.5953 39.6182 18.0608 39.6182 19.7237V34.3418C39.6182 36.0135 41.0758 37.4714 42.7479 37.4714ZM7.25204 37.4714C8.924 37.4714 10.3817 36.0137 10.3817 34.3418V19.7237C10.3817 18.0607 8.9242 16.5953 7.25204 16.5953C5.58027 16.5953 4.12266 18.0608 4.12266 19.7237V34.3418C4.12275 36.0135 5.58027 37.4714 7.25204 37.4714ZM35.0205 0.315331C34.6027 -0.105078 33.9807 -0.105078 33.563 0.315331L30.7601 3.10878L30.6309 3.23788C28.9689 2.40565 27.1056 1.99003 25.0306 1.98603C25.0204 1.98603 25.0104 1.98573 25.0002 1.98573H24.9999C24.9894 1.98573 24.9797 1.98603 24.9693 1.98603C22.8944 1.99003 21.0311 2.40565 19.3693 3.23788L19.2397 3.10878L16.4369 0.315331C16.0188 -0.105078 15.3971 -0.105078 14.9794 0.315331C14.5613 0.733396 14.5613 1.3539 14.9794 1.77167L17.6906 4.48338C16.8169 5.06668 16.0248 5.78045 15.3359 6.59685C13.6867 8.55172 12.6346 11.096 12.49 13.8526C12.4886 13.8813 12.4858 13.9096 12.4845 13.9383C12.4757 14.1268 12.4714 14.3155 12.4715 14.5041H37.5284C37.5284 14.3148 37.5239 14.1261 37.5154 13.9383C37.514 13.9096 37.5112 13.8813 37.5095 13.8526C37.3652 11.096 36.313 8.55163 34.6636 6.59704C33.9751 5.78064 33.1826 5.06687 32.309 4.48358L35.0205 1.77187C35.4386 1.3539 35.4386 0.733493 35.0205 0.315331ZM19.7768 10.8554C18.9122 10.8554 18.2113 10.1546 18.2113 9.28991C18.2113 8.42526 18.9121 7.72438 19.7768 7.72438C20.6413 7.72438 21.3423 8.42526 21.3423 9.28991C21.3423 10.1546 20.6413 10.8554 19.7768 10.8554ZM30.223 10.8554C29.3585 10.8554 28.6575 10.1546 28.6575 9.28991C28.6575 8.42526 29.3584 7.72438 30.223 7.72438C31.0876 7.72438 31.7886 8.42526 31.7886 9.28991C31.7886 10.1546 31.0877 10.8554 30.223 10.8554Z" fill="#A6D864"/>
</g>
<defs>
<clipPath id="clip0_200_5">
<rect width="50" height="50" fill="white"/>
</clipPath>
</defs>
</svg>
