<svg width="50" height="50" viewBox="0 0 50 50" fill="none" xmlns="http://www.w3.org/2000/svg">
<path fill-rule="evenodd" clip-rule="evenodd" d="M4.99671 23.1706H14.2877V27.0801C14.2877 27.5968 14.4702 28.0418 14.8324 28.4072L17.7397 31.3417C18.1019 31.7072 18.2844 32.1521 18.2844 32.6688V48.1228C18.2844 49.1567 17.4485 50 16.4239 50H2.86048C1.83587 50 1 49.1567 1 48.1228V32.6688C1 32.152 1.18253 31.7072 1.54468 31.3417L4.45203 28.4072C4.81418 28.0417 4.99671 27.5969 4.99671 27.0801V23.1706Z" fill="#7E6451"/>
<path fill-rule="evenodd" clip-rule="evenodd" d="M4.1448 19.9648H15.1396C15.4811 19.9648 15.7598 20.2459 15.7598 20.5905V23.7128C15.7598 24.0575 15.4812 24.3385 15.1396 24.3385H4.1448C3.8032 24.3385 3.52464 24.0575 3.52464 23.7128V20.5905C3.52464 20.2459 3.8032 19.9648 4.1448 19.9648Z" fill="#E4E8EB"/>
<path fill-rule="evenodd" clip-rule="evenodd" d="M1 34.169H18.2844V45.7221H1V34.169Z" fill="#FDCD56"/>
<path fill-rule="evenodd" clip-rule="evenodd" d="M9.05056 37.0965H10.2338C10.5099 37.0965 10.735 37.3236 10.735 37.6022V38.843H11.9648C12.2409 38.843 12.466 39.0701 12.466 39.3487V40.5426C12.466 40.8211 12.2409 41.0482 11.9648 41.0482H10.735V42.2891C10.735 42.5676 10.5099 42.7947 10.2338 42.7947H9.05056C8.91772 42.7945 8.7904 42.7411 8.69647 42.6463C8.60253 42.5516 8.54965 42.4231 8.54938 42.2891V41.0482H7.31959C7.18675 41.048 7.05942 40.9946 6.96549 40.8998C6.87156 40.8051 6.81867 40.6766 6.81841 40.5426V39.3487C6.81841 39.0701 7.04354 38.843 7.31959 38.843H8.54938V37.6022C8.54938 37.3236 8.77451 37.0965 9.05056 37.0965Z" fill="#F76C82"/>
<path fill-rule="evenodd" clip-rule="evenodd" d="M21.3684 2.12633L23.4375 4.21406C24.6021 5.38904 23.6589 8.2458 21.3309 10.5947C19.0028 12.9435 16.1715 13.8952 15.007 12.7202L12.9378 10.6325C11.7733 9.4575 12.7165 6.60074 15.0445 4.25188C17.3725 1.90302 20.2038 0.951341 21.3684 2.12633Z" fill="#F5B945"/>
<path d="M19.2591 8.50814C21.5871 6.15922 22.5303 3.30251 21.3657 2.12752C20.2012 0.952522 17.3699 1.90418 15.0418 4.25311C12.7138 6.60203 11.7706 9.45874 12.9351 10.6337C14.0997 11.8087 16.931 10.8571 19.2591 8.50814Z" fill="#FDCD56"/>
<path fill-rule="evenodd" clip-rule="evenodd" d="M18.9462 1.77519C18.4275 1.91698 17.8723 2.15545 17.3076 2.48172L15.029 11.062C15.5311 10.9625 16.0758 10.7638 16.6357 10.4752L18.9462 1.77519ZM29.3602 12.7348V15.6872C29.3602 17.349 26.6912 18.696 23.3988 18.696C20.1065 18.696 17.4375 17.349 17.4375 15.6872V12.7348C17.4375 11.073 20.1065 9.72601 23.3988 9.72601C26.6912 9.72601 29.3602 11.073 29.3602 12.7348Z" fill="#F5B945"/>
<path d="M23.3988 15.7435C26.6912 15.7435 29.3602 14.3965 29.3602 12.7348C29.3602 11.0731 26.6912 9.72602 23.3988 9.72602C20.1065 9.72602 17.4375 11.0731 17.4375 12.7348C17.4375 14.3965 20.1065 15.7435 23.3988 15.7435Z" fill="#FDCD56"/>
<path fill-rule="evenodd" clip-rule="evenodd" d="M27.8927 10.7579C27.427 10.4885 26.8679 10.2612 26.2406 10.0892L18.6158 14.5309C19.0402 14.8184 19.5641 15.0661 20.1615 15.2615L27.8927 10.7579Z" fill="#F5B945"/>
<path fill-rule="evenodd" clip-rule="evenodd" d="M36.8001 17.1165C36.8454 17.2967 36.8185 17.4877 36.7252 17.648C36.6319 17.8084 36.4798 17.9252 36.3017 17.9732C36.1237 18.0212 35.9341 17.9965 35.7739 17.9045C35.6138 17.8124 35.4961 17.6605 35.4462 17.4815L31.2385 1.63774C31.1905 1.4566 31.2158 1.26364 31.3089 1.10133C31.4019 0.939012 31.555 0.820632 31.7346 0.772231C31.9141 0.723829 32.1053 0.749371 32.2662 0.843236C32.4271 0.937101 32.5444 1.0916 32.5924 1.27275L36.8001 17.1165Z" fill="#CAD0D7"/>
<path fill-rule="evenodd" clip-rule="evenodd" d="M34.7844 17.1448L37.1088 16.5164L35.6816 11.1419C35.6469 11.0125 35.5629 10.9023 35.4479 10.8352C35.3328 10.7682 35.1962 10.75 35.0678 10.7844L33.7116 11.151C33.5834 11.1859 33.4741 11.2707 33.4077 11.3868C33.3413 11.5029 33.3232 11.6407 33.3573 11.7703L34.7844 17.1448Z" fill="#E4E8EB"/>
<path fill-rule="evenodd" clip-rule="evenodd" d="M38.2305 38.8723L44.8917 37.0714L39.2893 15.9751C38.7984 14.1269 36.898 13.0199 35.0661 13.5151C33.2343 14.0104 32.1371 15.9278 32.628 17.7761L38.2305 38.8723Z" fill="#F4F6F8"/>
<path fill-rule="evenodd" clip-rule="evenodd" d="M43.7442 32.7508L43.3811 31.3832L40.4778 32.1681C40.3888 32.1921 40.3054 32.2337 40.2323 32.2903C40.1592 32.3469 40.0979 32.4174 40.0518 32.4979C39.9588 32.6606 39.9336 32.8538 39.9817 33.0352C40.0299 33.2165 40.1475 33.3711 40.3087 33.465C40.4698 33.5589 40.6613 33.5843 40.8411 33.5357L43.7442 32.7508ZM42.948 29.7525L42.5862 28.3902L40.7819 28.8779C40.409 28.9788 40.1878 29.3654 40.2877 29.7416C40.3876 30.1179 40.7708 30.3411 41.1437 30.2402L42.948 29.7525ZM42.1525 26.7567L41.7907 25.3945L38.8875 26.1794C38.5146 26.2802 38.2934 26.6668 38.3933 27.0431C38.4933 27.4193 38.8765 27.6425 39.2494 27.5417L42.1525 26.7567ZM41.3576 23.7638L40.9944 22.3961L39.19 22.8839C39.0108 22.933 38.8583 23.0517 38.7657 23.2141C38.6731 23.3765 38.6481 23.5693 38.6962 23.7503C38.7442 23.9312 38.8614 24.0856 39.022 24.1795C39.1827 24.2735 39.3737 24.2994 39.5532 24.2515L41.3576 23.7638ZM40.562 20.768L40.1988 19.4004L37.2955 20.1853C37.1164 20.2344 36.9638 20.3532 36.8712 20.5156C36.7787 20.6779 36.7537 20.8707 36.8017 21.0517C36.8498 21.2326 36.9669 21.387 37.1276 21.481C37.2882 21.5749 37.4792 21.6008 37.6587 21.5529L40.562 20.768ZM39.7665 17.7722L39.4033 16.4046L37.599 16.8923C37.4198 16.9414 37.2672 17.0602 37.1746 17.2226C37.0821 17.385 37.0571 17.5778 37.1051 17.7587C37.1532 17.9397 37.2704 18.0941 37.431 18.188C37.5916 18.282 37.7826 18.3078 37.9621 18.26L39.7665 17.7722ZM40.09 38.2538L42.9957 37.4677L45.5477 47.0712L42.642 47.8572L40.09 38.2538Z" fill="#CAD0D7"/>
<path fill-rule="evenodd" clip-rule="evenodd" d="M36.8776 40.8L47.0186 38.0585C47.8175 37.8425 48.2961 37.0062 48.082 36.2C47.8679 35.3939 47.039 34.9111 46.24 35.1271L36.0991 37.8686C35.3002 38.0847 34.8216 38.921 35.0357 39.7271C35.2497 40.5333 36.0786 41.0161 36.8776 40.8Z" fill="#E4E8EB"/>
<path fill-rule="evenodd" clip-rule="evenodd" d="M41.1109 49.9477L47.8855 48.1163C48.6845 47.9002 49.163 47.0639 48.9489 46.2578C48.7348 45.4516 47.9058 44.9688 47.107 45.1849L40.3324 47.0164C39.5336 47.2323 39.0549 48.0687 39.269 48.8749C39.4832 49.6809 40.312 50.1637 41.1109 49.9477Z" fill="#CAD0D7"/>
<path fill-rule="evenodd" clip-rule="evenodd" d="M19.0473 40.2395L28.0285 42.6675C29.9925 43.1985 31.1688 45.2541 30.6426 47.2358C30.1164 49.2174 28.079 50.4042 26.1149 49.8733L17.1337 47.4452C15.1697 46.9143 13.9934 44.8586 14.5196 42.877C15.0459 40.8953 17.0834 39.7085 19.0473 40.2395Z" fill="#4FC0E8"/>
<path fill-rule="evenodd" clip-rule="evenodd" d="M30.6426 47.2358C31.1688 45.2542 29.9926 43.1985 28.0285 42.6675L23.538 41.4535L21.6244 48.6593L26.115 49.8733C28.079 50.4042 30.1164 49.2174 30.6426 47.2358Z" fill="#EB5463"/>
<path fill-rule="evenodd" clip-rule="evenodd" d="M21.0944 38.548L23.5009 29.4862C24.0271 27.5046 26.0645 26.3177 28.0285 26.8487C29.9926 27.3796 31.1688 29.4353 30.6426 31.4169L28.2361 40.4787C27.7099 42.4604 25.6724 43.6472 23.7085 43.1162C21.7444 42.5852 20.5682 40.5295 21.0944 38.548Z" fill="#66D4F1"/>
<path fill-rule="evenodd" clip-rule="evenodd" d="M28.0285 26.8487C26.0646 26.3177 24.0271 27.5045 23.5009 29.4862L22.2976 34.017L29.4394 35.9478L30.6426 31.4169C31.1688 29.4353 29.9925 27.3796 28.0285 26.8487Z" fill="#F76C82"/>
</svg>
