<svg width="50" height="50" viewBox="0 0 50 50" fill="none" xmlns="http://www.w3.org/2000/svg">
<path d="M39.7465 41.8994L30.8067 25L39.7467 8.10068C45.8398 11.2774 50 17.6529 50 25C50 32.3472 45.8397 38.7227 39.7465 41.8994Z" fill="#1C2435"/>
<path d="M18.0107 5.07812H0V44.9219H18.0107L26.7578 25L18.0107 5.07812Z" fill="#FF3B61"/>
<path d="M33.7363 25C33.7363 28.373 36.4707 31.1074 39.8438 31.1074V44.9219H18.0107V5.07812H39.8438V18.8926C36.4707 18.8926 33.7363 21.627 33.7363 25Z" fill="#B5003C"/>
<path d="M26.7578 13.1897V30.1272C26.7578 32.2815 25.0049 34.0335 22.8516 34.0335C20.6973 34.0335 18.9453 32.2815 18.9453 30.1272C18.9453 27.9739 20.6973 26.221 22.8516 26.221C23.1885 26.221 23.5156 26.264 23.8281 26.345V17.0042L18.0107 18.5579L15.0391 19.3509V32.0804C15.0391 34.2347 13.2861 35.9866 11.1328 35.9866C8.97852 35.9866 7.22656 34.2347 7.22656 32.0804C7.22656 29.9271 8.97852 28.1741 11.1328 28.1741C11.4697 28.1741 11.7969 28.2171 12.1094 28.2981V17.1009L18.0107 15.5257L26.7578 13.1897Z" fill="white"/>
<path d="M18.0107 15.5257L26.7578 13.1897V30.1272C26.7578 32.2815 25.0049 34.0335 22.8516 34.0335C20.6973 34.0335 18.9453 32.2815 18.9453 30.1272C18.9453 27.9739 20.6973 26.221 22.8516 26.221C23.1885 26.221 23.5156 26.264 23.8281 26.345V17.0042L18.0107 18.5579V15.5257Z" fill="#FFFECF"/>
</svg>
