<svg width="50" height="50" viewBox="0 0 50 50" fill="none" xmlns="http://www.w3.org/2000/svg">
<path d="M47.2822 21.6485L50 13.6429H41.6486L44.2413 6H35.5604L32.9676 13.6429H24.7418L27.3356 6H18.6546L16.0608 13.6429H7.70822L4.99047 21.6485H13.3439L11.069 28.3515H2.71775L0 36.3571H8.35234L5.75856 44H14.4395L17.0333 36.3571H25.2625L22.6697 44H31.3507L33.9434 36.3571H42.2915L45.0093 28.3515H36.659L38.9329 21.6485H47.2822ZM27.9782 28.3514H19.7502L22.0251 21.6483H30.252L27.9782 28.3514Z" fill="#FFDC4A"/>
<path d="M27.3358 6H25V12.8825L27.3358 6ZM47.2822 21.6485L50 13.6429H41.6487L44.2414 6H35.5605L32.9678 13.6429H25V21.6485H30.252L27.9782 28.3515H25V36.357H25.2625L25 37.1305V43.9999H31.3505L33.9433 36.357H42.2915L45.0093 28.3515H36.659L38.9329 21.6485H47.2822Z" fill="#EDAC2B"/>
</svg>
