<svg width="50" height="50" viewBox="0 0 50 50" fill="none" xmlns="http://www.w3.org/2000/svg">
<path fill-rule="evenodd" clip-rule="evenodd" d="M12.909 31.5983C12.909 27.954 21.2002 24.9972 31.4314 24.9972C41.6599 24.9972 49.9511 27.9541 49.9511 31.5983V37.6655C49.9511 41.3099 41.6599 44.2667 31.4314 44.2667C21.2002 44.2667 12.909 41.3098 12.909 37.6655V31.5983Z" fill="#FE9923"/>
<path fill-rule="evenodd" clip-rule="evenodd" d="M31.4315 24.9972C41.66 24.9972 49.9512 27.9541 49.9512 31.5983C49.9512 35.2454 41.66 38.1995 31.4315 38.1995C21.2003 38.1995 12.9091 35.2455 12.9091 31.5983C12.909 27.954 21.2003 24.9972 31.4315 24.9972Z" fill="#FECD3D"/>
<path fill-rule="evenodd" clip-rule="evenodd" d="M31.4315 28.0818C39.5694 28.0818 46.1649 29.6583 46.1649 31.5983C46.1649 33.5412 39.5694 35.1147 31.4315 35.1147C23.2937 35.1147 16.6953 33.5411 16.6953 31.5983C16.6953 29.6583 23.2937 28.0818 31.4315 28.0818Z" fill="#FEA832"/>
<path d="M22.0553 40.577L23.6374 40.5798V43.6531C23.1078 43.5668 22.5803 43.4683 22.0553 43.3577V40.577ZM44.9435 38.9494V42.179C45.5144 41.9603 46.0427 41.7303 46.5284 41.4888V38.9466L44.9435 38.9494ZM27.7759 44.136C28.2985 44.1758 28.8269 44.2042 29.3608 44.2241V41.2871L27.7759 41.2899V44.136ZM16.3317 41.4888C16.8175 41.7303 17.3458 41.9603 17.9167 42.179V38.9466L16.3317 38.9494V41.4888ZM33.4993 44.2241C34.0272 44.2037 34.5546 44.1743 35.0814 44.136V41.2899L33.4993 41.2871V44.2241ZM39.2229 43.6531C39.7525 43.5671 40.28 43.4686 40.805 43.3577V40.5798L39.2229 40.577V43.6531Z" fill="#C85929"/>
<path d="M5.48691 38.9323V40.8979H7.44971V42.3011H5.48691V44.2667H4.08379V42.3011H2.11816V40.8979H4.08379V38.9323H5.48691ZM41.3958 17.4047V19.3702H43.3613V20.7706H41.3958V22.7361H39.9926V20.7706H38.0299V19.3702H39.9926V17.4047H41.3958ZM6.42998 5.7333V7.69893H8.39277V9.09922H6.42998V11.0648H5.02676V9.09922H3.06123V7.69893H5.02676V5.7333H6.42998Z" fill="#FEA832"/>
<path fill-rule="evenodd" clip-rule="evenodd" d="M0.388379 28.1671C-1.43516 25.0085 4.26846 18.3022 13.1277 13.1895C21.9871 8.07383 30.6447 6.48887 32.4683 9.64453C33.4788 11.3955 34.49 13.1462 35.5019 14.8965C37.3254 18.0551 31.6218 24.7613 22.7625 29.8741C13.9032 34.9897 5.24551 36.5775 3.42197 33.4189C2.41074 31.6693 1.39961 29.9168 0.388379 28.1671Z" fill="#FE9923"/>
<path fill-rule="evenodd" clip-rule="evenodd" d="M13.1277 13.1895C21.9871 8.07383 30.6447 6.48887 32.4683 9.64453C34.2918 12.8031 28.5882 19.5094 19.7289 24.6222C10.8725 29.7378 2.21191 31.3228 0.388379 28.167C-1.43516 25.0085 4.26846 18.3022 13.1277 13.1895Z" fill="#FECD3D"/>
<path fill-rule="evenodd" clip-rule="evenodd" d="M14.6701 15.8595C21.7173 11.792 28.219 9.85762 29.1904 11.5392C30.1618 13.2207 25.2337 17.8818 18.1866 21.9522C11.1395 26.0197 4.64053 27.9541 3.66914 26.2726C2.69775 24.591 7.62295 19.9298 14.6701 15.8595Z" fill="#FEA832"/>
<path d="M19.4818 28.3318L20.9504 30.874C20.4823 31.1211 20.0097 31.3597 19.533 31.5897L18.11 29.1243L19.4818 28.3318ZM7.0293 32.8197L8.29902 35.0182C8.83867 34.9869 9.4125 34.9216 10.0146 34.825L8.40127 32.0272L7.0293 32.8197ZM12.7982 31.3683L14.19 33.777C14.6995 33.6102 15.2052 33.4321 15.7068 33.243L14.1701 30.5786L12.7982 31.3683ZM23.0664 26.2611L24.535 28.8033C24.982 28.5221 25.4242 28.2333 25.8614 27.937L24.4384 25.4743L23.0664 26.2611ZM33.1784 17.7199L31.8064 18.5152L33.4227 21.3103C33.8062 20.8388 34.1498 20.3729 34.448 19.9212L33.1784 17.7199ZM27.668 22.7845L29.2047 25.4488C29.6203 25.1104 30.0275 24.7618 30.4261 24.4035L29.0371 21.9977L27.668 22.7845Z" fill="#C85929"/>
</svg>
