<svg width="50" height="50" viewBox="0 0 50 50" fill="none" xmlns="http://www.w3.org/2000/svg">
<path d="M45.1471 0H14.6542C13.6649 0 12.863 0.854256 12.863 1.90793V34.3896C12.863 35.4434 13.665 36.2976 14.6542 36.2976H45.1471C46.1364 36.2976 46.9382 35.4433 46.9382 34.3896V1.90793C46.9382 0.854152 46.1363 0 45.1471 0Z" fill="#FFE177"/>
<path d="M17.1914 36.298H14.6539C13.6654 36.298 12.863 35.4434 12.863 34.3893V1.90786C12.863 0.853772 13.6654 0.000244141 14.6539 0.000244141H17.1914C16.2018 0.000244141 15.4005 0.853772 15.4005 1.90786V34.3893C15.4005 35.4434 16.2018 36.298 17.1914 36.298Z" fill="#FFD15B"/>
<path d="M40.8595 4.56714H10.3666C9.3773 4.56714 8.57544 5.4214 8.57544 6.47507V38.9568C8.57544 40.0106 9.37739 40.8647 10.3666 40.8647H40.8595C41.8488 40.8647 42.6506 40.0105 42.6506 38.9568V6.47517C42.6506 5.42139 41.8487 4.56714 40.8595 4.56714Z" fill="#F58A97"/>
<path d="M12.9035 40.8654H10.366C9.37754 40.8654 8.5752 40.0107 8.5752 38.9566V6.47524C8.5752 5.42115 9.37754 4.56763 10.366 4.56763H12.9035C11.914 4.56763 11.1127 5.42115 11.1127 6.47524V38.9568C11.1128 40.0107 11.914 40.8654 12.9035 40.8654Z" fill="#F07281"/>
<path d="M36.5717 9.13452H6.07871C5.08945 9.13452 4.2876 9.98878 4.2876 11.0425V43.5242C4.2876 44.5779 5.08955 45.4321 6.07871 45.4321H36.5717C37.5609 45.4321 38.3628 44.5778 38.3628 43.5242V11.0425C38.3628 9.98878 37.5609 9.13452 36.5717 9.13452Z" fill="#02C7DD"/>
<path d="M8.61592 45.4326H6.07842C5.08994 45.4326 4.2876 44.578 4.2876 43.5239V11.0424C4.2876 9.98829 5.08994 9.13477 6.07842 9.13477H8.61592C7.62637 9.13477 6.8251 9.98829 6.8251 11.0424V43.5239C6.8251 44.578 7.62637 45.4326 8.61592 45.4326Z" fill="#07B2CD"/>
<path d="M50 31.8512C50 40.4388 43.4647 47.4013 35.4019 47.4013C35.2789 47.4013 35.1569 47.4001 35.035 47.3967C31.8139 47.3112 28.8517 46.1158 26.4748 44.1547C25.4927 43.3457 24.6113 42.4067 23.8517 41.3606C22.8226 39.9458 22.0311 38.352 21.5122 36.6497C21.0522 35.1375 20.804 33.5251 20.804 31.8512C20.804 23.2624 27.3403 16.301 35.402 16.301C36.9735 16.301 38.4873 16.5655 39.9068 17.0554C41.5052 17.6074 43.0016 18.4506 44.3293 19.5477C45.3118 20.3561 46.1933 21.2951 46.9523 22.3418C48.7934 24.8739 49.9156 28.0293 49.9958 31.4603C49.9989 31.5902 50 31.7201 50 31.8512Z" fill="#C8EFFE"/>
<path d="M49.9958 31.4604L35.0351 47.3968C31.814 47.3113 28.8518 46.1159 26.4748 44.1549L46.9523 22.3418C48.7934 24.8739 49.9156 28.0293 49.9958 31.4604ZM44.3293 19.5477L23.8518 41.3607C22.8227 39.9459 22.0311 38.3521 21.5122 36.6498L39.9069 17.0554C41.5053 17.6074 43.0016 18.4507 44.3293 19.5477Z" fill="#DFF6FD"/>
<path d="M35.4022 37.2579C38.2057 37.2579 40.4783 34.837 40.4783 31.8507C40.4783 28.8645 38.2057 26.4436 35.4022 26.4436C32.5988 26.4436 30.3262 28.8645 30.3262 31.8507C30.3262 34.837 32.5988 37.2579 35.4022 37.2579Z" fill="#7A8C98"/>
<path d="M35.4024 33.8486C36.4383 33.8486 37.278 32.9541 37.278 31.8507C37.278 30.7473 36.4383 29.8528 35.4024 29.8528C34.3666 29.8528 33.5269 30.7473 33.5269 31.8507C33.5269 32.9541 34.3666 33.8486 35.4024 33.8486Z" fill="#02C7DD"/>
<path d="M32.2841 13.7019H1.79111C0.801953 13.7019 0 14.5562 0 15.6098V48.0915C0 49.1453 0.801953 49.9995 1.79111 49.9995H32.2841C33.2733 49.9995 34.0752 49.1452 34.0752 48.0915V15.6098C34.0752 14.5562 33.2733 13.7019 32.2841 13.7019Z" fill="#D1F19E"/>
<path d="M4.32832 49.9999H1.79082C0.802344 49.9999 0 49.1454 0 48.0913V15.6098C0 14.5557 0.802344 13.7021 1.79082 13.7021H4.32832C3.33877 13.7021 2.5375 14.5557 2.5375 15.6098V48.0913C2.5375 49.1454 3.33877 49.9999 4.32832 49.9999Z" fill="#ADE194"/>
<path d="M27.672 42.7203H6.40342C6.20331 42.7203 6.01141 42.6356 5.86991 42.4849C5.72842 42.3342 5.64893 42.1298 5.64893 41.9166C5.64893 41.7034 5.72842 41.499 5.86991 41.3483C6.01141 41.1976 6.20331 41.1129 6.40342 41.1129H27.672C27.8721 41.1129 28.064 41.1976 28.2055 41.3483C28.347 41.499 28.4265 41.7034 28.4265 41.9166C28.4265 42.1298 28.347 42.3342 28.2055 42.4849C28.064 42.6356 27.8721 42.7203 27.672 42.7203ZM23.5583 46.0572H10.5171C10.317 46.0572 10.1251 45.9725 9.98358 45.8218C9.84209 45.6711 9.7626 45.4667 9.7626 45.2535C9.7626 45.0404 9.84209 44.8359 9.98358 44.6852C10.1251 44.5345 10.317 44.4498 10.5171 44.4498H23.5583C23.7584 44.4498 23.9503 44.5345 24.0918 44.6852C24.2333 44.8359 24.3128 45.0404 24.3128 45.2535C24.3128 45.4667 24.2333 45.6711 24.0918 45.8218C23.9503 45.9725 23.7584 46.0572 23.5583 46.0572ZM10.8393 25.6253V30.3965C10.5217 30.321 10.176 30.3252 9.81133 30.4729C9.11055 30.7568 8.61719 31.4617 8.5998 32.2601C8.5752 33.3924 9.45313 34.313 10.5209 34.2628C11.4877 34.2175 12.2761 33.2887 12.2761 32.2579V27.6223L16.2142 27.0747V29.5804C15.8966 29.5049 15.5509 29.5091 15.1862 29.6568C14.4855 29.9407 13.9921 30.6457 13.9747 31.4441C13.9501 32.5764 14.828 33.4969 15.8958 33.4467C16.8626 33.4014 17.651 32.4727 17.651 31.4418V25.001C17.651 24.2521 17.0326 23.6738 16.3354 23.7709L11.8528 24.3952C11.5725 24.4343 11.3151 24.5806 11.1286 24.8069C10.9421 25.0333 10.8393 25.3241 10.8393 25.6253ZM26.2509 26.7924L22.4084 27.3275C22.1281 27.3665 21.8706 27.5128 21.6841 27.7392C21.4976 27.9655 21.3947 28.2564 21.3947 28.5576V33.3288C21.0772 33.2533 20.7314 33.2574 20.3668 33.4051C19.666 33.689 19.1727 34.3939 19.1553 35.1924C19.1307 36.3247 20.0086 37.2452 21.0764 37.1951C22.0432 37.1497 22.8315 36.221 22.8315 35.1902V30.5545L26.3139 30.0703C26.4414 30.0526 26.5589 29.9874 26.6456 29.8862C26.7323 29.7851 26.7826 29.6546 26.7876 29.5177L26.8656 27.3903C26.8789 27.0311 26.5855 26.7457 26.2509 26.7924Z" fill="#7A8C98"/>
</svg>
