<svg width="50" height="50" viewBox="0 0 50 50" fill="none" xmlns="http://www.w3.org/2000/svg">
<path d="M27.0806 15.3226H2.41936V32.0887C3.24194 30.7258 4.33871 29.5484 5.64516 28.6371V18.5484H13.7097V26.7258C14.8468 26.8871 15.9274 27.2258 16.9355 27.7016C19.7984 29.0645 22 31.5887 22.9194 34.6774H27.0806C27.8226 32.2016 29.379 30.0806 31.4516 28.6371V21.3629C29.379 19.9194 27.8226 17.7984 27.0806 15.3226Z" fill="#F0D0B4"/>
<path d="M37.9032 0.806452C44.1371 0.806452 49.1935 5.8629 49.1935 12.0968C49.1935 18.3306 44.1371 23.3871 37.9032 23.3871C35.5081 23.3871 33.2823 22.6371 31.4516 21.3629C29.379 19.9194 27.8226 17.7984 27.0806 15.3226C26.7742 14.2984 26.6129 13.2177 26.6129 12.0968C26.6129 10.621 26.8952 9.21774 27.4113 7.92742C29.0726 3.75 33.1452 0.806452 37.9032 0.806452ZM37.9032 26.6129C44.1371 26.6129 49.1935 31.6694 49.1935 37.9032C49.1935 44.1371 44.1371 49.1935 37.9032 49.1935C31.6694 49.1935 26.6129 44.1371 26.6129 37.9032C26.6129 36.7823 26.7742 35.7016 27.0806 34.6774C27.8226 32.2016 29.379 30.0806 31.4516 28.6371C33.2823 27.3629 35.5081 26.6129 37.9032 26.6129Z" fill="#E6E9ED"/>
<path d="M43.0726 15.7984C43.379 16.0968 43.5484 16.5081 43.5484 16.9355C43.5484 17.3629 43.379 17.7742 43.0726 18.0726C42.7742 18.379 42.3629 18.5484 41.9355 18.5484C41.5081 18.5484 41.0968 18.379 40.7984 18.0726L36.1452 13.4274C35.6855 13.6048 35.1935 13.7097 34.6774 13.7097C32.4516 13.7097 30.6452 11.9032 30.6452 9.67742L31.4516 8.87097L33.0645 10.4839C34.4032 10.4839 35.4839 9.40322 35.4839 8.06452L33.871 6.45161L34.6774 5.64516C36.9032 5.64516 38.7097 7.45161 38.7097 9.67742C38.7097 10.1935 38.6048 10.6855 38.4274 11.1452L43.0726 15.7984ZM43.5484 32.2581C43.5484 34.9194 43.0403 37.5645 42.0484 40.0323L41.9355 40.3226L38.7097 37.0968L35.4839 33.871L35.7742 33.7581C38.2419 32.7661 40.8871 32.2581 43.5484 32.2581Z" fill="#FCD770"/>
<path d="M35.8145 39.9919C36.121 40.2903 36.2903 40.7016 36.2903 41.129C36.2903 41.5565 36.121 41.9677 35.8145 42.2661L34.2016 43.879C33.9032 44.1855 33.4919 44.3548 33.0645 44.3548C32.6371 44.3548 32.2258 44.1855 31.9274 43.879C31.621 43.5806 31.4516 43.1694 31.4516 42.7419C31.4516 42.3145 31.621 41.9032 31.9274 41.6048L33.5403 39.9919C33.8387 39.6855 34.25 39.5161 34.6774 39.5161C35.1048 39.5161 35.5161 39.6855 35.8145 39.9919Z" fill="#D3A06C"/>
<path d="M20.1613 20.1613H28.2258V26.6129H20.1613V20.1613Z" fill="#69D6F4"/>
<path d="M22.9194 34.6774C23.2258 35.7016 23.3871 36.7823 23.3871 37.9032C23.3871 44.1371 18.3306 49.1935 12.0968 49.1935C5.8629 49.1935 0.806452 44.1371 0.806452 37.9032C0.806452 35.7823 1.39516 33.7903 2.41936 32.0887C3.24194 30.7258 4.33871 29.5484 5.64516 28.6371C7.47581 27.3629 9.70161 26.6129 12.0968 26.6129C12.6452 26.6129 13.1855 26.6532 13.7097 26.7258C14.8468 26.8871 15.9274 27.2258 16.9355 27.7016C19.7984 29.0645 22 31.5887 22.9194 34.6774Z" fill="#E6E9ED"/>
<path d="M16.9355 31.4516C17.8226 31.4516 18.5484 32.1774 18.5484 33.0645C18.5484 33.5081 18.371 33.9113 18.0726 34.2016C17.7823 34.5 17.379 34.6774 16.9355 34.6774H10.4839C9.59677 34.6774 8.87097 33.9516 8.87097 33.0645C8.87097 32.621 9.04839 32.2177 9.34677 31.9274C9.6371 31.629 10.0403 31.4516 10.4839 31.4516H16.9355Z" fill="#FCD770"/>
<path d="M26.6129 12.0968H0.806452V15.3226H27.0806C26.7742 14.2984 26.6129 13.2177 26.6129 12.0968Z" fill="#FC6E51"/>
<path d="M22.5726 4.3629L18.3952 1.28226C17.9677 0.975807 17.4597 0.806452 16.9355 0.806452C16.4113 0.806452 15.9032 0.975807 15.4758 1.28226L9.47581 5.70968L0.806452 12.0968H26.6129C26.6129 10.621 26.8952 9.21774 27.4113 7.92742L22.5726 4.3629Z" fill="#FF826E"/>
<path d="M13.7097 42.7419V44.3548C13.7097 45.2419 12.9839 45.9677 12.0968 45.9677C11.2097 45.9677 10.4839 45.2419 10.4839 44.3548V42.7419C10.4839 41.8548 11.2097 41.129 12.0968 41.129C12.5403 41.129 12.9435 41.3065 13.2339 41.6048C13.5323 41.8952 13.7097 42.2984 13.7097 42.7419Z" fill="#D3A06C"/>
<path d="M13.7097 18.5484V26.7258C13.1753 26.6513 12.6364 26.6135 12.0968 26.6129C9.70161 26.6129 7.47581 27.3629 5.64516 28.6371V18.5484H13.7097Z" fill="#AAB2BD"/>
<path d="M37.9032 25.8065C35.9347 25.8058 33.9962 26.2888 32.2581 27.2129V22.7879C33.9964 23.7114 35.9348 24.1941 37.9032 24.1935C44.5734 24.1935 50 18.7669 50 12.0968C50 5.42661 44.5734 0 37.9032 0C33.175 0 29.0831 2.73306 27.0944 6.69597L18.8694 0.634677C17.7565 -0.184677 16.1145 -0.185484 15.0016 0.635484L0 11.6895V16.129H1.6129V31.8935C0.556752 33.7203 0.00045335 35.7931 0 37.9032C0 44.5734 5.42661 50 12.0968 50C18.7669 50 24.1935 44.5734 24.1935 37.9032C24.1935 37.075 24.1089 36.2661 23.95 35.4839H26.0508C25.8911 36.2661 25.8065 37.075 25.8065 37.9032C25.8065 44.5734 31.2331 50 37.9032 50C44.5734 50 50 44.5734 50 37.9032C50 31.2331 44.5734 25.8065 37.9032 25.8065ZM37.9032 1.6129C43.6839 1.6129 48.3871 6.31613 48.3871 12.0968C48.3871 17.8774 43.6839 22.5806 37.9032 22.5806C32.1226 22.5806 27.4194 17.8774 27.4194 12.0968C27.4194 6.31613 32.1226 1.6129 37.9032 1.6129ZM25.8476 12.9032C25.8839 13.45 25.9435 13.9911 26.0508 14.5161H17.7419V12.9032H25.8476ZM21.4048 4.50645L19.3548 6.96613V9.67742H20.9677V8.5629L23.0266 9.59194L23.7484 8.14919L21.4339 6.99194L22.7065 5.46452L26.454 8.22581C26.1197 9.21633 25.9161 10.2463 25.8484 11.2895H17.7419V1.84758C17.7976 1.87823 17.8613 1.89516 17.9129 1.93306L21.4048 4.50645ZM15.9581 1.93387C16.0097 1.89597 16.0726 1.87903 16.129 1.84839V11.2903H3.25968L9.13387 6.9621L9.90968 8.77177L14.3581 9.6621L14.675 8.08065L11.0589 7.35806L10.4677 5.97984L15.9581 1.93387ZM1.6129 12.9032H16.129V14.5161H1.6129V12.9032ZM3.22581 16.129H16.129V26.5121C15.6029 26.3204 15.0639 26.166 14.5161 26.05V17.7419H4.83871V28.2484C4.25871 28.6854 3.71893 29.1734 3.22581 29.7065V16.129ZM12.9032 25.8476C12.6355 25.8298 12.3694 25.8065 12.0968 25.8065C10.1283 25.8058 8.18972 26.2888 6.45161 27.2129V19.3548H12.9032V25.8476ZM12.0968 48.3871C6.31613 48.3871 1.6129 43.6839 1.6129 37.9032C1.6129 32.1226 6.31613 27.4194 12.0968 27.4194C17.8774 27.4194 22.5806 32.1226 22.5806 37.9032C22.5806 43.6839 17.8774 48.3871 12.0968 48.3871ZM23.4879 33.871C22.4716 31.0117 20.4218 28.6365 17.7419 27.2129V16.129H26.5121C26.9234 17.2864 27.5089 18.3741 28.2484 19.3548H19.3548V27.4194H29.0323V20.2935C29.525 20.8266 30.0645 21.3137 30.6452 21.7516V28.2492C28.7466 29.6779 27.3094 31.6327 26.5121 33.871H23.4879ZM27.4194 20.9677V25.8065H20.9677V20.9677H27.4194ZM37.9032 48.3871C32.1226 48.3871 27.4194 43.6839 27.4194 37.9032C27.4194 32.1226 32.1226 27.4194 37.9032 27.4194C43.6839 27.4194 48.3871 32.1226 48.3871 37.9032C48.3871 43.6839 43.6839 48.3871 37.9032 48.3871Z" fill="black"/>
<path d="M16.9355 30.6452H10.4839C9.98516 30.6468 9.49916 30.8026 9.09257 31.0914C8.68597 31.3802 8.37869 31.7877 8.2129 32.2581H4.83871V36.9202L11.2903 38.5331V40.471C10.82 40.6368 10.4125 40.944 10.1237 41.3506C9.8349 41.7572 9.67902 42.2432 9.67742 42.7419V44.3548C9.67742 45.6887 10.7629 46.7742 12.0968 46.7742C13.4306 46.7742 14.5161 45.6887 14.5161 44.3548V42.7419C14.5145 42.2432 14.3586 41.7572 14.0699 41.3506C13.7811 40.944 13.3736 40.6368 12.9032 40.471V37.2726L6.45161 35.6597V33.871H8.2129C8.37869 34.3413 8.68597 34.7488 9.09257 35.0376C9.49916 35.3264 9.98516 35.4823 10.4839 35.4839H16.9355C18.2694 35.4839 19.3548 34.3984 19.3548 33.0645C19.3548 31.7306 18.2694 30.6452 16.9355 30.6452ZM12.9032 44.3548C12.8939 44.5625 12.8049 44.7585 12.6547 44.9022C12.5045 45.0458 12.3046 45.126 12.0968 45.126C11.8889 45.126 11.6891 45.0458 11.5389 44.9022C11.3886 44.7585 11.2996 44.5625 11.2903 44.3548V42.7419C11.2996 42.5343 11.3886 42.3382 11.5389 42.1946C11.6891 42.0509 11.8889 41.9707 12.0968 41.9707C12.3046 41.9707 12.5045 42.0509 12.6547 42.1946C12.8049 42.3382 12.8939 42.5343 12.9032 42.7419V44.3548ZM16.9355 33.871H10.4839C10.2762 33.8617 10.0802 33.7727 9.93651 33.6224C9.79286 33.4722 9.71269 33.2724 9.71269 33.0645C9.71269 32.8567 9.79286 32.6568 9.93651 32.5066C10.0802 32.3564 10.2762 32.2674 10.4839 32.2581H16.9355C17.1431 32.2674 17.3392 32.3564 17.4828 32.5066C17.6265 32.6568 17.7067 32.8567 17.7067 33.0645C17.7067 33.2724 17.6265 33.4722 17.4828 33.6224C17.3392 33.7727 17.1431 33.8617 16.9355 33.871ZM34.6774 14.5161C35.0952 14.5161 35.5129 14.4597 35.925 14.346L40.225 18.646C40.6815 19.1032 41.2895 19.3548 41.9355 19.3548C42.5815 19.3548 43.1895 19.1024 43.646 18.646C44.1032 18.1895 44.3548 17.5815 44.3548 16.9355C44.3548 16.2895 44.1032 15.6815 43.646 15.225L39.346 10.925C39.4589 10.5129 39.5161 10.096 39.5161 9.67742C39.5161 7.00887 37.346 4.83871 34.6774 4.83871H34.3435L32.7306 6.45161L34.6484 8.36935C34.5872 8.68572 34.4328 8.97656 34.205 9.20449C33.9772 9.43241 33.6865 9.587 33.3702 9.64839L31.4516 7.73065L29.8387 9.34355V9.67742C29.8387 12.346 32.0089 14.5161 34.6774 14.5161ZM32.7306 11.2903H33.0645C34.8435 11.2903 36.2903 9.84355 36.2903 8.06452V7.73065L35.0306 6.47016C35.8199 6.55836 36.549 6.93411 37.0789 7.52569C37.6087 8.11727 37.9022 8.88325 37.9032 9.67742C37.9032 10.0669 37.8258 10.4621 37.6742 10.8492L37.4806 11.3403L42.5056 16.3645C42.6597 16.5194 42.7419 16.7169 42.7419 16.9355C42.7419 17.154 42.6597 17.3516 42.5056 17.5056C42.353 17.6541 42.1484 17.7372 41.9355 17.7372C41.7225 17.7372 41.518 17.6541 41.3653 17.5056L36.3411 12.4815L35.85 12.6742C35.4768 12.823 35.0791 12.9007 34.6774 12.9032C33.8833 12.9022 33.1175 12.6087 32.526 12.0788C31.9346 11.549 31.559 10.8198 31.471 10.0306L32.7306 11.2903ZM35.4734 33.0073L34.0476 33.5758L37.5694 37.0968L35.7065 38.9605C34.8105 38.5565 33.6823 38.7032 32.9677 39.4185L31.3548 41.0315C30.8968 41.4879 30.6452 42.096 30.6452 42.7419C30.6452 43.3879 30.8968 43.996 31.354 44.4524C31.8105 44.9097 32.4185 45.1613 33.0645 45.1613C33.7105 45.1613 34.3185 44.9089 34.775 44.4524L36.3879 42.8395C36.8452 42.3831 37.0968 41.775 37.0968 41.129C37.0968 40.7629 37.0081 40.4137 36.8548 40.0927L38.7097 38.2379L42.2298 41.7581L42.8 40.3339C43.829 37.7659 44.3568 35.0246 44.3548 32.2581V31.4516H43.5484C40.782 31.449 38.0408 31.9771 35.4734 33.0073ZM35.2476 41.6992L33.6347 43.3121C33.482 43.4606 33.2775 43.5436 33.0645 43.5436C32.8516 43.5436 32.647 43.4606 32.4944 43.3121C32.3403 43.1581 32.2581 42.9605 32.2581 42.7419C32.2581 42.5234 32.3403 42.3258 32.4944 42.1718L34.1073 40.5589C34.2621 40.4048 34.4589 40.3226 34.6774 40.3226C34.896 40.3226 35.0927 40.4048 35.2476 40.5589C35.4016 40.7129 35.4839 40.9105 35.4839 41.129C35.4839 41.3476 35.4016 41.5452 35.2476 41.6992ZM41.625 38.871L36.9355 34.1814C38.8006 33.5307 40.752 33.16 42.7258 33.0814C42.6465 35.055 42.2755 37.006 41.625 38.871Z" fill="black"/>
</svg>
