<svg width="50" height="50" viewBox="0 0 50 50" fill="none" xmlns="http://www.w3.org/2000/svg">
<path d="M25 50C24.5938 50 24.2075 49.8326 23.93 49.5365L10.0397 34.5226C6.46348 30.7073 4.49219 25.7306 4.49219 20.5078C4.49219 9.19961 13.6933 0 25 0C36.3067 0 45.5078 9.19961 45.5078 20.5078C45.5078 25.7306 43.5365 30.7073 39.9574 34.5239L26.07 49.5365C25.9329 49.6829 25.7672 49.7996 25.5831 49.8794C25.3991 49.9591 25.2006 50.0002 25 50Z" fill="#FF5959"/>
<path d="M26.07 49.5365L39.9574 34.5239C43.5365 30.7073 45.5078 25.7306 45.5078 20.5078C45.5078 9.19961 36.3067 0 25 0V50C25.4062 50 25.7925 49.8326 26.07 49.5365Z" fill="#E63A57"/>
<path d="M25 35.1562C16.9233 35.1562 10.3516 28.5845 10.3516 20.5078C10.3516 12.4312 16.9233 5.85938 25 5.85938C33.0767 5.85938 39.6484 12.4312 39.6484 20.5078C39.6484 28.5845 33.0767 35.1562 25 35.1562Z" fill="#F3F5F9"/>
<path d="M39.6484 20.5078C39.6484 12.4312 33.0767 5.85938 25 5.85938V35.1562C33.0767 35.1562 39.6484 28.5845 39.6484 20.5078Z" fill="#E1E6F0"/>
<path d="M20.6055 13.1836C19.7958 13.1836 19.1406 13.8388 19.1406 14.6484V26.3672C19.1406 27.1769 19.7958 27.832 20.6055 27.832C21.4151 27.832 22.0703 27.1769 22.0703 26.3672V14.6484C22.0703 13.8388 21.4151 13.1836 20.6055 13.1836Z" fill="#3D4B66"/>
<path d="M29.3945 13.1836H26.4648C25.6552 13.1836 25 13.8388 25 14.6484V26.3672C25 27.1769 25.6552 27.832 26.4648 27.832C27.2745 27.832 27.9297 27.1769 27.9297 26.3672V21.9727H29.3945C31.8178 21.9727 33.7891 20.0014 33.7891 17.5781C33.7891 15.1549 31.8178 13.1836 29.3945 13.1836ZM29.3945 19.043H27.9297V16.1133H29.3945C30.2014 16.1133 30.8594 16.7699 30.8594 17.5781C30.8594 18.3863 30.2014 19.043 29.3945 19.043Z" fill="#2E384D"/>
</svg>
