<svg width="50" height="50" viewBox="0 0 50 50" fill="none" xmlns="http://www.w3.org/2000/svg">
<path d="M45.7593 4.3709C39.1632 7.14774 10.8799 19.0556 3.06527 22.301C-2.17558 24.3798 0.892482 26.329 0.892482 26.329C0.892482 26.329 5.36619 27.8879 9.2014 29.0573C13.0361 30.2267 15.0813 28.9276 15.0813 28.9276L33.1048 16.5844C39.4961 12.1669 37.9623 15.8046 36.428 17.3642C33.1048 20.7426 27.6082 26.069 23.0064 30.3569C20.9612 32.1758 21.9835 33.7348 22.8788 34.5145C26.202 37.3731 35.2781 43.2199 35.789 43.6095C38.4893 45.5527 43.8009 48.3497 44.6088 42.4402L47.8045 22.0416C48.8273 15.1557 49.8497 8.78899 49.9773 6.9701C50.3611 2.55201 45.7593 4.3709 45.7593 4.3709Z" fill="#1B92D1"/>
</svg>
