<svg width="51" height="51" viewBox="0 0 51 51" fill="none" xmlns="http://www.w3.org/2000/svg">
<path fill-rule="evenodd" clip-rule="evenodd" d="M32.2175 25.1875C32.6898 25.1875 33.0734 25.5596 33.0734 26.0178C33.0734 26.476 32.6898 26.848 32.2175 26.848H30.5056C30.0332 26.848 29.6497 26.476 29.6497 26.0178C29.6497 25.5596 30.0332 25.1875 30.5056 25.1875H32.2175ZM27.0819 25.1875C27.5543 25.1875 27.9378 25.5596 27.9378 26.0178C27.9378 26.476 27.5543 26.848 27.0819 26.848H25.37C24.8976 26.848 24.5142 26.476 24.5142 26.0178C24.5142 25.5596 24.8976 25.1875 25.37 25.1875H27.0819ZM21.9464 25.1875C22.4188 25.1875 22.8023 25.5596 22.8023 26.0178C22.8023 26.476 22.4188 26.848 21.9464 26.848H20.2345C19.7622 26.848 19.3786 26.476 19.3786 26.0178C19.3786 25.5596 19.7622 25.1875 20.2345 25.1875H21.9464ZM16.8108 25.1875C17.2832 25.1875 17.6668 25.5596 17.6668 26.0178C17.6668 26.476 17.2832 26.848 16.8108 26.848H15.099C14.6266 26.848 14.243 26.476 14.243 26.0178C14.243 25.5596 14.6266 25.1875 15.099 25.1875H16.8108ZM11.6752 25.1875C12.1477 25.1875 12.5312 25.5596 12.5312 26.0178C12.5312 26.476 12.1477 26.848 11.6752 26.848H9.96349C9.49102 26.848 9.10756 26.476 9.10756 26.0178C9.10756 25.5596 9.49102 25.1875 9.96349 25.1875H11.6752ZM9.85682 38.3627C9.85682 37.9045 10.2404 37.5325 10.7127 37.5325C11.1851 37.5325 11.5687 37.9045 11.5687 38.3627V40.0232C11.5687 40.4814 11.1851 40.8535 10.7127 40.8535C10.2404 40.8535 9.85682 40.4814 9.85682 40.0232V38.3627ZM9.85682 43.3443C9.85682 42.886 10.2404 42.514 10.7127 42.514C11.1851 42.514 11.5687 42.886 11.5687 43.3443V45.0048C11.5687 45.463 11.1851 45.835 10.7127 45.835C10.2404 45.835 9.85682 45.463 9.85682 45.0048V43.3443ZM14.0808 45.8889C13.6085 45.8889 13.2249 45.5168 13.2249 45.0586C13.2249 44.6004 13.6085 44.2284 14.0808 44.2284H15.7927C16.2651 44.2284 16.6486 44.6004 16.6486 45.0586C16.6486 45.5168 16.2651 45.8889 15.7927 45.8889H14.0808ZM19.2164 45.8889C18.744 45.8889 18.3605 45.5168 18.3605 45.0586C18.3605 44.6004 18.744 44.2284 19.2164 44.2284H20.9283C21.4006 44.2284 21.7842 44.6004 21.7842 45.0586C21.7842 45.5168 21.4006 45.8889 20.9283 45.8889H19.2164ZM24.352 45.8889C23.8795 45.8889 23.4961 45.5168 23.4961 45.0586C23.4961 44.6004 23.8795 44.2284 24.352 44.2284H26.0637C26.5362 44.2284 26.9197 44.6004 26.9197 45.0586C26.9197 45.5168 26.5362 45.8889 26.0637 45.8889H24.352ZM29.4875 45.8889C29.0151 45.8889 28.6315 45.5168 28.6315 45.0586C28.6315 44.6004 29.0151 44.2284 29.4875 44.2284H31.1993C31.6717 44.2284 32.0553 44.6004 32.0553 45.0586C32.0553 45.5168 31.6717 45.8889 31.1993 45.8889H29.4875ZM11.5687 13.408C11.5687 13.8663 11.1851 14.2382 10.7127 14.2382C10.2404 14.2382 9.85682 13.8663 9.85682 13.408V11.7475C9.85682 11.2893 10.2404 10.9172 10.7127 10.9172C11.1851 10.9172 11.5687 11.2893 11.5687 11.7475V13.408ZM11.5687 8.42656C11.5687 8.88475 11.1851 9.25681 10.7127 9.25681C10.2404 9.25681 9.85682 8.88475 9.85682 8.42656V6.76605C9.85682 6.30775 10.2404 5.93579 10.7127 5.93579C11.1851 5.93579 11.5687 6.30775 11.5687 6.76605V8.42656ZM14.0808 7.54234C13.6085 7.54234 13.2249 7.17038 13.2249 6.71208C13.2249 6.25389 13.6085 5.88183 14.0808 5.88183H15.7927C16.2651 5.88183 16.6486 6.25389 16.6486 6.71208C16.6486 7.17038 16.2651 7.54234 15.7927 7.54234H14.0808ZM19.2164 7.54234C18.744 7.54234 18.3605 7.17038 18.3605 6.71208C18.3605 6.25389 18.744 5.88183 19.2164 5.88183H20.9283C21.4006 5.88183 21.7842 6.25389 21.7842 6.71208C21.7842 7.17038 21.4006 7.54234 20.9283 7.54234H19.2164ZM24.352 7.54234C23.8795 7.54234 23.4961 7.17038 23.4961 6.71208C23.4961 6.25389 23.8795 5.88183 24.352 5.88183H26.0637C26.5362 5.88183 26.9197 6.25389 26.9197 6.71208C26.9197 7.17038 26.5362 7.54234 26.0637 7.54234H24.352ZM29.4875 7.54234C29.0151 7.54234 28.6315 7.17038 28.6315 6.71208C28.6315 6.25389 29.0151 5.88183 29.4875 5.88183H31.1993C31.6717 5.88183 32.0553 6.25389 32.0553 6.71208C32.0553 7.17038 31.6717 7.54234 31.1993 7.54234H29.4875Z" fill="#A79BA7"/>
<path fill-rule="evenodd" clip-rule="evenodd" d="M50.1763 1.51811C50.1763 0.771508 49.5513 0.165318 48.7816 0.165318H33.6121C32.8424 0.165318 32.2175 0.771508 32.2175 1.51811V12.8063C32.2175 13.5529 32.8424 14.159 33.6121 14.159H48.7816C49.5513 14.159 50.1763 13.5529 50.1763 12.8063V1.51811Z" fill="#FE646F"/>
<path fill-rule="evenodd" clip-rule="evenodd" d="M47.1768 14.159C47.9464 14.159 48.5714 13.5529 48.5714 12.8063V1.51811C48.5714 0.771508 47.9464 0.165318 47.1768 0.165318H48.7816C49.5513 0.165318 50.1762 0.771508 50.1762 1.51811V12.8063C50.1762 13.5529 49.5513 14.159 48.7816 14.159H47.1768Z" fill="#FD4755"/>
<path fill-rule="evenodd" clip-rule="evenodd" d="M45.471 6.71281C45.5523 6.75835 45.6198 6.82386 45.6668 6.90274C45.7137 6.98162 45.7384 7.0711 45.7384 7.16218C45.7384 7.25327 45.7137 7.34275 45.6668 7.42163C45.6198 7.50051 45.5523 7.56601 45.471 7.61156L38.998 11.2367C38.9167 11.2822 38.8244 11.3062 38.7305 11.3062C38.6366 11.3062 38.5444 11.2822 38.4631 11.2367C38.3817 11.1911 38.3142 11.1256 38.2673 11.0467C38.2203 10.9678 38.1956 10.8784 38.1956 10.7873V3.53709C38.1956 3.446 38.2203 3.35652 38.2673 3.27764C38.3142 3.19875 38.3817 3.13325 38.4631 3.08771C38.5444 3.04217 38.6366 3.01819 38.7305 3.01819C38.8244 3.01819 38.9167 3.04217 38.998 3.08771L45.471 6.71281Z" fill="#ECEFF1"/>
<path fill-rule="evenodd" clip-rule="evenodd" d="M39.3372 11.0467L38.998 11.2367C38.9167 11.2822 38.8244 11.3062 38.7305 11.3062C38.6366 11.3062 38.5444 11.2822 38.4631 11.2367C38.3817 11.1911 38.3142 11.1256 38.2673 11.0467C38.2203 10.9678 38.1956 10.8784 38.1956 10.7873V3.53709C38.1956 3.446 38.2203 3.35652 38.2673 3.27764C38.3142 3.19875 38.3817 3.13325 38.4631 3.08771C38.5444 3.04217 38.6366 3.01819 38.7305 3.01819C38.8244 3.01819 38.9167 3.04217 38.998 3.08771L39.3372 3.27763C39.2902 3.35652 39.2655 3.446 39.2655 3.53709V10.7873C39.2655 10.88 39.2911 10.9691 39.3372 11.0467Z" fill="#D1D1D6"/>
<path fill-rule="evenodd" clip-rule="evenodd" d="M33.6462 18.1684H37.8205C38.4162 18.1684 38.9268 18.4552 39.2269 18.9548L40.7228 21.4659H48.9909C49.7792 21.4659 50.4197 22.0872 50.4197 22.8518V30.7806C50.4197 31.5409 49.7792 32.1622 48.9909 32.1622H33.6462C32.8579 32.1622 32.2175 31.5409 32.2175 30.7806V19.55C32.2175 18.7897 32.8579 18.1684 33.6462 18.1684Z" fill="#FFD064"/>
<path fill-rule="evenodd" clip-rule="evenodd" d="M36.7366 18.1684H37.8205C38.4162 18.1684 38.9268 18.4552 39.2269 18.9548L40.7228 21.4659H39.639L38.1431 18.9548C37.8429 18.4552 37.3324 18.1684 36.7366 18.1684ZM47.907 21.4659H48.9909C49.7792 21.4659 50.4197 22.0872 50.4197 22.8518V30.7806C50.4197 31.5409 49.7792 32.1622 48.9909 32.1622H47.907C48.6953 32.1622 49.3357 31.5409 49.3357 30.7806V22.8518C49.3357 22.0872 48.6953 21.4659 47.907 21.4659Z" fill="#FFC338"/>
<path fill-rule="evenodd" clip-rule="evenodd" d="M48.9909 21.4659C49.7792 21.4659 50.4197 22.0873 50.4197 22.8518V30.7806C50.4197 31.5409 49.7792 32.1622 48.9909 32.1622H33.6462C32.8579 32.1622 32.2175 31.5409 32.2175 30.7806V21.4659H48.9909Z" fill="#FFE177"/>
<path fill-rule="evenodd" clip-rule="evenodd" d="M49.2999 21.5007C49.9404 21.6354 50.4197 22.1914 50.4197 22.8518V30.7806C50.4197 31.5409 49.7792 32.1622 48.9909 32.1622H33.6462C32.9654 32.1622 32.3922 31.6973 32.2533 31.0804C32.3518 31.1022 32.4549 31.1108 32.5623 31.1108H47.907C48.6953 31.1108 49.3357 30.4895 49.3357 29.7292V21.8005C49.3357 21.6962 49.3224 21.5963 49.2999 21.5007Z" fill="#FFD064"/>
<path fill-rule="evenodd" clip-rule="evenodd" d="M50.298 37.5244C50.298 36.7778 49.6731 36.1716 48.9033 36.1716H33.7338C32.964 36.1716 32.3391 36.7778 32.3391 37.5244V48.8125C32.3391 49.5591 32.964 50.1653 33.7338 50.1653H48.9033C49.6731 50.1653 50.298 49.5591 50.298 48.8125V37.5244Z" fill="#8AC9FE"/>
<path fill-rule="evenodd" clip-rule="evenodd" d="M32.3701 49.0974C32.4648 49.1171 32.5631 49.1275 32.6639 49.1275H47.8334C48.6032 49.1275 49.2281 48.5213 49.2281 47.7747V36.4866C49.2281 36.3889 49.2174 36.2935 49.197 36.2017C49.826 36.3327 50.298 36.8755 50.298 37.5244V48.8125C50.298 49.5591 49.6731 50.1653 48.9033 50.1653H33.7338C33.0648 50.1653 32.5052 49.7074 32.3701 49.0974Z" fill="#60B7FF"/>
<path fill-rule="evenodd" clip-rule="evenodd" d="M33.756 50.1653C33.3545 50.1653 32.9919 50.0202 32.734 49.7873L38.5336 42.7077C38.5837 42.6465 38.6473 42.5971 38.7199 42.5632C38.7924 42.5292 38.8719 42.5116 38.9524 42.5116C39.0329 42.5116 39.1124 42.5292 39.1849 42.5632C39.2574 42.5971 39.3211 42.6465 39.3712 42.7077L45.4805 50.1653H33.756Z" fill="#00E499"/>
<path fill-rule="evenodd" clip-rule="evenodd" d="M45.4805 50.1653H33.756C33.6303 50.1653 33.5084 50.1511 33.3923 50.1244C33.1487 50.0646 32.9262 49.942 32.7486 49.7696L33.2745 49.1275H44.6304L45.4805 50.1653Z" fill="#00CF8A"/>
<path fill-rule="evenodd" clip-rule="evenodd" d="M39.1708 50.1653L44.2817 44.2476C44.3319 44.1894 44.3946 44.1427 44.4655 44.1106C44.5363 44.0785 44.6136 44.0619 44.6918 44.0619C44.77 44.0619 44.8472 44.0785 44.9181 44.1106C44.9889 44.1427 45.0517 44.1894 45.1019 44.2476L49.8936 49.7957C49.6364 50.0238 49.2776 50.1653 48.8811 50.1653H39.1708Z" fill="#6CF5C2"/>
<path d="M46.0821 40.6265C46.8749 40.6265 47.5175 40.0129 47.5175 39.256C47.5175 38.499 46.8749 37.8854 46.0821 37.8854C45.2894 37.8854 44.6467 38.499 44.6467 39.256C44.6467 40.0129 45.2894 40.6265 46.0821 40.6265Z" fill="#FFE177"/>
<path fill-rule="evenodd" clip-rule="evenodd" d="M48.8811 50.1653H39.1708L40.0671 49.1275H47.8334C48.2612 49.1275 48.6443 48.9402 48.9003 48.6456L49.8789 49.7788C49.7028 49.9465 49.484 50.0657 49.2448 50.1244C49.1256 50.1517 49.0036 50.1654 48.8811 50.1653Z" fill="#00E499"/>
<path fill-rule="evenodd" clip-rule="evenodd" d="M12.7636 17.6883C13.6725 17.8979 14.541 18.2471 15.3364 18.7225L17.0082 18.0031L18.978 19.9138L18.2363 21.5355C18.7264 22.3071 19.0864 23.1495 19.3026 24.0312L21.0086 24.6681V27.3713L19.3026 28.0082C19.0862 28.8894 18.7262 29.7315 18.2363 30.5027L18.978 32.1244L17.0082 34.0363L15.3364 33.3156C14.5411 33.7914 13.6725 34.141 12.7636 34.3511L12.107 36.0048H9.32004L8.66355 34.35C7.75508 34.14 6.88696 33.7909 6.0919 33.3156L4.41995 34.0363L2.44907 32.1244L3.19191 30.5039C2.7018 29.7322 2.34144 28.8898 2.12435 28.0082L0.419657 27.3713V24.6681L2.12435 24.0312C2.34099 23.1495 2.70138 22.307 3.19191 21.5355L2.44907 19.9138L4.41995 18.0031L6.09062 18.7225C6.88623 18.2475 7.75474 17.8984 8.66355 17.6883L9.32004 16.0335H12.107L12.7636 17.6883Z" fill="#FFE177"/>
<path fill-rule="evenodd" clip-rule="evenodd" d="M16.4465 18.2449L17.0082 18.0031L18.978 19.9138L18.2363 21.5355C18.7264 22.3071 19.0864 23.1495 19.3026 24.0312L21.0086 24.6681V27.3713L19.3026 28.0082C19.0862 28.8894 18.7262 29.7315 18.2363 30.5027L18.978 32.1244L17.0082 34.0363L16.4465 33.7945L18.1682 32.1244L17.4253 30.5027C17.9152 29.7315 18.2752 28.8894 18.4917 28.0082L20.1975 27.3713V24.6681L18.4917 24.0312C18.2754 23.1495 17.9154 22.3071 17.4253 21.5355L18.1682 19.9138L16.4465 18.2449ZM4.17077 18.2449L4.41995 18.0031L6.09062 18.7225C5.97254 18.786 5.8562 18.8525 5.74172 18.9219L4.17077 18.2449ZM12.7636 17.6883C13.6725 17.8979 14.541 18.2471 15.3364 18.7225L14.8756 18.9219C14.0804 18.4466 12.862 17.8981 11.9526 17.6883L11.296 16.0335H12.107L12.7636 17.6883ZM6.0919 33.3156L4.41995 34.0363L4.17077 33.7945L5.74172 33.1175C5.85673 33.1863 5.9735 33.2524 6.0919 33.3156ZM15.3364 33.3156C14.5411 33.7914 13.6725 34.141 12.7636 34.3511L12.107 36.0048H11.296L11.9526 34.3511C12.862 34.1413 14.0804 33.5928 14.8767 33.1175L15.3364 33.3156Z" fill="#FFD064"/>
<path fill-rule="evenodd" clip-rule="evenodd" d="M10.7135 20.2134C14.0195 20.2134 16.6994 22.8128 16.6994 26.0198C16.6994 29.2254 14.0195 31.8249 10.7135 31.8249C7.40864 31.8249 4.72884 29.2254 4.72884 26.0198C4.72884 22.8128 7.40864 20.2134 10.7135 20.2134Z" fill="#ECEFF1"/>
<path fill-rule="evenodd" clip-rule="evenodd" d="M10.7135 20.2134C10.8497 20.2134 10.9846 20.218 11.1196 20.2275C8.0033 20.4292 5.53865 22.9449 5.53865 26.0198C5.53865 29.0932 8.0033 31.609 11.1196 31.8119C10.9844 31.8204 10.849 31.8247 10.7135 31.8249C7.40865 31.8249 4.72884 29.2254 4.72884 26.0198C4.72884 22.8128 7.40865 20.2134 10.7135 20.2134Z" fill="#D1D1D6"/>
</svg>
