<svg width="50" height="50" viewBox="0 0 50 50" fill="none" xmlns="http://www.w3.org/2000/svg">
<path fill-rule="evenodd" clip-rule="evenodd" d="M50 11.9091C50 10.6065 49.4733 9.358 48.535 8.43836C48.071 7.98219 47.52 7.62034 46.9134 7.37353C46.3068 7.12671 45.6566 6.99978 45 7H5C3.67333 7 2.40167 7.51709 1.465 8.43836C1.00038 8.8939 0.631828 9.43492 0.380443 10.0305C0.129059 10.626 -0.00022261 11.2644 2.87738e-07 11.9091V38.0909C2.87738e-07 39.3935 0.526667 40.642 1.465 41.5616C1.92897 42.0178 2.48001 42.3797 3.0866 42.6265C3.69318 42.8733 4.34339 43.0002 5 43H45C46.3267 43 47.5983 42.4829 48.535 41.5616C48.9996 41.1061 49.3682 40.5651 49.6196 39.9695C49.8709 39.374 50.0002 38.7356 50 38.0909V11.9091Z" fill="#262261"/>
<path fill-rule="evenodd" clip-rule="evenodd" d="M13.8817 18.9029L8.82167 23.8709C8.66671 24.0229 8.54377 24.2033 8.4599 24.402C8.37603 24.6007 8.33286 24.8136 8.33286 25.0286C8.33286 25.2437 8.37603 25.4566 8.4599 25.6553C8.54377 25.8539 8.66671 26.0344 8.82167 26.1864L13.805 31.0791C14.1193 31.3772 14.5403 31.5421 14.9773 31.5384C15.4143 31.5346 15.8323 31.3625 16.1414 31.0592C16.4504 30.7558 16.6257 30.3453 16.6295 29.9163C16.6333 29.4872 16.4653 29.0739 16.1617 28.7653L12.3567 25.0294L16.24 21.2167C16.5525 20.9097 16.728 20.4933 16.7278 20.0592C16.7277 19.6252 16.5519 19.2089 16.2392 18.9021C15.9264 18.5953 15.5024 18.423 15.0602 18.4231C14.6181 18.4233 14.1942 18.5959 13.8817 18.9029ZM36.2983 31.0578L41.2417 26.2044C41.3966 26.0525 41.5195 25.8722 41.6033 25.6737C41.6872 25.4752 41.7303 25.2624 41.7303 25.0474C41.7303 24.8325 41.6872 24.6197 41.6033 24.4212C41.5195 24.2227 41.3966 24.0424 41.2417 23.8905L36.1783 18.9176C35.864 18.6196 35.443 18.4546 35.006 18.4583C34.569 18.4621 34.151 18.6342 33.842 18.9376C33.533 19.241 33.3577 19.6514 33.3539 20.0804C33.3501 20.5095 33.5181 20.9228 33.8217 21.2314L37.7067 25.0474L33.9417 28.7424C33.6289 29.0492 33.4532 29.4654 33.453 29.8995C33.4528 30.3336 33.6283 30.7499 33.9408 31.057C34.2533 31.364 34.6773 31.5366 35.1194 31.5368C35.5615 31.5369 35.9856 31.3646 36.2983 31.0578Z" fill="#FAAF40"/>
<path fill-rule="evenodd" clip-rule="evenodd" d="M25.6667 17.8769L21.1967 31.0415C21.0682 31.4501 21.1078 31.892 21.3069 32.2723C21.5061 32.6527 21.8491 32.9414 22.2624 33.0766C22.6757 33.2118 23.1265 33.1827 23.5182 32.9956C23.9099 32.8086 24.2115 32.4783 24.3583 32.0756L28.8283 18.9111C28.9568 18.5024 28.9172 18.0606 28.7181 17.6802C28.5189 17.2998 28.1759 17.0111 27.7626 16.876C27.3493 16.7408 26.8985 16.7698 26.5068 16.9569C26.1151 17.144 25.8135 17.4742 25.6667 17.8769Z" fill="#EE4036"/>
</svg>
