<svg width="50" height="50" viewBox="0 0 50 50" fill="none" xmlns="http://www.w3.org/2000/svg">
<path d="M40.6773 3.60232L35.6695 0.733557C35.4504 0.573755 35.2145 0.438454 34.966 0.330081L34.8922 0.288324L34.889 0.294573C33.5417 -0.253115 31.8014 -0.0550469 29.903 1.04063L14.4782 9.94458C10.2372 12.3934 6.76725 18.404 6.76725 23.3013V41.1108C6.76725 43.4988 7.59652 45.1925 8.9341 46.0238L8.92121 46.0472L14.4869 49.2003L17.6166 43.7514L29.903 36.6583C34.1432 34.2099 37.6139 28.1993 37.6139 23.3015V8.93519L40.6773 3.60232Z" fill="#323738"/>
<path d="M40.6773 3.60232L35.3168 2.34488C35.0977 2.1855 34.0031 2.18936 33.7534 2.08046L33.3562 1.92147L32.6406 1.78866C31.2933 1.24098 31.8015 -0.0554436 29.9031 1.04023L14.4783 9.94458C10.2373 12.3934 6.76735 18.404 6.76735 23.3013V41.1108C6.76735 43.4988 7.59662 45.1925 8.9342 46.0238L8.92131 46.0472L14.487 49.2003L17.6167 43.7514L29.9031 36.6583C34.1433 34.2099 37.614 28.1993 37.614 23.3015V8.93519L40.6773 3.60232Z" fill="#252B2D"/>
<path d="M7.06103 20.7357C6.87387 21.6076 6.76725 22.4713 6.76725 23.3013V41.1108C6.76725 43.4988 7.59652 45.1925 8.9341 46.0238L8.92121 46.0472L14.4869 49.2003L17.6166 43.7514L29.903 36.6583C30.6233 36.2426 31.3198 35.7169 31.9819 35.1173L7.06103 20.7357Z" fill="#090C0C"/>
<path d="M19.7795 13.0185C15.5384 15.4673 12.0677 21.4779 12.0677 26.3752V44.1847C12.0677 49.0821 15.5384 51.0856 19.7795 48.6367L35.203 39.7324C39.4441 37.2836 42.9148 31.2734 42.9148 26.3752V8.56643C42.9148 3.66878 39.4441 1.66598 35.203 4.11441L19.7795 13.0185Z" fill="#3B4142"/>
<path opacity="0.2" d="M42.9148 8.56643C42.9148 3.66878 39.4441 1.66598 35.203 4.11441L19.7795 13.0184C15.5384 15.4672 12.0677 21.4778 12.0677 26.3751V44.1846C12.0677 49.082 15.5384 51.0855 19.7795 48.6366" fill="#383E3F"/>
<path d="M12.1739 25.0373L42.8097 7.35005C42.8585 6.9793 42.8891 6.61253 42.9023 6.25081L12.081 24.0455C12.0943 24.3916 12.1255 24.7224 12.1739 25.0373Z" fill="#3B4142"/>
<path d="M16.3537 50H16.3529C13.5567 50 11.7501 47.7172 11.7501 44.1847V26.3752C11.7501 21.3642 15.2802 15.2486 19.6197 12.7435L35.044 3.83878C36.2944 3.11692 37.5007 2.75163 38.6292 2.75163C41.4252 2.75163 43.2328 5.03443 43.2328 8.56653V26.3756C43.2328 31.3873 39.7018 37.5027 35.3624 40.0077L19.9381 48.9125C18.6877 49.6336 17.4822 50 16.3537 50ZM38.6296 3.38749C37.6139 3.38749 36.5147 3.72462 35.3628 4.38904L19.9381 13.2938C15.774 15.6985 12.3857 21.5665 12.3857 26.3751V44.1846C12.3857 47.3792 13.9056 49.3635 16.3529 49.3635H16.3537C17.3693 49.3635 18.4678 49.0264 19.6197 48.362L35.044 39.4573C39.2081 37.053 42.5964 31.1841 42.5964 26.3755V8.56643C42.5968 5.37195 41.0769 3.38749 38.6296 3.38749Z" fill="#4F5759"/>
<path d="M18.2056 18.0142C18.206 17.6037 18.4958 17.1001 18.8513 16.8954C19.2068 16.6903 19.4974 16.8575 19.497 17.268C19.4974 17.6786 19.2064 18.1821 18.8513 18.3872C18.4962 18.5919 18.206 18.4243 18.2056 18.0142Z" fill="#FF4D8D"/>
<path d="M18.8517 18.3872C18.4962 18.5915 18.2064 18.4243 18.206 18.0142C18.2064 17.6037 18.4962 17.1001 18.8517 16.8954" fill="#EA2864"/>
<path d="M20.9579 16.4408C20.9579 16.0298 21.2482 15.5271 21.6032 15.322C21.9587 15.1169 22.2493 15.2845 22.2493 15.695C22.2493 16.1047 21.9587 16.6083 21.6032 16.8134C21.2487 17.0185 20.9579 16.8509 20.9579 16.4408Z" fill="#F7D011"/>
<path d="M21.6037 16.8134C21.2487 17.0185 20.9584 16.8509 20.9584 16.4408C20.9584 16.0298 21.2487 15.5271 21.6037 15.322" fill="#F4B414"/>
<path d="M23.71 14.8673C23.71 14.4568 24.0006 13.9533 24.3557 13.7481C24.7111 13.543 25.0013 13.7107 25.0013 14.1212C25.0013 14.5317 24.7107 15.0344 24.3557 15.2396C24.0006 15.4447 23.71 15.2767 23.71 14.8673Z" fill="#15EAA8"/>
<path d="M24.3561 15.2396C24.001 15.4447 23.7104 15.277 23.7104 14.8673C23.7104 14.4568 24.001 13.9533 24.3561 13.7481" fill="#08C1B3"/>
<path d="M26.1971 31.5725C26.001 31.5725 25.8017 31.5229 25.6197 31.4178L19.608 27.9471C19.0548 27.6275 18.8658 26.9193 19.1846 26.3662C19.5041 25.8127 20.2107 25.6232 20.7654 25.9428L26.7768 29.4135C27.3307 29.7331 27.5198 30.4412 27.2002 30.9944C26.9862 31.3655 26.5975 31.5725 26.1971 31.5725Z" fill="white"/>
<path d="M20.1861 41.9855C19.99 41.9855 19.7912 41.9355 19.6084 41.8308C19.0552 41.5112 18.8662 40.8035 19.185 40.2503L25.1963 29.8373C25.5159 29.2838 26.2214 29.0939 26.7772 29.4135C27.3311 29.7331 27.5202 30.4404 27.2006 30.9944L21.1892 41.407C21.0876 41.5831 20.9414 41.7293 20.7653 41.8309C20.5892 41.9324 20.3894 41.9858 20.1861 41.9855ZM28.2042 37.3577C28.0008 37.358 27.8009 37.3047 27.6248 37.2031C27.4486 37.1016 27.3023 36.9553 27.2006 36.7792C26.8818 36.2261 27.0709 35.5183 27.6248 35.1987L35.6409 30.571C36.1948 30.2499 36.9022 30.4412 37.2218 30.9944C37.5405 31.5483 37.3515 32.2557 36.7976 32.5752L28.7815 37.203C28.606 37.3044 28.4069 37.3578 28.2042 37.3577Z" fill="white"/>
</svg>
