<svg width="50" height="50" viewBox="0 0 50 50" fill="none" xmlns="http://www.w3.org/2000/svg">
<path fill-rule="evenodd" clip-rule="evenodd" d="M0 15C0 6.71583 6.71583 0 15 0H35C43.2842 0 50 6.71583 50 15V35C50 43.2842 43.2842 50 35 50H15C6.71583 50 0 43.2842 0 35V15ZM29.6658 11.1833C29.7587 10.751 29.676 10.2996 29.4359 9.92824C29.1959 9.55691 28.8181 9.29616 28.3858 9.20333C27.9535 9.11051 27.5021 9.19321 27.1307 9.43326C26.7594 9.67331 26.4987 10.051 26.4058 10.4833L20.335 38.8167C20.2518 39.245 20.3399 39.6888 20.5804 40.0529C20.8209 40.4169 21.1945 40.6722 21.621 40.7638C22.0476 40.8555 22.4931 40.7762 22.8619 40.543C23.2306 40.3098 23.4932 39.9413 23.5933 39.5167L29.6658 11.1833ZM18.0825 20.1075C18.2373 19.9528 18.3601 19.769 18.4439 19.5668C18.5277 19.3646 18.5708 19.1479 18.5709 18.929C18.5709 18.7102 18.5278 18.4934 18.4441 18.2912C18.3604 18.089 18.2377 17.9052 18.0829 17.7504C17.9282 17.5956 17.7445 17.4728 17.5423 17.389C17.3401 17.3052 17.1233 17.2621 16.9045 17.262C16.6856 17.262 16.4688 17.3051 16.2666 17.3888C16.0644 17.4725 15.8806 17.5953 15.7258 17.75L9.655 23.8217C9.34255 24.1342 9.16702 24.5581 9.16702 25C9.16702 25.4419 9.34255 25.8658 9.655 26.1783L15.7267 32.25C15.8804 32.4092 16.0643 32.5362 16.2677 32.6235C16.471 32.7108 16.6897 32.7568 16.911 32.7588C17.1323 32.7607 17.3518 32.7185 17.5566 32.6347C17.7614 32.5509 17.9475 32.4271 18.104 32.2707C18.2605 32.1142 18.3842 31.9281 18.468 31.7233C18.5518 31.5184 18.594 31.299 18.5921 31.0777C18.5902 30.8564 18.5442 30.6377 18.4568 30.4343C18.3695 30.231 18.2425 30.0471 18.0833 29.8933L13.19 25L18.0825 20.1075ZM34.275 17.75C33.9623 17.4373 33.5381 17.2616 33.0958 17.2616C32.6536 17.2616 32.2294 17.4373 31.9167 17.75C31.6039 18.0627 31.4282 18.4869 31.4282 18.9292C31.4282 19.3714 31.6039 19.7956 31.9167 20.1083L36.81 25L31.9167 29.8933C31.7619 30.0482 31.6392 30.232 31.5555 30.4343C31.4718 30.6366 31.4288 30.8533 31.4288 31.0723C31.4289 31.2912 31.4721 31.5079 31.5559 31.7101C31.6398 31.9124 31.7626 32.0961 31.9175 32.2508C32.2302 32.5633 32.6543 32.7388 33.0964 32.7387C33.3153 32.7386 33.5321 32.6954 33.7343 32.6116C33.9365 32.5277 34.1203 32.4049 34.275 32.25L40.3458 26.1783C40.6583 25.8658 40.8338 25.4419 40.8338 25C40.8338 24.5581 40.6583 24.1342 40.3458 23.8217L34.275 17.75Z" fill="url(#paint0_linear_80_36)"/>
<defs>
<linearGradient id="paint0_linear_80_36" x1="63.87" y1="60.1025" x2="19.5208" y2="8.21917" gradientUnits="userSpaceOnUse">
<stop offset="0.003" stop-color="#FF37DF"/>
<stop offset="1" stop-color="#6E00FF"/>
</linearGradient>
</defs>
</svg>
