<svg width="51" height="45" viewBox="0 0 51 45" fill="none" xmlns="http://www.w3.org/2000/svg">
<path d="M43.8667 3.61785H26.2529C25.8393 2.62415 25.1322 1.77352 24.222 1.17452C23.3118 0.575531 22.2397 0.255349 21.1425 0.254845H5.55861C4.0934 0.254845 2.68821 0.824018 1.65215 1.83715C0.616094 2.85029 0.0340424 4.22439 0.0340424 5.65718V32.1275C0.0339047 32.9197 0.19336 33.7041 0.503299 34.436C0.813239 35.1679 1.26759 35.8329 1.8404 36.393C2.41321 36.9531 3.09326 37.3974 3.8417 37.7005C4.59014 38.0036 5.39231 38.1595 6.20239 38.1594H43.8657C44.6758 38.1595 45.4779 38.0036 46.2264 37.7005C46.9748 37.3974 47.6549 36.9531 48.2277 36.393C48.8005 35.8329 49.2548 35.1679 49.5648 34.436C49.8747 33.7041 50.0342 32.9197 50.034 32.1275V9.6487C50.034 8.85663 49.8745 8.07232 49.5645 7.34056C49.2545 6.60879 48.8001 5.94391 48.2273 5.38388C47.6545 4.82385 46.9745 4.37964 46.2261 4.07663C45.4778 3.77361 44.6767 3.61771 43.8667 3.61785Z" fill="#B36523"/>
<path d="M21.1425 6.79117H5.55861C5.00245 6.79117 4.46907 6.57512 4.0758 6.19056C3.68254 5.806 3.4616 5.28441 3.4616 4.74056C3.4616 4.1967 3.68254 3.67512 4.0758 3.29056C4.46907 2.90599 5.00245 2.68995 5.55861 2.68995H21.1425C21.6987 2.68995 22.2321 2.90599 22.6253 3.29056C23.0186 3.67512 23.2395 4.1967 23.2395 4.74056C23.2395 5.28441 23.0186 5.806 22.6253 6.19056C22.2321 6.57512 21.6987 6.79117 21.1425 6.79117Z" fill="#BF803D"/>
<path d="M43.8667 44.2548H6.20344C5.39345 44.255 4.59137 44.0991 3.84299 43.7961C3.09462 43.493 2.41462 43.0488 1.84182 42.4888C1.26902 41.9288 0.814651 41.2639 0.50465 40.5321C0.194648 39.8004 0.0350914 39.0161 0.0350914 38.224V15.7441C0.0350914 14.9521 0.194648 14.1678 0.50465 13.436C0.814651 12.7042 1.26902 12.0394 1.84182 11.4793C2.41462 10.9193 3.09462 10.4751 3.84299 10.1721C4.59137 9.86905 5.39345 9.71316 6.20344 9.7133H43.8657C44.6757 9.71316 45.4778 9.86905 46.2261 10.1721C46.9745 10.4751 47.6545 10.9193 48.2273 11.4793C48.8001 12.0394 49.2545 12.7042 49.5645 13.436C49.8745 14.1678 50.034 14.9521 50.034 15.7441V38.224C50.034 39.0161 49.8745 39.8004 49.5645 40.5321C49.2545 41.2639 48.8001 41.9288 48.2273 42.4888C47.6545 43.0488 46.9745 43.493 46.2261 43.7961C45.4778 44.0991 44.6767 44.255 43.8667 44.2548Z" fill="black"/>
<path d="M39.712 23.43L39.598 22.848L34.648 21.984L37.522 18.096L37.192 17.73L32.962 19.758L33.496 14.376L33.064 14.124L30.49 18.48L27.598 12H27.094L27.778 18.264L20.512 12.444L19.894 12.63L25.492 19.662L14.41 15.972L13.906 16.536L23.8 22.17L10.15 23.298L10 24.144L24.184 25.692L12.352 35.484L12.856 36.162L26.944 28.5L24.154 42H25.006L30.406 29.298L33.694 39.24L34.282 38.79L32.926 28.686L38.056 34.5L38.392 33.972L34.468 26.754L39.946 28.782L40 28.17L35.086 24.546L39.712 23.43Z" fill="#FFBC0D"/>
</svg>
