<svg width="50" height="50" viewBox="0 0 50 50" fill="none" xmlns="http://www.w3.org/2000/svg">
<path d="M5.55556 0C2.47222 0 0 2.47222 0 5.55556V44.4444C0 45.9179 0.585316 47.3309 1.62718 48.3728C2.66905 49.4147 4.08213 50 5.55556 50H44.4444C45.9179 50 47.3309 49.4147 48.3728 48.3728C49.4147 47.3309 50 45.9179 50 44.4444V5.55556C50 4.08213 49.4147 2.66905 48.3728 1.62718C47.3309 0.585316 45.9179 0 44.4444 0H5.55556ZM15.7444 9.575C16.4667 9.575 17.0722 9.81389 17.5556 10.2861C18.0389 10.7583 18.2833 11.3389 18.2833 12.0222C18.2833 12.9667 18.2444 14.3889 18.1694 16.2917C18.1083 18.1806 18.0778 19.5972 18.0778 20.5417C18.0778 20.85 18.0333 21.4472 17.9472 22.3306C17.8818 22.958 17.8512 23.5886 17.8556 24.2194L25.0167 22.8722C27.8139 22.375 30.2222 22.0917 32.2472 22.0167C32.2972 21.1833 32.3806 18.9472 32.4917 15.3056C32.5194 14.3472 32.8111 13.2444 33.3722 12C34.0667 10.4722 34.8528 9.70556 35.7361 9.70556C36.3944 9.70556 36.9806 9.92778 37.4889 10.3611C38.0361 10.8333 38.3083 11.4222 38.3083 12.1306C38.3097 12.3189 38.2864 12.5066 38.2389 12.6889C37.9889 13.5972 37.8639 14.3889 37.8639 15.0611C37.8639 15.4083 37.825 15.95 37.75 16.6833C37.6861 17.4056 37.6583 17.9417 37.6583 18.2889C37.6583 19.4694 37.5972 21.2222 37.4722 23.5472C37.3667 25.2973 37.3037 27.0497 37.2833 28.8028C37.2833 29.7111 37.3528 31.0694 37.4889 32.8722C37.6278 34.675 37.6944 36.0278 37.6944 36.9361C37.7007 37.26 37.6395 37.5816 37.5147 37.8805C37.3899 38.1794 37.2042 38.449 36.9694 38.6722C36.7313 38.905 36.4486 39.0875 36.1384 39.2087C35.8282 39.3299 35.4968 39.3874 35.1639 39.3778C34.4624 39.3917 33.7816 39.1396 33.2583 38.6722C33.0048 38.4683 32.8007 38.2098 32.6612 37.9159C32.5217 37.622 32.4505 37.3003 32.4528 36.975C32.4528 36.0667 32.4111 34.7028 32.325 32.8889C32.2617 31.5286 32.2238 30.1673 32.2111 28.8056C32.2111 28.0944 32.2222 27.4667 32.2472 26.9194C30.2972 27.0083 27.8861 27.3167 25.0167 27.8361C22.6278 28.2722 20.2417 28.7139 17.8556 29.1611C17.8278 30.0056 17.7389 31.4167 17.5889 33.3917C17.4787 34.8132 17.4176 36.2381 17.4056 37.6639C17.4115 37.9879 17.3498 38.3097 17.2245 38.6086C17.0992 38.9075 16.913 39.177 16.6778 39.4C16.4394 39.6323 16.1566 39.8142 15.8465 39.935C15.5363 40.0557 15.2049 40.1128 14.8722 40.1028C14.5382 40.1131 14.2055 40.0562 13.8939 39.9355C13.5824 39.8148 13.2982 39.6327 13.0583 39.4C12.8231 39.177 12.6369 38.9075 12.5116 38.6086C12.3863 38.3097 12.3246 37.9879 12.3306 37.6639C12.3306 36.4056 12.4361 34.5306 12.6472 32.0306C12.8694 29.5306 12.9806 27.6556 12.9806 26.4C12.9806 24.8083 13.0222 22.4111 13.0972 19.2167C13.1722 16.0083 13.2083 13.6139 13.2083 12.0222C13.2028 11.698 13.2649 11.3761 13.3906 11.0772C13.5164 10.7783 13.7032 10.5088 13.9389 10.2861C14.1768 10.0526 14.4592 9.86928 14.7694 9.74712C15.0796 9.62495 15.4112 9.56642 15.7444 9.575Z" fill="#4CAF50"/>
</svg>
