<svg viewBox="0 0 50 50" xmlns="http://www.w3.org/2000/svg" xmlns:xlink="http://www.w3.org/1999/xlink" width="50.000008" height="50.000000" fill="none" customFrame="#000000">
	<g id="notebook">
		<path id="Форма 1" d="M6.45161 36.6936L6.45161 37.5C6.45161 37.834 6.33351 38.1192 6.09731 38.3554C5.8611 38.5916 5.57598 38.7097 5.24194 38.7097L1.20968 38.7097C0.875634 38.7097 0.590511 38.5916 0.354306 38.3554C0.118102 38.1192 2.65474e-08 37.834 0 37.5L0 36.6936C-1.32737e-08 36.3595 0.118102 36.0744 0.354306 35.8382C0.590511 35.602 0.875634 35.4839 1.20968 35.4839L5.24194 35.4839C5.57598 35.4839 5.8611 35.602 6.09731 35.8382C6.33351 36.0744 6.45161 36.3595 6.45161 36.6936ZM6.45161 28.629L6.45161 29.4355C6.45161 29.7695 6.33351 30.0547 6.09731 30.2909C5.8611 30.5271 5.57598 30.6452 5.24194 30.6452L1.20968 30.6452C0.875634 30.6452 0.590511 30.5271 0.354306 30.2909C0.118102 30.0547 2.65474e-08 29.7695 0 29.4355L0 28.629C-1.32737e-08 28.295 0.118102 28.0099 0.354306 27.7737C0.590511 27.5375 0.875634 27.4194 1.20968 27.4194L5.24194 27.4194C5.57598 27.4194 5.8611 27.5375 6.09731 27.7737C6.33351 28.0099 6.45161 28.295 6.45161 28.629ZM6.45161 20.5645L6.45161 21.371C6.45161 21.705 6.33351 21.9902 6.09731 22.2264C5.8611 22.4626 5.57598 22.5807 5.24194 22.5807L1.20968 22.5807C0.875634 22.5807 0.590511 22.4626 0.354306 22.2264C0.118102 21.9902 2.65474e-08 21.705 0 21.371L0 20.5645C-1.32737e-08 20.2305 0.118102 19.9454 0.354306 19.7092C0.590511 19.473 0.875634 19.3549 1.20968 19.3549L5.24194 19.3549C5.57598 19.3549 5.8611 19.473 6.09731 19.7092C6.33351 19.9454 6.45161 20.2305 6.45161 20.5645ZM6.45161 12.5L6.45161 13.3065C6.45161 13.6405 6.33351 13.9256 6.09731 14.1619C5.8611 14.3981 5.57598 14.5162 5.24194 14.5162L1.20968 14.5162C0.875634 14.5162 0.590511 14.3981 0.354306 14.1619C0.118102 13.9256 2.65474e-08 13.6405 0 13.3065L0 12.5C-1.32737e-08 12.166 0.118102 11.8809 0.354306 11.6447C0.590511 11.4085 0.875634 11.2904 1.20968 11.2904L5.24194 11.2904C5.57598 11.2904 5.8611 11.4085 6.09731 11.6447C6.33351 11.8809 6.45161 12.166 6.45161 12.5ZM6.45161 4.43552L6.45161 5.24197C6.45161 5.57602 6.33351 5.86114 6.09731 6.09734C5.8611 6.33355 5.57598 6.45165 5.24194 6.45165L1.20968 6.45165C0.875634 6.45165 0.590511 6.33355 0.354306 6.09734C0.118102 5.86114 2.65474e-08 5.57602 0 5.24197L0 4.43552C-1.32737e-08 4.10148 0.118102 3.81636 0.354306 3.58015C0.590511 3.34395 0.875634 3.22585 1.20968 3.22585L5.24194 3.22585C5.57598 3.22585 5.8611 3.34395 6.09731 3.58015C6.33351 3.81636 6.45161 4.10148 6.45161 4.43552Z" fill="rgb(102,102,102)" fill-rule="nonzero" />
		<path id="Форма 2" d="M50 2.4194L50 4.83875L45.1613 4.83875L45.1613 2.4194C45.1613 1.75131 45.3975 1.18107 45.8699 0.708658C46.3423 0.23625 46.9126 4.57764e-05 47.5806 4.57764e-05C48.2487 4.57764e-05 48.819 0.23625 49.2914 0.708658C49.7638 1.18107 50 1.75131 50 2.4194Z" fill="rgb(234,234,234)" fill-rule="nonzero" />
		<path id="Форма 3" d="M50 2.4194L50 4.83875L48.3871 4.83875L48.3871 2.4194C48.3872 1.75128 48.1506 1.18139 47.6774 0.70972C47.4214 0.449513 47.1203 0.261341 46.7742 0.145205C47.034 0.0467013 47.3028 -0.00168582 47.5806 4.33575e-05C48.2487 4.33575e-05 48.819 0.236247 49.2914 0.708655C49.7638 1.18106 50 1.75131 50 2.4194Z" fill="rgb(218,212,212)" fill-rule="nonzero" />
		<path id="Форма 4" d="M12.9032 3.22585L30.6452 3.22585L30.6452 16.1291L12.9032 16.1291L12.9032 3.22585Z" fill="rgb(234,234,234)" fill-rule="nonzero" />
		<path id="Форма 5" d="M30.6452 3.22585L30.6452 16.1291L12.9032 16.1291L12.9032 13.7097L25 13.7097C25.8908 13.7097 26.6511 13.3948 27.281 12.7649C27.9109 12.135 28.2258 11.3747 28.2258 10.4839L28.2258 3.22585L30.6452 3.22585Z" fill="rgb(218,212,212)" fill-rule="nonzero" />
		<path id="Форма 6" d="M6.45161 44.7581L6.45161 45.5645C6.45161 45.8986 6.33351 46.1837 6.09731 46.4199C5.8611 46.6561 5.57598 46.7742 5.24194 46.7742L1.20968 46.7742C0.875634 46.7742 0.590511 46.6561 0.354306 46.4199C0.118102 46.1837 2.65474e-08 45.8986 0 45.5645L0 44.7581C-1.32737e-08 44.424 0.118102 44.1389 0.354306 43.9027C0.590511 43.6665 0.875634 43.5484 1.20968 43.5484L5.24194 43.5484C5.57598 43.5484 5.8611 43.6665 6.09731 43.9027C6.33351 44.1389 6.45161 44.424 6.45161 44.7581Z" fill="rgb(102,102,102)" fill-rule="nonzero" />
		<path id="Форма 7" d="M6.45161 44.7581L6.45161 45.5645C6.45161 45.8986 6.33351 46.1837 6.09731 46.4199C5.8611 46.6561 5.57598 46.7742 5.24194 46.7742L1.20968 46.7742C0.875634 46.7742 0.590511 46.6561 0.354306 46.4199C0.118102 46.1837 2.65474e-08 45.8986 0 45.5645L0 45.1613L3.62903 45.1613C3.96308 45.1613 4.2482 45.0432 4.4844 44.807C4.72061 44.5708 4.83871 44.2857 4.83871 43.9516L4.83871 43.5484L5.24194 43.5484C5.57598 43.5484 5.8611 43.6665 6.09731 43.9027C6.33351 44.1389 6.45161 44.424 6.45161 44.7581ZM6.45161 36.6936L6.45161 37.5C6.45161 37.8341 6.33351 38.1192 6.09731 38.3554C5.8611 38.5916 5.57598 38.7097 5.24194 38.7097L1.20968 38.7097C0.875634 38.7097 0.590511 38.5916 0.354306 38.3554C0.118102 38.1192 2.65474e-08 37.8341 0 37.5L0 37.0968L3.62903 37.0968C3.96308 37.0968 4.2482 36.9787 4.4844 36.7425C4.72061 36.5063 4.83871 36.2212 4.83871 35.8871L4.83871 35.4839L5.24194 35.4839C5.57598 35.4839 5.8611 35.602 6.09731 35.8382C6.33351 36.0744 6.45161 36.3595 6.45161 36.6936ZM6.45161 28.6291L6.45161 29.4355C6.45161 29.7695 6.33351 30.0547 6.09731 30.2909C5.8611 30.5271 5.57598 30.6452 5.24194 30.6452L1.20968 30.6452C0.875634 30.6452 0.590511 30.5271 0.354306 30.2909C0.118102 30.0547 2.65474e-08 29.7695 0 29.4355L0 29.0323L3.62903 29.0323C3.96308 29.0323 4.2482 28.9142 4.4844 28.678C4.72061 28.4418 4.83871 28.1566 4.83871 27.8226L4.83871 27.4194L5.24194 27.4194C5.57598 27.4194 5.8611 27.5375 6.09731 27.7737C6.33351 28.0099 6.45161 28.295 6.45161 28.6291ZM6.45161 20.5645L6.45161 21.371C6.45161 21.705 6.33351 21.9902 6.09731 22.2264C5.8611 22.4626 5.57598 22.5807 5.24194 22.5807L1.20968 22.5807C0.875634 22.5807 0.590511 22.4626 0.354306 22.2264C0.118102 21.9902 2.65474e-08 21.705 0 21.371L0 20.9678L3.62903 20.9678C3.96308 20.9678 4.2482 20.8497 4.4844 20.6135C4.72061 20.3773 4.83871 20.0921 4.83871 19.7581L4.83871 19.3549L5.24194 19.3549C5.57598 19.3549 5.8611 19.473 6.09731 19.7092C6.33351 19.9454 6.45161 20.2305 6.45161 20.5645ZM6.45161 12.5L6.45161 13.3065C6.45161 13.6405 6.33351 13.9256 6.09731 14.1619C5.8611 14.3981 5.57598 14.5162 5.24194 14.5162L1.20968 14.5162C0.875634 14.5162 0.590511 14.3981 0.354306 14.1619C0.118102 13.9256 2.65474e-08 13.6405 0 13.3065L0 12.9033L3.62903 12.9033C3.96308 12.9033 4.2482 12.7852 4.4844 12.549C4.72061 12.3127 4.83871 12.0276 4.83871 11.6936L4.83871 11.2904L5.24194 11.2904C5.57598 11.2904 5.8611 11.4085 6.09731 11.6447C6.33351 11.8809 6.45161 12.166 6.45161 12.5ZM6.45161 4.43552L6.45161 5.24197C6.45161 5.57602 6.33351 5.86114 6.09731 6.09734C5.8611 6.33355 5.57598 6.45165 5.24194 6.45165L1.20968 6.45165C0.875634 6.45165 0.590511 6.33355 0.354306 6.09734C0.118102 5.86114 2.65474e-08 5.57602 0 5.24197L0 4.83875L3.62903 4.83875C3.96308 4.83875 4.2482 4.72065 4.4844 4.48444C4.72061 4.24824 4.83871 3.96311 4.83871 3.62907L4.83871 3.22585L5.24194 3.22585C5.57598 3.22585 5.8611 3.34395 6.09731 3.58015C6.33351 3.81636 6.45161 4.10148 6.45161 4.43552Z" fill="rgb(77,77,77)" fill-rule="nonzero" />
		<path id="Форма 8" d="M47.5806 7.2581L50 7.2581L50 43.5484L47.5806 43.5484L47.5806 7.2581Z" fill="rgb(237,28,36)" fill-rule="nonzero" />
		<path id="Форма 9" d="M48.3871 7.2581L50 7.2581L50 43.5484L48.3871 43.5484L48.3871 7.2581Z" fill="rgb(193,39,45)" fill-rule="nonzero" />
		<path id="Форма 10" d="M50 4.83875L50 7.2581L45.1613 7.2581L45.1613 4.83875L50 4.83875Z" fill="rgb(252,238,33)" fill-rule="nonzero" />
		<path id="Форма 11" d="M50 4.83875L50 7.2581L48.3871 7.2581L48.3871 4.83875L50 4.83875Z" fill="rgb(247,147,30)" fill-rule="nonzero" />
		<path id="Форма 12" d="M50 43.5484L48.4839 47.5806L46.6774 47.5806L45.1613 43.5484L47.5806 43.5484L50 43.5484Z" fill="rgb(255,213,194)" fill-rule="nonzero" />
		<path id="Форма 13" d="M50 43.5484L48.4839 47.5806L46.871 47.5806L48.3871 43.5484L50 43.5484Z" fill="rgb(255,161,128)" fill-rule="nonzero" />
		<path id="Форма 14" d="M48.4839 47.5806L47.5806 50L46.6774 47.5806L48.4839 47.5806Z" fill="rgb(153,91,63)" fill-rule="nonzero" />
		<path id="Форма 15" d="M45.1613 7.2581L47.5806 7.2581L47.5806 43.5484L45.1613 43.5484L45.1613 7.2581Z" fill="rgb(255,202,58)" fill-rule="nonzero" />
		<path id="Форма 16" d="M33.0645 4.57764e-05L36.2903 4.57764e-05L36.2903 50L33.0645 50L33.0645 4.57764e-05Z" fill="rgb(102,102,102)" fill-rule="nonzero" />
		<path id="Форма 17" d="M33.0645 4.57764e-05L33.0645 50L3.22581 50L3.22581 46.7742L5.24194 46.7742C5.57598 46.7742 5.8611 46.6561 6.09731 46.4199C6.33351 46.1837 6.45161 45.8986 6.45161 45.5645L6.45161 44.7581C6.45161 44.424 6.33351 44.1389 6.09731 43.9027C5.8611 43.6665 5.57598 43.5484 5.24194 43.5484L3.22581 43.5484L3.22581 38.7097L5.24194 38.7097C5.57598 38.7097 5.8611 38.5916 6.09731 38.3554C6.33351 38.1192 6.45161 37.8341 6.45161 37.5L6.45161 36.6936C6.45161 36.3595 6.33351 36.0744 6.09731 35.8382C5.8611 35.602 5.57598 35.4839 5.24194 35.4839L3.22581 35.4839L3.22581 30.6452L5.24194 30.6452C5.57598 30.6452 5.8611 30.5271 6.09731 30.2909C6.33351 30.0547 6.45161 29.7695 6.45161 29.4355L6.45161 28.6291C6.45161 28.295 6.33351 28.0099 6.09731 27.7737C5.8611 27.5375 5.57598 27.4194 5.24194 27.4194L3.22581 27.4194L3.22581 22.5807L5.24194 22.5807C5.57598 22.5807 5.8611 22.4626 6.09731 22.2264C6.33351 21.9902 6.45161 21.705 6.45161 21.371L6.45161 20.5645C6.45161 20.2305 6.33351 19.9454 6.09731 19.7092C5.8611 19.473 5.57598 19.3549 5.24194 19.3549L3.22581 19.3549L3.22581 14.5162L5.24194 14.5162C5.57598 14.5162 5.8611 14.3981 6.09731 14.1619C6.33351 13.9257 6.45161 13.6405 6.45161 13.3065L6.45161 12.5C6.45161 12.166 6.33351 11.8809 6.09731 11.6447C5.8611 11.4085 5.57598 11.2904 5.24194 11.2904L3.22581 11.2904L3.22581 6.45165L5.24194 6.45165C5.57598 6.45165 5.8611 6.33355 6.09731 6.09735C6.33351 5.86114 6.45161 5.57602 6.45161 5.24198L6.45161 4.43553C6.45161 4.10148 6.33351 3.81636 6.09731 3.58016C5.8611 3.34395 5.57598 3.22585 5.24194 3.22585L3.22581 3.22585L3.22581 4.57764e-05L33.0645 4.57764e-05ZM30.6452 16.1291L30.6452 3.22585L12.9032 3.22585L12.9032 16.1291L30.6452 16.1291Z" fill="rgb(255,202,58)" fill-rule="nonzero" />
		<path id="Форма 18" d="M36.2903 29.8387L36.2903 50L33.0645 50L33.0645 39.5161C35.22 36.6504 36.2953 33.4246 36.2903 29.8387Z" fill="rgb(77,77,77)" fill-rule="nonzero" />
		<path id="Форма 19" d="M33.0645 39.5161L33.0645 50L3.22581 50L3.22581 46.7742L5.24194 46.7742C5.81049 46.7726 6.18952 46.5038 6.37903 45.9677L20.1613 45.9677C22.7002 45.9698 25.105 45.4032 27.3758 44.2678C29.6466 43.1324 31.5429 41.5485 33.0645 39.5161ZM40.3226 2.4194L40.3226 47.5807C40.3226 48.2487 40.0864 48.819 39.614 49.2914C39.1416 49.7638 38.5713 50 37.9032 50L36.2903 50L36.2903 4.57764e-05L37.9032 4.57764e-05C38.5713 4.57764e-05 39.1416 0.23625 39.614 0.708658C40.0864 1.18107 40.3226 1.75131 40.3226 2.4194Z" fill="rgb(247,147,30)" fill-rule="nonzero" />
		<g id="Сочетание 2">
			<path id="Форма 20" d="M27.4194 7.2581L15.3226 7.2581C14.7849 7.2581 14.5161 6.98928 14.5161 6.45165C14.5161 5.91402 14.7849 5.6452 15.3226 5.6452L27.4194 5.6452C27.957 5.6452 28.2258 5.91402 28.2258 6.45165C28.2258 6.98928 27.957 7.2581 27.4194 7.2581ZM27.4194 10.4839L15.3226 10.4839C14.7849 10.4839 14.5161 10.2151 14.5161 9.67745C14.5161 9.13982 14.7849 8.871 15.3226 8.871L27.4194 8.871C27.957 8.871 28.2258 9.13982 28.2258 9.67745C28.2258 10.2151 27.957 10.4839 27.4194 10.4839ZM27.4194 13.7097L15.3226 13.7097C14.7849 13.7097 14.5161 13.4409 14.5161 12.9033C14.5161 12.3656 14.7849 12.0968 15.3226 12.0968L27.4194 12.0968C27.957 12.0968 28.2258 12.3656 28.2258 12.9033C28.2258 13.4409 27.957 13.7097 27.4194 13.7097ZM1.56451 4.21214C1.2957 4.21214 1.16129 4.34654 1.16129 4.61536C1.16129 4.88418 1.2957 5.01859 1.56451 5.01859C1.83333 5.01859 1.96774 4.88418 1.96774 4.61536C1.96774 4.34654 1.83333 4.21214 1.56451 4.21214ZM1.56451 12.2984C1.2957 12.2984 1.16129 12.4328 1.16129 12.7016C1.16129 12.9705 1.2957 13.1049 1.56451 13.1049C1.83333 13.1049 1.96774 12.9705 1.96774 12.7016C1.96774 12.4328 1.83333 12.2984 1.56451 12.2984ZM1.525 20.3452C1.25618 20.3452 1.12177 20.4796 1.12177 20.7484C1.12177 21.0172 1.25618 21.1516 1.525 21.1516C1.79382 21.1516 1.92822 21.0172 1.92822 20.7484C1.92822 20.4796 1.79382 20.3452 1.525 20.3452ZM1.56451 28.392C1.2957 28.392 1.16129 28.5264 1.16129 28.7952C1.16129 29.064 1.2957 29.1984 1.56451 29.1984C1.83333 29.1984 1.96774 29.064 1.96774 28.7952C1.96774 28.5264 1.83333 28.392 1.56451 28.392ZM1.525 36.5186C1.25618 36.5186 1.12177 36.653 1.12177 36.9218C1.12177 37.1906 1.25618 37.325 1.525 37.325C1.79382 37.325 1.92822 37.1906 1.92822 36.9218C1.92822 36.653 1.79382 36.5186 1.525 36.5186ZM1.525 44.5258C1.25618 44.5258 1.12177 44.6602 1.12177 44.929C1.12177 45.1979 1.25618 45.3323 1.525 45.3323C1.79382 45.3323 1.92822 45.1979 1.92822 44.929C1.92822 44.6602 1.79382 44.5258 1.525 44.5258Z" fill="rgb(128,128,128)" fill-rule="nonzero" />
		</g>
	</g>
</svg>
