<svg viewBox="0 0 50 50" xmlns="http://www.w3.org/2000/svg" xmlns:xlink="http://www.w3.org/1999/xlink" width="50.000004" height="50.000000" fill="none" customFrame="#000000">
	<g id="draft">
		<path id="Форма 1" d="M42.6496 1.28215L3.31494 1.28215L3.31494 50L46.1913 50L46.1913 11.7701L42.6496 1.28215Z" fill="rgb(249,243,241)" fill-rule="evenodd" />
		<path id="Форма 2" d="M42.2997 15.7874L42.2997 50L46.1913 50L46.1913 9.71687L42.2997 15.7874Z" fill="rgb(221,218,236)" fill-rule="evenodd" />
		<path id="Форма 3" d="M40.6412 4.24671L21.8031 33.6418L24.7531 37.4639L29.0032 38.5926L46.1913 11.7701L47.8413 9.19742L45.6964 5.58463L40.6412 4.24671Z" fill="rgb(254,193,101)" fill-rule="evenodd" />
		<path id="Форма 4" d="M29.0032 38.5926L21.8031 33.6419C21.6296 33.9101 21.6153 34.0899 21.5784 34.4022L21.2428 37.1693L23.1914 39.4414L26.0817 40.4993L28.4144 39.1025C28.676 38.9462 28.8297 38.8637 29.0032 38.5926L29.0032 38.5926Z" fill="rgb(255,229,193)" fill-rule="evenodd" />
		<path id="Форма 5" d="M26.0816 40.4992L21.2427 37.1692L21.0321 38.8873L20.5033 43.2643C20.4728 43.5168 20.7344 43.6966 20.9471 43.5692L24.6336 41.3627L26.0816 40.4992Z" fill="rgb(55,94,125)" fill-rule="evenodd" />
		<path id="Форма 6" d="M40.6412 4.24671L46.1913 8.06293L47.8413 9.19752L48.6663 7.90684L49.2835 6.94613C50.5978 4.89514 50.0516 2.10437 48.0716 0.742977C46.3449 -0.444626 44.0748 -0.167654 42.6495 1.28225C42.437 1.4997 42.2483 1.73743 42.0834 1.99542L41.4661 2.95613L40.6412 4.24671Z" fill="rgb(235,84,104)" fill-rule="evenodd" />
		<path id="Форма 7" d="M44.0264 10.279L26.8355 37.1044L27.2217 38.5926L29.0032 38.5926L46.1913 11.7701L47.8413 9.19742L46.1913 8.06292L45.6736 7.70634L45.1131 8.57863L44.0264 10.279Z" fill="rgb(253,180,65)" fill-rule="evenodd" />
		<path id="Форма 8" d="M45.6736 7.70634L46.1914 8.06293L47.8414 9.19752L48.6664 7.90684L49.2836 6.94613C50.5979 4.89514 50.0517 2.10437 48.0717 0.742978C47.7026 0.487049 47.3043 0.296499 46.8769 0.171329C48.0262 1.65067 48.1798 3.79595 47.1159 5.45799L46.5014 6.41869L46.1914 6.89899L45.6736 7.70634Z" fill="rgb(229,56,79)" fill-rule="evenodd" />
		<path id="Форма 9" d="M26.2467 37.6113L23.4332 39.296L26.0817 40.4992L28.4144 39.1024C28.6761 38.9462 28.8298 38.8636 29.0033 38.5925L26.8356 37.1044C26.662 37.3726 26.5112 37.4551 26.2467 37.6113L26.2467 37.6113Z" fill="rgb(254,209,163)" fill-rule="evenodd" />
		<path id="Форма 10" d="M22.466 39.8745L20.7932 40.8735L20.5037 43.264C20.4731 43.5166 20.7347 43.6964 20.9474 43.569L24.6337 41.3627L26.0816 40.4993L23.9139 39.0082L22.466 39.8745Z" fill="rgb(43,77,102)" fill-rule="evenodd" />
		<path id="Форма 11" d="M4.88525 22.5771L0.743261 22.5771C0.644698 22.5771 0.549887 22.5575 0.458827 22.5185C0.367767 22.4794 0.28739 22.4238 0.217696 22.3516C0.148002 22.2794 0.0942956 22.1961 0.0565774 22.1018C0.0188591 22.0075 0 21.9093 0 21.8072C0 21.7051 0.0188591 21.6068 0.0565774 21.5125C0.0942956 21.4182 0.148002 21.3349 0.217696 21.2627C0.28739 21.1905 0.367767 21.1349 0.458827 21.0958C0.549887 21.0568 0.644698 21.0372 0.743261 21.0372L4.88525 21.0372C4.98382 21.0372 5.07863 21.0568 5.1697 21.0958C5.26076 21.1349 5.34115 21.1905 5.41084 21.2627C5.48054 21.3349 5.53425 21.4182 5.57196 21.5125C5.60967 21.6068 5.62852 21.7051 5.62851 21.8072C5.62852 21.9093 5.60967 22.0075 5.57196 22.1018C5.53425 22.1961 5.48054 22.2794 5.41084 22.3516C5.34115 22.4238 5.26076 22.4794 5.1697 22.5185C5.07863 22.5576 4.98382 22.5771 4.88525 22.5771L4.88525 22.5771ZM4.88525 30.189L0.743261 30.189C0.645436 30.1878 0.551495 30.1674 0.461438 30.1278C0.371381 30.0882 0.291965 30.0324 0.223188 29.9603C0.154411 29.8883 0.101434 29.8053 0.0642571 29.7116C0.0270798 29.6179 0.00849111 29.5203 0.00849111 29.419C0.00849111 29.3177 0.0270798 29.2201 0.0642571 29.1264C0.101434 29.0326 0.154411 28.9497 0.223188 28.8777C0.291965 28.8056 0.371381 28.7498 0.461438 28.7102C0.551495 28.6706 0.645436 28.6502 0.743261 28.649L4.88525 28.649C5.2958 28.649 5.62851 28.9938 5.62851 29.4191C5.62851 29.8443 5.2958 30.189 4.88525 30.189ZM4.88525 37.8007L0.743261 37.8007C0.645425 37.7995 0.551471 37.7791 0.4614 37.7396C0.371328 37.7 0.291898 37.6441 0.223108 37.5721C0.154318 37.5 0.10133 37.4171 0.0641453 37.3233C0.0269601 37.2296 0.00836758 37.132 0.00836758 37.0307C0.00836761 36.9293 0.0269602 36.8318 0.0641453 36.738C0.101331 36.6443 0.154318 36.5614 0.223108 36.4893C0.291898 36.4172 0.371329 36.3614 0.4614 36.3218C0.551471 36.2822 0.645425 36.2619 0.743261 36.2607L4.88525 36.2607C5.2958 36.2607 5.62851 36.6055 5.62851 37.0307C5.62851 37.456 5.2958 37.8007 4.88525 37.8007ZM4.88525 7.35653L0.743261 7.35653C0.645431 7.35537 0.551483 7.335 0.461419 7.29541C0.371355 7.25582 0.291931 7.19999 0.223148 7.12792C0.154365 7.05585 0.101383 6.97294 0.0642013 6.8792C0.0270201 6.78545 0.00842953 6.68791 0.00842953 6.58656C0.00842953 6.48522 0.0270201 6.38767 0.0642014 6.29393C0.101383 6.20019 0.154365 6.11728 0.223148 6.04521C0.291931 5.97314 0.371355 5.91731 0.461419 5.87772C0.551483 5.83813 0.645431 5.81776 0.743261 5.81659L4.88525 5.81659C4.98308 5.81776 5.07703 5.83813 5.16709 5.87772C5.25716 5.91731 5.33658 5.97314 5.40536 6.04521C5.47415 6.11728 5.52713 6.20019 5.56431 6.29393C5.60149 6.38767 5.62008 6.48522 5.62008 6.58656C5.62008 6.68791 5.60149 6.78545 5.56431 6.8792C5.52713 6.97294 5.47415 7.05585 5.40536 7.12792C5.33658 7.19999 5.25716 7.25582 5.16709 7.29541C5.07703 7.335 4.98308 7.35537 4.88525 7.35653ZM4.88525 14.9683L0.743261 14.9683C0.332715 14.9683 0 14.6236 0 14.1983C0 13.773 0.332812 13.4284 0.743261 13.4284L4.88525 13.4284C4.98382 13.4284 5.07863 13.4479 5.1697 13.487C5.26076 13.526 5.34115 13.5817 5.41084 13.6539C5.48054 13.7261 5.53425 13.8093 5.57196 13.9037C5.60967 13.998 5.62852 14.0962 5.62851 14.1983C5.62854 14.3004 5.6097 14.3986 5.57199 14.493C5.53428 14.5873 5.48058 14.6706 5.41088 14.7428C5.34118 14.815 5.26079 14.8707 5.16972 14.9097C5.07865 14.9488 4.98382 14.9683 4.88525 14.9683L4.88525 14.9683ZM4.88525 45.4095L0.743261 45.4095C0.332715 45.4095 0 45.0648 0 44.6395C0 44.2142 0.332812 43.8696 0.743261 43.8696L4.88525 43.8696C4.98307 43.8708 5.07702 43.8911 5.16707 43.9307C5.25713 43.9703 5.33655 44.0261 5.40532 44.0982C5.4741 44.1703 5.52708 44.2532 5.56425 44.3469C5.60143 44.4407 5.62002 44.5382 5.62002 44.6395C5.62002 44.7409 5.60143 44.8384 5.56425 44.9322C5.52708 45.0259 5.4741 45.1088 5.40532 45.1809C5.33655 45.2529 5.25713 45.3088 5.16707 45.3484C5.07702 45.388 4.98307 45.4083 4.88525 45.4095ZM15.2424 43.842C15.111 43.8419 14.9883 43.8081 14.8743 43.7404C12.9499 42.6017 11.5728 40.4534 11.1909 37.9939C10.7718 35.2948 11.589 32.5294 13.4331 30.4069C15.3113 28.2458 15.2036 25.5995 15.0789 22.5353C15.0473 21.7574 15.0145 20.953 15.0145 20.1334C15.0145 16.9004 16.4768 13.9213 19.0266 11.9603C21.6162 9.96865 24.8819 9.38355 27.9864 10.3553C28.0797 10.3857 28.1639 10.4334 28.239 10.4983C28.3142 10.5632 28.3746 10.6404 28.4203 10.73C28.466 10.8196 28.4935 10.9148 28.5029 11.0157C28.5123 11.1166 28.5029 11.2155 28.4746 11.3125C28.4463 11.4095 28.4012 11.4973 28.3395 11.5758C28.2777 11.6544 28.2039 11.7179 28.1179 11.7663C28.032 11.8147 27.9404 11.8443 27.8431 11.8552C27.7459 11.8662 27.6503 11.8575 27.5563 11.8294C24.9068 11.0002 22.1209 11.4984 19.9128 13.1966C17.7446 14.8642 16.5011 17.3926 16.5011 20.1333C16.5011 20.9205 16.5332 21.7084 16.5641 22.4705C16.6968 25.7301 16.8221 28.8089 14.5379 31.4371C12.9735 33.2377 12.306 35.4795 12.6585 37.7493C12.9697 39.7535 14.0737 41.4933 15.6115 42.4033C15.6971 42.4539 15.7701 42.5196 15.8305 42.6003C15.8908 42.681 15.934 42.7707 15.9599 42.8692C15.9859 42.9677 15.9926 43.0676 15.9802 43.1689C15.9678 43.2702 15.9371 43.3652 15.8882 43.4538C15.8221 43.574 15.7313 43.6687 15.6158 43.7381C15.5003 43.8075 15.3759 43.8421 15.2424 43.842Z" fill="rgb(55,94,125)" fill-rule="nonzero" />
	</g>
</svg>
