<svg width="50" height="50" viewBox="0 0 50 50" fill="none" xmlns="http://www.w3.org/2000/svg">
<g clip-path="url(#clip0_80_13)">
<path d="M44.2758 2.00195L49.9744 39.2723C50.1587 40.4777 49.33 41.6057 48.1245 41.79L10.8542 47.4887C9.64873 47.6729 8.5208 46.8442 8.33643 45.6388L2.63779 8.36846C2.45352 7.16299 3.28223 6.03506 4.4877 5.85068L41.758 0.152051C42.9635 -0.0322266 44.0914 0.796484 44.2758 2.00195Z" fill="url(#paint0_linear_80_13)"/>
<path d="M44.6733 4.97617L47.5309 42.5712C47.6233 43.7872 46.7114 44.849 45.4955 44.9415L7.90049 47.799C6.68447 47.8915 5.62266 46.9796 5.53018 45.7637L2.67266 8.16865C2.58018 6.95264 3.49209 5.89082 4.70801 5.79834L42.303 2.94082C43.519 2.84834 44.581 3.76016 44.6733 4.97617Z" fill="url(#paint1_linear_80_13)"/>
<path d="M44.8444 7.97197V45.6754C44.8444 46.8949 43.8547 47.8846 42.6353 47.8846H4.93184C3.7123 47.8846 2.72266 46.8948 2.72266 45.6754V7.97197C2.72266 6.75244 3.7124 5.76279 4.93184 5.76279H42.6353C43.8548 5.7627 44.8444 6.75254 44.8444 7.97197Z" fill="url(#paint2_linear_80_13)"/>
<path d="M30.7543 49.8652L2.04376 47.7052C0.827059 47.6136 -0.0849522 46.5531 0.00655166 45.3364L2.83507 7.73926C2.92667 6.52256 3.98712 5.61055 5.20382 5.70205L42.8011 8.53057C44.0178 8.62217 44.9298 9.68262 44.8384 10.8993L42.635 40.1865C42.6096 40.5236 42.4527 40.8372 42.1981 41.0596L32.9484 49.1349C32.6494 49.3959 32.3014 49.5949 31.9247 49.7203C31.548 49.8457 31.1502 49.895 30.7543 49.8652Z" fill="url(#paint3_linear_80_13)"/>
<path d="M39.8469 23.3834L7.26814 20.9132L7.45344 18.4694L40.0322 20.9396L39.8469 23.3834Z" fill="#FFF2EB"/>
<path d="M39.3753 29.6048L6.79653 27.1346L6.98182 24.6908L39.5606 27.161L39.3753 29.6048Z" fill="#FFF2EB"/>
<path d="M30.4368 35.1833L6.32355 33.355L6.50884 30.9112L30.622 32.7396L30.4368 35.1833Z" fill="#FFF2EB"/>
<path d="M32.9479 49.1349L36.2091 46.2877L0.138965 43.5741L0.00644531 45.3365C-0.0822266 46.5145 0.771582 47.5473 1.93057 47.6937C1.96787 47.6984 2.00566 47.7022 2.04375 47.7051L30.7542 49.865C31.15 49.8948 31.5478 49.8456 31.9244 49.7203C32.301 49.5949 32.649 49.3959 32.9479 49.1349Z" fill="url(#paint4_linear_80_13)"/>
<path d="M42.4823 40.7042C42.4823 40.7042 42.4034 40.8837 42.1278 41.1207C42.0255 41.2088 33.0024 49.0875 33.0024 49.0875C32.6862 49.3636 32.3182 49.574 31.9198 49.7066C31.5215 49.8392 31.1008 49.8913 30.6821 49.8598C31.4121 49.9146 32.0484 49.3674 32.1033 48.6374L32.5895 42.1754C32.6811 40.9587 33.7415 40.0467 34.9582 40.1382L42.4823 40.7042Z" fill="url(#paint5_linear_80_13)"/>
</g>
<defs>
<linearGradient id="paint0_linear_80_13" x1="33.2274" y1="28.9073" x2="64.9826" y2="52.2421" gradientUnits="userSpaceOnUse">
<stop stop-color="#B8DE6F"/>
<stop offset="1" stop-color="#8AA753"/>
</linearGradient>
<linearGradient id="paint1_linear_80_13" x1="31.6185" y1="30.9666" x2="61.5149" y2="56.6386" gradientUnits="userSpaceOnUse">
<stop stop-color="#FE7695"/>
<stop offset="1" stop-color="#FE547B"/>
</linearGradient>
<linearGradient id="paint2_linear_80_13" x1="29.8582" y1="32.8993" x2="57.7233" y2="60.7644" gradientUnits="userSpaceOnUse">
<stop stop-color="#67DCDC"/>
<stop offset="1" stop-color="#019394"/>
</linearGradient>
<linearGradient id="paint3_linear_80_13" x1="22.4219" y1="22.5495" x2="22.4219" y2="70.3916" gradientUnits="userSpaceOnUse">
<stop stop-color="#FCC344"/>
<stop offset="1" stop-color="#F7AE3D"/>
</linearGradient>
<linearGradient id="paint4_linear_80_13" x1="18.1042" y1="45.1079" x2="18.1042" y2="49.7205" gradientUnits="userSpaceOnUse">
<stop stop-opacity="0"/>
<stop offset="1" stop-color="#D48000"/>
</linearGradient>
<linearGradient id="paint5_linear_80_13" x1="35.0023" y1="43.4459" x2="41.613" y2="51.1321" gradientUnits="userSpaceOnUse">
<stop stop-color="#FCC344"/>
<stop offset="1" stop-color="#D48000"/>
</linearGradient>
<clipPath id="clip0_80_13">
<rect width="50" height="50" fill="white"/>
</clipPath>
</defs>
</svg>
