<svg width="50" height="50" viewBox="0 0 50 50" fill="none" xmlns="http://www.w3.org/2000/svg">
<path d="M25 33.5725H33.1166C34.5782 33.5725 35.9917 34.0857 37.1018 35.0185L44.9452 41.615C45.4702 42.0565 46.2384 42.1324 46.8218 41.7692C54.9813 36.7047 45.0844 16.7182 43.1227 13.0896C42.9147 12.7045 42.5719 10.6155 42.1551 10.4664L35.5595 8.11447C35.2745 8.01267 34.9692 7.97807 34.6681 8.01347C34.367 8.04887 34.0786 8.15337 33.8263 8.31837C33.8263 8.31837 31.9669 9.48377 31.5501 9.48377H18.6836C18.2668 9.48377 16.1737 8.31837 16.1737 8.31837C15.9213 8.15347 15.633 8.04907 15.3319 8.01367C15.0308 7.97827 14.7255 8.01277 14.4405 8.11447L7.84485 10.4664C7.42725 10.6155 7.08527 12.7045 6.87733 13.0896C4.91563 16.7182 -4.98133 36.7047 3.17821 41.7692C3.76251 42.1315 4.53069 42.0557 5.05483 41.615L12.8982 35.0185C14.0081 34.0856 15.4216 33.5727 16.8834 33.5725H25Z" fill="#38454F"/>
<path d="M31.6086 29.3591C33.5068 29.3591 35.0456 27.85 35.0456 25.9884C35.0456 24.1268 33.5068 22.6177 31.6086 22.6177C29.7103 22.6177 28.1715 24.1268 28.1715 25.9884C28.1715 27.85 29.7103 29.3591 31.6086 29.3591Z" fill="#546A79"/>
<path d="M11.8456 20.9324C13.7438 20.9324 15.2827 19.4233 15.2827 17.5617C15.2827 15.7001 13.7438 14.191 11.8456 14.191C9.94739 14.191 8.40857 15.7001 8.40857 17.5617C8.40857 19.4233 9.94739 20.9324 11.8456 20.9324Z" fill="#546A79"/>
<path d="M37.6234 15.8763C38.5725 15.8763 39.342 15.1218 39.342 14.191C39.342 13.2602 38.5725 12.5056 37.6234 12.5056C36.6743 12.5056 35.9049 13.2602 35.9049 14.191C35.9049 15.1218 36.6743 15.8763 37.6234 15.8763Z" fill="#EBBA16"/>
<path d="M34.1863 19.247C35.1354 19.247 35.9048 18.4925 35.9048 17.5617C35.9048 16.6309 35.1354 15.8763 34.1863 15.8763C33.2372 15.8763 32.4678 16.6309 32.4678 17.5617C32.4678 18.4925 33.2372 19.247 34.1863 19.247Z" fill="#7383BF"/>
<path d="M41.0604 19.247C42.0096 19.247 42.779 18.4925 42.779 17.5617C42.779 16.6309 42.0096 15.8763 41.0604 15.8763C40.1113 15.8763 39.3419 16.6309 39.3419 17.5617C39.3419 18.4925 40.1113 19.247 41.0604 19.247Z" fill="#D75A4A"/>
<path d="M37.6234 22.6177C38.5725 22.6177 39.342 21.8632 39.342 20.9324C39.342 20.0016 38.5725 19.247 37.6234 19.247C36.6743 19.247 35.9049 20.0016 35.9049 20.9324C35.9049 21.8632 36.6743 22.6177 37.6234 22.6177Z" fill="#61B872"/>
<path d="M27.3122 10.3518C27.3122 10.19 27.2959 10.0316 27.2658 9.87897C27.2378 9.73457 27.1744 9.59887 27.0811 9.48377H24.951C24.8779 9.48967 24.8092 9.50907 24.7353 9.50907C24.6606 9.50907 24.5918 9.49057 24.5196 9.48377H22.3809C22.3009 9.58257 22.2445 9.69777 22.216 9.82087C22.1381 10.1738 22.1381 10.539 22.216 10.8919C22.3262 11.3803 22.5811 11.8259 22.9485 12.1728C23.316 12.5197 23.7798 12.7525 24.2816 12.8419C24.6527 12.9065 25.0337 12.8906 25.3979 12.7953C25.762 12.7 26.1004 12.5276 26.3893 12.2902C26.6782 12.0529 26.9106 11.7563 27.07 11.4214C27.2295 11.0865 27.3121 10.7214 27.3122 10.3518Z" fill="#AFB6BB"/>
<path d="M23.4455 24.0106H20.622V21.2416C20.622 21.0821 20.5574 20.929 20.4423 20.8162C20.3273 20.7033 20.1712 20.64 20.0085 20.64H17.7993C17.6366 20.64 17.4806 20.7033 17.3655 20.8162C17.2505 20.929 17.1858 21.0821 17.1858 21.2416V24.0106H14.3623C14.1996 24.0106 14.0435 24.074 13.9285 24.1869C13.8134 24.2997 13.7488 24.4527 13.7488 24.6123V26.7788C13.7488 27.1117 14.0237 27.3805 14.3623 27.3805H17.185V30.1495C17.185 30.4824 17.4599 30.7512 17.7985 30.7512H20.0076C20.347 30.7512 20.6211 30.4815 20.6211 30.1495V27.3805H23.4447C23.7841 27.3805 24.0582 27.1108 24.0582 26.7788V24.6123C24.0583 24.5333 24.0425 24.4551 24.0118 24.3821C23.9811 24.3091 23.936 24.2428 23.8791 24.1869C23.8222 24.131 23.7546 24.0867 23.6802 24.0565C23.6058 24.0262 23.5261 24.0106 23.4455 24.0106Z" fill="#546A79"/>
</svg>
