<svg width="50" height="51" viewBox="0 0 50 51" fill="none" xmlns="http://www.w3.org/2000/svg">
<path d="M35.998 12.731H19.8945L22.0215 3.60358C22.3428 2.22367 21.5869 0.817967 20.333 0.464392C19.0791 0.110816 17.8018 0.942632 17.4805 2.32254L15.0547 12.7321H6.89551C5.60156 12.7321 4.55176 13.8874 4.55176 15.3113C4.55176 16.7353 5.60156 17.8906 6.89551 17.8906H13.8525L10.3896 32.7505H2.34375C1.0498 32.7505 0 33.9058 0 35.3297C0 36.7537 1.0498 37.909 2.34375 37.909H9.1875L7.03125 47.1611C6.70996 48.541 7.46582 49.9467 8.71973 50.3003C8.91504 50.3551 9.11035 50.382 9.30371 50.382C10.3486 50.382 11.3008 49.6071 11.5723 48.4432L14.0273 37.9101H30.1309L27.9746 47.1622C27.6533 48.5421 28.4092 49.9478 29.6631 50.3014C29.8584 50.3562 30.0537 50.383 30.2471 50.383C31.292 50.383 32.2441 49.6082 32.5156 48.4443L34.9707 37.9112H43.1045C44.3984 37.9112 45.4482 36.7559 45.4482 35.3319C45.4482 33.9079 44.3984 32.7526 43.1045 32.7526H36.1729L39.6357 17.8928H47.6562C48.9502 17.8928 50 16.7375 50 15.3135C50 13.8895 48.9502 12.7342 47.6562 12.7342H40.8379L42.9648 3.60681C43.2861 2.2269 42.5303 0.821191 41.2764 0.467616C40.0225 0.11404 38.7451 0.945856 38.4238 2.32577L35.998 12.7353V12.731ZM31.333 32.7505H15.2295L18.6924 17.8906H34.7959L31.333 32.7505Z" fill="url(#paint0_linear_80_29)"/>
<defs>
<linearGradient id="paint0_linear_80_29" x1="0" y1="25.3823" x2="50" y2="25.3823" gradientUnits="userSpaceOnUse">
<stop stop-color="#0080DE"/>
<stop offset="0.6" stop-color="#49BCFF"/>
<stop offset="1" stop-color="#61CAFF"/>
</linearGradient>
</defs>
</svg>
