<svg width="50" height="50" viewBox="0 0 50 50" fill="none" xmlns="http://www.w3.org/2000/svg">
<path d="M42.1126 40.094H6.77138L3.7912 4.83656L0.866531 7.42655V45.1497H39.306L42.106 42.5794L42.1126 40.094Z" fill="#FFABBF"/>
<path d="M49.1334 36.4191L42.3422 4.85022H3.7912L6.75146 40.1153H46.5528L46.0873 36.4189H49.1334V36.4191Z" fill="#FFD4E0"/>
<path d="M49.9642 36.1651L43.1916 4.68307C43.15 4.48989 43.0421 4.31659 42.8858 4.19223C42.7296 4.06787 42.5345 4 42.3333 4H3.67704C3.66827 4 3.65975 4.00111 3.6511 4.00135C3.63321 4.00171 3.61532 4.00257 3.59747 4.00394C3.59359 4.0043 3.58958 4.0043 3.58569 4.00467C3.58406 4.0048 3.58268 4.00517 3.58105 4.00541C3.57416 4.00615 3.56752 4.00763 3.56063 4.00836C3.54484 4.01045 3.52893 4.01254 3.51326 4.0155C3.50762 4.0166 3.50173 4.01746 3.49609 4.01845L3.49108 4.0198C3.48557 4.02091 3.48018 4.02251 3.47466 4.02386C3.45995 4.02719 3.44533 4.03088 3.4308 4.03493C3.42366 4.03702 3.41652 4.03874 3.4095 4.04108C3.40587 4.04218 3.40211 4.04378 3.39847 4.04501L3.39283 4.04698C3.37855 4.05178 3.36426 4.05682 3.35035 4.06223L3.32705 4.07158C3.32203 4.07367 3.31727 4.07613 3.31238 4.07847L3.30787 4.08068C3.29609 4.08609 3.28444 4.09138 3.27316 4.09716C3.26514 4.10134 3.257 4.1054 3.2491 4.10983C3.24384 4.11266 3.2387 4.11585 3.23356 4.11881C3.21381 4.13019 3.1945 4.14229 3.17567 4.15509C3.16978 4.15915 3.16389 4.1632 3.158 4.16751C3.14054 4.1803 3.12349 4.19364 3.10687 4.20748C3.10048 4.21289 3.09396 4.2183 3.08782 4.22396C3.08457 4.22679 3.08081 4.22937 3.07767 4.23232L0.277943 6.80263C0.190229 6.88317 0.1203 6.98053 0.0724903 7.08868C0.0246802 7.19682 7.32991e-06 7.31346 0 7.43134V45.1391C0 45.3674 0.0924175 45.5864 0.256922 45.7478C0.421427 45.9093 0.644543 46 0.877187 46H39.3019C39.5244 46 39.7385 45.917 39.901 45.7678L42.701 43.1975C42.7044 43.1944 42.7074 43.1909 42.7106 43.1877C42.7222 43.1767 42.7331 43.1653 42.744 43.154C42.7526 43.1447 42.7616 43.1356 42.7699 43.1259C42.7804 43.1135 42.7906 43.1009 42.8004 43.0879C42.8077 43.0784 42.8151 43.0692 42.822 43.0595C42.8322 43.0452 42.8413 43.0304 42.8506 43.0156C42.8562 43.0066 42.8621 42.9978 42.8674 42.9885C42.8768 42.9717 42.8855 42.9546 42.8937 42.9372C42.8976 42.9294 42.9017 42.9215 42.9055 42.9135C42.9136 42.8947 42.9211 42.8757 42.9279 42.8564C42.9306 42.8489 42.9337 42.8417 42.9362 42.8341C42.9425 42.8152 42.9473 42.7958 42.9522 42.7765C42.9545 42.7679 42.9571 42.7594 42.9591 42.7508C42.9628 42.7335 42.9655 42.7159 42.9681 42.6982C42.9699 42.6869 42.972 42.6757 42.9734 42.6642C42.9752 42.6493 42.9757 42.634 42.9764 42.6187C42.9772 42.6068 42.9788 42.5951 42.9789 42.583C42.979 42.5806 42.9787 42.5784 42.9787 42.5759C42.9787 42.5735 42.9792 42.5711 42.9792 42.5687V40.9656H46.5433C46.6734 40.9657 46.8018 40.9373 46.9193 40.8826C47.0368 40.8279 47.1404 40.7483 47.2227 40.6494C47.305 40.5506 47.3639 40.435 47.395 40.3111C47.4262 40.1872 47.4289 40.058 47.403 39.9329L47.0675 37.2694H49.1227C49.2591 37.2694 49.3937 37.2382 49.5156 37.1782C49.6376 37.1183 49.7436 37.0313 49.8253 36.9241C49.907 36.8169 49.9621 36.6925 49.9862 36.5607C50.0103 36.4289 50.0028 36.2935 49.9642 36.1651ZM38.9555 44.2781H1.75463V7.80486L2.79998 6.84519V42.5687C2.79998 42.797 2.8924 43.016 3.0569 43.1774C3.22141 43.3389 3.44453 43.4296 3.67717 43.4296H39.8798L38.9555 44.2781ZM41.2247 41.7077H4.55436V24.9441L5.88756 40.1783C5.90635 40.3931 6.00658 40.5931 6.16842 40.7389C6.33027 40.8847 6.54195 40.9655 6.76161 40.9655H41.2248V41.7077H41.2247ZM45.5483 39.2437H7.56649L5.21337 12.354L9.8532 28.0302C9.86009 28.0532 9.86773 28.0757 9.8765 28.0981C11.1886 31.4585 17.1248 36.0874 20.1576 37.2136C20.2569 37.2504 20.362 37.2693 20.4682 37.2693H45.2997L45.5483 39.2437ZM19.03 34.7394C16.9931 33.5397 14.5741 31.5586 12.9997 29.7304C15.019 30.1826 17.255 30.1647 18.5188 30.1019C18.5026 31.198 18.5648 33.0249 19.03 34.7394ZM21.1778 35.5474C20.0068 33.1057 20.3066 29.2837 20.3098 29.2447C20.3204 29.1185 20.3025 28.9915 20.2573 28.8728C20.2121 28.7541 20.1408 28.6467 20.0485 28.5581C19.9561 28.4696 19.845 28.4022 19.7231 28.3606C19.6011 28.3191 19.4713 28.3045 19.343 28.3179C17.8276 28.4756 13.5652 28.5951 11.4814 27.3585L5.07716 5.72182H41.622L48.0383 35.5474H21.1778Z" fill="#5A5954"/>
</svg>
