<svg width="50" height="50" viewBox="0 0 50 50" fill="none" xmlns="http://www.w3.org/2000/svg">
<g clip-path="url(#clip0_177_9)">
<path d="M0.658203 5.9209H44.0793V49.3419H0.658203V5.9209Z" fill="#C2E8FF"/>
<path d="M43.4211 6.57849V48.6837H1.31579V6.57849H43.4211ZM44.7368 5.2627H0V49.9995H44.7368V5.2627Z" fill="#7496C4"/>
<path d="M44.7367 13.8896V22.3685H41.667V13.8896H44.7367Z" fill="#C2E8FF"/>
<path d="M27.6318 5.2627H36.1107V8.33242H27.6318V5.2627Z" fill="#C2E8FF"/>
<path d="M23.2988 19.7371L36.4567 6.57926L30.5356 0.658203H49.3422V19.4648L43.4211 13.5437L30.2632 26.7016L23.2988 19.7371Z" fill="#8BB7F0"/>
<path d="M48.684 1.31579V17.8763L44.3511 13.5434L43.4208 12.6132L42.4906 13.5434L30.2629 25.7711L24.2287 19.7368L36.4564 7.50921L37.3866 6.57895L36.4564 5.64868L32.1235 1.31579H48.684ZM49.9998 0H28.9472L35.5261 6.57895L22.3682 19.7368L30.2629 27.6316L43.4208 14.4737L49.9998 21.0526V0Z" fill="#4E7AB5"/>
<g clip-path="url(#clip1_177_9)">
<path d="M21.8244 40.2578C19.4103 45.3203 15.6955 46.4141 13.0002 46.4141C9.96497 46.4141 7.1056 44.8984 5.34778 42.4258C3.57833 39.9297 3.15638 36.7656 4.17591 33.7421L4.36345 33.3555C5.7931 29.9453 9.26189 27.5859 13.0002 27.5859C16.0354 27.5859 18.8947 29.1016 20.6525 31.5742C22.422 34.0703 22.844 37.2344 21.8244 40.2578Z" fill="#65B1FC"/>
<path d="M21.8243 40.2578C19.4101 45.3203 15.6953 46.4141 13 46.4141V27.5859C16.0352 27.5859 18.8946 29.1016 20.6524 31.5742C22.4218 34.0703 22.8438 37.2344 21.8243 40.2578Z" fill="#1689FC"/>
<path d="M21.1326 31.2343C19.2577 28.6093 16.2225 27 12.9998 27C8.9803 27 5.30062 29.5234 3.7889 33.2382L3.58964 33.6484C2.51366 36.9248 2.93261 40.0282 4.86702 42.7656C6.74198 45.3906 9.77718 47 12.9998 47C16.9725 47 20.6053 44.5352 22.1639 40.9023L22.3396 40.5507C23.511 37.218 23.1007 34.0163 21.1326 31.2343ZM5.82796 42.0859C4.16394 39.7421 3.77718 36.7773 4.73812 33.9297L4.89046 33.6132C5.83968 31.3398 7.7264 29.5781 9.97636 28.7343C8.55843 30.5859 7.70292 34.1875 7.80843 35.3593C7.79671 35.3945 7.78495 35.4296 7.78495 35.4766C7.48027 39.4023 8.37089 43.1914 10.0467 45.3125C8.37093 44.7031 6.88269 43.5742 5.82796 42.0859ZM12.4139 45.7226C12.0038 45.582 11.5936 45.2734 11.2068 44.8632C9.56624 43.0938 8.6639 39.3555 8.95687 35.5703V35.4648C8.95687 35.4296 8.96859 35.3828 8.96859 35.3476C9.30839 31.7031 10.7381 28.8281 12.4139 28.2773V45.7226ZM13.5858 45.7109V28.2773C15.3904 28.875 16.9022 32.1953 17.0779 36.1562C17.242 39.8125 16.328 43.2461 14.7459 44.9102C14.3709 45.2968 13.9842 45.582 13.5858 45.7109ZM21.2616 40.0703C19.9491 42.8359 18.0975 44.539 15.953 45.3008C17.5233 43.3203 18.4139 39.7891 18.2498 36.1094C18.1092 32.9921 17.2303 30.3047 15.953 28.6875C17.6287 29.2968 19.117 30.4258 20.1717 31.914C21.8357 34.2578 22.2225 37.2227 21.2616 40.0703Z" fill="#96EBE6"/>
<path d="M21.1328 31.2343C19.2579 28.6093 16.2227 27 13 27V47C16.9727 47 20.6055 44.5352 22.1641 40.9023L22.3398 40.5507C23.5111 37.218 23.1008 34.0163 21.1328 31.2343ZM13.5859 45.7109V28.2773C15.3906 28.875 16.9024 32.1953 17.0781 36.1562C17.2421 39.8125 16.3281 43.2461 14.7461 44.9102C14.3711 45.2968 13.9844 45.582 13.5859 45.7109ZM21.2617 40.0703C19.9492 42.8359 18.0977 44.539 15.9532 45.3008C17.5234 43.3203 18.4141 39.7891 18.25 36.1094C18.1093 32.9921 17.2304 30.3047 15.9531 28.6875C17.6289 29.2968 19.1171 30.4258 20.1718 31.914C21.8359 34.2578 22.2227 37.2227 21.2617 40.0703Z" fill="#00C8C8"/>
<path d="M21.2031 32.8984H4.79688C3.82418 32.8984 3 33.6836 3 34.6562V39.3438C3 40.3164 3.82418 41.1016 4.79688 41.1016H21.2031C22.1758 41.1016 23 40.3164 23 39.3438V34.6562C23 33.6836 22.1758 32.8984 21.2031 32.8984Z" fill="#0053BF"/>
<path d="M23 34.6562V39.3438C23 40.3164 22.1758 41.1016 21.2031 41.1016H13V32.8984H21.2031C22.1758 32.8984 23 33.6836 23 34.6562Z" fill="#05377F"/>
<path d="M15.8709 36.0856L14.699 38.4294C14.5935 38.6287 14.3943 38.7576 14.1716 38.7576C13.949 38.7576 13.7498 38.6287 13.6443 38.4294L12.9998 37.1404L12.3552 38.4294C12.1561 38.8279 11.4997 38.8279 11.3005 38.4294L10.1286 36.0856C9.98801 35.8044 10.1052 35.4529 10.3982 35.3005C10.6795 35.1599 11.031 35.2771 11.1833 35.57L11.8279 36.8591L12.4724 35.57C12.5779 35.3708 12.7889 35.2653 12.9998 35.2653C13.2107 35.2653 13.4216 35.3708 13.5271 35.57L14.1716 36.8591L14.8162 35.57C14.9685 35.2771 15.3201 35.1599 15.6013 35.3005C15.8943 35.4529 16.0115 35.8044 15.8709 36.0856Z" fill="#E1F1FA"/>
<path d="M20.0316 38.7574C19.9227 38.7574 19.8161 38.7271 19.7235 38.6699C19.6309 38.6127 19.5561 38.5308 19.5074 38.4335L18.8597 37.138L18.212 38.4335C18.0128 38.8306 17.3628 38.8306 17.1637 38.4335L16.041 36.1876C15.9684 36.0984 15.9214 35.9879 15.9134 35.8666C15.8928 35.5439 16.12 35.2664 16.4427 35.2452C16.6876 35.2395 16.9348 35.3551 17.04 35.5656L17.6878 36.8611L18.3356 35.5656C18.5347 35.1685 19.1847 35.1685 19.3838 35.5656L20.0316 36.8611L20.6793 35.5656C20.8247 35.2755 21.1765 35.1605 21.4655 35.3036C21.755 35.4483 21.8723 35.8002 21.7276 36.0898L20.5557 38.4335C20.507 38.5308 20.4322 38.6127 20.3396 38.6699C20.247 38.7271 20.1404 38.7574 20.0316 38.7574Z" fill="#BFE1FF"/>
<path d="M9.52237 35.2429C9.29178 35.2406 9.06577 35.355 8.96045 35.5656L8.31272 36.8611L7.66499 35.5656C7.45393 35.145 6.82545 35.1481 6.6167 35.5656L5.96897 36.8611L5.32124 35.5656C5.17588 35.2755 4.82342 35.1605 4.53503 35.3036C4.24549 35.4483 4.12819 35.8002 4.27295 36.0898L5.44483 38.4335C5.5444 38.6321 5.74694 38.7574 5.96897 38.7574C6.191 38.7574 6.39354 38.6321 6.49311 38.4335L7.14085 37.138L7.78858 38.4335C7.88815 38.6321 8.09069 38.7574 8.31272 38.7574C8.53475 38.7574 8.73729 38.6321 8.83686 38.4335L9.94065 36.2259C10.0242 36.1309 10.078 36.0056 10.0871 35.8666C10.1077 35.5439 9.8451 35.2641 9.52237 35.2429Z" fill="#E1F1FA"/>
<path d="M15.8711 36.0856L14.6992 38.4294C14.5937 38.6287 14.3945 38.7576 14.1719 38.7576C13.9492 38.7576 13.75 38.6287 13.6445 38.4294L13 37.1404V35.2653C13.2109 35.2653 13.4219 35.3708 13.5273 35.57L14.1719 36.8591L14.8164 35.57C14.9688 35.2771 15.3203 35.1599 15.6015 35.3005C15.8945 35.4529 16.0117 35.8044 15.8711 36.0856Z" fill="#BFE1FF"/>
</g>
</g>
<defs>
<clipPath id="clip0_177_9">
<rect width="50" height="50" fill="white"/>
</clipPath>
<clipPath id="clip1_177_9">
<rect width="20" height="20" fill="white" transform="translate(3 27)"/>
</clipPath>
</defs>
</svg>
