<svg width="50" height="50" viewBox="0 0 50 50" fill="none" xmlns="http://www.w3.org/2000/svg">
<g clip-path="url(#clip0_177_26)">
<path d="M0.658203 5.9209H44.0793V49.3419H0.658203V5.9209Z" fill="#C2E8FF"/>
<path d="M43.4211 6.57849V48.6837H1.31579V6.57849H43.4211ZM44.7368 5.2627H0V49.9995H44.7368V5.2627Z" fill="#7496C4"/>
<path d="M44.7367 13.8896V22.3685H41.667V13.8896H44.7367Z" fill="#C2E8FF"/>
<path d="M27.6318 5.2627H36.1107V8.33242H27.6318V5.2627Z" fill="#C2E8FF"/>
<path d="M23.2988 19.7371L36.4567 6.57926L30.5356 0.658203H49.3422V19.4648L43.4211 13.5437L30.2632 26.7016L23.2988 19.7371Z" fill="#8BB7F0"/>
<path d="M48.684 1.31579V17.8763L44.3511 13.5434L43.4208 12.6132L42.4906 13.5434L30.2629 25.7711L24.2287 19.7368L36.4564 7.50921L37.3866 6.57895L36.4564 5.64868L32.1235 1.31579H48.684ZM49.9998 0H28.9472L35.5261 6.57895L22.3682 19.7368L30.2629 27.6316L43.4208 14.4737L49.9998 21.0526V0Z" fill="#4E7AB5"/>
<g clip-path="url(#clip1_177_26)">
<path d="M23 27H3V47H23V27Z" fill="url(#paint0_linear_177_26)"/>
<path d="M7.52004 36.8878C10.432 35.6238 12.372 34.7838 13.348 34.3758C16.12 33.2158 16.704 33.0158 17.076 33.0078C17.16 33.0078 17.344 33.0278 17.468 33.1278C17.568 33.2078 17.596 33.3158 17.612 33.3998C17.628 33.4838 17.644 33.6598 17.628 33.7918C17.476 35.3758 16.828 39.2118 16.496 40.9798C16.352 41.7278 16.08 41.9758 15.812 42.0038C15.228 42.0518 14.788 41.6198 14.232 41.2518C13.348 40.6798 12.856 40.3198 12 39.7558C11.008 39.1038 11.648 38.7478 12.216 38.1638C12.364 38.0118 14.92 35.6838 14.972 35.4758C14.98 35.4478 14.98 35.3478 14.92 35.2998C14.864 35.2478 14.78 35.2678 14.712 35.2838C14.62 35.2998 13.224 36.2318 10.5 38.0718C10.1 38.3478 9.74404 38.4798 9.41604 38.4718C9.06004 38.4638 8.37604 38.2718 7.86004 38.1038C7.23604 37.9038 6.73604 37.7958 6.78004 37.4478C6.80404 37.2638 7.05204 37.0798 7.52004 36.8878Z" fill="white"/>
</g>
</g>
<defs>
<linearGradient id="paint0_linear_177_26" x1="13" y1="27" x2="13" y2="47" gradientUnits="userSpaceOnUse">
<stop stop-color="#2AABEE"/>
<stop offset="1" stop-color="#229ED9"/>
</linearGradient>
<clipPath id="clip0_177_26">
<rect width="50" height="50" fill="white"/>
</clipPath>
<clipPath id="clip1_177_26">
<rect x="3" y="27" width="20" height="20" rx="10" fill="white"/>
</clipPath>
</defs>
</svg>
