<svg width="50" height="50" viewBox="0 0 50 50" fill="none" xmlns="http://www.w3.org/2000/svg">
<path d="M46.553 43.9999H13.4087C12.532 43.9999 11.8214 43.2846 11.8214 42.4024V10.2577C11.8213 7.90622 13.7153 6 16.0518 6H45.7695C48.106 6 50 7.90622 50 10.2577V40.5308C50 42.4469 48.457 43.9999 46.553 43.9999Z" fill="url(#paint0_linear_83_31)"/>
<path d="M13.4087 43.9999H46.553C48.4569 43.9999 50 42.4465 50 40.5308V13.0745L46.7037 9.75711C46.1654 9.15237 45.3838 8.77151 44.5137 8.77151H12.0869C11.9109 9.24696 11.8209 9.75029 11.8213 10.2577V42.4025C11.8213 43.2847 12.532 44 13.4087 44V43.9999Z" fill="url(#paint1_linear_83_31)"/>
<path d="M13.6128 9.10855C14.1964 10.9522 15.8981 12.2037 17.8208 12.2037H29.5418C29.3869 12.2037 29.2336 12.1949 29.0817 12.1787L24.3232 7.3928C23.5081 6.53203 22.3633 6.01338 21.1262 6.01338H16.1373C14.7888 6.01338 13.5818 6.62265 12.7721 7.5817C13.15 8.0296 13.4358 8.54859 13.6128 9.10855Z" fill="url(#paint2_linear_83_31)"/>
<path d="M44.5136 43.9999H5.88911C4.26558 43.9999 2.94946 42.6753 2.94946 41.0413V11.7297C2.94946 10.0957 4.26558 8.77112 5.88911 8.77112H44.5136C46.1372 8.77112 47.4533 10.0957 47.4533 11.7297V41.0412C47.4533 42.6752 46.1372 43.9998 44.5136 43.9998V43.9999Z" fill="url(#paint3_linear_83_31)"/>
<path d="M43.3624 13.5983C42.5575 12.7402 41.4172 12.2038 40.1519 12.2038H2.94946V41.0414C2.94946 42.6753 4.26558 43.9999 5.88911 43.9999H44.5136C46.1372 43.9999 47.4533 42.6753 47.4533 41.0414V17.7155L43.3624 13.5983Z" fill="url(#paint4_linear_83_31)"/>
<path d="M13.6127 9.10863C14.1963 10.9522 15.8981 12.2038 17.8208 12.2038H29.5417C29.3869 12.2038 29.2335 12.1949 29.0817 12.1788L25.6938 8.77112H13.4895C13.5344 8.88169 13.5764 8.99344 13.6127 9.10863Z" fill="url(#paint5_linear_83_31)"/>
<path d="M29.913 13.3243V12.2037H29.5418C27.6195 12.2037 25.9178 10.9522 25.3342 9.10855C24.7505 7.26483 23.0488 6.01338 21.1262 6.01338H16.1373C13.6985 6.01338 11.721 8.00324 11.721 10.458V13.3243H29.913Z" fill="url(#paint6_linear_83_31)"/>
<path d="M13.6128 9.10855C13.0291 7.26483 11.3273 6.01338 9.40518 6.01338H4.41631C1.97715 6.01338 0 8.00324 0 10.458V39.6104C0 42.0345 1.95273 43.9998 4.36133 43.9998H45.7741C45.1081 43.9998 44.5683 43.4565 44.5683 42.7862V16.6484C44.5683 14.194 42.5911 12.2037 40.152 12.2037H17.8207C15.8981 12.2037 14.1964 10.9522 13.6127 9.10855H13.6128Z" fill="url(#paint7_linear_83_31)"/>
<path d="M41.1948 28.8658H39.6054C38.9572 28.8931 38.7781 27.9613 38.4463 27.4108L37.4545 34.4199C37.4297 34.5783 37.3491 34.7231 37.2268 34.8291C37.1044 34.935 36.9482 34.9954 36.7852 34.9998C36.6222 35.0041 36.4628 34.952 36.3349 34.8526C36.2069 34.7533 36.1185 34.6129 36.0851 34.4561L34.8948 28.4374L34.2146 31.4048C34.1791 31.5462 34.0988 31.6728 33.9852 31.7664C33.8717 31.86 33.7309 31.9157 33.5831 31.9255C33.4352 31.9353 33.2881 31.8986 33.1628 31.8209C33.0375 31.7431 32.9407 31.6282 32.8862 31.4928L32.1574 29.5643L30.9095 31.606C30.8335 31.7252 30.7221 31.8187 30.5904 31.8736C30.4587 31.9286 30.313 31.9426 30.1729 31.9136C30.0329 31.8846 29.9053 31.814 29.8074 31.7114C29.7095 31.6088 29.646 31.4792 29.6254 31.34L28.8377 25.2517L27.1934 31.4273C27.1559 31.5677 27.0738 31.6927 26.9591 31.7842C26.8444 31.8757 26.7031 31.9289 26.5556 31.9362C26.4073 31.9465 26.2598 31.9084 26.1358 31.8278C26.0118 31.7473 25.9183 31.6288 25.8698 31.4908L24.5247 27.9067L23.1241 34.4663C23.0884 34.6219 22.9985 34.7603 22.87 34.8576C22.7415 34.955 22.5825 35.0052 22.4203 34.9995C22.2582 34.9938 22.1031 34.9327 21.982 34.8266C21.8608 34.7205 21.7812 34.5762 21.7568 34.4186L20.588 26.0526L19.996 28.5854C19.9606 28.7359 19.8745 28.8701 19.7516 28.9662C19.6287 29.0624 19.4763 29.1147 19.3192 29.1148H16.6471L15.488 31.5446C15.4236 31.6726 15.3203 31.7777 15.1923 31.8453C15.0644 31.9129 14.9181 31.9397 14.774 31.9218C14.6299 31.904 14.495 31.8424 14.3881 31.7457C14.2812 31.649 14.2076 31.522 14.1776 31.3823L12.7721 24.1507L10.565 28.4886C10.5064 28.6036 10.416 28.7 10.3042 28.7666C10.1923 28.8333 10.0635 28.8675 9.93272 28.8654C9.80192 28.8633 9.67439 28.8248 9.56484 28.7545C9.45529 28.6842 9.36819 28.585 9.31358 28.4681L8.4571 26.6386L7.42988 28.5077C7.37041 28.616 7.28224 28.7064 7.17471 28.7695C7.06718 28.8325 6.94431 28.8658 6.8191 28.8658H3.69441C3.51024 28.8658 3.33362 28.7939 3.20339 28.6659C3.07316 28.5379 3 28.3643 3 28.1833C3 28.0023 3.07316 27.8287 3.20339 27.7007C3.33362 27.5727 3.51024 27.5008 3.69441 27.5008H6.40474L7.89629 24.7872C7.95786 24.6758 8.04972 24.5835 8.16161 24.5205C8.2735 24.4574 8.40101 24.4262 8.5299 24.4303C8.65879 24.4344 8.78398 24.4737 8.89148 24.5437C8.99899 24.6137 9.08457 24.7117 9.13867 24.8268L9.97086 26.6058L12.4487 21.7352C12.5155 21.61 12.62 21.5081 12.7479 21.4435C12.8759 21.3788 13.021 21.3546 13.1635 21.374C13.306 21.3934 13.4389 21.4555 13.5441 21.5519C13.6493 21.6483 13.7217 21.7742 13.7514 21.9126L15.1396 29.0589C15.3846 28.6496 15.5678 27.7136 16.2057 27.7498H18.7668L20.0841 22.1131C20.1227 21.9596 20.2142 21.824 20.3431 21.7293C20.472 21.6346 20.6303 21.5867 20.7911 21.5938C20.9518 21.6009 21.1051 21.6625 21.2248 21.7681C21.3446 21.8737 21.4234 22.0169 21.4479 22.1732L22.5876 30.3318L23.6613 25.3049C23.6947 25.1619 23.7739 25.0331 23.8872 24.9376C24.0006 24.842 24.1421 24.7846 24.291 24.774C24.44 24.7633 24.5885 24.7998 24.7147 24.8782C24.841 24.9566 24.9384 25.0727 24.9925 25.2094L26.4084 28.9818L28.4018 21.4944C28.4462 21.3445 28.5413 21.2139 28.6714 21.1243C28.8015 21.0347 28.9588 20.9913 29.1173 21.0014C29.2759 21.0115 29.4262 21.0745 29.5434 21.1798C29.6606 21.2852 29.7378 21.4267 29.7622 21.581L30.7498 29.2144L31.7097 27.6454C31.7769 27.5351 31.8745 27.4457 31.9911 27.3876C32.1078 27.3294 32.2388 27.3048 32.3691 27.3166C33.0284 27.3555 33.1006 28.2921 33.3734 28.8624L34.2673 24.9618C34.3041 24.8104 34.3922 24.6758 34.5173 24.5803C34.6424 24.4847 34.7968 24.434 34.9552 24.4363C35.1136 24.4387 35.2664 24.4941 35.3884 24.5934C35.5104 24.6926 35.5943 24.8298 35.6263 24.9823L36.6535 30.1728L37.3823 25.0178C37.4053 24.8748 37.4736 24.7427 37.5775 24.6402C37.6814 24.5377 37.8157 24.4702 37.961 24.4472C38.1064 24.4242 38.2554 24.4469 38.3868 24.5121C38.5182 24.5774 38.6253 24.6818 38.6927 24.8104L40.0385 27.5008H41.1948C41.3789 27.5008 41.5554 27.5727 41.6856 27.7006C41.8158 27.8285 41.8889 28.002 41.8889 28.183C41.8889 28.3639 41.8158 28.5374 41.6856 28.6653C41.5554 28.7933 41.3789 28.8658 41.1948 28.8658Z" fill="url(#paint8_linear_83_31)"/>
<defs>
<linearGradient id="paint0_linear_83_31" x1="39.566" y1="1.94666" x2="30.489" y2="26.1497" gradientUnits="userSpaceOnUse">
<stop stop-color="#FFD00D"/>
<stop offset="0.238" stop-color="#FFCB0E"/>
<stop offset="0.535" stop-color="#FFBB11"/>
<stop offset="0.863" stop-color="#FFA215"/>
<stop offset="1" stop-color="#FF9517"/>
</linearGradient>
<linearGradient id="paint1_linear_83_31" x1="40.1314" y1="37.3461" x2="23.664" y2="20.9839" gradientUnits="userSpaceOnUse">
<stop stop-color="#FF9517" stop-opacity="0"/>
<stop offset="0.307" stop-color="#EE8421" stop-opacity="0.306"/>
<stop offset="0.678" stop-color="#E07728" stop-opacity="0.678"/>
<stop offset="1" stop-color="#DB722B"/>
</linearGradient>
<linearGradient id="paint2_linear_83_31" x1="27.5712" y1="17.0394" x2="14.7802" y2="4.33008" gradientUnits="userSpaceOnUse">
<stop stop-color="#FF9517" stop-opacity="0"/>
<stop offset="0.307" stop-color="#EE8421" stop-opacity="0.306"/>
<stop offset="0.678" stop-color="#E07728" stop-opacity="0.678"/>
<stop offset="1" stop-color="#DB722B"/>
</linearGradient>
<linearGradient id="paint3_linear_83_31" x1="25.2013" y1="-3.76031" x2="25.2013" y2="44.3717" gradientUnits="userSpaceOnUse">
<stop stop-color="#FFFCF8"/>
<stop offset="0.188" stop-color="#FAF8F6"/>
<stop offset="0.404" stop-color="#ECEEF2"/>
<stop offset="0.635" stop-color="#D5DCEA"/>
<stop offset="0.875" stop-color="#B5C4DF"/>
<stop offset="1" stop-color="#A1B5D8"/>
</linearGradient>
<linearGradient id="paint4_linear_83_31" x1="47.1528" y1="30.3944" x2="34.7023" y2="29.2251" gradientUnits="userSpaceOnUse">
<stop stop-color="#A1B5D8" stop-opacity="0"/>
<stop offset="0.67" stop-color="#8190A4" stop-opacity="0.671"/>
<stop offset="1" stop-color="#748290"/>
</linearGradient>
<linearGradient id="paint5_linear_83_31" x1="27.4439" y1="16.9114" x2="15.8016" y2="5.34338" gradientUnits="userSpaceOnUse">
<stop stop-color="#A1B5D8" stop-opacity="0"/>
<stop offset="0.67" stop-color="#8190A4" stop-opacity="0.671"/>
<stop offset="1" stop-color="#748290"/>
</linearGradient>
<linearGradient id="paint6_linear_83_31" x1="20.8172" y1="7.01372" x2="20.8172" y2="12.179" gradientUnits="userSpaceOnUse">
<stop stop-color="#FF4974"/>
<stop offset="0.228" stop-color="#FD4571"/>
<stop offset="0.466" stop-color="#F93867"/>
<stop offset="0.71" stop-color="#F12358"/>
<stop offset="0.955" stop-color="#E60642"/>
<stop offset="1" stop-color="#E4003D"/>
</linearGradient>
<linearGradient id="paint7_linear_83_31" x1="22.887" y1="25.4058" x2="22.887" y2="46.1526" gradientUnits="userSpaceOnUse">
<stop stop-color="#FFD00D"/>
<stop offset="0.238" stop-color="#FFC800"/>
<stop offset="0.535" stop-color="#FFBB11"/>
<stop offset="0.863" stop-color="#FFA215"/>
<stop offset="1" stop-color="#FF9517"/>
</linearGradient>
<linearGradient id="paint8_linear_83_31" x1="3.01076" y1="27.9995" x2="41.8785" y2="27.9995" gradientUnits="userSpaceOnUse">
<stop stop-color="#FFA68D"/>
<stop offset="1" stop-color="#FD3A84"/>
</linearGradient>
</defs>
</svg>
