<svg width="50" height="50" viewBox="0 0 50 50" fill="none" xmlns="http://www.w3.org/2000/svg">
<path fill-rule="evenodd" clip-rule="evenodd" d="M25 50C38.8075 50 50 38.8075 50 25C50 11.1925 38.8075 0 25 0C11.1925 0 0 11.1925 0 25C0 38.8075 11.1925 50 25 50Z" fill="#DE5833"/>
<path fill-rule="evenodd" clip-rule="evenodd" d="M28.516 43.6528C28.516 43.4575 28.5632 43.4123 27.9425 42.1755C26.2925 38.8708 24.634 34.2132 25.3887 31.2085C25.5264 30.6623 23.834 10.9962 22.6387 10.3623C21.3085 9.65472 19.6736 8.53019 18.1783 8.28019C17.4189 8.15943 16.4236 8.21698 15.6462 8.3217C15.5075 8.34057 15.5019 8.58868 15.634 8.63302C16.1453 8.8066 16.766 9.1066 17.1311 9.56132C17.2 9.64623 17.1066 9.78208 16.9972 9.78679C16.6519 9.79906 16.0274 9.9434 15.2028 10.6434C15.1075 10.7245 15.1868 10.8755 15.3094 10.8509C17.0811 10.5 18.8915 10.6726 19.9575 11.6434C20.0264 11.7057 19.9906 11.8179 19.9009 11.8425C10.6453 14.3585 12.4764 22.4085 14.9415 32.2896C17.0292 40.6623 17.8783 43.6368 18.1802 44.6509C18.2047 44.736 18.2487 44.8142 18.3086 44.8793C18.3685 44.9445 18.4428 44.9948 18.5255 45.0264C21.7689 46.2434 28.516 46.2679 28.516 44.1406V43.6528Z" fill="#DDDDDD"/>
<path d="M29.7849 45.5075C28.6623 45.9472 26.4642 46.1424 25.1953 46.1424C23.334 46.1424 20.6538 45.85 19.6774 45.4104C19.0745 43.5538 17.2698 37.8009 15.4868 30.4943C15.4292 30.2547 15.3708 30.017 15.3123 29.7802L15.3113 29.7745C13.1925 21.1198 11.4623 14.0509 20.9472 11.8302C21.033 11.8094 21.0755 11.7066 21.0189 11.6377C19.9302 10.3472 17.8915 9.92358 15.3132 10.8132C15.2075 10.85 15.116 10.7434 15.1811 10.6528C15.6868 9.95566 16.6755 9.41981 17.1623 9.18491C17.2632 9.13679 17.2575 8.98868 17.1509 8.95566C16.6685 8.80461 16.1761 8.68734 15.6774 8.60472C15.533 8.58113 15.5198 8.33302 15.6651 8.31321C19.3198 7.82264 23.1368 8.91887 25.0519 11.3321C25.0689 11.3547 25.0953 11.3698 25.1236 11.3764C32.1368 12.8821 32.6387 23.9679 31.8311 24.4726C31.6708 24.5726 31.1613 24.5151 30.4877 24.4396C27.7585 24.1349 22.3557 23.5302 26.8151 31.8415C26.8594 31.9236 26.8009 32.0321 26.7085 32.0462C24.1943 32.4377 27.416 40.316 29.7849 45.5075Z" fill="white"/>
<path d="M32.9217 35.4292C32.3877 35.1811 30.3349 36.6538 28.9726 37.784C28.6877 37.3811 28.1519 37.0877 26.9406 37.2981C25.8802 37.483 25.2953 37.7387 25.034 38.1792C23.3613 37.5453 20.5462 36.566 19.866 37.5113C19.1236 38.5443 20.0519 43.433 21.0396 44.0679C21.5547 44.3991 24.0208 42.8151 25.3075 41.7217C25.5151 42.0141 25.85 42.1821 26.5368 42.166C27.5764 42.1425 29.2632 41.9 29.5245 41.416C29.5419 41.383 29.5558 41.3482 29.566 41.3123C30.8896 41.8066 33.2179 42.3311 33.7387 42.2519C35.0943 42.0481 33.55 35.7198 32.9217 35.4292Z" fill="#3CA82B"/>
<path d="M29.0981 37.9283C29.1547 38.0283 29.1991 38.134 29.2377 38.2415C29.4264 38.7698 29.733 40.4472 29.5019 40.8623C29.2689 41.2764 27.7594 41.4764 26.8274 41.4925C25.8953 41.5085 25.6868 41.1679 25.4981 40.6406C25.3472 40.2189 25.2736 39.2255 25.2745 38.6585C25.2368 37.8151 25.5443 37.5189 26.9679 37.2887C28.0208 37.1189 28.5783 37.317 28.8991 37.6566C30.3943 36.5396 32.8896 34.9651 33.133 35.2528C34.3462 36.6877 34.4991 40.1047 34.2368 41.4792C34.1509 41.9283 30.133 41.034 30.133 40.5491C30.133 38.5368 29.6113 37.9849 29.0981 37.9283ZM20.2972 37.3C20.6264 36.7792 23.2943 37.4274 24.7594 38.0783C24.7594 38.0783 24.4575 39.4425 24.9377 41.0491C25.0774 41.5189 21.5679 43.6104 21.1094 43.2509C20.5802 42.8349 19.6057 38.3943 20.2972 37.3Z" fill="#4CBA3C"/>
<path fill-rule="evenodd" clip-rule="evenodd" d="M21.5896 26.7217C21.8047 25.783 22.8113 24.0142 26.4019 24.0566C28.2179 24.0491 30.4726 24.0557 31.9679 23.8858C33.6701 23.6971 35.341 23.2906 36.9396 22.6764C38.4943 22.084 39.0462 22.216 39.2396 22.5708C39.4519 22.9604 39.2019 23.634 38.6585 24.2538C37.6208 25.4377 35.7557 26.3557 32.4604 26.6274C29.1651 26.8991 26.984 26.016 26.0453 27.4547C25.6396 28.0755 25.9528 29.5377 29.1387 29.9981C33.4434 30.6198 36.9792 29.25 37.416 30.0774C37.8528 30.9047 35.3368 32.5877 31.0245 32.6226C26.7132 32.6585 24.0189 31.1132 23.0642 30.3453C21.8519 29.3708 21.3094 27.95 21.5896 26.7217Z" fill="#FFCC33"/>
<g opacity="0.8">
<path d="M27.0811 16.4557C27.3217 16.0623 27.8547 15.7575 28.7274 15.7575C29.6 15.7575 30.0104 16.1057 30.2953 16.4934C30.3528 16.5717 30.2651 16.6642 30.1755 16.6255L30.1094 16.5972C29.7906 16.4575 29.3991 16.2858 28.7274 16.2764C28.0094 16.267 27.5566 16.4462 27.2708 16.6009C27.1755 16.6538 27.0236 16.5491 27.0811 16.4557ZM17.2547 16.9594C18.1019 16.6057 18.7679 16.6509 19.2387 16.7632C19.3377 16.7858 19.4066 16.6792 19.3274 16.616C18.9623 16.3208 18.1443 15.9557 17.0774 16.3519C16.1245 16.7075 15.6764 17.4453 15.6745 17.9292C15.6736 18.0443 15.9085 18.0538 15.9689 17.9575C16.133 17.6953 16.4066 17.3142 17.2538 16.9594H17.2547Z" fill="#14307E"/>
<path fill-rule="evenodd" clip-rule="evenodd" d="M29.4689 21.8434C28.7198 21.8434 28.1123 21.2377 28.1123 20.4915C28.1123 19.7453 28.7198 19.1396 29.4689 19.1396C30.2179 19.1396 30.8255 19.7453 30.8255 20.4915C30.8255 21.2377 30.2179 21.8434 29.4689 21.8434ZM30.4245 20.0434C30.4245 19.9502 30.3875 19.8608 30.3216 19.7949C30.2557 19.729 30.1663 19.692 30.0731 19.692C29.9799 19.692 29.8905 19.729 29.8246 19.7949C29.7587 19.8608 29.7217 19.9502 29.7217 20.0434C29.7217 20.1366 29.7587 20.226 29.8246 20.2919C29.8905 20.3578 29.9799 20.3948 30.0731 20.3948C30.1663 20.3948 30.2557 20.3578 30.3216 20.2919C30.3875 20.226 30.4245 20.1366 30.4245 20.0434ZM20.4774 21.4274C20.4774 22.2981 19.7698 23.0038 18.8962 23.0038C18.4776 23.0043 18.0759 22.8387 17.7793 22.5433C17.4827 22.2479 17.3154 21.8469 17.3142 21.4283C17.3142 20.5566 18.0236 19.8509 18.8962 19.8509C19.7679 19.8509 20.4774 20.5566 20.4774 21.4274ZM20.0113 20.9047C20.0138 20.8494 20.0051 20.7941 19.9856 20.7422C19.9662 20.6903 19.9364 20.6429 19.898 20.6029C19.8597 20.5628 19.8136 20.531 19.7627 20.5093C19.7117 20.4876 19.6568 20.4765 19.6014 20.4766C19.5459 20.4767 19.4911 20.4881 19.4402 20.51C19.3893 20.532 19.3434 20.564 19.3053 20.6042C19.2671 20.6444 19.2376 20.692 19.2183 20.7439C19.1991 20.7959 19.1906 20.8513 19.1934 20.9066C19.1987 21.0117 19.2442 21.1107 19.3205 21.1831C19.3968 21.2555 19.4981 21.2957 19.6033 21.2955C19.7084 21.2952 19.8095 21.2545 19.8855 21.1818C19.9615 21.109 20.0065 21.0098 20.0113 20.9047Z" fill="#14307E"/>
</g>
<path fill-rule="evenodd" clip-rule="evenodd" d="M25 45.9962C36.5962 45.9962 45.9962 36.5962 45.9962 25C45.9962 13.4038 36.5962 4.00377 25 4.00377C13.4038 4.00377 4.00377 13.4038 4.00377 25C4.00377 36.5962 13.4038 45.9962 25 45.9962ZM25 47.9491C37.6745 47.9491 47.9491 37.6745 47.9491 25C47.9491 12.3255 37.6745 2.05094 25 2.05094C12.3255 2.05094 2.05094 12.3255 2.05094 25C2.05094 37.6745 12.3255 47.9491 25 47.9491Z" fill="white"/>
<path fill-rule="evenodd" clip-rule="evenodd" d="M24.9972 45.6962C36.4292 45.6962 45.6962 36.4292 45.6962 24.9981C45.6962 13.567 36.4292 4.29717 24.9981 4.29717C13.567 4.29717 4.29717 13.566 4.29717 24.9972C4.29717 36.4283 13.566 45.6962 24.9972 45.6962ZM47.9142 24.9981C47.9142 37.6538 37.6538 47.9132 24.9972 47.9132C12.3406 47.9132 2.08113 37.6547 2.08113 24.9991C2.08113 12.3434 12.3396 2.07925 24.9972 2.07925C37.6547 2.07925 47.9151 12.3406 47.9151 24.9972L47.9142 24.9981Z" fill="white"/>
</svg>
