<svg width="50" height="50" viewBox="0 0 50 50" fill="none" xmlns="http://www.w3.org/2000/svg">
<path fill-rule="evenodd" clip-rule="evenodd" d="M49.5169 8.0001C49.5169 5.51484 47.5705 3.5001 45.1692 3.5001C37.5918 3.5001 20.8634 3.5001 13.2861 3.5001C10.885 3.5001 8.9384 5.51484 8.9384 8.0001C8.9384 16.538 8.9384 36.462 8.9384 45C8.9384 47.4852 10.885 49.5 13.2861 49.5C20.8634 49.5 37.5918 49.5 45.1692 49.5C47.5705 49.5 49.5169 47.4852 49.5169 45C49.5169 36.462 49.5169 16.538 49.5169 8.0001Z" fill="#FA890F"/>
<path fill-rule="evenodd" clip-rule="evenodd" d="M13.3329 3.5001C11.3757 3.5001 9.65977 4.8537 9.14083 6.80688C7.34175 13.5783 2.88744 30.3431 0.638639 38.8069C0.278997 40.1609 0.550467 41.6109 1.37288 42.7276C2.19529 43.8446 3.47421 44.5001 4.83087 44.5001C13.2169 44.5001 29.7149 44.5001 36.427 44.5001C38.3842 44.5001 40.1001 43.1465 40.6191 41.1931C42.4181 34.4217 46.8725 17.6571 49.1213 9.19331C49.4811 7.83936 49.2094 6.38928 48.3872 5.27238C47.5648 4.15548 46.2859 3.5001 44.9292 3.5001H13.3329Z" fill="#E7EADF"/>
<path fill-rule="evenodd" clip-rule="evenodd" d="M49.1047 9.20447C49.4684 7.84944 49.1992 6.39648 48.3769 5.27706C47.5549 4.15746 46.2742 3.5001 44.9156 3.5001C36.522 3.5001 20.0287 3.5001 13.3251 3.5001C11.3721 3.5001 9.65873 4.84794 9.13596 6.79572C8.43094 9.42263 7.50679 12.8662 7.50679 12.8662C7.46644 13.0167 7.49636 13.1782 7.58766 13.3025C7.67896 13.4271 7.82139 13.5 7.97234 13.5H47.5846C47.8016 13.5 47.9921 13.3502 48.0502 13.1339C48.0502 13.1339 48.556 11.2491 49.1047 9.20447Z" fill="#FFBC15"/>
<path fill-rule="evenodd" clip-rule="evenodd" d="M8.45528 44.0001V45C8.45528 47.7615 10.6182 50 13.2861 50C20.8635 50 37.5918 50 45.1692 50C47.8373 50 50 47.7615 50 45C50 36.462 50 16.538 50 8.00009C50 5.23872 47.8373 3.00006 45.1692 3.00006C44.636 3.00006 44.2031 3.44808 44.2031 4.00014C44.2031 4.55202 44.636 5.00004 45.1692 5.00004C46.77 5.00004 48.0677 6.34319 48.0677 8.00009C48.0677 16.538 48.0677 36.462 48.0677 45C48.0677 46.6569 46.77 48 45.1692 48C37.5918 48 20.8635 48 13.2861 48C11.6853 48 10.3876 46.6569 10.3876 45C10.3876 44.6661 10.3876 44.3674 10.3876 44.0001C10.3876 43.4482 9.95472 43 9.42152 43C8.88832 43 8.45528 43.4482 8.45528 44.0001Z" fill="#3B2E5E"/>
<path fill-rule="evenodd" clip-rule="evenodd" d="M13.3329 3.00006C11.1583 3.00006 9.25178 4.50396 8.6751 6.67421C6.87602 13.4458 2.42172 30.2105 0.172912 38.6742C-0.226729 40.1787 0.0750012 41.7898 0.988714 43.0308C1.90243 44.2717 3.32343 45 4.83087 45C13.2169 45 29.7148 45 36.427 45C38.6017 45 40.5083 43.4961 41.085 41.3258C42.884 34.5544 47.3383 17.7896 49.587 9.32579C49.9868 7.82153 49.6851 6.21017 48.7713 4.96926C47.8576 3.72834 46.4366 3.00006 44.9292 3.00006H13.3329ZM13.3329 5.00004C12.0282 5.00004 10.8843 5.90238 10.5382 7.20449C8.7391 13.9761 4.28479 30.7407 2.03616 39.2045C1.79634 40.1072 1.97721 41.074 2.52554 41.8185C3.0737 42.5631 3.92637 43 4.83087 43C13.2169 43 29.7148 43 36.427 43C37.7318 43 38.8758 42.0976 39.2217 40.7955C41.0208 34.0241 45.4751 17.2593 47.7239 8.79551C47.9637 7.89281 47.7827 6.92621 47.2345 6.18156C46.6862 5.43708 45.8337 5.00004 44.9292 5.00004H13.3329Z" fill="#3B2E5E"/>
<path fill-rule="evenodd" clip-rule="evenodd" d="M29.8105 0.00143989C31.8974 0.0561599 33.5754 1.82682 33.5754 4.00014C33.5754 4.55202 33.1424 5.00004 32.6092 5.00004C32.0927 5.00004 31.6703 4.57956 31.6444 4.05144L31.6405 3.89718C31.5887 2.84094 30.7439 1.99998 29.7108 1.99998C28.6443 1.99998 27.7784 2.8962 27.7784 4.00014C27.7784 4.55202 27.3455 5.00004 26.8123 5.00004C26.2791 5.00004 25.8461 4.55202 25.8461 4.00014C25.8461 1.79244 27.5779 0 29.7108 0L29.8105 0.00143989Z" fill="#3B2E5E"/>
<path fill-rule="evenodd" clip-rule="evenodd" d="M19.1828 0.00143989C21.2695 0.0561599 22.9477 1.82682 22.9477 4.00014C22.9477 4.55202 22.5147 5.00004 21.9815 5.00004C21.465 5.00004 21.0426 4.57956 21.0167 4.05144L21.0128 3.89718C20.961 2.84094 20.1162 1.99998 19.083 1.99998C18.0166 1.99998 17.1507 2.8962 17.1507 4.00014C17.1507 4.55202 16.7178 5.00004 16.1846 5.00004C15.6514 5.00004 15.2184 4.55202 15.2184 4.00014C15.2184 1.79244 16.9502 0 19.083 0L19.1828 0.00143989Z" fill="#3B2E5E"/>
<path fill-rule="evenodd" clip-rule="evenodd" d="M7.97234 14H47.5846C48.118 14 48.5508 13.552 48.5508 13.0001C48.5508 12.4481 48.118 12.0001 47.5846 12.0001H7.97234C7.43896 12.0001 7.00611 12.4481 7.00611 13.0001C7.00611 13.552 7.43896 14 7.97234 14Z" fill="#3B2E5E"/>
<path fill-rule="evenodd" clip-rule="evenodd" d="M16.2342 3.00132C16.7281 3.02742 17.1244 3.43764 17.1495 3.94866L17.1533 4.10292C17.2051 5.15916 18.05 6.00011 19.083 6.00011C19.6164 6.00011 20.0492 6.44813 20.0492 7.00001C20.0492 7.55189 19.6164 8.00009 19.083 8.00009C16.9502 8.00009 15.2184 6.20765 15.2184 4.00014C15.2184 3.44808 15.6514 3.00006 16.1846 3.00006L16.2342 3.00132Z" fill="#3B2E5E"/>
<path fill-rule="evenodd" clip-rule="evenodd" d="M26.8621 3.00132C27.3558 3.02742 27.7521 3.43764 27.7772 3.94866L27.781 4.10292C27.8328 5.15916 28.6777 6.00011 29.7108 6.00011C30.2441 6.00011 30.6769 6.44813 30.6769 7.00001C30.6769 7.55189 30.2441 8.00009 29.7108 8.00009C27.5779 8.00009 25.8461 6.20765 25.8461 4.00014C25.8461 3.44808 26.2791 3.00006 26.8123 3.00006L26.8621 3.00132Z" fill="#3B2E5E"/>
<path fill-rule="evenodd" clip-rule="evenodd" d="M37.4898 3.00132C37.9835 3.02742 38.3798 3.43764 38.4049 3.94866L38.4087 4.10292C38.4605 5.15916 39.3054 6.00011 40.3385 6.00011C40.8717 6.00011 41.3046 6.44813 41.3046 7.00001C41.3046 7.55189 40.8717 8.00009 40.3385 8.00009C38.2056 8.00009 36.4738 6.20765 36.4738 4.00014C36.4738 3.44808 36.9068 3.00006 37.44 3.00006L37.4898 3.00132Z" fill="#3B2E5E"/>
<path fill-rule="evenodd" clip-rule="evenodd" d="M40.4382 0.00143989C42.5251 0.0561599 44.2031 1.82682 44.2031 4.00014C44.2031 4.55202 43.7703 5.00004 43.2369 5.00004C42.7204 5.00004 42.298 4.57956 42.2721 4.05144L42.2682 3.89718C42.2164 2.84094 41.3716 1.99998 40.3385 1.99998C39.272 1.99998 38.4063 2.8962 38.4063 4.00014C38.4063 4.55202 37.9732 5.00004 37.44 5.00004C36.9068 5.00004 36.4738 4.55202 36.4738 4.00014C36.4738 1.79244 38.2056 0 40.3385 0L40.4382 0.00143989Z" fill="#3B2E5E"/>
<path fill-rule="evenodd" clip-rule="evenodd" d="M12.743 24.0264C15.1579 22.809 17.6686 22.8328 20.1377 23.283C22.7824 23.7648 25.3845 24.7325 27.8039 25.3582C31.4185 26.2929 34.6497 26.4297 37.1571 23.8345C37.5341 23.4443 37.5341 22.8105 37.1571 22.4202C36.78 22.03 36.1677 22.03 35.7907 22.4202C34.5874 23.6658 33.1544 24.0341 31.5767 23.9756C29.7988 23.9096 27.8521 23.3278 25.8113 22.7135C21.3438 21.3689 16.4714 19.9222 11.8969 22.2284C11.4175 22.4701 11.2178 23.0691 11.4514 23.5652C11.6849 24.0615 12.2637 24.2681 12.743 24.0264Z" fill="#3B2E5E"/>
<path fill-rule="evenodd" clip-rule="evenodd" d="M10.8107 33.0264C13.807 31.516 16.9472 31.9077 19.98 32.673C20.4979 32.8039 21.0212 32.4747 21.1474 31.9385C21.2739 31.4022 20.9558 30.8608 20.4377 30.7301C16.9726 29.8555 13.3882 29.5025 9.96463 31.2284C9.48517 31.4701 9.28552 32.0691 9.51908 32.5652C9.75264 33.0615 10.3314 33.2681 10.8107 33.0264Z" fill="#3B2E5E"/>
<path fill-rule="evenodd" clip-rule="evenodd" d="M23.9611 33.8202C26.0529 34.4423 28.0492 34.9648 29.8708 34.9812C31.8741 34.999 33.682 34.4311 35.2248 32.8345C35.6018 32.4443 35.6018 31.8105 35.2248 31.4202C34.8477 31.03 34.2354 31.03 33.8584 31.4202C32.7172 32.6014 31.3694 32.9945 29.8874 32.9812C28.2238 32.9664 26.405 32.466 24.4946 31.898C23.9821 31.7455 23.4465 32.0524 23.2994 32.5829C23.1521 33.1133 23.4486 33.6677 23.9611 33.8202Z" fill="#3B2E5E"/>
</svg>
