<svg width="50" height="50" viewBox="0 0 50 50" fill="none" xmlns="http://www.w3.org/2000/svg">
<path d="M32.8966 3.78572L8.96287 45.7742L0.62471 32.0714L16.9303 3.78572H32.8966Z" fill="#72CAAF"/>
<path d="M21.0639 5.35714L3.31469 36.4871L0.62471 32.0714L16.9303 3.78572L21.0639 5.35714Z" fill="#5DBC9D"/>
<path d="M17.1906 3.78572L33.157 32.0714H49.4625L33.157 3.78572H17.1906Z" fill="#F6D397"/>
<path d="M17.1906 3.78572L35.5866 36.0393L39.9963 32.0714L23.6907 3.78572H17.1906Z" fill="#F5C872"/>
<path d="M49.4625 32.0714H17.1196L9.23108 46.2142H40.7851L49.4625 32.0714Z" fill="#85CBF8"/>
<path d="M40.7851 46.2142H8.44223L10.8088 40.7142H43.9406L40.7851 46.2142Z" fill="#7BBEEB"/>
<path d="M49.6992 30.9007L34.3008 4.18643C34.0933 3.82526 33.7935 3.52524 33.4319 3.31685C33.0702 3.10847 32.6597 2.99915 32.2419 3H17.7743C17.3579 3.00053 16.949 3.11051 16.5888 3.31882C16.2287 3.52714 15.9302 3.82642 15.7233 4.18643L0.317058 30.9007C0.10935 31.259 0 31.6655 0 32.0793C0 32.493 0.10935 32.8995 0.317058 33.2578L7.55872 45.8292C7.76822 46.1875 8.06888 46.4844 8.43037 46.6899C8.79186 46.8955 9.20138 47.0024 9.61762 47H40.3828C40.7993 46.9994 41.2082 46.8895 41.5683 46.6811C41.9285 46.4728 42.227 46.1736 42.4338 45.8135L49.6755 33.2421C49.8839 32.8877 49.9957 32.4852 49.9999 32.0745C50.004 31.6638 49.9004 31.2592 49.6992 30.9007ZM4.2692 36.9428C4.4282 36.8769 4.56118 36.761 4.64785 36.6128C4.70001 36.5232 4.73384 36.4241 4.7474 36.3213C4.76095 36.2186 4.75396 36.1142 4.72683 36.0141C4.69971 35.9141 4.65297 35.8203 4.58932 35.7384C4.52567 35.6564 4.44637 35.5877 4.35598 35.5364L3.00704 34.7507L1.68966 32.4643C1.62042 32.3448 1.58397 32.2093 1.58397 32.0714C1.58397 31.9335 1.62042 31.798 1.68966 31.6785L16.8593 5.35715L18.0899 7.49429C17.9221 7.55571 17.7803 7.67206 17.6876 7.82429C17.6354 7.91396 17.6016 8.01303 17.588 8.11579C17.5745 8.21854 17.5815 8.32295 17.6086 8.423C17.6357 8.52305 17.6825 8.61677 17.7461 8.69876C17.8097 8.78075 17.8891 8.84938 17.9794 8.90071L19.3442 9.68643L24.0773 17.9207L8.70255 44.6428L4.2692 36.9428ZM31.8001 31.2857H18.2161L25.0081 19.5L31.8001 31.2857ZM48.366 32.4643L41.1244 45.0357C41.0549 45.1556 40.9548 45.2551 40.8343 45.3241C40.7137 45.393 40.5771 45.4291 40.4381 45.4285H10.0673L17.3089 32.8571H39.2074C39.4167 32.8571 39.6173 32.7743 39.7652 32.627C39.9132 32.4796 39.9963 32.2798 39.9963 32.0714C39.9963 31.863 39.9132 31.6632 39.7652 31.5158C39.6173 31.3685 39.4167 31.2857 39.2074 31.2857H33.6145L18.2161 4.57143H32.2419C32.3809 4.57088 32.5176 4.60693 32.6381 4.67591C32.7586 4.7449 32.8587 4.84439 32.9282 4.96429L48.3266 31.6785C48.3958 31.798 48.4323 31.9335 48.4323 32.0714C48.4323 32.2093 48.3958 32.3448 48.3266 32.4643H48.366Z" fill="#8D6C9F"/>
<path d="M45.5183 31.2857H42.3628C42.1536 31.2857 41.953 31.3685 41.805 31.5158C41.6571 31.6632 41.574 31.863 41.574 32.0714C41.574 32.2798 41.6571 32.4796 41.805 32.627C41.953 32.7743 42.1536 32.8571 42.3628 32.8571H45.5183C45.7275 32.8571 45.9281 32.7743 46.0761 32.627C46.224 32.4796 46.3071 32.2798 46.3071 32.0714C46.3071 31.863 46.224 31.6632 46.0761 31.5158C45.9281 31.3685 45.7275 31.2857 45.5183 31.2857ZM10.083 22.5171L11.4478 23.3028C11.5375 23.3597 11.6379 23.3979 11.7429 23.4151C11.8479 23.4323 11.9553 23.4281 12.0586 23.4029C12.162 23.3777 12.2591 23.3319 12.3442 23.2684C12.4293 23.2048 12.5007 23.1247 12.5539 23.033C12.6072 22.9412 12.6412 22.8397 12.654 22.7345C12.6669 22.6293 12.6582 22.5226 12.6286 22.4208C12.5989 22.3191 12.5489 22.2243 12.4816 22.1423C12.4142 22.0603 12.3309 21.9927 12.2366 21.9436L10.8719 21.1578C10.7821 21.101 10.6817 21.0628 10.5767 21.0456C10.4717 21.0284 10.3644 21.0326 10.261 21.0578C10.1577 21.083 10.0605 21.1287 9.97541 21.1923C9.8903 21.2559 9.81897 21.336 9.76573 21.4277C9.71249 21.5195 9.67843 21.621 9.6656 21.7262C9.65277 21.8314 9.66144 21.9381 9.69108 22.0398C9.72072 22.1416 9.77073 22.2364 9.83809 22.3184C9.90545 22.4004 9.98877 22.468 10.083 22.5171ZM12.0552 19.115L13.4199 19.9007C13.5097 19.9576 13.6101 19.9957 13.7151 20.0129C13.82 20.0301 13.9274 20.026 14.0308 20.0008C14.1341 19.9756 14.2312 19.9298 14.3164 19.8662C14.4015 19.8026 14.4728 19.7226 14.526 19.6308C14.5793 19.5391 14.6133 19.4376 14.6262 19.3324C14.639 19.2272 14.6303 19.1205 14.6007 19.0187C14.5711 18.9169 14.521 18.8222 14.4537 18.7402C14.3863 18.6581 14.303 18.5905 14.2087 18.5414L12.844 17.7557C12.7542 17.6989 12.6538 17.6607 12.5489 17.6435C12.4439 17.6263 12.3365 17.6304 12.2331 17.6556C12.1298 17.6808 12.0327 17.7266 11.9475 17.7902C11.8624 17.8538 11.7911 17.9338 11.7379 18.0256C11.6846 18.1173 11.6506 18.2188 11.6377 18.324C11.6249 18.4292 11.6336 18.5359 11.6632 18.6377C11.6929 18.7395 11.7429 18.8342 11.8102 18.9162C11.8776 18.9983 11.9609 19.0659 12.0552 19.115ZM14.0273 15.7128L15.392 16.4986C15.4818 16.5554 15.5822 16.5936 15.6872 16.6108C15.7922 16.628 15.8996 16.6239 16.0029 16.5986C16.1062 16.5734 16.2034 16.5277 16.2885 16.4641C16.3736 16.4005 16.4449 16.3204 16.4982 16.2287C16.5514 16.1369 16.5855 16.0354 16.5983 15.9302C16.6111 15.825 16.6025 15.7183 16.5728 15.6166C16.5432 15.5148 16.4932 15.4201 16.4258 15.338C16.3585 15.256 16.2751 15.1884 16.1809 15.1393L14.8162 14.3536C14.7264 14.2967 14.626 14.2585 14.521 14.2413C14.416 14.2241 14.3086 14.2283 14.2053 14.2535C14.1019 14.2787 14.0048 14.3245 13.9197 14.388C13.8346 14.4516 13.7632 14.5317 13.71 14.6234C13.6567 14.7152 13.6227 14.8167 13.6099 14.9219C13.597 15.0271 13.6057 15.1338 13.6353 15.2356C13.665 15.3373 13.715 15.4321 13.7823 15.5141C13.8497 15.5961 13.933 15.6637 14.0273 15.7128ZM15.9994 12.3107L17.3641 13.0964C17.4539 13.1533 17.5543 13.1914 17.6593 13.2086C17.7643 13.2258 17.8717 13.2217 17.975 13.1965C18.0784 13.1713 18.1755 13.1255 18.2606 13.0619C18.3457 12.9984 18.4171 12.9183 18.4703 12.8266C18.5235 12.7348 18.5576 12.6333 18.5704 12.5281C18.5833 12.4229 18.5746 12.3162 18.545 12.2144C18.5153 12.1127 18.4653 12.0179 18.3979 11.9359C18.3306 11.8539 18.2473 11.7863 18.153 11.7371L16.7883 10.9514C16.6985 10.8946 16.5981 10.8564 16.4931 10.8392C16.3881 10.822 16.2807 10.8261 16.1774 10.8513C16.0741 10.8766 15.9769 10.9223 15.8918 10.9859C15.8067 11.0495 15.7354 11.1296 15.6821 11.2213C15.6289 11.313 15.5948 11.4146 15.582 11.5198C15.5692 11.625 15.5778 11.7316 15.6075 11.8334C15.6371 11.9352 15.6871 12.0299 15.7545 12.112C15.8218 12.194 15.9052 12.2616 15.9994 12.3107ZM6.336 32.1421L4.97128 31.3564C4.8815 31.2996 4.78109 31.2614 4.67611 31.2442C4.57113 31.227 4.46374 31.2311 4.36041 31.2563C4.25707 31.2815 4.15992 31.3273 4.0748 31.3909C3.98969 31.4545 3.91836 31.5345 3.86512 31.6263C3.81188 31.718 3.77782 31.8195 3.76499 31.9247C3.75216 32.0299 3.76083 32.1366 3.79047 32.2384C3.82011 32.3402 3.87012 32.4349 3.93748 32.5169C4.00484 32.599 4.08816 32.6666 4.18243 32.7157L5.54714 33.5014C5.72743 33.5953 5.93718 33.6163 6.13259 33.5598C6.32799 33.5033 6.49394 33.3739 6.59576 33.1984C6.69758 33.0229 6.7274 32.8151 6.679 32.6183C6.63059 32.4214 6.5077 32.2508 6.336 32.1421ZM8.30813 28.74L6.94341 27.9543C6.76313 27.8603 6.55337 27.8394 6.35797 27.8959C6.16256 27.9523 5.99662 28.0818 5.8948 28.2573C5.79297 28.4327 5.76315 28.6406 5.81156 28.8374C5.85996 29.0342 5.98286 29.2048 6.15456 29.3136L7.51927 30.0993C7.60906 30.1561 7.70946 30.1943 7.81444 30.2115C7.91942 30.2287 8.02681 30.2246 8.13015 30.1993C8.23349 30.1741 8.33064 30.1284 8.41575 30.0648C8.50087 30.0012 8.57219 29.9211 8.62544 29.8294C8.67868 29.7377 8.71274 29.6361 8.72557 29.5309C8.7384 29.4257 8.72973 29.319 8.70009 29.2173C8.67044 29.1155 8.62044 29.0207 8.55308 28.9387C8.48572 28.8567 8.4024 28.7891 8.30813 28.74ZM8.12669 25.9114L9.4914 26.6971C9.67169 26.7911 9.88144 26.812 10.0768 26.7555C10.2723 26.6991 10.4382 26.5696 10.54 26.3941C10.6418 26.2187 10.6717 26.0108 10.6233 25.814C10.5749 25.6172 10.452 25.4466 10.2803 25.3378L8.91554 24.5521C8.82576 24.4953 8.72535 24.4571 8.62037 24.4399C8.51539 24.4227 8.408 24.4268 8.30466 24.452C8.20133 24.4773 8.10418 24.523 8.01906 24.5866C7.93395 24.6502 7.86262 24.7303 7.80938 24.822C7.75614 24.9137 7.72207 25.0153 7.70925 25.1205C7.69642 25.2257 7.70508 25.3323 7.73473 25.4341C7.76437 25.5359 7.81438 25.6306 7.88174 25.7127C7.9491 25.7947 8.03242 25.8623 8.12669 25.9114Z" fill="#8D6C9F"/>
</svg>
