<svg width="50" height="50" viewBox="0 0 50 50" fill="none" xmlns="http://www.w3.org/2000/svg">
<path d="M37.1795 5.12821C37.1795 2.29615 34.8833 0 32.0513 0C29.2192 0 26.9231 2.29615 26.9231 5.12821C26.9231 6.7359 26.9231 17.6167 26.9231 19.2308C26.9231 22.0628 29.2192 24.359 32.0513 24.359C34.8833 24.359 37.1795 22.0628 37.1795 19.2308C37.1795 17.6167 37.1795 6.7359 37.1795 5.12821Z" fill="#33D375"/>
<path d="M50 19.2308C50 22.0628 47.7038 24.359 44.8718 24.359C43.3397 24.359 39.7436 24.359 39.7436 24.359C39.7436 24.359 39.7436 20.5308 39.7436 19.2308C39.7436 16.3987 42.0397 14.1026 44.8718 14.1026C47.7038 14.1026 50 16.3987 50 19.2308Z" fill="#33D375"/>
<path d="M5.12821 12.8205C2.29615 12.8205 0 15.1167 0 17.9487C0 20.7808 2.29615 23.0769 5.12821 23.0769C6.7359 23.0769 17.6167 23.0769 19.2308 23.0769C22.0628 23.0769 24.359 20.7808 24.359 17.9487C24.359 15.1167 22.0628 12.8205 19.2308 12.8205C17.6167 12.8205 6.7359 12.8205 5.12821 12.8205Z" fill="#40C4FF"/>
<path d="M19.2308 0C22.0628 0 24.359 2.29615 24.359 5.12821C24.359 6.66026 24.359 10.2564 24.359 10.2564C24.359 10.2564 20.5308 10.2564 19.2308 10.2564C16.3987 10.2564 14.1026 7.96026 14.1026 5.12821C14.1026 2.29615 16.3987 0 19.2308 0Z" fill="#40C4FF"/>
<path d="M12.8205 44.8795C12.8205 47.7077 15.1167 50 17.9487 50C20.7808 50 23.0769 47.7077 23.0769 44.8795C23.0769 43.2744 23.0769 32.409 23.0769 30.7974C23.0769 27.9692 20.7808 25.6769 17.9487 25.6769C15.1167 25.6769 12.8205 27.9692 12.8205 30.7974C12.8205 32.409 12.8205 43.2744 12.8205 44.8795Z" fill="#E91E63"/>
<path d="M0 30.7974C0 27.9692 2.29615 25.6769 5.12821 25.6769C6.66026 25.6769 10.2564 25.6769 10.2564 25.6769C10.2564 25.6769 10.2564 29.4987 10.2564 30.7974C10.2564 33.6256 7.96026 35.9179 5.12821 35.9179C2.29615 35.9179 0 33.6256 0 30.7974Z" fill="#E91E63"/>
<path d="M44.8718 37.1795C47.7038 37.1795 50 34.8833 50 32.0513C50 29.2192 47.7038 26.9231 44.8718 26.9231C43.2641 26.9231 32.3833 26.9231 30.7692 26.9231C27.9372 26.9231 25.641 29.2192 25.641 32.0513C25.641 34.8833 27.9372 37.1795 30.7692 37.1795C32.3821 37.1795 43.2641 37.1795 44.8718 37.1795Z" fill="#FFC107"/>
<path d="M30.7692 50C27.9372 50 25.641 47.7038 25.641 44.8718C25.641 43.3397 25.641 39.7436 25.641 39.7436C25.641 39.7436 29.4692 39.7436 30.7692 39.7436C33.6013 39.7436 35.8974 42.0397 35.8974 44.8718C35.8974 47.7038 33.6013 50 30.7692 50Z" fill="#FFC107"/>
</svg>
