<svg width="50" height="50" viewBox="0 0 50 50" fill="none" xmlns="http://www.w3.org/2000/svg">
<path d="M12.2968 11.7194H4.77658C3.56253 11.7194 2.57847 10.7499 2.57847 9.55399V2.16543C2.57837 0.969529 3.56253 0 4.77658 0H12.2968C13.5108 0 14.4949 0.969529 14.4949 2.16543V9.55399C14.495 10.7499 13.5108 11.7194 12.2968 11.7194Z" fill="#FE93D3"/>
<path d="M12.2968 0H8.2727C9.48674 0 10.4708 0.969529 10.4708 2.16543V9.55399C10.4708 10.75 9.48665 11.7194 8.2727 11.7194H12.2969C13.5109 11.7194 14.495 10.7499 14.495 9.55399V2.16543C14.495 0.969529 13.5108 0 12.2968 0Z" fill="#FE73C5"/>
<path d="M8.53668 8.18885C9.84467 8.18885 10.905 7.14608 10.905 5.85975C10.905 4.57343 9.84467 3.53066 8.53668 3.53066C7.2287 3.53066 6.16837 4.57343 6.16837 5.85975C6.16837 7.14608 7.2287 8.18885 8.53668 8.18885Z" fill="white"/>
<path d="M11.8611 3.23193C11.37 3.24579 10.9998 2.70292 11.2021 2.26064C11.4301 1.68799 12.2915 1.68789 12.519 2.26064C12.7233 2.70185 12.3511 3.24531 11.8611 3.23193Z" fill="white"/>
<path d="M24.4046 24.0856C28.3643 24.0856 31.5743 20.9287 31.5743 17.0345C31.5743 13.1403 28.3643 9.98348 24.4046 9.98348C20.4449 9.98348 17.2349 13.1403 17.2349 17.0345C17.2349 20.9287 20.4449 24.0856 24.4046 24.0856Z" fill="#08A9F1"/>
<path d="M24.9997 14.0303C25.1178 13.9361 25.4383 13.9372 25.6155 13.9739C25.8095 14.0143 26.0119 13.9779 26.1789 13.8725C26.3458 13.767 26.4639 13.6011 26.5077 13.4105C26.5514 13.22 26.5172 13.0201 26.4125 12.8542C26.3078 12.6883 26.141 12.5696 25.9482 12.5239C25.833 12.4978 24.8006 12.2861 24.0604 12.8668C23.7628 13.1004 23.408 13.5465 23.408 14.3453V15.3278H23.0298C22.8297 15.3278 22.6378 15.4061 22.4963 15.5455C22.3548 15.6849 22.2753 15.8739 22.2753 16.0711C22.2753 16.2682 22.3548 16.4572 22.4963 16.5966C22.6378 16.736 22.8297 16.8143 23.0298 16.8143H23.408V20.8612C23.408 21.0583 23.4875 21.2474 23.629 21.3868C23.7704 21.5261 23.9623 21.6044 24.1624 21.6044C24.3625 21.6044 24.5545 21.5261 24.6959 21.3868C24.8374 21.2474 24.9169 21.0583 24.9169 20.8612V16.8143H25.6582C25.8583 16.8143 26.0502 16.736 26.1917 16.5966C26.3332 16.4572 26.4127 16.2682 26.4127 16.0711C26.4127 15.8739 26.3332 15.6849 26.1917 15.5455C26.0502 15.4061 25.8583 15.3278 25.6582 15.3278H24.9169V14.3453C24.9171 14.2704 24.9252 14.0899 24.9997 14.0303Z" fill="white"/>
<path d="M20.747 21.2516C16.0903 20.7093 11.385 20.7093 6.72835 21.2516C6.37852 21.2923 6.11414 21.5829 6.11414 21.9294V30.3942C6.11414 30.7407 6.37842 31.0312 6.72835 31.0719C11.385 31.6142 16.0903 31.6142 20.747 31.0719C21.0969 31.0312 21.3612 30.7407 21.3612 30.3942V21.9294C21.3612 21.5829 21.097 21.2923 20.747 21.2516Z" fill="#FE2AA8"/>
<path d="M15.5612 26.1564L13.7377 27.1918L11.9141 28.2272V24.0856L13.7377 25.121L15.5612 26.1564Z" fill="white"/>
<path d="M47.3713 4.9205L45.0793 5.58046C44.6612 5.01298 43.9818 4.64384 43.2147 4.64384C41.9439 4.64384 40.9137 5.65702 40.9137 6.90672C40.9137 7.35575 41.0468 7.7743 41.2761 8.12616C40.3838 8.28397 37.443 8.48651 35.2492 4.93827C35.2492 4.93827 34.2018 10.7747 38.444 12.5417C38.444 12.5417 37.1613 13.8201 34.7657 13.4765C34.7657 13.4765 35.6336 15.7499 39.2431 15.7257C42.5385 15.7035 46.9029 13.4495 46.4069 7.10868L47.3713 4.9205Z" fill="#99E6FC"/>
<path d="M47.3713 4.9205L45.0793 5.58046C44.6612 5.01298 43.9818 4.64384 43.2147 4.64384C42.4983 4.64384 41.8586 4.96591 41.4366 5.47069C41.4366 5.47069 42.0862 5.90458 42.3828 7.10868C43.6499 12.2518 40.0231 14.6761 37.2116 15.4475C37.7658 15.621 38.4353 15.7311 39.2431 15.7258C42.5385 15.7036 46.9029 13.4496 46.4069 7.10878L47.3713 4.9205Z" fill="#62DBFB"/>
<path d="M26.5415 28.1552H39.9576V36.6048L36.3926 40.1109H32.8276L29.57 43.3146V40.1109H26.5415V28.1552Z" fill="#B289C9"/>
<path d="M35.9334 28.1552V36.6048L32.3684 40.1109H29.57V43.3146L32.8276 40.1109H36.3926L39.9576 36.6048V28.1552H35.9334Z" fill="#A274BF"/>
<path d="M36.431 30.6045C36.2175 30.6045 36.0128 30.6881 35.8619 30.8368C35.7109 30.9855 35.6261 31.1871 35.6261 31.3974V34.8617C35.6261 35.072 35.7109 35.2737 35.8619 35.4224C36.0128 35.5711 36.2175 35.6546 36.431 35.6546C36.6444 35.6546 36.8491 35.5711 37.0001 35.4224C37.151 35.2737 37.2358 35.072 37.2358 34.8617V31.3974C37.2358 31.1871 37.151 30.9855 37.0001 30.8368C36.8491 30.6881 36.6444 30.6045 36.431 30.6045ZM33.3942 30.6045C33.1808 30.6045 32.9761 30.6881 32.8251 30.8368C32.6742 30.9855 32.5894 31.1871 32.5894 31.3974V34.8617C32.5894 35.072 32.6742 35.2737 32.8251 35.4224C32.9761 35.5711 33.1808 35.6546 33.3942 35.6546C33.6077 35.6546 33.8124 35.5711 33.9633 35.4224C34.1143 35.2737 34.1991 35.072 34.1991 34.8617V31.3974C34.1991 31.1871 34.1143 30.9855 33.9633 30.8368C33.8124 30.6881 33.6077 30.6045 33.3942 30.6045Z" fill="white"/>
<path d="M10.0432 14.1557C9.82971 14.1557 9.62499 14.2393 9.47406 14.388C9.32312 14.5367 9.23832 14.7383 9.23832 14.9486V16.8338C9.23832 17.044 9.32312 17.2457 9.47406 17.3944C9.62499 17.5431 9.82971 17.6266 10.0432 17.6266C10.2566 17.6266 10.4613 17.5431 10.6123 17.3944C10.7632 17.2457 10.848 17.044 10.848 16.8338V14.9486C10.848 14.8445 10.8272 14.7414 10.7868 14.6452C10.7463 14.549 10.687 14.4616 10.6123 14.3879C10.5376 14.3143 10.4488 14.2559 10.3512 14.2161C10.2535 14.1762 10.1489 14.1557 10.0432 14.1557ZM7.0302 14.1557C6.81675 14.1557 6.61203 14.2393 6.4611 14.388C6.31016 14.5367 6.22537 14.7383 6.22537 14.9486V17.8892C6.22537 18.0995 6.31016 18.3012 6.4611 18.4499C6.61203 18.5986 6.81675 18.6821 7.0302 18.6821C7.24366 18.6821 7.44837 18.5986 7.59931 18.4499C7.75024 18.3012 7.83504 18.0995 7.83504 17.8892V14.9486C7.83504 14.7383 7.75024 14.5367 7.59931 14.388C7.44837 14.2393 7.24366 14.1557 7.0302 14.1557ZM12.1255 33.7472C11.912 33.7472 11.7073 33.8307 11.5564 33.9794C11.4054 34.1281 11.3206 34.3298 11.3206 34.5401V36.4252C11.3206 36.6355 11.4054 36.8372 11.5564 36.9859C11.7073 37.1346 11.912 37.2181 12.1255 37.2181C12.3389 37.2181 12.5437 37.1346 12.6946 36.9859C12.8455 36.8372 12.9303 36.6355 12.9303 36.4252V34.5401C12.9303 34.4359 12.9095 34.3328 12.8691 34.2366C12.8286 34.1404 12.7694 34.053 12.6946 33.9794C12.6199 33.9058 12.5312 33.8474 12.4335 33.8075C12.3358 33.7677 12.2312 33.7472 12.1255 33.7472ZM15.3499 33.7472C15.1364 33.7472 14.9317 33.8307 14.7808 33.9794C14.6298 34.1281 14.5451 34.3298 14.5451 34.5401V39.7632C14.5451 39.9735 14.6298 40.1752 14.7808 40.3238C14.9317 40.4725 15.1364 40.5561 15.3499 40.5561C15.5633 40.5561 15.7681 40.4725 15.919 40.3238C16.0699 40.1752 16.1547 39.9735 16.1547 39.7632V34.5401C16.1547 34.3298 16.0699 34.1281 15.919 33.9794C15.7681 33.8307 15.5633 33.7472 15.3499 33.7472ZM42.0178 18.7693C41.8043 18.7693 41.5996 18.8528 41.4486 19.0015C41.2977 19.1502 41.2129 19.3519 41.2129 19.5622V21.4473C41.2129 21.6576 41.2977 21.8593 41.4486 22.008C41.5996 22.1567 41.8043 22.2402 42.0178 22.2402C42.2312 22.2402 42.4359 22.1567 42.5869 22.008C42.7378 21.8593 42.8226 21.6576 42.8226 21.4473V19.5622C42.8226 19.3519 42.7378 19.1502 42.5869 19.0015C42.4359 18.8528 42.2312 18.7693 42.0178 18.7693ZM38.7934 18.7693C38.6878 18.7693 38.5831 18.7898 38.4855 18.8297C38.3878 18.8695 38.2991 18.9279 38.2243 19.0015C38.1496 19.0752 38.0903 19.1626 38.0499 19.2588C38.0094 19.3549 37.9886 19.458 37.9886 19.5622V24.7853C37.9886 24.9956 38.0734 25.1973 38.2243 25.3459C38.3753 25.4946 38.58 25.5782 38.7934 25.5782C39.0069 25.5782 39.2116 25.4946 39.3626 25.3459C39.5135 25.1973 39.5983 24.9956 39.5983 24.7853V19.5622C39.5983 19.3519 39.5135 19.1502 39.3626 19.0015C39.2116 18.8528 39.0069 18.7693 38.7934 18.7693ZM31.6373 45.2452C31.4239 45.2452 31.2192 45.3288 31.0682 45.4775C30.9173 45.6261 30.8325 45.8278 30.8325 46.0381V47.9232C30.8325 48.1335 30.9173 48.3352 31.0682 48.4839C31.2192 48.6326 31.4239 48.7161 31.6373 48.7161C31.8508 48.7161 32.0555 48.6326 32.2065 48.4839C32.3574 48.3352 32.4422 48.1335 32.4422 47.9232V46.0381C32.4422 45.934 32.4214 45.8309 32.381 45.7347C32.3405 45.6385 32.2812 45.551 32.2065 45.4774C32.1317 45.4038 32.043 45.3454 31.9454 45.3056C31.8477 45.2657 31.743 45.2452 31.6373 45.2452ZM34.8618 43.191C34.6483 43.191 34.4436 43.2746 34.2926 43.4233C34.1417 43.5719 34.0569 43.7736 34.0569 43.9839V49.2071C34.0569 49.4174 34.1417 49.6191 34.2926 49.7678C34.4436 49.9165 34.6483 50 34.8618 50C35.0752 50 35.2799 49.9165 35.4309 49.7678C35.5818 49.6191 35.6666 49.4174 35.6666 49.2071V43.9839C35.6666 43.8798 35.6458 43.7767 35.6054 43.6805C35.5649 43.5843 35.5056 43.4969 35.4309 43.4232C35.3561 43.3496 35.2674 43.2912 35.1698 43.2514C35.0721 43.2115 34.9675 43.191 34.8618 43.191Z" fill="#C8EFFE"/>
<path d="M4.21025 34.7512L5.69889 37.4344L8.4206 38.9019L5.69889 40.3694L4.21025 43.0526L2.72171 40.3694L0 38.9019L2.72171 37.4344L4.21025 34.7512ZM20.4277 43.6928L21.4255 45.4911L23.2497 46.4747L21.4255 47.4582L20.4277 49.2565L19.4301 47.4582L17.6059 46.4747L19.4301 45.4911L20.4277 43.6928ZM47.1782 25.254L48.1758 27.0524L50 28.0359L48.1758 29.0195L47.1782 30.8178L46.1805 29.0195L44.3563 28.0359L46.1805 27.0524L47.1782 25.254ZM26.9917 0L28.1909 2.16162L30.3836 3.34384L28.1909 4.52607L26.9917 6.68768L25.7924 4.52607L23.5998 3.34384L25.7924 2.16162L26.9917 0Z" fill="#FEDF30"/>
</svg>
