<svg width="50" height="50" viewBox="0 0 50 50" fill="none" xmlns="http://www.w3.org/2000/svg">
<path d="M11.9718 11.4816L46.719 10.1297C48.0947 10.0755 49.2417 11.1248 49.2417 12.4384V45.5573C49.2417 46.7972 48.2159 47.8155 46.9167 47.866L12.1695 49.2179C10.793 49.2713 9.64606 48.222 9.64606 46.9092V13.7903C9.64606 12.5504 10.6726 11.5321 11.9718 11.4816Z" fill="#FED5B3"/>
<path d="M12.0688 49.9429C10.3158 49.9429 8.88926 48.5817 8.88926 46.9099V13.7903C8.88926 12.1568 10.2301 10.8259 11.9415 10.7601L46.8205 9.40538C48.5735 9.40538 50 10.7666 50 12.4384V45.5573C50 47.1901 48.6591 48.521 46.9485 48.5875L12.0688 49.9429ZM46.8197 10.8497L12.0028 12.203C11.1059 12.2377 10.4044 12.9353 10.4044 13.7903V46.9092C10.4044 47.7851 11.1513 48.4979 12.0688 48.4979L12.1385 48.4965L46.8857 47.1446C47.7826 47.1092 48.4841 46.4116 48.4841 45.5573V12.4384C48.4841 11.5625 47.7372 10.8497 46.8197 10.8497Z" fill="#1F212B"/>
<path d="M2.6439 2.02421L34.679 0.725047C35.2146 0.703382 35.7426 0.851423 36.1798 1.14606L47.3 8.62906C47.9303 9.05296 47.6379 9.99827 46.8667 10.0279L10.2498 11.452C9.86046 11.4671 9.47864 11.348 9.1741 11.1154L1.52498 5.28258C0.14015 4.22606 0.870441 2.09642 2.6439 2.02421Z" fill="#FAE8E6"/>
<path d="M10.1824 12.1756C9.64682 12.1756 9.12032 11.9994 8.70063 11.6794L1.05226 5.84658C0.171968 5.17498 -0.170451 4.08163 0.180302 3.0605C0.530296 2.03865 1.48483 1.34899 2.61133 1.30277L34.779 0C35.4419 0 36.0767 0.192816 36.6161 0.556061L47.7364 8.03761C48.2925 8.41313 48.5273 9.05729 48.3349 9.67907C48.1425 10.3016 47.5781 10.7211 46.8978 10.7479L10.2809 12.1727C10.2711 12.1741 10.193 12.1756 10.1824 12.1756ZM34.7798 1.44431L2.67648 2.74564C1.92952 2.77597 1.67952 3.33709 1.62043 3.50896C1.56134 3.68084 1.41513 4.27373 1.99921 4.71857L9.64834 10.5514C9.80061 10.667 9.99076 10.7313 10.1839 10.7313V11.4534L10.2195 10.7305L46.8357 9.30572L47.3 8.62833L46.8629 9.21834L35.7426 1.73607C35.4601 1.54542 35.1275 1.44431 34.7798 1.44431Z" fill="#1F212B"/>
<path d="M9.05365 11.1097L0.757565 4.63914V37.2575C0.757565 37.5854 0.867411 37.9046 1.07044 38.1689L8.18624 47.419C8.64835 48.0191 9.64607 47.7079 9.64607 46.9633V12.3019C9.64607 11.8398 9.42865 11.4021 9.05365 11.1097Z" fill="#F69272"/>
<path d="M8.83017 48.4575C8.33169 48.4575 7.87412 48.2343 7.57564 47.8451L0.459842 38.5964C0.159089 38.205 0 37.7421 0 37.2575V4.63914C0 4.35966 0.168937 4.10619 0.433327 3.98703C0.696202 3.86571 1.01059 3.90398 1.23786 4.08019L9.53395 10.55C10.087 10.9818 10.4044 11.6195 10.4044 12.3019V46.964C10.4044 47.3887 10.2279 47.7772 9.90667 48.0588C9.61273 48.3159 9.23092 48.4575 8.83017 48.4575ZM1.51513 6.16361V37.2583C1.51513 37.4337 1.5727 37.6013 1.68179 37.7421L8.83093 47.0139C8.85668 47.0139 8.88926 46.9893 8.88926 46.9648V12.3019C8.88926 12.055 8.77487 11.8246 8.57411 11.6686L1.51513 6.16361Z" fill="#1F212B"/>
<path d="M35.9085 17.2841C34.7775 17.3368 33.8881 18.2265 33.8881 19.3061L36.6707 19.6889L36.7411 19.6773V33.0733L26.4094 17.7196L25.8716 17.7448V17.7196L24.2004 17.8236L18.9535 18.0713L19.0043 18.1478L18.7679 18.1623C17.5853 18.2359 16.6657 19.1718 16.6657 20.302V20.6046L19.3436 20.4378V39.9151L18.1315 40.1505C16.9922 40.2047 16.0975 41.1008 16.0975 42.1877V42.2874L24.5451 41.888C25.7428 41.8317 26.6837 40.8893 26.6837 39.7461L23.3799 39.1315L23.1307 39.1799V24.3894L32.0609 37.8959L33.3707 40.1469C34.3283 41.7927 36.4419 42.4737 38.2502 41.7197L40.3532 40.843L40.2918 40.6603H40.5297V19.0556C41.7888 18.9956 42.7774 18.7703 42.7774 17.1209V16.9635L35.9085 17.2841Z" fill="#F69272"/>
<path d="M16.0975 42.6477C16.0005 42.6477 15.9073 42.6123 15.8361 42.5481C15.7611 42.4795 15.7187 42.3848 15.7187 42.2866V42.187C15.7187 40.9059 16.7702 39.8522 18.1134 39.7894L18.9649 39.6212V20.8234L16.6907 20.9649C16.5876 20.9751 16.4831 20.9368 16.4066 20.8682C16.3301 20.7996 16.2869 20.7042 16.2869 20.6046V20.302C16.2869 19.0007 17.3422 17.9117 18.6982 17.8055C18.7618 17.7492 18.8459 17.7152 18.9353 17.7109L25.8473 17.3592C25.8973 17.3556 25.9473 17.3628 25.9935 17.3773L26.3913 17.3592C26.5254 17.344 26.6557 17.4155 26.7291 17.5246L36.3631 31.8421V20.0117L33.8343 19.6643C33.648 19.6383 33.5093 19.4867 33.5093 19.3069C33.5093 18.0323 34.5548 16.9859 35.8896 16.9238L42.7584 16.6038C42.863 16.5966 42.963 16.6342 43.038 16.7028C43.113 16.7714 43.1554 16.866 43.1554 16.9642V17.1216C43.1554 19.031 41.8441 19.3235 40.9077 19.3957V40.6603C40.9077 40.8004 40.8244 40.9218 40.7017 40.9817C40.6653 41.0647 40.5964 41.1348 40.5039 41.1738L38.4017 42.0505C37.8661 42.2744 37.2994 42.3877 36.7176 42.3877C35.1889 42.3877 33.7798 41.5963 33.0389 40.3224L31.7291 38.0721L23.5095 25.6402V38.7871L26.7564 39.3908C26.9344 39.424 27.0625 39.5728 27.0625 39.7454C27.0625 41.0828 25.9648 42.1819 24.564 42.2476L16.1157 42.647C16.1096 42.6477 16.1035 42.6477 16.0975 42.6477ZM19.3429 20.076C19.4383 20.076 19.5315 20.1106 19.602 20.1735C19.6785 20.2421 19.7217 20.3374 19.7217 20.437V39.9151C19.7217 40.0862 19.5952 40.2343 19.4186 40.2689L18.2065 40.5036C17.3172 40.5491 16.6361 41.1413 16.5005 41.9053L24.5261 41.5269C25.4193 41.4843 26.1382 40.8531 26.2791 40.0378L23.3815 39.4991L23.2065 39.5338C23.0951 39.5554 22.9792 39.528 22.8913 39.4594C22.8027 39.3901 22.7519 39.2882 22.7519 39.1792V24.3894C22.7519 24.2284 22.8633 24.0868 23.0254 24.0428C23.1875 24.0002 23.361 24.0616 23.4512 24.1973L32.3813 37.7038L33.7018 39.9721C34.3093 41.0164 35.4654 41.6656 36.7184 41.6656C37.1949 41.6656 37.6593 41.5724 38.0987 41.389L39.9138 40.6322C39.9191 40.5665 39.9441 40.5022 39.9858 40.4473C40.0282 40.3917 40.0858 40.3498 40.1509 40.3253V19.0556C40.1509 18.8627 40.3092 18.7046 40.5107 18.6952C41.7357 18.6367 42.3244 18.4193 42.3918 17.3433L35.9267 17.6445C35.1063 17.6835 34.4427 18.2547 34.2972 18.9978L36.6941 19.3278C36.7866 19.33 36.8858 19.3553 36.9494 19.4065C37.0358 19.4751 37.1206 19.5712 37.1206 19.6781V33.0748C37.1206 33.2351 37.01 33.3759 36.8487 33.4207C36.6888 33.4662 36.5146 33.4048 36.4229 33.2691L26.2095 18.09L25.8905 18.1052C25.8428 18.1103 25.7989 18.1016 25.7557 18.0886L24.2254 18.1846L19.2543 18.4186C19.1921 18.4706 19.1133 18.5024 19.0293 18.5082L18.7921 18.5233C17.8406 18.5825 17.0891 19.3206 17.0452 20.2197L19.3179 20.0781C19.3262 20.076 19.3346 20.076 19.3429 20.076Z" fill="#1F212B"/>
<path d="M49.2417 22.1868C48.8235 22.1868 48.4841 21.864 48.4841 21.4647V10.3023L37.2464 2.73192C36.9047 2.50227 36.8237 2.05165 37.0646 1.72523C37.3063 1.40026 37.779 1.32155 38.1206 1.55264L49.6788 9.33894C49.8796 9.4747 49.9992 9.69351 49.9992 9.92894V21.4654C49.9992 21.864 49.6599 22.1868 49.2417 22.1868Z" fill="#1F212B"/>
<path d="M9.63016 49.9993C9.38925 49.9993 9.16122 49.8902 9.0188 49.7032L4.73781 44.1202C4.49084 43.7988 4.56432 43.3468 4.9022 43.1113C5.24083 42.8766 5.71431 42.946 5.96052 43.2688L10.0044 48.5427L16.2482 48.3311C16.6801 48.313 17.0179 48.6286 17.0323 49.0273C17.0467 49.4259 16.7202 49.7602 16.302 49.774L9.65667 50C9.64834 49.9993 9.63925 49.9993 9.63016 49.9993Z" fill="#1F212B"/>
<path d="M34.5411 3.81444L39.6108 7.2259L10.7218 8.34958L6.27794 4.9605L34.5411 3.81444Z" fill="#FAE8E6"/>
<path d="M10.7218 8.71066C10.6362 8.71066 10.5521 8.68322 10.4847 8.63194L6.04082 5.24358C5.91733 5.14898 5.86809 4.99227 5.91733 4.84928C5.96582 4.7063 6.10369 4.60736 6.26127 4.60014L8.63017 4.50409C8.82941 4.51276 9.01577 4.64997 9.02486 4.85001C9.03395 5.04932 8.87108 5.21831 8.66199 5.22625L7.30292 5.28114L10.8476 7.98345L17.7891 7.71264C17.9861 7.71697 18.1747 7.85996 18.1831 8.05855C18.1914 8.25787 18.0293 8.42613 17.8202 8.43479L10.737 8.71066C10.7324 8.71066 10.7271 8.71066 10.7218 8.71066ZM23.1034 8.22898C22.9012 8.22898 22.7337 8.07661 22.7254 7.88307C22.7171 7.68375 22.8792 7.51549 23.0883 7.50682L24.6019 7.44833C24.8224 7.43461 24.9875 7.59493 24.9958 7.79424C25.0042 7.99356 24.842 8.16182 24.633 8.17049L23.1186 8.22898C23.1133 8.22898 23.108 8.22898 23.1034 8.22898ZM26.8882 8.08238C26.686 8.08238 26.5185 7.93001 26.5102 7.73647C26.5019 7.53715 26.664 7.36889 26.8731 7.36023L38.4827 6.90888L34.4283 4.18057L33.6404 4.21307C33.4389 4.22318 33.2548 4.06719 33.2457 3.86715C33.2366 3.66711 33.3987 3.49957 33.6078 3.49091L34.5214 3.45408C34.5616 3.45191 34.6025 3.45624 34.6427 3.46708C34.6851 3.47935 34.726 3.49741 34.7616 3.52196L39.8282 6.93199C39.9608 7.02081 40.0183 7.18113 39.9729 7.32917C39.9274 7.47721 39.7873 7.58193 39.6252 7.5877L26.9026 8.0831C26.8988 8.08238 26.8935 8.08238 26.8882 8.08238ZM12.4316 5.07243C12.2301 5.07243 12.0619 4.92078 12.0536 4.72652C12.0445 4.5272 12.2066 4.35822 12.4157 4.35027L31.3382 3.58262C31.548 3.59129 31.7245 3.7285 31.7329 3.92853C31.7419 4.12785 31.5798 4.29683 31.3707 4.30478L12.4483 5.07243C12.4422 5.07243 12.4369 5.07243 12.4316 5.07243Z" fill="#1F212B"/>
<path d="M3.99009 11.1414L6.4143 13.032V39.905L3.99009 36.7535V11.1414Z" fill="#F69272"/>
<path d="M5.6734 39.3027C5.55673 39.3027 5.44158 39.2521 5.36734 39.1554L4.47114 37.9905C4.34766 37.8295 4.38402 37.6034 4.55296 37.4857C4.72114 37.3666 4.95826 37.402 5.0825 37.563L5.9787 38.7278C6.00445 38.7618 6.02339 38.7979 6.03551 38.8347V13.2032L4.36887 11.9026V16.3583C4.36887 16.5576 4.19918 16.7194 3.99009 16.7194C3.781 16.7194 3.61131 16.5576 3.61131 16.3583V11.1429C3.61131 11.1191 3.61358 11.0952 3.61813 11.0714V11.0707C3.61813 11.0699 3.61813 11.0692 3.61813 11.0692C3.63176 11.0064 3.66207 10.9493 3.70449 10.9031C3.73934 10.8641 3.78176 10.8352 3.82721 10.8143C3.87191 10.7948 3.92115 10.7825 3.97267 10.7796C4.03706 10.7789 4.10676 10.7912 4.16888 10.823C4.16888 10.823 4.16963 10.823 4.16963 10.8237C4.16963 10.8237 4.16963 10.8244 4.17039 10.8244C4.1916 10.836 4.21206 10.8482 4.23024 10.8634L6.65217 12.7526C6.74005 12.8212 6.79156 12.923 6.79156 13.032V38.9322C6.79156 39.1315 6.62187 39.2933 6.41278 39.2933C6.23248 39.2933 6.08173 39.1734 6.04309 39.0124C6.02567 39.0976 5.97567 39.1777 5.89536 39.2333C5.82946 39.2803 5.75143 39.3027 5.6734 39.3027ZM3.99009 34.7733C3.781 34.7733 3.61131 34.6115 3.61131 34.4122V19.9691C3.61131 19.7698 3.781 19.608 3.99009 19.608C4.19918 19.608 4.36887 19.7698 4.36887 19.9691V34.4122C4.36887 34.6115 4.19918 34.7733 3.99009 34.7733Z" fill="#1F212B"/>
<path d="M25.211 45.2099C25.0087 45.2099 24.8413 45.0576 24.833 44.864C24.8246 44.6647 24.9875 44.4964 25.1958 44.4878L40.335 43.9043C40.535 43.9093 40.7198 44.0516 40.7289 44.2502C40.7373 44.4495 40.5744 44.6178 40.3661 44.6264L25.2269 45.2099C25.2216 45.2099 25.2163 45.2099 25.211 45.2099ZM42.6213 44.539C42.4191 44.539 42.2516 44.3867 42.2433 44.1931C42.235 43.9938 42.3971 43.8255 42.6062 43.8169L44.1205 43.7584C44.3243 43.7403 44.5054 43.9057 44.5145 44.1043C44.5228 44.3036 44.3607 44.4719 44.1516 44.4805L42.6372 44.539C42.6312 44.539 42.6266 44.539 42.6213 44.539ZM45.2016 43.2904C44.9925 43.2904 44.8228 43.1287 44.8228 42.9294V14.0431C44.8228 13.8438 44.9925 13.682 45.2016 13.682C45.4107 13.682 45.5804 13.8438 45.5804 14.0431V42.9294C45.5804 43.1287 45.4107 43.2904 45.2016 43.2904ZM13.3839 42.5069C13.1748 42.5069 13.0051 42.3451 13.0051 42.1458V15.2693C13.0051 15.075 13.1657 14.9162 13.3687 14.9082L15.4755 14.8273C15.6786 14.8259 15.8604 14.9746 15.8695 15.1732C15.8778 15.3726 15.7149 15.5408 15.5066 15.5495L13.7634 15.6166V42.1458C13.7627 42.3451 13.593 42.5069 13.3839 42.5069ZM17.7603 15.4621C17.5581 15.4621 17.3906 15.3097 17.3823 15.1162C17.374 14.9169 17.5361 14.7486 17.7452 14.7399L19.2588 14.6815C19.48 14.6851 19.6444 14.8288 19.6527 15.0274C19.6611 15.2267 19.4989 15.3949 19.2899 15.4036L17.7755 15.4621C17.7709 15.4621 17.7656 15.4621 17.7603 15.4621ZM21.5451 15.3155C21.3429 15.3155 21.1754 15.1631 21.1671 14.9696C21.1588 14.7703 21.3216 14.602 21.53 14.5933L36.6684 14.0091C36.8654 14.007 37.0532 14.1564 37.0623 14.355C37.0706 14.5544 36.9078 14.7226 36.6994 14.7313L21.561 15.3155C21.5557 15.3155 21.5504 15.3155 21.5451 15.3155Z" fill="#1F212B"/>
</svg>
