<svg width="50" height="50" viewBox="0 0 50 50" fill="none" xmlns="http://www.w3.org/2000/svg">
<path d="M25.0533 0L20.6823 13.6364L8.63539 6.06061L13.9659 19.3723L0 21.3203L12.4733 28.0303L2.98507 38.6364L16.8443 35.6061L16.3113 50L25.0533 38.6364L33.6887 50L33.1556 35.6061L47.0149 38.6364L37.5267 28.0303L50 21.3203L36.0341 19.3723L41.3646 6.06061L29.3177 13.6364L25.0533 0Z" fill="#EDA183"/>
<path d="M18.7055 31.2993C18.7055 31.0453 18.6664 30.8108 18.6078 30.6154C18.5492 30.42 18.4515 30.2441 18.3538 30.1074C18.2365 29.9706 18.1193 29.8534 18.0021 29.7557C17.8848 29.658 17.748 29.5993 17.6308 29.5407C17.7285 29.5017 17.8457 29.4235 17.9434 29.3258C18.0607 29.2281 18.1584 29.1109 18.2561 28.9741C18.3538 28.8373 18.4319 28.681 18.4905 28.5051C18.5492 28.3293 18.5882 28.1339 18.5882 27.919C18.5882 27.4696 18.4905 27.0788 18.2951 26.7466C18.0998 26.4144 17.8262 26.1604 17.4745 25.9846C17.1228 25.8087 16.6734 25.711 16.1654 25.711H13V33.5854H16.3021C16.6538 33.5854 16.986 33.5267 17.2791 33.4291C17.5722 33.3314 17.8262 33.1946 18.0411 32.9992C18.2561 32.8038 18.4319 32.5693 18.5492 32.2958C18.6273 32.0027 18.6859 31.6705 18.7055 31.2993ZM17.1619 31.2211C17.1619 31.397 17.1228 31.5533 17.0446 31.7096C16.9665 31.8464 16.8492 31.9636 16.7125 32.0613C16.5562 32.159 16.3608 32.1981 16.1263 32.1981H14.5241V30.2637H16.1263C16.3608 30.2637 16.5562 30.3028 16.7125 30.4005C16.8688 30.4786 16.986 30.5959 17.0446 30.7522C17.1228 30.8889 17.1619 31.0453 17.1619 31.2211ZM17.0446 27.9776C17.0446 28.1534 17.0056 28.3098 16.9274 28.4465C16.8492 28.5833 16.732 28.681 16.5757 28.7592C16.4194 28.8373 16.2435 28.8764 16.0286 28.8764H14.5241V27.0592H16.0286C16.2435 27.0592 16.4389 27.0983 16.5757 27.1765C16.732 27.2546 16.8492 27.3523 16.9274 27.4891C17.0056 27.6454 17.0446 27.8017 17.0446 27.9776Z" fill="black"/>
<path d="M25.4856 31.8268L26.8924 33.4877H25.0362L24.4695 32.8038C24.3718 32.882 24.2741 32.9601 24.1569 33.0383C24.0397 33.1164 23.9029 33.1946 23.7466 33.2727C23.5903 33.3509 23.3949 33.4095 23.18 33.4681C22.965 33.5268 22.711 33.5463 22.4375 33.5463C21.8513 33.5463 21.3823 33.4486 20.9916 33.2532C20.6203 33.0578 20.3272 32.7843 20.1318 32.4325C19.9364 32.0808 19.8387 31.651 19.8387 31.1625C19.8387 30.928 19.8778 30.6936 19.956 30.4786C20.0341 30.2832 20.1514 30.0878 20.2881 29.912C20.4249 29.7361 20.5812 29.5798 20.7376 29.443C20.8939 29.3063 21.0697 29.189 21.2456 29.0718C21.1674 28.9741 21.0893 28.8764 20.9916 28.7592C20.8939 28.6615 20.8157 28.5247 20.7376 28.3879C20.6594 28.2511 20.6008 28.0948 20.5422 27.9385C20.4835 27.7822 20.464 27.6063 20.464 27.411C20.464 27.0397 20.5617 26.7271 20.718 26.4535C20.8939 26.18 21.1283 25.965 21.441 25.8087C21.7536 25.6524 22.1248 25.5743 22.5742 25.5743C22.9846 25.5743 23.3558 25.6524 23.6489 25.8087C23.942 25.9846 24.1765 26.1995 24.3328 26.4731C24.5086 26.7466 24.5868 27.0788 24.5868 27.4305C24.5868 27.6259 24.5477 27.8213 24.4891 27.9776C24.4305 28.1339 24.3328 28.2902 24.2155 28.427C24.0983 28.5638 23.942 28.681 23.7857 28.7982C23.7857 28.7982 23.7661 28.8178 23.7271 28.8373C23.688 28.8764 23.6489 28.9155 23.5903 28.9546C23.5121 28.9936 23.4535 29.0523 23.3949 29.0913L23.219 29.2086L24.5477 30.7717C24.6845 30.5959 24.7822 30.4005 24.8408 30.166C24.919 29.9315 24.9385 29.6579 24.958 29.3844H26.3258C26.3062 29.8924 26.2281 30.3418 26.0913 30.7522C25.9545 31.1625 25.7591 31.5142 25.4856 31.8268Z" fill="black"/>
<path d="M35.4311 25.6133H37.0333L34.9231 33.4877H33.6335L32.1876 28.7201L30.7417 33.4877H29.4521L27.3418 25.6133H28.9441L30.1555 30.5763L31.6014 25.6133H32.7542L34.2001 30.5763L35.4311 25.6133Z" fill="black"/>
<path d="M18.6354 23.0188V23.0672H29.9536V23.0188C29.9536 21.4214 29.3143 19.9693 28.2961 18.9285C27.2779 17.8878 25.8572 17.2343 24.2945 17.2343C22.7317 17.2343 21.311 17.8878 20.2929 18.9285C19.2747 19.9693 18.6354 21.4214 18.6354 23.0188ZM17.4515 23.043V22.9946C17.4515 21.0584 18.2092 19.3158 19.4641 18.0572C20.6954 16.7987 22.4239 16 24.2945 16C26.1887 16 27.8936 16.7745 29.1248 18.0572C30.3561 19.3158 31.1375 21.0826 31.1375 22.9946V23.043H37.0333V24.0111H13V23.043H17.4515Z" fill="black"/>
</svg>
