<svg viewBox="0 0 50 50" xmlns="http://www.w3.org/2000/svg" xmlns:xlink="http://www.w3.org/1999/xlink" width="50.000000" height="50.000000" fill="none" customFrame="#000000">
	<g id="waves">
		<path id="Форма 2" d="M11.1452 49.8391L13.6944 49.8391L17.3096 41.4205L15.0492 41.4205L12.4251 47.6799L9.79036 41.4205L7.52995 41.4205" fill="rgb(255,255,255)" fill-rule="nonzero" />
		<path id="Форма 3" d="M3.6794 49.8391L6.2286 49.8391L9.84384 41.4205L7.58343 41.4205L4.95935 47.6799L2.32458 41.4205L0.0641732 41.4205" fill="rgb(255,255,255)" fill-rule="nonzero" />
		<path id="Форма 4" d="M15.0278 49.9102L17.331 49.9102L17.9389 48.4199L22.121 48.4199L22.761 49.9102L25.0535 49.9102L21.3527 41.49L18.6644 41.49M20.0086 43.4392L21.342 46.5994L18.7072 46.5994L20.0086 43.4392L20.0086 43.4392Z" fill="rgb(255,255,255)" fill-rule="evenodd" />
		<path id="Форма 5" d="M26.4618 49.9102L29.0003 49.9102L32.6155 41.49L30.364 41.49L27.731 47.7391L25.0963 41.49L22.8341 41.49M33.3197 49.9102L40.8068 49.9102L40.8068 47.8797L35.3876 47.8797L35.3876 46.5299L40.4004 46.5299L40.4004 44.7907L35.3876 44.7907L35.3876 43.4392L40.6785 43.4392L40.6785 41.49L33.3197 41.49M41.5092 47.7307C41.5092 49.5597 42.2668 50 44.144 50L46.6397 50C49.3814 50 50 49.6291 50 47.3598C50 44.9092 49.2531 44.6603 46.0532 44.6704C43.8463 44.6806 43.5896 44.6603 43.5896 43.9304C43.5896 43.4799 43.9104 43.28 44.3686 43.28L46.6504 43.28C47.6005 43.28 47.654 43.5392 47.654 44.1505L49.7219 44.1505L49.7219 43.8796C49.7219 42.3994 49.4991 41.3901 47.1192 41.3901L44.2402 41.3901C41.6376 41.3901 41.5306 42.5586 41.5306 44.0896C41.5306 46.1591 41.8836 46.6197 44.9872 46.6197C47.6433 46.6197 47.8876 46.6705 47.8876 47.3987C47.8876 48.049 47.4401 48.11 47.0034 48.11L44.4755 48.11C43.8784 48.11 43.5896 48.0406 43.5789 47.1396L41.511 47.1396M9.77966 18.38C9.77966 18.38 8.5425 11.7599 8.2448 10.0308C7.93461 8.47954 7.70109 7.16874 7.24294 5.13988C6.85789 3.22957 6.69745 2.7503 6.23931 1.49878C6.01647 0.839992 5.62072 0.0101581 4.77753 0.0101581C4.01098 0.0101581 3.7008 0.729912 3.46727 1.4395C3.08222 2.68933 2.77203 3.52933 2.38876 5.26012C2.00549 7.17043 1.77018 8.24075 1.38691 10.0308C1.00364 11.9394 0 18.38 0 18.38L9.77966 18.38C10.1647 20.59 10.9437 24.7595 11.327 26.6698C11.7103 28.4599 11.9456 29.5302 12.4144 31.4405C12.7995 33.1696 13.1097 34.0096 13.4929 35.3187C13.7265 35.9707 14.0367 36.7498 14.8032 36.7498C15.6571 36.7498 15.9673 35.8607 16.1901 35.2594C16.6482 33.9503 16.8087 33.4694 17.2668 31.5608C17.7268 29.5285 17.9621 28.2194 18.2705 26.6698C18.6537 24.58 19.3472 20.4596 19.816 18.38M29.8631 18.38C29.3817 15.5955 28.8915 12.8125 28.3924 10.0308C28.0822 8.47954 27.8469 7.16874 27.3888 5.13988C26.9306 3.22957 26.7702 2.7503 26.3013 1.49878C26.0767 0.839992 25.7665 0.0101581 24.9144 0.0101581C24.1354 0.0101581 23.8377 0.729912 23.6024 1.4395C23.2191 2.51998 22.8234 3.47006 22.4401 5.19916C22.0568 7.17043 21.8215 8.24075 21.4382 10.0308C20.8862 12.8118 20.3455 15.5949 19.816 18.38L29.8631 18.38C30.6582 22.7327 31.5579 27.0659 32.562 31.3796C32.9453 33.1103 33.2555 33.8894 33.6388 35.2002C33.8741 35.8607 34.1825 36.6295 34.9508 36.6295C35.6443 36.6295 36.1024 35.7404 36.3377 35.1392C36.8065 33.8301 36.9563 33.3491 37.4251 31.4405C37.894 29.41 38.1186 28.0992 38.427 26.6106C38.7372 24.8798 39.6642 19.75 39.8995 18.38M48.3154 10.0207C48.0801 8.46938 47.7699 7.15858 47.3118 5.12972C46.9285 3.21941 46.768 2.74014 46.3099 1.48862C46.0746 0.829833 45.6913 0 44.8374 0C44.0584 0 43.8356 0.719753 43.6003 1.42935C43.1421 2.68087 42.8337 3.52086 42.438 5.24997C42.0547 7.16028 41.8194 8.23059 41.4361 10.0207C41.0511 11.9293 40.3576 16.3392 39.8995 18.3698L49.861 18.3698C49.467 15.5704 48.6238 11.7498 48.3154 10.0207" fill="rgb(255,255,255)" fill-rule="nonzero" />
	</g>
</svg>
