<svg width="51" height="51" viewBox="0 0 51 51" fill="none" xmlns="http://www.w3.org/2000/svg">
<rect x="5" y="5" width="41" height="41" rx="20.5" fill="white"/>
<path fill-rule="evenodd" clip-rule="evenodd" d="M25.8 0.800005C12.0016 0.800005 0.800005 12.0016 0.800005 25.8C0.800005 39.5984 12.0016 50.8 25.8 50.8C39.5984 50.8 50.8 39.5984 50.8 25.8C50.8 12.0016 39.5984 0.800005 25.8 0.800005ZM22.4668 22.6653L18.5084 19.4984C18.1631 19.2224 17.7222 19.0947 17.2828 19.1435C16.8433 19.1922 16.4412 19.4134 16.1647 19.7584C15.8889 20.1038 15.7613 20.5445 15.81 20.9838C15.8588 21.4231 16.0799 21.8251 16.4247 22.1016L22.09 26.6332L16.4253 31.1647C16.0802 31.4411 15.8589 31.8432 15.81 32.2827C15.7612 32.7221 15.8888 33.163 16.1647 33.5084C16.4412 33.8535 16.8433 34.0747 17.2828 34.1234C17.7222 34.1722 18.1631 34.0445 18.5084 33.7684L22.4663 30.6016V42.4668C22.4665 42.7836 22.5568 43.0937 22.7268 43.3609C22.8969 43.6281 23.1395 43.8414 23.4263 43.9757C23.7132 44.11 24.0323 44.1598 24.3465 44.1193C24.6606 44.0787 24.9567 43.9496 25.2 43.7468L35.2 35.4132C35.3899 35.2552 35.5423 35.0568 35.6461 34.8326C35.7499 34.6084 35.8025 34.3639 35.8 34.1168C35.7973 33.8697 35.7398 33.6262 35.6317 33.404C35.5236 33.1817 35.3675 32.9862 35.1747 32.8316L27.4268 26.6332L35.1747 20.4353C35.3675 20.2806 35.5236 20.0851 35.6317 19.8629C35.7398 19.6406 35.7973 19.3971 35.8 19.15C35.8025 18.9029 35.75 18.6583 35.6462 18.4339C35.5424 18.2096 35.39 18.0112 35.2 17.8532L25.2 9.52001C24.9568 9.31701 24.6607 9.18758 24.3465 9.1469C24.0323 9.10622 23.7131 9.15599 23.4261 9.29035C23.1392 9.42472 22.8966 9.63811 22.7267 9.9055C22.5568 10.1729 22.4666 10.4832 22.4668 10.8V22.6653ZM25.8 29.6021V38.9084L31.4984 34.16L25.8 29.6021ZM25.8 23.6653L31.4984 19.1068L25.8 14.3579V23.6653Z" fill="url(#paint0_linear_45_136)"/>
<defs>
<linearGradient id="paint0_linear_45_136" x1="-0.542627" y1="-3.06894" x2="47.8868" y2="50.0053" gradientUnits="userSpaceOnUse">
<stop stop-color="#97E0FF"/>
<stop offset="1" stop-color="#1075FF"/>
</linearGradient>
</defs>
</svg>
