<svg width="51" height="51" viewBox="0 0 51 51" fill="none" xmlns="http://www.w3.org/2000/svg">
<path d="M36.697 0.333326H13.9697C6.43853 0.333326 0.333326 6.43853 0.333326 13.9697V36.697C0.333326 44.2281 6.43853 50.3333 13.9697 50.3333H36.697C44.2281 50.3333 50.3333 44.2281 50.3333 36.697V13.9697C50.3333 6.43853 44.2281 0.333326 36.697 0.333326Z" fill="#FFE2F7"/>
<path d="M41.9515 41.9992H8.71515C8.70267 41.9987 8.69085 41.9935 8.68201 41.9846C8.67318 41.9758 8.66797 41.964 8.66742 41.9515V8.71515C8.66742 8.68787 8.69015 8.66742 8.71515 8.66742H41.9515C41.9788 8.66742 41.9992 8.69015 41.9992 8.71515V41.9515C41.9992 41.9788 41.9765 41.9992 41.9515 41.9992Z" fill="#FFD8F4"/>
<path d="M8.66742 18.0424C8.53034 18.0427 8.39455 18.0159 8.26785 17.9636C8.14115 17.9113 8.02604 17.8345 7.92911 17.7375C7.83218 17.6406 7.75535 17.5255 7.70303 17.3988C7.65071 17.2721 7.62394 17.1363 7.62424 16.9992V12.8333C7.62544 11.4522 8.17464 10.1279 9.15127 9.15127C10.1279 8.17464 11.4522 7.62544 12.8333 7.62424H16.9992C17.2756 7.62424 17.5407 7.73402 17.7361 7.92944C17.9315 8.12487 18.0413 8.38991 18.0413 8.66628C18.0413 8.94265 17.9315 9.2077 17.7361 9.40312C17.5407 9.59854 17.2756 9.70833 16.9992 9.70833H12.8333C11.1106 9.70833 9.70833 11.1106 9.70833 12.8333V16.9992C9.70863 17.1361 9.68192 17.2717 9.62974 17.3983C9.57757 17.5248 9.50094 17.6398 9.40426 17.7367C9.30757 17.8336 9.19272 17.9105 9.06628 17.963C8.93984 18.0154 8.8043 18.0424 8.66742 18.0424ZM41.9992 18.0424C41.8623 18.0424 41.7268 18.0154 41.6004 17.963C41.4739 17.9105 41.3591 17.8336 41.2624 17.7367C41.1657 17.6398 41.0891 17.5248 41.0369 17.3983C40.9847 17.2717 40.958 17.1361 40.9583 16.9992V12.8333C40.9583 11.1106 39.5561 9.70833 37.8333 9.70833H33.6674C33.391 9.70833 33.126 9.59854 32.9306 9.40312C32.7352 9.2077 32.6254 8.94265 32.6254 8.66628C32.6254 8.38991 32.7352 8.12487 32.9306 7.92944C33.126 7.73402 33.391 7.62424 33.6674 7.62424H37.8333C39.2145 7.62544 40.5387 8.17464 41.5154 9.15127C42.492 10.1279 43.0412 11.4522 43.0424 12.8333V16.9992C43.0427 17.1363 43.0159 17.2721 42.9636 17.3988C42.9113 17.5255 42.8345 17.6406 42.7375 17.7375C42.6406 17.8345 42.5255 17.9113 42.3988 17.9636C42.2721 18.0159 42.1363 18.0427 41.9992 18.0424ZM16.9992 43.0424H12.8333C11.4522 43.0412 10.1279 42.492 9.15127 41.5154C8.17464 40.5387 7.62544 39.2145 7.62424 37.8333V33.6674C7.62424 33.3911 7.73402 33.126 7.92944 32.9306C8.12486 32.7352 8.38991 32.6254 8.66628 32.6254C8.94265 32.6254 9.2077 32.7352 9.40312 32.9306C9.59854 33.126 9.70833 33.3911 9.70833 33.6674V37.8333C9.70833 39.5561 11.1106 40.9583 12.8333 40.9583H16.9992C17.2756 40.9583 17.5407 41.0681 17.7361 41.2635C17.9315 41.459 18.0413 41.724 18.0413 42.0004C18.0413 42.2767 17.9315 42.5418 17.7361 42.7372C17.5407 42.9326 17.2756 43.0424 16.9992 43.0424ZM37.8333 43.0424H33.6674C33.391 43.0424 33.126 42.9326 32.9306 42.7372C32.7352 42.5418 32.6254 42.2767 32.6254 42.0004C32.6254 41.724 32.7352 41.459 32.9306 41.2635C33.126 41.0681 33.391 40.9583 33.6674 40.9583H37.8333C39.5561 40.9583 40.9583 39.5561 40.9583 37.8333V33.6674C40.9583 33.3911 41.0681 33.126 41.2635 32.9306C41.459 32.7352 41.724 32.6254 42.0004 32.6254C42.2767 32.6254 42.5418 32.7352 42.7372 32.9306C42.9326 33.126 43.0424 33.3911 43.0424 33.6674V37.8333C43.0412 39.2145 42.492 40.5387 41.5154 41.5154C40.5387 42.492 39.2145 43.0412 37.8333 43.0424ZM21.1674 22.2083C21.0305 22.2086 20.8949 22.1819 20.7684 22.1297C20.6418 22.0776 20.5268 22.0009 20.4299 21.9043C20.333 21.8076 20.2561 21.6927 20.2037 21.5663C20.1512 21.4398 20.1242 21.3043 20.1242 21.1674V19.0833C20.1242 18.807 20.234 18.5419 20.4294 18.3465C20.6249 18.1511 20.8899 18.0413 21.1663 18.0413C21.4426 18.0413 21.7077 18.1511 21.9031 18.3465C22.0985 18.5419 22.2083 18.807 22.2083 19.0833V21.1674C22.2083 21.4435 22.0987 21.7082 21.9035 21.9035C21.7082 22.0987 21.4435 22.2083 21.1674 22.2083ZM29.4992 22.2083C29.2232 22.2083 28.9584 22.0987 28.7632 21.9035C28.568 21.7082 28.4583 21.4435 28.4583 21.1674V19.0833C28.4583 18.807 28.5681 18.5419 28.7635 18.3465C28.959 18.1511 29.224 18.0413 29.5004 18.0413C29.7767 18.0413 30.0418 18.1511 30.2372 18.3465C30.4326 18.5419 30.5424 18.807 30.5424 19.0833V21.1674C30.5424 21.3043 30.5154 21.4398 30.463 21.5663C30.4105 21.6927 30.3336 21.8076 30.2367 21.9043C30.1398 22.0009 30.0248 22.0776 29.8983 22.1297C29.7717 22.1819 29.6361 22.2086 29.4992 22.2083ZM25.3333 34.7083C23.4004 34.7059 21.5473 33.937 20.1805 32.5702C18.8137 31.2034 18.0448 29.3503 18.0424 27.4174C18.0424 27.1414 18.1521 26.8766 18.3473 26.6814C18.5425 26.4862 18.8073 26.3765 19.0833 26.3765C19.3594 26.3765 19.6242 26.4862 19.8194 26.6814C20.0146 26.8766 20.1242 27.1414 20.1242 27.4174C20.126 28.7982 20.6755 30.1219 21.6521 31.098C22.6286 32.0741 23.9526 32.623 25.3333 32.6242C26.7141 32.623 28.038 32.0741 29.0146 31.098C29.9911 30.1219 30.5406 28.7982 30.5424 27.4174C30.5424 27.1414 30.6521 26.8766 30.8473 26.6814C31.0425 26.4862 31.3073 26.3765 31.5833 26.3765C31.8594 26.3765 32.1242 26.4862 32.3194 26.6814C32.5146 26.8766 32.6242 27.1414 32.6242 27.4174C32.6218 29.3503 31.8529 31.2034 30.4861 32.5702C29.1193 33.937 27.2663 34.7059 25.3333 34.7083Z" fill="#EA1E98"/>
</svg>
